<svg width="182" height="75" viewBox="0 0 182 75" fill="none" xmlns="http://www.w3.org/2000/svg">
<path d="M133.316 29.4111L121.413 67.4736H111.333L99.3783 29.4111H106.638L115.421 59.6211H117.573L126.315 29.4111H133.316ZM168.251 67.4736H161.508V51.2399H144.345V67.4698H137.602V29.4073H144.345V44.8086H161.508V29.4073H168.251V67.4736ZM88.6683 54.3561C86.977 51.8398 84.0258 50.3661 81.1158 50.4411C80.6283 50.4561 80.0883 50.5236 79.6608 50.5536C77.8233 50.6623 74.677 50.5124 72.6933 48.1911C72.6933 48.1911 68.4258 42.4536 68.4183 42.4423C66.7045 39.7348 67.7995 36.1911 68.4408 34.6048C68.5645 34.3386 68.8045 33.7836 68.8045 33.7836C71.5833 26.7598 66.7083 18.1873 57.7458 18.7536C49.2558 19.2861 45.6033 28.3086 48.892 34.8861C49.4208 36.0598 51.1908 40.7661 48.3783 45.9673L47.2083 47.8498C45.892 49.8111 39.5283 57.9373 33.1795 42.6073L17.7708 5.67735C13.5858 -5.1789 -4.08797 0.776094 0.869533 13.0798L22.9345 65.9886C24.0783 68.6886 25.1583 71.5423 27.7608 73.2411C31.1995 75.4873 36.3108 74.8386 39.0333 71.9698C39.7983 71.1673 40.2183 70.3011 40.402 69.9261C41.692 67.2561 48.0445 50.6586 48.9858 48.6298C49.4433 47.6398 49.6083 47.2536 49.8595 46.8223C52.8595 41.7261 57.3895 40.8561 59.2345 40.6836C60.7083 40.5448 64.6345 40.3723 66.8845 43.1211L71.1783 48.8623C72.7008 50.9586 73.2633 55.4436 72.8395 57.7273C72.2995 60.6448 73.4995 64.0686 75.9895 65.9361C82.2445 70.6611 90.5433 65.8461 90.0858 58.6798C90.007 57.4236 89.5796 55.7248 88.657 54.3561H88.6683Z" fill="black"/>
<path d="M179.346 61.8711C179.346 60.9734 178.752 60.4738 177.8 60.4738H175.944V65.1988H176.774V63.2142H177.173L178.327 65.1988H179.346L178.111 63.1805C178.881 63.0725 179.346 62.5597 179.346 61.8711ZM177.76 62.5528H176.774V61.2028H177.76C178.219 61.2028 178.489 61.4592 178.489 61.8711C178.489 62.283 178.219 62.5528 177.76 62.5528Z" fill="black"/>
<path d="M177.463 58.5051C174.978 58.5051 172.963 60.5199 172.963 63.0051C172.963 65.4904 174.978 67.5051 177.463 67.5051C179.948 67.5051 181.963 65.4904 181.963 63.0051C181.963 60.5199 179.948 58.5051 177.463 58.5051ZM177.463 66.774C175.381 66.774 173.694 65.0866 173.694 63.0051C173.694 60.9237 175.381 59.2362 177.463 59.2362C179.544 59.2362 181.232 60.9237 181.232 63.0051C181.232 65.0866 179.544 66.774 177.463 66.774Z" fill="black"/>
</svg>
