<svg width="120" height="132" viewBox="0 0 120 132" fill="none" xmlns="http://www.w3.org/2000/svg">
<path d="M58.289 6.87396L54.2459 19.7995H50.821L46.7602 6.87396H49.2266L52.2102 17.1328H52.9417L55.9108 6.87396H58.2891H58.289ZM59.5981 7.51743C59.5981 6.89701 60.1014 6.39422 60.7218 6.39422C61.3422 6.39422 61.8455 6.89712 61.8455 7.51743C61.8455 8.13773 61.3423 8.64064 60.7218 8.64064C60.1012 8.64064 59.5981 8.13762 59.5981 7.51743ZM59.6293 19.7994V10.4807H61.8144V19.7994H59.6293ZM66.0244 18.6721L66.0068 19.7995H64.0685V6.39422H66.2538V9.19482C66.2538 9.91701 66.2362 10.6921 66.2009 11.3967C66.8705 10.6921 67.9279 10.3045 69.038 10.3045C71.5581 10.3045 73.6728 12.2776 73.6728 15.1488C73.6728 17.9849 71.5581 19.9755 69.038 19.9755C67.822 19.9755 66.6766 19.4998 66.0247 18.6718L66.0245 18.672L66.0244 18.6721ZM68.756 17.9675C70.3245 17.9675 71.47 16.8224 71.47 15.149C71.47 13.4579 70.3245 12.3129 68.756 12.3129C67.2581 12.3129 66.095 13.3522 66.095 15.149C66.095 16.9281 67.2581 17.9675 68.756 17.9675ZM75.4844 10.4819H77.6695V10.9757C77.6584 11.0587 77.6528 11.1034 77.6343 11.2384C78.1632 10.6219 79.4777 10.2696 80.4821 10.2696C80.5521 10.2696 80.6217 10.2712 80.6911 10.2745C80.6911 11.0102 80.6911 11.8843 80.6911 12.4464H79.8827C78.7725 12.4464 77.6693 13.0175 77.6693 14.3564V19.7995H75.4842V10.4819H75.4844ZM81.5435 15.1491C81.5435 12.2778 83.6407 10.3048 86.1783 10.3048C87.3943 10.3048 88.522 10.7627 89.1916 11.6085L89.2091 10.481H91.1476V19.7996H89.2091L89.1916 18.6721C88.522 19.5177 87.394 19.9758 86.1783 19.9758C83.6406 19.9758 81.5435 17.9851 81.5435 15.1491ZM86.4602 17.9676C87.9405 17.9676 89.121 16.9282 89.121 15.1491C89.121 13.3522 87.9403 12.313 86.4602 12.313C84.8917 12.313 83.7287 13.458 83.7287 15.1491C83.7287 16.8226 84.8917 17.9676 86.4602 17.9676ZM93.4028 10.4819H95.5879V10.9757C95.5768 11.0587 95.5711 11.1034 95.5527 11.2384C96.0815 10.6219 97.3961 10.2696 98.4005 10.2696C100.462 10.2696 102.165 11.7142 102.165 14.2154V19.7996H99.9793V14.3565C99.9793 13.0178 98.8939 12.3131 97.8013 12.3131C96.6911 12.3131 95.5879 13.0178 95.5879 14.3565V19.7996H93.4028V10.4819ZM105.661 12.4391H103.526V10.466H105.661V7.06018H107.847V10.466H110V12.4391H107.847L107.829 19.7996H105.644L105.661 12.4391ZM58.2056 23.9064V36.8319H55.9154V31.32H50.0849V36.8317H47.7946V23.9063H50.0849V29.1364H55.9154V23.9063H58.2056V23.9064ZM60.1525 32.1991C60.1525 29.3452 62.1968 27.3194 64.8931 27.3194C67.3602 27.3194 69.5806 28.9929 69.3691 32.6569H62.1968C62.373 34.1367 63.4832 35.1584 65.0693 35.1584C66.2323 35.1584 67.2193 34.6125 67.9064 33.6083L69.3516 34.7533C68.4352 36.0746 66.9901 37.0434 65.0165 37.0434C62.1087 37.0434 60.1527 34.9998 60.1527 32.1991H60.1525ZM67.3074 31.0892C67.043 29.7855 66.1091 29.1161 64.8755 29.1161C63.5713 29.1161 62.5846 29.9264 62.2673 31.0892H67.3074ZM70.8109 32.1816C70.8109 29.3102 72.9082 27.3372 75.4457 27.3372C76.6617 27.3372 77.7894 27.7951 78.459 28.6409L78.4766 27.5134H80.4151V36.8321H78.4766L78.459 35.7046C77.7894 36.5501 76.6615 37.0083 75.4457 37.0083C72.9081 37.0083 70.8109 35.0177 70.8109 32.1817V32.1816ZM75.7277 35C77.2079 35 78.3885 33.9606 78.3885 32.1816C78.3885 30.3846 77.2078 29.3454 75.7277 29.3454C74.1592 29.3454 72.9961 30.4904 72.9961 32.1816C72.9961 33.855 74.1592 35 75.7277 35ZM82.6704 23.4267H84.8555V36.8319H82.6704V23.4267ZM88.4819 29.4715H86.3464V27.4985H88.4819V24.0926H90.6672V27.4985H92.8207V29.4715H90.6672L90.6498 36.8321H88.4645L88.4819 29.4715ZM94.308 23.4267H96.4931L96.4579 28.2708C96.9865 27.6542 98.3011 27.3019 99.3055 27.3019C101.367 27.3019 103.07 28.7465 103.07 31.2477V36.8319H100.884V31.3889C100.884 30.0502 99.7989 29.3454 98.7063 29.3454C97.5961 29.3454 96.4928 30.0502 96.4928 31.3889V36.8319H94.308V23.4267ZM40.5259 24.8339C39.7524 23.6837 38.4045 23.0111 37.0742 23.046C36.8513 23.0529 36.6044 23.0843 36.4095 23.0982C35.5689 23.1476 34.1309 23.0796 33.2246 22.018C33.2246 22.018 31.2735 19.3962 31.2706 19.391C30.4869 18.1539 30.9871 16.5346 31.2814 15.8109C31.3377 15.6894 31.4481 15.4355 31.4481 15.4355C32.7187 12.2267 30.4908 8.30889 26.3935 8.56765C22.5129 8.81157 20.844 12.9332 22.3475 15.9382C22.5895 16.4744 23.3977 18.6243 22.1124 21.002L21.5772 21.8624C20.9761 22.7578 18.0662 26.472 15.1657 19.4673L8.12239 2.59366C6.20943 -2.36575 -1.8682 0.354221 0.397331 5.97532L10.4824 30.1484C11.0053 31.3819 11.4982 32.6855 12.6888 33.4627C14.2609 34.4889 16.5972 34.1925 17.8415 32.882C18.1909 32.515 18.3829 32.1195 18.4677 31.9474C19.0573 30.728 21.9617 23.1444 22.3915 22.2172C22.601 21.7653 22.676 21.588 22.7914 21.392C24.1628 19.0634 26.2338 18.6654 27.0769 18.5867C27.7501 18.5238 29.5451 18.4452 30.5732 19.7005L32.5364 22.3237C33.2317 23.2817 33.4891 25.3311 33.2955 26.3748C33.0482 27.7073 33.598 29.272 34.7355 30.1262C37.5936 32.2854 41.3874 30.0845 41.1787 26.8103C41.142 26.2357 40.9466 25.4596 40.526 24.834L40.5259 24.8339Z" fill="#1F1F1F"/>
<line x1="0.5" y1="57.543" x2="0.499999" y2="86.543" stroke="#84C12F" stroke-linecap="round"/>
<line x1="112.5" y1="57.543" x2="112.5" y2="86.543" stroke="#84C12F" stroke-linecap="round"/>
<path d="M1.64645 72.0683C1.45118 72.2636 1.45118 72.5802 1.64645 72.7754L4.82843 75.9574C5.02369 76.1527 5.34027 76.1527 5.53553 75.9574C5.7308 75.7621 5.7308 75.4456 5.53553 75.2503L2.70711 72.4219L5.53553 69.5934C5.7308 69.3982 5.7308 69.0816 5.53553 68.8863C5.34027 68.6911 5.02369 68.6911 4.82843 68.8863L1.64645 72.0683ZM112.354 72.7754C112.549 72.5802 112.549 72.2636 112.354 72.0683L109.172 68.8864C108.976 68.6911 108.66 68.6911 108.464 68.8864C108.269 69.0816 108.269 69.3982 108.464 69.5935L111.293 72.4219L108.464 75.2503C108.269 75.4456 108.269 75.7622 108.464 75.9574C108.66 76.1527 108.976 76.1527 109.172 75.9574L112.354 72.7754ZM2 72.4219L2 72.9219L112 72.9219L112 72.4219L112 71.9219L2 71.9219L2 72.4219Z" fill="#84C12F"/>
<path d="M5.82955 109.498C5.77841 109.066 5.57102 108.73 5.20739 108.492C4.84375 108.253 4.39773 108.134 3.86932 108.134C3.48295 108.134 3.14489 108.196 2.85511 108.321C2.56818 108.446 2.34375 108.618 2.18182 108.837C2.02273 109.056 1.94318 109.304 1.94318 109.583C1.94318 109.816 1.99858 110.016 2.10938 110.184C2.22301 110.348 2.3679 110.486 2.54403 110.597C2.72017 110.705 2.90483 110.794 3.09801 110.865C3.29119 110.934 3.46875 110.989 3.63068 111.032L4.51705 111.27C4.74432 111.33 4.99716 111.412 5.27557 111.517C5.55682 111.623 5.82528 111.766 6.08097 111.948C6.33949 112.127 6.55256 112.357 6.72017 112.638C6.88778 112.919 6.97159 113.265 6.97159 113.674C6.97159 114.145 6.84801 114.571 6.60085 114.952C6.35653 115.333 5.99858 115.635 5.52699 115.86C5.05824 116.084 4.48864 116.196 3.81818 116.196C3.19318 116.196 2.65199 116.096 2.1946 115.894C1.74006 115.692 1.3821 115.411 1.12074 115.05C0.862216 114.689 0.715909 114.27 0.681818 113.793H1.77273C1.80114 114.123 1.91193 114.395 2.10511 114.611C2.30114 114.824 2.5483 114.983 2.84659 115.088C3.14773 115.191 3.47159 115.242 3.81818 115.242C4.22159 115.242 4.58381 115.176 4.90483 115.046C5.22585 114.912 5.48011 114.728 5.66761 114.492C5.85511 114.253 5.94886 113.975 5.94886 113.657C5.94886 113.367 5.8679 113.131 5.70597 112.949C5.54403 112.767 5.33097 112.62 5.06676 112.506C4.80256 112.392 4.51705 112.293 4.21023 112.208L3.13636 111.901C2.45455 111.705 1.91477 111.425 1.51705 111.061C1.11932 110.698 0.920455 110.222 0.920455 109.634C0.920455 109.145 1.05256 108.719 1.31676 108.355C1.58381 107.989 1.94176 107.705 2.39062 107.503C2.84233 107.299 3.34659 107.196 3.90341 107.196C4.46591 107.196 4.96591 107.297 5.40341 107.499C5.84091 107.698 6.1875 107.971 6.44318 108.317C6.7017 108.664 6.83807 109.057 6.85227 109.498H5.82955ZM11.2319 116.179C10.6183 116.179 10.0898 116.034 9.64666 115.745C9.20348 115.455 8.86257 115.056 8.62393 114.547C8.3853 114.039 8.26598 113.458 8.26598 112.804C8.26598 112.14 8.38814 111.553 8.63246 111.044C8.87962 110.533 9.22337 110.134 9.66371 109.847C10.1069 109.557 10.6239 109.412 11.2148 109.412C11.6751 109.412 12.0898 109.498 12.4592 109.668C12.8285 109.838 13.131 110.077 13.3668 110.384C13.6026 110.691 13.7489 111.049 13.8058 111.458H12.8001C12.7234 111.159 12.5529 110.895 12.2887 110.665C12.0273 110.432 11.6751 110.316 11.2319 110.316C10.8398 110.316 10.4961 110.418 10.2006 110.623C9.90803 110.824 9.67933 111.11 9.51456 111.479C9.35263 111.846 9.27166 112.276 9.27166 112.77C9.27166 113.276 9.35121 113.716 9.5103 114.091C9.67223 114.466 9.8995 114.757 10.1921 114.965C10.4876 115.172 10.8342 115.276 11.2319 115.276C11.4933 115.276 11.7305 115.23 11.9435 115.14C12.1566 115.049 12.337 114.918 12.4847 114.748C12.6325 114.577 12.7376 114.373 12.8001 114.134H13.8058C13.7489 114.52 13.6083 114.868 13.3839 115.178C13.1623 115.485 12.8683 115.729 12.5018 115.911C12.1381 116.09 11.7148 116.179 11.2319 116.179ZM15.2759 116.043V109.498H16.2475V110.486H16.3157C16.435 110.162 16.6509 109.9 16.9634 109.698C17.2759 109.496 17.6282 109.395 18.0202 109.395C18.0941 109.395 18.1864 109.397 18.2972 109.4C18.408 109.402 18.4918 109.407 18.5487 109.412V110.435C18.5146 110.426 18.4364 110.414 18.3143 110.397C18.195 110.377 18.0685 110.367 17.935 110.367C17.6168 110.367 17.3327 110.434 17.0827 110.567C16.8356 110.698 16.6396 110.88 16.4947 111.113C16.3526 111.343 16.2816 111.605 16.2816 111.901V116.043H15.2759ZM22.2859 116.179C21.6552 116.179 21.1112 116.04 20.6538 115.762C20.1992 115.48 19.8484 115.088 19.6012 114.586C19.3569 114.08 19.2347 113.492 19.2347 112.821C19.2347 112.151 19.3569 111.56 19.6012 111.049C19.8484 110.534 20.1921 110.134 20.6325 109.847C21.0756 109.557 21.5927 109.412 22.1836 109.412C22.5245 109.412 22.8612 109.469 23.1935 109.583C23.5259 109.696 23.8285 109.881 24.1012 110.137C24.3739 110.39 24.5913 110.725 24.7532 111.142C24.9151 111.56 24.9961 112.074 24.9961 112.685V113.111H19.9506V112.242H23.9734C23.9734 111.873 23.8995 111.543 23.7518 111.253C23.6069 110.963 23.3995 110.735 23.1296 110.567C22.8626 110.4 22.5472 110.316 22.1836 110.316C21.783 110.316 21.4364 110.415 21.1438 110.614C20.854 110.81 20.631 111.066 20.4748 111.381C20.3185 111.696 20.2404 112.034 20.2404 112.395V112.975C20.2404 113.469 20.3256 113.888 20.4961 114.232C20.6694 114.573 20.9094 114.833 21.2163 115.012C21.5231 115.188 21.8796 115.276 22.2859 115.276C22.5501 115.276 22.7887 115.239 23.0018 115.165C23.2177 115.088 23.4038 114.975 23.56 114.824C23.7163 114.671 23.837 114.48 23.9222 114.253L24.8938 114.526C24.7915 114.855 24.6197 115.145 24.3782 115.395C24.1367 115.642 23.8384 115.836 23.4833 115.975C23.1282 116.111 22.729 116.179 22.2859 116.179ZM29.2702 116.179C28.6396 116.179 28.0955 116.04 27.6381 115.762C27.1836 115.48 26.8327 115.088 26.5856 114.586C26.3413 114.08 26.2191 113.492 26.2191 112.821C26.2191 112.151 26.3413 111.56 26.5856 111.049C26.8327 110.534 27.1765 110.134 27.6168 109.847C28.06 109.557 28.5771 109.412 29.168 109.412C29.5089 109.412 29.8455 109.469 30.1779 109.583C30.5103 109.696 30.8129 109.881 31.0856 110.137C31.3583 110.39 31.5756 110.725 31.7376 111.142C31.8995 111.56 31.9805 112.074 31.9805 112.685V113.111H26.935V112.242H30.9577C30.9577 111.873 30.8839 111.543 30.7362 111.253C30.5913 110.963 30.3839 110.735 30.114 110.567C29.8469 110.4 29.5316 110.316 29.168 110.316C28.7674 110.316 28.4208 110.415 28.1282 110.614C27.8384 110.81 27.6154 111.066 27.4592 111.381C27.3029 111.696 27.2248 112.034 27.2248 112.395V112.975C27.2248 113.469 27.31 113.888 27.4805 114.232C27.6538 114.573 27.8938 114.833 28.2006 115.012C28.5075 115.188 28.864 115.276 29.2702 115.276C29.5344 115.276 29.7731 115.239 29.9862 115.165C30.2021 115.088 30.3881 114.975 30.5444 114.824C30.7006 114.671 30.8214 114.48 30.9066 114.253L31.8782 114.526C31.7759 114.855 31.604 115.145 31.3626 115.395C31.1211 115.642 30.8228 115.836 30.4677 115.975C30.1126 116.111 29.7134 116.179 29.2702 116.179ZM34.516 112.105V116.043H33.5103V109.498H34.4819V110.52H34.5671C34.7205 110.188 34.9535 109.921 35.266 109.719C35.5785 109.515 35.9819 109.412 36.4762 109.412C36.9194 109.412 37.3072 109.503 37.6396 109.685C37.9719 109.864 38.2305 110.137 38.4151 110.503C38.5998 110.867 38.6921 111.327 38.6921 111.884V116.043H37.6864V111.952C37.6864 111.438 37.5529 111.037 37.2859 110.75C37.0188 110.461 36.6523 110.316 36.1864 110.316C35.8654 110.316 35.5785 110.385 35.3256 110.525C35.0756 110.664 34.8782 110.867 34.7333 111.134C34.5884 111.401 34.516 111.725 34.516 112.105ZM41.2628 116.111C41.0526 116.111 40.8722 116.036 40.7216 115.885C40.571 115.735 40.4957 115.554 40.4957 115.344C40.4957 115.134 40.571 114.953 40.7216 114.803C40.8722 114.652 41.0526 114.577 41.2628 114.577C41.473 114.577 41.6534 114.652 41.804 114.803C41.9545 114.953 42.0298 115.134 42.0298 115.344C42.0298 115.483 41.9943 115.611 41.9233 115.728C41.8551 115.844 41.7628 115.938 41.6463 116.009C41.5327 116.077 41.4048 116.111 41.2628 116.111ZM41.2628 111.253C41.0526 111.253 40.8722 111.178 40.7216 111.027C40.571 110.877 40.4957 110.696 40.4957 110.486C40.4957 110.276 40.571 110.096 40.7216 109.945C40.8722 109.794 41.0526 109.719 41.2628 109.719C41.473 109.719 41.6534 109.794 41.804 109.945C41.9545 110.096 42.0298 110.276 42.0298 110.486C42.0298 110.625 41.9943 110.753 41.9233 110.87C41.8551 110.986 41.7628 111.08 41.6463 111.151C41.5327 111.219 41.4048 111.253 41.2628 111.253ZM50.2607 107.316V116.043H49.2038V108.424H49.1527L47.022 109.838V108.765L49.2038 107.316H50.2607ZM55.8388 107.316V116.043H54.782V108.424H54.7308L52.6001 109.838V108.765L54.782 107.316H55.8388ZM61.1953 116.162C60.5533 116.162 60.0064 115.988 59.5547 115.638C59.103 115.286 58.7578 114.776 58.5192 114.108C58.2805 113.438 58.1612 112.628 58.1612 111.679C58.1612 110.736 58.2805 109.931 58.5192 109.263C58.7607 108.593 59.1072 108.081 59.5589 107.729C60.0135 107.374 60.5589 107.196 61.1953 107.196C61.8317 107.196 62.3757 107.374 62.8274 107.729C63.282 108.081 63.6286 108.593 63.8672 109.263C64.1087 109.931 64.2294 110.736 64.2294 111.679C64.2294 112.628 64.1101 113.438 63.8714 114.108C63.6328 114.776 63.2876 115.286 62.8359 115.638C62.3842 115.988 61.8374 116.162 61.1953 116.162ZM61.1953 115.225C61.8317 115.225 62.326 114.918 62.6783 114.304C63.0305 113.691 63.2067 112.816 63.2067 111.679C63.2067 110.924 63.1257 110.28 62.9638 109.749C62.8047 109.218 62.5746 108.813 62.2734 108.534C61.9751 108.256 61.6158 108.117 61.1953 108.117C60.5646 108.117 60.0717 108.428 59.7166 109.05C59.3615 109.669 59.1839 110.546 59.1839 111.679C59.1839 112.435 59.2635 113.077 59.4226 113.605C59.5817 114.134 59.8104 114.536 60.1087 114.811C60.4098 115.087 60.772 115.225 61.1953 115.225ZM69.3771 116.043V107.316H72.326C73.0107 107.316 73.5703 107.439 74.005 107.686C74.4425 107.931 74.7663 108.262 74.9766 108.679C75.1868 109.097 75.2919 109.563 75.2919 110.077C75.2919 110.591 75.1868 111.059 74.9766 111.479C74.7692 111.9 74.4482 112.235 74.0135 112.485C73.5788 112.732 73.022 112.855 72.343 112.855H70.2294V111.918H72.3089C72.7777 111.918 73.1541 111.837 73.4382 111.675C73.7223 111.513 73.9283 111.294 74.0561 111.019C74.1868 110.74 74.2521 110.426 74.2521 110.077C74.2521 109.728 74.1868 109.415 74.0561 109.14C73.9283 108.864 73.7209 108.648 73.4339 108.492C73.147 108.333 72.7663 108.253 72.2919 108.253H70.4339V116.043H69.3771ZM77.5057 107.316L79.7557 110.946H79.8239L82.0739 107.316H83.3182L80.5739 111.679L83.3182 116.043H82.0739L79.8239 112.48H79.7557L77.5057 116.043H76.2614L79.0739 111.679L76.2614 107.316H77.5057ZM1.05682 130.043V121.316H4.00568C4.69034 121.316 5.25 121.439 5.68466 121.686C6.12216 121.931 6.44602 122.262 6.65625 122.679C6.86648 123.097 6.97159 123.563 6.97159 124.077C6.97159 124.591 6.86648 125.059 6.65625 125.479C6.44886 125.9 6.12784 126.235 5.69318 126.485C5.25852 126.732 4.7017 126.855 4.02273 126.855H1.90909V125.918H3.98864C4.45739 125.918 4.83381 125.837 5.1179 125.675C5.40199 125.513 5.60795 125.294 5.7358 125.019C5.86648 124.74 5.93182 124.426 5.93182 124.077C5.93182 123.728 5.86648 123.415 5.7358 123.14C5.60795 122.864 5.40057 122.648 5.11364 122.492C4.8267 122.333 4.44602 122.253 3.97159 122.253H2.11364V130.043H1.05682ZM8.53764 130.043V123.498H9.50923V124.486H9.57741C9.69673 124.162 9.91264 123.9 10.2251 123.698C10.5376 123.496 10.8899 123.395 11.282 123.395C11.3558 123.395 11.4482 123.397 11.5589 123.4C11.6697 123.402 11.7536 123.407 11.8104 123.412V124.435C11.7763 124.426 11.6982 124.414 11.576 124.397C11.4567 124.377 11.3303 124.367 11.1967 124.367C10.8786 124.367 10.5945 124.434 10.3445 124.567C10.0973 124.698 9.90128 124.88 9.75639 125.113C9.61435 125.343 9.54332 125.605 9.54332 125.901V130.043H8.53764ZM13.0025 130.043V123.498H14.0082V130.043H13.0025ZM13.5138 122.407C13.3178 122.407 13.1488 122.34 13.0067 122.206C12.8675 122.073 12.7979 121.912 12.7979 121.725C12.7979 121.537 12.8675 121.377 13.0067 121.243C13.1488 121.11 13.3178 121.043 13.5138 121.043C13.7099 121.043 13.8775 121.11 14.0167 121.243C14.1587 121.377 14.2298 121.537 14.2298 121.725C14.2298 121.912 14.1587 122.073 14.0167 122.206C13.8775 122.34 13.7099 122.407 13.5138 122.407ZM16.8558 126.105V130.043H15.8501V123.498H16.8217V124.52H16.907C17.0604 124.188 17.2933 123.921 17.6058 123.719C17.9183 123.515 18.3217 123.412 18.8161 123.412C19.2592 123.412 19.647 123.503 19.9794 123.685C20.3118 123.864 20.5703 124.137 20.755 124.503C20.9396 124.867 21.032 125.327 21.032 125.884V130.043H20.0263V125.952C20.0263 125.438 19.8928 125.037 19.6257 124.75C19.3587 124.461 18.9922 124.316 18.5263 124.316C18.2053 124.316 17.9183 124.385 17.6655 124.525C17.4155 124.664 17.218 124.867 17.0732 125.134C16.9283 125.401 16.8558 125.725 16.8558 126.105ZM25.7163 123.498V124.35H22.3242V123.498H25.7163ZM23.3129 121.929H24.3185V128.168C24.3185 128.452 24.3597 128.665 24.4421 128.807C24.5273 128.946 24.6353 129.04 24.766 129.088C24.8995 129.134 25.0401 129.157 25.1879 129.157C25.2987 129.157 25.3896 129.151 25.4606 129.14C25.5316 129.125 25.5884 129.114 25.631 129.105L25.8356 130.009C25.7674 130.034 25.6722 130.06 25.5501 130.086C25.4279 130.114 25.2731 130.128 25.0856 130.128C24.8015 130.128 24.5231 130.067 24.2504 129.945C23.9805 129.823 23.756 129.637 23.5771 129.387C23.4009 129.137 23.3129 128.821 23.3129 128.441V121.929ZM27.962 130.111C27.7518 130.111 27.5714 130.036 27.4208 129.885C27.2702 129.735 27.195 129.554 27.195 129.344C27.195 129.134 27.2702 128.953 27.4208 128.803C27.5714 128.652 27.7518 128.577 27.962 128.577C28.1722 128.577 28.3526 128.652 28.5032 128.803C28.6538 128.953 28.729 129.134 28.729 129.344C28.729 129.483 28.6935 129.611 28.6225 129.728C28.5543 129.844 28.462 129.938 28.3455 130.009C28.2319 130.077 28.104 130.111 27.962 130.111ZM27.962 125.253C27.7518 125.253 27.5714 125.178 27.4208 125.027C27.2702 124.877 27.195 124.696 27.195 124.486C27.195 124.276 27.2702 124.096 27.4208 123.945C27.5714 123.794 27.7518 123.719 27.962 123.719C28.1722 123.719 28.3526 123.794 28.5032 123.945C28.6538 124.096 28.729 124.276 28.729 124.486C28.729 124.625 28.6935 124.753 28.6225 124.87C28.5543 124.986 28.462 125.08 28.3455 125.151C28.2319 125.219 28.104 125.253 27.962 125.253ZM36.8406 130.162C36.2781 130.162 35.7766 130.066 35.3363 129.873C34.8988 129.679 34.5508 129.411 34.2923 129.067C34.0366 128.721 33.8974 128.319 33.8746 127.861H34.9485C34.9712 128.142 35.0678 128.385 35.2383 128.59C35.4087 128.792 35.6317 128.948 35.9073 129.059C36.1829 129.169 36.4883 129.225 36.8235 129.225C37.1985 129.225 37.5309 129.159 37.8207 129.029C38.1104 128.898 38.3377 128.716 38.5025 128.483C38.6673 128.25 38.7496 127.98 38.7496 127.674C38.7496 127.353 38.6701 127.07 38.511 126.826C38.3519 126.578 38.119 126.385 37.8121 126.246C37.5053 126.107 37.1303 126.037 36.6871 126.037H35.9883V125.1H36.6871C37.0337 125.1 37.3377 125.037 37.5991 124.912C37.8633 124.787 38.0692 124.611 38.217 124.384C38.3675 124.157 38.4428 123.89 38.4428 123.583C38.4428 123.287 38.3775 123.03 38.2468 122.811C38.1161 122.593 37.9315 122.422 37.6928 122.3C37.457 122.178 37.1786 122.117 36.8576 122.117C36.5565 122.117 36.2724 122.172 36.0053 122.283C35.7411 122.391 35.5252 122.549 35.3576 122.756C35.19 122.961 35.0991 123.208 35.0849 123.498H34.0621C34.0792 123.04 34.217 122.64 34.4755 122.296C34.734 121.949 35.0721 121.679 35.4897 121.486C35.9102 121.293 36.3718 121.196 36.8746 121.196C37.4144 121.196 37.8775 121.306 38.2638 121.525C38.6502 121.74 38.9471 122.026 39.1545 122.381C39.3619 122.736 39.4656 123.12 39.4656 123.532C39.4656 124.023 39.3363 124.442 39.0778 124.789C38.8221 125.135 38.4741 125.375 38.0337 125.509V125.577C38.5849 125.668 39.0153 125.902 39.3249 126.28C39.6346 126.655 39.7894 127.12 39.7894 127.674C39.7894 128.148 39.6602 128.574 39.4016 128.952C39.146 129.327 38.7965 129.623 38.3533 129.838C37.9102 130.054 37.4059 130.162 36.8406 130.162ZM44.3107 121.196C44.6687 121.199 45.0266 121.267 45.3846 121.401C45.7425 121.534 46.0692 121.756 46.3647 122.066C46.6602 122.373 46.8974 122.792 47.0763 123.323C47.2553 123.854 47.3448 124.52 47.3448 125.321C47.3448 126.097 47.271 126.786 47.1232 127.388C46.9783 127.988 46.7681 128.493 46.4925 128.905C46.2198 129.317 45.8874 129.63 45.4954 129.843C45.1062 130.056 44.6658 130.162 44.1744 130.162C43.6857 130.162 43.2496 130.066 42.8661 129.873C42.4854 129.676 42.1729 129.405 41.9286 129.059C41.6871 128.709 41.5323 128.304 41.4641 127.844H42.5039C42.5977 128.245 42.7837 128.576 43.0621 128.837C43.3434 129.096 43.7141 129.225 44.1744 129.225C44.8477 129.225 45.3789 128.931 45.7681 128.343C46.1602 127.755 46.3562 126.924 46.3562 125.85H46.288C46.1289 126.088 45.94 126.294 45.7212 126.468C45.5025 126.641 45.2596 126.775 44.9925 126.868C44.7255 126.962 44.4414 127.009 44.1403 127.009C43.6403 127.009 43.1815 126.885 42.7638 126.638C42.3491 126.388 42.0167 126.046 41.7667 125.611C41.5195 125.174 41.396 124.674 41.396 124.111C41.396 123.577 41.5153 123.088 41.7539 122.645C41.9954 122.199 42.3335 121.844 42.7681 121.58C43.2056 121.316 43.7198 121.188 44.3107 121.196ZM44.3107 122.134C43.9528 122.134 43.6303 122.223 43.3434 122.402C43.0593 122.578 42.8335 122.817 42.6658 123.118C42.5011 123.417 42.4187 123.748 42.4187 124.111C42.4187 124.475 42.4982 124.806 42.6573 125.104C42.8192 125.4 43.0394 125.635 43.3178 125.811C43.5991 125.985 43.9187 126.071 44.2766 126.071C44.5465 126.071 44.7979 126.019 45.0309 125.914C45.2638 125.806 45.467 125.659 45.6403 125.475C45.8164 125.287 45.9542 125.076 46.0536 124.84C46.1531 124.601 46.2028 124.353 46.2028 124.094C46.2028 123.753 46.1204 123.434 45.9556 123.135C45.7937 122.837 45.5692 122.596 45.2823 122.411C44.9982 122.226 44.6744 122.134 44.3107 122.134ZM52.549 121.316H53.8104L56.7763 128.56H56.8786L59.8445 121.316H61.1058V130.043H60.1172V123.412H60.032L57.3047 130.043H56.3501L53.6229 123.412H53.5376V130.043H52.549V121.316ZM63.2248 121.316H64.4862L67.4521 128.56H67.5543L70.5202 121.316H71.7816V130.043H70.793V123.412H70.7077L67.9805 130.043H67.0259L64.2987 123.412H64.2134V130.043H63.2248V121.316ZM76.8494 120.907L74.0369 131.355H73.1165L75.929 120.907H76.8494ZM81.0927 121.316V130.043H80.0359V122.424H79.9847L77.854 123.838V122.765L80.0359 121.316H81.0927ZM83.837 130.111C83.6268 130.111 83.4464 130.036 83.2958 129.885C83.1452 129.735 83.07 129.554 83.07 129.344C83.07 129.134 83.1452 128.953 83.2958 128.803C83.4464 128.652 83.6268 128.577 83.837 128.577C84.0472 128.577 84.2276 128.652 84.3782 128.803C84.5288 128.953 84.604 129.134 84.604 129.344C84.604 129.483 84.5685 129.611 84.4975 129.728C84.4293 129.844 84.337 129.938 84.2205 130.009C84.1069 130.077 83.979 130.111 83.837 130.111ZM88.9432 130.162C88.4432 130.162 87.9929 130.063 87.5923 129.864C87.1918 129.665 86.8707 129.392 86.6293 129.046C86.3878 128.699 86.2557 128.304 86.233 127.861H87.2557C87.2955 128.256 87.4744 128.583 87.7926 128.841C88.1136 129.097 88.4972 129.225 88.9432 129.225C89.3011 129.225 89.6193 129.141 89.8977 128.973C90.179 128.806 90.3991 128.576 90.5582 128.283C90.7202 127.988 90.8011 127.654 90.8011 127.282C90.8011 126.901 90.7173 126.561 90.5497 126.263C90.3849 125.962 90.1577 125.725 89.8679 125.551C89.5781 125.378 89.2472 125.29 88.875 125.287C88.608 125.284 88.3338 125.326 88.0526 125.411C87.7713 125.493 87.5398 125.6 87.358 125.73L86.3693 125.611L86.8977 121.316H91.4318V122.253H87.7841L87.4773 124.827H87.5284C87.7074 124.685 87.9318 124.567 88.2017 124.473C88.4716 124.38 88.7528 124.333 89.0455 124.333C89.5795 124.333 90.0554 124.461 90.473 124.716C90.8935 124.969 91.223 125.316 91.4616 125.756C91.7031 126.196 91.8239 126.699 91.8239 127.265C91.8239 127.821 91.6989 128.319 91.4489 128.756C91.2017 129.191 90.8608 129.534 90.4261 129.787C89.9915 130.037 89.4972 130.162 88.9432 130.162ZM96.4656 130.162C95.9031 130.162 95.4016 130.066 94.9613 129.873C94.5238 129.679 94.1758 129.411 93.9173 129.067C93.6616 128.721 93.5224 128.319 93.4996 127.861H94.5735C94.5962 128.142 94.6928 128.385 94.8633 128.59C95.0337 128.792 95.2567 128.948 95.5323 129.059C95.8079 129.169 96.1133 129.225 96.4485 129.225C96.8235 129.225 97.1559 129.159 97.4457 129.029C97.7354 128.898 97.9627 128.716 98.1275 128.483C98.2923 128.25 98.3746 127.98 98.3746 127.674C98.3746 127.353 98.2951 127.07 98.136 126.826C97.9769 126.578 97.744 126.385 97.4371 126.246C97.1303 126.107 96.7553 126.037 96.3121 126.037H95.6133V125.1H96.3121C96.6587 125.1 96.9627 125.037 97.2241 124.912C97.4883 124.787 97.6942 124.611 97.842 124.384C97.9925 124.157 98.0678 123.89 98.0678 123.583C98.0678 123.287 98.0025 123.03 97.8718 122.811C97.7411 122.593 97.5565 122.422 97.3178 122.3C97.082 122.178 96.8036 122.117 96.4826 122.117C96.1815 122.117 95.8974 122.172 95.6303 122.283C95.3661 122.391 95.1502 122.549 94.9826 122.756C94.815 122.961 94.7241 123.208 94.7099 123.498H93.6871C93.7042 123.04 93.842 122.64 94.1005 122.296C94.359 121.949 94.6971 121.679 95.1147 121.486C95.5352 121.293 95.9968 121.196 96.4996 121.196C97.0394 121.196 97.5025 121.306 97.8888 121.525C98.2752 121.74 98.5721 122.026 98.7795 122.381C98.9869 122.736 99.0906 123.12 99.0906 123.532C99.0906 124.023 98.9613 124.442 98.7028 124.789C98.4471 125.135 98.0991 125.375 97.6587 125.509V125.577C98.2099 125.668 98.6403 125.902 98.9499 126.28C99.2596 126.655 99.4144 127.12 99.4144 127.674C99.4144 128.148 99.2852 128.574 99.0266 128.952C98.771 129.327 98.4215 129.623 97.9783 129.838C97.5352 130.054 97.0309 130.162 96.4656 130.162ZM105.743 121.316V130.043H104.686V121.316H105.743ZM114.782 121.316V130.043H113.759L109.004 123.191H108.918V130.043H107.862V121.316H108.884L113.657 128.185H113.742V121.316H114.782Z" fill="black"/>
</svg>
