<svg xmlns="http://www.w3.org/2000/svg" width="122" height="100" viewBox="0 0 122 100" fill="none"><metadata><rdf:RDF xmlns:rdf="http://www.w3.org/1999/02/22-rdf-syntax-ns#" xmlns:dc="http://purl.org/dc/elements/1.1/"><rdf:Description><dc:creator>RealFaviconGenerator</dc:creator><dc:source>https://realfavicongenerator.net</dc:source></rdf:Description></rdf:RDF></metadata><g clip-path="url(#clip0_40002114_8869)">
<path d="M119.318 72.8711C117.041 69.4961 113.073 67.5225 109.156 67.6248C108.499 67.6449 107.773 67.7374 107.199 67.7777C104.724 67.923 100.49 67.7233 97.8214 64.6082C97.8214 64.6082 92.0769 56.915 92.0684 56.8994C89.7611 53.2696 91.2337 48.5179 92.1001 46.3943C92.2662 46.0375 92.5912 45.2928 92.5912 45.2928C96.3321 35.8772 89.7726 24.381 77.7089 25.1402C66.2836 25.8561 61.3702 37.9502 65.7965 46.768C66.5091 48.3413 68.8885 54.6501 65.1041 61.6268L63.5286 64.1516C61.7588 66.779 53.1912 77.6778 44.6514 57.1236L23.9144 7.61061C18.2822 -6.94195 -5.50041 1.03957 1.16982 17.5336L30.8628 88.4654C32.4024 92.0849 33.8535 95.91 37.3589 98.1906C41.9876 101.202 48.8659 100.332 52.53 96.487C53.5588 95.4099 54.1239 94.2493 54.3736 93.7445C54.3736 93.7443 54.3734 93.7444 54.3734 93.7442C56.1093 90.1659 64.6606 67.913 65.9261 65.1924C66.5429 63.8665 66.7637 63.3461 67.1035 62.7711C71.1413 55.9381 77.239 54.7702 79.7209 54.5394C81.703 54.3551 86.9881 54.1243 90.0149 57.8078L95.7952 65.505C97.8421 68.3162 98.6002 74.3297 98.0301 77.3923C97.3021 81.3024 98.9206 85.8936 102.27 88.4001C110.685 94.7357 121.854 88.2777 121.24 78.6702C121.132 76.9839 120.557 74.7068 119.318 72.8711Z" fill="black"></path>
</g><defs>
<clipPath id="clip0_40002114_8869">
<rect width="121.264" height="100" fill="white"></rect>
</clipPath>
</defs></svg>