<svg width="74" height="88" viewBox="0 0 74 88" fill="none" xmlns="http://www.w3.org/2000/svg">
<g clip-path="url(#clip0_40002135_3181)">
<path d="M50.8021 9.50795C51.0673 12.2714 49.7741 14.5766 47.5517 16.3443C46.4831 17.1943 43.3386 19.4045 41.7806 20.5346C39.0668 22.213 35.5494 21.0852 33.9777 20.4284C33.8088 20.3486 33.4125 20.1692 33.1624 20.0555C26.1995 17.2148 17.6074 21.9733 18.0788 30.8961C18.5208 39.3477 27.4639 43.0735 34.0498 39.8704C35.2236 39.3571 39.9279 37.6459 45.0817 40.4996C45.5493 40.7682 46.6499 41.4757 46.9448 41.6848C48.862 43.0443 57.1095 49.3524 41.7755 55.4984C41.7755 55.4984 10.9145 67.9619 6.6566 69.6888C-6.16086 75.0364 1.45556 91.5791 13.2967 86.7999C17.6441 85.0428 64.7464 66.0166 64.7464 66.0166C64.7464 66.0166 65.4369 65.7095 66.8323 65.1076C74.651 61.7353 74.5768 53.0113 69.9288 49.1947C69.1356 48.5433 66.9443 47.3832 66.0716 47.0427C62.8796 45.7972 54.412 42.6141 51.2384 41.465C50.6429 41.2494 47.5559 40.1216 45.8274 38.8186C41.6185 35.6456 40.1775 31.5317 39.9305 29.7046C39.8951 29.4423 39.8734 29.2073 39.8372 28.5807C39.804 28.0068 39.7496 24.6628 42.4402 22.0655C43.6272 21.034 46.7501 18.8477 48.2019 17.8561C50.5636 16.3062 53.3374 15.785 56.4099 16.9901C59.819 18.3272 64.6875 17.2909 67.061 13.2612C70.9596 6.64209 65.1476 -1.88753 56.9868 0.370609C52.0755 1.91451 50.5104 6.46925 50.8021 9.50801L50.8021 9.50795Z" fill="#1F1F1F"/>
</g>
<defs>
<clipPath id="clip0_40002135_3181">
<rect width="73.125" height="87.6562" fill="white"/>
</clipPath>
</defs>
</svg>
