<svg width="166" height="231" viewBox="0 0 166 231" fill="none" xmlns="http://www.w3.org/2000/svg">
<path d="M39.0559 12.2777C52.7215 44.5086 92.0308 145.146 106.701 176.789C109.313 182.429 113.069 187.774 119.782 183.11C125.492 179.156 128.322 167.437 127.566 158.883C126.77 149.861 122.237 142.801 127.169 132.891C137.04 113.076 168.893 121.484 165.629 145.928C163.881 158.993 152.111 162.171 142.679 164.823C137.143 166.38 129.994 170.615 126.482 179.75C121.227 193.416 123.828 211.09 113.633 222.941C103.931 234.207 85.9633 232.587 79.0028 217.274C73.7492 205.717 1.38342 26.8416 1.38342 26.8416C-2.67549 16.3686 2.51536 5.63035 12.7925 1.60503C23.6656 -2.65419 34.6073 1.78683 39.0559 12.2792V12.2777Z" fill="black"/>
</svg>
