<svg width="71" height="84" viewBox="0 0 71 84" fill="none" xmlns="http://www.w3.org/2000/svg">
<g clip-path="url(#clip0_40002135_3166)">
<path d="M19.9174 6.25828C26.8866 22.6857 33.1288 40.0556 40.6105 56.1838C41.9427 59.0588 43.8574 61.7827 47.2813 59.4054C50.1934 57.3899 51.6363 51.4172 51.2515 47.0574C50.8455 42.4591 48.5331 38.8607 51.0489 33.8095C56.083 23.7097 72.3267 27.9954 70.6622 40.454C69.7713 47.1128 63.7682 48.7323 58.9586 50.0842C56.1359 50.8777 52.4903 53.0365 50.6989 57.6924C48.0188 64.6578 49.3459 73.6656 44.1461 79.7059C39.1985 85.4476 30.0349 84.6228 26.4852 76.8178C23.8059 70.9269 0.705531 13.6808 0.705531 13.6808C-1.3644 8.34265 1.28257 2.86974 6.52412 0.817951C12.0692 -1.35267 17.6488 0.910662 19.9175 6.25836L19.9174 6.25828Z" fill="#1F1F1F"/>
</g>
<defs>
<clipPath id="clip0_40002135_3166">
<rect width="70.7812" height="83.4375" fill="white"/>
</clipPath>
</defs>
</svg>
