<svg width="297" height="100" viewBox="0 0 297 100" fill="none" xmlns="http://www.w3.org/2000/svg">
<path d="M157.353 18.5565L146.439 53.4495H137.193L126.231 18.5565H132.889L140.944 46.2508H142.918L150.933 18.5565H157.354H157.353ZM160.887 20.2936C160.887 18.6187 162.246 17.2614 163.921 17.2614C165.596 17.2614 166.954 18.619 166.954 20.2936C166.954 21.9681 165.596 23.3257 163.921 23.3257C162.246 23.3257 160.887 21.9678 160.887 20.2936ZM160.972 53.4492V28.2932H166.87V53.4492H160.972ZM178.235 50.4061L178.188 53.4495H172.955V17.2614H178.855V24.8218C178.855 26.7713 178.807 28.8636 178.712 30.7658C180.519 28.8636 183.374 27.8175 186.371 27.8175C193.174 27.8175 198.883 33.1438 198.883 40.8947C198.883 48.551 193.174 53.9246 186.371 53.9246C183.088 53.9246 179.996 52.6405 178.236 50.4052L178.236 50.4058L178.235 50.4061ZM185.609 48.5039C189.844 48.5039 192.936 45.4126 192.936 40.8953C192.936 36.3301 189.844 33.2391 185.609 33.2391C181.566 33.2391 178.426 36.0448 178.426 40.8953C178.426 45.6979 181.566 48.5039 185.609 48.5039ZM203.773 28.2962H209.672V29.6292C209.642 29.8533 209.627 29.9741 209.577 30.3384C211.004 28.6742 214.553 27.7231 217.265 27.7231C217.454 27.7231 217.641 27.7276 217.829 27.7364C217.829 29.7224 217.829 32.0821 217.829 33.5994H215.646C212.649 33.5994 209.671 35.1413 209.671 38.7557V53.4495H203.772V28.2962H203.773ZM220.13 40.8956C220.13 33.1444 225.791 27.8181 232.641 27.8181C235.924 27.8181 238.968 29.0543 240.776 31.3375L240.823 28.2938H246.056V53.4498H240.823L240.776 50.4061C238.968 52.6888 235.924 53.9255 232.641 53.9255C225.791 53.9255 220.13 48.5516 220.13 40.8956ZM233.403 48.5042C237.399 48.5042 240.586 45.6982 240.586 40.8956C240.586 36.0448 237.398 33.2394 233.403 33.2394C229.168 33.2394 226.029 36.3304 226.029 40.8956C226.029 45.4132 229.168 48.5042 233.403 48.5042ZM252.144 28.2962H258.043V29.6292C258.013 29.8533 257.998 29.9741 257.948 30.3384C259.376 28.6742 262.924 27.7231 265.636 27.7231C271.202 27.7231 275.797 31.6228 275.797 38.375V53.4498H269.898V38.756C269.898 35.1419 266.968 33.2397 264.018 33.2397C261.021 33.2397 258.043 35.1419 258.043 38.756V53.4498H252.144V28.2962ZM285.237 33.5797H279.472V28.2534H285.237V19.0592H291.136V28.2534H296.949V33.5797H291.136L291.089 53.4498H285.19L285.237 33.5797ZM157.128 64.5362V99.4292H150.946V84.5496H135.206V99.4286H129.023V64.5359H135.206V78.6547H150.946V64.5359H157.128V64.5362ZM162.384 86.9227C162.384 79.2185 167.903 73.7498 175.181 73.7498C181.841 73.7498 187.836 78.2674 187.265 88.1586H167.903C168.378 92.1534 171.375 94.9114 175.657 94.9114C178.797 94.9114 181.461 93.4378 183.316 90.7269L187.217 93.8179C184.743 97.3846 180.842 100 175.514 100C167.665 100 162.384 94.4833 162.384 86.9227H162.384ZM181.699 83.9264C180.985 80.407 178.464 78.6001 175.134 78.6001C171.613 78.6001 168.949 80.7874 168.093 83.9264H181.699ZM191.157 86.8754C191.157 79.1241 196.818 73.7978 203.669 73.7978C206.951 73.7978 209.996 75.034 211.803 77.3172L211.851 74.2735H217.084V99.4295H211.851L211.803 96.3859C209.996 98.6685 206.951 99.9053 203.669 99.9053C196.818 99.9053 191.157 94.5316 191.157 86.8757V86.8754ZM204.43 94.4839C208.426 94.4839 211.613 91.678 211.613 86.8754C211.613 82.0245 208.425 79.2191 204.43 79.2191C200.195 79.2191 197.056 82.3101 197.056 86.8754C197.056 91.3929 200.195 94.4839 204.43 94.4839ZM223.172 63.2411H229.071V99.4292H223.172V63.2411ZM238.86 79.5594H233.096V74.2331H238.86V65.0389H244.76V74.2331H250.573V79.5594H244.76L244.713 99.4295H238.813L238.86 79.5594ZM254.588 63.2411H260.487L260.392 76.3181C261.819 74.6536 265.367 73.7025 268.079 73.7025C273.645 73.7025 278.24 77.6022 278.24 84.3544V99.4292H272.341V84.7354C272.341 81.1216 269.411 79.2191 266.461 79.2191C263.464 79.2191 260.486 81.1216 260.486 84.7354V99.4292H254.588V63.2411ZM109.401 67.0401C107.313 63.9351 103.675 62.1194 100.083 62.2135C99.4814 62.2321 98.8151 62.3171 98.2887 62.3544C96.0195 62.488 92.1376 62.3043 89.691 59.4385C89.691 59.4385 84.424 52.3609 84.4161 52.3466C82.3005 49.0073 83.6508 44.6357 84.4452 42.6822C84.5974 42.354 84.8953 41.6689 84.8953 41.6689C88.3253 33.0065 82.3111 22.4302 71.2501 23.1287C60.7743 23.7872 56.2693 34.9136 60.3279 43.0258C60.9812 44.4733 63.1629 50.2771 59.6932 56.6957L58.2485 59.0184C56.6258 61.4355 48.7703 71.4621 40.9404 52.5527L21.9267 7.0017C16.7626 -6.38642 -5.04328 0.956232 1.07261 16.1306L28.2977 81.3867C29.7093 84.7166 31.0398 88.2357 34.2538 90.3337C38.4977 93.1042 44.8046 92.3039 48.1639 88.7663C49.1071 87.7755 49.6252 86.7078 49.8542 86.2433C51.4459 82.9513 59.2865 62.4792 60.4467 59.9762C61.0121 58.7564 61.2147 58.2776 61.5263 57.7485C65.2284 51.4623 70.8192 50.3879 73.0951 50.1754C74.9124 50.0057 79.7582 49.7935 82.5334 53.1824L87.8333 60.2636C89.7102 62.8498 90.405 68.3822 89.8824 71.1998C89.2148 74.7969 90.699 79.0209 93.7697 81.3269C101.485 87.1556 111.727 81.2142 111.163 72.3755C111.064 70.8242 110.537 68.7292 109.401 67.0404L109.401 67.0401Z" fill="black"/>
</svg>
