<svg width="234" height="79" viewBox="0 0 234 79" fill="none" xmlns="http://www.w3.org/2000/svg">
<path d="M123.863 14.6168L115.271 42.0946H107.994L99.3642 14.6168H104.604L110.944 36.4265H112.498L118.807 14.6168H123.863ZM126.646 15.9843C126.646 14.6646 127.715 13.596 129.034 13.596C130.354 13.596 131.422 14.6646 131.422 15.9843C131.422 17.3039 130.354 18.3725 129.034 18.3725C127.715 18.3725 126.646 17.3039 126.646 15.9843ZM126.713 42.0946V22.2836H131.356V42.0946H126.713ZM140.301 39.6968L140.263 42.0946H136.144V13.596H140.787V19.5487C140.787 21.0835 140.748 22.7306 140.674 24.2295C142.097 22.7306 144.344 21.9082 146.703 21.9082C152.058 21.9082 156.553 26.1014 156.553 32.207C156.553 38.3127 152.058 42.4676 146.703 42.4676C144.119 42.4676 141.685 41.4563 140.299 39.6968H140.301ZM146.106 38.2003C149.438 38.2003 151.872 35.7667 151.872 32.2094C151.872 28.6522 149.438 26.1803 146.106 26.1803C142.773 26.1803 140.452 28.3892 140.452 32.2094C140.452 36.0296 142.924 38.2003 146.106 38.2003ZM160.404 22.286H165.047V23.3354C165.023 23.5123 165.011 23.608 164.972 23.8948C166.096 22.5848 168.891 21.8341 171.023 21.8341C171.171 21.8341 171.32 21.8365 171.468 21.8437C171.468 23.4072 171.468 25.2671 171.468 26.46H169.751C167.392 26.46 165.049 27.6744 165.049 30.5216V42.0922H160.406V22.2836L160.404 22.286ZM173.28 32.2094C173.28 26.1062 177.736 21.9106 183.129 21.9106C185.713 21.9106 188.109 22.8836 189.534 24.6813L189.572 22.2836H193.691V42.0946H189.572L189.534 39.6968C188.111 41.4946 185.713 42.4676 183.129 42.4676C177.736 42.4676 173.28 38.2362 173.28 32.207V32.2094ZM183.727 38.2003C186.873 38.2003 189.381 35.9914 189.381 32.2094C189.381 28.4274 186.87 26.1803 183.727 26.1803C180.394 26.1803 177.922 28.6139 177.922 32.2094C177.922 35.8049 180.394 38.2003 183.727 38.2003ZM198.479 22.286H203.122V23.3354C203.098 23.5123 203.086 23.608 203.048 23.8948C204.171 22.5848 206.966 21.8341 209.098 21.8341C213.48 21.8341 217.098 24.9061 217.098 30.2228V42.0946H212.455V30.524C212.455 27.6768 210.148 26.1803 207.827 26.1803C205.505 26.1803 203.124 27.6792 203.124 30.524V42.0946H198.482V22.286H198.479ZM224.53 26.448H219.993V22.2549H224.53V15.0137H229.173V22.2549H233.748V26.448H229.173L229.134 42.0946H224.492L224.53 26.448ZM123.686 50.8252V78.303H118.819V66.5865H106.429V78.303H101.561V50.8252H106.429V61.9439H118.819V50.8252H123.686ZM127.825 68.4536C127.825 62.3862 132.168 58.0807 137.899 58.0807C143.141 58.0807 147.86 61.6379 147.411 69.4266H132.171C132.546 72.5726 134.903 74.7433 138.274 74.7433C140.746 74.7433 142.842 73.5839 144.303 71.4491L147.375 73.8827C145.427 76.6917 142.357 78.75 138.164 78.75C131.984 78.75 127.829 74.4063 127.829 68.4512L127.825 68.4536ZM143.029 66.0941C142.467 63.3233 140.483 61.9009 137.86 61.9009C135.09 61.9009 132.993 63.6246 132.319 66.0941H143.029ZM150.473 68.4154C150.473 62.3121 154.929 58.1166 160.323 58.1166C162.907 58.1166 165.302 59.0895 166.727 60.8873L166.765 58.4895H170.884V78.3006H166.765L166.727 75.9028C165.305 77.7005 162.907 78.6735 160.323 78.6735C154.929 78.6735 150.473 74.4421 150.473 68.413V68.4154ZM160.92 74.4086C164.066 74.4086 166.574 72.1997 166.574 68.4177C166.574 64.6358 164.064 62.3886 160.92 62.3886C157.588 62.3886 155.116 64.8223 155.116 68.4177C155.116 72.0132 157.588 74.4086 160.92 74.4086ZM175.675 49.8044H180.318V78.303H175.675V49.8044ZM188.023 62.6564H183.485V58.4632H188.023V51.222H192.665V58.4632H197.241V62.6564H192.665L192.627 78.303H187.985L188.023 62.6564ZM200.404 49.8044H205.046L204.972 60.1032C206.096 58.7931 208.888 58.0424 211.023 58.0424C215.405 58.0424 219.022 61.1144 219.022 66.4311V78.303H214.379V66.7324C214.379 63.8875 212.072 62.3886 209.751 62.3886C207.43 62.3886 205.049 63.8875 205.049 66.7324V78.303H200.406V49.8044H200.404ZM86.1178 52.7974C84.4755 50.3518 81.6091 48.9222 78.7834 48.9963C78.3101 49.0107 77.7841 49.0776 77.3705 49.1063C75.5847 49.2115 72.5295 49.0681 70.6027 46.8089C70.6027 46.8089 66.4574 41.2364 66.4502 41.2244C64.7839 38.5948 65.8477 35.1523 66.4741 33.6127C66.5936 33.3545 66.8279 32.8142 66.8279 32.8142C69.5269 25.9938 64.7935 17.6649 56.0868 18.2147C47.8416 18.7335 44.2939 27.4951 47.4902 33.8828C48.0042 35.0232 49.7206 39.594 46.9905 44.6478L45.8526 46.4766C44.576 48.3796 38.3915 56.2758 32.2285 41.3846L17.2608 5.51336C13.1967 -5.02928 -3.97032 0.753635 0.844393 12.702L22.2739 64.0907C23.3855 66.7132 24.4326 69.484 26.9619 71.1359C30.3016 73.3185 35.2669 72.6874 37.911 69.9023C38.6544 69.123 39.0608 68.2815 39.2425 67.9157C40.4952 65.3243 46.6678 49.2019 47.581 47.2297C48.0257 46.2686 48.1858 45.8909 48.4297 45.475C51.3438 40.524 55.745 39.6777 57.5356 39.5104C58.9651 39.3765 62.7806 39.2091 64.9656 41.8771L69.1372 47.4544C70.6146 49.4912 71.1621 53.8469 70.7509 56.0654C70.225 58.8983 71.394 62.2237 73.8109 64.0405C79.8855 68.6305 87.9466 63.9521 87.502 56.9906C87.4231 55.769 87.0095 54.1194 86.1154 52.7903L86.1178 52.7974Z" fill="black"/>
<path d="M227.709 73.8621C227.709 73.1467 227.236 72.7486 226.478 72.7486H224.998V76.5138H225.66V74.9324H225.978L226.897 76.5138H227.71L226.725 74.9055C227.338 74.8194 227.709 74.4108 227.709 73.8621ZM226.445 74.4053H225.66V73.3295H226.445C226.811 73.3295 227.026 73.5338 227.026 73.8621C227.026 74.1903 226.811 74.4053 226.445 74.4053Z" fill="black"/>
<path d="M226.209 71.1798C224.228 71.1798 222.623 72.7853 222.623 74.7657C222.623 76.7461 224.228 78.3516 226.209 78.3516C228.189 78.3516 229.795 76.7461 229.795 74.7657C229.795 72.7853 228.189 71.1798 226.209 71.1798ZM226.209 77.769C224.55 77.769 223.205 76.4244 223.205 74.7657C223.205 73.107 224.55 71.7624 226.209 71.7624C227.867 71.7624 229.212 73.107 229.212 74.7657C229.212 76.4244 227.867 77.769 226.209 77.769Z" fill="black"/>
</svg>
