<svg width="420" height="70" viewBox="0 0 420 70" fill="none" xmlns="http://www.w3.org/2000/svg">
<path d="M121.748 29.7939L111.226 63.476H102.313L91.7457 29.7939H98.1642L105.929 56.5269H107.832L115.559 29.7939H121.748ZM125.156 31.471C125.156 29.8543 126.465 28.544 128.08 28.544C129.695 28.544 131.004 29.8545 131.004 31.471C131.004 33.0874 129.695 34.398 128.08 34.398C126.465 34.398 125.156 33.0877 125.156 31.471ZM125.236 63.4756V39.1929H130.923V63.4756H125.236ZM141.879 60.5382L141.834 63.4763H136.789V28.5438H142.476V35.8418C142.476 37.7236 142.431 39.7434 142.339 41.5797C144.081 39.7434 146.833 38.7336 149.722 38.7336C156.28 38.7336 161.783 43.875 161.783 51.3572C161.783 58.7477 156.28 63.9346 149.722 63.9346C146.557 63.9346 143.576 62.6955 141.879 60.5382ZM148.988 58.7017C153.069 58.7017 156.051 55.7181 156.051 51.357C156.051 46.9503 153.07 43.9667 148.988 43.9667C145.089 43.9667 142.063 46.6751 142.063 51.357C142.063 55.9931 145.089 58.7017 148.988 58.7017ZM166.498 39.1954H172.185V40.4819C172.156 40.6985 172.141 40.815 172.093 41.1667C173.469 39.5599 176.89 38.6419 179.504 38.6419C179.686 38.6419 179.867 38.6463 180.048 38.6551C180.048 40.572 180.048 42.8499 180.048 44.3147H177.944C175.055 44.3147 172.185 45.803 172.185 49.2919V63.476H166.498V39.1954ZM182.267 51.3577C182.267 43.8752 187.724 38.7338 194.328 38.7338C197.493 38.7338 200.427 39.9274 202.17 42.1309L202.215 39.1929H207.26V63.4758H202.215L202.17 60.5377C200.427 62.7411 197.492 63.9348 194.328 63.9348C187.724 63.9348 182.267 58.7479 182.267 51.3577ZM195.061 58.7022C198.914 58.7022 201.986 55.9938 201.986 51.3575C201.986 46.6751 198.914 43.967 195.061 43.967C190.98 43.967 187.953 46.9508 187.953 51.3575C187.953 55.7183 190.98 58.7022 195.061 58.7022ZM213.129 39.1954H218.816V40.4819C218.787 40.6985 218.772 40.815 218.724 41.1667C220.1 39.5599 223.521 38.6419 226.135 38.6419C231.501 38.6419 235.93 42.4062 235.93 48.9242V63.4758H230.244V49.2916C230.244 45.8033 227.419 43.967 224.575 43.967C221.686 43.967 218.815 45.8033 218.815 49.2916V63.4758H213.129L213.129 39.1954ZM245.031 44.2958H239.473V39.1544H245.031V30.2793H250.718V39.1544H256.321V44.2958H250.718L250.672 63.4763H244.985L245.031 44.2958ZM303.246 29.7939V63.476H297.286V49.1129H282.112V63.4756H276.153V29.7939H282.112V43.4226H297.286V29.7939H303.246ZM308.314 51.4032C308.314 43.9668 313.633 38.6878 320.65 38.6878C327.07 38.6878 332.849 43.0487 332.298 52.5967H313.633C314.092 56.4528 316.981 59.1152 321.109 59.1152C324.135 59.1152 326.704 57.6924 328.492 55.0758L332.253 58.0594C329.868 61.5022 326.107 64.0271 320.971 64.0271C313.404 64.0266 308.314 58.7019 308.314 51.4032ZM326.933 48.5109C326.245 45.1138 323.815 43.3695 320.604 43.3695C317.21 43.3695 314.642 45.4808 313.817 48.5109H326.933ZM336.051 51.3577C336.051 43.8752 341.509 38.7338 348.112 38.7338C351.277 38.7338 354.212 39.9274 355.954 42.1309L356 39.1929H361.044V63.4758H356L355.954 60.5377C354.212 62.7411 351.276 63.9348 348.112 63.9348C341.509 63.9348 336.051 58.7479 336.051 51.3577ZM348.846 58.7022C352.699 58.7022 355.771 55.9938 355.771 51.3575C355.771 46.6751 352.698 43.967 348.846 43.967C344.764 43.967 341.738 46.9508 341.738 51.3575C341.738 55.7183 344.764 58.7022 348.846 58.7022ZM366.914 28.5438H372.6V63.476H366.914V28.5438ZM382.038 44.2958H376.48V39.1544H382.038V30.2793H387.725V39.1544H393.328V44.2958H387.725L387.679 63.4763H381.992L382.038 44.2958ZM397.199 28.5438H402.886L402.794 41.1667C404.17 39.5601 407.59 38.6421 410.205 38.6421C415.57 38.6421 420 42.4062 420 48.9244V63.476H414.313V49.2919C414.313 45.8033 411.488 43.9672 408.645 43.9672C405.756 43.9672 402.885 45.8033 402.885 49.2919V63.476H397.199L397.199 28.5438ZM83.13 51.0098C81.5436 48.6472 78.7787 47.2657 76.0498 47.3374C75.5924 47.3516 75.0862 47.4162 74.6861 47.4445C72.9618 47.5462 70.0122 47.4063 68.1529 45.2259C68.1529 45.2259 64.1505 39.8406 64.1446 39.8297C62.5372 37.2889 63.563 33.9628 64.1668 32.4761C64.2825 32.2263 64.509 31.705 64.509 31.705C67.1153 25.1141 62.5453 17.0665 54.1405 17.5982C46.1803 18.0992 42.7573 26.5652 45.841 32.7376C46.3375 33.8389 47.9951 38.255 45.3586 43.1388L44.261 44.9062C43.0278 46.7454 37.0589 54.3745 31.1092 39.9866L16.6613 5.32744C12.7374 -4.85933 -3.83226 0.727626 0.815052 12.2735L21.5023 61.9259C22.575 64.4597 23.586 67.1371 26.0283 68.7335C29.2532 70.8415 34.0454 70.2327 36.598 67.5409C37.3148 66.787 37.7084 65.9744 37.8825 65.6211C39.0919 63.1163 45.0497 47.5393 45.9315 45.6349C46.3611 44.7067 46.515 44.3425 46.7518 43.9399C49.565 39.1568 53.8131 38.3392 55.5424 38.1776C56.9233 38.0486 60.6054 37.887 62.7142 40.4656L66.7413 45.8538C68.1672 47.8214 68.6956 52.0311 68.2982 54.1748C67.7911 56.9119 68.9187 60.1257 71.2519 61.8801C77.115 66.3151 84.8969 61.7945 84.4688 55.0692C84.3936 53.8889 83.993 52.2948 83.13 51.0098Z" fill="black"/>
</svg>
