<svg xmlns="http://www.w3.org/2000/svg" width="646" height="283" fill="none" viewBox="0 0 646 283"><circle cx="327.456" cy="141.018" r="141.018" fill="#c6e76c"/><circle cx="327.456" cy="141.015" r="72.276" fill="#025f1d"/><path fill="#000" d="m244.855 100 .224-.447-.106-.053h-.118zm71.432 37.049a2.667 2.667 0 1 0 5.334 0 2.667 2.667 0 0 0-5.334 0M101.609 100v.5h143.246v-1H101.609zm143.246 0-.223.447 74.099 37.05.223-.448.224-.447-74.099-37.05zM432.766 100a2.667 2.667 0 1 0-5.334 0 2.667 2.667 0 0 0 5.334 0m70.109 0v-.5h-72.776v1h72.776z"/><path fill="#1f1f1f" d="M.71 93.99v-2.535h11.946v2.535H8.203V106h-3.04V93.99zm16.882 5.703V106h-3.025V91.454h2.94v5.562h.128a3.1 3.1 0 0 1 1.193-1.513q.824-.555 2.067-.554 1.137 0 1.981.497a3.3 3.3 0 0 1 1.321 1.413q.476.917.47 2.195V106H21.64v-6.406q.007-1.01-.512-1.57-.51-.56-1.434-.56-.618 0-1.094.262-.47.262-.739.767-.263.496-.27 1.2m14.427 6.52q-1.683 0-2.898-.682a4.67 4.67 0 0 1-1.86-1.946q-.654-1.264-.654-2.99 0-1.683.653-2.954a4.83 4.83 0 0 1 1.84-1.982q1.193-.71 2.798-.71 1.08 0 2.01.348.938.34 1.633 1.03.705.689 1.094 1.733.39 1.035.39 2.429v.831h-9.21v-1.875h6.363q0-.654-.284-1.158a2.04 2.04 0 0 0-.788-.788 2.25 2.25 0 0 0-1.158-.292q-.69 0-1.222.32a2.24 2.24 0 0 0-.824.845q-.298.525-.305 1.172v1.783q0 .809.298 1.399.305.59.86.909.553.32 1.314.32.504 0 .923-.143a1.9 1.9 0 0 0 .717-.426q.298-.284.455-.696l2.798.185a3.8 3.8 0 0 1-.874 1.761q-.653.747-1.69 1.165-1.03.412-2.38.412M43.686 106V91.454h3.075v6.002h6.243v-6.002h3.068V106h-3.068v-6.008h-6.243V106zm19.837.213q-1.683 0-2.898-.682a4.67 4.67 0 0 1-1.86-1.946q-.654-1.264-.654-2.99 0-1.683.653-2.954a4.83 4.83 0 0 1 1.84-1.982q1.193-.71 2.798-.71 1.08 0 2.01.348.938.34 1.633 1.03.704.689 1.094 1.733.39 1.035.39 2.429v.831h-9.21v-1.875h6.363q0-.654-.284-1.158a2.04 2.04 0 0 0-.789-.788 2.25 2.25 0 0 0-1.157-.292q-.69 0-1.222.32a2.24 2.24 0 0 0-.824.845q-.298.525-.305 1.172v1.783q0 .809.298 1.399.306.59.86.909t1.313.32q.505 0 .924-.143a1.9 1.9 0 0 0 .717-.426q.298-.284.455-.696l2.798.185a3.8 3.8 0 0 1-.874 1.761q-.653.747-1.69 1.165-1.03.412-2.38.412m6.981-.213V95.09h2.933v1.904h.114q.299-1.015 1.002-1.534a2.63 2.63 0 0 1 1.619-.525 4.6 4.6 0 0 1 .952.106v2.685a4 4 0 0 0-.59-.114 5 5 0 0 0-.689-.05 2.4 2.4 0 0 0-1.193.292q-.519.284-.824.795a2.3 2.3 0 0 0-.298 1.18V106zm12.605.213q-1.654 0-2.862-.703a4.8 4.8 0 0 1-1.854-1.974q-.654-1.272-.653-2.948 0-1.69.653-2.954a4.75 4.75 0 0 1 1.854-1.975q1.207-.71 2.862-.71t2.855.71a4.74 4.74 0 0 1 1.86 1.974q.654 1.264.654 2.955 0 1.676-.653 2.948a4.8 4.8 0 0 1-1.86 1.974q-1.201.703-2.856.703m.014-2.344q.753 0 1.257-.426.505-.433.76-1.179.263-.746.263-1.697t-.263-1.698q-.256-.745-.76-1.179-.504-.432-1.257-.433-.76 0-1.278.433-.512.434-.774 1.18-.256.744-.256 1.697 0 .951.256 1.697.263.746.774 1.179.519.426 1.278.426M7.406 122.5h-.968a2 2 0 0 0-.817-1.266 2.2 2.2 0 0 0-.668-.328 2.7 2.7 0 0 0-.766-.109q-.726 0-1.316.367-.586.368-.933 1.082-.344.715-.344 1.754t.343 1.754q.348.714.934 1.082.59.367 1.317.367.397 0 .765-.109.368-.11.668-.324a2.06 2.06 0 0 0 .816-1.27h.97a3.2 3.2 0 0 1-.4 1.098 3 3 0 0 1-.718.824 3.2 3.2 0 0 1-.965.512 3.6 3.6 0 0 1-1.136.175q-1.025 0-1.82-.5-.798-.5-1.255-1.422T.656 124q0-1.266.457-2.188.457-.921 1.254-1.421t1.82-.5q.606 0 1.137.175.536.176.965.516.43.336.719.82.289.481.398 1.098m3.878 5.625q-.813 0-1.426-.387a2.63 2.63 0 0 1-.953-1.082q-.34-.695-.34-1.625 0-.937.34-1.636.345-.7.953-1.086.614-.387 1.426-.387.813 0 1.422.387.614.386.953 1.086.345.699.344 1.636 0 .93-.344 1.625a2.6 2.6 0 0 1-.953 1.082q-.609.387-1.422.387m0-.828q.618 0 1.016-.317.398-.316.59-.832a3.2 3.2 0 0 0 .191-1.117q0-.601-.191-1.121a1.9 1.9 0 0 0-.59-.84q-.398-.32-1.016-.32-.617 0-1.015.32a1.9 1.9 0 0 0-.59.84 3.2 3.2 0 0 0-.192 1.121q0 .602.192 1.117.19.517.59.832.398.317 1.015.317m4.126.703v-6h.89v.906h.063q.165-.446.594-.722.43-.278.969-.278.102 0 .254.004t.23.012v.937a3.6 3.6 0 0 0-.562-.062q-.438 0-.782.183a1.349 1.349 0 0 0-.734 1.223V128zm6.426.125q-.867 0-1.496-.383a2.57 2.57 0 0 1-.965-1.078q-.336-.695-.336-1.617t.336-1.625q.34-.707.945-1.102.61-.398 1.422-.398.469 0 .926.156t.832.508q.375.348.598.922t.222 1.414v.39h-4.625v-.796h3.688a2 2 0 0 0-.203-.907 1.54 1.54 0 0 0-.57-.629 1.6 1.6 0 0 0-.868-.23q-.55 0-.953.273-.399.27-.613.704a2.1 2.1 0 0 0-.215.929v.532q0 .68.234 1.152.24.469.66.715.422.242.98.242.364 0 .657-.102a1.4 1.4 0 0 0 .512-.312 1.4 1.4 0 0 0 .332-.524l.89.25a2 2 0 0 1-.472.797 2.3 2.3 0 0 1-.82.531 3 3 0 0 1-1.098.188M29.91 120v8h-.969v-8zm4.083 8.125q-.75 0-1.324-.379a2.55 2.55 0 0 1-.898-1.078q-.325-.7-.325-1.652 0-.946.324-1.641.325-.696.903-1.074.577-.38 1.336-.379.585 0 .926.195a1.6 1.6 0 0 1 .523.438q.184.242.285.398h.078V120h.922v8h-.89v-.922h-.11a6 6 0 0 1-.289.414 1.7 1.7 0 0 1-.535.442q-.348.19-.926.191m.125-.828q.554 0 .938-.289.383-.294.582-.809.2-.52.199-1.199 0-.672-.195-1.176a1.7 1.7 0 0 0-.579-.789q-.383-.285-.945-.285-.585 0-.976.301a1.8 1.8 0 0 0-.582.808 3.2 3.2 0 0 0-.192 1.141q0 .64.195 1.164.2.519.586.828.39.305.97.305m6.957.828q-.867 0-1.496-.383a2.57 2.57 0 0 1-.965-1.078q-.336-.695-.336-1.617t.336-1.625q.34-.707.946-1.102.61-.398 1.421-.398.469 0 .926.156t.832.508q.376.348.598.922t.223 1.414v.39h-4.625v-.796h3.687a2 2 0 0 0-.203-.907 1.54 1.54 0 0 0-.57-.629 1.6 1.6 0 0 0-.868-.23q-.55 0-.953.273-.398.27-.613.704a2.1 2.1 0 0 0-.215.929v.532q0 .68.235 1.152.237.469.66.715.422.242.98.242.363 0 .656-.102a1.4 1.4 0 0 0 .512-.312 1.4 1.4 0 0 0 .332-.524l.89.25a2 2 0 0 1-.472.797 2.3 2.3 0 0 1-.82.531 3 3 0 0 1-1.098.188m4.809-3.734V128h-.922v-6h.89v.937h.079q.21-.456.64-.734.43-.28 1.11-.281.609 0 1.066.25.457.246.711.75.255.5.254 1.266V128h-.922v-3.75q0-.707-.367-1.102-.367-.398-1.008-.398-.441 0-.789.191-.344.192-.543.559t-.2.891M54.006 122v.781h-3.11V122zm-2.203-1.438h.922v5.719q0 .391.113.586a.6.6 0 0 0 .297.258q.183.062.387.062.151 0 .25-.015l.156-.031.187.828q-.093.035-.262.07a2 2 0 0 1-.425.039q-.39 0-.766-.168a1.5 1.5 0 0 1-.617-.512q-.242-.344-.242-.867zm3.59 7.438v-6h.922v6zm.468-7a.65.65 0 0 1-.464-.184.59.59 0 0 1-.192-.441q0-.258.192-.441a.65.65 0 0 1 .464-.184.64.64 0 0 1 .461.184q.195.183.196.441a.58.58 0 0 1-.196.441.64.64 0 0 1-.46.184m4.751 1v.781h-3.11V122zm-2.203-1.438h.922v5.719q0 .391.113.586a.6.6 0 0 0 .297.258q.185.062.387.062a2 2 0 0 0 .25-.015l.156-.031.188.828q-.094.035-.262.07a2 2 0 0 1-.426.039q-.39 0-.765-.168a1.5 1.5 0 0 1-.618-.512q-.242-.344-.242-.867zm4.184 9.688a2 2 0 0 1-.672-.109l.234-.813a1.8 1.8 0 0 0 .594.063.71.71 0 0 0 .457-.231q.204-.202.371-.66l.172-.469L61.53 122h1l1.656 4.781h.063L65.905 122h1l-2.547 6.875q-.171.464-.425.77-.255.308-.59.457a1.8 1.8 0 0 1-.75.148M519.344 122a1.23 1.23 0 0 0-.571-.922q-.5-.328-1.226-.328-.531 0-.93.172a1.5 1.5 0 0 0-.617.473 1.13 1.13 0 0 0-.219.683q0 .32.153.551.156.226.398.379.242.149.508.246.266.093.488.152l.813.219q.312.082.695.227.387.144.738.394a2 2 0 0 1 .586.633q.231.387.231.949 0 .648-.34 1.172-.336.523-.985.832-.644.309-1.566.309-.86 0-1.488-.278a2.37 2.37 0 0 1-.985-.773 2.2 2.2 0 0 1-.402-1.152h1q.04.453.305.749.269.294.679.438.414.141.891.141.555 0 .996-.18a1.7 1.7 0 0 0 .699-.508q.258-.328.258-.766 0-.398-.223-.648a1.6 1.6 0 0 0-.585-.406 6 6 0 0 0-.786-.274l-.984-.281q-.938-.27-1.484-.769-.547-.5-.547-1.309 0-.672.363-1.172.367-.504.984-.781a3.3 3.3 0 0 1 1.387-.281q.774 0 1.375.277.602.273.953.75.355.477.375 1.082zm6.296 3.547V122h.922v6h-.922v-1.016h-.063q-.21.457-.656.778-.446.316-1.125.316-.562 0-1-.246a1.73 1.73 0 0 1-.688-.75q-.25-.504-.25-1.27V122h.922v3.75q0 .655.367 1.047.372.39.946.39.344 0 .699-.175.36-.176.602-.539.246-.364.246-.926m2.61 4.703V122h.891v.953h.109q.101-.156.281-.398a1.7 1.7 0 0 1 .524-.438q.344-.195.929-.195.759 0 1.336.379.579.378.903 1.074.324.695.324 1.641 0 .953-.324 1.652a2.55 2.55 0 0 1-.899 1.078 2.35 2.35 0 0 1-1.324.379q-.578 0-.926-.191a1.7 1.7 0 0 1-.535-.442 6 6 0 0 1-.289-.414h-.078v3.172zm.906-5.25q0 .68.199 1.199.2.515.583.809.382.29.937.289.578 0 .965-.305.39-.309.586-.828.2-.523.199-1.164 0-.633-.195-1.141a1.77 1.77 0 0 0-.582-.808q-.387-.301-.973-.301-.562 0-.945.285a1.7 1.7 0 0 0-.578.789 3.2 3.2 0 0 0-.196 1.176m5.797 5.25V122h.891v.953h.109q.102-.156.281-.398a1.7 1.7 0 0 1 .524-.438q.343-.195.93-.195.758 0 1.335.379.579.378.903 1.074.324.695.324 1.641 0 .953-.324 1.652a2.55 2.55 0 0 1-.899 1.078 2.34 2.34 0 0 1-1.324.379q-.578 0-.926-.191a1.7 1.7 0 0 1-.535-.442 6 6 0 0 1-.289-.414h-.078v3.172zm.906-5.25q0 .68.2 1.199.198.515.582.809.382.29.937.289.578 0 .965-.305.39-.309.586-.828.2-.523.199-1.164 0-.633-.195-1.141a1.77 1.77 0 0 0-.582-.808q-.387-.301-.973-.301-.562 0-.945.285a1.7 1.7 0 0 0-.578.789 3.2 3.2 0 0 0-.196 1.176m8.235 3.125q-.813 0-1.426-.387a2.63 2.63 0 0 1-.953-1.082q-.34-.695-.34-1.625 0-.937.34-1.636.344-.7.953-1.086.613-.387 1.426-.387t1.422.387q.612.386.953 1.086.344.699.344 1.636 0 .93-.344 1.625a2.6 2.6 0 0 1-.953 1.082q-.61.387-1.422.387m0-.828q.617 0 1.015-.317.4-.316.59-.832.192-.515.192-1.117 0-.601-.192-1.121a1.9 1.9 0 0 0-.59-.84q-.398-.32-1.015-.32-.618 0-1.016.32a1.9 1.9 0 0 0-.59.84q-.19.52-.191 1.121 0 .602.191 1.117.192.517.59.832.399.317 1.016.317m4.126.703v-6h.89v.906h.063q.163-.446.594-.722.43-.278.968-.278.102 0 .254.004t.231.012v.937a4 4 0 0 0-.563-.062q-.437 0-.781.183-.34.18-.539.5a1.35 1.35 0 0 0-.195.723V128zm7.078-6v.781h-3.11V122zm-2.203-1.438h.922v5.719q0 .391.113.586a.58.58 0 0 0 .297.258q.183.062.386.062.153 0 .25-.015l.157-.031.187.828q-.094.035-.261.07a2 2 0 0 1-.426.039q-.391 0-.766-.168a1.5 1.5 0 0 1-.617-.512q-.243-.344-.242-.867zm3.59 7.438v-6h.921v6zm.468-7a.66.66 0 0 1-.465-.184.6.6 0 0 1-.191-.441.6.6 0 0 1 .191-.441.66.66 0 0 1 .465-.184q.27 0 .461.184.196.183.196.441a.58.58 0 0 1-.196.441.64.64 0 0 1-.461.184m3.064 3.391V128h-.922v-6h.891v.937h.078q.21-.456.64-.734.43-.28 1.11-.281.609 0 1.066.25.457.246.711.75.254.5.254 1.266V128h-.922v-3.75q0-.707-.367-1.102-.367-.398-1.008-.398-.441 0-.789.191-.344.192-.543.559t-.199.891m7.934 5.984q-.668 0-1.148-.172a2.4 2.4 0 0 1-.801-.445 2.4 2.4 0 0 1-.504-.586l.735-.516q.124.165.316.375.192.215.523.371.336.16.879.16.727 0 1.2-.351.472-.352.472-1.102v-1.218h-.078a5 5 0 0 1-.289.406 1.6 1.6 0 0 1-.531.426q-.343.183-.93.183-.726 0-1.305-.343a2.4 2.4 0 0 1-.91-1.001q-.332-.656-.332-1.593 0-.922.324-1.606.325-.687.903-1.062a2.4 2.4 0 0 1 1.336-.379q.585 0 .929.195.348.192.532.438.187.242.289.398h.093V122h.891v6.172q0 .774-.351 1.258a2 2 0 0 1-.938.715 3.6 3.6 0 0 1-1.305.23m-.031-3.297q.554 0 .938-.254.382-.254.582-.73.198-.477.199-1.141a3.1 3.1 0 0 0-.195-1.144 1.7 1.7 0 0 0-.579-.778q-.382-.28-.945-.281-.586 0-.976.297a1.8 1.8 0 0 0-.582.797 3.1 3.1 0 0 0-.192 1.109q0 .625.195 1.106.2.475.586.75.391.269.969.269m8.5-7.078v8h-.969v-8zm4.083 8.125q-.75 0-1.324-.379-.574-.382-.899-1.078-.324-.7-.324-1.652 0-.946.324-1.641.325-.696.903-1.074a2.4 2.4 0 0 1 1.336-.379q.585 0 .926.195.343.192.523.438.183.242.285.398h.078V120h.922v8h-.89v-.922h-.11a6 6 0 0 1-.289.414 1.7 1.7 0 0 1-.535.442q-.347.19-.926.191m.125-.828q.555 0 .938-.289.383-.294.582-.809.198-.52.199-1.199 0-.672-.195-1.176a1.7 1.7 0 0 0-.579-.789q-.383-.285-.945-.285-.586 0-.976.301a1.8 1.8 0 0 0-.582.808 3.2 3.2 0 0 0-.192 1.141q0 .64.195 1.164.2.519.586.828.391.305.969.305m6.957.828q-.867 0-1.496-.383a2.57 2.57 0 0 1-.965-1.078q-.336-.695-.336-1.617t.336-1.625q.34-.707.946-1.102.61-.398 1.421-.398.47 0 .926.156t.832.508q.375.348.598.922t.223 1.414v.39h-4.625v-.796h3.687q0-.508-.203-.907a1.54 1.54 0 0 0-.57-.629 1.6 1.6 0 0 0-.868-.23q-.55 0-.953.273a1.8 1.8 0 0 0-.613.704 2.1 2.1 0 0 0-.215.929v.532q0 .68.235 1.152.237.469.66.715.422.242.98.242.363 0 .656-.102.297-.105.512-.312.215-.211.332-.524l.891.25a2 2 0 0 1-.473.797 2.3 2.3 0 0 1-.82.531 3 3 0 0 1-1.098.188m4.809-3.734V128h-.922v-6h.89v.937h.079q.21-.456.64-.734.43-.28 1.11-.281.609 0 1.066.25.457.246.711.75.254.5.254 1.266V128h-.922v-3.75q0-.707-.367-1.102-.368-.398-1.008-.398-.441 0-.789.191-.343.192-.543.559t-.199.891m8.122-2.391v.781h-3.11V122zm-2.203-1.438h.922v5.719q0 .391.113.586a.58.58 0 0 0 .297.258q.183.062.386.062.153 0 .25-.015l.157-.031.187.828q-.093.035-.262.07a2 2 0 0 1-.425.039q-.391 0-.766-.168a1.5 1.5 0 0 1-.617-.512q-.242-.344-.242-.867zm3.59 7.438v-6h.921v6zm.468-7a.66.66 0 0 1-.465-.184.6.6 0 0 1-.191-.441.6.6 0 0 1 .191-.441.66.66 0 0 1 .465-.184q.27 0 .461.184.196.183.196.441a.58.58 0 0 1-.196.441.64.64 0 0 1-.461.184m4.751 1v.781h-3.109V122zm-2.203-1.438h.922v5.719q0 .391.113.586a.58.58 0 0 0 .297.258q.184.062.387.062.152 0 .25-.015l.156-.031.188.828q-.094.035-.262.07a2 2 0 0 1-.426.039q-.39 0-.765-.168a1.5 1.5 0 0 1-.618-.512q-.242-.344-.242-.867zm4.184 9.688a2 2 0 0 1-.672-.109l.234-.813q.336.085.594.063a.71.71 0 0 0 .457-.231q.203-.202.371-.66l.172-.469L608.24 122h1l1.656 4.781h.063l1.656-4.781h1l-2.547 6.875q-.171.464-.425.77a1.6 1.6 0 0 1-.59.457 1.8 1.8 0 0 1-.75.148M514.71 93.99v-2.535h11.946v2.535h-4.453V106h-3.04V93.99zm16.882 5.703V106h-3.025V91.454h2.94v5.562h.128a3.1 3.1 0 0 1 1.193-1.513q.823-.555 2.067-.554 1.136 0 1.981.497a3.3 3.3 0 0 1 1.321 1.413q.477.917.469 2.195V106h-3.025v-6.406q.006-1.01-.512-1.57-.511-.56-1.434-.56-.618 0-1.094.262a1.86 1.86 0 0 0-.739.767q-.262.496-.27 1.2m14.427 6.52q-1.683 0-2.898-.682a4.67 4.67 0 0 1-1.861-1.946q-.653-1.264-.653-2.99 0-1.683.653-2.954a4.83 4.83 0 0 1 1.84-1.982q1.193-.71 2.798-.71 1.08 0 2.01.348a4.5 4.5 0 0 1 1.634 1.03q.702.689 1.093 1.733.391 1.035.391 2.429v.831h-9.212v-1.875h6.364q0-.654-.284-1.158a2.04 2.04 0 0 0-.789-.788 2.25 2.25 0 0 0-1.157-.292 2.33 2.33 0 0 0-1.222.32q-.525.312-.824.845-.298.525-.305 1.172v1.783q0 .809.298 1.399.305.59.86.909t1.314.32q.504 0 .923-.143.418-.141.717-.426.299-.284.455-.696l2.798.185a3.8 3.8 0 0 1-.874 1.761q-.653.747-1.69 1.165-1.03.412-2.379.412m11.667-14.758h3.793l4.005 9.772h.171l4.006-9.773h3.792V106h-2.983v-9.467h-.121l-3.764 9.396h-2.031l-3.764-9.432h-.121V106h-2.983zm21.355 14.751q-1.044 0-1.861-.362a3 3 0 0 1-1.293-1.087q-.468-.724-.468-1.804 0-.909.333-1.527.334-.618.91-.994.575-.376 1.306-.568a10 10 0 0 1 1.549-.27 39 39 0 0 0 1.534-.185q.582-.092.845-.27.263-.177.263-.525v-.043q0-.675-.426-1.044-.42-.37-1.194-.37-.816 0-1.299.363a1.67 1.67 0 0 0-.64.895l-2.798-.228a3.8 3.8 0 0 1 .838-1.718q.625-.732 1.612-1.122.994-.399 2.302-.398.909 0 1.74.213a4.6 4.6 0 0 1 1.484.66q.654.448 1.03 1.151.376.696.376 1.669V106h-2.869v-1.513h-.085q-.263.512-.703.902a3.3 3.3 0 0 1-1.059.604q-.617.213-1.427.213m.866-2.088q.668 0 1.179-.263.512-.27.803-.724a1.87 1.87 0 0 0 .291-1.03v-1.158a1.6 1.6 0 0 1-.391.171 8 8 0 0 1-.546.135 34 34 0 0 1-.611.106l-.554.078a3.7 3.7 0 0 0-.931.249 1.5 1.5 0 0 0-.618.461q-.22.285-.22.711 0 .618.448.944.454.32 1.15.32m12.539 6.2q-1.47 0-2.521-.405-1.044-.398-1.662-1.086a3.34 3.34 0 0 1-.802-1.549l2.798-.376q.128.327.405.611.276.284.731.454.462.178 1.122.178.988 0 1.627-.483.646-.476.646-1.598v-1.996h-.128a2.9 2.9 0 0 1-.596.86q-.398.404-1.023.66t-1.492.256q-1.228 0-2.237-.568-1-.576-1.598-1.755-.59-1.185-.589-2.997 0-1.854.603-3.096.604-1.244 1.606-1.861a4.14 4.14 0 0 1 2.208-.618q.917 0 1.534.312.618.306.995.767.383.455.589.895h.114v-1.832h3.004v11.016q0 1.392-.682 2.329-.681.938-1.889 1.406-1.2.477-2.763.476m.064-6.747q.732 0 1.236-.362.511-.37.781-1.051.277-.69.277-1.648 0-.96-.27-1.662-.269-.71-.781-1.1-.511-.392-1.243-.392-.745 0-1.257.405-.511.399-.774 1.108t-.263 1.641q0 .945.263 1.633.27.683.774 1.059.511.369 1.257.369m7.678 2.429V95.09h3.025V106zm1.52-12.315q-.675 0-1.158-.448a1.45 1.45 0 0 1-.476-1.086q0-.626.476-1.073a1.63 1.63 0 0 1 1.158-.454q.675 0 1.15.454.483.447.483 1.073 0 .632-.483 1.086-.475.448-1.15.448m8.858 12.528q-1.676 0-2.883-.71a4.8 4.8 0 0 1-1.847-1.989q-.639-1.271-.639-2.926 0-1.675.646-2.94a4.8 4.8 0 0 1 1.854-1.982q1.2-.717 2.855-.717 1.428 0 2.5.518a4.17 4.17 0 0 1 1.697 1.456q.626.938.689 2.202h-2.855q-.12-.817-.639-1.314-.511-.504-1.342-.504-.704 0-1.229.383-.519.377-.81 1.101-.291.725-.291 1.754 0 1.044.284 1.776.29.732.817 1.115.525.384 1.229.384.518 0 .93-.213.419-.214.689-.618.277-.412.362-.988h2.855q-.07 1.251-.682 2.202a4.1 4.1 0 0 1-1.669 1.477q-1.065.533-2.521.533m6.809-.213V95.09h3.026V106zm1.52-12.315q-.675 0-1.157-.448a1.45 1.45 0 0 1-.476-1.086q0-.626.476-1.073a1.63 1.63 0 0 1 1.157-.454q.675 0 1.151.454.483.447.483 1.073 0 .632-.483 1.086a1.62 1.62 0 0 1-1.151.448m7.04 12.521q-1.044 0-1.86-.362a3 3 0 0 1-1.293-1.087q-.47-.724-.469-1.804 0-.909.334-1.527a2.7 2.7 0 0 1 .909-.994q.575-.376 1.307-.568a10 10 0 0 1 1.548-.27 39 39 0 0 0 1.534-.185q.583-.092.845-.27.264-.177.263-.525v-.043q0-.675-.426-1.044-.419-.37-1.193-.37-.817 0-1.3.363a1.67 1.67 0 0 0-.639.895l-2.798-.228a3.8 3.8 0 0 1 .838-1.718q.625-.732 1.612-1.122.995-.399 2.301-.398.909 0 1.74.213a4.6 4.6 0 0 1 1.485.66q.652.448 1.029 1.151.377.696.377 1.669V106h-2.869v-1.513h-.086a3.1 3.1 0 0 1-.703.902 3.3 3.3 0 0 1-1.058.604q-.618.213-1.428.213m.867-2.088q.668 0 1.179-.263.511-.27.802-.724.292-.455.292-1.03v-1.158a1.6 1.6 0 0 1-.391.171 7 7 0 0 1-.547.135q-.305.056-.611.106l-.554.078a3.7 3.7 0 0 0-.93.249 1.5 1.5 0 0 0-.618.461q-.22.285-.22.711 0 .618.447.944.455.32 1.151.32m10.65-4.425V106h-3.026V95.09h2.884v1.926h.128a3.04 3.04 0 0 1 1.214-1.506q.852-.561 2.067-.561 1.136 0 1.981.497a3.37 3.37 0 0 1 1.314 1.42q.47.916.469 2.188V106h-3.026v-6.406q.008-1.002-.511-1.563-.518-.568-1.428-.568-.61 0-1.079.263-.461.262-.725.767-.256.496-.262 1.2"/></svg>