<svg width="226" height="100" viewBox="0 0 226 100" fill="none" xmlns="http://www.w3.org/2000/svg">
<path d="M178.409 39.4266L162.481 90.4583H148.989L132.991 39.4266H142.708L154.462 79.9296H157.343L169.04 39.4266H178.409ZM225.161 39.4266V90.4583H216.139V68.6965H193.169V90.4573H184.146V39.4266H193.169V60.0758H216.139V39.4266H225.161ZM118.657 72.8709C116.393 69.4959 112.446 67.5221 108.551 67.6247C107.898 67.6448 107.176 67.7373 106.605 67.7775C104.144 67.9228 99.9333 67.7232 97.2795 64.6081C97.2795 64.6081 91.5668 56.915 91.5583 56.8994C89.2638 53.2695 90.7282 48.5179 91.5899 46.3943C91.755 46.0373 92.0782 45.2927 92.0782 45.2927C95.7985 35.8771 89.2754 24.3806 77.2785 25.1403C65.9164 25.8562 61.0303 37.9505 65.4321 46.7678C66.1407 48.341 68.507 54.65 64.7436 61.6268L63.1768 64.1516C61.4168 66.779 52.8967 77.6778 44.4043 57.1236L23.782 7.61071C18.1812 -6.94206 -5.46979 1.03966 1.16326 17.5336L30.6915 88.4654C32.2227 92.0847 33.6656 95.9102 37.1515 98.1907C41.7545 101.202 48.5948 100.332 52.2383 96.4868C53.2616 95.4099 53.8232 94.2491 54.0716 93.7443C55.798 90.1662 64.3019 67.9132 65.5601 65.1923C66.1734 63.8666 66.3932 63.3462 66.7309 62.771C70.7463 55.9381 76.8102 54.7702 79.2784 54.5394C81.2492 54.3549 86.5051 54.1242 89.5153 57.8079L95.2635 65.505C97.2991 68.3159 98.0529 74.3299 97.4858 77.3922C96.7621 81.3021 98.3715 85.8938 101.702 88.4C110.07 94.7358 121.178 88.2779 120.567 78.6702C120.46 76.9839 119.888 74.7069 118.656 72.8709H118.657Z" fill="black"/>
</svg>
