<svg width="203" height="128" viewBox="0 0 203 128" fill="none" xmlns="http://www.w3.org/2000/svg">
<path d="M57.9752 14.1876L52.965 30.2267H48.7206L43.6884 14.1876H46.7449L50.4422 26.9176H51.3487L55.028 14.1876H57.9752ZM59.598 14.9862C59.598 14.2163 60.2215 13.5924 60.9904 13.5924C61.7593 13.5924 62.3829 14.2164 62.3829 14.9862C62.3829 15.7559 61.7594 16.38 60.9904 16.38C60.2214 16.38 59.598 15.756 59.598 14.9862ZM59.6364 30.2265V18.6633H62.3443V30.2265H59.6364ZM67.5616 28.8277L67.5399 30.2268H65.1377V13.5923H67.8458V17.0675C67.8458 17.9636 67.8241 18.9254 67.7803 19.7999C68.6102 18.9254 69.9204 18.4446 71.2962 18.4446C74.419 18.4446 77.0397 20.8929 77.0397 24.4558C77.0397 27.9751 74.419 30.445 71.2962 30.445C69.7892 30.445 68.3698 29.8548 67.562 28.8275L67.5616 28.8277ZM70.9465 27.9532C72.8902 27.9532 74.3098 26.5324 74.3098 24.4557C74.3098 22.3573 72.8903 20.9365 70.9465 20.9365C69.0902 20.9365 67.6491 22.2262 67.6491 24.4557C67.6491 26.6634 69.0902 27.9532 70.9465 27.9532ZM79.2848 18.6645H81.9927V19.2771C81.979 19.3802 81.9718 19.4357 81.9489 19.6032C82.6044 18.838 84.2332 18.4009 85.4781 18.4009C85.5647 18.4009 85.6511 18.403 85.737 18.4072C85.737 19.32 85.7372 20.4047 85.7372 21.1022H84.7355C83.3597 21.1022 81.9927 21.811 81.9927 23.4723V30.2267H79.2848V18.6645ZM86.7936 24.456C86.7936 20.893 89.3924 18.4447 92.5371 18.4447C94.0441 18.4447 95.4416 19.013 96.2713 20.0623L96.293 18.6633H98.6952V30.2266H96.293L96.2713 28.8275C95.4415 29.8767 94.0437 30.4452 92.5371 30.4452C89.3925 30.4452 86.7936 27.9752 86.7936 24.456ZM92.8864 27.9534C94.721 27.9534 96.1839 26.6637 96.1839 24.4559C96.1839 22.2262 94.7207 20.9367 92.8864 20.9367C90.9427 20.9367 89.5015 22.3575 89.5015 24.4559C89.5015 26.5325 90.9427 27.9534 92.8864 27.9534ZM101.49 18.6645H104.198V19.2771C104.184 19.3802 104.177 19.4357 104.154 19.6032C104.81 18.838 106.438 18.4009 107.683 18.4009C110.238 18.4009 112.348 20.1934 112.348 23.2972V30.2266H109.64V23.4722C109.64 21.8111 108.295 20.9367 106.941 20.9367C105.565 20.9367 104.198 21.8111 104.198 23.4722V30.2266H101.49V18.6644L101.49 18.6645ZM116.681 21.0932H114.035V18.645H116.681V14.4187H119.389V18.645H122.058V21.0932H119.389L119.368 30.2268H116.66L116.681 21.0932ZM144.403 14.1876V30.2267H141.565V23.3871H134.339V30.2265H131.501V14.1876H134.339V20.6774H141.565V14.1876H144.403ZM146.816 24.4777C146.816 20.9365 149.349 18.4228 152.69 18.4228C155.748 18.4228 158.499 20.4994 158.237 25.0461H149.349C149.567 26.8823 150.943 28.1501 152.909 28.1501C154.35 28.1501 155.573 27.4726 156.425 26.2266L158.215 27.6473C157.08 29.2868 155.289 30.4891 152.843 30.4891C149.24 30.4888 146.816 27.9533 146.816 24.4777ZM155.682 23.1004C155.355 21.4828 154.197 20.6521 152.669 20.6521C151.053 20.6521 149.83 21.6575 149.437 23.1004H155.682ZM160.024 24.456C160.024 20.893 162.623 18.4447 165.768 18.4447C167.275 18.4447 168.672 19.013 169.502 20.0623L169.524 18.6633H171.926V30.2266H169.524L169.502 28.8275C168.672 29.8767 167.274 30.4452 165.768 30.4452C162.623 30.4452 160.024 27.9752 160.024 24.456ZM166.117 27.9534C167.952 27.9534 169.415 26.6637 169.415 24.4559C169.415 22.2262 167.951 20.9367 166.117 20.9367C164.173 20.9367 162.732 22.3575 162.732 24.4559C162.732 26.5325 164.173 27.9534 166.117 27.9534ZM174.721 13.5923H177.429V30.2267H174.721V13.5923ZM181.923 21.0932H179.276V18.645H181.923V14.4187H184.631V18.645H187.299V21.0932H184.631L184.609 30.2268H181.901L181.923 21.0932ZM189.142 13.5923H191.85L191.807 19.6032C192.462 18.8382 194.091 18.401 195.336 18.401C197.891 18.401 200 20.1934 200 23.2973V30.2267H197.292V23.4723C197.292 21.8111 195.947 20.9368 194.593 20.9368C193.217 20.9368 191.85 21.8111 191.85 23.4723V30.2267H189.142L189.142 13.5923ZM39.5857 24.2904C38.8303 23.1654 37.5137 22.5075 36.2142 22.5416C35.9964 22.5484 35.7554 22.5791 35.5648 22.5926C34.7437 22.641 33.3391 22.5744 32.4537 21.5361C32.4537 21.5361 30.5479 18.9717 30.5451 18.9665C29.7796 17.7566 30.2681 16.1728 30.5556 15.4648C30.6107 15.3458 30.7185 15.0976 30.7185 15.0976C31.9597 11.9591 29.7835 8.12691 25.7812 8.38009C21.9906 8.61866 20.3606 12.6501 21.8291 15.5894C22.0655 16.1138 22.8548 18.2167 21.5993 20.5423L21.0766 21.3839C20.4894 22.2597 17.6471 25.8926 14.8139 19.0412L7.93395 2.53688C6.06545 -2.31397 -1.82488 0.346488 0.38812 5.84453L10.2392 29.4885C10.75 30.6951 11.2314 31.97 12.3944 32.7302C13.9301 33.7341 16.2121 33.4441 17.4276 32.1623C17.769 31.8034 17.9564 31.4164 18.0393 31.2481C18.6152 30.0554 21.4522 22.6378 21.8721 21.7309C22.0767 21.2889 22.15 21.1155 22.2628 20.9237C23.6024 18.6461 25.6253 18.2568 26.4487 18.1798C27.1063 18.1184 28.8597 18.0415 29.8639 19.2694L31.7816 21.8351C32.4606 22.7721 32.7122 24.7767 32.523 25.7975C32.2815 27.1009 32.8184 28.6313 33.9295 29.4667C36.7214 31.5786 40.4271 29.4259 40.2232 26.2234C40.1874 25.6614 39.9965 24.9023 39.5856 24.2904H39.5857Z" fill="#1F1F1F"/>
<line x1="0.5" y1="53.834" x2="0.499999" y2="82.834" stroke="#84C12F" stroke-linecap="round"/>
<line x1="202.5" y1="53.834" x2="202.5" y2="82.834" stroke="#84C12F" stroke-linecap="round"/>
<path d="M1.64645 68.3593C1.45118 68.5546 1.45118 68.8712 1.64645 69.0664L4.82843 72.2484C5.02369 72.4437 5.34027 72.4437 5.53553 72.2484C5.7308 72.0532 5.7308 71.7366 5.53553 71.5413L2.70711 68.7129L5.53553 65.8845C5.7308 65.6892 5.7308 65.3726 5.53553 65.1774C5.34027 64.9821 5.02369 64.9821 4.82843 65.1774L1.64645 68.3593ZM202.354 69.0664C202.549 68.8712 202.549 68.5546 202.354 68.3593L199.172 65.1774C198.976 64.9821 198.66 64.9821 198.464 65.1774C198.269 65.3726 198.269 65.6892 198.464 65.8845L201.293 68.7129L198.464 71.5413C198.269 71.7366 198.269 72.0532 198.464 72.2484C198.66 72.4437 198.976 72.4437 199.172 72.2484L202.354 69.0664ZM2 68.7129V69.2129H202V68.7129V68.2129H2V68.7129Z" fill="#84C12F"/>
<path d="M5.82955 105.789C5.77841 105.357 5.57102 105.021 5.20739 104.783C4.84375 104.544 4.39773 104.425 3.86932 104.425C3.48295 104.425 3.14489 104.487 2.85511 104.612C2.56818 104.737 2.34375 104.909 2.18182 105.128C2.02273 105.347 1.94318 105.595 1.94318 105.874C1.94318 106.107 1.99858 106.307 2.10938 106.475C2.22301 106.639 2.3679 106.777 2.54403 106.888C2.72017 106.996 2.90483 107.085 3.09801 107.156C3.29119 107.225 3.46875 107.28 3.63068 107.323L4.51705 107.561C4.74432 107.621 4.99716 107.703 5.27557 107.808C5.55682 107.914 5.82528 108.057 6.08097 108.239C6.33949 108.418 6.55256 108.648 6.72017 108.929C6.88778 109.21 6.97159 109.556 6.97159 109.965C6.97159 110.436 6.84801 110.862 6.60085 111.243C6.35653 111.624 5.99858 111.926 5.52699 112.151C5.05824 112.375 4.48864 112.487 3.81818 112.487C3.19318 112.487 2.65199 112.387 2.1946 112.185C1.74006 111.983 1.3821 111.702 1.12074 111.341C0.862216 110.98 0.715909 110.561 0.681818 110.084H1.77273C1.80114 110.414 1.91193 110.686 2.10511 110.902C2.30114 111.115 2.5483 111.274 2.84659 111.379C3.14773 111.482 3.47159 111.533 3.81818 111.533C4.22159 111.533 4.58381 111.468 4.90483 111.337C5.22585 111.203 5.48011 111.019 5.66761 110.783C5.85511 110.544 5.94886 110.266 5.94886 109.948C5.94886 109.658 5.8679 109.422 5.70597 109.24C5.54403 109.058 5.33097 108.911 5.06676 108.797C4.80256 108.683 4.51705 108.584 4.21023 108.499L3.13636 108.192C2.45455 107.996 1.91477 107.716 1.51705 107.352C1.11932 106.989 0.920455 106.513 0.920455 105.925C0.920455 105.436 1.05256 105.01 1.31676 104.646C1.58381 104.28 1.94176 103.996 2.39062 103.794C2.84233 103.59 3.34659 103.487 3.90341 103.487C4.46591 103.487 4.96591 103.588 5.40341 103.79C5.84091 103.989 6.1875 104.262 6.44318 104.608C6.7017 104.955 6.83807 105.348 6.85227 105.789H5.82955ZM11.2319 112.47C10.6183 112.47 10.0898 112.325 9.64666 112.036C9.20348 111.746 8.86257 111.347 8.62393 110.838C8.3853 110.33 8.26598 109.749 8.26598 109.095C8.26598 108.431 8.38814 107.844 8.63246 107.335C8.87962 106.824 9.22337 106.425 9.66371 106.138C10.1069 105.848 10.6239 105.703 11.2148 105.703C11.6751 105.703 12.0898 105.789 12.4592 105.959C12.8285 106.129 13.131 106.368 13.3668 106.675C13.6026 106.982 13.7489 107.34 13.8058 107.749H12.8001C12.7234 107.45 12.5529 107.186 12.2887 106.956C12.0273 106.723 11.6751 106.607 11.2319 106.607C10.8398 106.607 10.4961 106.709 10.2006 106.914C9.90803 107.115 9.67933 107.401 9.51456 107.77C9.35263 108.137 9.27166 108.567 9.27166 109.061C9.27166 109.567 9.35121 110.007 9.5103 110.382C9.67223 110.757 9.8995 111.048 10.1921 111.256C10.4876 111.463 10.8342 111.567 11.2319 111.567C11.4933 111.567 11.7305 111.521 11.9435 111.431C12.1566 111.34 12.337 111.209 12.4847 111.039C12.6325 110.868 12.7376 110.664 12.8001 110.425H13.8058C13.7489 110.811 13.6083 111.159 13.3839 111.469C13.1623 111.776 12.8683 112.02 12.5018 112.202C12.1381 112.381 11.7148 112.47 11.2319 112.47ZM15.2759 112.334V105.789H16.2475V106.777H16.3157C16.435 106.453 16.6509 106.191 16.9634 105.989C17.2759 105.787 17.6282 105.686 18.0202 105.686C18.0941 105.686 18.1864 105.688 18.2972 105.691C18.408 105.693 18.4918 105.698 18.5487 105.703V106.726C18.5146 106.718 18.4364 106.705 18.3143 106.688C18.195 106.668 18.0685 106.658 17.935 106.658C17.6168 106.658 17.3327 106.725 17.0827 106.858C16.8356 106.989 16.6396 107.171 16.4947 107.404C16.3526 107.634 16.2816 107.896 16.2816 108.192V112.334H15.2759ZM22.2859 112.47C21.6552 112.47 21.1112 112.331 20.6538 112.053C20.1992 111.771 19.8484 111.379 19.6012 110.877C19.3569 110.371 19.2347 109.783 19.2347 109.112C19.2347 108.442 19.3569 107.851 19.6012 107.34C19.8484 106.825 20.1921 106.425 20.6325 106.138C21.0756 105.848 21.5927 105.703 22.1836 105.703C22.5245 105.703 22.8612 105.76 23.1935 105.874C23.5259 105.987 23.8285 106.172 24.1012 106.428C24.3739 106.681 24.5913 107.016 24.7532 107.433C24.9151 107.851 24.9961 108.365 24.9961 108.976V109.402H19.9506V108.533H23.9734C23.9734 108.164 23.8995 107.834 23.7518 107.544C23.6069 107.254 23.3995 107.026 23.1296 106.858C22.8626 106.691 22.5472 106.607 22.1836 106.607C21.783 106.607 21.4364 106.706 21.1438 106.905C20.854 107.101 20.631 107.357 20.4748 107.672C20.3185 107.987 20.2404 108.325 20.2404 108.686V109.266C20.2404 109.76 20.3256 110.179 20.4961 110.523C20.6694 110.864 20.9094 111.124 21.2163 111.303C21.5231 111.479 21.8796 111.567 22.2859 111.567C22.5501 111.567 22.7887 111.53 23.0018 111.456C23.2177 111.379 23.4038 111.266 23.56 111.115C23.7163 110.962 23.837 110.771 23.9222 110.544L24.8938 110.817C24.7915 111.146 24.6197 111.436 24.3782 111.686C24.1367 111.933 23.8384 112.127 23.4833 112.266C23.1282 112.402 22.729 112.47 22.2859 112.47ZM29.2702 112.47C28.6396 112.47 28.0955 112.331 27.6381 112.053C27.1836 111.771 26.8327 111.379 26.5856 110.877C26.3413 110.371 26.2191 109.783 26.2191 109.112C26.2191 108.442 26.3413 107.851 26.5856 107.34C26.8327 106.825 27.1765 106.425 27.6168 106.138C28.06 105.848 28.5771 105.703 29.168 105.703C29.5089 105.703 29.8455 105.76 30.1779 105.874C30.5103 105.987 30.8129 106.172 31.0856 106.428C31.3583 106.681 31.5756 107.016 31.7376 107.433C31.8995 107.851 31.9805 108.365 31.9805 108.976V109.402H26.935V108.533H30.9577C30.9577 108.164 30.8839 107.834 30.7362 107.544C30.5913 107.254 30.3839 107.026 30.114 106.858C29.8469 106.691 29.5316 106.607 29.168 106.607C28.7674 106.607 28.4208 106.706 28.1282 106.905C27.8384 107.101 27.6154 107.357 27.4592 107.672C27.3029 107.987 27.2248 108.325 27.2248 108.686V109.266C27.2248 109.76 27.31 110.179 27.4805 110.523C27.6538 110.864 27.8938 111.124 28.2006 111.303C28.5075 111.479 28.864 111.567 29.2702 111.567C29.5344 111.567 29.7731 111.53 29.9862 111.456C30.2021 111.379 30.3881 111.266 30.5444 111.115C30.7006 110.962 30.8214 110.771 30.9066 110.544L31.8782 110.817C31.7759 111.146 31.604 111.436 31.3626 111.686C31.1211 111.933 30.8228 112.127 30.4677 112.266C30.1126 112.402 29.7134 112.47 29.2702 112.47ZM34.516 108.396V112.334H33.5103V105.789H34.4819V106.811H34.5671C34.7205 106.479 34.9535 106.212 35.266 106.01C35.5785 105.806 35.9819 105.703 36.4762 105.703C36.9194 105.703 37.3072 105.794 37.6396 105.976C37.9719 106.155 38.2305 106.428 38.4151 106.794C38.5998 107.158 38.6921 107.618 38.6921 108.175V112.334H37.6864V108.243C37.6864 107.729 37.5529 107.328 37.2859 107.041C37.0188 106.752 36.6523 106.607 36.1864 106.607C35.8654 106.607 35.5785 106.676 35.3256 106.816C35.0756 106.955 34.8782 107.158 34.7333 107.425C34.5884 107.692 34.516 108.016 34.516 108.396ZM41.2628 112.402C41.0526 112.402 40.8722 112.327 40.7216 112.176C40.571 112.026 40.4957 111.845 40.4957 111.635C40.4957 111.425 40.571 111.244 40.7216 111.094C40.8722 110.943 41.0526 110.868 41.2628 110.868C41.473 110.868 41.6534 110.943 41.804 111.094C41.9545 111.244 42.0298 111.425 42.0298 111.635C42.0298 111.774 41.9943 111.902 41.9233 112.019C41.8551 112.135 41.7628 112.229 41.6463 112.3C41.5327 112.368 41.4048 112.402 41.2628 112.402ZM41.2628 107.544C41.0526 107.544 40.8722 107.469 40.7216 107.318C40.571 107.168 40.4957 106.987 40.4957 106.777C40.4957 106.567 40.571 106.387 40.7216 106.236C40.8722 106.085 41.0526 106.01 41.2628 106.01C41.473 106.01 41.6534 106.085 41.804 106.236C41.9545 106.387 42.0298 106.567 42.0298 106.777C42.0298 106.916 41.9943 107.044 41.9233 107.161C41.8551 107.277 41.7628 107.371 41.6463 107.442C41.5327 107.51 41.4048 107.544 41.2628 107.544ZM47.1925 112.334V111.567L50.0732 108.414C50.4112 108.044 50.6896 107.723 50.9084 107.45C51.1271 107.175 51.2891 106.916 51.3942 106.675C51.5021 106.431 51.5561 106.175 51.5561 105.908C51.5561 105.601 51.4822 105.335 51.3345 105.111C51.1896 104.887 50.9908 104.713 50.7379 104.591C50.4851 104.469 50.201 104.408 49.8857 104.408C49.5504 104.408 49.2578 104.477 49.0078 104.617C48.7607 104.753 48.5689 104.945 48.4325 105.192C48.299 105.439 48.2322 105.729 48.2322 106.061H47.2266C47.2266 105.55 47.3445 105.101 47.5803 104.715C47.8161 104.328 48.1371 104.027 48.5433 103.811C48.9524 103.595 49.4112 103.487 49.9197 103.487C50.4311 103.487 50.8842 103.595 51.2791 103.811C51.674 104.027 51.9837 104.318 52.2081 104.685C52.4325 105.051 52.5447 105.459 52.5447 105.908C52.5447 106.229 52.4865 106.543 52.37 106.85C52.2564 107.154 52.0575 107.493 51.7734 107.868C51.4922 108.24 51.1016 108.695 50.6016 109.232L48.6413 111.328V111.396H52.6982V112.334H47.1925ZM57.3047 112.453C56.6626 112.453 56.1158 112.279 55.6641 111.929C55.2124 111.577 54.8672 111.067 54.6286 110.399C54.3899 109.729 54.2706 108.919 54.2706 107.97C54.2706 107.027 54.3899 106.222 54.6286 105.554C54.87 104.884 55.2166 104.372 55.6683 104.02C56.1229 103.665 56.6683 103.487 57.3047 103.487C57.9411 103.487 58.4851 103.665 58.9368 104.02C59.3913 104.372 59.7379 104.884 59.9766 105.554C60.218 106.222 60.3388 107.027 60.3388 107.97C60.3388 108.919 60.2195 109.729 59.9808 110.399C59.7422 111.067 59.397 111.577 58.9453 111.929C58.4936 112.279 57.9467 112.453 57.3047 112.453ZM57.3047 111.516C57.9411 111.516 58.4354 111.209 58.7876 110.595C59.1399 109.982 59.3161 109.107 59.3161 107.97C59.3161 107.215 59.2351 106.571 59.0732 106.04C58.9141 105.509 58.6839 105.104 58.3828 104.825C58.0845 104.547 57.7251 104.408 57.3047 104.408C56.674 104.408 56.1811 104.719 55.826 105.341C55.4709 105.96 55.2933 106.837 55.2933 107.97C55.2933 108.726 55.3729 109.368 55.532 109.896C55.6911 110.425 55.9197 110.827 56.218 111.102C56.5192 111.378 56.8814 111.516 57.3047 111.516ZM64.8047 112.453C64.1626 112.453 63.6158 112.279 63.1641 111.929C62.7124 111.577 62.3672 111.067 62.1286 110.399C61.8899 109.729 61.7706 108.919 61.7706 107.97C61.7706 107.027 61.8899 106.222 62.1286 105.554C62.37 104.884 62.7166 104.372 63.1683 104.02C63.6229 103.665 64.1683 103.487 64.8047 103.487C65.4411 103.487 65.9851 103.665 66.4368 104.02C66.8913 104.372 67.2379 104.884 67.4766 105.554C67.718 106.222 67.8388 107.027 67.8388 107.97C67.8388 108.919 67.7195 109.729 67.4808 110.399C67.2422 111.067 66.897 111.577 66.4453 111.929C65.9936 112.279 65.4467 112.453 64.8047 112.453ZM64.8047 111.516C65.4411 111.516 65.9354 111.209 66.2876 110.595C66.6399 109.982 66.8161 109.107 66.8161 107.97C66.8161 107.215 66.7351 106.571 66.5732 106.04C66.4141 105.509 66.1839 105.104 65.8828 104.825C65.5845 104.547 65.2251 104.408 64.8047 104.408C64.174 104.408 63.6811 104.719 63.326 105.341C62.9709 105.96 62.7933 106.837 62.7933 107.97C62.7933 108.726 62.8729 109.368 63.032 109.896C63.1911 110.425 63.4197 110.827 63.718 111.102C64.0192 111.378 64.3814 111.516 64.8047 111.516ZM72.9865 112.334V103.607H75.9354C76.62 103.607 77.1797 103.73 77.6143 103.977C78.0518 104.222 78.3757 104.553 78.5859 104.97C78.7962 105.388 78.9013 105.854 78.9013 106.368C78.9013 106.882 78.7962 107.35 78.5859 107.77C78.3786 108.191 78.0575 108.526 77.6229 108.776C77.1882 109.023 76.6314 109.146 75.9524 109.146H73.8388V108.209H75.9183C76.3871 108.209 76.7635 108.128 77.0476 107.966C77.3317 107.804 77.5376 107.585 77.6655 107.31C77.7962 107.031 77.8615 106.718 77.8615 106.368C77.8615 106.019 77.7962 105.706 77.6655 105.431C77.5376 105.155 77.3303 104.939 77.0433 104.783C76.7564 104.624 76.3757 104.544 75.9013 104.544H74.0433V112.334H72.9865ZM81.1151 103.607L83.3651 107.237H83.4332L85.6832 103.607H86.9276L84.1832 107.97L86.9276 112.334H85.6832L83.4332 108.771H83.3651L81.1151 112.334H79.8707L82.6832 107.97L79.8707 103.607H81.1151ZM1.05682 126.334V117.607H4.00568C4.69034 117.607 5.25 117.73 5.68466 117.977C6.12216 118.222 6.44602 118.553 6.65625 118.97C6.86648 119.388 6.97159 119.854 6.97159 120.368C6.97159 120.882 6.86648 121.35 6.65625 121.77C6.44886 122.191 6.12784 122.526 5.69318 122.776C5.25852 123.023 4.7017 123.146 4.02273 123.146H1.90909V122.209H3.98864C4.45739 122.209 4.83381 122.128 5.1179 121.966C5.40199 121.804 5.60795 121.585 5.7358 121.31C5.86648 121.031 5.93182 120.718 5.93182 120.368C5.93182 120.019 5.86648 119.706 5.7358 119.431C5.60795 119.155 5.40057 118.939 5.11364 118.783C4.8267 118.624 4.44602 118.544 3.97159 118.544H2.11364V126.334H1.05682ZM8.53764 126.334V119.789H9.50923V120.777H9.57741C9.69673 120.453 9.91264 120.191 10.2251 119.989C10.5376 119.787 10.8899 119.686 11.282 119.686C11.3558 119.686 11.4482 119.688 11.5589 119.691C11.6697 119.693 11.7536 119.698 11.8104 119.703V120.726C11.7763 120.718 11.6982 120.705 11.576 120.688C11.4567 120.668 11.3303 120.658 11.1967 120.658C10.8786 120.658 10.5945 120.725 10.3445 120.858C10.0973 120.989 9.90128 121.171 9.75639 121.404C9.61435 121.634 9.54332 121.896 9.54332 122.192V126.334H8.53764ZM13.0025 126.334V119.789H14.0082V126.334H13.0025ZM13.5138 118.698C13.3178 118.698 13.1488 118.631 13.0067 118.497C12.8675 118.364 12.7979 118.203 12.7979 118.016C12.7979 117.828 12.8675 117.668 13.0067 117.534C13.1488 117.401 13.3178 117.334 13.5138 117.334C13.7099 117.334 13.8775 117.401 14.0167 117.534C14.1587 117.668 14.2298 117.828 14.2298 118.016C14.2298 118.203 14.1587 118.364 14.0167 118.497C13.8775 118.631 13.7099 118.698 13.5138 118.698ZM16.8558 122.396V126.334H15.8501V119.789H16.8217V120.811H16.907C17.0604 120.479 17.2933 120.212 17.6058 120.01C17.9183 119.806 18.3217 119.703 18.8161 119.703C19.2592 119.703 19.647 119.794 19.9794 119.976C20.3118 120.155 20.5703 120.428 20.755 120.794C20.9396 121.158 21.032 121.618 21.032 122.175V126.334H20.0263V122.243C20.0263 121.729 19.8928 121.328 19.6257 121.041C19.3587 120.752 18.9922 120.607 18.5263 120.607C18.2053 120.607 17.9183 120.676 17.6655 120.816C17.4155 120.955 17.218 121.158 17.0732 121.425C16.9283 121.692 16.8558 122.016 16.8558 122.396ZM25.7163 119.789V120.641H22.3242V119.789H25.7163ZM23.3129 118.22H24.3185V124.459C24.3185 124.743 24.3597 124.956 24.4421 125.098C24.5273 125.237 24.6353 125.331 24.766 125.379C24.8995 125.425 25.0401 125.448 25.1879 125.448C25.2987 125.448 25.3896 125.442 25.4606 125.431C25.5316 125.416 25.5884 125.405 25.631 125.396L25.8356 126.3C25.7674 126.325 25.6722 126.351 25.5501 126.377C25.4279 126.405 25.2731 126.419 25.0856 126.419C24.8015 126.419 24.5231 126.358 24.2504 126.236C23.9805 126.114 23.756 125.928 23.5771 125.678C23.4009 125.428 23.3129 125.112 23.3129 124.732V118.22ZM27.962 126.402C27.7518 126.402 27.5714 126.327 27.4208 126.176C27.2702 126.026 27.195 125.845 27.195 125.635C27.195 125.425 27.2702 125.244 27.4208 125.094C27.5714 124.943 27.7518 124.868 27.962 124.868C28.1722 124.868 28.3526 124.943 28.5032 125.094C28.6538 125.244 28.729 125.425 28.729 125.635C28.729 125.774 28.6935 125.902 28.6225 126.019C28.5543 126.135 28.462 126.229 28.3455 126.3C28.2319 126.368 28.104 126.402 27.962 126.402ZM27.962 121.544C27.7518 121.544 27.5714 121.469 27.4208 121.318C27.2702 121.168 27.195 120.987 27.195 120.777C27.195 120.567 27.2702 120.387 27.4208 120.236C27.5714 120.085 27.7518 120.01 27.962 120.01C28.1722 120.01 28.3526 120.085 28.5032 120.236C28.6538 120.387 28.729 120.567 28.729 120.777C28.729 120.916 28.6935 121.044 28.6225 121.161C28.5543 121.277 28.462 121.371 28.3455 121.442C28.2319 121.51 28.104 121.544 27.962 121.544ZM34.1644 126.334L38.0678 118.612V118.544H33.5678V117.607H39.1587V118.595L35.2724 126.334H34.1644ZM43.4062 126.453C42.7642 126.453 42.2173 126.279 41.7656 125.929C41.3139 125.577 40.9688 125.067 40.7301 124.399C40.4915 123.729 40.3722 122.919 40.3722 121.97C40.3722 121.027 40.4915 120.222 40.7301 119.554C40.9716 118.884 41.3182 118.372 41.7699 118.02C42.2244 117.665 42.7699 117.487 43.4062 117.487C44.0426 117.487 44.5866 117.665 45.0384 118.02C45.4929 118.372 45.8395 118.884 46.0781 119.554C46.3196 120.222 46.4403 121.027 46.4403 121.97C46.4403 122.919 46.321 123.729 46.0824 124.399C45.8438 125.067 45.4986 125.577 45.0469 125.929C44.5952 126.279 44.0483 126.453 43.4062 126.453ZM43.4062 125.516C44.0426 125.516 44.5369 125.209 44.8892 124.595C45.2415 123.982 45.4176 123.107 45.4176 121.97C45.4176 121.215 45.3366 120.571 45.1747 120.04C45.0156 119.509 44.7855 119.104 44.4844 118.825C44.1861 118.547 43.8267 118.408 43.4062 118.408C42.7756 118.408 42.2827 118.719 41.9276 119.341C41.5724 119.96 41.3949 120.837 41.3949 121.97C41.3949 122.726 41.4744 123.368 41.6335 123.896C41.7926 124.425 42.0213 124.827 42.3196 125.102C42.6207 125.378 42.983 125.516 43.4062 125.516ZM51.5881 117.607H52.8494L55.8153 124.851H55.9176L58.8835 117.607H60.1449V126.334H59.1562V119.703H59.071L56.3438 126.334H55.3892L52.6619 119.703H52.5767V126.334H51.5881V117.607ZM62.2638 117.607H63.5252L66.4911 124.851H66.5934L69.5593 117.607H70.8207V126.334H69.832V119.703H69.7468L67.0195 126.334H66.065L63.3377 119.703H63.2525V126.334H62.2638V117.607ZM75.8885 117.198L73.076 127.646H72.1555L74.968 117.198H75.8885ZM77.0636 126.334V125.567L79.9442 122.414C80.2823 122.044 80.5607 121.723 80.7795 121.45C80.9982 121.175 81.1602 120.916 81.2653 120.675C81.3732 120.431 81.4272 120.175 81.4272 119.908C81.4272 119.601 81.3533 119.335 81.2056 119.111C81.0607 118.887 80.8619 118.713 80.609 118.591C80.3562 118.469 80.0721 118.408 79.7567 118.408C79.4215 118.408 79.1289 118.477 78.8789 118.617C78.6317 118.753 78.44 118.945 78.3036 119.192C78.1701 119.439 78.1033 119.729 78.1033 120.061H77.0977C77.0977 119.55 77.2156 119.101 77.4513 118.715C77.6871 118.328 78.0082 118.027 78.4144 117.811C78.8235 117.595 79.2823 117.487 79.7908 117.487C80.3022 117.487 80.7553 117.595 81.1502 117.811C81.5451 118.027 81.8548 118.318 82.0792 118.685C82.3036 119.051 82.4158 119.459 82.4158 119.908C82.4158 120.229 82.3576 120.543 82.2411 120.85C82.1275 121.154 81.9286 121.493 81.6445 121.868C81.3633 122.24 80.9727 122.695 80.4727 123.232L78.5124 125.328V125.396H82.5692V126.334H77.0636ZM85.0792 126.402C84.869 126.402 84.6886 126.327 84.538 126.176C84.3874 126.026 84.3121 125.845 84.3121 125.635C84.3121 125.425 84.3874 125.244 84.538 125.094C84.6886 124.943 84.869 124.868 85.0792 124.868C85.2894 124.868 85.4698 124.943 85.6204 125.094C85.771 125.244 85.8462 125.425 85.8462 125.635C85.8462 125.774 85.8107 125.902 85.7397 126.019C85.6715 126.135 85.5792 126.229 85.4627 126.3C85.3491 126.368 85.2212 126.402 85.0792 126.402ZM87.7308 126.334L91.6342 118.612V118.544H87.1342V117.607H92.7251V118.595L88.8388 126.334H87.7308ZM96.9237 126.453C96.4237 126.453 95.9734 126.354 95.5728 126.155C95.1722 125.956 94.8512 125.683 94.6097 125.337C94.3683 124.99 94.2362 124.595 94.2134 124.152H95.2362C95.2759 124.547 95.4549 124.874 95.7731 125.132C96.0941 125.388 96.4776 125.516 96.9237 125.516C97.2816 125.516 97.5998 125.432 97.8782 125.264C98.1594 125.097 98.3796 124.867 98.5387 124.574C98.7006 124.279 98.7816 123.945 98.7816 123.573C98.7816 123.192 98.6978 122.852 98.5302 122.554C98.3654 122.253 98.1381 122.016 97.8484 121.843C97.5586 121.669 97.2276 121.581 96.8555 121.578C96.5884 121.575 96.3143 121.617 96.033 121.702C95.7518 121.784 95.5202 121.891 95.3384 122.021L94.3498 121.902L94.8782 117.607H99.4123V118.544H95.7646L95.4577 121.118H95.5089C95.6879 120.976 95.9123 120.858 96.1822 120.764C96.4521 120.671 96.7333 120.624 97.0259 120.624C97.56 120.624 98.0359 120.752 98.4535 121.007C98.8739 121.26 99.2035 121.607 99.4421 122.047C99.6836 122.487 99.8043 122.99 99.8043 123.556C99.8043 124.112 99.6793 124.61 99.4293 125.047C99.1822 125.482 98.8413 125.825 98.4066 126.078C97.9719 126.328 97.4776 126.453 96.9237 126.453ZM106.082 117.607V126.334H105.026V117.607H106.082ZM115.122 117.607V126.334H114.099L109.343 119.482H109.258V126.334H108.201V117.607H109.224L113.997 124.476H114.082V117.607H115.122Z" fill="black"/>
</svg>
