<svg width="165" height="80" viewBox="0 0 165 80" fill="none" xmlns="http://www.w3.org/2000/svg">
<path d="M29.9745 1.2522L19.4628 34.9903H10.5582L0 1.2522H6.41264L14.1699 28.0298H16.0717L23.7912 1.2522H29.9745ZM33.3782 2.93178C33.3782 1.31238 34.6866 0 36.2997 0C37.9128 0 39.2211 1.31267 39.2211 2.93178C39.2211 4.5509 37.9131 5.86357 36.2997 5.86357C34.6863 5.86357 33.3782 4.5506 33.3782 2.93178ZM33.4593 34.99V10.6666H39.1404V34.99H33.4593ZM50.0861 32.0477L50.0404 34.9903H45.0008V0H50.6825V7.31009C50.6825 9.19514 50.6368 11.2182 50.545 13.0574C52.2859 11.2182 55.0351 10.2066 57.9214 10.2066C64.4733 10.2066 69.9716 15.3566 69.9716 22.8511C69.9716 30.2539 64.4733 35.4497 57.9214 35.4497C54.7598 35.4497 51.7817 34.2081 50.0869 32.0468L50.0864 32.0474L50.0861 32.0477ZM57.1881 30.2084C61.2661 30.2084 64.2442 27.2194 64.2442 22.8516C64.2442 18.4375 61.2661 15.4488 57.1881 15.4488C53.2936 15.4488 50.2698 18.1616 50.2698 22.8516C50.2698 27.4953 53.2936 30.2084 57.1881 30.2084ZM74.6816 10.6695H80.3627V11.9584C80.3337 12.1751 80.3191 12.2919 80.2712 12.6441C81.6462 11.035 85.064 10.1154 87.6753 10.1154C87.8573 10.1154 88.0383 10.1198 88.2185 10.1283C88.2185 12.0485 88.2185 14.3302 88.2185 15.7972H86.1169C83.2303 15.7972 80.3621 17.2881 80.3621 20.7828V34.9903H74.681V10.6695H74.6816ZM90.4347 22.8519C90.4347 15.3572 95.8874 10.2072 102.485 10.2072C105.646 10.2072 108.578 11.4025 110.319 13.6101L110.365 10.6672H115.405V34.9906H110.365L110.319 32.0477C108.578 34.2547 105.646 35.4506 102.485 35.4506C95.8871 35.4506 90.4347 30.2545 90.4347 22.8519ZM103.218 30.2087C107.067 30.2087 110.136 27.4956 110.136 22.8519C110.136 18.1616 107.066 15.4491 103.218 15.4491C99.1399 15.4491 96.1161 18.4378 96.1161 22.8519C96.1161 27.22 99.1399 30.2087 103.218 30.2087ZM121.268 10.6695H126.949V11.9584C126.92 12.1751 126.906 12.2919 126.858 12.6441C128.233 11.035 131.651 10.1154 134.262 10.1154C139.623 10.1154 144.049 13.8861 144.049 20.4148V34.9906H138.367V20.7831C138.367 17.2887 135.545 15.4494 132.704 15.4494C129.818 15.4494 126.949 17.2887 126.949 20.7831V34.9906H121.268V10.6695ZM153.139 15.7781H147.587V10.6282H153.139V1.73829H158.821V10.6282H164.42V15.7781H158.821L158.776 34.9906H153.094L153.139 15.7781ZM29.7575 45.7101V79.4482H23.8032V65.0611H8.64407V79.4476H2.68919V45.7098H8.64378V59.3613H23.8029V45.7098H29.7572L29.7575 45.7101ZM34.8196 67.3556C34.8196 59.9064 40.1346 54.6187 47.1448 54.6187C53.5591 54.6187 59.3321 58.9867 58.7822 68.5505H40.1346C40.5926 72.4131 43.4792 75.0798 47.6028 75.0798C50.6266 75.0798 53.1926 73.655 54.9792 71.0338L58.7366 74.0225C56.3539 77.4712 52.5968 80 47.4656 80C39.9055 80 34.8196 74.666 34.8196 67.3556ZM53.422 64.4584C52.7343 61.0555 50.3063 59.3084 47.0991 59.3084C43.7082 59.3084 41.1428 61.4233 40.3179 64.4584H53.422ZM62.5308 67.3098C62.5308 59.8151 67.9835 54.6651 74.581 54.6651C77.7425 54.6651 80.6745 55.8603 82.4154 58.068L82.4611 55.125H87.501V79.4485H82.4611L82.4154 76.5055C80.6745 78.7126 77.742 79.9084 74.581 79.9084C67.9832 79.9084 62.5308 74.7123 62.5308 67.3098ZM75.314 74.6665C79.1626 74.6665 82.232 71.9534 82.232 67.3098C82.232 62.6195 79.1623 59.907 75.314 59.907C71.236 59.907 68.2122 62.8957 68.2122 67.3098C68.2122 71.6778 71.236 74.6665 75.314 74.6665ZM93.3646 44.4578H99.0458V79.4482H93.3646V44.4578ZM108.474 60.236H102.922V55.086H108.474V46.1961H114.156V55.086H119.755V60.236H114.156L114.11 79.4485H108.429L108.474 60.236ZM123.621 44.4578H129.302L129.211 57.102C130.585 55.4925 134.003 54.5729 136.615 54.5729C141.975 54.5729 146.401 58.3436 146.401 64.8723V79.4482H140.719V65.2407C140.719 61.7465 137.897 59.907 135.057 59.907C132.17 59.907 129.302 61.7465 129.302 65.2407V79.4482H123.621V44.4578Z" fill="black"/>
</svg>
