<svg width="375" height="61" viewBox="0 0 375 61" fill="none" xmlns="http://www.w3.org/2000/svg">
<path d="M106.031 25.9299L96.8674 55.2365H89.1057L79.9032 25.9299H85.4937L92.2559 49.1884H93.9142L100.644 25.9299H106.033H106.031ZM108.998 27.3891C108.998 25.9833 110.14 24.8422 111.545 24.8422C112.951 24.8422 114.092 25.9833 114.092 27.3891C114.092 28.7949 112.951 29.936 111.545 29.936C110.14 29.936 108.998 28.7949 108.998 27.3891ZM109.068 55.2344V34.1062H114.02V55.2344H109.068ZM123.563 52.6794L123.524 55.2365H119.131V24.8422H124.083V31.192C124.083 32.8297 124.044 34.5864 123.964 36.1852C125.48 34.5864 127.877 33.7081 130.393 33.7081C136.105 33.7081 140.897 38.182 140.897 44.6919C140.897 51.2017 136.105 55.6346 130.393 55.6346C127.637 55.6346 125.041 54.5572 123.563 52.6794ZM129.753 51.0806C133.308 51.0806 135.904 48.4845 135.904 44.6898C135.904 40.8952 133.308 38.26 129.753 38.26C126.199 38.26 123.724 40.616 123.724 44.6898C123.724 48.7636 126.359 51.0806 129.753 51.0806ZM145.004 34.1103H149.956V35.2288C149.931 35.4176 149.917 35.5182 149.876 35.824C151.074 34.4264 154.054 33.628 156.33 33.628C156.488 33.628 156.646 33.6321 156.804 33.6403C156.804 35.3088 156.804 37.2893 156.804 38.5638H154.972C152.456 38.5638 149.956 39.8588 149.956 42.8941V55.2344H145.004V34.1083V34.1103ZM158.735 44.6919C158.735 38.182 163.489 33.7081 169.239 33.7081C171.995 33.7081 174.55 34.7465 176.069 36.6634L176.108 34.1062H180.502V55.2344H176.108L176.069 52.6773C174.552 54.5941 171.995 55.6326 169.239 55.6326C163.489 55.6326 158.735 51.1196 158.735 44.6898V44.6919ZM169.879 51.0827C173.235 51.0827 175.911 48.7267 175.911 44.6919C175.911 40.6571 173.235 38.2621 169.879 38.2621C166.325 38.2621 163.69 40.8582 163.69 44.6919C163.69 48.5255 166.325 51.0827 169.879 51.0827ZM185.614 34.1103H190.566V35.2288C190.542 35.4176 190.527 35.5182 190.486 35.824C191.685 34.4264 194.665 33.628 196.941 33.628C201.614 33.628 205.472 36.9035 205.472 42.5739V55.2344H200.52V42.8941C200.52 39.8588 198.059 38.2621 195.584 38.2621C193.109 38.2621 190.568 39.8608 190.568 42.8941V55.2344H185.616V34.1083L185.614 34.1103ZM213.396 38.5473H208.557V34.0734H213.396V26.3506H218.348V34.0734H223.228V38.5473H218.348L218.309 55.2365H213.357L213.396 38.5473ZM264.096 25.9299V55.2365H258.905V42.7402H245.691V55.2365H240.5V25.932H245.691V37.7901H258.905V25.932H264.096V25.9299ZM268.51 44.7309C268.51 38.26 273.142 33.667 279.254 33.667C284.846 33.667 289.878 37.4617 289.398 45.7693H273.142C273.542 49.1248 276.058 51.4398 279.652 51.4398C282.287 51.4398 284.524 50.2023 286.082 47.9263L289.357 50.5224C287.28 53.5187 284.005 55.7147 279.533 55.7147C272.943 55.7147 268.51 51.0806 268.51 44.7309ZM284.725 42.2148C284.126 39.2595 282.01 37.7408 279.213 37.7408C276.257 37.7408 274.02 39.5776 273.302 42.2148H284.725ZM292.665 44.6919C292.665 38.182 297.418 33.7081 303.169 33.7081C305.925 33.7081 308.48 34.7465 309.999 36.6634L310.038 34.1062H314.432V55.2344H310.038L309.999 52.6773C308.482 54.5941 305.925 55.6326 303.169 55.6326C297.418 55.6326 292.665 51.1196 292.665 44.6898V44.6919ZM303.809 51.0827C307.165 51.0827 309.841 48.7267 309.841 44.6919C309.841 40.6571 307.165 38.2621 303.809 38.2621C300.255 38.2621 297.62 40.8582 297.62 44.6919C297.62 48.5255 300.255 51.0827 303.809 51.0827ZM319.544 24.8422H324.496V55.2365H319.544V24.8422ZM332.716 38.5473H327.876V34.0734H332.716V26.3506H337.668V34.0734H342.548V38.5473H337.668L337.629 55.2365H332.677L332.716 38.5473ZM345.92 24.8422H350.872L350.792 35.826C351.991 34.4284 354.969 33.6301 357.247 33.6301C361.92 33.6301 365.778 36.9055 365.778 42.576V55.2365H360.826V42.8961C360.826 39.8608 358.365 38.2641 355.89 38.2641C353.415 38.2641 350.874 39.8608 350.874 42.8961V55.2365H345.922V24.8422H345.92ZM72.398 44.3881C71.0169 42.3317 68.6075 41.1312 66.233 41.1927C65.8349 41.2051 65.3936 41.2605 65.0447 41.2851C63.5425 41.3733 60.9751 41.2523 59.3558 39.3539C59.3558 39.3539 55.871 34.6685 55.8649 34.6583C54.4652 32.448 55.358 29.5542 55.8833 28.2593C55.9839 28.0417 56.1809 27.5882 56.1809 27.5882C58.4507 21.8541 54.4714 14.8517 47.1509 15.3135C40.2183 15.7485 37.2363 23.1162 39.9227 28.485C40.3558 29.4434 41.7985 33.2853 39.502 37.5356L38.5457 39.0727C37.4723 40.6735 32.2739 47.3106 27.0919 34.7917L14.5093 4.63544C11.0923 -4.22837 -3.33731 0.633489 0.70979 10.6794L18.7268 53.8799C19.6606 56.0841 20.541 58.4134 22.6692 59.8028C25.4767 61.6376 29.6511 61.1081 31.8737 58.7644C32.4976 58.1076 32.8403 57.4017 32.9922 57.0938C34.045 54.9143 39.2332 41.361 40.0028 39.7048C40.3763 38.8983 40.5117 38.5802 40.717 38.2292C43.1674 34.0672 46.8677 33.3571 48.372 33.2155C49.5746 33.1026 52.7823 32.9631 54.6171 35.2062L58.1244 39.8936C59.3661 41.6052 59.8258 45.2686 59.481 47.1341C59.0397 49.5147 60.0207 52.312 62.0525 53.8389C67.1586 57.6972 73.9352 53.765 73.5637 47.9119C73.4981 46.8858 73.1492 45.4984 72.398 44.3799V44.3881Z" fill="black"/>
<path d="M373.21 51.4692C373.21 50.8551 372.804 50.5134 372.153 50.5134H370.883V53.7457H371.451V52.3881H371.723L372.513 53.7457H373.21L372.365 52.365C372.891 52.2911 373.21 51.9403 373.21 51.4692ZM372.125 51.9356H371.451V51.0121H372.125C372.439 51.0121 372.623 51.1875 372.623 51.4692C372.623 51.751 372.439 51.9356 372.125 51.9356Z" fill="black"/>
<path d="M371.922 49.1666C370.221 49.1666 368.843 50.5449 368.843 52.245C368.843 53.9451 370.221 55.3234 371.922 55.3234C373.622 55.3234 375 53.9451 375 52.245C375 50.5449 373.622 49.1666 371.922 49.1666ZM371.922 54.8233C370.498 54.8233 369.343 53.6689 369.343 52.245C369.343 50.8211 370.498 49.6667 371.922 49.6667C373.346 49.6667 374.5 50.8211 374.5 52.245C374.5 53.6689 373.346 54.8233 371.922 54.8233Z" fill="black"/>
</svg>
