<svg xmlns="http://www.w3.org/2000/svg" width="1440" height="160" fill="none" viewBox="0 0 1440 160"><path fill="#002c4e" d="M0 0h1440v40H0z"/><path fill="#fff" d="M622.166 15.27v1.302h-4.13v2.87h3.22v1.302h-3.22V25h-1.596v-9.73zm3.075 3.136q.35-.588.924-.91.588-.336 1.386-.336v1.652h-.406q-.939 0-1.428.476-.476.476-.476 1.652V25h-1.596v-7.714h1.596zm10.847 2.548q0 .434-.056.784h-5.894q.07.923.686 1.484.615.56 1.512.56 1.287 0 1.82-1.078h1.722a3.5 3.5 0 0 1-1.274 1.75q-.91.672-2.268.672-1.107 0-1.988-.49a3.66 3.66 0 0 1-1.372-1.4q-.49-.91-.49-2.1t.476-2.086a3.44 3.44 0 0 1 1.358-1.4q.882-.49 2.016-.49 1.091 0 1.946.476a3.36 3.36 0 0 1 1.33 1.344q.476.854.476 1.974m-1.666-.504q-.015-.883-.63-1.414-.617-.532-1.526-.532-.826 0-1.414.532-.589.518-.7 1.414zm10.306.504q0 .434-.056.784h-5.894q.07.923.686 1.484t1.512.56q1.289 0 1.82-1.078h1.722a3.5 3.5 0 0 1-1.274 1.75q-.909.672-2.268.672-1.106 0-1.988-.49a3.67 3.67 0 0 1-1.372-1.4q-.49-.91-.49-2.1t.476-2.086a3.45 3.45 0 0 1 1.358-1.4q.882-.49 2.016-.49 1.092 0 1.946.476.855.476 1.33 1.344.476.854.476 1.974m-1.666-.504q-.013-.883-.63-1.414-.615-.532-1.526-.532-.826 0-1.414.532-.588.518-.7 1.414zm10.08 4.648q-.981 0-1.764-.336-.785-.35-1.232-.98-.448-.63-.448-1.47h1.708q.055.63.49 1.036.447.406 1.246.406.825 0 1.288-.392.462-.405.462-1.036 0-.49-.294-.798a1.85 1.85 0 0 0-.714-.476q-.42-.168-1.176-.364a12 12 0 0 1-1.554-.504 2.6 2.6 0 0 1-1.008-.812q-.42-.547-.42-1.456 0-.84.42-1.47t1.176-.966 1.75-.336q1.413 0 2.31.714.909.7 1.008 1.932h-1.764q-.042-.532-.504-.91t-1.218-.378q-.687 0-1.12.35t-.434 1.008q0 .448.266.742.28.28.7.448t1.148.364q.966.266 1.568.532.615.266 1.036.826.434.546.434 1.47 0 .742-.406 1.4-.393.658-1.162 1.064-.756.392-1.792.392m9.233-7.938q.882 0 1.568.378.7.378 1.092 1.12.406.742.406 1.792V25h-1.582v-4.312q0-1.035-.518-1.582-.518-.56-1.414-.56t-1.428.56q-.518.546-.518 1.582V25h-1.596V14.64h1.596v3.542a2.7 2.7 0 0 1 1.022-.756 3.5 3.5 0 0 1 1.372-.266m5.914-.896a.99.99 0 0 1-.728-.294 1 1 0 0 1-.294-.728q0-.434.294-.728a.99.99 0 0 1 .728-.294q.42 0 .714.294a1 1 0 0 1 .294.728q0 .434-.294.728a.97.97 0 0 1-.714.294m.784 1.022V25h-1.596v-7.714zm3.691 1.134q.406-.532 1.106-.896a3.4 3.4 0 0 1 1.582-.364q1.008 0 1.834.504.84.49 1.316 1.386t.476 2.058-.476 2.086a3.6 3.6 0 0 1-1.316 1.428 3.45 3.45 0 0 1-1.834.504q-.882 0-1.568-.35a3.6 3.6 0 0 1-1.12-.896v4.788h-1.596V17.286h1.596zm4.69 2.688q0-.798-.336-1.372a2.14 2.14 0 0 0-.868-.882 2.25 2.25 0 0 0-1.148-.308q-.602 0-1.148.308a2.36 2.36 0 0 0-.868.896q-.322.588-.322 1.386t.322 1.4q.336.588.868.896.546.308 1.148.308.616 0 1.148-.308a2.3 2.3 0 0 0 .868-.924q.336-.602.336-1.4m4.798-2.688q.407-.532 1.106-.896a3.4 3.4 0 0 1 1.582-.364 3.45 3.45 0 0 1 1.834.504q.84.49 1.316 1.386t.476 2.058-.476 2.086a3.6 3.6 0 0 1-1.316 1.428 3.45 3.45 0 0 1-1.834.504q-.881 0-1.568-.35a3.6 3.6 0 0 1-1.12-.896v4.788h-1.596V17.286h1.596zm4.69 2.688q0-.798-.336-1.372a2.13 2.13 0 0 0-.868-.882 2.25 2.25 0 0 0-1.148-.308q-.602 0-1.148.308a2.36 2.36 0 0 0-.868.896q-.322.588-.322 1.386t.322 1.4q.337.588.868.896.546.308 1.148.308a2.25 2.25 0 0 0 1.148-.308q.547-.322.868-.924.336-.602.336-1.4m4.015-4.844a.99.99 0 0 1-.728-.294 1 1 0 0 1-.294-.728q0-.434.294-.728a.99.99 0 0 1 .728-.294q.42 0 .714.294a1 1 0 0 1 .294.728q0 .434-.294.728a.97.97 0 0 1-.714.294m.784 1.022V25h-1.596v-7.714zm5.987-.126q.91 0 1.624.378.728.378 1.134 1.12t.406 1.792V25h-1.582v-4.312q0-1.035-.518-1.582-.518-.56-1.414-.56t-1.428.56q-.518.546-.518 1.582V25h-1.596v-7.714h1.596v.882q.392-.476.994-.742a3.25 3.25 0 0 1 1.302-.266m8.308 0q.896 0 1.582.364.7.35 1.092.882v-1.12h1.61v7.84q0 1.065-.448 1.89-.448.84-1.302 1.316-.84.476-2.016.476-1.567 0-2.604-.742a2.69 2.69 0 0 1-1.176-1.988h1.582q.182.601.77.966.601.378 1.428.378.966 0 1.554-.588.602-.588.602-1.708v-1.288q-.406.546-1.106.924-.686.364-1.568.364a3.5 3.5 0 0 1-1.848-.504 3.74 3.74 0 0 1-1.316-1.428q-.476-.924-.476-2.086t.476-2.058a3.56 3.56 0 0 1 3.164-1.89m2.674 3.976q0-.798-.336-1.386a2.26 2.26 0 0 0-.854-.896 2.25 2.25 0 0 0-1.148-.308q-.616 0-1.148.308-.532.294-.868.882-.322.574-.322 1.372t.322 1.4q.336.602.868.924.546.308 1.148.308.616 0 1.148-.308t.854-.896q.336-.602.336-1.4m10.689 3.99a4 4 0 0 1-1.974-.49 3.63 3.63 0 0 1-1.386-1.4q-.504-.91-.504-2.1 0-1.177.518-2.086a3.6 3.6 0 0 1 1.414-1.4 4.1 4.1 0 0 1 2.002-.49q1.106 0 2.002.49a3.6 3.6 0 0 1 1.414 1.4q.518.91.518 2.086 0 1.177-.532 2.086a3.7 3.7 0 0 1-1.456 1.414 4.2 4.2 0 0 1-2.016.49m0-1.386q.616 0 1.148-.294.546-.294.882-.882t.336-1.428-.322-1.414a2.16 2.16 0 0 0-.854-.882 2.34 2.34 0 0 0-1.148-.294q-.616 0-1.148.294-.518.294-.826.882-.308.574-.308 1.414 0 1.246.63 1.932.644.672 1.61.672m9.474-6.58q.91 0 1.624.378.728.378 1.134 1.12t.406 1.792V25h-1.582v-4.312q0-1.035-.518-1.582-.519-.56-1.414-.56-.897 0-1.428.56-.519.546-.518 1.582V25h-1.596v-7.714h1.596v.882q.391-.476.994-.742.615-.266 1.302-.266m13.274 7.938q-1.357 0-2.506-.63a4.85 4.85 0 0 1-1.806-1.778q-.658-1.148-.658-2.576t.658-2.562a4.75 4.75 0 0 1 1.806-1.764 5.04 5.04 0 0 1 2.506-.644q1.372 0 2.506.644a4.6 4.6 0 0 1 1.806 1.764q.658 1.134.658 2.562t-.658 2.576a4.7 4.7 0 0 1-1.806 1.778q-1.134.63-2.506.63m0-1.386q.966 0 1.722-.434a3.07 3.07 0 0 0 1.176-1.26q.434-.825.434-1.904t-.434-1.89a2.98 2.98 0 0 0-1.176-1.246q-.756-.434-1.722-.434t-1.722.434q-.755.435-1.19 1.246-.42.811-.42 1.89t.42 1.904q.434.811 1.19 1.26.756.434 1.722.434m8.137-5.306q.35-.588.924-.91.588-.336 1.386-.336v1.652h-.406q-.939 0-1.428.476-.476.476-.476 1.652V25h-1.596v-7.714h1.596zm3.245 2.702q0-1.162.476-2.058a3.55 3.55 0 0 1 3.178-1.89q.756 0 1.484.336.741.322 1.176.868V14.64h1.61V25h-1.61v-1.162q-.393.56-1.092.924-.687.364-1.582.364a3.5 3.5 0 0 1-1.848-.504 3.73 3.73 0 0 1-1.316-1.428q-.476-.924-.476-2.086m6.314.028q0-.798-.336-1.386-.323-.588-.854-.896a2.26 2.26 0 0 0-1.148-.308 2.25 2.25 0 0 0-1.148.308q-.532.294-.868.882-.322.574-.322 1.372t.322 1.4q.336.602.868.924a2.3 2.3 0 0 0 2.296 0q.531-.308.854-.896.336-.602.336-1.4m10.776-.182q0 .434-.056.784h-5.894q.07.923.686 1.484t1.512.56q1.288 0 1.82-1.078h1.722a3.5 3.5 0 0 1-1.274 1.75q-.91.672-2.268.672-1.106 0-1.988-.49a3.66 3.66 0 0 1-1.372-1.4q-.49-.91-.49-2.1t.476-2.086a3.44 3.44 0 0 1 1.358-1.4q.882-.49 2.016-.49 1.092 0 1.946.476a3.35 3.35 0 0 1 1.33 1.344q.476.854.476 1.974m-1.666-.504q-.014-.883-.63-1.414-.616-.532-1.526-.532-.826 0-1.414.532-.588.518-.7 1.414zm4.833-2.044q.35-.588.924-.91.588-.336 1.386-.336v1.652h-.406q-.939 0-1.428.476-.476.476-.476 1.652V25h-1.596v-7.714h1.596zm6.577 6.72q-.91 0-1.638-.322a2.96 2.96 0 0 1-1.134-.896 2.26 2.26 0 0 1-.448-1.274h1.652q.042.49.462.826.433.322 1.078.322.672 0 1.036-.252.378-.266.378-.672 0-.434-.42-.644-.407-.21-1.302-.462a13 13 0 0 1-1.414-.462 2.5 2.5 0 0 1-.952-.686q-.392-.462-.392-1.218 0-.616.364-1.12.363-.518 1.036-.812.686-.294 1.568-.294 1.316 0 2.114.672.811.658.868 1.806h-1.596a1.14 1.14 0 0 0-.42-.826q-.378-.308-1.022-.308-.63 0-.966.238a.74.74 0 0 0-.336.63.68.68 0 0 0 .224.518q.223.21.546.336.322.112.952.294a9.3 9.3 0 0 1 1.372.462q.546.224.938.672t.406 1.19a2 2 0 0 1-.364 1.176q-.364.518-1.036.812-.658.294-1.554.294m14.881-2.898q0 .7-.35 1.316-.336.616-1.008 1.036-.658.42-1.568.504v1.134h-.91v-1.134q-1.316-.127-2.128-.826-.812-.7-.812-1.848h1.708q.042.546.35.91.308.35.882.448v-3.08a12 12 0 0 1-1.526-.476 2.56 2.56 0 0 1-1.008-.784q-.406-.532-.406-1.456 0-1.162.812-1.918.812-.77 2.128-.896v-1.134h.91v1.134q1.232.112 1.974.784.756.658.854 1.82h-1.708a1.34 1.34 0 0 0-.336-.77 1.47 1.47 0 0 0-.784-.476v3.024q.938.224 1.526.476.588.238.994.77.406.518.406 1.442m-5.152-4.34q0 .574.336.896.35.322.98.518v-2.828q-.601.07-.966.434-.35.365-.35.98m2.226 5.88q.616-.098.966-.49.35-.406.35-.966t-.35-.868q-.336-.322-.966-.518zm11.835-7.602h-4.69v2.786q.294-.391.868-.658a3 3 0 0 1 1.246-.266q1.176 0 1.904.504.743.504 1.05 1.274.322.77.322 1.624 0 1.036-.406 1.848a2.9 2.9 0 0 1-1.19 1.26q-.783.462-1.932.462-1.526 0-2.45-.756t-1.106-2.002h1.554q.155.659.686 1.05.532.378 1.33.378.995 0 1.484-.602.504-.601.504-1.596 0-1.008-.504-1.54-.504-.546-1.484-.546-.685 0-1.162.35a1.9 1.9 0 0 0-.672.924h-1.512v-5.894h6.16zm8.942 0h-4.69v2.786q.294-.391.868-.658a3 3 0 0 1 1.246-.266q1.176 0 1.904.504.741.504 1.05 1.274a4.2 4.2 0 0 1 .322 1.624q0 1.036-.406 1.848a2.93 2.93 0 0 1-1.19 1.26q-.785.462-1.932.462-1.526 0-2.45-.756t-1.106-2.002h1.554q.153.659.686 1.05.532.378 1.33.378.993 0 1.484-.602.504-.601.504-1.596 0-1.008-.504-1.54-.504-.546-1.484-.546-.687 0-1.162.35a1.9 1.9 0 0 0-.672.924h-1.512v-5.894h6.16zm10.089 4.452h-2.828v2.898h-1.484v-2.898h-2.828v-1.344h2.828v-2.898h1.484v2.898h2.828zM1185.55 24.144c-.7 0-1.31-.16-1.81-.48-.51-.328-.89-.808-1.17-1.44q-.39-.96-.39-2.364t.39-2.376c.28-.656.66-1.152 1.17-1.488.5-.344 1.11-.516 1.81-.516s1.28.16 1.76.48.86.772 1.12 1.356l-.82.492a2.24 2.24 0 0 0-.76-1.032c-.35-.264-.78-.396-1.3-.396-.72 0-1.28.264-1.69.792q-.6.78-.6 2.064v1.248q0 1.284.6 2.028c.41.488.97.732 1.69.732.54 0 .98-.136 1.34-.408.36-.28.63-.648.8-1.104l.8.504a3.3 3.3 0 0 1-1.15 1.392c-.5.344-1.09.516-1.79.516m6.75 0c-.56 0-1.04-.132-1.47-.396a2.86 2.86 0 0 1-.98-1.128c-.23-.488-.35-1.06-.35-1.716s.12-1.224.35-1.704c.24-.488.57-.864.98-1.128.43-.272.91-.408 1.47-.408a2.617 2.617 0 0 1 2.43 1.536q.36.72.36 1.704t-.36 1.716c-.23.48-.56.856-.98 1.128-.42.264-.9.396-1.45.396m0-.852c.52 0 .94-.16 1.27-.48s.49-.808.49-1.464v-.888c0-.656-.16-1.144-.49-1.464s-.75-.48-1.27-.48-.94.16-1.28.48c-.32.32-.49.808-.49 1.464v.888c0 .656.17 1.144.49 1.464.34.32.76.48 1.28.48m5.33.708h-.96v-6.192h.96v1.008h.05q.225-.528.63-.84c.28-.208.66-.312 1.12-.312.64 0 1.14.208 1.51.624q.57.612.57 1.74V24h-.96v-3.804q0-.828-.36-1.248c-.24-.28-.58-.42-1.05-.42-.25 0-.5.044-.73.132-.23.08-.42.208-.56.384-.15.176-.22.396-.22.66zm8.43 0h-1.2c-.33 0-.58-.096-.76-.288a1.07 1.07 0 0 1-.26-.732v-4.332h-1.02v-.84h.57q.315 0 .42-.12.12-.132.12-.444v-1.152h.87v1.716h1.35v.84h-1.35v4.512h1.26zm6.68 0h-.54q-.39 0-.63-.156a.92.92 0 0 1-.34-.456 1.7 1.7 0 0 1-.11-.66v-.084l.37.348h-.42c-.13.376-.35.664-.67.864-.31.192-.69.288-1.12.288-.65 0-1.17-.168-1.53-.504q-.54-.504-.54-1.368c0-.392.09-.72.28-.984.2-.272.48-.476.87-.612.39-.144.89-.216 1.49-.216h1.22v-.612q0-.66-.36-1.008c-.24-.232-.61-.348-1.1-.348-.37 0-.68.084-.94.252s-.47.392-.64.672l-.57-.54c.17-.328.43-.612.8-.852s.83-.36 1.39-.36q1.125 0 1.74.552c.43.368.64.88.64 1.536v3.408h.71zm-1.67-2.82h-1.27q-.825 0-1.2.24a.77.77 0 0 0-.39.696v.252c0 .304.12.54.34.708s.52.252.89.252q.48 0 .84-.144.375-.156.57-.408a.86.86 0 0 0 .22-.576zm5.34 2.964q-1.305 0-2.04-.876-.72-.876-.72-2.364t.72-2.364q.735-.876 2.04-.876c.62 0 1.11.136 1.49.408s.65.62.83 1.044l-.81.408c-.11-.32-.3-.568-.56-.744s-.57-.264-.95-.264q-.855 0-1.29.528c-.29.344-.44.788-.44 1.332v1.056c0 .536.15.98.44 1.332q.435.528 1.29.528c.39 0 .73-.092 1.01-.276s.5-.452.67-.804l.7.468q-.3.66-.9 1.068c-.39.264-.89.396-1.48.396m6.3-.144h-1.2q-.495 0-.75-.288a1.03 1.03 0 0 1-.27-.732v-4.332h-1.02v-.84h.58q.315 0 .42-.12.12-.132.12-.444v-1.152h.86v1.716h1.36v.84h-1.36v4.512h1.26zm5.75 1.656h-.82V14.88h.82zm7.78-1.512q-1.005 0-1.74-.384a3.8 3.8 0 0 1-1.22-1.08l.74-.624q.45.588.99.9c.36.2.78.3 1.27.3.6 0 1.06-.144 1.37-.432q.48-.432.48-1.152c0-.264-.05-.488-.16-.672-.1-.184-.27-.336-.5-.456a3.2 3.2 0 0 0-.89-.312l-.68-.156q-.765-.18-1.29-.468c-.35-.192-.62-.44-.8-.744-.19-.304-.28-.668-.28-1.092 0-.496.12-.912.35-1.248.23-.344.56-.604.97-.78.43-.176.91-.264 1.45-.264q.96 0 1.62.348c.46.232.84.572 1.16 1.02l-.76.552q-.33-.48-.84-.756c-.33-.184-.74-.276-1.22-.276-.54 0-.96.116-1.28.348q-.45.348-.45 1.02c0 .264.05.484.17.66s.29.324.52.444c.24.112.53.208.88.288l.68.156c.55.12.99.284 1.34.492q.51.312.75.768c.17.304.25.664.25 1.08 0 .512-.11.956-.34 1.332-.24.376-.57.668-1 .876-.42.208-.94.312-1.54.312m7.1-.144h-1.2c-.33 0-.58-.096-.76-.288s-.26-.436-.26-.732v-4.332h-1.02v-.84h.57q.315 0 .42-.12.12-.132.12-.444v-1.152h.87v1.716h1.35v.84h-1.35v4.512h1.26zm3.93.144q-.825 0-1.47-.396a2.86 2.86 0 0 1-.98-1.128c-.23-.488-.35-1.06-.35-1.716s.12-1.224.35-1.704c.24-.488.57-.864.98-1.128q.645-.408 1.47-.408a2.617 2.617 0 0 1 2.43 1.536q.36.72.36 1.704t-.36 1.716c-.23.48-.56.856-.98 1.128-.42.264-.9.396-1.45.396m0-.852c.52 0 .94-.16 1.27-.48s.49-.808.49-1.464v-.888c0-.656-.16-1.144-.49-1.464s-.75-.48-1.27-.48c-.51 0-.94.16-1.27.48s-.5.808-.5 1.464v.888c0 .656.17 1.144.5 1.464s.76.48 1.27.48m5.33.708h-.96v-6.192h.96v1.14h.06c.08-.2.19-.384.34-.552.15-.176.35-.316.59-.42.24-.112.53-.168.86-.168h.37v.96h-.56c-.34 0-.64.048-.89.144q-.375.132-.57.36a.8.8 0 0 0-.2.528zm5.72.144q-.84 0-1.47-.396a2.76 2.76 0 0 1-.97-1.128c-.23-.488-.35-1.06-.35-1.716s.12-1.224.35-1.704c.23-.488.56-.864.97-1.128q.63-.408 1.47-.408c.55 0 1.03.132 1.43.396.4.256.7.612.92 1.068s.32.976.32 1.56v.456h-4.45v.288q0 .804.48 1.344c.33.352.78.528 1.36.528q.585 0 1.02-.276c.29-.184.52-.448.68-.792l.69.492c-.2.416-.52.756-.94 1.02s-.93.396-1.51.396m0-5.676c-.35 0-.65.08-.93.24-.26.16-.47.384-.62.672-.15.28-.23.6-.23.96v.084h3.42v-.132c0-.368-.07-.688-.2-.96a1.55 1.55 0 0 0-.58-.636 1.6 1.6 0 0 0-.86-.228M1270.08 24h-4.57v-8.376h1.01v7.488h3.56zm3.57.144q-.825 0-1.47-.396a2.86 2.86 0 0 1-.98-1.128c-.23-.488-.35-1.06-.35-1.716s.12-1.224.35-1.704c.24-.488.57-.864.98-1.128q.645-.408 1.47-.408a2.617 2.617 0 0 1 2.43 1.536q.36.72.36 1.704t-.36 1.716c-.23.48-.56.856-.98 1.128-.42.264-.9.396-1.45.396m0-.852c.52 0 .94-.16 1.27-.48s.49-.808.49-1.464v-.888c0-.656-.16-1.144-.49-1.464s-.75-.48-1.27-.48c-.51 0-.94.16-1.27.48s-.5.808-.5 1.464v.888c0 .656.17 1.144.5 1.464s.76.48 1.27.48m6.68.852q-1.32 0-2.04-.876t-.72-2.364.72-2.364 2.04-.876c.61 0 1.11.136 1.48.408.38.272.66.62.83 1.044l-.8.408q-.165-.48-.57-.744c-.25-.176-.57-.264-.94-.264-.57 0-1 .176-1.3.528-.29.344-.43.788-.43 1.332v1.056c0 .536.14.98.43 1.332.3.352.73.528 1.3.528.39 0 .72-.092 1-.276s.51-.452.68-.804l.69.468q-.3.66-.9 1.068-.585.396-1.47.396m8.77-.144h-.54q-.39 0-.63-.156a.92.92 0 0 1-.34-.456 1.7 1.7 0 0 1-.11-.66v-.084l.37.348h-.42c-.13.376-.35.664-.67.864-.31.192-.69.288-1.12.288-.65 0-1.17-.168-1.53-.504q-.54-.504-.54-1.368c0-.392.09-.72.28-.984.2-.272.48-.476.87-.612.39-.144.89-.216 1.49-.216h1.22v-.612q0-.66-.36-1.008c-.24-.232-.61-.348-1.1-.348-.37 0-.68.084-.94.252s-.47.392-.64.672l-.57-.54c.17-.328.43-.612.8-.852s.83-.36 1.39-.36q1.125 0 1.74.552c.43.368.64.88.64 1.536v3.408h.71zm-1.67-2.82h-1.27q-.825 0-1.2.24a.77.77 0 0 0-.39.696v.252c0 .304.12.54.34.708s.52.252.89.252q.48 0 .84-.144.375-.156.57-.408a.86.86 0 0 0 .22-.576zm5.61 2.82h-1.2c-.33 0-.58-.096-.76-.288s-.26-.436-.26-.732v-4.332h-1.02v-.84h.57q.315 0 .42-.12.12-.132.12-.444v-1.152h.87v1.716h1.35v.84h-1.35v4.512h1.26zm3.93.144q-.825 0-1.47-.396a2.86 2.86 0 0 1-.98-1.128c-.23-.488-.35-1.06-.35-1.716s.12-1.224.35-1.704c.24-.488.57-.864.98-1.128q.645-.408 1.47-.408a2.617 2.617 0 0 1 2.43 1.536q.36.72.36 1.704t-.36 1.716c-.23.48-.56.856-.98 1.128-.42.264-.9.396-1.45.396m0-.852c.52 0 .94-.16 1.27-.48s.49-.808.49-1.464v-.888c0-.656-.16-1.144-.49-1.464s-.75-.48-1.27-.48c-.51 0-.94.16-1.27.48s-.5.808-.5 1.464v.888c0 .656.17 1.144.5 1.464s.76.48 1.27.48m5.33.708h-.96v-6.192h.96v1.14h.06c.07-.2.19-.384.34-.552.15-.176.35-.316.59-.42.24-.112.52-.168.86-.168h.37v.96h-.56c-.35 0-.64.048-.89.144-.25.088-.44.208-.58.36a.84.84 0 0 0-.19.528zm7.56 1.656h-.82V14.88h.82zm7.78-1.512q-1.005 0-1.74-.384a3.7 3.7 0 0 1-1.22-1.08l.74-.624q.45.588.99.9c.36.2.78.3 1.27.3.6 0 1.05-.144 1.37-.432q.48-.432.48-1.152c0-.264-.06-.488-.16-.672s-.27-.336-.5-.456a3.2 3.2 0 0 0-.89-.312l-.69-.156c-.5-.12-.93-.276-1.28-.468s-.62-.44-.8-.744c-.19-.304-.28-.668-.28-1.092 0-.496.12-.912.35-1.248.23-.344.55-.604.97-.78s.91-.264 1.45-.264q.945 0 1.62.348c.46.232.84.572 1.15 1.02l-.75.552q-.345-.48-.84-.756t-1.23-.276c-.53 0-.96.116-1.27.348q-.45.348-.45 1.02c0 .264.05.484.16.66.12.176.3.324.53.444.23.112.53.208.88.288l.68.156c.55.12.99.284 1.33.492.35.208.6.464.76.768.17.304.25.664.25 1.08 0 .512-.11.956-.35 1.332q-.345.564-.99.876c-.43.208-.94.312-1.54.312m4.53 2.256v-8.592h.96v1.008h.04c.16-.392.4-.68.71-.864q.465-.288 1.11-.288c.52 0 .96.132 1.34.396s.66.64.86 1.128c.21.48.32 1.052.32 1.716 0 .656-.11 1.228-.32 1.716-.2.488-.48.864-.86 1.128s-.82.396-1.34.396c-.43 0-.79-.096-1.1-.288q-.435-.288-.72-.864h-.04V26.4zm2.55-3.12c.55 0 .97-.168 1.29-.504.31-.344.46-.792.46-1.344v-1.056c0-.552-.15-.996-.46-1.332-.32-.344-.74-.516-1.29-.516-.29 0-.55.052-.8.156-.24.104-.43.244-.58.42a.96.96 0 0 0-.21.612v2.304q0 .396.21.684c.15.184.34.328.58.432.25.096.51.144.8.144m6.74.864q-.84 0-1.47-.396a2.76 2.76 0 0 1-.97-1.128c-.23-.488-.35-1.06-.35-1.716s.12-1.224.35-1.704c.23-.488.56-.864.97-1.128q.63-.408 1.47-.408c.55 0 1.02.132 1.42.396q.6.384.93 1.068c.21.456.32.976.32 1.56v.456h-4.45v.288q0 .804.48 1.344c.33.352.78.528 1.36.528q.585 0 1.02-.276c.29-.184.52-.448.68-.792l.68.492q-.3.624-.93 1.02c-.43.264-.93.396-1.51.396m0-5.676q-.525 0-.93.24c-.26.16-.47.384-.62.672-.15.28-.23.6-.23.96v.084h3.42v-.132c0-.368-.07-.688-.2-.96a1.55 1.55 0 0 0-.58-.636 1.63 1.63 0 0 0-.86-.228m6.56 5.676q-1.305 0-2.04-.876-.72-.876-.72-2.364t.72-2.364q.735-.876 2.04-.876c.61 0 1.11.136 1.49.408.37.272.65.62.82 1.044l-.8.408c-.11-.32-.3-.568-.56-.744s-.58-.264-.95-.264c-.57 0-1 .176-1.3.528-.29.344-.43.788-.43 1.332v1.056c0 .536.14.98.43 1.332.3.352.73.528 1.3.528.39 0 .73-.092 1.01-.276s.5-.452.67-.804l.69.468q-.3.66-.9 1.068-.585.396-1.47.396m4.21-7.788q-.3 0-.45-.144a.6.6 0 0 1-.14-.396v-.156c0-.16.05-.288.14-.384q.15-.156.45-.156c.21 0 .35.052.44.156q.15.144.15.384v.156q0 .24-.15.396c-.09.096-.23.144-.44.144m-.48 7.644v-6.192h.96V24zm8.04 0h-.54q-.39 0-.63-.156a.92.92 0 0 1-.34-.456 1.7 1.7 0 0 1-.11-.66v-.084l.37.348h-.42c-.13.376-.35.664-.67.864-.31.192-.69.288-1.12.288-.65 0-1.17-.168-1.53-.504q-.54-.504-.54-1.368c0-.392.09-.72.28-.984.2-.272.48-.476.87-.612.39-.144.89-.216 1.49-.216h1.22v-.612q0-.66-.36-1.008c-.24-.232-.61-.348-1.1-.348-.37 0-.68.084-.94.252s-.47.392-.64.672l-.57-.54c.17-.328.43-.612.8-.852s.83-.36 1.39-.36q1.125 0 1.74.552c.43.368.64.88.64 1.536v3.408h.71zm-1.67-2.82h-1.27q-.825 0-1.2.24a.77.77 0 0 0-.39.696v.252c0 .304.12.54.34.708s.52.252.89.252q.48 0 .84-.144.375-.156.57-.408a.86.86 0 0 0 .22-.576zm4.91 2.82h-.85c-.33 0-.58-.092-.76-.276a1.05 1.05 0 0 1-.26-.72V15.12h.96v8.04h.91zm4.33 0v-8.376h2.81c.69 0 1.3.156 1.81.468q.78.456 1.2 1.392.42.924.42 2.328t-.42 2.34q-.42.924-1.2 1.392c-.51.304-1.12.456-1.81.456zm1.01-.888h1.8c.46 0 .87-.104 1.22-.312s.63-.504.83-.888q.3-.588.3-1.416v-1.368q0-.828-.3-1.416a2.1 2.1 0 0 0-.83-.888 2.35 2.35 0 0 0-1.22-.312h-1.8zm7.42-6.756c-.2 0-.34-.048-.44-.144a.54.54 0 0 1-.14-.396v-.156c0-.16.04-.288.14-.384.1-.104.24-.156.44-.156q.315 0 .45.156c.09.096.14.224.14.384v.156c0 .16-.05.292-.14.396q-.135.144-.45.144m-.48 7.644v-6.192h.96V24zm4.86.144q-.84 0-1.44-.324c-.39-.224-.72-.52-1-.888l.68-.552c.24.296.51.528.8.696.3.168.64.252 1.04.252s.72-.088.94-.264c.24-.176.35-.424.35-.744q0-.36-.24-.624-.225-.264-.84-.348l-.49-.072a4.1 4.1 0 0 1-1.02-.276q-.45-.204-.72-.564c-.17-.248-.25-.564-.25-.948 0-.616.21-1.072.62-1.368.43-.304.95-.456 1.59-.456.33 0 .63.04.88.12.27.08.5.196.71.348q.315.216.57.528l-.64.576a1.9 1.9 0 0 0-.6-.516c-.26-.16-.6-.24-1-.24q-.585 0-.9.264c-.2.168-.31.4-.31.696q0 .444.3.66c.21.136.51.236.89.3l.48.072c.69.104 1.18.304 1.46.6.29.288.44.668.44 1.14 0 .4-.1.744-.28 1.032s-.45.512-.79.672c-.35.152-.75.228-1.23.228m6.3 0q-1.32 0-2.04-.876t-.72-2.364.72-2.364 2.04-.876c.61 0 1.11.136 1.48.408.38.272.66.62.83 1.044l-.8.408q-.165-.48-.57-.744c-.25-.176-.57-.264-.94-.264-.57 0-1 .176-1.3.528-.29.344-.43.788-.43 1.332v1.056c0 .536.14.98.43 1.332.3.352.73.528 1.3.528.39 0 .72-.092 1-.276s.51-.452.68-.804l.69.468q-.3.66-.9 1.068-.585.396-1.47.396m6 0q-.825 0-1.47-.396a2.86 2.86 0 0 1-.98-1.128c-.23-.488-.35-1.06-.35-1.716s.12-1.224.35-1.704c.24-.488.57-.864.98-1.128q.645-.408 1.47-.408a2.617 2.617 0 0 1 2.43 1.536q.36.72.36 1.704t-.36 1.716c-.23.48-.56.856-.98 1.128-.42.264-.9.396-1.45.396m0-.852c.52 0 .94-.16 1.27-.48s.49-.808.49-1.464v-.888c0-.656-.16-1.144-.49-1.464s-.75-.48-1.27-.48c-.51 0-.94.16-1.27.48s-.5.808-.5 1.464v.888c0 .656.17 1.144.5 1.464s.76.48 1.27.48m8.19.708v-1.008h-.05c-.12.296-.31.564-.58.804-.25.232-.64.348-1.16.348-.63 0-1.14-.204-1.52-.612q-.57-.624-.57-1.752v-3.972h.96v3.804q0 .828.36 1.248c.24.28.59.42 1.06.42q.375 0 .72-.12c.23-.088.42-.22.56-.396.15-.176.22-.4.22-.672v-4.284h.96V24zm3.96 0h-.96v-6.192h.96v1.008h.05c.15-.352.36-.632.64-.84q.42-.312 1.11-.312c.64 0 1.15.208 1.51.624q.57.612.57 1.74V24h-.96v-3.804q0-.828-.36-1.248-.345-.42-1.05-.42c-.25 0-.5.044-.73.132-.23.08-.42.208-.56.384-.15.176-.22.396-.22.66zm8.43 0h-1.2c-.33 0-.58-.096-.76-.288a1.07 1.07 0 0 1-.26-.732v-4.332h-1.02v-.84h.58q.3 0 .42-.12.12-.132.12-.444v-1.152h.86v1.716h1.36v.84h-1.36v4.512h1.26zm3.5.144q-.855 0-1.44-.324c-.39-.224-.73-.52-1.01-.888l.69-.552c.24.296.5.528.8.696s.64.252 1.03.252c.41 0 .73-.088.95-.264.23-.176.35-.424.35-.744q0-.36-.24-.624-.225-.264-.84-.348l-.49-.072a4.1 4.1 0 0 1-1.02-.276 1.7 1.7 0 0 1-.72-.564c-.17-.248-.26-.564-.26-.948q0-.924.63-1.368c.42-.304.95-.456 1.58-.456.34 0 .63.04.89.12s.5.196.71.348c.21.144.39.32.56.528l-.63.576a1.9 1.9 0 0 0-.6-.516c-.27-.16-.6-.24-1-.24q-.585 0-.9.264c-.21.168-.31.4-.31.696q0 .444.3.66c.21.136.5.236.89.3l.48.072c.68.104 1.17.304 1.46.6.29.288.43.668.43 1.14q0 .6-.27 1.032c-.19.288-.45.512-.8.672-.34.152-.75.228-1.22.228M0 40h1440v120H0z"/><path fill="#002c4e" d="m119.945 87.322-6.655 21.285h-5.637l-6.685-21.285h4.059l4.911 16.894h1.204l4.886-16.894h3.917m2.155 1.06a1.85 1.85 0 1 1 3.699-.001 1.85 1.85 0 0 1-3.699 0m.052 20.225V93.261h3.596v15.346zm10.526-1.858-.03 1.858h-3.19V86.531h3.596v4.611c0 1.19-.03 2.465-.087 3.626 1.101-1.16 2.842-1.798 4.67-1.798 4.148 0 7.629 3.248 7.629 7.978s-3.481 7.948-7.629 7.948c-2.002 0-3.887-.784-4.961-2.147zm4.496-1.159c2.581 0 4.466-1.885 4.466-4.64s-1.885-4.67-4.466-4.67-4.38 1.71-4.38 4.67 1.915 4.64 4.38 4.64m11.075-12.327h3.597v.813l-.058.433c.871-1.015 3.035-1.596 4.687-1.596q.173 0 .344.007v3.576h-1.329c-1.828 0-3.643.94-3.643 3.146v8.963h-3.596V93.261zm9.974 7.687c0-4.728 3.452-7.978 7.629-7.978 2.002 0 3.858.754 4.961 2.146l.03-1.857h3.191v15.346h-3.191l-.03-1.858c-1.101 1.393-2.959 2.147-4.961 2.147-4.177 0-7.629-3.278-7.629-7.948zm8.092 4.64c2.437 0 4.38-1.711 4.38-4.64 0-2.93-1.945-4.67-4.38-4.67-2.581 0-4.496 1.884-4.496 4.67s1.915 4.64 4.496 4.64m11.428-12.327h3.596v.813l-.057.433c.87-1.015 3.035-1.596 4.686-1.596 3.395 0 6.196 2.38 6.196 6.498v9.196h-3.596v-8.963c0-2.206-1.787-3.365-3.585-3.365s-3.642 1.161-3.642 3.365v8.963h-3.596V93.263zm20.179 3.224h-3.515v-3.248h3.515v-5.61h3.596v5.61h3.544v3.248h-3.544l-.03 12.12h-3.596zm-78.114 18.882v21.285h-3.77v-9.076h-9.598v9.076h-3.77v-21.285h3.77v8.613h9.598v-8.613zm3.205 13.655c0-4.699 3.365-8.034 7.804-8.034 4.061 0 7.716 2.755 7.368 8.788H126.38c.291 2.437 2.116 4.118 4.727 4.118 1.915 0 3.539-.898 4.671-2.551l2.379 1.885c-1.509 2.176-3.887 3.77-7.135 3.77-4.787 0-8.005-3.365-8.005-7.977zm11.778-1.827c-.436-2.147-1.972-3.248-4.004-3.248-2.146 0-3.77 1.335-4.292 3.248zm5.766 1.798c0-4.728 3.452-7.978 7.629-7.978 2.002 0 3.858.754 4.961 2.146l.03-1.857h3.191v15.346h-3.191l-.03-1.857c-1.101 1.392-2.959 2.146-4.961 2.146-4.177 0-7.629-3.278-7.629-7.948zm8.092 4.642c2.437 0 4.38-1.711 4.38-4.64 0-2.93-1.945-4.671-4.38-4.671-2.581 0-4.496 1.886-4.496 4.671s1.915 4.64 4.496 4.64m11.43-19.058h3.596v22.075h-3.596zm9.564 9.955h-3.515v-3.248h3.515v-5.609h3.596v5.609h3.545v3.248h-3.545l-.029 12.12h-3.597zm9.59-9.955h3.597l-.058 7.977c.871-1.015 3.033-1.596 4.687-1.596 3.394 0 6.196 2.379 6.196 6.498v9.196h-3.596v-8.963c0-2.204-1.787-3.365-3.585-3.365s-3.643 1.161-3.643 3.365v8.963h-3.596v-22.075zm-88.526 2.318c-1.272-1.894-3.492-3.002-5.681-2.944-.367.011-.774.063-1.094.085-1.384.081-3.75-.03-5.243-1.78l-3.216-4.325c-1.291-2.037-.467-4.704.018-5.896.093-.2.274-.619.274-.619 2.09-5.283-1.576-11.735-8.32-11.309-6.387.402-9.135 7.189-6.659 12.137.398.883 1.728 4.424-.387 8.338l-.881 1.417c-.99 1.474-5.78 7.59-10.554-3.944L37.37 80.271c-3.148-8.167-16.445-3.687-12.716 5.568l16.6 39.806c.86 2.031 1.672 4.178 3.63 5.457 2.588 1.691 6.434 1.202 8.482-.955.576-.604.89-1.256 1.031-1.539.97-2.008 5.752-14.496 6.46-16.024.344-.744.468-1.037.657-1.359 2.257-3.835 5.666-4.491 7.053-4.62 1.108-.104 4.063-.233 5.756 1.833l3.23 4.32c1.145 1.578 1.57 4.952 1.25 6.67-.406 2.195.499 4.771 2.371 6.178 4.705 3.555 10.95-.069 10.605-5.461-.06-.946-.381-2.224-1.074-3.253zM291.102 129.14q-1.38 0-2.48-.48-1.08-.5-1.7-1.36a3.53 3.53 0 0 1-.64-2.02h1.94q.1.98.8 1.66.72.66 2.08.66 1.3 0 2.04-.64.76-.66.76-1.68 0-.8-.44-1.3a2.8 2.8 0 0 0-1.1-.76q-.66-.26-1.78-.56-1.38-.36-2.22-.72a3.7 3.7 0 0 1-1.42-1.12q-.58-.78-.58-2.08 0-1.14.58-2.02t1.62-1.36q1.06-.48 2.42-.48 1.96 0 3.2.98 1.26.98 1.42 2.6h-2q-.1-.8-.84-1.4-.74-.62-1.96-.62-1.14 0-1.86.6-.72.58-.72 1.64 0 .76.42 1.24.44.48 1.06.74.64.24 1.78.56 1.38.38 2.22.76.84.36 1.44 1.14.6.76.6 2.08 0 1.02-.54 1.92t-1.6 1.46-2.5.56m12.758-11.3q1.24 0 2.24.54 1 .52 1.56 1.58.58 1.06.58 2.58V129h-1.8v-6.2q0-1.64-.82-2.5-.82-.88-2.24-.88-1.44 0-2.3.9-.84.9-.84 2.62V129h-1.82v-14.8h1.82v5.4q.54-.84 1.48-1.3.96-.46 2.14-.46m12.133 11.34q-1.54 0-2.8-.7a5.1 5.1 0 0 1-1.96-1.98q-.7-1.3-.7-3 0-1.68.72-2.96.74-1.3 2-1.98 1.26-.7 2.82-.7t2.82.7q1.26.68 1.98 1.96.74 1.28.74 2.98t-.76 3a5.15 5.15 0 0 1-2.02 1.98q-1.28.7-2.84.7m0-1.6q.98 0 1.84-.46t1.38-1.38q.54-.92.54-2.24t-.52-2.24-1.36-1.36a3.7 3.7 0 0 0-1.82-.46q-1 0-1.84.46-.819.44-1.32 1.36-.5.92-.5 2.24 0 1.34.48 2.26.501.92 1.32 1.38.82.44 1.8.44m9.833-7.52q.54-.94 1.6-1.56 1.08-.64 2.5-.64 1.461 0 2.64.7a4.9 4.9 0 0 1 1.88 1.98q.68 1.26.68 2.94 0 1.66-.68 2.96a5 5 0 0 1-1.88 2.02q-1.179.72-2.64.72-1.4 0-2.48-.62-1.059-.64-1.62-1.58v7.22h-1.82v-16.16h1.82zm7.44 3.42q0-1.24-.5-2.16a3.44 3.44 0 0 0-1.36-1.4q-.84-.48-1.86-.48-.999 0-1.86.5-.84.48-1.36 1.42-.5.92-.5 2.14 0 1.24.5 2.18.52.92 1.36 1.42.861.48 1.86.48 1.02 0 1.86-.48a3.57 3.57 0 0 0 1.36-1.42q.5-.94.5-2.2"/><g clip-path="url(#a)"><path fill="#002c4e" d="M369.91 125.9h-6.08l-1.12 3.1h-1.92l5.04-13.86h2.1l5.02 13.86h-1.92zm-.52-1.48-2.52-7.04-2.52 7.04zm7.577-4.34q.56-.98 1.64-1.6t2.46-.62q1.48 0 2.66.7t1.86 1.98q.68 1.26.68 2.94 0 1.66-.68 2.96a5 5 0 0 1-1.88 2.02q-1.18.72-2.64.72-1.42 0-2.5-.62-1.06-.62-1.6-1.58V129h-1.82v-14.8h1.82zm7.44 3.4q0-1.24-.5-2.16a3.44 3.44 0 0 0-1.36-1.4q-.84-.48-1.86-.48-1 0-1.86.5-.84.48-1.36 1.42-.5.92-.5 2.14 0 1.24.5 2.18.52.92 1.36 1.42.86.48 1.86.48 1.02 0 1.86-.48a3.6 3.6 0 0 0 1.36-1.42q.5-.94.5-2.2m9.036 5.7q-1.54 0-2.8-.7a5.1 5.1 0 0 1-1.96-1.98q-.7-1.3-.7-3 0-1.68.72-2.96a5 5 0 0 1 2-1.98q1.26-.7 2.82-.7t2.82.7q1.26.68 1.98 1.96.74 1.28.74 2.98t-.76 3a5.16 5.16 0 0 1-2.02 1.98q-1.28.7-2.84.7m0-1.6q.98 0 1.84-.46t1.38-1.38q.54-.92.54-2.24t-.52-2.24-1.36-1.36a3.7 3.7 0 0 0-1.82-.46q-1 0-1.84.46-.82.44-1.32 1.36t-.5 2.24q0 1.34.48 2.26.5.92 1.32 1.38.819.44 1.8.44m17.733-9.54V129h-1.82v-1.62q-.52.84-1.46 1.32a4.5 4.5 0 0 1-2.04.46q-1.28 0-2.3-.52a4 4 0 0 1-1.62-1.6q-.58-1.06-.58-2.58v-6.42h1.8v6.18q0 1.62.82 2.5.82.86 2.24.86 1.46 0 2.3-.9t.84-2.62v-6.02zm5.292 1.5V126q0 .8.34 1.14.34.32 1.18.32h1.34V129h-1.64q-1.52 0-2.28-.7t-.76-2.3v-6.46h-1.42v-1.5h1.42v-2.76h1.82v2.76h2.86v1.5z"/></g><g clip-path="url(#b)"><path fill="#002c4e" d="m457.376 115.06-5.26 13.94h-2.1l-5.26-13.94h1.94l4.38 12.02 4.38-12.02zm2.936 1.2q-.52 0-.88-.36t-.36-.88.36-.88.88-.36q.5 0 .84.36.36.36.36.88t-.36.88a1.1 1.1 0 0 1-.84.36m.88 1.78V129h-1.82v-10.96zm4.921 2.04q.56-.98 1.64-1.6t2.46-.62q1.48 0 2.66.7t1.86 1.98q.68 1.26.68 2.94 0 1.66-.68 2.96a5 5 0 0 1-1.88 2.02q-1.179.72-2.64.72-1.42 0-2.5-.62-1.06-.62-1.6-1.58V129h-1.82v-14.8h1.82zm7.44 3.4q0-1.24-.5-2.16a3.44 3.44 0 0 0-1.36-1.4q-.84-.48-1.86-.48-.999 0-1.86.5-.84.48-1.36 1.42-.5.92-.5 2.14 0 1.24.5 2.18.52.92 1.36 1.42.861.48 1.86.48 1.02 0 1.86-.48a3.57 3.57 0 0 0 1.36-1.42q.5-.94.5-2.2m6.076-3.66a3.5 3.5 0 0 1 1.36-1.46q.9-.52 2.18-.52v1.88h-.48q-3.06 0-3.06 3.32V129h-1.82v-10.96h1.82zm4.961 3.66q0-1.68.68-2.94.68-1.28 1.86-1.98a5.2 5.2 0 0 1 2.66-.7q1.44 0 2.5.62t1.58 1.56v-2h1.84V129h-1.84v-2.04q-.54.96-1.62 1.6-1.06.62-2.48.62-1.46 0-2.64-.72t-1.86-2.02-.68-2.96m9.28.02q0-1.24-.5-2.16a3.44 3.44 0 0 0-1.36-1.4q-.84-.5-1.86-.5t-1.86.48-1.34 1.4-.5 2.16q0 1.26.5 2.2.5.92 1.34 1.42.84.48 1.86.48t1.86-.48a3.6 3.6 0 0 0 1.36-1.42q.5-.94.5-2.18m10.256-5.66q2 0 3.24 1.22 1.24 1.2 1.24 3.48V129h-1.8v-6.2q0-1.64-.82-2.5-.82-.88-2.24-.88-1.44 0-2.3.9-.84.9-.84 2.62V129h-1.82v-10.96h1.82v1.56q.54-.84 1.46-1.3a4.6 4.6 0 0 1 2.06-.46m9.673 1.7V126q0 .8.34 1.14.34.32 1.18.32h1.34V129h-1.64q-1.521 0-2.28-.7-.76-.7-.76-2.3v-6.46h-1.42v-1.5h1.42v-2.76h1.82v2.76h2.86v1.5zm18.977-4.48v1.48h-3.8V129h-1.82v-12.46h-3.82v-1.48zm4.06 4.76a3.5 3.5 0 0 1 1.36-1.46q.9-.52 2.18-.52v1.88h-.48q-3.06 0-3.06 3.32V129h-1.82v-10.96h1.82zm15.361-1.78V129h-1.82v-1.62q-.52.84-1.46 1.32a4.5 4.5 0 0 1-2.04.46q-1.28 0-2.3-.52a4 4 0 0 1-1.62-1.6q-.58-1.06-.58-2.58v-6.42h1.8v6.18q0 1.62.82 2.5.82.86 2.24.86 1.46 0 2.3-.9t.84-2.62v-6.02zm5.293 1.5V126q0 .8.34 1.14.34.32 1.18.32h1.34V129h-1.64q-1.52 0-2.28-.7t-.76-2.3v-6.46h-1.42v-1.5h1.42v-2.76h1.82v2.76h2.86v1.5zm10.505-1.7q1.24 0 2.24.54 1 .52 1.56 1.58.58 1.06.58 2.58V129h-1.8v-6.2q0-1.64-.82-2.5-.82-.88-2.24-.88-1.44 0-2.3.9-.84.9-.84 2.62V129h-1.82v-14.8h1.82v5.4a3.6 3.6 0 0 1 1.48-1.3q.96-.46 2.14-.46"/></g><path fill="#002c4e" d="M601.52 127.52h4.88V129h-6.7v-13.94h1.82zm16.812-4.42q0 .52-.06 1.1h-8.76q.1 1.62 1.1 2.54 1.02.9 2.46.9 1.18 0 1.96-.54a2.94 2.94 0 0 0 1.12-1.48h1.96a4.76 4.76 0 0 1-1.76 2.58q-1.32.98-3.28.98-1.56 0-2.8-.7a5 5 0 0 1-1.92-1.98q-.7-1.3-.7-3t.68-2.98a4.73 4.73 0 0 1 1.9-1.96q1.24-.7 2.84-.7 1.56 0 2.76.68t1.84 1.88q.66 1.18.66 2.68m-1.88-.38q0-1.04-.46-1.78a2.9 2.9 0 0 0-1.26-1.14q-.78-.4-1.74-.4-1.38 0-2.36.88-.96.88-1.1 2.44zm3.603.76q0-1.68.68-2.94.68-1.28 1.86-1.98 1.2-.7 2.66-.7 1.44 0 2.5.62t1.58 1.56v-2h1.84V129h-1.84v-2.04q-.54.96-1.62 1.6-1.06.62-2.48.62-1.461 0-2.64-.72t-1.86-2.02q-.68-1.3-.68-2.96m9.28.02q0-1.24-.5-2.16a3.45 3.45 0 0 0-1.36-1.4q-.84-.5-1.86-.5t-1.86.48-1.34 1.4-.5 2.16q0 1.26.5 2.2.5.92 1.34 1.42.84.48 1.86.48t1.86-.48a3.6 3.6 0 0 0 1.36-1.42q.5-.94.5-2.18m6.735-3.68a3.5 3.5 0 0 1 1.36-1.46q.9-.52 2.18-.52v1.88h-.48q-3.06 0-3.06 3.32V129h-1.82v-10.96h1.82zm10.981-1.98q2.001 0 3.24 1.22 1.24 1.2 1.24 3.48V129h-1.8v-6.2q0-1.64-.82-2.5-.82-.88-2.24-.88-1.44 0-2.3.9-.84.9-.84 2.62V129h-1.82v-10.96h1.82v1.56q.54-.84 1.46-1.3a4.6 4.6 0 0 1 2.06-.46M683.391 129.14q-1.38 0-2.48-.48-1.08-.5-1.7-1.36a3.53 3.53 0 0 1-.64-2.02h1.94q.1.98.8 1.66.72.66 2.08.66 1.3 0 2.04-.64.76-.66.76-1.68 0-.8-.44-1.3a2.8 2.8 0 0 0-1.1-.76q-.66-.26-1.78-.56-1.38-.36-2.22-.72a3.7 3.7 0 0 1-1.42-1.12q-.58-.78-.58-2.08 0-1.14.58-2.02t1.62-1.36q1.06-.48 2.42-.48 1.96 0 3.2.98 1.26.98 1.42 2.6h-2q-.1-.8-.84-1.4-.74-.62-1.96-.62-1.14 0-1.86.6-.72.58-.72 1.64 0 .76.42 1.24.44.48 1.06.74.64.24 1.78.56 1.38.38 2.22.76.84.36 1.44 1.14.6.76.6 2.08 0 1.02-.54 1.92t-1.6 1.46-2.5.56m17.038-11.1V129h-1.82v-1.62q-.52.84-1.46 1.32a4.5 4.5 0 0 1-2.04.46q-1.28 0-2.3-.52a4 4 0 0 1-1.62-1.6q-.58-1.06-.58-2.58v-6.42h1.8v6.18q0 1.62.82 2.5.82.86 2.24.86 1.46 0 2.3-.9t.84-2.62v-6.02zm4.893 2.04q.56-.98 1.64-1.6t2.46-.62q1.48 0 2.66.7t1.86 1.98q.68 1.26.68 2.94 0 1.66-.68 2.96a5 5 0 0 1-1.88 2.02q-1.179.72-2.64.72-1.42 0-2.5-.62-1.06-.62-1.6-1.58V129h-1.82v-14.8h1.82zm7.44 3.4q0-1.24-.5-2.16a3.44 3.44 0 0 0-1.36-1.4q-.84-.48-1.86-.48-.999 0-1.86.5-.84.48-1.36 1.42-.5.92-.5 2.14 0 1.24.5 2.18.52.92 1.36 1.42.861.48 1.86.48 1.02 0 1.86-.48a3.57 3.57 0 0 0 1.36-1.42q.5-.94.5-2.2m8.136 5.7q-1.26 0-2.26-.42-1-.44-1.58-1.2a3.24 3.24 0 0 1-.64-1.78h1.88q.08.82.76 1.34.7.52 1.82.52 1.04 0 1.64-.46t.6-1.16q0-.72-.64-1.06-.64-.36-1.98-.7-1.22-.32-2-.64a3.8 3.8 0 0 1-1.32-.98q-.54-.66-.54-1.72 0-.84.5-1.54t1.42-1.1q.92-.42 2.1-.42 1.82 0 2.94.92t1.2 2.52h-1.82q-.06-.86-.7-1.38-.62-.52-1.68-.52-.98 0-1.56.42t-.58 1.1q0 .54.34.9.36.34.88.56.54.2 1.48.46 1.18.32 1.92.64.74.3 1.26.92.54.62.56 1.62 0 .9-.5 1.62t-1.42 1.14q-.9.4-2.08.4m5.889-5.68q0-1.7.68-2.96a4.9 4.9 0 0 1 1.88-1.98q1.22-.7 2.78-.7 2.02 0 3.32.98 1.32.98 1.74 2.72h-1.96a2.8 2.8 0 0 0-1.1-1.58q-.8-.58-2-.58-1.56 0-2.52 1.08-.96 1.06-.96 3.02 0 1.98.96 3.06t2.52 1.08q1.2 0 2-.56t1.1-1.6h1.96q-.44 1.68-1.76 2.7-1.32 1-3.3 1-1.56 0-2.78-.7a4.9 4.9 0 0 1-1.88-1.98q-.68-1.28-.68-3m14.649-3.68a3.5 3.5 0 0 1 1.36-1.46q.9-.52 2.18-.52v1.88h-.48q-3.06 0-3.06 3.32V129h-1.82v-10.96h1.82zm6.581-3.56q-.52 0-.88-.36t-.36-.88.36-.88.88-.36q.5 0 .84.36.36.36.36.88t-.36.88a1.1 1.1 0 0 1-.84.36m.88 1.78V129h-1.82v-10.96zm4.921 2.04q.56-.98 1.64-1.6t2.46-.62q1.48 0 2.66.7t1.86 1.98q.68 1.26.68 2.94 0 1.66-.68 2.96a5 5 0 0 1-1.88 2.02q-1.179.72-2.64.72-1.42 0-2.5-.62-1.06-.62-1.6-1.58V129h-1.82v-14.8h1.82zm7.44 3.4q0-1.24-.5-2.16a3.44 3.44 0 0 0-1.36-1.4q-.84-.48-1.86-.48-.999 0-1.86.5-.84.48-1.36 1.42-.5.92-.5 2.14 0 1.24.5 2.18.52.92 1.36 1.42.861.48 1.86.48 1.02 0 1.86-.48a3.57 3.57 0 0 0 1.36-1.42q.5-.94.5-2.2m14.256-.38q0 .52-.06 1.1h-8.76q.1 1.62 1.1 2.54 1.02.9 2.46.9 1.18 0 1.96-.54a2.95 2.95 0 0 0 1.12-1.48h1.96a4.76 4.76 0 0 1-1.76 2.58q-1.32.98-3.28.98-1.56 0-2.8-.7a5 5 0 0 1-1.92-1.98q-.7-1.3-.7-3t.68-2.98a4.73 4.73 0 0 1 1.9-1.96q1.24-.7 2.84-.7 1.56 0 2.76.68t1.84 1.88q.66 1.18.66 2.68m-1.88-.38q0-1.04-.46-1.78a2.9 2.9 0 0 0-1.26-1.14q-.78-.4-1.74-.4-1.38 0-2.36.88-.96.88-1.1 2.44zm20.314 6.28-1.82-1.84q-1.02 1.06-2.18 1.58-1.16.5-2.62.5-1.44 0-2.56-.52-1.1-.52-1.72-1.48-.6-.96-.6-2.24 0-1.46.82-2.56.84-1.12 2.46-1.76-.64-.76-.92-1.4a3.5 3.5 0 0 1-.28-1.4q0-.88.44-1.58.46-.72 1.3-1.12t1.94-.4q1.08 0 1.88.42.801.42 1.2 1.18.4.74.36 1.66h-1.82q.02-.82-.46-1.28-.48-.48-1.24-.48-.8 0-1.3.46-.48.44-.48 1.14 0 .6.32 1.16.34.56 1.12 1.38l4.16 4.18.36-.56 1.36-2.28h1.96l-1.64 2.84q-.34.6-.8 1.26l3.14 3.14zm-6.62-1.32q1.08 0 1.94-.42.88-.42 1.66-1.3l-4.1-4.12q-2.56.98-2.56 3.1 0 1.18.84 1.96.861.78 2.22.78m20.458 1.46q-1.38 0-2.48-.48-1.08-.5-1.7-1.36-.62-.88-.64-2.02h1.94a2.6 2.6 0 0 0 .8 1.66q.72.66 2.08.66 1.299 0 2.04-.64.76-.66.76-1.68 0-.8-.44-1.3a2.8 2.8 0 0 0-1.1-.76q-.66-.26-1.78-.56-1.38-.36-2.22-.72a3.7 3.7 0 0 1-1.42-1.12q-.58-.78-.58-2.08 0-1.14.58-2.02.579-.88 1.62-1.36 1.06-.48 2.42-.48 1.96 0 3.2.98 1.26.98 1.42 2.6h-2q-.1-.8-.84-1.4-.74-.62-1.96-.62-1.14 0-1.86.6-.72.58-.72 1.64 0 .76.42 1.24.44.48 1.06.74.64.24 1.78.56 1.38.38 2.22.76.84.36 1.44 1.14.6.76.6 2.08 0 1.02-.54 1.92t-1.6 1.46-2.5.56m6.638-5.66q0-1.68.68-2.94.68-1.28 1.86-1.98a5.2 5.2 0 0 1 2.66-.7q1.44 0 2.5.62t1.58 1.56v-2h1.84V129h-1.84v-2.04q-.54.96-1.62 1.6-1.06.62-2.48.62-1.46 0-2.64-.72t-1.86-2.02-.68-2.96m9.28.02q0-1.24-.5-2.16a3.44 3.44 0 0 0-1.36-1.4q-.84-.5-1.86-.5t-1.86.48-1.34 1.4-.5 2.16q0 1.26.5 2.2.5.92 1.34 1.42.84.48 1.86.48t1.86-.48a3.6 3.6 0 0 0 1.36-1.42q.5-.94.5-2.18m8.996 3.82 3.4-9.28h1.94l-4.3 10.96h-2.12l-4.3-10.96h1.96zm17.131-4.22q0 .52-.06 1.1h-8.76q.1 1.62 1.1 2.54 1.02.9 2.46.9 1.18 0 1.96-.54a2.95 2.95 0 0 0 1.12-1.48h1.96a4.77 4.77 0 0 1-1.76 2.58q-1.32.98-3.28.98-1.56 0-2.8-.7a5 5 0 0 1-1.92-1.98q-.7-1.3-.7-3t.68-2.98a4.7 4.7 0 0 1 1.9-1.96q1.24-.7 2.84-.7 1.56 0 2.76.68t1.84 1.88q.66 1.18.66 2.68m-1.88-.38q0-1.04-.46-1.78a2.9 2.9 0 0 0-1.26-1.14q-.78-.4-1.74-.4-1.38 0-2.36.88-.96.88-1.1 2.44z"/><rect width="153" height="33" x="1134" y="103" stroke="#002c4e" stroke-width="2" rx="16.5"/><path fill="#002c4e" d="M1165.1 113.848v1.184h-3.04V125h-1.46v-9.968h-3.06v-1.184zm1.24 6.736c0-.896.19-1.68.55-2.352a3.93 3.93 0 0 1 1.49-1.584c.64-.373 1.35-.56 2.12-.56s1.44.165 2 .496c.57.331.99.747 1.27 1.248v-1.6h1.47V125h-1.47v-1.632c-.29.512-.72.939-1.3 1.28q-.84.496-1.98.496a3.97 3.97 0 0 1-3.6-2.192c-.36-.693-.55-1.483-.55-2.368m7.43.016c0-.661-.14-1.237-.4-1.728a2.77 2.77 0 0 0-1.09-1.12c-.45-.267-.94-.4-1.49-.4-.54 0-1.04.128-1.49.384-.44.256-.8.629-1.07 1.12-.26.491-.4 1.067-.4 1.728 0 .672.14 1.259.4 1.76.27.491.63.869 1.07 1.136.45.256.95.384 1.49.384.55 0 1.04-.128 1.49-.384.46-.267.82-.645 1.09-1.136.26-.501.4-1.083.4-1.744m8.83 4.4-3.44-3.872V125h-1.46v-11.84h1.46v6.96l3.37-3.888h2.03l-4.12 4.368 4.14 4.4zm11.34-4.72c0 .277-.02.571-.05.88h-7.01c.05.864.35 1.541.88 2.032.54.48 1.2.72 1.97.72.63 0 1.15-.144 1.57-.432.42-.299.72-.693.89-1.184h1.57c-.24.843-.7 1.531-1.41 2.064-.7.523-1.58.784-2.62.784-.83 0-1.58-.187-2.24-.56a4 4 0 0 1-1.54-1.584c-.37-.693-.56-1.493-.56-2.4s.18-1.701.55-2.384a3.7 3.7 0 0 1 1.52-1.568c.66-.373 1.41-.56 2.27-.56.83 0 1.57.181 2.21.544q.96.544 1.47 1.504c.35.629.53 1.344.53 2.144m-1.51-.304c0-.555-.12-1.029-.37-1.424a2.3 2.3 0 0 0-1-.912c-.42-.213-.88-.32-1.4-.32-.73 0-1.36.235-1.88.704s-.81 1.12-.88 1.952zm9.47-2.544v5.168q0 .64.27.912c.18.171.5.256.94.256h1.08V125h-1.32c-.81 0-1.41-.187-1.82-.56-.4-.373-.61-.987-.61-1.84v-5.168h-1.13v-1.2h1.13v-2.208h1.46v2.208h2.29v1.2zm8.4-1.36c.66 0 1.26.144 1.79.432.54.277.95.699 1.25 1.264.31.565.47 1.253.47 2.064V125h-1.44v-4.96q0-1.312-.66-2c-.44-.469-1.03-.704-1.79-.704-.77 0-1.38.24-1.84.72-.45.48-.67 1.179-.67 2.096V125h-1.46v-11.84h1.46v4.32c.28-.448.68-.795 1.18-1.04a3.9 3.9 0 0 1 1.71-.368m13.89 4.208c0 .277-.02.571-.05.88h-7.01c.05.864.35 1.541.88 2.032.54.48 1.2.72 1.97.72.63 0 1.15-.144 1.57-.432.42-.299.72-.693.89-1.184h1.57c-.24.843-.7 1.531-1.41 2.064-.7.523-1.58.784-2.62.784-.83 0-1.58-.187-2.24-.56a4 4 0 0 1-1.54-1.584c-.37-.693-.56-1.493-.56-2.4s.18-1.701.55-2.384a3.7 3.7 0 0 1 1.52-1.568c.66-.373 1.41-.56 2.27-.56.83 0 1.57.181 2.21.544q.96.544 1.47 1.504c.35.629.53 1.344.53 2.144m-1.51-.304c0-.555-.12-1.029-.37-1.424a2.3 2.3 0 0 0-1-.912c-.42-.213-.88-.32-1.4-.32-.73 0-1.36.235-1.88.704s-.81 1.12-.88 1.952zm16.64 7.136-2.23-2.224a6.3 6.3 0 0 1-1.66.224c-1.04 0-1.98-.24-2.83-.72a5.5 5.5 0 0 1-2.04-2.032c-.49-.875-.73-1.856-.73-2.944s.24-2.064.73-2.928c.51-.875 1.18-1.552 2.04-2.032.85-.491 1.79-.736 2.83-.736q1.56 0 2.85.736 1.275.72 2.01 2.016c.49.864.74 1.845.74 2.944 0 1.067-.24 2.027-.71 2.88a5.2 5.2 0 0 1-1.93 2.016l2.81 2.8zm-8-7.696c0 .885.17 1.664.52 2.336.37.672.86 1.189 1.48 1.552.63.363 1.33.544 2.11.544s1.48-.181 2.09-.544c.63-.363 1.12-.88 1.48-1.552q.54-1.008.54-2.336 0-1.344-.54-2.336c-.36-.672-.84-1.189-1.46-1.552s-1.32-.544-2.11-.544-1.49.181-2.11.544-1.11.88-1.48 1.552c-.35.661-.52 1.44-.52 2.336m19.44-3.184V125h-1.46v-1.296c-.28.448-.66.8-1.17 1.056-.49.245-1.03.368-1.63.368-.68 0-1.29-.139-1.84-.416a3.2 3.2 0 0 1-1.29-1.28c-.31-.565-.47-1.253-.47-2.064v-5.136h1.44v4.944q0 1.296.66 2c.44.459 1.03.688 1.79.688.78 0 1.39-.24 1.84-.72s.67-1.179.67-2.096v-4.816zm3.21-1.424a.98.98 0 0 1-.71-.288.96.96 0 0 1-.28-.704c0-.277.09-.512.28-.704a.98.98 0 0 1 .71-.288c.27 0 .49.096.67.288.19.192.29.427.29.704s-.1.512-.29.704a.88.88 0 0 1-.67.288m.7 1.424V125h-1.45v-8.768zm3.57 7.568h4.31v1.2h-5.97v-1.2l4.25-6.384h-4.22v-1.184h5.9v1.184z"/><path stroke="#002c4e" stroke-linecap="round" stroke-linejoin="round" stroke-width="2" d="m1333 128.5-4.34-4.34M1323 126.5a8 8 0 0 0 8-8 8 8 0 0 0-8-8 8 8 0 0 0-8 8 8 8 0 0 0 8 8M1360 129.5c.55 0 1-.448 1-1s-.45-1-1-1-1 .448-1 1 .45 1 1 1M1371 129.5c.55 0 1-.448 1-1s-.45-1-1-1-1 .448-1 1 .45 1 1 1M1354.05 109.55h2l2.66 12.42c.1.455.35.861.72 1.15.36.288.81.44 1.28.43h9.78a2 2 0 0 0 1.95-1.57l1.65-7.43h-16.97M1411 128.5v-2a4 4 0 0 0-4-4h-6a4 4 0 0 0-4 4v2M1404 118.5a4 4 0 1 0 0-8 4 4 0 0 0 0 8"/><defs><clipPath id="a"><path fill="#fff" d="M360.062 107h60v30h-60z"/></clipPath><clipPath id="b"><path fill="#fff" d="M444.062 107h130v30h-130z"/></clipPath></defs></svg>