<svg xmlns="http://www.w3.org/2000/svg" width="375" height="105" fill="none" viewBox="0 0 375 105"><g clip-path="url(#a)"><path fill="#fff" d="M0 0h375v105H0z"/><path fill="#002c4e" d="M0 .43h375v40H0z"/><path fill="#fff" d="M89.666 15.7v1.302h-4.13v2.87h3.22v1.302h-3.22v4.256H83.94V15.7zm3.075 3.136a2.47 2.47 0 0 1 .924-.91q.588-.336 1.386-.336v1.652h-.406q-.939 0-1.428.476-.477.476-.476 1.652v4.06h-1.596v-7.714h1.596zm10.847 2.548q0 .433-.056.784h-5.894q.07.924.686 1.484.615.56 1.512.56 1.287 0 1.82-1.078h1.722a3.5 3.5 0 0 1-1.274 1.75q-.91.672-2.268.672-1.106 0-1.988-.49a3.66 3.66 0 0 1-1.372-1.4q-.49-.91-.49-2.1t.476-2.086a3.44 3.44 0 0 1 1.358-1.4q.882-.49 2.016-.49 1.091 0 1.946.476a3.36 3.36 0 0 1 1.33 1.344q.476.853.476 1.974m-1.666-.504q-.015-.883-.63-1.414-.617-.532-1.526-.532-.825 0-1.414.532-.588.517-.7 1.414zm10.306.504q0 .433-.056.784h-5.894q.07.924.686 1.484t1.512.56q1.289 0 1.82-1.078h1.722a3.5 3.5 0 0 1-1.274 1.75q-.909.672-2.268.672-1.106 0-1.988-.49a3.67 3.67 0 0 1-1.372-1.4q-.49-.91-.49-2.1t.476-2.086a3.45 3.45 0 0 1 1.358-1.4q.882-.49 2.016-.49 1.092 0 1.946.476.855.476 1.33 1.344.476.853.476 1.974m-1.666-.504q-.014-.883-.63-1.414-.615-.532-1.526-.532-.826 0-1.414.532-.588.517-.7 1.414zm10.08 4.648q-.981 0-1.764-.336-.785-.35-1.232-.98-.448-.63-.448-1.47h1.708q.055.63.49 1.036.447.406 1.246.406.825 0 1.288-.392.462-.406.462-1.036 0-.49-.294-.798a1.85 1.85 0 0 0-.714-.476q-.42-.168-1.176-.364a12 12 0 0 1-1.554-.504 2.6 2.6 0 0 1-1.008-.812q-.42-.547-.42-1.456 0-.84.42-1.47t1.176-.966 1.75-.336q1.413 0 2.31.714.909.699 1.008 1.932h-1.764q-.042-.532-.504-.91t-1.218-.378q-.687 0-1.12.35-.435.35-.434 1.008 0 .447.266.742.28.28.7.448t1.148.364q.966.265 1.568.532.615.265 1.036.826.434.546.434 1.47 0 .741-.406 1.4-.393.657-1.162 1.064-.757.392-1.792.392m9.233-7.938q.882 0 1.568.378.7.378 1.092 1.12.406.742.406 1.792v4.55h-1.582v-4.312q0-1.036-.518-1.582-.518-.56-1.414-.56t-1.428.56q-.518.546-.518 1.582v4.312h-1.596V15.07h1.596v3.542a2.7 2.7 0 0 1 1.022-.756 3.5 3.5 0 0 1 1.372-.266m5.914-.896a.99.99 0 0 1-.728-.294 1 1 0 0 1-.294-.728q0-.434.294-.728a.99.99 0 0 1 .728-.294q.42 0 .714.294a1 1 0 0 1 .294.728q0 .434-.294.728a.97.97 0 0 1-.714.294m.784 1.022v7.714h-1.596v-7.714zm3.691 1.134q.406-.533 1.106-.896a3.4 3.4 0 0 1 1.582-.364q1.008 0 1.834.504.84.489 1.316 1.386t.476 2.058q0 1.162-.476 2.086a3.6 3.6 0 0 1-1.316 1.428 3.45 3.45 0 0 1-1.834.504q-.882 0-1.568-.35a3.6 3.6 0 0 1-1.12-.896v4.788h-1.596V17.716h1.596zm4.69 2.688q0-.799-.336-1.372a2.14 2.14 0 0 0-.868-.882 2.25 2.25 0 0 0-1.148-.308q-.602 0-1.148.308a2.36 2.36 0 0 0-.868.896q-.322.588-.322 1.386t.322 1.4q.336.588.868.896.546.308 1.148.308.616 0 1.148-.308a2.3 2.3 0 0 0 .868-.924q.336-.602.336-1.4m4.798-2.688q.407-.533 1.106-.896a3.4 3.4 0 0 1 1.582-.364 3.45 3.45 0 0 1 1.834.504q.84.489 1.316 1.386t.476 2.058q0 1.162-.476 2.086a3.6 3.6 0 0 1-1.316 1.428 3.45 3.45 0 0 1-1.834.504q-.882 0-1.568-.35a3.6 3.6 0 0 1-1.12-.896v4.788h-1.596V17.716h1.596zm4.69 2.688q0-.799-.336-1.372a2.13 2.13 0 0 0-.868-.882 2.25 2.25 0 0 0-1.148-.308q-.602 0-1.148.308a2.36 2.36 0 0 0-.868.896q-.322.588-.322 1.386t.322 1.4q.337.588.868.896.546.308 1.148.308a2.25 2.25 0 0 0 1.148-.308q.547-.322.868-.924.336-.602.336-1.4m4.015-4.844a.99.99 0 0 1-.728-.294 1 1 0 0 1-.294-.728q0-.434.294-.728a.99.99 0 0 1 .728-.294q.42 0 .714.294a1 1 0 0 1 .294.728q0 .434-.294.728a.97.97 0 0 1-.714.294m.784 1.022v7.714h-1.596v-7.714zm5.987-.126q.91 0 1.624.378.728.378 1.134 1.12t.406 1.792v4.55h-1.582v-4.312q0-1.036-.518-1.582-.518-.56-1.414-.56t-1.428.56q-.518.546-.518 1.582v4.312h-1.596v-7.714h1.596v.882q.392-.477.994-.742a3.25 3.25 0 0 1 1.302-.266m8.308 0q.896 0 1.582.364.7.35 1.092.882v-1.12h1.61v7.84q0 1.063-.448 1.89-.449.84-1.302 1.316-.84.476-2.016.476-1.567 0-2.604-.742a2.69 2.69 0 0 1-1.176-1.988h1.582q.182.602.77.966.602.378 1.428.378.966 0 1.554-.588.602-.588.602-1.708v-1.288q-.406.546-1.106.924-.686.364-1.568.364a3.5 3.5 0 0 1-1.848-.504 3.74 3.74 0 0 1-1.316-1.428q-.476-.925-.476-2.086 0-1.162.476-2.058a3.56 3.56 0 0 1 3.164-1.89m2.674 3.976q0-.798-.336-1.386a2.26 2.26 0 0 0-.854-.896 2.25 2.25 0 0 0-1.148-.308q-.616 0-1.148.308-.532.294-.868.882-.322.573-.322 1.372 0 .797.322 1.4.336.602.868.924.546.308 1.148.308.616 0 1.148-.308t.854-.896q.336-.602.336-1.4m10.689 3.99a4 4 0 0 1-1.974-.49 3.63 3.63 0 0 1-1.386-1.4q-.504-.91-.504-2.1 0-1.177.518-2.086a3.6 3.6 0 0 1 1.414-1.4 4.1 4.1 0 0 1 2.002-.49q1.106 0 2.002.49a3.6 3.6 0 0 1 1.414 1.4q.518.91.518 2.086t-.532 2.086a3.7 3.7 0 0 1-1.456 1.414 4.2 4.2 0 0 1-2.016.49m0-1.386q.616 0 1.148-.294.546-.294.882-.882t.336-1.428-.322-1.414a2.16 2.16 0 0 0-.854-.882 2.34 2.34 0 0 0-1.148-.294q-.616 0-1.148.294-.518.294-.826.882-.308.573-.308 1.414 0 1.245.63 1.932.644.672 1.61.672m9.474-6.58q.91 0 1.624.378.728.378 1.134 1.12t.406 1.792v4.55h-1.582v-4.312q0-1.036-.518-1.582-.519-.56-1.414-.56-.897 0-1.428.56-.519.546-.518 1.582v4.312h-1.596v-7.714h1.596v.882q.391-.477.994-.742.615-.267 1.302-.266m13.274 7.938q-1.357 0-2.506-.63a4.85 4.85 0 0 1-1.806-1.778q-.657-1.148-.658-2.576 0-1.428.658-2.562a4.75 4.75 0 0 1 1.806-1.764 5.04 5.04 0 0 1 2.506-.644q1.372 0 2.506.644a4.6 4.6 0 0 1 1.806 1.764q.658 1.134.658 2.562t-.658 2.576a4.7 4.7 0 0 1-1.806 1.778q-1.134.63-2.506.63m0-1.386q.966 0 1.722-.434a3.07 3.07 0 0 0 1.176-1.26q.434-.827.434-1.904 0-1.078-.434-1.89a2.98 2.98 0 0 0-1.176-1.246q-.756-.434-1.722-.434t-1.722.434-1.19 1.246q-.42.812-.42 1.89t.42 1.904q.435.812 1.19 1.26.756.434 1.722.434m8.137-5.306q.35-.588.924-.91.588-.336 1.386-.336v1.652h-.406q-.939 0-1.428.476-.477.476-.476 1.652v4.06h-1.596v-7.714h1.596zm3.245 2.702q0-1.162.476-2.058a3.55 3.55 0 0 1 3.178-1.89q.755 0 1.484.336.741.322 1.176.868V15.07h1.61v10.36h-1.61v-1.162q-.393.56-1.092.924-.687.364-1.582.364a3.5 3.5 0 0 1-1.848-.504 3.73 3.73 0 0 1-1.316-1.428q-.477-.925-.476-2.086m6.314.028q0-.798-.336-1.386-.323-.588-.854-.896a2.26 2.26 0 0 0-1.148-.308 2.25 2.25 0 0 0-1.148.308q-.532.294-.868.882-.322.573-.322 1.372 0 .797.322 1.4.336.602.868.924a2.3 2.3 0 0 0 2.296 0q.531-.308.854-.896.336-.602.336-1.4m10.776-.182q0 .433-.056.784h-5.894q.07.924.686 1.484t1.512.56q1.288 0 1.82-1.078h1.722a3.5 3.5 0 0 1-1.274 1.75q-.91.672-2.268.672-1.106 0-1.988-.49a3.66 3.66 0 0 1-1.372-1.4q-.49-.91-.49-2.1t.476-2.086a3.44 3.44 0 0 1 1.358-1.4q.882-.49 2.016-.49 1.092 0 1.946.476a3.35 3.35 0 0 1 1.33 1.344q.476.853.476 1.974m-1.666-.504q-.013-.883-.63-1.414-.616-.532-1.526-.532-.826 0-1.414.532-.588.517-.7 1.414zm4.833-2.044q.35-.588.924-.91.588-.336 1.386-.336v1.652h-.406q-.939 0-1.428.476-.477.476-.476 1.652v4.06h-1.596v-7.714h1.596zm6.577 6.72q-.91 0-1.638-.322a2.96 2.96 0 0 1-1.134-.896 2.26 2.26 0 0 1-.448-1.274h1.652q.042.49.462.826.433.321 1.078.322.672 0 1.036-.252.378-.267.378-.672 0-.434-.42-.644-.406-.21-1.302-.462a13 13 0 0 1-1.414-.462 2.5 2.5 0 0 1-.952-.686q-.392-.462-.392-1.218 0-.616.364-1.12.363-.518 1.036-.812.686-.294 1.568-.294 1.316 0 2.114.672.811.657.868 1.806h-1.596a1.14 1.14 0 0 0-.42-.826q-.378-.309-1.022-.308-.63 0-.966.238a.74.74 0 0 0-.336.63.68.68 0 0 0 .224.518q.224.21.546.336.321.111.952.294a9.3 9.3 0 0 1 1.372.462q.546.224.938.672.391.447.406 1.19a2 2 0 0 1-.364 1.176q-.364.518-1.036.812-.659.294-1.554.294m14.881-2.898q0 .7-.35 1.316-.336.615-1.008 1.036-.658.42-1.568.504v1.134h-.91v-1.134q-1.316-.127-2.128-.826-.812-.7-.812-1.848h1.708q.042.546.35.91.307.35.882.448v-3.08a12 12 0 0 1-1.526-.476 2.56 2.56 0 0 1-1.008-.784q-.406-.532-.406-1.456 0-1.162.812-1.918.812-.77 2.128-.896v-1.134h.91v1.134q1.231.112 1.974.784.756.657.854 1.82h-1.708a1.34 1.34 0 0 0-.336-.77 1.47 1.47 0 0 0-.784-.476v3.024q.938.224 1.526.476.588.237.994.77.406.518.406 1.442m-5.152-4.34q0 .573.336.896.35.321.98.518v-2.828q-.601.07-.966.434-.35.363-.35.98m2.226 5.88q.616-.099.966-.49.35-.407.35-.966 0-.56-.35-.868-.336-.323-.966-.518zm11.835-7.602h-4.69v2.786q.295-.393.868-.658a3 3 0 0 1 1.246-.266q1.176 0 1.904.504.743.504 1.05 1.274.322.77.322 1.624 0 1.035-.406 1.848a2.9 2.9 0 0 1-1.19 1.26q-.783.462-1.932.462-1.526 0-2.45-.756-.923-.757-1.106-2.002h1.554q.155.657.686 1.05.532.378 1.33.378.995 0 1.484-.602.504-.603.504-1.596 0-1.008-.504-1.54-.503-.546-1.484-.546-.685 0-1.162.35a1.9 1.9 0 0 0-.672.924h-1.512v-5.894h6.16zm8.942 0h-4.69v2.786q.294-.393.868-.658a3 3 0 0 1 1.246-.266q1.175 0 1.904.504.741.504 1.05 1.274a4.2 4.2 0 0 1 .322 1.624q0 1.035-.406 1.848a2.93 2.93 0 0 1-1.19 1.26q-.784.462-1.932.462-1.526 0-2.45-.756-.924-.757-1.106-2.002h1.554q.153.657.686 1.05.531.378 1.33.378.993 0 1.484-.602.504-.603.504-1.596 0-1.008-.504-1.54-.504-.546-1.484-.546-.687 0-1.162.35a1.9 1.9 0 0 0-.672.924h-1.512v-5.894h6.16zm10.089 4.452h-2.828v2.898h-1.484v-2.898h-2.828v-1.344h2.828v-2.898h1.484v2.898h2.828z"/><path stroke="#002c4e" stroke-linecap="round" stroke-linejoin="round" stroke-width="2" d="M20 69.43h16M20 76.43h16M20 83.43h16"/><path fill="#002c4e" d="m188.603 69.047-5.106 16.33h-4.324l-5.129-16.33h3.114l3.768 12.96h.924l3.75-12.96zm14.988 0v16.33h-2.893v-6.965h-7.363v6.963h-2.893v-16.33h2.893v6.608h7.363v-6.607h2.893zM169.449 79.75a3.85 3.85 0 0 0-3.24-1.68c-.209.007-.441.036-.624.049-.788.046-2.138-.018-2.989-1.014l-1.834-2.466c-.736-1.162-.266-2.682.009-3.363.053-.114.156-.352.156-.352 1.193-3.013-.899-6.69-4.744-6.448-3.642.229-5.209 4.1-3.798 6.921a5.43 5.43 0 0 1-.221 4.754l-.502.808c-.564.841-3.294 4.327-6.018-2.25l-6.611-15.843c-1.795-4.657-9.377-2.102-7.25 3.176l9.466 22.698c.49 1.159.954 2.383 2.07 3.112 1.476.963 3.668.685 4.836-.546.328-.344.509-.716.587-.876.554-1.146 3.279-8.266 3.683-9.137.196-.424.267-.59.375-.775 1.287-2.186 3.23-2.56 4.022-2.634.632-.06 2.316-.133 3.282 1.046l1.842 2.463c.653.9.894 2.824.712 3.803-.231 1.252.284 2.72 1.352 3.522 2.683 2.027 6.244-.039 6.047-3.113-.034-.54-.217-1.268-.613-1.855z"/><path stroke="#002c4e" stroke-linecap="round" stroke-linejoin="round" stroke-width="2" d="m316 85.43-4.34-4.34M306 83.43a8 8 0 1 0 0-16 8 8 0 0 0 0 16M343 86.43a1 1 0 1 0 0-2 1 1 0 0 0 0 2M354 86.43a1 1 0 1 0 0-2 1 1 0 0 0 0 2M337.05 66.48h2l2.66 12.42a1.999 1.999 0 0 0 2 1.58h9.78a2 2 0 0 0 1.95-1.57l1.65-7.43h-16.97"/></g><defs><clipPath id="a"><path fill="#fff" d="M0 0h375v105H0z"/></clipPath></defs></svg>