<svg xmlns="http://www.w3.org/2000/svg" width="375" height="712" fill="none" viewBox="0 0 375 712"><path fill="#002c4e" d="M0 0h375v712H0z"/><path fill="#fff" d="M19.636 56.144q-1.092 0-1.872-.384a4.5 4.5 0 0 1-1.308-.972l1.2-1.212q.42.48.948.72.54.24 1.152.24.672 0 .996-.276a.91.91 0 0 0 .324-.732.95.95 0 0 0-.084-.408.6.6 0 0 0-.288-.312q-.204-.132-.6-.18l-.828-.108q-.876-.12-1.452-.432a2.1 2.1 0 0 1-.84-.84q-.276-.528-.276-1.224 0-.756.372-1.32a2.56 2.56 0 0 1 1.08-.9q.708-.324 1.692-.324.948 0 1.668.312.72.3 1.236.864l-1.212 1.224a2.3 2.3 0 0 0-.732-.564q-.42-.228-1.068-.228-.612 0-.912.216t-.3.6q0 .288.096.468.108.18.324.276.228.096.576.156l.828.132q.864.132 1.428.444t.84.816.276 1.224q0 .804-.384 1.416-.372.612-1.104.96t-1.776.348M29.428 56v-3.432h-3.192V56h-1.824v-8.376h1.824v3.336h3.192v-3.336h1.824V56zm7.028.144q-1.104 0-1.944-.492-.828-.492-1.284-1.452-.456-.972-.456-2.388 0-1.428.456-2.388t1.284-1.452q.84-.492 1.944-.492 1.116 0 1.944.492t1.284 1.452.456 2.388q0 1.416-.456 2.388-.456.96-1.284 1.452t-1.944.492m0-1.62q.552 0 .936-.24.396-.252.6-.72.216-.468.216-1.128v-1.248q0-.672-.216-1.128a1.5 1.5 0 0 0-.6-.708q-.384-.252-.936-.252-.54 0-.936.252a1.57 1.57 0 0 0-.612.708q-.204.456-.204 1.128v1.248q0 .66.204 1.128.216.468.612.72.396.24.936.24M43.486 56h-1.824v-8.376h3.96q.78 0 1.344.336.576.336.888.948.312.6.312 1.392t-.312 1.392-.888.948q-.564.336-1.344.336h-2.136zm0-6.792v2.184h1.92q.276 0 .468-.096a.7.7 0 0 0 .3-.276.9.9 0 0 0 .108-.456v-.528a.9.9 0 0 0-.108-.456.7.7 0 0 0-.3-.276 1.04 1.04 0 0 0-.468-.096z"/><path stroke="#fff" stroke-linecap="round" stroke-linejoin="round" stroke-width="2" d="M332 52h14M339 45v14"/><mask id="a" fill="#fff"><path d="M16 88h343v72H16z"/></mask><path fill="#fff" fill-opacity=".5" d="M16 88v1h343v-2H16z" mask="url(#a)"/><path fill="#fff" d="M23.98 128h-1.896l-.6-1.992h-2.796l-.6 1.992H16.24l2.76-8.376h2.256zm-2.94-3.54-.516-1.74-.42-1.44h-.06l-.408 1.44-.516 1.74zm4.099 3.54v-8.376h4.068q1.032 0 1.62.588t.588 1.56q0 .636-.216 1.032a1.28 1.28 0 0 1-.564.564q-.348.18-.78.204v.072q.3 0 .624.108t.612.336.468.612q.18.372.18.912 0 .66-.288 1.2a2.23 2.23 0 0 1-.768.864q-.48.324-1.104.324zm1.824-3.456v1.92h2.1q.24 0 .408-.084a.7.7 0 0 0 .276-.264.8.8 0 0 0 .096-.408v-.408a.8.8 0 0 0-.096-.408.6.6 0 0 0-.276-.252.8.8 0 0 0-.408-.096zm0-3.384v1.896h1.812q.24 0 .408-.084a.6.6 0 0 0 .264-.264.9.9 0 0 0 .096-.42v-.36a.8.8 0 0 0-.096-.408.53.53 0 0 0-.264-.264.8.8 0 0 0-.408-.096zm9.54 6.984q-1.104 0-1.944-.492-.828-.492-1.284-1.452-.456-.972-.456-2.388 0-1.428.456-2.388t1.284-1.452q.84-.492 1.944-.492 1.116 0 1.944.492t1.284 1.452.456 2.388q0 1.416-.456 2.388-.456.96-1.284 1.452t-1.944.492m0-1.62q.552 0 .936-.24.396-.252.6-.72.216-.468.216-1.128v-1.248q0-.672-.216-1.128a1.5 1.5 0 0 0-.6-.708q-.384-.252-.936-.252-.54 0-.936.252a1.57 1.57 0 0 0-.612.708q-.204.456-.204 1.128v1.248q0 .66.204 1.128.216.468.612.72.396.24.936.24m5.158-6.9h1.776v5.136q0 .588.144.984.156.384.492.588.336.192.876.192t.864-.192a1.2 1.2 0 0 0 .492-.588q.156-.396.156-.984v-5.136h1.776v4.944q0 1.236-.324 2.028t-1.044 1.176q-.72.372-1.92.372t-1.92-.372a2.25 2.25 0 0 1-1.044-1.176q-.324-.792-.324-2.028zm14.14 1.62h-2.268V128H51.71v-6.756h-2.268v-1.62h6.36z"/><path stroke="#fff" stroke-linecap="round" stroke-linejoin="round" stroke-width="2" d="M332 124h14M339 117v14"/><mask id="b" fill="#fff"><path d="M16 160h343v72H16z"/></mask><path fill="#fff" fill-opacity=".5" d="M16 160v1h343v-2H16z" mask="url(#b)"/><path fill="#fff" d="M20.308 200.144q-1.128 0-1.968-.48-.828-.48-1.284-1.428t-.456-2.364.456-2.388q.456-.984 1.284-1.488.84-.516 1.968-.516 1.152 0 1.908.48.768.48 1.224 1.488l-1.572.816a1.7 1.7 0 0 0-.528-.84q-.36-.324-1.032-.324-.804 0-1.296.528-.48.516-.48 1.512v1.344q0 .984.48 1.512.492.528 1.296.528.672 0 1.068-.36.408-.372.6-.888l1.488.864q-.468.948-1.236 1.476t-1.92.528M31.703 200h-1.896l-.6-1.992H26.41l-.6 1.992h-1.848l2.76-8.376h2.256zm-2.94-3.54-.516-1.74-.42-1.44h-.06l-.408 1.44-.516 1.74zm9.114 3.54h-5.016v-8.376h1.825v6.756h3.191zm6.364 0h-5.016v-8.376h1.824v6.756h3.192zm7.543.144q-1.104 0-1.944-.492-.828-.492-1.284-1.452-.456-.972-.456-2.388 0-1.428.456-2.388t1.284-1.452q.84-.492 1.944-.492 1.116 0 1.944.492t1.284 1.452.456 2.388q0 1.416-.456 2.388-.456.96-1.284 1.452t-1.944.492m0-1.62q.552 0 .936-.24.396-.252.6-.72.216-.468.216-1.128v-1.248q0-.672-.216-1.128a1.5 1.5 0 0 0-.6-.708q-.384-.252-.936-.252-.54 0-.936.252a1.57 1.57 0 0 0-.612.708q-.204.456-.204 1.128v1.248q0 .66.204 1.128.216.468.612.72.396.24.936.24m7.03-1.596V200H56.99v-8.376h3.972q.78 0 1.344.336a2.3 2.3 0 0 1 .876.936q.312.6.312 1.404 0 .84-.384 1.488-.372.636-1.14.924L63.614 200h-2.028l-1.464-3.072zm0-1.536h1.92q.276 0 .468-.096a.7.7 0 0 0 .3-.276.9.9 0 0 0 .108-.456v-.528a.9.9 0 0 0-.108-.456.7.7 0 0 0-.3-.276 1.04 1.04 0 0 0-.468-.096h-1.92zm14.858-2.148h-2.268V200H69.58v-6.756h-2.268v-1.62h6.36zM80.62 200h-5.7v-8.376h5.7v1.62h-3.876v1.716h3.324v1.608h-3.324v1.812h3.876zm.857 0 2.688-4.332-2.556-4.044h2.124l1.632 2.832h.036l1.656-2.832h1.968l-2.58 4.08L89.17 200h-2.112l-1.812-3.084h-.036L83.445 200zm14.566-6.756h-2.268V200h-1.824v-6.756h-2.268v-1.62h6.36z"/><path stroke="#fff" stroke-linecap="round" stroke-linejoin="round" stroke-width="2" d="M332 196h14M339 189v14"/><mask id="c" fill="#fff"><path d="M16 232h343v72H16z"/></mask><path fill="#fff" fill-opacity=".5" d="M16 232v1h343v-2H16z" mask="url(#c)"/><path fill="#fff" d="M21.94 272h-5.016v-8.376h1.824v6.756h3.192zm7.047 0h-5.7v-8.376h5.7v1.62h-3.876v1.716h3.324v1.608h-3.324v1.812h3.876zm8.645 0h-1.896l-.6-1.992H32.34l-.6 1.992h-1.848l2.76-8.376h2.256zm-2.94-3.54-.516-1.74-.42-1.44h-.06l-.408 1.44-.516 1.74zm5.923.468V272h-1.824v-8.376h3.972q.78 0 1.344.336a2.3 2.3 0 0 1 .876.936q.312.6.312 1.404 0 .84-.384 1.488-.372.636-1.14.924L45.415 272h-2.028l-1.464-3.072zm0-1.536h1.92q.276 0 .468-.096a.7.7 0 0 0 .3-.276.9.9 0 0 0 .108-.456v-.528a.9.9 0 0 0-.108-.456.7.7 0 0 0-.3-.276 1.04 1.04 0 0 0-.468-.096h-1.92zM51.725 272l-2.292-3.96-.804-1.68h-.036V272h-1.716v-8.376h1.992l2.292 3.96.804 1.68h.036v-5.64h1.716V272z"/><path stroke="#fff" stroke-linecap="round" stroke-linejoin="round" stroke-width="2" d="M332 268h14M339 261v14"/><mask id="d" fill="#fff"><path d="M16 304h343v72H16z"/></mask><path fill="#fff" fill-opacity=".5" d="M16 304v1h343v-2H16zm343 72v-1H16v2h343z" mask="url(#d)"/><path fill="#fff" d="M19.636 344.144q-1.092 0-1.872-.384a4.5 4.5 0 0 1-1.308-.972l1.2-1.212q.42.48.948.72.54.24 1.152.24.672 0 .996-.276a.91.91 0 0 0 .324-.732.95.95 0 0 0-.084-.408.6.6 0 0 0-.288-.312q-.204-.132-.6-.18l-.828-.108q-.876-.12-1.452-.432a2.1 2.1 0 0 1-.84-.84q-.276-.528-.276-1.224 0-.756.372-1.32a2.56 2.56 0 0 1 1.08-.9q.708-.324 1.692-.324.948 0 1.668.312.72.3 1.236.864l-1.212 1.224a2.3 2.3 0 0 0-.732-.564q-.42-.228-1.068-.228-.612 0-.912.216t-.3.6q0 .288.096.468.108.18.324.276.228.096.576.156l.828.132q.864.132 1.428.444t.84.816.276 1.224q0 .804-.384 1.416-.372.612-1.104.96t-1.776.348m4.728-8.52h1.776v5.136q0 .588.144.984.156.384.492.588.336.192.876.192t.864-.192a1.2 1.2 0 0 0 .492-.588q.156-.396.156-.984v-5.136h1.776v4.944q0 1.236-.324 2.028t-1.044 1.176q-.72.372-1.92.372t-1.92-.372a2.25 2.25 0 0 1-1.044-1.176q-.324-.792-.324-2.028zM34.568 344h-1.824v-8.376h3.96q.78 0 1.344.336.576.336.888.948.312.6.312 1.392t-.312 1.392-.888.948q-.564.336-1.344.336h-2.136zm0-6.792v2.184h1.92q.276 0 .468-.096a.7.7 0 0 0 .3-.276.9.9 0 0 0 .108-.456v-.528a.9.9 0 0 0-.108-.456.7.7 0 0 0-.3-.276 1.04 1.04 0 0 0-.468-.096zM42.443 344H40.62v-8.376h3.96q.78 0 1.344.336.576.336.888.948.312.6.312 1.392t-.312 1.392-.888.948q-.564.336-1.344.336h-2.136zm0-6.792v2.184h1.92q.276 0 .468-.096a.7.7 0 0 0 .3-.276.9.9 0 0 0 .108-.456v-.528a.9.9 0 0 0-.108-.456.7.7 0 0 0-.3-.276 1.04 1.04 0 0 0-.468-.096zm9.411 6.936q-1.104 0-1.944-.492-.828-.492-1.284-1.452-.456-.972-.456-2.388 0-1.428.456-2.388t1.284-1.452q.84-.492 1.944-.492 1.116 0 1.944.492t1.284 1.452.456 2.388q0 1.416-.456 2.388-.456.96-1.284 1.452t-1.944.492m0-1.62q.552 0 .936-.24.396-.252.6-.72.216-.468.216-1.128v-1.248q0-.672-.216-1.128a1.5 1.5 0 0 0-.6-.708q-.384-.252-.936-.252-.54 0-.936.252a1.57 1.57 0 0 0-.612.708q-.204.456-.204 1.128v1.248q0 .66.204 1.128.216.468.612.72.396.24.936.24m7.03-1.596V344h-1.823v-8.376h3.972q.78 0 1.344.336a2.3 2.3 0 0 1 .876.936q.312.6.312 1.404 0 .84-.384 1.488-.372.636-1.14.924L63.685 344h-2.028l-1.464-3.072zm0-1.536h1.92q.277 0 .469-.096a.7.7 0 0 0 .3-.276.9.9 0 0 0 .108-.456v-.528a.9.9 0 0 0-.108-.456.7.7 0 0 0-.3-.276 1.04 1.04 0 0 0-.468-.096h-1.92zm11.73-2.148h-2.268V344h-1.824v-6.756h-2.268v-1.62h6.36z"/><path stroke="#fff" stroke-linecap="round" stroke-linejoin="round" stroke-width="2" d="M332 340h14M339 333v14"/><path fill="#fff" d="m287.669 495.934-24.254 77.563h-20.541l-24.362-77.563h14.794l17.897 61.561h4.386l17.813-61.561zm71.191 0v77.563h-13.74v-33.081h-34.976v33.073h-13.74v-77.563h13.74v31.384h34.976v-31.384h13.74zm-162.173 50.832c-3.446-5.127-9.46-8.131-15.39-7.978-.994.031-2.094.168-2.965.229-3.745.222-10.156-.084-14.198-4.814 0 0-8.697-11.692-8.712-11.715-3.492-5.517-1.261-12.738.046-15.971.252-.542.741-1.673.741-1.673 5.663-14.313-4.272-31.782-22.535-30.628-17.301 1.085-24.744 19.471-18.042 32.874 1.077 2.392 4.684 11.983-1.047 22.582l-2.384 3.836c-2.683 3.996-15.65 20.556-28.588-10.683l-31.4-75.256c-8.528-22.123-44.543-9.987-34.441 15.085l44.964 107.817c2.33 5.502 4.531 11.317 9.835 14.779 7.007 4.577 17.423 3.255 22.97-2.591 1.56-1.635 2.415-3.4 2.79-4.164 2.629-5.441 15.574-39.264 17.492-43.398.932-2.017 1.268-2.804 1.78-3.683 6.114-10.385 15.345-12.158 19.104-12.509 3.004-.283 11.005-.635 15.59 4.967l8.749 11.699c3.103 4.272 4.249 13.411 3.386 18.065-1.101 5.945 1.345 12.922 6.419 16.728 12.746 9.628 29.657-.184 28.725-14.787-.161-2.56-1.032-6.022-2.912-8.811zM22.072 647.636v.888h-2.28V656H18.7v-7.476h-2.292v-.888zm7.344 4.824q0 .312-.036.66h-5.256q.06.972.66 1.524.612.54 1.476.54.708 0 1.176-.324.48-.336.672-.888h1.176a2.86 2.86 0 0 1-1.056 1.548q-.792.588-1.968.588-.936 0-1.68-.42a3 3 0 0 1-1.152-1.188q-.42-.78-.42-1.8t.408-1.788a2.84 2.84 0 0 1 1.14-1.176q.744-.42 1.704-.42.936 0 1.656.408t1.104 1.128q.396.708.396 1.608m-1.128-.228q0-.624-.276-1.068a1.74 1.74 0 0 0-.756-.684q-.468-.24-1.044-.24-.828 0-1.416.528-.576.528-.66 1.464zm3.662-1.74q.288-.564.816-.876.54-.312 1.308-.312v1.128h-.288q-1.836 0-1.836 1.992V656h-1.092v-6.576h1.092zm11.292-1.188q.768 0 1.368.324.6.312.948.948t.348 1.548V656h-1.08v-3.72q0-.984-.492-1.5-.48-.528-1.308-.528-.852 0-1.356.552-.504.54-.504 1.572V656h-1.08v-3.72q0-.984-.492-1.5-.48-.528-1.308-.528-.852 0-1.356.552-.504.54-.504 1.572V656h-1.092v-6.576h1.092v.948q.324-.516.864-.792a2.7 2.7 0 0 1 1.212-.276q.828 0 1.464.372t.948 1.092q.276-.696.912-1.08a2.7 2.7 0 0 1 1.416-.384m6.783 6.804q-.756 0-1.356-.252a2.36 2.36 0 0 1-.948-.72 1.95 1.95 0 0 1-.384-1.068h1.128q.048.492.456.804.42.312 1.092.312.624 0 .984-.276t.36-.696q0-.432-.384-.636-.384-.216-1.188-.42a10 10 0 0 1-1.2-.384 2.3 2.3 0 0 1-.792-.588q-.324-.396-.324-1.032 0-.504.3-.924t.852-.66a3 3 0 0 1 1.26-.252q1.092 0 1.764.552t.72 1.512h-1.092a1.12 1.12 0 0 0-.42-.828q-.372-.312-1.008-.312-.588 0-.936.252a.78.78 0 0 0-.348.66q0 .324.204.54.216.204.528.336.324.12.888.276.708.192 1.152.384.444.18.756.552.324.372.336.972 0 .54-.3.972t-.852.684q-.54.24-1.248.24m10.01 0a3.4 3.4 0 0 1-1.68-.42 3.05 3.05 0 0 1-1.177-1.188q-.42-.78-.42-1.8 0-1.008.432-1.776.444-.78 1.2-1.188a3.4 3.4 0 0 1 1.692-.42q.936 0 1.692.42.756.408 1.188 1.176.444.768.444 1.788t-.456 1.8a3.1 3.1 0 0 1-1.212 1.188q-.768.42-1.704.42m0-.96q.587 0 1.103-.276t.828-.828q.324-.552.324-1.344t-.312-1.344a2 2 0 0 0-.816-.816 2.24 2.24 0 0 0-1.092-.276q-.6 0-1.104.276a1.95 1.95 0 0 0-.792.816q-.3.552-.3 1.344 0 .804.288 1.356.3.552.792.828.492.264 1.08.264m7.483-4.824h-1.38V656h-1.092v-5.676h-.852v-.9h.852v-.468q0-1.104.564-1.608.576-.516 1.836-.516v.912q-.72 0-1.02.288-.288.276-.288.924v.468h1.38zm7.124 5.76a3.7 3.7 0 0 1-1.488-.288 2.54 2.54 0 0 1-1.02-.816 2.1 2.1 0 0 1-.384-1.212h1.164q.06.588.48.996.432.396 1.248.396.78 0 1.224-.384.456-.396.456-1.008 0-.48-.264-.78a1.7 1.7 0 0 0-.66-.456q-.396-.156-1.068-.336a10 10 0 0 1-1.332-.432 2.2 2.2 0 0 1-.852-.672q-.348-.468-.348-1.248 0-.684.348-1.212t.972-.816q.636-.288 1.452-.288 1.176 0 1.92.588.756.588.852 1.56h-1.2q-.06-.48-.504-.84-.444-.372-1.176-.372-.684 0-1.116.36-.432.348-.432.984 0 .456.252.744.264.288.636.444.384.144 1.068.336.828.228 1.332.456.504.216.864.684.36.456.36 1.248 0 .612-.324 1.152t-.96.876-1.5.336m10.391-3.624q0 .312-.036.66h-5.256q.06.972.66 1.524.612.54 1.476.54.708 0 1.176-.324.48-.336.672-.888h1.176a2.86 2.86 0 0 1-1.056 1.548q-.792.588-1.968.588-.936 0-1.68-.42a3 3 0 0 1-1.152-1.188q-.42-.78-.42-1.8t.408-1.788a2.84 2.84 0 0 1 1.14-1.176q.744-.42 1.704-.42.936 0 1.656.408t1.104 1.128q.396.708.396 1.608m-1.128-.228q0-.624-.276-1.068a1.74 1.74 0 0 0-.756-.684q-.468-.24-1.044-.24-.828 0-1.416.528-.576.528-.66 1.464zm3.662-1.74q.288-.564.816-.876.54-.312 1.308-.312v1.128h-.288q-1.836 0-1.836 1.992V656h-1.092v-6.576h1.092zm5.832 4.5 2.04-5.568h1.164L94.023 656h-1.272l-2.58-6.576h1.176zm4.843-6.636a.72.72 0 0 1-.528-.216.72.72 0 0 1-.216-.528q0-.312.216-.528a.72.72 0 0 1 .528-.216q.3 0 .504.216.216.216.216.528a.72.72 0 0 1-.216.528.67.67 0 0 1-.504.216m.528 1.068V656h-1.092v-6.576zm1.453 3.276q0-1.02.408-1.776a2.94 2.94 0 0 1 1.128-1.188q.732-.42 1.668-.42 1.212 0 1.992.588.792.588 1.044 1.632h-1.176a1.68 1.68 0 0 0-.66-.948q-.48-.348-1.2-.348-.936 0-1.512.648-.576.636-.576 1.812 0 1.188.576 1.836t1.512.648q.72 0 1.2-.336t.66-.96h1.176a2.92 2.92 0 0 1-1.056 1.62q-.792.6-1.98.6-.936 0-1.668-.42a2.94 2.94 0 0 1-1.128-1.188q-.408-.768-.408-1.8m13.697-.24q0 .312-.036.66h-5.256q.06.972.66 1.524.612.54 1.476.54.708 0 1.176-.324.48-.336.672-.888h1.176a2.86 2.86 0 0 1-1.056 1.548q-.792.588-1.968.588-.936 0-1.68-.42a3 3 0 0 1-1.152-1.188q-.42-.78-.42-1.8t.408-1.788a2.84 2.84 0 0 1 1.14-1.176q.744-.42 1.704-.42.936 0 1.656.408t1.104 1.128q.396.708.396 1.608m-1.128-.228q0-.624-.276-1.068a1.74 1.74 0 0 0-.756-.684q-.468-.24-1.044-.24-.828 0-1.416.528-.576.528-.66 1.464zM137.516 650.084q0 1.044-.72 1.74-.708.684-2.172.684h-1.608V656h-1.092v-8.364h2.7q1.416 0 2.148.684.744.684.744 1.764m-2.892 1.524q.912 0 1.344-.396t.432-1.128q0-1.548-1.776-1.548h-1.608v3.072zm5.341-1.116q.288-.564.816-.876.54-.312 1.308-.312v1.128h-.288q-1.836 0-1.836 1.992V656h-1.092v-6.576h1.092zm3.949-2.136a.72.72 0 0 1-.528-.216.72.72 0 0 1-.216-.528q0-.312.216-.528a.72.72 0 0 1 .528-.216q.3 0 .504.216.216.216.216.528a.72.72 0 0 1-.216.528.67.67 0 0 1-.504.216m.528 1.068V656h-1.092v-6.576zm4.309 5.568 2.04-5.568h1.164l-2.58 6.576h-1.272l-2.58-6.576h1.176zm3.87-2.304q0-1.008.408-1.764a2.96 2.96 0 0 1 1.116-1.188 3.1 3.1 0 0 1 1.596-.42q.864 0 1.5.372t.948.936v-1.2h1.104V656h-1.104v-1.224q-.324.576-.972.96-.636.372-1.488.372a3 3 0 0 1-1.584-.432 3.03 3.03 0 0 1-1.116-1.212q-.408-.78-.408-1.776m5.568.012q0-.744-.3-1.296a2.07 2.07 0 0 0-.816-.84 2.14 2.14 0 0 0-1.116-.3q-.612 0-1.116.288a2.1 2.1 0 0 0-.804.84q-.3.552-.3 1.296 0 .756.3 1.32.3.552.804.852a2.2 2.2 0 0 0 1.116.288q.612 0 1.116-.288.516-.3.816-.852.3-.564.3-1.308m2.542 0q0-1.02.408-1.776a2.94 2.94 0 0 1 1.128-1.188q.732-.42 1.668-.42 1.212 0 1.992.588.792.588 1.044 1.632h-1.176a1.68 1.68 0 0 0-.66-.948q-.48-.348-1.2-.348-.936 0-1.512.648-.576.636-.576 1.812 0 1.188.576 1.836t1.512.648q.72 0 1.2-.336t.66-.96h1.176a2.92 2.92 0 0 1-1.056 1.62q-.792.6-1.98.6-.936 0-1.668-.42a2.94 2.94 0 0 1-1.128-1.188q-.408-.768-.408-1.8m13.361-3.276-3.96 9.672h-1.128l1.296-3.168-2.652-6.504h1.212l2.064 5.328 2.04-5.328zm9.889.66q0 1.044-.72 1.74-.708.684-2.172.684h-1.608V656h-1.092v-8.364h2.7q1.416 0 2.148.684.744.684.744 1.764m-2.892 1.524q.912 0 1.344-.396t.432-1.128q0-1.548-1.776-1.548h-1.608v3.072zm7.117 4.5a3.4 3.4 0 0 1-1.68-.42 3.05 3.05 0 0 1-1.176-1.188q-.42-.78-.42-1.8 0-1.008.432-1.776.444-.78 1.2-1.188a3.4 3.4 0 0 1 1.692-.42q.936 0 1.692.42.756.408 1.188 1.176.444.768.444 1.788t-.456 1.8a3.1 3.1 0 0 1-1.212 1.188q-.768.42-1.704.42m0-.96q.588 0 1.104-.276t.828-.828q.324-.552.324-1.344t-.312-1.344a2 2 0 0 0-.816-.816 2.24 2.24 0 0 0-1.092-.276q-.6 0-1.104.276a1.95 1.95 0 0 0-.792.816q-.3.552-.3 1.344 0 .804.288 1.356.3.552.792.828.492.264 1.08.264m5.9-8.028V656h-1.092v-8.88zm2.425 1.236a.72.72 0 0 1-.528-.216.72.72 0 0 1-.216-.528q0-.312.216-.528a.72.72 0 0 1 .528-.216q.3 0 .504.216.216.216.216.528a.72.72 0 0 1-.216.528.67.67 0 0 1-.504.216m.528 1.068V656h-1.092v-6.576zm1.453 3.276q0-1.02.408-1.776a2.94 2.94 0 0 1 1.128-1.188q.732-.42 1.668-.42 1.212 0 1.992.588.792.588 1.044 1.632h-1.176a1.68 1.68 0 0 0-.66-.948q-.48-.348-1.2-.348-.936 0-1.512.648-.576.636-.576 1.812 0 1.188.576 1.836t1.512.648q.72 0 1.2-.336t.66-.96h1.176a2.92 2.92 0 0 1-1.056 1.62q-.792.6-1.98.6-.936 0-1.668-.42a2.94 2.94 0 0 1-1.128-1.188q-.408-.768-.408-1.8m13.361-3.276-3.96 9.672h-1.128l1.296-3.168-2.652-6.504h1.212l2.064 5.328 2.04-5.328zM20.764 671.552q1.212 0 2.16.552.948.54 1.464 1.512.528.96.528 2.196t-.528 2.208a3.8 3.8 0 0 1-1.464 1.512q-.948.54-2.16.54-1.224 0-2.172-.54a3.9 3.9 0 0 1-1.476-1.512q-.528-.972-.528-2.208t.528-2.196a3.8 3.8 0 0 1 1.476-1.512q.948-.552 2.172-.552m0 .48q-1.116 0-1.944.48a3.16 3.16 0 0 0-1.272 1.32q-.444.852-.444 1.98 0 1.116.444 1.98a3.24 3.24 0 0 0 1.272 1.332q.828.48 1.944.48 1.104 0 1.92-.48a3.24 3.24 0 0 0 1.272-1.332q.444-.864.444-1.98 0-1.128-.444-1.98a3.16 3.16 0 0 0-1.272-1.32q-.816-.48-1.92-.48m-.024.996q-.72 0-1.32.336a2.44 2.44 0 0 0-.936.972q-.348.624-.348 1.464t.348 1.476q.348.624.936.972.6.336 1.32.336.9 0 1.56-.48.66-.492.9-1.308h-1.008q-.36.996-1.452.996-.72 0-1.176-.516t-.456-1.464q0-.96.456-1.476t1.176-.516q.528 0 .912.264.384.252.54.732H23.2q-.228-.852-.888-1.32t-1.572-.468m8.575 6.096a57 57 0 0 0 2.388-2.004 9.8 9.8 0 0 0 1.452-1.644q.6-.864.6-1.692 0-.78-.384-1.224-.372-.456-1.212-.456-.816 0-1.272.516-.444.504-.48 1.356h-1.056q.048-1.344.816-2.076t1.98-.732q1.236 0 1.956.684.732.684.732 1.884 0 .996-.6 1.944a8.6 8.6 0 0 1-1.344 1.656 35 35 0 0 1-1.932 1.656h4.128v.912h-5.772zm7.034-3.552q0-2.064.673-3.216.671-1.164 2.352-1.164 1.667 0 2.34 1.164.671 1.152.672 3.216 0 2.1-.672 3.264T39.374 680q-1.68 0-2.352-1.164t-.672-3.264m4.957 0q0-1.044-.145-1.764-.131-.732-.564-1.176-.42-.444-1.224-.444-.816 0-1.247.444-.42.444-.564 1.176-.133.72-.133 1.764 0 1.08.133 1.812.144.732.564 1.176.432.444 1.248.444.803 0 1.223-.444.433-.444.564-1.176.145-.732.145-1.812m2.447 3.552a57 57 0 0 0 2.388-2.004 9.8 9.8 0 0 0 1.452-1.644q.6-.864.6-1.692 0-.78-.384-1.224-.372-.456-1.212-.456-.816 0-1.272.516-.444.504-.48 1.356h-1.056q.048-1.344.816-2.076t1.98-.732q1.236 0 1.956.684.732.684.732 1.884 0 .996-.6 1.944a8.6 8.6 0 0 1-1.344 1.656 35 35 0 0 1-1.932 1.656h4.128v.912h-5.772zm11.87-5.736q-.264-1.332-1.644-1.332-1.068 0-1.596.828-.528.816-.516 2.7.276-.624.912-.972.648-.36 1.44-.36 1.236 0 1.968.768.744.768.744 2.124 0 .816-.324 1.464a2.4 2.4 0 0 1-.96 1.032q-.636.384-1.548.384-1.236 0-1.932-.552t-.972-1.524-.276-2.4q0-4.404 3.072-4.404 1.176 0 1.848.636t.792 1.608zm-1.632 1.788q-.516 0-.972.216a1.73 1.73 0 0 0-.744.636q-.276.42-.276 1.032 0 .912.528 1.488.528.564 1.512.564.84 0 1.332-.516.504-.528.504-1.416 0-.936-.48-1.464-.48-.54-1.404-.54m14.704-3.54L65.54 680h-1.26l-3.156-8.364h1.164l2.628 7.212 2.628-7.212zm1.762.72a.72.72 0 0 1-.528-.216.72.72 0 0 1-.216-.528q0-.312.216-.528a.72.72 0 0 1 .528-.216q.3 0 .504.216.216.216.216.528a.72.72 0 0 1-.216.528.67.67 0 0 1-.504.216m.528 1.068V680h-1.092v-6.576zm2.953 1.224q.336-.588.984-.96a2.9 2.9 0 0 1 1.476-.372q.888 0 1.596.42t1.116 1.188q.408.756.408 1.764 0 .996-.408 1.776a3 3 0 0 1-2.712 1.644q-.852 0-1.5-.372a2.54 2.54 0 0 1-.96-.948V680h-1.092v-8.88h1.092zm4.464 2.04q0-.744-.3-1.296a2.07 2.07 0 0 0-.816-.84 2.2 2.2 0 0 0-1.116-.288q-.6 0-1.116.3a2.15 2.15 0 0 0-.816.852q-.3.552-.3 1.284 0 .744.3 1.308.312.552.816.852.516.288 1.116.288.612 0 1.116-.288.516-.3.816-.852.3-.564.3-1.32m3.645-2.196q.288-.564.816-.876.54-.312 1.308-.312v1.128h-.288q-1.836 0-1.836 1.992V680h-1.092v-6.576h1.092zm2.977 2.196q0-1.008.408-1.764a2.96 2.96 0 0 1 1.116-1.188 3.1 3.1 0 0 1 1.596-.42q.864 0 1.5.372t.948.936v-1.2h1.104V680h-1.104v-1.224q-.324.576-.972.96-.636.372-1.488.372a3 3 0 0 1-1.584-.432 3.03 3.03 0 0 1-1.116-1.212q-.408-.78-.408-1.776m5.568.012q0-.744-.3-1.296a2.07 2.07 0 0 0-.816-.84 2.14 2.14 0 0 0-1.116-.3q-.612 0-1.116.288a2.1 2.1 0 0 0-.804.84q-.3.552-.3 1.296 0 .756.3 1.32.3.552.804.852a2.2 2.2 0 0 0 1.116.288q.612 0 1.116-.288.516-.3.816-.852.3-.564.3-1.308m6.153-3.396q1.2 0 1.944.732.744.72.744 2.088V680h-1.08v-3.72q0-.984-.492-1.5-.492-.528-1.344-.528-.864 0-1.38.54-.504.54-.504 1.572V680h-1.092v-6.576h1.092v.936q.324-.504.876-.78a2.8 2.8 0 0 1 1.236-.276m5.804 1.02v3.876q0 .48.204.684.204.192.708.192h.804V680h-.984q-.912 0-1.368-.42t-.456-1.38v-3.876h-.852v-.9h.852v-1.656h1.092v1.656h1.716v.9zm12.682-2.688V680h-1.092v-3.792h-4.26V680h-1.092v-8.364h1.092v3.672h4.26v-3.672zm7.865 4.824q0 .312-.036.66h-5.256q.06.972.66 1.524.612.54 1.476.54.708 0 1.176-.324.48-.336.672-.888h1.176a2.86 2.86 0 0 1-1.056 1.548q-.792.588-1.968.588-.936 0-1.68-.42a3 3 0 0 1-1.152-1.188q-.42-.78-.42-1.8t.408-1.788a2.84 2.84 0 0 1 1.14-1.176q.744-.42 1.704-.42.936 0 1.656.408t1.104 1.128q.396.708.396 1.608m-1.128-.228q0-.624-.276-1.068a1.74 1.74 0 0 0-.756-.684q-.468-.24-1.044-.24-.828 0-1.416.528-.576.528-.66 1.464zm2.161.456q0-1.008.408-1.764a2.96 2.96 0 0 1 1.116-1.188 3.1 3.1 0 0 1 1.596-.42q.864 0 1.5.372t.948.936v-1.2h1.104V680h-1.104v-1.224q-.324.576-.972.96-.636.372-1.488.372a3 3 0 0 1-1.584-.432 3.03 3.03 0 0 1-1.116-1.212q-.408-.78-.408-1.776m5.568.012q0-.744-.3-1.296a2.07 2.07 0 0 0-.816-.84 2.14 2.14 0 0 0-1.116-.3q-.612 0-1.116.288a2.1 2.1 0 0 0-.804.84q-.3.552-.3 1.296 0 .756.3 1.32.3.552.804.852a2.2 2.2 0 0 0 1.116.288q.612 0 1.116-.288.516-.3.816-.852.3-.564.3-1.308m4.042-5.58V680h-1.092v-8.88zm3.193 3.204v3.876q0 .48.204.684.204.192.708.192h.804V680h-.984q-.912 0-1.368-.42t-.456-1.38v-3.876h-.852v-.9h.852v-1.656h1.092v1.656h1.716v.9zm6.303-1.02q.744 0 1.344.324.6.312.936.948.348.636.348 1.548V680h-1.08v-3.72q0-.984-.492-1.5-.492-.528-1.344-.528-.864 0-1.38.54-.504.54-.504 1.572V680h-1.092v-8.88h1.092v3.24a2.16 2.16 0 0 1 .888-.78 2.9 2.9 0 0 1 1.284-.276m4.76 6.768a.72.72 0 0 1-.528-.216.72.72 0 0 1-.216-.528q0-.312.216-.528a.72.72 0 0 1 .528-.216q.3 0 .504.216.216.216.216.528a.72.72 0 0 1-.216.528.67.67 0 0 1-.504.216m10.314-1.932h-3.648l-.672 1.86h-1.152l3.024-8.316h1.26l3.012 8.316h-1.152zm-.312-.888-1.512-4.224-1.512 4.224zm4.546-6.132V680h-1.092v-8.88zm2.953 0V680h-1.092v-8.88zm6.153 3.372q.288-.564.816-.876.54-.312 1.308-.312v1.128h-.288q-1.836 0-1.836 1.992V680h-1.092v-6.576h1.092zm3.948-2.136a.72.72 0 0 1-.528-.216.72.72 0 0 1-.216-.528q0-.312.216-.528a.72.72 0 0 1 .528-.216q.3 0 .504.216.216.216.216.528a.72.72 0 0 1-.216.528.67.67 0 0 1-.504.216m.528 1.068V680h-1.092v-6.576zm4.574-.108q.852 0 1.488.372.648.372.96.936v-1.2h1.104v6.72q0 .9-.384 1.596-.384.708-1.104 1.104-.708.396-1.656.396-1.296 0-2.16-.612a2.4 2.4 0 0 1-1.02-1.668h1.08q.18.6.744.96.564.372 1.356.372.9 0 1.464-.564.576-.564.576-1.584v-1.38a2.6 2.6 0 0 1-.96.96q-.636.384-1.488.384a3.04 3.04 0 0 1-1.596-.432 3.03 3.03 0 0 1-1.116-1.212q-.408-.78-.408-1.776 0-1.008.408-1.764a2.96 2.96 0 0 1 1.116-1.188 3.1 3.1 0 0 1 1.596-.42m2.448 3.384q0-.744-.3-1.296a2.07 2.07 0 0 0-.816-.84 2.14 2.14 0 0 0-1.116-.3q-.612 0-1.116.288a2.1 2.1 0 0 0-.804.84q-.3.552-.3 1.296 0 .756.3 1.32.3.552.804.852a2.2 2.2 0 0 0 1.116.288q.612 0 1.116-.288.516-.3.816-.852.3-.564.3-1.308m6.213-3.396q.744 0 1.344.324.6.312.936.948.348.636.348 1.548V680h-1.08v-3.72q0-.984-.492-1.5-.492-.528-1.344-.528-.864 0-1.38.54-.504.54-.504 1.572V680h-1.092v-8.88h1.092v3.24a2.16 2.16 0 0 1 .888-.78 2.9 2.9 0 0 1 1.284-.276m5.744 1.02v3.876q0 .48.204.684.204.192.708.192h.804V680h-.984q-.912 0-1.368-.42t-.456-1.38v-3.876h-.852v-.9h.852v-1.656h1.092v1.656h1.716v.9zm5.367 5.784q-.756 0-1.356-.252a2.36 2.36 0 0 1-.948-.72 1.95 1.95 0 0 1-.384-1.068h1.128q.048.492.456.804.42.312 1.092.312.624 0 .984-.276t.36-.696q0-.432-.384-.636-.384-.216-1.188-.42a10 10 0 0 1-1.2-.384 2.3 2.3 0 0 1-.792-.588q-.324-.396-.324-1.032 0-.504.3-.924t.852-.66a3 3 0 0 1 1.26-.252q1.092 0 1.764.552t.72 1.512h-1.092a1.12 1.12 0 0 0-.42-.828q-.372-.312-1.008-.312-.588 0-.936.252a.78.78 0 0 0-.348.66q0 .324.204.54.216.204.528.336.324.12.888.276.708.192 1.152.384.444.18.756.552.324.372.336.972 0 .54-.3.972t-.852.684q-.54.24-1.248.24m8.233-5.616q.288-.564.816-.876.54-.312 1.308-.312v1.128h-.288q-1.836 0-1.836 1.992V680h-1.092v-6.576h1.092zm9.384 1.968q0 .312-.036.66h-5.256q.06.972.66 1.524.612.54 1.476.54.708 0 1.176-.324.48-.336.672-.888h1.176a2.86 2.86 0 0 1-1.056 1.548q-.792.588-1.968.588-.936 0-1.68-.42a3 3 0 0 1-1.152-1.188q-.42-.78-.42-1.8t.408-1.788a2.84 2.84 0 0 1 1.14-1.176q.744-.42 1.704-.42.936 0 1.656.408t1.104 1.128q.396.708.396 1.608m-1.128-.228q0-.624-.276-1.068a1.74 1.74 0 0 0-.756-.684q-.468-.24-1.044-.24-.828 0-1.416.528-.576.528-.66 1.464zm4.897 3.876q-.756 0-1.356-.252a2.36 2.36 0 0 1-.948-.72 1.95 1.95 0 0 1-.384-1.068h1.128q.048.492.456.804.42.312 1.092.312.624 0 .984-.276t.36-.696q0-.432-.384-.636-.384-.216-1.188-.42a10 10 0 0 1-1.2-.384 2.3 2.3 0 0 1-.792-.588q-.324-.396-.324-1.032 0-.504.3-.924t.852-.66a3 3 0 0 1 1.26-.252q1.092 0 1.764.552t.72 1.512h-1.092a1.12 1.12 0 0 0-.42-.828q-.372-.312-1.008-.312-.588 0-.936.252a.78.78 0 0 0-.348.66q0 .324.204.54.216.204.528.336.324.12.888.276.708.192 1.152.384.444.18.756.552.324.372.336.972 0 .54-.3.972t-.852.684q-.54.24-1.248.24m9.942-3.648q0 .312-.036.66h-5.256q.06.972.66 1.524.612.54 1.476.54.708 0 1.176-.324.48-.336.672-.888h1.176a2.86 2.86 0 0 1-1.056 1.548q-.792.588-1.968.588-.936 0-1.68-.42a3 3 0 0 1-1.152-1.188q-.42-.78-.42-1.8t.408-1.788a2.84 2.84 0 0 1 1.14-1.176q.744-.42 1.704-.42.936 0 1.656.408t1.104 1.128q.396.708.396 1.608m-1.128-.228q0-.624-.276-1.068a1.74 1.74 0 0 0-.756-.684q-.468-.24-1.044-.24-.828 0-1.416.528-.576.528-.66 1.464zm3.661-1.74q.288-.564.816-.876.54-.312 1.308-.312v1.128h-.288q-1.836 0-1.836 1.992V680h-1.092v-6.576h1.092zm5.833 4.5 2.04-5.568h1.164l-2.58 6.576h-1.272l-2.58-6.576h1.176zm10.279-2.532q0 .312-.036.66h-5.256q.06.972.66 1.524.612.54 1.476.54.708 0 1.176-.324.48-.336.672-.888h1.176a2.86 2.86 0 0 1-1.056 1.548q-.792.588-1.968.588-.936 0-1.68-.42a3 3 0 0 1-1.152-1.188q-.42-.78-.42-1.8t.408-1.788a2.84 2.84 0 0 1 1.14-1.176q.744-.42 1.704-.42.936 0 1.656.408t1.104 1.128q.396.708.396 1.608m-1.128-.228q0-.624-.276-1.068a1.74 1.74 0 0 0-.756-.684q-.468-.24-1.044-.24-.828 0-1.416.528-.576.528-.66 1.464zm2.161.456q0-1.008.408-1.764a2.96 2.96 0 0 1 1.116-1.188q.72-.42 1.608-.42.768 0 1.428.36.66.348 1.008.924v-3.48h1.104V680h-1.104v-1.236a2.6 2.6 0 0 1-.96.972q-.636.372-1.488.372a3.04 3.04 0 0 1-1.596-.432 3.03 3.03 0 0 1-1.116-1.212q-.408-.78-.408-1.776m5.568.012q0-.744-.3-1.296a2.07 2.07 0 0 0-.816-.84 2.14 2.14 0 0 0-1.116-.3q-.612 0-1.116.288a2.1 2.1 0 0 0-.804.84q-.3.552-.3 1.296 0 .756.3 1.32.3.552.804.852a2.2 2.2 0 0 0 1.116.288q.612 0 1.116-.288.516-.3.816-.852.3-.564.3-1.308m3.297 3.372a.72.72 0 0 1-.528-.216.72.72 0 0 1-.216-.528q0-.312.216-.528a.72.72 0 0 1 .528-.216q.3 0 .504.216.216.216.216.528a.72.72 0 0 1-.216.528.67.67 0 0 1-.504.216"/></svg>