<svg xmlns="http://www.w3.org/2000/svg" fill="none" viewBox="0 0 1211 135"><g clip-path="url(#a)"><rect width="223" height="135" fill="#f8f8f7" rx="8"/><rect width="174" height="49" x="24.5" y="24.5" stroke="#002c4e" rx="24.5"/><path fill="#002c4e" d="M56.036 49.786q0 .504-.028.77h-6.342q.042.868.42 1.484.378.615.994.938.616.308 1.344.308.952 0 1.596-.462.658-.462.868-1.246h1.036a3.26 3.26 0 0 1-1.204 1.834q-.91.7-2.296.7-1.078 0-1.932-.476a3.5 3.5 0 0 1-1.344-1.372q-.476-.896-.476-2.086t.476-2.086a3.3 3.3 0 0 1 1.33-1.372q.854-.476 1.946-.476t1.904.476q.825.476 1.26 1.288.448.798.448 1.778m-.994-.028q.015-.855-.35-1.456a2.27 2.27 0 0 0-.966-.91 2.96 2.96 0 0 0-1.344-.308q-1.092 0-1.862.7t-.854 1.974zm11.887-3.542q1.344 0 2.184.854.855.84.854 2.45V54h-.966v-4.368q0-1.245-.602-1.904-.601-.658-1.638-.658-1.079 0-1.722.714-.644.714-.644 2.072V54h-.966v-4.368q0-1.245-.602-1.904t-1.652-.658q-1.079 0-1.722.714-.644.714-.644 2.072V54h-.98v-7.644h.98v1.316a2.46 2.46 0 0 1 1.036-1.078 3 3 0 0 1 1.498-.378q.994 0 1.736.476.756.476 1.092 1.4.308-.91 1.05-1.386a3.07 3.07 0 0 1 1.708-.49m4.766 3.948q0-1.176.462-2.058a3.36 3.36 0 0 1 1.302-1.372 3.7 3.7 0 0 1 1.89-.49q1.093 0 1.876.504.798.504 1.148 1.288v-1.68h.98V54h-.98v-1.694q-.363.784-1.162 1.302-.784.504-1.876.504-1.035 0-1.876-.49a3.46 3.46 0 0 1-1.302-1.386q-.462-.896-.462-2.072m6.678.014q0-.924-.378-1.624a2.7 2.7 0 0 0-1.036-1.078 2.77 2.77 0 0 0-1.428-.378q-.81 0-1.456.364-.644.364-1.022 1.064-.364.685-.364 1.638 0 .938.364 1.652.378.7 1.022 1.078.645.364 1.456.364.785 0 1.428-.378a2.7 2.7 0 0 0 1.036-1.078q.378-.7.378-1.624m3.708-5.264a.69.69 0 0 1-.504-.21.7.7 0 0 1-.21-.518q0-.307.21-.504.21-.21.504-.21t.504.21q.21.196.21.504t-.21.518a.69.69 0 0 1-.504.21m.49 1.442V54h-.98v-7.644zm3.199-2.716V54h-.98V43.64zm9.037 1.456q1.512 0 2.66.588a4.2 4.2 0 0 1 1.764 1.652q.615 1.05.616 2.422 0 1.092-.35 2.086t-1.008 1.624q-.658.615-1.54.616-.686 0-1.05-.364-.35-.378-.378-1.022-.434.645-1.106 1.022a2.95 2.95 0 0 1-1.428.364q-1.064 0-1.666-.644-.588-.645-.588-1.75 0-1.036.434-1.932.434-.91 1.204-1.456a2.95 2.95 0 0 1 1.75-.546q.7 0 1.176.308.49.308.7.896l.182-1.036h.854l-.714 4.074a3 3 0 0 0-.042.462q0 .938.812.938.602 0 1.036-.546.448-.546.672-1.372.238-.84.238-1.666 0-1.231-.532-2.128a3.37 3.37 0 0 0-1.498-1.386q-.98-.49-2.324-.49-1.68 0-3.038.826a5.85 5.85 0 0 0-2.128 2.24q-.77 1.414-.77 3.122-.015 1.904 1.148 2.954 1.162 1.065 3.178 1.064 1.275 0 2.31-.476l.154.686a7 7 0 0 1-2.674.504q-1.47 0-2.59-.574a4.1 4.1 0 0 1-1.736-1.61q-.615-1.05-.616-2.45 0-1.946.882-3.542a6.63 6.63 0 0 1 2.464-2.534q1.583-.924 3.542-.924m-1.54 8.218q.63 0 1.162-.336t.868-.938q.35-.602.434-1.372.028-.252.028-.364 0-.784-.434-1.274-.42-.504-1.204-.504-.742 0-1.302.434t-.868 1.134a3.5 3.5 0 0 0-.308 1.456q0 .811.42 1.288.42.476 1.204.476m15.665-3.528q0 .504-.028.77h-6.342q.042.868.42 1.484.379.615.994.938.617.308 1.344.308.953 0 1.596-.462.658-.462.868-1.246h1.036a3.25 3.25 0 0 1-1.204 1.834q-.91.7-2.296.7-1.077 0-1.932-.476a3.5 3.5 0 0 1-1.344-1.372q-.476-.896-.476-2.086t.476-2.086a3.3 3.3 0 0 1 1.33-1.372q.855-.476 1.946-.476 1.092 0 1.904.476a3.2 3.2 0 0 1 1.26 1.288q.448.798.448 1.778m-.994-.028q.015-.855-.35-1.456a2.27 2.27 0 0 0-.966-.91 2.96 2.96 0 0 0-1.344-.308q-1.091 0-1.862.7-.77.7-.854 1.974zm11.887-3.542q1.344 0 2.184.854.854.84.854 2.45V54h-.966v-4.368q0-1.245-.602-1.904t-1.638-.658q-1.077 0-1.722.714-.644.714-.644 2.072V54h-.966v-4.368q0-1.245-.602-1.904t-1.652-.658q-1.077 0-1.722.714-.644.714-.644 2.072V54h-.98v-7.644h.98v1.316a2.47 2.47 0 0 1 1.036-1.078 3 3 0 0 1 1.498-.378q.995 0 1.736.476.756.476 1.092 1.4.309-.91 1.05-1.386a3.07 3.07 0 0 1 1.708-.49m4.767 3.948q0-1.176.462-2.058a3.36 3.36 0 0 1 1.302-1.372 3.7 3.7 0 0 1 1.89-.49q1.092 0 1.876.504.798.504 1.148 1.288v-1.68h.98V54h-.98v-1.694q-.364.784-1.162 1.302-.784.504-1.876.504a3.65 3.65 0 0 1-1.876-.49 3.45 3.45 0 0 1-1.302-1.386q-.462-.896-.462-2.072m6.678.014q0-.924-.378-1.624a2.7 2.7 0 0 0-1.036-1.078 2.77 2.77 0 0 0-1.428-.378q-.812 0-1.456.364t-1.022 1.064q-.364.685-.364 1.638 0 .938.364 1.652.378.7 1.022 1.078.644.364 1.456.364.784 0 1.428-.378a2.7 2.7 0 0 0 1.036-1.078q.378-.7.378-1.624m3.707-5.264a.69.69 0 0 1-.504-.21.7.7 0 0 1-.21-.518q0-.307.21-.504.21-.21.504-.21t.504.21q.21.196.21.504t-.21.518a.69.69 0 0 1-.504.21m.49 1.442V54h-.98v-7.644zm3.199-2.716V54h-.98V43.64zm2.388 10.43a.7.7 0 0 1-.518-.21.73.73 0 0 1-.196-.518q0-.307.196-.504.21-.21.518-.21.294 0 .49.21.21.196.21.504t-.21.518a.64.64 0 0 1-.49.21m1.927-3.892q0-1.19.476-2.072a3.33 3.33 0 0 1 1.316-1.372q.84-.49 1.918-.49 1.413 0 2.324.7.924.7 1.19 1.904h-1.05q-.197-.825-.854-1.288-.644-.476-1.61-.476-.771 0-1.386.35-.617.35-.98 1.05-.35.686-.35 1.694t.35 1.708q.363.7.98 1.05.615.35 1.386.35.965 0 1.61-.462.657-.476.854-1.316h1.05q-.267 1.176-1.19 1.89-.924.714-2.324.714-1.078 0-1.918-.476a3.45 3.45 0 0 1-1.316-1.372q-.477-.896-.476-2.086m12.38 3.934q-1.079 0-1.946-.476a3.6 3.6 0 0 1-1.358-1.372q-.49-.896-.49-2.086t.504-2.072a3.46 3.46 0 0 1 1.372-1.372q.867-.49 1.946-.49 1.077 0 1.946.49a3.35 3.35 0 0 1 1.372 1.372q.504.882.504 2.072 0 1.176-.504 2.072a3.54 3.54 0 0 1-1.386 1.386 4.06 4.06 0 0 1-1.96.476m0-.854q.755 0 1.4-.336a2.64 2.64 0 0 0 1.036-1.036q.406-.7.406-1.708t-.392-1.694q-.393-.7-1.036-1.036a2.9 2.9 0 0 0-1.4-.35q-.756 0-1.4.35-.645.336-1.036 1.036-.378.686-.378 1.694t.378 1.708q.392.686 1.022 1.036a3 3 0 0 0 1.4.336m14.736-7.042q1.344 0 2.184.854.854.84.854 2.45V54h-.966v-4.368q0-1.245-.602-1.904-.601-.658-1.638-.658-1.078 0-1.722.714t-.644 2.072V54h-.966v-4.368q0-1.245-.602-1.904t-1.652-.658q-1.078 0-1.722.714t-.644 2.072V54h-.98v-7.644h.98v1.316a2.47 2.47 0 0 1 1.036-1.078 3 3 0 0 1 1.498-.378q.994 0 1.736.476.756.476 1.092 1.4.308-.91 1.05-1.386a3.07 3.07 0 0 1 1.708-.49"/><g fill="#000" clip-path="url(#b)"><path d="M26.238 90v8H24.79v-8zm2.921 4.484V98h-1.414v-6h1.352v1.02h.07q.207-.504.66-.801.457-.297 1.13-.297.62 0 1.081.266.465.265.719.769.258.504.254 1.223V98h-1.414v-3.602q0-.6-.313-.941-.308-.34-.855-.34-.372 0-.66.164-.285.16-.45.465a1.6 1.6 0 0 0-.16.738m5.29 5.766V92h1.39v.992h.082q.11-.218.309-.465.198-.25.539-.425.339-.18.867-.18.695 0 1.254.355.563.352.89 1.043.332.688.332 1.688 0 .988-.324 1.68-.324.69-.883 1.054a2.27 2.27 0 0 1-1.265.364q-.517 0-.856-.172a1.7 1.7 0 0 1-.547-.415 2.7 2.7 0 0 1-.316-.464h-.059v3.195zM35.834 95q0 .582.164 1.02.168.438.48.683.317.243.766.242.469 0 .785-.25.317-.254.477-.691.165-.441.164-1.004 0-.558-.16-.992a1.5 1.5 0 0 0-.477-.68q-.316-.246-.789-.246-.452 0-.77.238a1.47 1.47 0 0 0-.48.668q-.16.43-.16 1.012m9.313.477V92h1.413v6h-1.37v-1.066h-.063q-.204.503-.668.824-.46.32-1.137.32-.589 0-1.043-.262a1.8 1.8 0 0 1-.703-.77q-.255-.507-.254-1.226V92h1.414v3.602q0 .57.313.906.312.336.82.336.313 0 .606-.153.292-.151.48-.453.192-.305.191-.761M51.012 92v1.094h-3.45V92zm-2.598-1.437h1.414v5.632q0 .285.086.438.09.148.234.203a.9.9 0 0 0 .32.055q.134 0 .243-.02.113-.02.172-.035l.238 1.105a3 3 0 0 1-.324.086 2.7 2.7 0 0 1-.508.055 2.3 2.3 0 0 1-.957-.16 1.5 1.5 0 0 1-.676-.555q-.246-.375-.242-.937zM54.985 98v-8h5.125v1.215h-3.675v2.172h3.324v1.215h-3.324V98zm6.383 0v-6h1.414v6zm.711-6.852a.83.83 0 0 1-.578-.222.72.72 0 0 1-.242-.543.71.71 0 0 1 .242-.543.82.82 0 0 1 .578-.227q.34 0 .578.227a.71.71 0 0 1 .242.543q0 .316-.242.543a.82.82 0 0 1-.578.222m4.814 6.97q-.903 0-1.559-.376a2.54 2.54 0 0 1-1.004-1.07q-.352-.696-.352-1.637 0-.926.352-1.625.356-.703.992-1.094.637-.394 1.496-.394.556 0 1.047.18.497.175.875.546.383.372.602.946.219.57.219 1.36v.433h-4.918v-.953h3.562a1.5 1.5 0 0 0-.176-.723 1.3 1.3 0 0 0-.48-.504 1.35 1.35 0 0 0-.711-.184q-.434 0-.762.211-.329.207-.511.547-.18.336-.184.738v.833q0 .523.191.898.192.371.535.57.345.196.805.196.309 0 .559-.086a1.2 1.2 0 0 0 .433-.262 1.1 1.1 0 0 0 .278-.426l1.32.149a2.06 2.06 0 0 1-.477.914 2.3 2.3 0 0 1-.89.601q-.543.21-1.242.211M72.17 90v8h-1.414v-8zm3.68 8.106a2.27 2.27 0 0 1-1.265-.364q-.56-.363-.883-1.055-.324-.69-.324-1.68 0-.999.328-1.687.332-.69.895-1.043a2.3 2.3 0 0 1 1.254-.355q.526 0 .867.18.34.176.539.425.198.247.308.465h.059V90h1.418v8h-1.39v-.945h-.087q-.11.218-.316.464-.207.243-.547.415t-.855.172m.395-1.16q.45 0 .766-.243.315-.246.48-.684.165-.437.164-1.019 0-.582-.164-1.012a1.44 1.44 0 0 0-.476-.668 1.23 1.23 0 0 0-.77-.238q-.473 0-.789.246t-.476.68-.16.992q0 .563.16 1.004.163.438.48.691.32.25.785.25"/><path fill-opacity=".7" d="M24.58 107.21v-.937h6.545v.937h-2.744V115h-1.057v-7.79zm9.835 7.926q-.946 0-1.632-.417a2.8 2.8 0 0 1-1.053-1.176q-.366-.759-.366-1.765t.366-1.772q.37-.772 1.031-1.202.665-.435 1.551-.435.512 0 1.01.171.499.17.908.554.41.38.652 1.005.243.627.243 1.543v.426H32.08v-.869h4.022a2.15 2.15 0 0 0-.221-.989 1.67 1.67 0 0 0-.623-.686 1.75 1.75 0 0 0-.946-.251q-.6 0-1.04.298-.434.294-.668.767a2.25 2.25 0 0 0-.235 1.014v.58q0 .741.256 1.257.26.512.72.78.46.264 1.07.264.396 0 .716-.111a1.5 1.5 0 0 0 .558-.341q.234-.23.362-.571l.972.273a2.16 2.16 0 0 1-.516.869q-.362.371-.895.58a3.3 3.3 0 0 1-1.197.204m4.814-6.681 1.568 2.676 1.568-2.676h1.16l-2.114 3.272L43.525 115h-1.16l-1.568-2.54L39.23 115H38.07l2.08-3.273-2.08-3.272zm8.577 0v.852h-3.392v-.852zm-2.403-1.569h1.005v6.239q0 .426.124.639a.64.64 0 0 0 .324.281q.2.069.422.069.165 0 .272-.017l.17-.035.205.904a2.2 2.2 0 0 1-.75.119q-.426 0-.835-.183a1.66 1.66 0 0 1-.673-.558q-.264-.376-.264-.946zm7.29 8.114v-6.545H53.7V115zm.512-7.636a.71.71 0 0 1-.507-.201.64.64 0 0 1-.209-.481q0-.282.21-.482a.72.72 0 0 1 .506-.2q.294 0 .503.2a.64.64 0 0 1 .213.482.64.64 0 0 1-.213.481.7.7 0 0 1-.503.201m3.342 3.698V115h-1.005v-6.545h.971v1.022h.085q.23-.498.7-.801.468-.306 1.21-.307.664 0 1.163.273.498.269.775.818.277.546.277 1.381V115h-1.005v-4.091q0-.771-.4-1.202-.402-.434-1.1-.434-.482 0-.861.209-.376.208-.592.609-.218.4-.218.971m6.014 6.393v-9h.972v1.039h.119q.11-.17.307-.434a1.8 1.8 0 0 1 .57-.478q.376-.213 1.015-.213.827 0 1.457.414.63.413.985 1.172.353.758.353 1.789 0 1.04-.353 1.803-.354.759-.98 1.176-.627.413-1.445.413-.63 0-1.01-.208a1.9 1.9 0 0 1-.584-.482 6 6 0 0 1-.315-.452h-.085v3.461zm.989-5.728q0 .742.217 1.309.218.563.635.882.418.315 1.023.315.63 0 1.052-.332.426-.337.64-.904.216-.571.217-1.27 0-.69-.213-1.244a1.92 1.92 0 0 0-.635-.882q-.422-.328-1.061-.328-.614 0-1.031.311a1.86 1.86 0 0 0-.631.861q-.213.55-.213 1.282m10.449.597v-3.869h1.005V115H74v-1.108h-.069a2.15 2.15 0 0 1-.716.848q-.485.345-1.227.345-.613 0-1.09-.268a1.9 1.9 0 0 1-.75-.818q-.274-.55-.273-1.385v-4.159h1.005v4.09q0 .716.4 1.143.406.426 1.032.426.375 0 .763-.192.392-.192.656-.588.27-.396.269-1.01m5.694-3.869v.852H76.3v-.852zm-2.404-1.569h1.006v6.239q0 .426.124.639a.64.64 0 0 0 .324.281q.2.069.421.069.167 0 .273-.017l.17-.035.205.904a2.2 2.2 0 0 1-.75.119q-.426 0-.835-.183a1.66 1.66 0 0 1-.673-.558q-.265-.376-.265-.946zm10.206 1.569v.852h-3.528v-.852zM85.024 115v-7.449q0-.562.264-.937t.686-.563q.422-.187.89-.187.372 0 .606.059.234.06.35.111l-.29.869a6 6 0 0 0-.214-.064 1.3 1.3 0 0 0-.349-.038q-.499 0-.72.252-.218.25-.218.737V115zm3.88 0v-6.545h1.007V115zm.512-7.636a.71.71 0 0 1-.507-.201.64.64 0 0 1-.209-.481q0-.282.21-.482a.72.72 0 0 1 .506-.2q.294 0 .503.2a.64.64 0 0 1 .213.482.64.64 0 0 1-.213.481.7.7 0 0 1-.503.201m5.08 7.772q-.945 0-1.631-.417a2.8 2.8 0 0 1-1.053-1.176q-.366-.759-.366-1.765t.366-1.772a2.9 2.9 0 0 1 1.031-1.202q.665-.435 1.551-.435.512 0 1.01.171.499.17.908.554.41.38.652 1.005.243.627.243 1.543v.426h-5.045v-.869h4.022a2.15 2.15 0 0 0-.221-.989 1.67 1.67 0 0 0-.622-.686 1.75 1.75 0 0 0-.947-.251q-.6 0-1.04.298-.434.294-.668.767a2.25 2.25 0 0 0-.235 1.014v.58q0 .741.256 1.257.26.512.72.78.46.264 1.07.264.396 0 .716-.111.324-.115.558-.341a1.55 1.55 0 0 0 .362-.571l.972.273a2.16 2.16 0 0 1-.516.869q-.362.371-.895.58a3.3 3.3 0 0 1-1.197.204m5.247-8.863V115h-1.006v-8.727zm4.313 8.863q-.818 0-1.444-.413-.627-.417-.981-1.176-.353-.763-.353-1.803 0-1.031.353-1.789.354-.76.985-1.172.63-.414 1.457-.414.64 0 1.01.213.375.21.571.478.2.264.311.434h.085v-3.221h1.006V115h-.971v-1.006h-.12q-.111.18-.315.452-.205.269-.584.482-.379.208-1.01.208m.136-.903q.606 0 1.023-.315.418-.32.635-.882.217-.567.217-1.309 0-.733-.213-1.282a1.86 1.86 0 0 0-.63-.861q-.418-.311-1.032-.311-.639 0-1.065.328-.422.324-.635.882a3.5 3.5 0 0 0-.209 1.244q0 .699.213 1.27.217.567.64.904.426.332 1.056.332"/></g><rect width="223" height="135" x="239" fill="#f8f8f7" rx="8"/><rect width="174" height="49" x="263.5" y="24.5" fill="#fff" rx="7.5"/><rect width="174" height="49" x="263.5" y="24.5" stroke="#e4e4e4" rx="7.5"/><path fill="#002c4e" d="M295.036 49.786q0 .504-.028.77h-6.342q.042.868.42 1.484.378.615.994.938.617.308 1.344.308.952 0 1.596-.462.658-.462.868-1.246h1.036a3.26 3.26 0 0 1-1.204 1.834q-.91.7-2.296.7-1.078 0-1.932-.476a3.5 3.5 0 0 1-1.344-1.372q-.476-.896-.476-2.086t.476-2.086a3.3 3.3 0 0 1 1.33-1.372q.854-.476 1.946-.476t1.904.476a3.2 3.2 0 0 1 1.26 1.288q.448.798.448 1.778m-.994-.028q.014-.855-.35-1.456a2.27 2.27 0 0 0-.966-.91 3 3 0 0 0-1.344-.308q-1.092 0-1.862.7t-.854 1.974zm11.887-3.542q1.344 0 2.184.854.854.84.854 2.45V54h-.966v-4.368q0-1.245-.602-1.904-.601-.658-1.638-.658-1.079 0-1.722.714-.644.714-.644 2.072V54h-.966v-4.368q0-1.245-.602-1.904t-1.652-.658q-1.079 0-1.722.714-.644.714-.644 2.072V54h-.98v-7.644h.98v1.316a2.47 2.47 0 0 1 1.036-1.078 3 3 0 0 1 1.498-.378q.994 0 1.736.476.756.476 1.092 1.4.307-.91 1.05-1.386a3.07 3.07 0 0 1 1.708-.49m4.766 3.948q0-1.176.462-2.058a3.37 3.37 0 0 1 1.302-1.372 3.7 3.7 0 0 1 1.89-.49q1.093 0 1.876.504.798.504 1.148 1.288v-1.68h.98V54h-.98v-1.694q-.363.784-1.162 1.302-.784.504-1.876.504-1.036 0-1.876-.49a3.47 3.47 0 0 1-1.302-1.386q-.462-.896-.462-2.072m6.678.014q0-.924-.378-1.624a2.7 2.7 0 0 0-1.036-1.078 2.77 2.77 0 0 0-1.428-.378 2.9 2.9 0 0 0-1.456.364q-.644.364-1.022 1.064-.364.685-.364 1.638 0 .938.364 1.652.378.7 1.022 1.078.645.364 1.456.364.785 0 1.428-.378a2.7 2.7 0 0 0 1.036-1.078q.378-.7.378-1.624m3.708-5.264a.69.69 0 0 1-.504-.21.7.7 0 0 1-.21-.518q0-.307.21-.504.21-.21.504-.21t.504.21q.21.196.21.504t-.21.518a.69.69 0 0 1-.504.21m.49 1.442V54h-.98v-7.644zm3.199-2.716V54h-.98V43.64zm9.037 1.456q1.512 0 2.66.588a4.2 4.2 0 0 1 1.764 1.652q.616 1.05.616 2.422 0 1.092-.35 2.086t-1.008 1.624q-.658.615-1.54.616-.685 0-1.05-.364-.35-.378-.378-1.022-.434.645-1.106 1.022a2.95 2.95 0 0 1-1.428.364q-1.064 0-1.666-.644-.588-.645-.588-1.75 0-1.036.434-1.932a3.7 3.7 0 0 1 1.204-1.456 2.95 2.95 0 0 1 1.75-.546q.7 0 1.176.308.49.308.7.896l.182-1.036h.854l-.714 4.074a3 3 0 0 0-.042.462q0 .938.812.938.602 0 1.036-.546.448-.546.672-1.372.238-.84.238-1.666 0-1.231-.532-2.128a3.37 3.37 0 0 0-1.498-1.386q-.98-.49-2.324-.49-1.68 0-3.038.826a5.85 5.85 0 0 0-2.128 2.24q-.77 1.414-.77 3.122-.014 1.904 1.148 2.954 1.162 1.065 3.178 1.064 1.274 0 2.31-.476l.154.686a7 7 0 0 1-2.674.504q-1.47 0-2.59-.574a4.1 4.1 0 0 1-1.736-1.61q-.616-1.05-.616-2.45 0-1.946.882-3.542a6.63 6.63 0 0 1 2.464-2.534q1.582-.924 3.542-.924m-1.54 8.218q.63 0 1.162-.336t.868-.938q.35-.602.434-1.372a4 4 0 0 0 .028-.364q0-.784-.434-1.274-.42-.504-1.204-.504-.742 0-1.302.434t-.868 1.134a3.5 3.5 0 0 0-.308 1.456q0 .811.42 1.288.42.476 1.204.476m15.665-3.528q0 .504-.028.77h-6.342q.042.868.42 1.484.379.615.994.938.616.308 1.344.308.952 0 1.596-.462.658-.462.868-1.246h1.036a3.25 3.25 0 0 1-1.204 1.834q-.91.7-2.296.7-1.077 0-1.932-.476a3.5 3.5 0 0 1-1.344-1.372q-.476-.896-.476-2.086t.476-2.086a3.3 3.3 0 0 1 1.33-1.372q.855-.476 1.946-.476 1.092 0 1.904.476a3.2 3.2 0 0 1 1.26 1.288q.448.798.448 1.778m-.994-.028q.015-.855-.35-1.456a2.27 2.27 0 0 0-.966-.91 2.96 2.96 0 0 0-1.344-.308q-1.091 0-1.862.7-.77.7-.854 1.974zm11.887-3.542q1.344 0 2.184.854.854.84.854 2.45V54h-.966v-4.368q0-1.245-.602-1.904t-1.638-.658q-1.077 0-1.722.714-.644.714-.644 2.072V54h-.966v-4.368q0-1.245-.602-1.904t-1.652-.658q-1.077 0-1.722.714-.644.714-.644 2.072V54h-.98v-7.644h.98v1.316a2.47 2.47 0 0 1 1.036-1.078 3 3 0 0 1 1.498-.378q.995 0 1.736.476.756.476 1.092 1.4.309-.91 1.05-1.386a3.07 3.07 0 0 1 1.708-.49m4.767 3.948q0-1.176.462-2.058a3.36 3.36 0 0 1 1.302-1.372 3.7 3.7 0 0 1 1.89-.49q1.092 0 1.876.504.798.504 1.148 1.288v-1.68h.98V54h-.98v-1.694q-.364.784-1.162 1.302-.784.504-1.876.504a3.65 3.65 0 0 1-1.876-.49 3.45 3.45 0 0 1-1.302-1.386q-.462-.896-.462-2.072m6.678.014q0-.924-.378-1.624a2.7 2.7 0 0 0-1.036-1.078 2.77 2.77 0 0 0-1.428-.378q-.812 0-1.456.364t-1.022 1.064q-.364.685-.364 1.638 0 .938.364 1.652.378.7 1.022 1.078.644.364 1.456.364.784 0 1.428-.378a2.7 2.7 0 0 0 1.036-1.078q.378-.7.378-1.624m3.707-5.264a.69.69 0 0 1-.504-.21.7.7 0 0 1-.21-.518q0-.307.21-.504.21-.21.504-.21t.504.21q.21.196.21.504t-.21.518a.69.69 0 0 1-.504.21m.49 1.442V54h-.98v-7.644zm3.199-2.716V54h-.98V43.64zm2.388 10.43a.7.7 0 0 1-.518-.21.73.73 0 0 1-.196-.518q0-.307.196-.504.21-.21.518-.21.294 0 .49.21.21.196.21.504t-.21.518a.64.64 0 0 1-.49.21m1.927-3.892q0-1.19.476-2.072a3.33 3.33 0 0 1 1.316-1.372q.84-.49 1.918-.49 1.413 0 2.324.7.923.7 1.19 1.904h-1.05q-.197-.825-.854-1.288-.645-.476-1.61-.476-.771 0-1.386.35-.617.35-.98 1.05-.35.686-.35 1.694t.35 1.708q.363.7.98 1.05.615.35 1.386.35.965 0 1.61-.462.657-.476.854-1.316h1.05q-.267 1.176-1.19 1.89-.924.714-2.324.714-1.078 0-1.918-.476a3.45 3.45 0 0 1-1.316-1.372q-.476-.896-.476-2.086m12.38 3.934q-1.079 0-1.946-.476a3.6 3.6 0 0 1-1.358-1.372q-.49-.896-.49-2.086t.504-2.072a3.46 3.46 0 0 1 1.372-1.372q.867-.49 1.946-.49 1.077 0 1.946.49a3.35 3.35 0 0 1 1.372 1.372q.504.882.504 2.072 0 1.176-.504 2.072a3.54 3.54 0 0 1-1.386 1.386 4.06 4.06 0 0 1-1.96.476m0-.854q.755 0 1.4-.336a2.64 2.64 0 0 0 1.036-1.036q.406-.7.406-1.708t-.392-1.694q-.393-.7-1.036-1.036a2.9 2.9 0 0 0-1.4-.35q-.756 0-1.4.35-.645.336-1.036 1.036-.378.686-.378 1.694t.378 1.708q.392.686 1.022 1.036a3 3 0 0 0 1.4.336m14.736-7.042q1.344 0 2.184.854.854.84.854 2.45V54h-.966v-4.368q0-1.245-.602-1.904-.601-.658-1.638-.658-1.079 0-1.722.714-.644.714-.644 2.072V54h-.966v-4.368q0-1.245-.602-1.904t-1.652-.658q-1.079 0-1.722.714-.644.714-.644 2.072V54h-.98v-7.644h.98v1.316a2.47 2.47 0 0 1 1.036-1.078 3 3 0 0 1 1.498-.378q.994 0 1.736.476.756.476 1.092 1.4.308-.91 1.05-1.386a3.07 3.07 0 0 1 1.708-.49"/><g fill="#000" clip-path="url(#c)"><path d="M263.789 98v-8h1.449v6.785h3.524V98zm8.785.117q-.88 0-1.523-.386a2.62 2.62 0 0 1-1-1.083q-.352-.695-.352-1.625t.352-1.629q.355-.7 1-1.085.644-.387 1.523-.387t1.524.387.996 1.085q.355.7.355 1.63t-.355 1.624a2.6 2.6 0 0 1-.996 1.083q-.645.386-1.524.386m.008-1.133q.476 0 .797-.261a1.6 1.6 0 0 0 .476-.711 2.9 2.9 0 0 0 .161-.993q0-.55-.161-.996a1.6 1.6 0 0 0-.476-.714q-.32-.266-.797-.266-.488 0-.812.266a1.6 1.6 0 0 0-.481.714 3 3 0 0 0-.156.996q0 .547.156.993.16.446.481.71.324.262.812.262m6.677 3.391q-.762 0-1.309-.207a2.3 2.3 0 0 1-.879-.547 1.9 1.9 0 0 1-.461-.762l1.274-.308q.085.176.25.347.163.177.441.29.281.117.707.117.602 0 .996-.293.395-.289.395-.953v-1.137h-.07q-.11.218-.321.45a1.6 1.6 0 0 1-.551.386q-.339.156-.855.156-.692 0-1.254-.324-.558-.328-.891-.977-.327-.652-.328-1.632 0-.99.328-1.668.333-.684.895-1.036a2.3 2.3 0 0 1 1.254-.355q.527 0 .867.18.344.176.547.425.202.247.309.465h.078V92h1.394v6.098q0 .77-.367 1.273a2.2 2.2 0 0 1-1.004.754 3.9 3.9 0 0 1-1.445.25m.012-3.57q.448 0 .765-.22.316-.217.481-.628.164-.41.164-.984a2.8 2.8 0 0 0-.164-.992 1.4 1.4 0 0 0-.477-.66 1.23 1.23 0 0 0-.769-.239q-.474 0-.79.246a1.5 1.5 0 0 0-.476.676q-.16.426-.16.969 0 .55.16.965.163.41.48.64.321.227.786.227M283.524 98v-6h1.414v6zm.711-6.852a.83.83 0 0 1-.578-.222.72.72 0 0 1-.242-.543q0-.321.242-.543a.82.82 0 0 1 .578-.227q.34 0 .578.227.243.223.243.543 0 .316-.243.543a.81.81 0 0 1-.578.222m3.572 3.336V98h-1.414v-6h1.351v1.02h.07q.207-.504.661-.801.457-.297 1.129-.297.62 0 1.082.266.464.265.718.769.258.504.254 1.223V98h-1.414v-3.602q0-.6-.312-.941-.309-.34-.856-.34-.37 0-.66.164-.285.16-.449.465-.16.305-.16.738M297.336 90v8h-1.449v-8zm2.921 4.484V98h-1.414v-6h1.351v1.02h.071q.207-.504.66-.801.456-.297 1.129-.297.62 0 1.082.266.465.265.718.769.258.504.254 1.223V98h-1.414v-3.602q0-.6-.312-.941-.309-.34-.856-.34-.37 0-.66.164-.285.16-.449.465-.16.305-.16.738m5.289 5.766V92h1.391v.992h.082q.108-.218.308-.465.2-.25.539-.425.34-.18.867-.18.696 0 1.254.355.562.352.891 1.043.332.688.332 1.688 0 .988-.324 1.68-.325.69-.883 1.054a2.27 2.27 0 0 1-1.266.364q-.515 0-.855-.172a1.7 1.7 0 0 1-.547-.415 2.7 2.7 0 0 1-.316-.464h-.059v3.195zm1.387-5.25q0 .582.164 1.02.168.438.48.683.316.243.766.242.468 0 .785-.25.317-.254.476-.691.165-.441.165-1.004 0-.558-.161-.992a1.5 1.5 0 0 0-.476-.68q-.317-.246-.789-.246-.453 0-.77.238a1.46 1.46 0 0 0-.48.668 2.9 2.9 0 0 0-.16 1.012m9.312.477V92h1.414v6h-1.371v-1.066h-.062q-.203.503-.668.824-.462.32-1.137.32-.59 0-1.043-.262a1.8 1.8 0 0 1-.703-.77q-.254-.507-.254-1.226V92h1.414v3.602q0 .57.312.906.313.336.821.336.312 0 .605-.153.294-.151.481-.453.19-.305.191-.761M322.109 92v1.094h-3.449V92zm-2.597-1.437h1.414v5.632q0 .285.086.438.09.148.234.203a.9.9 0 0 0 .32.055q.133 0 .243-.02.113-.02.171-.035l.239 1.105a3 3 0 0 1-.324.086q-.207.048-.508.055a2.3 2.3 0 0 1-.957-.16 1.5 1.5 0 0 1-.676-.555q-.246-.375-.242-.937z"/><path fill-opacity=".7" d="M264.057 115v-8.727h2.949q1.026 0 1.679.37.656.367.971.993.315.627.316 1.398 0 .771-.316 1.402a2.34 2.34 0 0 1-.963 1.006q-.651.37-1.67.37h-2.114v-.937h2.08q.703 0 1.129-.243t.618-.656q.196-.418.196-.942a2.2 2.2 0 0 0-.196-.937 1.4 1.4 0 0 0-.622-.648q-.43-.239-1.142-.239h-1.858V115zm9.407.153q-.622 0-1.129-.234a1.94 1.94 0 0 1-.806-.686q-.298-.452-.298-1.091 0-.562.221-.912.222-.354.593-.554a3.1 3.1 0 0 1 .818-.298 10 10 0 0 1 .908-.162q.596-.077.967-.115.375-.043.545-.141.175-.098.175-.341v-.034q0-.63-.345-.98-.341-.35-1.036-.349-.72 0-1.129.315-.409.316-.575.673l-.955-.341q.256-.596.682-.929.43-.336.938-.468a4 4 0 0 1 1.005-.137q.316 0 .725.077.413.072.797.303.387.23.643.694.256.465.256 1.245V115h-1.006v-.886h-.051a1.8 1.8 0 0 1-.341.456 2 2 0 0 1-.635.413q-.397.17-.967.17m.153-.903q.597 0 1.006-.234.413-.235.622-.605.213-.372.213-.78v-.921q-.064.077-.281.141a5 5 0 0 1-.494.106 21 21 0 0 1-.964.128 4 4 0 0 0-.732.166 1.26 1.26 0 0 0-.546.337q-.204.221-.204.605 0 .525.387.793.393.264.993.264m9.319-4.33-.904.256a1.7 1.7 0 0 0-.251-.439 1.2 1.2 0 0 0-.443-.358q-.282-.14-.72-.14-.602 0-1.002.277-.396.272-.396.694 0 .375.273.593.272.216.852.362l.971.238q.879.213 1.309.652.43.435.43 1.121 0 .562-.324 1.006a2.15 2.15 0 0 1-.895.699q-.575.255-1.338.255-1.001 0-1.657-.434-.657-.435-.831-1.27l.954-.239q.137.529.516.793.383.264 1.001.264.703 0 1.117-.298.417-.303.417-.725a.76.76 0 0 0-.238-.571q-.239-.234-.733-.349l-1.091-.256q-.9-.213-1.321-.66-.418-.453-.418-1.13 0-.554.311-.98.315-.426.857-.669a3 3 0 0 1 1.236-.243q.971 0 1.525.426.558.427.793 1.125m6.269 0-.903.256a1.7 1.7 0 0 0-.252-.439 1.2 1.2 0 0 0-.443-.358q-.28-.14-.72-.14-.6 0-1.001.277-.397.272-.397.694 0 .375.273.593.273.216.852.362l.972.238q.877.213 1.308.652.43.435.431 1.121 0 .562-.324 1.006a2.16 2.16 0 0 1-.895.699q-.576.255-1.338.255-1.002 0-1.658-.434-.655-.435-.831-1.27l.955-.239q.136.529.515.793.384.264 1.002.264.703 0 1.116-.298.418-.303.418-.725a.76.76 0 0 0-.239-.571q-.238-.234-.733-.349l-1.091-.256q-.898-.213-1.321-.66-.417-.453-.417-1.13 0-.554.311-.98.315-.426.856-.669a3 3 0 0 1 1.236-.243q.972 0 1.526.426.558.427.792 1.125m3.116 5.08-1.994-6.545h1.057l1.415 5.011h.068l1.398-5.011h1.073l1.381 4.994h.068l1.415-4.994h1.057L297.265 115h-.989l-1.432-5.028h-.102L293.31 115zm10.704.136q-.887 0-1.556-.422a2.86 2.86 0 0 1-1.039-1.18q-.37-.759-.371-1.773 0-1.022.371-1.785.375-.763 1.039-1.185.67-.422 1.556-.422t1.551.422q.67.422 1.04 1.185.375.763.375 1.785 0 1.014-.375 1.773a2.8 2.8 0 0 1-1.04 1.18q-.664.423-1.551.422m0-.903q.673 0 1.108-.345t.643-.908a3.5 3.5 0 0 0 .209-1.219q0-.656-.209-1.223a2.06 2.06 0 0 0-.643-.916q-.435-.35-1.108-.349-.673 0-1.108.349-.435.35-.644.916a3.5 3.5 0 0 0-.208 1.223q0 .657.208 1.219.21.563.644.908t1.108.345m4.501.767v-6.545h.972v.988h.068q.179-.485.647-.788a1.9 1.9 0 0 1 1.057-.303 11 11 0 0 1 .529.017v1.023a3 3 0 0 0-.235-.038 2.3 2.3 0 0 0-.379-.03q-.477 0-.852.2a1.468 1.468 0 0 0-.801 1.334V115zm6.737.136q-.818 0-1.444-.413-.627-.417-.981-1.176-.353-.763-.353-1.803 0-1.031.353-1.789.354-.76.985-1.172.63-.414 1.457-.414.64 0 1.01.213.375.21.571.478.2.264.311.434h.085v-3.221h1.006V115h-.971v-1.006h-.12q-.111.18-.315.452-.204.269-.584.482-.379.208-1.01.208m.137-.903q.605 0 1.022-.315.418-.32.635-.882.218-.567.218-1.309 0-.733-.214-1.282a1.86 1.86 0 0 0-.63-.861q-.418-.311-1.031-.311-.64 0-1.066.328-.422.324-.635.882a3.5 3.5 0 0 0-.209 1.244q0 .699.213 1.27.217.567.64.904.426.332 1.057.332m11.305-8.369-2.813 10.448h-.92l2.812-10.448zm6.493 9.289q-.622 0-1.129-.234a1.94 1.94 0 0 1-.806-.686q-.297-.452-.298-1.091 0-.562.222-.912.222-.354.592-.554a3.1 3.1 0 0 1 .818-.298 10 10 0 0 1 .908-.162q.597-.077.967-.115.375-.043.546-.141.174-.098.174-.341v-.034q0-.63-.345-.98-.34-.35-1.035-.349-.72 0-1.129.315-.41.316-.576.673l-.954-.341q.255-.596.682-.929a2.55 2.55 0 0 1 .937-.468 4 4 0 0 1 1.006-.137 4 4 0 0 1 .724.077q.413.072.797.303.388.23.643.694.256.465.256 1.245V115h-1.006v-.886h-.051a1.8 1.8 0 0 1-.341.456q-.238.243-.635.413-.396.17-.967.17m.154-.903q.596 0 1.005-.234a1.6 1.6 0 0 0 .835-1.385v-.921q-.063.077-.281.141a5 5 0 0 1-.494.106 21 21 0 0 1-.963.128q-.393.052-.733.166a1.26 1.26 0 0 0-.546.337q-.204.221-.204.605 0 .525.388.793.392.264.993.264m8.807-1.926v-3.869h1.005V115h-1.005v-1.108h-.068a2.15 2.15 0 0 1-.716.848q-.486.345-1.228.345-.613 0-1.091-.268a1.9 1.9 0 0 1-.75-.818q-.272-.55-.272-1.385v-4.159h1.005v4.09q0 .716.401 1.143.405.426 1.031.426.375 0 .763-.192.392-.192.656-.588.269-.396.269-1.01m5.694-3.869v.852h-3.392v-.852zm-2.403-1.569h1.005v6.239q0 .426.124.639a.64.64 0 0 0 .324.281q.2.069.422.069.165 0 .272-.017l.171-.035.204.904a2.2 2.2 0 0 1-.75.119q-.426 0-.835-.183a1.66 1.66 0 0 1-.673-.558q-.264-.376-.264-.946zm5.062 4.176V115h-1.006v-8.727h1.006v3.204h.085q.23-.507.691-.805.464-.303 1.235-.303.67 0 1.172.269.503.264.78.814.281.544.281 1.389V115h-1.005v-4.091q0-.78-.405-1.206-.4-.43-1.112-.43-.494 0-.887.209a1.5 1.5 0 0 0-.613.609q-.222.4-.222.971m9.459 3.938v-6.545h1.006V115zm.512-7.636a.72.72 0 0 1-.508-.201.64.64 0 0 1-.208-.481q0-.282.208-.482a.72.72 0 0 1 .508-.2.7.7 0 0 1 .502.2.64.64 0 0 1 .214.482.64.64 0 0 1-.214.481.7.7 0 0 1-.502.201m3.342 3.698V115h-1.006v-6.545h.971v1.022h.086q.23-.498.699-.801.468-.306 1.21-.307.665 0 1.163.273.499.269.776.818.277.546.277 1.381V115h-1.006v-4.091q0-.771-.401-1.202-.4-.434-1.099-.434-.481 0-.861.209-.375.208-.592.609-.217.4-.217.971m6.013 6.393v-9h.972v1.039h.119a9 9 0 0 1 .307-.434q.2-.268.571-.478.375-.213 1.014-.213.827 0 1.458.414.63.413.984 1.172t.354 1.789q0 1.04-.354 1.803-.353.759-.98 1.176-.626.413-1.445.413-.63 0-1.01-.208a1.9 1.9 0 0 1-.583-.482 6 6 0 0 1-.316-.452h-.085v3.461zm.989-5.728q0 .742.217 1.309.218.563.635.882.418.315 1.023.315.63 0 1.053-.332.426-.337.639-.904.217-.571.217-1.27 0-.69-.213-1.244a1.9 1.9 0 0 0-.635-.882q-.422-.328-1.061-.328-.614 0-1.031.311-.418.306-.631.861-.213.55-.213 1.282m10.449.597v-3.869h1.006V115h-1.006v-1.108h-.068a2.15 2.15 0 0 1-.716.848q-.486.345-1.227.345-.615 0-1.091-.268a1.87 1.87 0 0 1-.75-.818q-.273-.55-.273-1.385v-4.159h1.006v4.09q0 .716.4 1.143.405.426 1.031.426.376 0 .763-.192a1.66 1.66 0 0 0 .656-.588q.269-.396.269-1.01m5.694-3.869v.852h-3.392v-.852zm-2.403-1.569h1.005v6.239q0 .426.124.639a.64.64 0 0 0 .324.281q.2.069.422.069.166 0 .272-.017l.171-.035.204.904a2.2 2.2 0 0 1-.75.119q-.426 0-.835-.183a1.66 1.66 0 0 1-.673-.558q-.264-.376-.264-.946z"/></g><rect width="175" height="135" x="478" fill="#f8f8f7" rx="8"/><rect width="126" height="49" x="502.5" y="24.5" fill="#fff" rx="7.5"/><rect width="126" height="49" x="502.5" y="24.5" stroke="#e4e4e4" rx="7.5"/><path fill="#002c4e" d="M532.594 44.242v1.036h-4.242v3.29h3.444v1.036h-3.444V54h-1.274v-9.758zm2.197.84a.84.84 0 0 1-.616-.252.84.84 0 0 1-.252-.616q0-.364.252-.616a.84.84 0 0 1 .616-.252q.35 0 .588.252a.84.84 0 0 1 .252.616.84.84 0 0 1-.252.616.78.78 0 0 1-.588.252m.616 1.246V54h-1.274v-7.672zm3.445-2.688V54h-1.274V43.64zm3.725 3.738V51.9q0 .56.238.798.238.224.826.224h.938V54h-1.148q-1.063 0-1.596-.49-.532-.49-.532-1.61v-4.522h-.994v-1.05h.994v-1.932h1.274v1.932h2.002v1.05zm10.546 2.492q0 .365-.042.77h-6.132q.07 1.134.77 1.778.714.63 1.722.63.826 0 1.372-.378.56-.392.784-1.036h1.372a3.33 3.33 0 0 1-1.232 1.806q-.924.686-2.296.686-1.092 0-1.96-.49a3.5 3.5 0 0 1-1.344-1.386q-.49-.91-.49-2.1t.476-2.086a3.3 3.3 0 0 1 1.33-1.372q.868-.49 1.988-.49 1.092 0 1.932.476t1.288 1.316q.462.825.462 1.876m-1.316-.266q0-.727-.322-1.246a2.03 2.03 0 0 0-.882-.798 2.6 2.6 0 0 0-1.218-.28q-.966 0-1.652.616-.672.615-.77 1.708zm4.272-2.03q.336-.659.952-1.022.63-.364 1.526-.364v1.316h-.336q-2.142 0-2.142 2.324V54h-1.274v-7.672h1.274zm8.955.182q.392-.685 1.148-1.12.756-.434 1.722-.434 1.035 0 1.862.49.825.49 1.302 1.386.476.882.476 2.058 0 1.162-.476 2.072a3.51 3.51 0 0 1-3.164 1.918q-.994 0-1.75-.434-.742-.434-1.12-1.106V54h-1.274V43.64h1.274zm5.208 2.38q0-.868-.35-1.512a2.4 2.4 0 0 0-.952-.98 2.6 2.6 0 0 0-1.302-.336q-.7 0-1.302.35-.589.336-.952.994-.35.645-.35 1.498 0 .868.35 1.526.363.644.952.994.601.336 1.302.336.714 0 1.302-.336.601-.35.952-.994.35-.658.35-1.54m9.587-3.808-4.62 11.284h-1.316l1.512-3.696-3.094-7.588h1.414l2.408 6.216 2.38-6.216z"/><path stroke="#000" stroke-linecap="round" stroke-linejoin="round" d="m595 53 4-4-4-4"/><g fill="#000" clip-path="url(#d)"><path d="M505.5 98h-2.711v-8h2.766q1.19 0 2.047.48a3.2 3.2 0 0 1 1.32 1.372q.46.894.461 2.14 0 1.25-.465 2.149a3.2 3.2 0 0 1-1.332 1.378q-.867.48-2.086.481m-1.262-1.254h1.192q.836 0 1.394-.305.56-.307.84-.918.282-.613.281-1.53 0-.919-.281-1.524a1.9 1.9 0 0 0-.832-.91q-.548-.305-1.359-.305h-1.235zM510.697 98v-6h1.371v1h.063a1.5 1.5 0 0 1 1.48-1.086q.118 0 .262.012.149.008.246.027v1.3a1.5 1.5 0 0 0-.285-.054 3 3 0 0 0-.371-.027q-.387 0-.695.168-.306.165-.481.457a1.3 1.3 0 0 0-.176.676V98zm6.732.117q-.879 0-1.524-.386a2.63 2.63 0 0 1-1-1.083q-.351-.695-.351-1.625t.351-1.629a2.63 2.63 0 0 1 1-1.085q.645-.387 1.524-.387.878 0 1.523.387.645.386.996 1.085.356.7.356 1.63t-.356 1.624a2.6 2.6 0 0 1-.996 1.083q-.644.386-1.523.386m.008-1.133q.476 0 .796-.261.321-.266.477-.711a2.9 2.9 0 0 0 .16-.993q0-.55-.16-.996a1.57 1.57 0 0 0-.477-.714q-.32-.266-.796-.266-.489 0-.813.266a1.6 1.6 0 0 0-.48.714 3 3 0 0 0-.157.996q0 .547.157.993.159.446.48.71.324.262.813.262m4.067 3.266V92h1.391v.992h.082q.108-.218.308-.465.2-.25.539-.425.34-.18.867-.18.696 0 1.254.355.562.352.891 1.043.332.688.332 1.688 0 .988-.324 1.68-.324.69-.883 1.054a2.27 2.27 0 0 1-1.266.364q-.515 0-.855-.172a1.7 1.7 0 0 1-.547-.415 2.7 2.7 0 0 1-.316-.464h-.059v3.195zm1.387-5.25q0 .582.164 1.02.168.438.48.683.316.243.766.242.468 0 .785-.25.316-.254.477-.691.164-.441.164-1.004 0-.558-.161-.992a1.5 1.5 0 0 0-.476-.68q-.317-.246-.789-.246-.453 0-.77.238a1.46 1.46 0 0 0-.48.668 2.9 2.9 0 0 0-.16 1.012m10.99 3h-2.711v-8h2.766q1.191 0 2.046.48a3.2 3.2 0 0 1 1.321 1.372q.46.894.461 2.14 0 1.25-.465 2.149a3.2 3.2 0 0 1-1.332 1.378q-.868.48-2.086.481m-1.262-1.254h1.192q.836 0 1.394-.305.558-.307.84-.918.28-.613.281-1.53 0-.919-.281-1.524a1.92 1.92 0 0 0-.832-.91q-.547-.305-1.359-.305h-1.235zm9.076 1.371q-.878 0-1.523-.386a2.62 2.62 0 0 1-1-1.083q-.352-.695-.352-1.625t.352-1.629q.355-.7 1-1.085.644-.387 1.523-.387t1.524.387q.643.386.996 1.085.355.7.355 1.63t-.355 1.624a2.6 2.6 0 0 1-.996 1.083q-.645.386-1.524.386m.008-1.133q.476 0 .797-.261.32-.266.477-.711.16-.445.16-.993 0-.55-.16-.996a1.6 1.6 0 0 0-.477-.714q-.32-.266-.797-.266-.488 0-.812.266a1.6 1.6 0 0 0-.481.714 3 3 0 0 0-.156.996q0 .547.156.993.16.446.481.71.324.262.812.262M546.837 98l-1.695-6h1.441l1.055 4.219h.054L548.771 92h1.425l1.078 4.195h.059L552.372 92h1.445l-1.699 6h-1.472l-1.125-4.055h-.083L548.313 98zm9.382-3.516V98h-1.414v-6h1.351v1.02h.071q.207-.504.66-.801.457-.297 1.129-.297.62 0 1.082.266.465.265.718.769.258.504.254 1.223V98h-1.414v-3.602q0-.6-.312-.941-.309-.34-.856-.34-.37 0-.66.164-.285.16-.449.465-.16.305-.16.738"/><path fill-opacity=".7" d="M507.83 108.455a1.34 1.34 0 0 0-.623-1.006q-.544-.358-1.338-.358-.579 0-1.014.187a1.6 1.6 0 0 0-.673.516 1.24 1.24 0 0 0-.239.746q0 .35.166.601.171.246.435.413.264.162.554.268.29.103.533.167l.886.238q.34.09.759.247.421.158.805.431.388.269.639.69.252.422.252 1.036a2.3 2.3 0 0 1-.371 1.278q-.366.571-1.074.908-.703.336-1.709.336-.937 0-1.623-.302a2.6 2.6 0 0 1-1.074-.844 2.4 2.4 0 0 1-.439-1.257h1.091q.042.495.332.818.294.32.742.477.452.154.971.154.606 0 1.087-.196.481-.2.763-.554.28-.358.281-.835 0-.435-.243-.708a1.8 1.8 0 0 0-.639-.443 7 7 0 0 0-.857-.298l-1.074-.307q-1.022-.294-1.619-.84-.597-.545-.597-1.427 0-.733.397-1.279.4-.549 1.074-.852a3.6 3.6 0 0 1 1.512-.307q.845 0 1.5.303.657.299 1.04.818.388.52.409 1.181zm5.487 6.681q-.947 0-1.632-.417a2.8 2.8 0 0 1-1.053-1.176q-.366-.759-.366-1.765t.366-1.772a2.9 2.9 0 0 1 1.032-1.202q.665-.435 1.551-.435.511 0 1.01.171.498.17.907.554.41.38.652 1.005.243.627.243 1.543v.426h-5.045v-.869h4.023q0-.554-.222-.989a1.67 1.67 0 0 0-.622-.686 1.75 1.75 0 0 0-.946-.251q-.601 0-1.04.298a1.96 1.96 0 0 0-.669.767 2.25 2.25 0 0 0-.234 1.014v.58q0 .741.255 1.257.26.512.721.78.46.264 1.069.264.396 0 .716-.111.324-.115.558-.341.235-.23.362-.571l.972.273a2.15 2.15 0 0 1-.516.869 2.5 2.5 0 0 1-.894.58 3.3 3.3 0 0 1-1.198.204m5.246-8.863V115h-1.006v-8.727zm4.586 8.863q-.946 0-1.632-.417a2.8 2.8 0 0 1-1.053-1.176q-.366-.759-.366-1.765t.366-1.772a2.9 2.9 0 0 1 1.032-1.202q.664-.435 1.551-.435.511 0 1.01.171.498.17.907.554.41.38.652 1.005.243.627.243 1.543v.426h-5.045v-.869h4.023q0-.554-.222-.989a1.67 1.67 0 0 0-.622-.686 1.75 1.75 0 0 0-.946-.251q-.601 0-1.04.298a1.96 1.96 0 0 0-.669.767 2.25 2.25 0 0 0-.234 1.014v.58q0 .741.255 1.257.26.512.721.78.46.264 1.069.264.396 0 .716-.111.324-.115.558-.341a1.55 1.55 0 0 0 .363-.571l.971.273a2.15 2.15 0 0 1-.516.869 2.5 2.5 0 0 1-.894.58 3.3 3.3 0 0 1-1.198.204m6.899 0q-.92 0-1.585-.434a2.84 2.84 0 0 1-1.023-1.198q-.358-.762-.358-1.743 0-.996.367-1.76.37-.766 1.031-1.197.665-.435 1.551-.435.69 0 1.245.256.553.255.907.716t.439 1.074h-1.006a1.55 1.55 0 0 0-.511-.793q-.392-.35-1.057-.349-.588 0-1.031.307a2 2 0 0 0-.686.856q-.243.55-.243 1.291 0 .759.239 1.321.243.562.682.874.443.31 1.039.311.393 0 .712-.136.32-.137.541-.392.222-.256.315-.614h1.006a2.33 2.33 0 0 1-1.304 1.777q-.545.268-1.27.268m6.891-6.681v.852h-3.392v-.852zm-2.403-1.569h1.005v6.239q0 .426.124.639a.64.64 0 0 0 .324.281q.2.069.422.069.165 0 .272-.017l.171-.035.204.904a2.2 2.2 0 0 1-.75.119q-.426 0-.835-.183a1.66 1.66 0 0 1-.673-.558q-.264-.376-.264-.946zm10.376-1.022-2.813 10.448h-.92l2.812-10.448zm7.039 9.272q-.819 0-1.445-.413-.627-.417-.98-1.176-.354-.763-.354-1.803 0-1.031.354-1.789.354-.76.984-1.172.632-.414 1.458-.414.638 0 1.01.213.375.21.571.478.2.264.311.434h.085v-3.221h1.006V115h-.972v-1.006h-.119a6 6 0 0 1-.316.452q-.204.269-.583.482-.38.208-1.01.208m.136-.903q.604 0 1.023-.315.417-.32.635-.882.217-.567.217-1.309 0-.733-.213-1.282-.213-.555-.631-.861-.417-.311-1.031-.311-.639 0-1.065.328a1.96 1.96 0 0 0-.635.882 3.5 3.5 0 0 0-.209 1.244q0 .699.213 1.27.217.567.639.904.427.332 1.057.332m4.845.767v-6.545h.972v.988h.068q.178-.485.648-.788a1.9 1.9 0 0 1 1.056-.303 11 11 0 0 1 .529.017v1.023a3 3 0 0 0-.234-.038q-.18-.03-.38-.03-.477 0-.852.2a1.468 1.468 0 0 0-.801 1.334V115zm6.925.136q-.886 0-1.556-.422a2.86 2.86 0 0 1-1.039-1.18q-.37-.759-.371-1.773 0-1.022.371-1.785.375-.763 1.039-1.185.67-.422 1.556-.422t1.551.422q.67.422 1.04 1.185.375.763.375 1.785 0 1.014-.375 1.773a2.8 2.8 0 0 1-1.04 1.18q-.664.423-1.551.422m0-.903q.673 0 1.108-.345t.643-.908q.21-.562.209-1.219 0-.656-.209-1.223a2.06 2.06 0 0 0-.643-.916q-.435-.35-1.108-.349-.673 0-1.108.349-.434.35-.644.916a3.5 3.5 0 0 0-.208 1.223q0 .657.208 1.219.21.563.644.908t1.108.345m4.501 3.222v-9h.972v1.039h.119a9 9 0 0 1 .307-.434q.2-.268.571-.478.375-.213 1.014-.213.827 0 1.457.414.631.413.985 1.172.353.758.353 1.789 0 1.04-.353 1.803-.354.759-.98 1.176-.627.413-1.445.413-.63 0-1.01-.208a1.9 1.9 0 0 1-.584-.482 7 7 0 0 1-.315-.452h-.085v3.461zm.989-5.728q0 .742.217 1.309.217.563.635.882.417.315 1.023.315.63 0 1.052-.332.426-.337.639-.904.218-.571.218-1.27 0-.69-.213-1.244a1.93 1.93 0 0 0-.635-.882q-.423-.328-1.061-.328-.614 0-1.032.311a1.86 1.86 0 0 0-.63.861q-.213.55-.213 1.282m8.795 3.409a2.56 2.56 0 0 1-1.445-.413q-.626-.417-.98-1.176-.353-.763-.353-1.803 0-1.031.353-1.789.354-.76.985-1.172.63-.414 1.457-.414.64 0 1.01.213.375.21.571.478.2.264.311.434h.085v-3.221h1.006V115h-.972v-1.006h-.119q-.111.18-.315.452-.205.269-.584.482-.379.208-1.01.208m.136-.903q.606 0 1.023-.315.418-.32.635-.882.217-.567.217-1.309 0-.733-.213-1.282a1.86 1.86 0 0 0-.63-.861q-.418-.311-1.032-.311-.639 0-1.065.328-.422.324-.635.882a3.5 3.5 0 0 0-.209 1.244q0 .699.213 1.27.217.567.64.904.426.332 1.056.332m7.505.903q-.887 0-1.556-.422a2.86 2.86 0 0 1-1.039-1.18q-.372-.759-.371-1.773 0-1.022.371-1.785.375-.763 1.039-1.185.67-.422 1.556-.422t1.551.422q.668.422 1.04 1.185.375.763.375 1.785 0 1.014-.375 1.773a2.83 2.83 0 0 1-1.04 1.18q-.664.423-1.551.422m0-.903q.673 0 1.108-.345.434-.345.643-.908a3.5 3.5 0 0 0 .209-1.219q0-.656-.209-1.223a2.07 2.07 0 0 0-.643-.916q-.435-.35-1.108-.349-.674 0-1.108.349-.435.35-.644.916a3.5 3.5 0 0 0-.209 1.223q0 .657.209 1.219t.644.908q.434.345 1.108.345m5.761.767-1.994-6.545h1.057l1.414 5.011h.068l1.398-5.011h1.074l1.381 4.994h.068l1.415-4.994h1.057L596.487 115h-.988l-1.432-5.028h-.103L592.533 115zm9.273-3.938V115h-1.006v-6.545h.972v1.022h.085q.23-.498.699-.801.469-.306 1.21-.307.665 0 1.163.273.499.269.776.818.277.546.277 1.381V115h-1.006v-4.091q0-.771-.4-1.202-.4-.434-1.1-.434-.481 0-.861.209-.375.208-.592.609-.217.4-.217.971"/></g><rect width="327" height="135" x="669" fill="#f8f8f7" rx="8"/><rect width="278" height="49" x="693.5" y="24.5" stroke="#002c4e" rx="24.5"/><path stroke="#000" stroke-linecap="round" stroke-linejoin="round" d="m731 55-2.894-2.893M724.333 53.667a5.334 5.334 0 1 0 0-10.667 5.334 5.334 0 0 0 0 10.667"/><path fill="#002c4e" d="M755.846 44.214v.812h-2.716V54h-.98v-8.974h-2.73v-.812zm7.847 2.142-4.536 11.242h-1.022l1.484-3.64-3.136-7.602h1.078l2.604 6.524 2.52-6.524zm2.295 1.68q.365-.77 1.148-1.274.798-.518 1.89-.518 1.037 0 1.862.49.84.476 1.302 1.372.476.882.476 2.058t-.476 2.072a3.34 3.34 0 0 1-1.302 1.386q-.825.49-1.862.49-1.077 0-1.876-.504-.798-.518-1.162-1.288v5.292h-.966V46.356h.966zm5.684 2.128q0-.952-.378-1.638a2.5 2.5 0 0 0-1.008-1.064 2.9 2.9 0 0 0-1.456-.364q-.783 0-1.442.378-.644.378-1.022 1.078t-.378 1.624.378 1.624 1.022 1.078q.659.378 1.442.378.813 0 1.456-.364a2.6 2.6 0 0 0 1.008-1.078q.378-.714.378-1.652m9.714-.378q0 .504-.028.77h-6.342q.042.868.42 1.484.378.615.994.938.615.308 1.344.308.951 0 1.596-.462.657-.462.868-1.246h1.036a3.26 3.26 0 0 1-1.204 1.834q-.91.7-2.296.7-1.079 0-1.932-.476a3.5 3.5 0 0 1-1.344-1.372q-.476-.896-.476-2.086t.476-2.086a3.3 3.3 0 0 1 1.33-1.372q.854-.476 1.946-.476 1.091 0 1.904.476.825.476 1.26 1.288.447.798.448 1.778m-.994-.028q.013-.855-.35-1.456a2.3 2.3 0 0 0-.966-.91 3 3 0 0 0-1.344-.308q-1.092 0-1.862.7t-.854 1.974zm6.18.406q0-1.176.462-2.058a3.37 3.37 0 0 1 1.302-1.372 3.7 3.7 0 0 1 1.89-.49q1.093 0 1.876.504.798.504 1.148 1.288v-1.68h.98V54h-.98v-1.694q-.363.784-1.162 1.302-.784.504-1.876.504-1.035 0-1.876-.49a3.47 3.47 0 0 1-1.302-1.386q-.462-.896-.462-2.072m6.678.014q0-.924-.378-1.624a2.7 2.7 0 0 0-1.036-1.078 2.77 2.77 0 0 0-1.428-.378 2.9 2.9 0 0 0-1.456.364q-.644.364-1.022 1.064-.363.685-.364 1.638 0 .938.364 1.652.378.7 1.022 1.078.645.364 1.456.364.785 0 1.428-.378a2.7 2.7 0 0 0 1.036-1.078q.378-.7.378-1.624m8.025-2.142q.365-.77 1.148-1.274.798-.518 1.89-.518 1.037 0 1.862.49.84.476 1.302 1.372.476.882.476 2.058t-.476 2.072a3.34 3.34 0 0 1-1.302 1.386q-.825.49-1.862.49-1.078 0-1.876-.504-.798-.518-1.162-1.288v5.292h-.966V46.356h.966zm5.684 2.128q0-.952-.378-1.638a2.5 2.5 0 0 0-1.008-1.064 2.9 2.9 0 0 0-1.456-.364q-.783 0-1.442.378-.644.378-1.022 1.078t-.378 1.624.378 1.624 1.022 1.078q.659.378 1.442.378.813 0 1.456-.364a2.6 2.6 0 0 0 1.008-1.078q.378-.714.378-1.652m6.144 3.948q-1.079 0-1.946-.476a3.6 3.6 0 0 1-1.358-1.372q-.49-.896-.49-2.086t.504-2.072a3.46 3.46 0 0 1 1.372-1.372q.867-.49 1.946-.49 1.077 0 1.946.49a3.35 3.35 0 0 1 1.372 1.372q.504.882.504 2.072 0 1.176-.504 2.072a3.54 3.54 0 0 1-1.386 1.386 4.06 4.06 0 0 1-1.96.476m0-.854q.756 0 1.4-.336a2.64 2.64 0 0 0 1.036-1.036q.405-.7.406-1.708 0-1.008-.392-1.694-.393-.7-1.036-1.036a2.9 2.9 0 0 0-1.4-.35q-.756 0-1.4.35-.645.336-1.036 1.036-.378.686-.378 1.694t.378 1.708q.392.686 1.022 1.036a3 3 0 0 0 1.4.336m8.268.854q-1.316 0-2.156-.602-.827-.615-.924-1.666h1.008q.07.645.602 1.05.546.392 1.456.392.798 0 1.246-.378.462-.378.462-.938a.87.87 0 0 0-.252-.644 1.7 1.7 0 0 0-.644-.392 8 8 0 0 0-1.036-.322 11 11 0 0 1-1.386-.448 2.45 2.45 0 0 1-.91-.658q-.364-.448-.364-1.19 0-.56.336-1.036t.952-.756 1.4-.28q1.232 0 1.988.63.756.616.812 1.708h-.98q-.042-.672-.532-1.078-.476-.42-1.316-.42-.742 0-1.204.35t-.462.868q0 .448.266.742.28.28.686.448.406.155 1.092.35.826.224 1.316.434t.84.616.364 1.078q0 .616-.336 1.106-.336.476-.938.756t-1.386.28m5.779-6.93v4.746q0 .7.266.966t.938.266h.896V54h-1.05q-1.036 0-1.54-.476-.504-.49-.504-1.596v-4.746h-1.064v-.826h1.064v-1.918h.994v1.918h2.1v.826zm7.11 2.996q0-1.19.476-2.072a3.33 3.33 0 0 1 1.316-1.372q.84-.49 1.918-.49 1.414 0 2.324.7.924.7 1.19 1.904h-1.05q-.196-.825-.854-1.288-.644-.476-1.61-.476-.77 0-1.386.35t-.98 1.05q-.35.686-.35 1.694t.35 1.708q.364.7.98 1.05.617.35 1.386.35.966 0 1.61-.462.658-.476.854-1.316h1.05a3.2 3.2 0 0 1-1.19 1.89q-.924.714-2.324.714-1.078 0-1.918-.476a3.45 3.45 0 0 1-1.316-1.372q-.476-.896-.476-2.086m12.38 3.934q-1.079 0-1.946-.476a3.6 3.6 0 0 1-1.358-1.372q-.49-.896-.49-2.086t.504-2.072a3.46 3.46 0 0 1 1.372-1.372q.867-.49 1.946-.49 1.077 0 1.946.49a3.35 3.35 0 0 1 1.372 1.372q.504.882.504 2.072 0 1.176-.504 2.072a3.54 3.54 0 0 1-1.386 1.386 4.06 4.06 0 0 1-1.96.476m0-.854q.755 0 1.4-.336a2.64 2.64 0 0 0 1.036-1.036q.405-.7.406-1.708 0-1.008-.392-1.694-.393-.7-1.036-1.036a2.9 2.9 0 0 0-1.4-.35q-.756 0-1.4.35-.645.336-1.036 1.036-.378.686-.378 1.694t.378 1.708q.392.686 1.022 1.036a3 3 0 0 0 1.4.336m5.188-3.094q0-1.176.476-2.058a3.37 3.37 0 0 1 1.302-1.372 3.7 3.7 0 0 1 1.89-.49q1.008 0 1.82.49t1.19 1.274V43.64h.98V54h-.98v-1.708q-.35.797-1.148 1.316-.798.504-1.876.504-1.05 0-1.89-.49a3.47 3.47 0 0 1-1.302-1.386q-.462-.896-.462-2.072m6.678.014q0-.924-.378-1.624a2.7 2.7 0 0 0-1.036-1.078 2.77 2.77 0 0 0-1.428-.378 2.9 2.9 0 0 0-1.456.364q-.644.364-1.022 1.064-.364.685-.364 1.638 0 .938.364 1.652.378.7 1.022 1.078.645.364 1.456.364.784 0 1.428-.378a2.7 2.7 0 0 0 1.036-1.078q.378-.7.378-1.624m10.134-.392q0 .504-.028.77h-6.342q.042.868.42 1.484.378.615.994.938.615.308 1.344.308.951 0 1.596-.462.658-.462.868-1.246h1.036a3.26 3.26 0 0 1-1.204 1.834q-.91.7-2.296.7-1.079 0-1.932-.476a3.5 3.5 0 0 1-1.344-1.372q-.476-.896-.476-2.086t.476-2.086a3.3 3.3 0 0 1 1.33-1.372q.854-.476 1.946-.476 1.091 0 1.904.476.825.476 1.26 1.288.448.798.448 1.778m-.994-.028q.013-.855-.35-1.456a2.3 2.3 0 0 0-.966-.91 3 3 0 0 0-1.344-.308q-1.092 0-1.862.7t-.854 1.974zm9.974 4.354q-1.077 0-1.946-.476a3.6 3.6 0 0 1-1.358-1.372q-.49-.896-.49-2.086t.504-2.072a3.47 3.47 0 0 1 1.372-1.372 3.9 3.9 0 0 1 1.946-.49q1.079 0 1.946.49a3.35 3.35 0 0 1 1.372 1.372q.504.882.504 2.072 0 1.176-.504 2.072a3.54 3.54 0 0 1-1.386 1.386 4.06 4.06 0 0 1-1.96.476m0-.854a3 3 0 0 0 1.4-.336q.645-.35 1.036-1.036.406-.7.406-1.708t-.392-1.694q-.391-.7-1.036-1.036a2.9 2.9 0 0 0-1.4-.35q-.755 0-1.4.35-.643.336-1.036 1.036-.378.686-.378 1.694t.378 1.708q.392.686 1.022 1.036.644.336 1.4.336m6.617-5.544a2.4 2.4 0 0 1 .98-1.106q.672-.392 1.638-.392v1.022h-.266q-1.065 0-1.708.574-.644.574-.644 1.918V54h-.98v-7.644h.98zm7.486 2.45q0-1.176.462-2.058a3.36 3.36 0 0 1 1.302-1.372 3.7 3.7 0 0 1 1.89-.49q1.092 0 1.876.504.798.504 1.148 1.288v-1.68h.98V54h-.98v-1.694q-.364.784-1.162 1.302-.784.504-1.876.504a3.65 3.65 0 0 1-1.876-.49 3.45 3.45 0 0 1-1.302-1.386q-.462-.896-.462-2.072m6.678.014q0-.924-.378-1.624a2.7 2.7 0 0 0-1.036-1.078 2.77 2.77 0 0 0-1.428-.378q-.813 0-1.456.364-.644.364-1.022 1.064-.364.685-.364 1.638 0 .938.364 1.652.377.7 1.022 1.078.643.364 1.456.364.783 0 1.428-.378a2.7 2.7 0 0 0 1.036-1.078q.378-.7.378-1.624m2.769-.014q0-1.176.476-2.058a3.36 3.36 0 0 1 1.302-1.372 3.7 3.7 0 0 1 1.89-.49q1.008 0 1.82.49t1.19 1.274V43.64h.98V54h-.98v-1.708q-.35.797-1.148 1.316-.798.504-1.876.504-1.05 0-1.89-.49a3.45 3.45 0 0 1-1.302-1.386q-.462-.896-.462-2.072m6.678.014q0-.924-.378-1.624a2.7 2.7 0 0 0-1.036-1.078 2.77 2.77 0 0 0-1.428-.378q-.812 0-1.456.364t-1.022 1.064q-.364.685-.364 1.638 0 .938.364 1.652.378.7 1.022 1.078.644.364 1.456.364.785 0 1.428-.378a2.7 2.7 0 0 0 1.036-1.078q.378-.7.378-1.624m2.769-.014q0-1.176.476-2.058a3.37 3.37 0 0 1 1.302-1.372 3.7 3.7 0 0 1 1.89-.49q1.008 0 1.82.49t1.19 1.274V43.64h.98V54h-.98v-1.708q-.35.797-1.148 1.316-.798.504-1.876.504-1.05 0-1.89-.49a3.47 3.47 0 0 1-1.302-1.386q-.462-.896-.462-2.072m6.678.014q0-.924-.378-1.624a2.7 2.7 0 0 0-1.036-1.078 2.77 2.77 0 0 0-1.428-.378 2.9 2.9 0 0 0-1.456.364q-.644.364-1.022 1.064-.363.685-.364 1.638 0 .938.364 1.652.378.7 1.022 1.078.645.364 1.456.364.784 0 1.428-.378a2.7 2.7 0 0 0 1.036-1.078q.378-.7.378-1.624m4.198-2.464a2.4 2.4 0 0 1 .98-1.106q.672-.392 1.638-.392v1.022h-.266q-1.065 0-1.708.574-.644.574-.644 1.918V54h-.98v-7.644h.98zm11.008 2.072q0 .504-.028.77h-6.342q.042.868.42 1.484.378.615.994.938.616.308 1.344.308.952 0 1.596-.462.658-.462.868-1.246h1.036a3.26 3.26 0 0 1-1.204 1.834q-.91.7-2.296.7-1.079 0-1.932-.476a3.5 3.5 0 0 1-1.344-1.372q-.476-.896-.476-2.086t.476-2.086a3.3 3.3 0 0 1 1.33-1.372q.854-.476 1.946-.476t1.904.476a3.2 3.2 0 0 1 1.26 1.288q.448.798.448 1.778m-.994-.028q.014-.855-.35-1.456a2.27 2.27 0 0 0-.966-.91 3 3 0 0 0-1.344-.308q-1.092 0-1.862.7t-.854 1.974zm5.419 4.354q-1.316 0-2.156-.602-.827-.615-.924-1.666h1.008q.07.645.602 1.05.546.392 1.456.392.798 0 1.246-.378.462-.378.462-.938a.87.87 0 0 0-.252-.644 1.7 1.7 0 0 0-.644-.392 8 8 0 0 0-1.036-.322 10.5 10.5 0 0 1-1.386-.448 2.45 2.45 0 0 1-.91-.658q-.364-.448-.364-1.19 0-.56.336-1.036t.952-.756 1.4-.28q1.232 0 1.988.63.755.616.812 1.708h-.98q-.043-.672-.532-1.078-.476-.42-1.316-.42-.742 0-1.204.35t-.462.868q0 .448.266.742.28.28.686.448.405.155 1.092.35.825.224 1.316.434.489.21.84.616.35.406.364 1.078 0 .616-.336 1.106-.336.476-.938.756-.603.28-1.386.28m7.137 0q-1.317 0-2.156-.602-.827-.615-.924-1.666h1.008q.07.645.602 1.05.546.392 1.456.392.798 0 1.246-.378.462-.378.462-.938a.87.87 0 0 0-.252-.644 1.7 1.7 0 0 0-.644-.392 8 8 0 0 0-1.036-.322 10.5 10.5 0 0 1-1.386-.448 2.45 2.45 0 0 1-.91-.658q-.364-.448-.364-1.19 0-.56.336-1.036t.952-.756 1.4-.28q1.232 0 1.988.63.756.616.812 1.708h-.98q-.043-.672-.532-1.078-.476-.42-1.316-.42-.742 0-1.204.35t-.462.868q0 .448.266.742.28.28.686.448.405.155 1.092.35.825.224 1.316.434.489.21.84.616.35.406.364 1.078 0 .616-.336 1.106-.336.476-.938.756-.603.28-1.386.28"/><g fill="#000" clip-path="url(#e)"><path d="M698.137 92.2a1.07 1.07 0 0 0-.461-.798q-.402-.285-1.047-.285-.453 0-.777.137a1.15 1.15 0 0 0-.497.371.9.9 0 0 0-.175.535q0 .25.113.434.117.183.316.312.2.126.442.211.242.086.488.145l.75.187q.454.106.871.285.422.18.754.454.336.273.531.66.196.387.196.906 0 .703-.36 1.238-.359.532-1.039.832-.675.297-1.637.297-.933 0-1.621-.289a2.4 2.4 0 0 1-1.07-.844q-.382-.555-.414-1.351h1.426q.031.417.258.695.226.278.589.414.368.137.821.137.473 0 .828-.14.359-.145.562-.4a.96.96 0 0 0 .207-.6.76.76 0 0 0-.183-.516 1.35 1.35 0 0 0-.504-.344 5 5 0 0 0-.75-.25l-.91-.235q-.988-.253-1.563-.77-.57-.518-.57-1.378 0-.707.383-1.238a2.53 2.53 0 0 1 1.051-.825 3.64 3.64 0 0 1 1.503-.296q.852 0 1.493.296a2.43 2.43 0 0 1 1.011.817q.367.52.379 1.195zm5.389 5.917q-.902 0-1.558-.375a2.54 2.54 0 0 1-1.004-1.07q-.352-.696-.352-1.637 0-.926.352-1.625.356-.703.992-1.094.637-.394 1.496-.394.555 0 1.047.18.496.175.875.546.383.372.602.946.218.57.218 1.36v.433h-4.918v-.953h3.563a1.5 1.5 0 0 0-.176-.723 1.3 1.3 0 0 0-.48-.504 1.35 1.35 0 0 0-.711-.184q-.434 0-.762.211-.328.207-.512.547-.18.336-.183.738v.833q0 .523.191.898.192.371.535.57.344.196.805.196.309 0 .558-.086.25-.09.434-.262.183-.172.277-.426l1.321.149a2.06 2.06 0 0 1-.477.914 2.3 2.3 0 0 1-.89.601q-.543.21-1.243.211m5.591.004q-.57 0-1.027-.203a1.7 1.7 0 0 1-.719-.61q-.261-.401-.262-.992 0-.507.188-.84.187-.331.512-.53.324-.2.73-.302.41-.105.848-.152.526-.054.855-.098.329-.046.477-.14.152-.098.152-.3v-.024q0-.442-.262-.684-.26-.242-.754-.242-.52 0-.824.227-.3.226-.406.535l-1.32-.188q.156-.548.515-.914.36-.37.879-.555a3.4 3.4 0 0 1 1.149-.187q.433 0 .863.101t.785.336q.356.231.57.63.219.398.219.995V98h-1.359v-.824h-.047a1.7 1.7 0 0 1-.363.468q-.231.216-.582.348a2.4 2.4 0 0 1-.817.13m.367-1.039q.426 0 .739-.168.312-.172.48-.453a1.15 1.15 0 0 0 .172-.613v-.707a.7.7 0 0 1-.227.101 3 3 0 0 1-.351.082q-.195.035-.387.063l-.332.047q-.317.042-.566.14a.94.94 0 0 0-.395.274.67.67 0 0 0-.144.445q0 .39.285.59t.726.199m4.223.918v-6h1.371v1h.063a1.5 1.5 0 0 1 1.48-1.086q.117 0 .262.012.149.008.246.027v1.3a1.5 1.5 0 0 0-.285-.054 3 3 0 0 0-.371-.027q-.387 0-.696.168-.304.165-.48.457a1.3 1.3 0 0 0-.176.676V98zm6.731.117q-.898 0-1.542-.394a2.63 2.63 0 0 1-.989-1.09q-.344-.7-.344-1.61 0-.914.352-1.613.351-.703.992-1.094.645-.394 1.524-.394.73 0 1.293.27.566.266.902.753.336.484.383 1.133h-1.352a1.3 1.3 0 0 0-.39-.722q-.306-.293-.817-.293-.434 0-.762.234a1.5 1.5 0 0 0-.511.664q-.18.433-.18 1.039 0 .613.18 1.055.18.437.504.675.328.235.769.235.313 0 .559-.117a1.1 1.1 0 0 0 .418-.348q.168-.227.23-.55h1.352a2.36 2.36 0 0 1-.375 1.128q-.324.488-.883.766-.558.273-1.313.273m5.146-3.633V98h-1.414v-8h1.383v3.02h.07a1.74 1.74 0 0 1 .652-.801q.446-.297 1.133-.297.625 0 1.09.262t.719.765q.258.504.258 1.23V98h-1.414v-3.602q0-.605-.313-.941-.309-.34-.867-.34-.375 0-.672.164a1.15 1.15 0 0 0-.461.465q-.164.305-.164.738"/><path fill-opacity=".7" d="M698.83 108.455a1.34 1.34 0 0 0-.623-1.006q-.545-.358-1.338-.358-.579 0-1.014.187a1.6 1.6 0 0 0-.673.516 1.24 1.24 0 0 0-.239.746q0 .35.166.601.171.246.435.413.264.162.554.268.29.103.533.167l.886.238q.34.09.759.247.421.158.805.431.388.269.639.69.252.422.252 1.036a2.3 2.3 0 0 1-.371 1.278q-.366.571-1.074.908-.703.336-1.709.336-.938 0-1.623-.302a2.6 2.6 0 0 1-1.074-.844 2.4 2.4 0 0 1-.439-1.257h1.091q.042.495.332.818.294.32.742.477.452.154.971.154.606 0 1.087-.196.481-.2.763-.554.28-.358.281-.835 0-.435-.243-.708a1.8 1.8 0 0 0-.639-.443 7 7 0 0 0-.857-.298l-1.074-.307q-1.022-.294-1.619-.84-.597-.545-.597-1.427 0-.733.397-1.279.4-.549 1.074-.852a3.6 3.6 0 0 1 1.512-.307q.845 0 1.5.303.657.299 1.04.818.388.52.409 1.181zm5.487 6.681q-.946 0-1.632-.417a2.8 2.8 0 0 1-1.053-1.176q-.366-.759-.366-1.765t.366-1.772a2.9 2.9 0 0 1 1.032-1.202q.665-.435 1.551-.435.511 0 1.01.171.499.17.907.554.41.38.652 1.005.243.627.243 1.543v.426h-5.045v-.869h4.023q0-.554-.222-.989a1.67 1.67 0 0 0-.622-.686 1.75 1.75 0 0 0-.946-.251q-.601 0-1.04.298a1.96 1.96 0 0 0-.669.767 2.25 2.25 0 0 0-.234 1.014v.58q0 .741.255 1.257.26.512.721.78.46.264 1.069.264.396 0 .716-.111.324-.115.558-.341.235-.23.362-.571l.972.273a2.15 2.15 0 0 1-.516.869 2.5 2.5 0 0 1-.894.58 3.3 3.3 0 0 1-1.198.204m6.166.017q-.621 0-1.129-.234a1.94 1.94 0 0 1-.805-.686q-.299-.452-.299-1.091 0-.562.222-.912.222-.354.592-.554a3.1 3.1 0 0 1 .818-.298q.452-.102.908-.162.597-.077.967-.115.375-.043.546-.141.174-.098.175-.341v-.034q0-.63-.346-.98-.34-.35-1.035-.349-.72 0-1.129.315-.41.316-.576.673l-.954-.341q.255-.596.682-.929.43-.336.937-.468a4 4 0 0 1 1.006-.137q.316 0 .724.077.413.072.797.303.388.23.644.694.255.465.255 1.245V115h-1.005v-.886h-.052a1.8 1.8 0 0 1-.34.456q-.24.243-.635.413-.397.17-.968.17m.154-.903q.596 0 1.005-.234.413-.235.623-.605.213-.372.213-.78v-.921q-.064.077-.282.141-.212.06-.494.106a21 21 0 0 1-.963.128q-.392.052-.733.166a1.26 1.26 0 0 0-.545.337q-.205.221-.205.605 0 .525.388.793.391.264.993.264m4.682.75v-6.545h.971v.988h.069q.179-.485.647-.788a1.9 1.9 0 0 1 1.057-.303 11 11 0 0 1 .529.017v1.023a3 3 0 0 0-.235-.038 2.3 2.3 0 0 0-.379-.03q-.477 0-.852.2a1.468 1.468 0 0 0-.801 1.334V115zm6.925.136q-.92 0-1.586-.434a2.83 2.83 0 0 1-1.022-1.198q-.358-.762-.358-1.743 0-.996.366-1.76.37-.766 1.031-1.197.666-.435 1.552-.435.69 0 1.244.256.554.255.908.716.353.46.438 1.074h-1.005a1.56 1.56 0 0 0-.512-.793q-.391-.35-1.056-.349-.588 0-1.032.307a2 2 0 0 0-.686.856q-.243.55-.243 1.291 0 .759.239 1.321.243.562.682.874.443.31 1.04.311.391 0 .711-.136a1.47 1.47 0 0 0 .857-1.006h1.005a2.3 2.3 0 0 1-.421 1.044 2.36 2.36 0 0 1-.883.733q-.544.268-1.269.268m5.049-4.074V115h-1.005v-8.727h1.005v3.204h.086q.23-.507.69-.805.464-.303 1.236-.303.668 0 1.172.269a1.8 1.8 0 0 1 .779.814q.282.544.282 1.389V115h-1.006v-4.091q0-.78-.405-1.206-.4-.43-1.112-.43-.495 0-.886.209a1.5 1.5 0 0 0-.614.609q-.222.4-.222.971M738.235 115l-1.994-6.545h1.057l1.415 5.011h.068l1.398-5.011h1.073l1.381 4.994h.068l1.415-4.994h1.057L743.179 115h-.989l-1.432-5.028h-.102L739.224 115zm8.267 0v-6.545h1.006V115zm.512-7.636a.71.71 0 0 1-.507-.201.64.64 0 0 1-.209-.481q0-.282.209-.482a.72.72 0 0 1 .507-.2q.294 0 .503.2a.64.64 0 0 1 .213.482.64.64 0 0 1-.213.481.7.7 0 0 1-.503.201m5.183 1.091v.852h-3.392v-.852zm-2.404-1.569h1.006v6.239q0 .426.124.639a.64.64 0 0 0 .323.281q.201.069.422.069.166 0 .273-.017l.171-.035.204.904a2.2 2.2 0 0 1-.75.119q-.426 0-.835-.183a1.66 1.66 0 0 1-.673-.558q-.265-.376-.265-.946zm5.063 4.176V115h-1.006v-8.727h1.006v3.204h.085q.23-.507.69-.805.465-.303 1.236-.303.67 0 1.172.269.503.264.78.814.28.544.281 1.389V115h-1.006v-4.091q0-.78-.404-1.206-.4-.43-1.113-.43-.494 0-.886.209a1.53 1.53 0 0 0-.614.609q-.22.4-.221.971m9.459 3.938v-6.545h1.006V115zm.511-7.636a.71.71 0 0 1-.507-.201.64.64 0 0 1-.209-.481q0-.282.209-.482a.72.72 0 0 1 .507-.2q.294 0 .503.2a.64.64 0 0 1 .213.482.64.64 0 0 1-.213.481.7.7 0 0 1-.503.201m4.996 7.772q-.92 0-1.585-.434a2.8 2.8 0 0 1-1.023-1.198q-.358-.762-.358-1.743 0-.996.366-1.76.37-.766 1.032-1.197.664-.435 1.551-.435.69 0 1.244.256.554.255.908.716.353.46.439 1.074h-1.006a1.56 1.56 0 0 0-.511-.793q-.393-.35-1.057-.349-.588 0-1.032.307a2 2 0 0 0-.686.856q-.243.55-.242 1.291 0 .759.238 1.321.243.562.682.874.443.31 1.04.311.391 0 .711-.136a1.5 1.5 0 0 0 .542-.392 1.5 1.5 0 0 0 .315-.614h1.006a2.34 2.34 0 0 1-.422 1.044 2.36 2.36 0 0 1-.882.733q-.546.268-1.27.268m6.703 0q-.887 0-1.556-.422a2.86 2.86 0 0 1-1.039-1.18q-.37-.759-.371-1.773 0-1.022.371-1.785.375-.763 1.039-1.185.67-.422 1.556-.422t1.551.422q.67.422 1.04 1.185.375.763.375 1.785 0 1.014-.375 1.773a2.8 2.8 0 0 1-1.04 1.18q-.664.423-1.551.422m0-.903q.673 0 1.108-.345t.643-.908a3.5 3.5 0 0 0 .209-1.219q0-.656-.209-1.223a2.06 2.06 0 0 0-.643-.916q-.435-.35-1.108-.349-.673 0-1.108.349-.434.35-.644.916a3.5 3.5 0 0 0-.208 1.223q0 .657.208 1.219.21.563.644.908t1.108.345m5.507-3.171V115h-1.006v-6.545h.972v1.022h.085q.23-.498.699-.801.468-.306 1.21-.307.665 0 1.163.273.499.269.776.818.277.546.277 1.381V115h-1.006v-4.091q0-.771-.401-1.202-.4-.434-1.099-.434-.481 0-.861.209-.375.208-.592.609-.217.4-.217.971"/></g><rect width="199" height="135" x="1012" fill="#f8f8f7" rx="8"/><rect width="150" height="49" x="1036.5" y="24.5" stroke="#002c4e" rx="24.5"/><path stroke="#000" stroke-linecap="round" stroke-linejoin="round" stroke-width="1.333" d="M1063.33 49h9.34"/><path fill="#002c4e" d="M1108.65 44.7v-2.322h4.34V55.5h-2.6V44.7z"/><path stroke="#000" stroke-linecap="round" stroke-linejoin="round" d="M1150.33 49h9.34M1155 44.333v9.334"/><g fill="#000" clip-path="url(#f)"><path d="M1039.77 95.313h1.31l.78 1.007.55.657 1.34 1.71h-1.41l-.91-1.148-.38-.547zm4.17-1.313c0 .862-.16 1.6-.49 2.215-.32.612-.75 1.08-1.31 1.406-.55.326-1.18.488-1.88.488s-1.33-.162-1.88-.488a3.5 3.5 0 0 1-1.31-1.41q-.48-.922-.48-2.211 0-1.293.48-2.21c.32-.616.76-1.086 1.31-1.411.55-.326 1.18-.488 1.88-.488s1.33.162 1.88.488c.56.325.99.795 1.31 1.41.33.612.49 1.349.49 2.211m-1.46 0c0-.607-.09-1.118-.28-1.535-.19-.42-.45-.736-.79-.95a2.04 2.04 0 0 0-1.15-.324c-.43 0-.82.108-1.15.325-.33.213-.6.53-.79.949-.18.416-.28.928-.28 1.535s.1 1.12.28 1.54c.19.416.46.732.79.948.33.214.72.32 1.15.32.44 0 .82-.106 1.15-.32.34-.216.6-.532.79-.949.19-.42.28-.932.28-1.539m6.6 1.477V92h1.41v6h-1.37v-1.066h-.06c-.13.335-.36.61-.67.824-.3.213-.68.32-1.13.32q-.6 0-1.05-.262c-.3-.177-.53-.433-.7-.77-.17-.338-.25-.747-.25-1.226V92h1.41v3.602c0 .38.1.682.31.906s.48.336.82.336c.21 0 .41-.051.61-.153q.285-.151.48-.453c.13-.203.19-.457.19-.761m4.59 2.644q-.57 0-1.02-.203a1.7 1.7 0 0 1-.72-.61c-.18-.268-.26-.598-.26-.992q0-.507.18-.84c.13-.22.3-.398.52-.53.21-.133.46-.234.73-.302q.405-.105.84-.152c.36-.036.64-.069.86-.098q.33-.046.48-.14.15-.098.15-.3v-.024c0-.295-.09-.522-.26-.684-.18-.161-.43-.242-.76-.242-.34 0-.62.075-.82.227-.2.15-.34.329-.41.535l-1.32-.188c.11-.365.28-.67.52-.914.24-.247.53-.432.88-.555.34-.125.73-.187 1.15-.187.28 0 .57.034.86.101q.435.102.78.336.36.231.57.63c.15.265.22.597.22.995V98h-1.36v-.824h-.04c-.09.166-.21.323-.37.468-.15.144-.34.26-.58.348-.23.086-.5.13-.82.13m.37-1.039c.29 0 .53-.056.74-.168q.315-.172.48-.453c.12-.188.17-.392.17-.613v-.707a.6.6 0 0 1-.22.101 4 4 0 0 1-.36.082c-.13.024-.25.044-.38.063l-.33.047c-.22.028-.4.075-.57.14a.96.96 0 0 0-.4.274.7.7 0 0 0-.14.445c0 .26.1.457.29.59q.285.2.72.199m5.64-2.598V98h-1.42v-6h1.36v1.02h.07q.195-.504.66-.801c.3-.198.68-.297 1.13-.297q.615 0 1.08.266.465.265.72.769c.17.336.25.744.25 1.223V98h-1.41v-3.602c0-.4-.11-.714-.32-.941-.2-.226-.49-.34-.85-.34a1.3 1.3 0 0 0-.66.164q-.285.16-.45.465c-.11.203-.16.45-.16.738m8.28-2.484v1.094h-3.45V92zm-2.59-1.437h1.41v5.632q0 .285.09.438c.06.099.13.166.23.203a.9.9 0 0 0 .32.055q.135 0 .24-.02c.08-.013.14-.025.17-.035l.24 1.105a2.7 2.7 0 0 1-.83.141 2.35 2.35 0 0 1-.96-.16c-.28-.12-.5-.305-.67-.555q-.255-.375-.24-.937zm3.78 7.437v-6h1.41v6zm.71-6.852a.82.82 0 0 1-.58-.222.72.72 0 0 1-.24-.543q0-.321.24-.543a.8.8 0 0 1 .58-.227c.22 0 .42.076.58.227q.24.223.24.543a.72.72 0 0 1-.24.543.83.83 0 0 1-.58.222m5.15.852v1.094h-3.45V92zm-2.6-1.437h1.42v5.632c0 .19.03.336.08.438q.09.148.24.203c.09.036.2.055.32.055q.135 0 .24-.02c.08-.013.13-.025.17-.035l.24 1.105a2.698 2.698 0 0 1-.83.14q-.54.017-.96-.16a1.46 1.46 0 0 1-.67-.554c-.17-.25-.25-.562-.25-.937zm4.66 9.687c-.19 0-.37-.016-.53-.047a2 2 0 0 1-.39-.101l.33-1.102c.2.06.39.088.55.086s.3-.053.43-.152c.12-.097.23-.258.31-.485l.12-.324-2.17-6.125h1.5l1.38 4.531h.06l1.39-4.531h1.5l-2.4 6.727c-.11.317-.26.59-.44.816-.19.23-.42.404-.68.523a2.3 2.3 0 0 1-.96.184m12.6-8.05a1.08 1.08 0 0 0-.46-.798q-.405-.285-1.05-.285-.45 0-.78.137a1.14 1.14 0 0 0-.49.371.92.92 0 0 0-.18.535q0 .25.12.434c.07.122.18.226.31.312.14.084.28.154.44.211.17.057.33.106.49.145l.75.187q.45.106.87.285c.28.12.54.271.76.454.22.182.4.402.53.66s.19.56.19.906q0 .703-.36 1.238c-.24.354-.58.632-1.03.832-.46.198-1 .297-1.64.297q-.93 0-1.62-.289a2.4 2.4 0 0 1-1.07-.844q-.39-.555-.42-1.351h1.43c.02.278.11.51.26.695s.34.323.59.414c.24.091.51.137.82.137s.59-.047.83-.14c.23-.097.42-.23.56-.4.13-.171.2-.372.2-.6q0-.314-.18-.516a1.4 1.4 0 0 0-.5-.344 5.4 5.4 0 0 0-.75-.25l-.91-.235c-.66-.169-1.18-.425-1.57-.77q-.57-.518-.57-1.378 0-.707.39-1.238c.25-.354.61-.63 1.05-.825q.66-.296 1.5-.296c.57 0 1.07.099 1.49.296q.645.294 1.02.817c.24.346.37.745.37 1.195zm5.39 5.917q-.9 0-1.56-.375c-.43-.252-.77-.61-1-1.07-.24-.464-.35-1.01-.35-1.637 0-.617.11-1.159.35-1.625q.345-.703.99-1.094.63-.394 1.5-.394c.37 0 .71.06 1.04.18.33.117.62.299.88.546q.375.372.6.946c.14.38.22.833.22 1.36v.433h-4.92v-.953h3.56c0-.271-.06-.512-.17-.723a1.36 1.36 0 0 0-.48-.504 1.4 1.4 0 0 0-.72-.184 1.421 1.421 0 0 0-1.27.758q-.18.336-.18.739v.832c0 .349.06.648.19.898.13.247.31.438.53.57q.345.196.81.196c.2 0 .39-.029.56-.086.16-.06.31-.147.43-.262s.22-.257.28-.426l1.32.149q-.12.523-.48.914c-.23.257-.53.458-.89.601-.36.14-.77.211-1.24.211m5.28-8.117v8h-1.42v-8zm4.11 8.117q-.9 0-1.56-.375c-.44-.252-.77-.61-1-1.07q-.36-.696-.36-1.637 0-.926.36-1.625.345-.703.99-1.094c.42-.263.92-.394 1.49-.394q.555 0 1.05.18c.33.117.62.299.88.546q.375.372.6.946c.14.38.22.833.22 1.36v.433h-4.92v-.953h3.56q0-.407-.18-.723a1.2 1.2 0 0 0-.48-.504c-.2-.122-.44-.184-.71-.184a1.421 1.421 0 0 0-1.27.758q-.18.336-.18.739v.832c0 .349.06.648.19.898.13.247.3.438.53.57q.345.196.81.196c.2 0 .39-.029.56-.086.16-.06.31-.147.43-.262s.21-.257.28-.426l1.32.149c-.09.349-.24.653-.48.914-.23.257-.53.458-.89.601-.36.14-.78.211-1.24.211m6.48 0c-.6 0-1.11-.131-1.54-.394a2.6 2.6 0 0 1-.99-1.09c-.23-.466-.35-1.003-.35-1.61q0-.914.36-1.613.345-.703.99-1.094c.43-.263.94-.394 1.52-.394q.735 0 1.29.27c.38.177.68.428.91.753.22.323.35.7.38 1.133h-1.35q-.09-.434-.39-.722c-.21-.196-.48-.293-.82-.293-.29 0-.54.078-.76.234q-.33.23-.51.664-.18.433-.18 1.039 0 .613.18 1.055c.12.291.29.517.5.675.22.157.48.235.77.235.21 0 .4-.04.56-.117q.255-.122.42-.348c.11-.151.19-.335.23-.55h1.35c-.03.424-.16.8-.38 1.128-.21.326-.51.58-.88.766-.37.182-.81.273-1.31.273m6.73-6.117v1.094h-3.45V92zm-2.6-1.437h1.41v5.632q0 .285.09.438c.06.099.14.166.23.203.1.036.21.055.32.055a1.5 1.5 0 0 0 .42-.055l.24 1.105a4 4 0 0 1-.33.086c-.14.032-.3.05-.51.055-.35.01-.67-.043-.95-.16-.29-.12-.51-.305-.68-.555q-.24-.375-.24-.937zm6.33 7.554c-.58 0-1.09-.129-1.52-.386a2.64 2.64 0 0 1-1-1.083c-.24-.463-.35-1.005-.35-1.625s.11-1.162.35-1.629c.24-.466.57-.828 1-1.085.43-.258.94-.387 1.52-.387q.885 0 1.53.387.645.386.99 1.085.36.7.36 1.63t-.36 1.624q-.345.696-.99 1.083-.645.386-1.53.386m.01-1.133c.32 0 .58-.087.8-.261.21-.177.37-.414.47-.711.11-.297.16-.628.16-.993 0-.367-.05-.699-.16-.996-.1-.299-.26-.537-.47-.714a1.22 1.22 0 0 0-.8-.266q-.495 0-.81.266-.33.266-.48.714c-.11.297-.16.63-.16.996 0 .365.05.696.16.993q.15.446.48.71.315.262.81.262m4.07 1.016v-6h1.37v1h.06c.11-.346.3-.613.56-.8.27-.19.58-.286.92-.286.08 0 .17.004.26.012.1.005.18.014.25.027v1.3c-.06-.02-.16-.038-.29-.054a2.5 2.5 0 0 0-.37-.027c-.25 0-.49.056-.69.168q-.315.165-.48.457-.18.292-.18.676V98z"/><path fill-opacity=".7" d="M1042.68 111.114v.954h-5.45v-.954zm5.24-5.25-2.82 10.448h-.92l2.82-10.448zm3.74 8.539v-5.625h.96v5.625zm-2.33-2.335v-.954h5.62v.954zm15.7-2.148-.9.256c-.06-.15-.14-.297-.26-.439-.1-.145-.25-.264-.44-.358q-.285-.14-.72-.14c-.4 0-.73.092-1 .277-.26.181-.4.413-.4.694 0 .25.09.448.28.593.18.144.46.265.85.362l.97.238c.59.142 1.02.36 1.31.652.29.29.43.664.43 1.121q0 .562-.33 1.006c-.21.295-.51.528-.89.699s-.83.255-1.34.255c-.67 0-1.22-.145-1.66-.434-.43-.29-.71-.713-.83-1.27l.96-.239q.135.529.51.793c.26.176.59.264 1 .264.47 0 .85-.099 1.12-.298q.42-.303.42-.725a.76.76 0 0 0-.24-.571c-.16-.156-.4-.272-.73-.349l-1.09-.256q-.9-.213-1.32-.66-.42-.453-.42-1.13c0-.369.1-.696.31-.98s.49-.507.86-.669q.54-.243 1.23-.243.975 0 1.53.426c.37.285.63.66.79 1.125m4.48-1.465v.852h-3.39v-.852zm-2.4-1.569h1v6.239c0 .284.04.497.13.639.08.139.19.233.32.281q.195.069.42.069.165 0 .27-.017l.17-.035.21.904c-.07.025-.16.051-.29.077-.12.028-.27.042-.46.042-.29 0-.56-.061-.84-.183a1.65 1.65 0 0 1-.67-.558c-.18-.25-.26-.566-.26-.946zm6.59 8.25c-.63 0-1.18-.139-1.64-.417a2.85 2.85 0 0 1-1.05-1.176c-.24-.506-.37-1.094-.37-1.765s.13-1.261.37-1.772c.25-.515.59-.915 1.03-1.202.45-.29.96-.435 1.55-.435.34 0 .68.057 1.01.171.34.113.64.298.91.554.27.253.49.588.65 1.005.17.418.25.932.25 1.543v.426h-5.05v-.869h4.02c0-.369-.07-.699-.22-.989-.14-.29-.35-.518-.62-.686a1.75 1.75 0 0 0-.95-.251c-.4 0-.74.099-1.04.298-.29.196-.51.452-.67.767-.15.315-.23.653-.23 1.014v.58c0 .494.09.913.26 1.257q.255.512.72.78c.3.176.66.264 1.07.264.26 0 .5-.037.71-.111.22-.077.4-.19.56-.341q.24-.23.36-.571l.97.273q-.15.494-.51.869a2.5 2.5 0 0 1-.9.58c-.35.136-.75.204-1.19.204m4.24 2.319v-9h.97v1.039h.12q.105-.17.3-.434.21-.268.57-.478.375-.213 1.02-.213c.55 0 1.04.138 1.46.414s.75.666.98 1.172c.24.505.35 1.102.35 1.789 0 .694-.11 1.294-.35 1.803-.23.506-.56.898-.98 1.176q-.63.413-1.44.413c-.42 0-.76-.069-1.01-.208a1.9 1.9 0 0 1-.59-.482c-.13-.182-.24-.332-.31-.452h-.09v3.461zm.98-5.728c0 .495.08.931.22 1.309.15.375.36.669.64.882q.42.315 1.02.315.63 0 1.05-.332c.29-.225.5-.526.64-.904.15-.381.22-.804.22-1.27q0-.69-.21-1.244a1.97 1.97 0 0 0-.64-.882c-.28-.219-.63-.328-1.06-.328-.41 0-.75.103-1.03.311q-.42.306-.63.861c-.14.366-.22.794-.22 1.282m6.33 5.728v-9h.97v1.039h.12c.07-.113.18-.258.31-.434q.195-.268.57-.478c.25-.142.59-.213 1.01-.213.55 0 1.04.138 1.46.414s.75.666.98 1.172q.36.758.36 1.789 0 1.04-.36 1.803c-.23.506-.56.898-.98 1.176-.41.276-.9.413-1.44.413-.42 0-.76-.069-1.01-.208a2 2 0 0 1-.59-.482c-.13-.182-.24-.332-.31-.452h-.09v3.461zm.99-5.728q0 .742.21 1.309c.15.375.36.669.64.882q.42.315 1.02.315.63 0 1.05-.332c.29-.225.5-.526.64-.904.15-.381.22-.804.22-1.27q0-.69-.21-1.244a1.9 1.9 0 0 0-.64-.882c-.28-.219-.63-.328-1.06-.328-.41 0-.75.103-1.03.311q-.42.306-.63.861-.21.55-.21 1.282m9.07 3.409c-.64 0-1.18-.139-1.64-.417a2.85 2.85 0 0 1-1.05-1.176c-.24-.506-.37-1.094-.37-1.765s.13-1.261.37-1.772c.25-.515.59-.915 1.03-1.202.45-.29.96-.435 1.55-.435.34 0 .68.057 1.01.171.34.113.64.298.91.554.27.253.49.588.65 1.005.16.418.25.932.25 1.543v.426h-5.05v-.869h4.02c0-.369-.07-.699-.22-.989-.14-.29-.35-.518-.62-.686a1.75 1.75 0 0 0-.95-.251c-.4 0-.74.099-1.04.298-.29.196-.51.452-.67.767-.15.315-.23.653-.23 1.014v.58c0 .494.09.913.26 1.257q.255.512.72.78c.3.176.66.264 1.07.264.26 0 .5-.037.71-.111.22-.077.4-.19.56-.341q.24-.23.36-.571l.97.273q-.15.494-.51.869a2.5 2.5 0 0 1-.9.58c-.35.136-.75.204-1.19.204m4.24-.136v-6.545h.97v.988h.07c.11-.324.33-.586.64-.788.32-.202.67-.303 1.06-.303a11 11 0 0 1 .53.017v1.023a4 4 0 0 0-.24-.038c-.12-.02-.24-.03-.38-.03-.31 0-.6.067-.85.2a1.6 1.6 0 0 0-.59.546q-.21.344-.21.788V115z"/></g></g><defs><clipPath id="a"><path fill="#fff" d="M0 0h1211v135H0z"/></clipPath><clipPath id="b"><path fill="#fff" d="M24 90h85v25H24z"/></clipPath><clipPath id="c"><path fill="#fff" d="M263 90h124v25H263z"/></clipPath><clipPath id="d"><path fill="#fff" d="M502 90h104v25H502z"/></clipPath><clipPath id="e"><path fill="#fff" d="M693 90h95v25h-95z"/></clipPath><clipPath id="f"><path fill="#fff" d="M1036 90h94v25h-94z"/></clipPath></defs></svg>