<svg xmlns="http://www.w3.org/2000/svg" fill="none" viewBox="0 0 259 128"><rect width="259" height="128" fill="#f8f8f7" rx="8"/><g clip-path="url(#a)"><g clip-path="url(#b)"><rect width="108" height="26" x="24" y="24" fill="#025f1d" rx="13"/><path stroke="#fff" stroke-linecap="round" stroke-linejoin="round" d="M48.39 30.724c-.25-.25-.588-.39-.942-.39h-4.781a1.333 1.333 0 0 0-1.334 1.333v4.78c0 .354.141.694.391.944l5.803 5.802a1.62 1.62 0 0 0 2.28 0l4.386-4.386a1.617 1.617 0 0 0 0-2.28z"/><path fill="#fff" stroke="#fff" stroke-linecap="round" stroke-linejoin="round" d="M45 34.333a.333.333 0 1 0 0-.666.333.333 0 0 0 0 .666"/><path fill="#fff" d="M71.096 39.488V41h-5.928v-1.644l2.58-2.208q.708-.6.984-1.02.276-.432.276-.96V35q0-.48-.348-.72a1.3 1.3 0 0 0-.756-.24q-.588 0-.9.348a2 2 0 0 0-.444.828l-1.572-.6a3.4 3.4 0 0 1 .576-1.068 2.84 2.84 0 0 1 1.02-.768q.624-.3 1.488-.3.912 0 1.548.336.636.324.972.888T70.928 35q0 .72-.312 1.284-.3.552-.816 1.032-.504.468-1.104.948l-1.56 1.224zm6.848-6.864v1.572H74.14l-.18 2.652h.096a3.6 3.6 0 0 1 .384-.696q.216-.3.552-.468t.864-.168q.72 0 1.296.324.588.312.936.912.348.588.348 1.428 0 .852-.372 1.524t-1.092 1.056-1.752.384q-.804 0-1.38-.216a3 3 0 0 1-.972-.6 4 4 0 0 1-.636-.792l1.308-1.032q.276.48.66.828t1.032.348.972-.372q.336-.372.336-.984v-.096q0-.576-.336-.912t-.924-.336q-.48 0-.804.204-.324.192-.492.384l-1.476-.204.312-4.74zM82.607 41h-1.584l5.808-8.376h1.584zm-.972-3.768q-.696 0-1.176-.264a1.8 1.8 0 0 1-.732-.804q-.252-.528-.252-1.308t.252-1.308a1.72 1.72 0 0 1 .732-.792q.48-.276 1.176-.276t1.176.276q.48.264.732.792t.252 1.308-.252 1.308a1.8 1.8 0 0 1-.732.804q-.48.264-1.176.264m0-1.032a.5.5 0 0 0 .336-.108.65.65 0 0 0 .216-.336q.072-.228.072-.588v-.624q0-.36-.072-.588a.65.65 0 0 0-.216-.336.5.5 0 0 0-.336-.108.56.56 0 0 0-.348.108.7.7 0 0 0-.204.336 2 2 0 0 0-.072.588v.624q0 .36.072.588a.7.7 0 0 0 .204.336.56.56 0 0 0 .348.108m6.168 4.944q-.696 0-1.176-.264a1.8 1.8 0 0 1-.732-.804q-.252-.528-.252-1.308t.252-1.308a1.72 1.72 0 0 1 .732-.792q.48-.276 1.176-.276t1.176.276q.48.264.732.792t.252 1.308-.252 1.308a1.8 1.8 0 0 1-.732.804q-.48.264-1.176.264m0-1.032a.5.5 0 0 0 .336-.108.65.65 0 0 0 .216-.336q.072-.228.072-.588v-.624q0-.36-.072-.588a.65.65 0 0 0-.216-.336.5.5 0 0 0-.336-.108.56.56 0 0 0-.348.108.7.7 0 0 0-.204.336 2 2 0 0 0-.072.588v.624q0 .36.072.588a.7.7 0 0 0 .204.336.56.56 0 0 0 .348.108m9.876 1.032q-1.105 0-1.945-.492-.828-.492-1.283-1.452-.456-.972-.456-2.388 0-1.428.456-2.388.455-.96 1.284-1.452.84-.492 1.944-.492 1.115 0 1.944.492.828.492 1.284 1.452t.456 2.388q0 1.416-.456 2.388-.456.96-1.284 1.452t-1.945.492m0-1.62q.551 0 .936-.24.396-.252.6-.72.216-.468.215-1.128v-1.248q0-.672-.216-1.128a1.5 1.5 0 0 0-.6-.708q-.383-.252-.936-.252-.54 0-.935.252a1.57 1.57 0 0 0-.612.708q-.204.456-.204 1.128v1.248q0 .66.203 1.128.217.468.613.72.396.24.936.24m7.03 1.476h-1.824v-8.376h5.556v1.62h-3.732v1.716h3.18v1.608h-3.18zm7.019 0h-1.824v-8.376h5.556v1.62h-3.732v1.716h3.18v1.608h-3.18z"/><path fill="#000" fill-opacity=".7" d="M56.75 67h-2.693v-8.727h2.812q1.27 0 2.174.524a3.43 3.43 0 0 1 1.385 1.496q.48.971.481 2.326 0 1.364-.486 2.348a3.46 3.46 0 0 1-1.415 1.509Q58.08 67 56.75 67m-1.636-.937h1.568q1.082 0 1.794-.418a2.57 2.57 0 0 0 1.06-1.189q.35-.77.35-1.837 0-1.056-.345-1.82a2.55 2.55 0 0 0-1.031-1.175q-.686-.414-1.709-.414h-1.687zm7.432.937v-6.545h1.005V67zm.51-7.636a.72.72 0 0 1-.506-.2.64.64 0 0 1-.21-.482q0-.282.21-.482a.72.72 0 0 1 .507-.2.7.7 0 0 1 .503.2.64.64 0 0 1 .213.482.64.64 0 0 1-.213.481.7.7 0 0 1-.503.2m6.974 2.557-.904.255a1.7 1.7 0 0 0-.251-.439 1.2 1.2 0 0 0-.444-.358q-.28-.14-.72-.14-.6 0-1.001.277-.396.272-.396.694 0 .375.272.593.273.216.853.362l.971.238q.878.214 1.308.652.43.435.43 1.121 0 .562-.323 1.006a2.15 2.15 0 0 1-.895.699q-.576.255-1.338.255-1.002 0-1.658-.434-.656-.435-.83-1.27l.954-.239q.136.53.515.793.384.264 1.002.264.703 0 1.116-.298.418-.303.418-.725a.76.76 0 0 0-.239-.57q-.238-.235-.733-.35l-1.09-.256q-.9-.213-1.322-.66-.417-.452-.417-1.13 0-.554.311-.98.315-.426.856-.669a3 3 0 0 1 1.236-.243q.972 0 1.526.426.558.427.793 1.125m4.292 5.215q-.92 0-1.585-.434a2.83 2.83 0 0 1-1.023-1.198q-.358-.763-.358-1.743 0-.996.366-1.76.371-.766 1.032-1.197.665-.435 1.55-.435.69 0 1.245.256t.908.716.439 1.074H75.89a1.56 1.56 0 0 0-.511-.793q-.393-.35-1.057-.35-.588 0-1.032.308a2 2 0 0 0-.686.856q-.243.55-.242 1.291 0 .759.238 1.321.244.562.682.874.443.31 1.04.311.391 0 .711-.136.32-.137.542-.392.22-.256.315-.614h1.006a2.33 2.33 0 0 1-1.304 1.777q-.546.268-1.27.268m6.703 0q-.887 0-1.556-.421a2.87 2.87 0 0 1-1.04-1.18q-.37-.76-.37-1.774 0-1.022.37-1.785a2.86 2.86 0 0 1 1.04-1.185q.67-.422 1.556-.422t1.551.422q.67.422 1.04 1.185.375.763.375 1.785 0 1.014-.375 1.773-.37.76-1.04 1.18-.664.422-1.551.422m0-.903q.673 0 1.108-.345t.643-.908q.21-.562.21-1.219 0-.656-.21-1.223a2.06 2.06 0 0 0-.643-.916q-.436-.35-1.108-.35t-1.108.35a2.06 2.06 0 0 0-.644.916 3.5 3.5 0 0 0-.208 1.223q0 .657.208 1.22.21.561.644.907.435.345 1.108.345m8.626-1.91v-3.868h1.006V67H89.65v-1.108h-.068a2.15 2.15 0 0 1-.716.848q-.486.345-1.227.345-.614 0-1.091-.268a1.9 1.9 0 0 1-.75-.818q-.273-.55-.273-1.385v-4.16h1.006v4.092q0 .715.4 1.141.405.427 1.031.427.376 0 .763-.192.392-.192.656-.588.27-.396.269-1.01m3.853-1.26V67H92.5v-6.545h.971v1.022h.085q.23-.499.7-.8.468-.308 1.21-.308.664 0 1.163.273.498.269.775.818.277.546.277 1.38V67h-1.005v-4.09q0-.772-.4-1.203-.401-.434-1.1-.434-.481 0-.861.208-.375.21-.592.61-.218.4-.218.971m8.861-2.608v.852h-3.392v-.852zm-2.404-1.569h1.006v6.239q0 .426.124.64a.64.64 0 0 0 .323.28q.201.069.422.069.166 0 .273-.017l.17-.034.205.903a2 2 0 0 1-.285.077 2 2 0 0 1-.465.042q-.426 0-.835-.183a1.66 1.66 0 0 1-.674-.558q-.264-.376-.264-.946z"/></g><g clip-path="url(#c)"><rect width="95" height="26" x="140" y="24" fill="#84c12f" rx="13"/><path fill="#fff" d="M157.334 41v-8.376h4.068q1.032 0 1.62.588t.588 1.56q0 .636-.216 1.032a1.28 1.28 0 0 1-.564.564q-.348.18-.78.204v.072q.3 0 .624.108t.612.336.468.612q.18.372.18.912 0 .66-.288 1.2a2.23 2.23 0 0 1-.768.864q-.48.324-1.104.324zm1.824-3.456v1.92h2.1q.24 0 .408-.084a.7.7 0 0 0 .276-.264.8.8 0 0 0 .096-.408V38.3a.8.8 0 0 0-.096-.408.6.6 0 0 0-.276-.252.8.8 0 0 0-.408-.096zm0-3.384v1.896h1.812q.24 0 .408-.084a.6.6 0 0 0 .264-.264.9.9 0 0 0 .096-.42v-.36a.8.8 0 0 0-.096-.408.53.53 0 0 0-.264-.264.8.8 0 0 0-.408-.096zm11.88 6.84h-5.7v-8.376h5.7v1.62h-3.876v1.716h3.324v1.608h-3.324v1.812h3.876zm4.301.144q-1.092 0-1.872-.384a4.5 4.5 0 0 1-1.308-.972l1.2-1.212q.42.48.948.72.54.24 1.152.24.672 0 .996-.276a.91.91 0 0 0 .324-.732.95.95 0 0 0-.084-.408.6.6 0 0 0-.288-.312q-.204-.132-.6-.18l-.828-.108q-.876-.12-1.452-.432a2.1 2.1 0 0 1-.84-.84q-.276-.528-.276-1.224 0-.756.372-1.32a2.56 2.56 0 0 1 1.08-.9q.708-.324 1.692-.324.948 0 1.668.312.72.3 1.236.864l-1.212 1.224a2.3 2.3 0 0 0-.732-.564q-.42-.228-1.068-.228-.612 0-.912.216t-.3.6q0 .288.096.468.108.18.324.276.228.096.576.156l.828.132q.864.132 1.428.444t.84.816.276 1.224q0 .804-.384 1.416-.372.612-1.104.96t-1.776.348m10.267-6.9h-2.268V41h-1.824v-6.756h-2.268v-1.62h6.36zM189.69 41v-8.376h3.156q1.116 0 1.944.468t1.284 1.404q.456.924.456 2.316t-.456 2.328q-.456.924-1.284 1.392t-1.944.468zm1.824-1.62h1.332q.54 0 .936-.204t.6-.624q.216-.432.216-1.092v-1.296q0-.672-.216-1.092a1.34 1.34 0 0 0-.6-.624 2 2 0 0 0-.936-.204h-1.332zM203.757 41h-5.7v-8.376h5.7v1.62h-3.876v1.716h3.324v1.608h-3.324v1.812h3.876zm8.645 0h-1.896l-.6-1.992h-2.796l-.6 1.992h-1.848l2.76-8.376h2.256zm-2.94-3.54-.516-1.74-.42-1.44h-.06l-.408 1.44-.516 1.74zm9.115 3.54h-5.016v-8.376h1.824v6.756h3.192z"/><path fill="#000" fill-opacity=".7" d="M170.057 67v-8.727h3.051q.912 0 1.504.315.593.31.882.84.29.524.29 1.163 0 .563-.2.929a1.56 1.56 0 0 1-.52.58 2.4 2.4 0 0 1-.695.315v.085q.4.025.806.281.404.255.677.733.273.477.273 1.168 0 .655-.298 1.18t-.942.831q-.643.307-1.675.307zm1.057-.937h2.096q1.036 0 1.47-.401.44-.405.439-.98 0-.444-.226-.818a1.63 1.63 0 0 0-.643-.605q-.417-.23-.989-.23h-2.147zm0-3.955h1.96q.477 0 .861-.187.387-.189.613-.529.23-.34.23-.801 0-.576-.4-.976-.4-.405-1.27-.405h-1.994zm8.537 5.045a2.7 2.7 0 0 1-1.129-.234 1.93 1.93 0 0 1-.805-.686q-.299-.452-.299-1.091 0-.562.222-.912.222-.353.592-.554.37-.2.818-.298.453-.102.908-.162.597-.077.967-.115.375-.043.546-.14.175-.099.175-.342v-.034q0-.63-.346-.98-.34-.35-1.035-.35-.72 0-1.129.316t-.576.673l-.954-.34q.255-.597.682-.93.43-.336.937-.468.511-.137 1.006-.137.315 0 .724.077.414.073.797.303.388.23.644.694.255.465.255 1.245V67h-1.005v-.886h-.052a1.8 1.8 0 0 1-.34.456q-.24.243-.635.413-.397.17-.968.17m.154-.903q.596 0 1.005-.234a1.6 1.6 0 0 0 .836-1.385v-.92q-.064.075-.282.14-.213.06-.494.106a23 23 0 0 1-.963.128q-.392.052-.733.166a1.26 1.26 0 0 0-.545.337q-.205.222-.205.605 0 .525.388.793.392.264.993.264m7.153.886a2.56 2.56 0 0 1-1.444-.413q-.626-.417-.98-1.176-.354-.763-.354-1.803 0-1.03.354-1.79.354-.758.984-1.171.631-.414 1.457-.414.64 0 1.01.213.375.21.571.478.201.264.312.434h.085v-3.221h1.005V67h-.971v-1.006h-.119q-.11.18-.316.452-.204.269-.584.482-.378.208-1.01.208m.137-.903q.605 0 1.023-.315a1.97 1.97 0 0 0 .634-.883q.218-.566.218-1.308 0-.733-.213-1.282a1.87 1.87 0 0 0-.631-.861q-.417-.311-1.031-.311-.639 0-1.066.328-.421.324-.634.882-.21.554-.209 1.244 0 .7.213 1.27.218.567.639.904.426.332 1.057.332m7.487 3.358q-.728 0-1.253-.188a2.63 2.63 0 0 1-1.423-1.125l.801-.562q.136.18.345.409.209.234.571.405.367.174.959.174.793 0 1.308-.383.516-.383.516-1.202v-1.33h-.085a5 5 0 0 1-.316.444 1.8 1.8 0 0 1-.579.464q-.375.2-1.014.2a2.73 2.73 0 0 1-1.424-.374 2.64 2.64 0 0 1-.993-1.091q-.362-.717-.362-1.739 0-1.005.354-1.751.354-.75.984-1.16.63-.413 1.458-.413.639 0 1.014.213.38.21.579.478.205.264.316.434h.102v-1.04h.972v6.733q0 .844-.384 1.373a2.2 2.2 0 0 1-1.023.78q-.639.25-1.423.25m-.034-3.597q.604 0 1.023-.277.417-.276.635-.796.216-.52.217-1.245 0-.707-.213-1.248a1.87 1.87 0 0 0-.631-.848q-.417-.307-1.031-.307-.639 0-1.065.324a1.97 1.97 0 0 0-.635.869q-.21.546-.209 1.21 0 .683.213 1.206.218.52.639.818.426.294 1.057.294m7.449 1.142q-.947 0-1.632-.417a2.8 2.8 0 0 1-1.053-1.176q-.366-.759-.366-1.765t.366-1.772a2.9 2.9 0 0 1 1.031-1.202q.666-.435 1.552-.435.51 0 1.009.17a2.5 2.5 0 0 1 .908.555q.41.38.652 1.005.243.627.243 1.543v.426h-5.045v-.87h4.022q0-.553-.221-.988a1.7 1.7 0 0 0-.622-.686 1.74 1.74 0 0 0-.946-.251q-.602 0-1.04.298-.435.294-.669.767a2.24 2.24 0 0 0-.235 1.014v.58q0 .741.256 1.257.26.51.72.78.46.264 1.07.264.396 0 .716-.11.324-.116.558-.342.234-.23.362-.57l.972.272q-.154.495-.516.87-.362.37-.895.579a3.3 3.3 0 0 1-1.197.204"/></g></g><g fill="#000" clip-path="url(#d)"><path d="M31.637 85.7h-1.461a1.8 1.8 0 0 0-.23-.638 1.7 1.7 0 0 0-.989-.769 2.2 2.2 0 0 0-.684-.102q-.652 0-1.156.328-.504.325-.789.954-.285.624-.285 1.527 0 .918.285 1.547.29.625.79.945.503.317 1.152.317.36 0 .671-.094.316-.097.567-.285.254-.188.426-.461a1.7 1.7 0 0 0 .242-.625l1.46.008q-.08.57-.355 1.07-.27.5-.707.883a3.3 3.3 0 0 1-1.023.593q-.585.211-1.301.211-1.054 0-1.883-.488-.828-.488-1.305-1.41-.476-.922-.476-2.211 0-1.293.48-2.21.48-.924 1.309-1.411.828-.488 1.875-.488.668 0 1.242.187.574.188 1.024.55.45.36.738.884.293.52.383 1.187m2.678 1.784V91h-1.414v-8h1.383v3.02h.07q.212-.508.653-.801.445-.297 1.133-.297.624 0 1.09.262.465.262.718.765.258.504.258 1.23V91h-1.414v-3.602q0-.605-.312-.941-.309-.34-.868-.34-.375 0-.672.164a1.15 1.15 0 0 0-.46.465q-.165.305-.165.738M39.648 91v-6h1.413v6zm.71-6.852a.83.83 0 0 1-.578-.222.72.72 0 0 1-.242-.543.71.71 0 0 1 .242-.543.82.82 0 0 1 .578-.227q.34 0 .579.227a.71.71 0 0 1 .242.543q0 .316-.242.543a.82.82 0 0 1-.579.222m2.158 9.102V85h1.39v.992h.082q.11-.218.309-.465.199-.25.539-.425.34-.18.867-.18.696 0 1.254.355.563.352.89 1.043.333.688.333 1.688 0 .988-.325 1.68-.324.69-.882 1.054a2.27 2.27 0 0 1-1.266.364q-.516 0-.855-.172a1.7 1.7 0 0 1-.547-.415 2.7 2.7 0 0 1-.317-.464h-.058v3.195zM43.902 88q0 .582.164 1.02.169.438.48.683.318.243.767.242.468 0 .785-.25.316-.254.476-.691.164-.441.164-1.004 0-.558-.16-.992a1.5 1.5 0 0 0-.476-.68q-.316-.246-.79-.246-.453 0-.769.238a1.47 1.47 0 0 0-.48.668q-.16.43-.16 1.012m10.23-1.414-1.288.14q-.055-.195-.192-.367a.95.95 0 0 0-.359-.277 1.3 1.3 0 0 0-.555-.105q-.44 0-.742.191-.297.192-.293.496a.52.52 0 0 0 .191.426q.2.165.657.27l1.023.218q.852.184 1.266.582.418.399.422 1.043a1.63 1.63 0 0 1-.332 1q-.324.43-.903.672a3.4 3.4 0 0 1-1.328.242q-1.101 0-1.773-.46a1.85 1.85 0 0 1-.801-1.294l1.379-.132q.093.405.398.613t.793.207q.504 0 .809-.207.309-.207.309-.512a.53.53 0 0 0-.2-.426q-.195-.168-.61-.258l-1.023-.214q-.862-.18-1.277-.606-.414-.429-.41-1.086-.004-.555.3-.96a1.97 1.97 0 0 1 .856-.634q.55-.225 1.27-.226 1.054 0 1.66.45.609.449.754 1.214"/><path fill-opacity=".7" d="M27.75 108h-2.693v-8.727h2.812q1.27 0 2.174.524a3.43 3.43 0 0 1 1.385 1.496q.48.971.481 2.326 0 1.364-.486 2.348a3.46 3.46 0 0 1-1.414 1.509q-.93.524-2.259.524m-1.636-.938h1.568q1.082 0 1.794-.417a2.58 2.58 0 0 0 1.06-1.189q.35-.77.35-1.837 0-1.056-.345-1.819a2.54 2.54 0 0 0-1.031-1.176q-.686-.414-1.709-.414h-1.687zm7.431.938v-6.545h1.006V108zm.512-7.636a.71.71 0 0 1-.507-.201.64.64 0 0 1-.21-.481q0-.281.21-.482a.72.72 0 0 1 .507-.2.7.7 0 0 1 .503.2.64.64 0 0 1 .213.482.64.64 0 0 1-.213.481.7.7 0 0 1-.503.201m6.972 2.556-.903.256a1.7 1.7 0 0 0-.251-.439 1.2 1.2 0 0 0-.444-.358q-.28-.14-.72-.14-.6 0-1.001.277-.396.272-.396.694 0 .375.272.593.273.216.853.362l.971.238q.878.213 1.308.652.43.435.43 1.121 0 .562-.323 1.006a2.15 2.15 0 0 1-.895.699q-.575.255-1.338.255-1.001 0-1.658-.434-.656-.435-.83-1.27l.954-.239q.136.529.516.793.383.264 1 .264.705 0 1.117-.298.418-.303.418-.725a.76.76 0 0 0-.239-.571q-.238-.234-.733-.349l-1.09-.256q-.9-.213-1.322-.66-.417-.453-.417-1.13 0-.554.311-.98.316-.426.856-.669a3 3 0 0 1 1.236-.243q.972 0 1.526.426.558.427.792 1.125m4.293 5.216q-.92 0-1.586-.434a2.83 2.83 0 0 1-1.022-1.198q-.358-.762-.358-1.743 0-.996.366-1.76.37-.766 1.032-1.197.665-.435 1.55-.435.69 0 1.245.256.554.255.908.716t.439 1.074H46.89a1.56 1.56 0 0 0-.511-.793q-.393-.35-1.057-.349-.588 0-1.032.307a2 2 0 0 0-.686.856q-.242.55-.242 1.291 0 .759.238 1.321.243.562.682.874.443.31 1.04.311.392 0 .711-.136.32-.137.542-.392.22-.256.315-.614h1.006a2.3 2.3 0 0 1-.422 1.044 2.36 2.36 0 0 1-.882.733q-.546.268-1.27.268m6.703 0q-.887 0-1.556-.422a2.86 2.86 0 0 1-1.04-1.18q-.37-.759-.37-1.773 0-1.022.37-1.785.375-.763 1.04-1.185.67-.422 1.556-.422t1.551.422q.67.422 1.04 1.185.375.763.375 1.785 0 1.014-.375 1.773a2.8 2.8 0 0 1-1.04 1.18q-.664.423-1.551.422m0-.903q.673 0 1.108-.345t.643-.908q.21-.562.21-1.219 0-.656-.21-1.223a2.07 2.07 0 0 0-.643-.916q-.435-.35-1.108-.349-.673 0-1.108.349-.434.35-.644.916-.208.567-.208 1.223t.208 1.219.644.908q.435.345 1.108.345m8.626-1.909v-3.869h1.006V108H60.65v-1.108h-.068a2.15 2.15 0 0 1-.716.848q-.486.345-1.227.345-.614 0-1.091-.268a1.9 1.9 0 0 1-.75-.818q-.273-.55-.273-1.385v-4.159h1.006v4.09q0 .716.4 1.143.405.426 1.031.426.375 0 .763-.192.392-.192.657-.588.268-.396.268-1.01m3.853-1.262V108H63.5v-6.545h.971v1.022h.085q.23-.498.7-.801.468-.306 1.21-.307.664 0 1.163.273.498.269.775.818.277.546.277 1.381V108h-1.005v-4.091q0-.771-.4-1.202-.401-.434-1.1-.434-.482 0-.861.209-.375.208-.592.609-.218.4-.218.971m8.86-2.607v.852h-3.391v-.852zm-2.403-1.569h1.006v6.239q0 .426.124.639a.64.64 0 0 0 .323.281q.201.069.422.069.167 0 .273-.017l.17-.035.205.904a2.2 2.2 0 0 1-.75.119q-.426 0-.835-.183a1.66 1.66 0 0 1-.674-.558q-.264-.376-.264-.946zm9.763 8.233q-.86 0-1.483-.315a2.33 2.33 0 0 1-.959-.865 2.36 2.36 0 0 1-.336-1.257q0-.546.23-.968.234-.426.643-.788.414-.366.95-.733l1.262-.937q.37-.244.592-.52.226-.277.226-.725 0-.332-.294-.643-.29-.31-.763-.311a1.04 1.04 0 0 0-.588.17q-.251.166-.396.426-.14.256-.14.529 0 .307.165.622.171.31.43.639l.546.665L84.815 108h-1.21l-3.307-3.989-.835-1.005a4.8 4.8 0 0 1-.597-.891 2.1 2.1 0 0 1-.222-.95q0-.588.26-1.031.265-.448.738-.695.477-.252 1.116-.251.656 0 1.13.255.473.251.728.669.256.414.256.899 0 .627-.311 1.087t-.848.857l-1.739 1.295q-.588.435-.797.844-.209.408-.209.588 0 .41.213.763a1.6 1.6 0 0 0 .601.571q.388.217.908.217.494 0 .963-.209.469-.213.848-.613.383-.402.605-.964.226-.562.226-1.265h.972q0 .868-.2 1.419-.201.549-.452.861a6 6 0 0 1-.405.464 2 2 0 0 0-.094.128q-.043.064-.094.128a2.6 2.6 0 0 1-1.065.707 3.7 3.7 0 0 1-1.27.23M89.44 108v-8.727h1.005v3.221h.086q.11-.17.306-.434.2-.268.571-.478.375-.213 1.015-.213.826 0 1.457.414.63.413.984 1.172t.354 1.789q0 1.04-.354 1.803-.353.759-.98 1.176-.626.413-1.444.413-.63 0-1.01-.208a1.9 1.9 0 0 1-.584-.482 6 6 0 0 1-.316-.452h-.119V108zm.988-3.273q0 .742.218 1.309.216.563.635.882.417.315 1.022.315.63 0 1.053-.332.426-.337.639-.904.217-.571.217-1.27 0-.69-.213-1.244a1.92 1.92 0 0 0-.635-.882q-.421-.328-1.06-.328-.615 0-1.032.311a1.86 1.86 0 0 0-.63.861q-.214.55-.214 1.282m8.255 3.426q-.623 0-1.13-.234a1.94 1.94 0 0 1-.805-.686q-.298-.452-.298-1.091 0-.562.221-.912.222-.354.592-.554a3.1 3.1 0 0 1 .819-.298q.45-.102.907-.162.597-.077.968-.115.374-.043.545-.141.175-.098.175-.341v-.034q0-.63-.345-.98-.342-.35-1.036-.349-.72 0-1.13.315-.409.316-.574.673l-.955-.341q.256-.596.682-.929.431-.336.937-.468a4 4 0 0 1 1.006-.137 4 4 0 0 1 .725.077q.413.072.796.303.388.23.644.694.256.465.256 1.245V108h-1.006v-.886h-.051a1.8 1.8 0 0 1-.341.456q-.238.243-.635.413-.396.17-.968.17m.153-.903q.597 0 1.006-.234.413-.235.622-.605.213-.372.213-.78v-.921q-.065.077-.281.141-.213.06-.495.106a21 21 0 0 1-.963.128q-.391.052-.733.166a1.26 1.26 0 0 0-.545.337q-.205.221-.205.605 0 .525.388.793.391.264.993.264m7.154.886q-.819 0-1.445-.413-.627-.417-.98-1.176-.354-.763-.354-1.803 0-1.031.354-1.789.354-.76.984-1.172.631-.414 1.458-.414.64 0 1.01.213.375.21.571.478.2.264.311.434h.085v-3.221h1.006V108h-.972v-1.006h-.119a6 6 0 0 1-.316.452q-.204.269-.583.482-.38.208-1.01.208m.136-.903q.605 0 1.023-.315.417-.32.635-.882.217-.567.217-1.309 0-.733-.213-1.282-.213-.555-.631-.861-.417-.311-1.031-.311-.639 0-1.065.328a1.96 1.96 0 0 0-.635.882 3.5 3.5 0 0 0-.209 1.244q0 .699.213 1.27.218.567.639.904.426.332 1.057.332m7.487 3.358q-.729 0-1.253-.188a2.7 2.7 0 0 1-.873-.485 2.7 2.7 0 0 1-.55-.64l.801-.562q.136.179.345.409.21.234.571.405.367.174.959.175.793 0 1.309-.384.515-.383.515-1.202v-1.329h-.085a6 6 0 0 1-.315.443 1.8 1.8 0 0 1-.58.464q-.375.201-1.014.201a2.73 2.73 0 0 1-1.423-.375 2.63 2.63 0 0 1-.993-1.091q-.363-.716-.363-1.739 0-1.005.354-1.751.354-.75.984-1.159.632-.414 1.458-.414.639 0 1.014.213.38.21.58.478.204.264.315.434h.102v-1.039h.972v6.733q0 .843-.384 1.372a2.18 2.18 0 0 1-1.022.779 3.9 3.9 0 0 1-1.424.252m-.034-3.597q.606 0 1.023-.277.417-.276.635-.797.217-.52.217-1.244 0-.707-.213-1.248a1.87 1.87 0 0 0-.631-.848q-.417-.307-1.031-.307-.639 0-1.065.324a1.97 1.97 0 0 0-.635.869 3.4 3.4 0 0 0-.209 1.21q0 .683.213 1.206.218.52.639.818.427.294 1.057.294m7.449 1.142q-.947 0-1.632-.417a2.8 2.8 0 0 1-1.053-1.176q-.366-.759-.366-1.765t.366-1.772a2.9 2.9 0 0 1 1.032-1.202q.665-.435 1.551-.435.511 0 1.01.171.498.17.907.554.41.38.652 1.005.243.627.243 1.543v.426h-5.045v-.869h4.023q0-.554-.222-.989a1.67 1.67 0 0 0-.622-.686 1.75 1.75 0 0 0-.946-.251q-.601 0-1.04.298a1.96 1.96 0 0 0-.669.767 2.25 2.25 0 0 0-.234 1.014v.58q0 .741.255 1.257.261.512.72.78.46.264 1.07.264.396 0 .716-.111.324-.115.558-.341.234-.23.362-.571l.972.273a2.15 2.15 0 0 1-.516.869 2.5 2.5 0 0 1-.895.58 3.3 3.3 0 0 1-1.197.204m12.967-6.681-2.42 6.545h-1.023l-2.42-6.545h1.091l1.806 5.215h.069l1.806-5.215zm3.055 6.698q-.622 0-1.13-.234a1.94 1.94 0 0 1-.805-.686q-.298-.452-.298-1.091 0-.562.221-.912.222-.354.593-.554a3.1 3.1 0 0 1 .818-.298 10 10 0 0 1 .908-.162q.596-.077.967-.115.375-.043.545-.141.175-.098.175-.341v-.034q0-.63-.345-.98-.341-.35-1.036-.349-.72 0-1.129.315-.409.316-.575.673l-.955-.341q.256-.596.682-.929.43-.336.938-.468.51-.137 1.005-.137.315 0 .725.077.413.072.797.303.388.23.643.694.255.465.256 1.245V108h-1.006v-.886h-.051a1.8 1.8 0 0 1-.341.456 2 2 0 0 1-.635.413q-.397.17-.967.17m.153-.903q.597 0 1.006-.234.413-.235.622-.605.213-.372.213-.78v-.921q-.064.077-.281.141-.213.06-.495.106a21 21 0 0 1-.963.128 4 4 0 0 0-.733.166 1.26 1.26 0 0 0-.545.337q-.204.221-.205.605 0 .525.388.793.393.264.993.264m4.682.75v-6.545h.972v.988h.068q.179-.485.648-.788a1.9 1.9 0 0 1 1.057-.303 11 11 0 0 1 .528.017v1.023a3 3 0 0 0-.234-.038q-.18-.03-.38-.03-.477 0-.852.2a1.468 1.468 0 0 0-.801 1.334V108zm4.465 0v-6.545h1.006V108zm.512-7.636a.71.71 0 0 1-.508-.201.64.64 0 0 1-.208-.481q0-.281.208-.482a.72.72 0 0 1 .508-.2q.294 0 .502.2a.64.64 0 0 1 .213.482.64.64 0 0 1-.213.481.7.7 0 0 1-.502.201m4.262 7.789q-.622 0-1.129-.234a1.94 1.94 0 0 1-.806-.686q-.298-.452-.298-1.091 0-.562.222-.912.221-.354.592-.554a3.1 3.1 0 0 1 .818-.298 10 10 0 0 1 .908-.162q.596-.077.967-.115.375-.043.546-.141.174-.098.174-.341v-.034q0-.63-.345-.98-.34-.35-1.035-.349-.721 0-1.13.315-.408.316-.575.673l-.955-.341q.256-.596.682-.929.43-.336.938-.468a4 4 0 0 1 1.005-.137q.316 0 .725.077.413.072.797.303.388.23.643.694.256.465.256 1.245V108h-1.006v-.886h-.051a1.8 1.8 0 0 1-.341.456 2 2 0 0 1-.635.413q-.396.17-.967.17m.153-.903q.597 0 1.006-.234a1.6 1.6 0 0 0 .835-1.385v-.921q-.063.077-.281.141a5 5 0 0 1-.494.106 21 21 0 0 1-.963.128q-.393.052-.733.166a1.26 1.26 0 0 0-.546.337q-.204.221-.204.605 0 .525.387.793.393.264.993.264m5.688-3.188V108h-1.005v-6.545h.971v1.022h.085a1.9 1.9 0 0 1 .699-.801q.47-.306 1.21-.307.665 0 1.164.273.499.269.775.818.277.546.277 1.381V108h-1.005v-4.091q0-.771-.401-1.202-.4-.434-1.099-.434-.482 0-.861.209-.375.208-.592.609-.218.4-.218.971m8.861-2.607v.852h-3.392v-.852zm-2.404-1.569h1.006v6.239q0 .426.123.639a.65.65 0 0 0 .324.281q.201.069.422.069.166 0 .273-.017l.17-.035.205.904a2.2 2.2 0 0 1-.75.119q-.426 0-.835-.183a1.66 1.66 0 0 1-.674-.558q-.264-.376-.264-.946zm8.436 3.034-.904.256a1.7 1.7 0 0 0-.251-.439 1.2 1.2 0 0 0-.443-.358q-.282-.14-.721-.14-.6 0-1.001.277-.396.272-.396.694 0 .375.272.593.273.216.853.362l.971.238q.879.213 1.309.652.43.435.43 1.121 0 .562-.324 1.006a2.15 2.15 0 0 1-.895.699q-.575.255-1.338.255-1.001 0-1.658-.434-.656-.435-.831-1.27l.955-.239q.137.529.516.793.383.264 1.001.264.703 0 1.117-.298.417-.303.417-.725a.76.76 0 0 0-.238-.571q-.24-.234-.733-.349l-1.091-.256q-.9-.213-1.321-.66-.418-.453-.418-1.13 0-.554.311-.98.315-.426.857-.669a3 3 0 0 1 1.235-.243q.972 0 1.526.426.558.427.793 1.125"/></g><defs><clipPath id="a"><path fill="#fff" d="M24 24h211v43H24z"/></clipPath><clipPath id="b"><path fill="#fff" d="M24 24h108v43H24z"/></clipPath><clipPath id="c"><path fill="#fff" d="M140 24h95v43h-95z"/></clipPath><clipPath id="d"><path fill="#fff" d="M24 83h149v25H24z"/></clipPath></defs></svg>