<svg xmlns="http://www.w3.org/2000/svg" fill="none" viewBox="0 0 166 118"><rect width="166" height="118" fill="#f8f8f7" rx="8"/><g clip-path="url(#a)"><g clip-path="url(#b)"><path fill="#002c4e" d="m39.5 24 1.796 5.528h5.813l-4.703 3.416 1.796 5.528-4.702-3.416-4.702 3.416 1.796-5.528-4.703-3.416h5.813z"/><path fill="#000" fill-opacity=".7" d="M25.057 57v-8.727h5.233v.937h-4.176v2.95h3.784v.937h-3.784V57zm6.906 0v-6.545h1.006V57zm.512-7.636a.72.72 0 0 1-.507-.2.64.64 0 0 1-.21-.482q0-.282.21-.482a.72.72 0 0 1 .507-.2.7.7 0 0 1 .503.2.64.64 0 0 1 .213.482.64.64 0 0 1-.213.481.7.7 0 0 1-.503.2m3.342-1.091V57H34.81v-8.727zm2.847 0V57H37.66v-8.727zm4.587 8.863q-.946 0-1.632-.417a2.8 2.8 0 0 1-1.053-1.176q-.366-.759-.366-1.765t.366-1.772a2.9 2.9 0 0 1 1.031-1.202q.665-.435 1.551-.435.512 0 1.01.17.499.172.908.555.41.38.652 1.005.243.627.243 1.543v.426h-5.045v-.87h4.022q0-.553-.221-.988a1.67 1.67 0 0 0-.623-.686 1.74 1.74 0 0 0-.946-.251q-.6 0-1.04.298-.434.294-.668.767a2.25 2.25 0 0 0-.235 1.014v.58q0 .741.256 1.257.26.51.72.78a2.1 2.1 0 0 0 1.07.264q.396 0 .716-.11.323-.116.558-.342a1.55 1.55 0 0 0 .362-.57l.972.272q-.154.495-.516.87-.362.37-.895.579a3.3 3.3 0 0 1-1.197.204m6.711 0a2.56 2.56 0 0 1-1.444-.413q-.627-.417-.98-1.176-.354-.764-.354-1.803 0-1.03.354-1.79.353-.758.984-1.171.63-.414 1.457-.414.64 0 1.01.213.375.21.571.478.201.264.311.434h.086v-3.221h1.005V57h-.971v-1.006h-.12q-.11.18-.315.452-.203.269-.584.482-.38.208-1.01.208m.137-.903q.605 0 1.022-.315.418-.32.635-.883.218-.566.218-1.308 0-.733-.213-1.282a1.87 1.87 0 0 0-.631-.861q-.417-.311-1.031-.311-.639 0-1.066.328-.42.324-.635.882-.208.554-.208 1.244 0 .7.213 1.27.217.568.639.904.426.332 1.057.332"/></g><g clip-path="url(#c)"><path stroke="#002c4e" d="m84.82 29.683.113.345h4.635l-3.456 2.512-.294.213.113.346 1.319 4.063-3.456-2.51-.294-.215-.294.214-3.457 2.511 1.32-4.063.113-.346-.294-.213-3.456-2.512h4.635l.113-.345 1.32-4.065z"/><path fill="#000" fill-opacity=".7" d="M71.42 52.636q0 1.38-.498 2.387-.498 1.005-1.368 1.55t-1.986.546-1.986-.545-1.367-1.551q-.5-1.005-.5-2.387 0-1.38.5-2.386.498-1.005 1.367-1.551.87-.546 1.986-.546t1.986.546 1.368 1.551q.498 1.005.499 2.386m-1.022 0q0-1.133-.38-1.913-.375-.78-1.018-1.18a2.64 2.64 0 0 0-1.432-.401q-.792 0-1.436.4-.64.402-1.018 1.181-.375.78-.375 1.913t.375 1.914q.379.78 1.018 1.18.645.4 1.436.4a2.64 2.64 0 0 0 1.432-.4q.644-.4 1.019-1.18.379-.78.379-1.914m6.788 1.688v-3.87h1.006V57h-1.006v-1.108h-.068a2.15 2.15 0 0 1-.716.848q-.486.345-1.227.345-.614 0-1.091-.268a1.9 1.9 0 0 1-.75-.818q-.273-.55-.273-1.385v-4.16h1.006v4.091q0 .716.4 1.142.405.427 1.032.427.375 0 .762-.192.392-.192.657-.588.268-.396.268-1.01m5.694-3.87v.853h-3.392v-.852zm-2.403-1.568h1.006v6.239q0 .426.123.64a.64.64 0 0 0 .324.28q.2.069.422.069.166 0 .273-.017l.17-.035.205.904a2 2 0 0 1-.286.077 2 2 0 0 1-.464.042q-.426 0-.836-.183a1.66 1.66 0 0 1-.673-.558q-.264-.376-.264-.946zm5.062-.613V57h-1.005v-8.727zM87.381 57v-6.545h1.006V57zm.512-7.636a.72.72 0 0 1-.507-.2.64.64 0 0 1-.21-.482q0-.282.21-.482a.72.72 0 0 1 .507-.2.7.7 0 0 1 .503.2.64.64 0 0 1 .213.482.64.64 0 0 1-.213.481.7.7 0 0 1-.503.2m3.342 3.699V57h-1.006v-6.545h.972v1.022h.085q.23-.499.699-.8.469-.308 1.21-.308.664 0 1.163.273.499.269.776.818.277.546.277 1.38V57h-1.006v-4.09q0-.772-.4-1.203-.4-.434-1.1-.434-.481 0-.86.208-.375.21-.593.61t-.217.971m8.758 4.073q-.946 0-1.632-.417a2.8 2.8 0 0 1-1.053-1.176q-.366-.759-.366-1.765t.366-1.772a2.9 2.9 0 0 1 1.031-1.202q.665-.435 1.552-.435.511 0 1.01.17.498.172.907.555.41.38.652 1.005.243.627.243 1.543v.426h-5.045v-.87h4.022q0-.553-.221-.988a1.67 1.67 0 0 0-.622-.686 1.74 1.74 0 0 0-.946-.251q-.601 0-1.04.298-.435.294-.67.767a2.25 2.25 0 0 0-.234 1.014v.58q0 .741.256 1.257.26.51.72.78a2.1 2.1 0 0 0 1.07.264q.396 0 .716-.11.324-.116.558-.342.234-.23.362-.57l.972.272q-.153.495-.516.87-.362.37-.895.579a3.3 3.3 0 0 1-1.197.204"/></g></g><g fill="#000" clip-path="url(#d)"><path d="M29.137 75.2a1.07 1.07 0 0 0-.461-.798q-.402-.285-1.047-.285-.453 0-.777.137a1.15 1.15 0 0 0-.497.371.9.9 0 0 0-.062.969q.117.183.316.312.2.126.442.211.242.086.488.145l.75.187q.453.106.871.285.422.18.754.454.336.273.531.66t.196.906q0 .703-.36 1.238-.36.531-1.039.832-.675.297-1.637.297-.933 0-1.62-.289a2.4 2.4 0 0 1-1.07-.844q-.384-.555-.415-1.351h1.426q.03.417.258.695.225.278.59.414.367.137.82.137.472 0 .828-.14.36-.145.562-.4a.96.96 0 0 0 .207-.6.77.77 0 0 0-.183-.516 1.35 1.35 0 0 0-.504-.344 5 5 0 0 0-.75-.25l-.91-.235q-.99-.253-1.563-.77-.57-.518-.57-1.378 0-.707.383-1.238a2.53 2.53 0 0 1 1.05-.825 3.65 3.65 0 0 1 1.504-.296q.852 0 1.493.296.645.294 1.011.817.367.52.38 1.195zm5.73-.2v1.094h-3.45V75zm-2.598-1.437h1.414v5.632q0 .285.086.438.09.148.234.203a.9.9 0 0 0 .32.055q.134 0 .242-.02.114-.02.172-.035l.239 1.105a3 3 0 0 1-.325.086 2.7 2.7 0 0 1-.507.055 2.3 2.3 0 0 1-.957-.16 1.5 1.5 0 0 1-.676-.555q-.246-.375-.242-.937zm5.506 7.558q-.57 0-1.027-.203a1.7 1.7 0 0 1-.719-.61q-.261-.401-.261-.992 0-.507.187-.84.188-.331.512-.53a2.6 2.6 0 0 1 .73-.302q.41-.105.848-.152.528-.054.855-.098.33-.046.477-.14.152-.098.152-.3v-.024q0-.442-.261-.684-.262-.242-.754-.242-.52 0-.825.227-.3.225-.406.535l-1.32-.188q.156-.548.515-.914.36-.37.88-.555.52-.187 1.148-.187.434 0 .863.101.43.102.785.336.355.231.57.63.22.398.22.995V81h-1.36v-.824h-.047a1.7 1.7 0 0 1-.363.468q-.231.216-.582.348a2.4 2.4 0 0 1-.817.13m.368-1.039q.425 0 .738-.168.312-.172.48-.453.172-.282.172-.613v-.707a.7.7 0 0 1-.226.101 3 3 0 0 1-.352.082q-.195.035-.387.063l-.332.047q-.316.042-.566.14a.94.94 0 0 0-.395.274.67.67 0 0 0-.144.445q0 .39.285.59t.727.199m4.222.918v-6h1.371v1h.063q.165-.52.562-.8.403-.286.918-.286.117 0 .262.012.148.008.246.027v1.3q-.09-.03-.285-.054a3 3 0 0 0-.371-.027q-.387 0-.696.168a1.23 1.23 0 0 0-.48.457q-.176.292-.176.676V81z"/><path fill-opacity=".7" d="M25.057 98v-8.727h5.233v.937h-4.176v2.95h3.784v.937h-3.784V98zm6.906 0v-6.546h1.006V98zm.512-7.636a.72.72 0 0 1-.507-.2.64.64 0 0 1-.21-.482q0-.281.21-.482a.72.72 0 0 1 .507-.2.7.7 0 0 1 .503.2.64.64 0 0 1 .213.482.64.64 0 0 1-.213.481.7.7 0 0 1-.503.2m3.342-1.091V98H34.81v-8.727zm2.847 0V98H37.66v-8.727zm7.143 8.88q-.62 0-1.129-.234a1.94 1.94 0 0 1-.805-.686q-.298-.452-.298-1.091 0-.562.221-.912.222-.353.593-.554.37-.2.818-.298.45-.102.907-.162.597-.077.968-.115.374-.043.545-.14.175-.099.175-.342v-.034q0-.63-.345-.98-.342-.35-1.036-.35-.72 0-1.13.316t-.574.673l-.955-.34q.256-.597.682-.93.431-.336.937-.468.511-.137 1.006-.137.315 0 .724.077.414.073.797.303.388.23.644.694.255.465.255 1.245V98h-1.005v-.886h-.051a1.8 1.8 0 0 1-.341.456q-.239.243-.635.413t-.968.17m.154-.903q.597 0 1.006-.234a1.6 1.6 0 0 0 .835-1.385v-.92q-.064.075-.281.14-.213.06-.495.106a22 22 0 0 1-.963.128 4 4 0 0 0-.733.166 1.26 1.26 0 0 0-.545.337q-.205.222-.205.605 0 .525.388.793.391.264.993.264m5.688-3.187V98h-1.006v-6.546h.972v1.023h.085q.23-.499.699-.8.468-.308 1.21-.308.665 0 1.163.273.499.269.776.818.277.546.277 1.38V98h-1.006v-4.09q0-.773-.4-1.203-.4-.435-1.1-.434-.481 0-.86.209-.375.209-.593.609t-.217.972m8.485 4.073a2.56 2.56 0 0 1-1.444-.413q-.627-.417-.98-1.176-.354-.763-.354-1.803 0-1.03.353-1.79.354-.758.985-1.171.63-.414 1.457-.414.64 0 1.01.213.375.21.571.478.2.263.311.434h.086v-3.221h1.005V98h-.971v-1.006h-.12q-.111.18-.315.452-.204.269-.584.482-.38.208-1.01.208m.137-.903q.605 0 1.022-.315.418-.32.635-.883.218-.566.218-1.308 0-.733-.214-1.282a1.87 1.87 0 0 0-.63-.861q-.418-.311-1.031-.311-.64 0-1.066.328-.422.324-.635.882-.209.555-.209 1.244 0 .7.214 1.27.216.567.639.904.426.332 1.057.332m12.856-4.312-.903.255a1.7 1.7 0 0 0-.252-.439 1.2 1.2 0 0 0-.443-.358q-.28-.14-.72-.14-.6 0-1.001.277-.397.272-.397.694 0 .375.273.593.273.216.852.362l.972.238q.877.214 1.308.652.43.435.43 1.121 0 .562-.323 1.006a2.15 2.15 0 0 1-.895.699q-.576.255-1.338.255-1.002 0-1.658-.434-.656-.435-.831-1.27l.955-.239q.135.53.515.793.384.264 1.002.264.702 0 1.116-.298.418-.303.418-.725a.76.76 0 0 0-.239-.57q-.239-.235-.733-.35l-1.09-.256q-.9-.213-1.322-.66-.417-.453-.417-1.13 0-.554.31-.98.315-.426.857-.669a3 3 0 0 1 1.236-.243q.971 0 1.526.427.558.425.792 1.124m4.48-1.467v.853h-3.392v-.853zm-2.403-1.568h1.005v6.239q0 .426.124.64a.64.64 0 0 0 .324.28q.2.069.422.069.165 0 .272-.017l.17-.034.205.903a2 2 0 0 1-.285.077 2 2 0 0 1-.465.042q-.426 0-.835-.183a1.66 1.66 0 0 1-.673-.558q-.265-.376-.264-.946zM79.12 98v-6.546h.971v.99h.068q.18-.487.648-.79a1.9 1.9 0 0 1 1.057-.302q.11 0 .277.004.166.005.251.013v1.023a3 3 0 0 0-.234-.038q-.18-.03-.38-.03-.476 0-.852.2a1.47 1.47 0 0 0-.801 1.334V98zm6.924.136q-.885 0-1.555-.421a2.87 2.87 0 0 1-1.04-1.18q-.37-.76-.37-1.774 0-1.022.37-1.785a2.86 2.86 0 0 1 1.04-1.185q.67-.422 1.555-.422.886 0 1.552.422.668.422 1.04 1.185.374.762.374 1.785 0 1.015-.375 1.773-.37.76-1.04 1.18-.665.422-1.55.422m0-.903q.675 0 1.108-.345.435-.345.644-.908.209-.562.209-1.219 0-.656-.21-1.223a2.06 2.06 0 0 0-.643-.916q-.435-.35-1.108-.35-.672 0-1.108.35-.435.35-.643.916a3.5 3.5 0 0 0-.209 1.223q0 .657.209 1.22.21.561.643.907.436.345 1.108.345m5.439-1.62-.017-1.244h.205l2.863-2.915h1.244l-3.05 3.086h-.086zM90.546 98v-8.727h1.005V98zm4.158 0-2.556-3.239.716-.698L95.983 98zm4.844.136q-.946 0-1.633-.417a2.8 2.8 0 0 1-1.052-1.176q-.367-.759-.367-1.765t.367-1.772a2.9 2.9 0 0 1 1.031-1.202q.664-.435 1.551-.435.512 0 1.01.17a2.5 2.5 0 0 1 .908.555q.41.38.652 1.005.243.627.243 1.543v.426h-5.046v-.87h4.023q0-.552-.222-.988a1.66 1.66 0 0 0-.622-.686 1.74 1.74 0 0 0-.946-.251q-.6 0-1.04.298-.435.294-.668.767a2.25 2.25 0 0 0-.235 1.014v.58q0 .741.256 1.257.26.51.72.78a2.1 2.1 0 0 0 1.07.264q.396 0 .715-.11a1.5 1.5 0 0 0 .559-.342q.234-.23.362-.57l.972.272q-.154.495-.516.87a2.5 2.5 0 0 1-.895.579 3.3 3.3 0 0 1-1.197.204m12.251-5.215-.903.255a1.7 1.7 0 0 0-.252-.439 1.2 1.2 0 0 0-.443-.358q-.282-.14-.72-.14-.601 0-1.002.277-.396.272-.396.694 0 .375.273.593.273.216.852.362l.972.238q.877.214 1.308.652.43.435.43 1.121 0 .562-.324 1.006a2.15 2.15 0 0 1-.894.699q-.576.255-1.338.255-1.002 0-1.658-.434-.657-.435-.831-1.27l.954-.239q.136.53.516.793.384.264 1.001.264.703 0 1.117-.298.417-.303.418-.725a.76.76 0 0 0-.239-.57q-.238-.235-.733-.35l-1.091-.256q-.899-.213-1.321-.66-.418-.453-.418-1.13 0-.554.311-.98.316-.426.857-.669a3 3 0 0 1 1.236-.243q.972 0 1.525.427.56.425.793 1.124m4.48-1.467v.853h-3.392v-.853zm-2.404-1.568h1.006v6.239q0 .426.124.64a.64.64 0 0 0 .323.28q.201.069.422.069.167 0 .273-.017l.171-.034.204.903a2 2 0 0 1-.285.077 2 2 0 0 1-.465.042q-.426 0-.835-.183a1.66 1.66 0 0 1-.673-.558q-.265-.376-.265-.946zm5.843 8.267q-.623 0-1.13-.234a1.94 1.94 0 0 1-.805-.686q-.298-.452-.298-1.091 0-.562.221-.912.222-.353.593-.554.37-.2.818-.298.452-.102.908-.162.596-.077.967-.115.375-.043.545-.14.175-.099.175-.342v-.034q0-.63-.345-.98-.341-.35-1.036-.35-.72 0-1.129.316t-.575.673l-.955-.34q.256-.597.682-.93a2.55 2.55 0 0 1 .938-.468q.51-.137 1.005-.137.315 0 .725.077.413.073.797.303.387.23.643.694.255.465.256 1.245V98h-1.006v-.886h-.051a1.8 1.8 0 0 1-.341.456 2 2 0 0 1-.635.413q-.397.17-.967.17m.153-.903q.597 0 1.006-.234a1.6 1.6 0 0 0 .835-1.385v-.92q-.064.075-.281.14-.213.06-.495.106a22 22 0 0 1-.963.128q-.391.052-.733.166a1.26 1.26 0 0 0-.545.337q-.204.222-.205.605 0 .525.388.793.393.264.993.264m7.529-5.796v.853h-3.392v-.853zm-2.404-1.568h1.006v6.239q0 .426.124.64.127.208.324.28.2.069.421.069.167 0 .273-.017l.171-.034.204.903a2 2 0 0 1-.285.077 2 2 0 0 1-.465.042q-.426 0-.835-.183a1.66 1.66 0 0 1-.673-.558q-.264-.376-.265-.946zm6.591 8.25q-.947 0-1.632-.417a2.8 2.8 0 0 1-1.053-1.176q-.366-.759-.366-1.765t.366-1.772a2.9 2.9 0 0 1 1.031-1.202q.665-.435 1.551-.435a3.1 3.1 0 0 1 1.01.17 2.5 2.5 0 0 1 .908.555q.41.38.652 1.005.243.627.243 1.543v.426h-5.046v-.87h4.023q0-.552-.221-.988a1.67 1.67 0 0 0-.623-.686 1.74 1.74 0 0 0-.946-.251q-.6 0-1.039.298-.435.294-.669.767a2.24 2.24 0 0 0-.235 1.014v.58q0 .741.256 1.257.26.51.72.78a2.1 2.1 0 0 0 1.07.264q.396 0 .716-.11.323-.116.558-.342.234-.23.362-.57l.972.272q-.154.495-.516.87-.362.37-.895.579a3.3 3.3 0 0 1-1.197.204m8.876-5.215-.903.255a1.7 1.7 0 0 0-.252-.439 1.2 1.2 0 0 0-.443-.358q-.28-.14-.72-.14-.6 0-1.002.277-.396.272-.396.694 0 .375.273.593.273.216.852.362l.972.238q.877.214 1.308.652.43.435.43 1.121 0 .562-.323 1.006a2.16 2.16 0 0 1-.895.699q-.576.255-1.338.255-1.002 0-1.658-.434-.657-.435-.831-1.27l.954-.239q.137.53.516.793.384.264 1.002.264.702 0 1.116-.298.417-.303.418-.725a.76.76 0 0 0-.239-.57q-.238-.235-.733-.35l-1.091-.256q-.899-.213-1.321-.66-.417-.453-.418-1.13 0-.554.312-.98.315-.426.856-.669a3 3 0 0 1 1.236-.243q.972 0 1.525.427.56.425.793 1.124"/></g><defs><clipPath id="a"><path fill="#fff" d="M24 24h80v33H24z"/></clipPath><clipPath id="b"><path fill="#fff" d="M24 24h31v33H24z"/></clipPath><clipPath id="c"><path fill="#fff" d="M63 24h41v33H63z"/></clipPath><clipPath id="d"><path fill="#fff" d="M24 73h118v25H24z"/></clipPath></defs></svg>