<svg xmlns="http://www.w3.org/2000/svg" fill="none" viewBox="0 0 768 133"><rect width="157" height="133" fill="#f8f8f7" rx="8"/><g stroke="#002c4e" clip-path="url(#a)"><rect width="47" height="47" x="24.5" y="24.5" rx="23.5"/><path stroke-linecap="round" stroke-linejoin="round" d="M43.334 48h9.333M48 43.333 52.667 48 48 52.667"/></g><g fill="#000" clip-path="url(#b)"><path d="M26.238 88v8H24.79v-8zm4.124 8.117q-.898 0-1.543-.394a2.64 2.64 0 0 1-.988-1.09q-.345-.7-.344-1.61 0-.914.352-1.613.351-.703.992-1.094.645-.394 1.524-.394.73 0 1.293.27.566.266.902.753.335.484.383 1.133H31.58a1.3 1.3 0 0 0-.39-.722q-.306-.293-.817-.293-.433 0-.762.234-.327.23-.511.664-.18.433-.18 1.039 0 .613.18 1.055.18.437.504.675.328.235.769.235.312 0 .559-.117.25-.122.418-.348.167-.227.23-.55h1.352q-.052.636-.375 1.128a2.2 2.2 0 0 1-.883.766q-.559.273-1.313.273m6.349 0q-.88 0-1.523-.386a2.63 2.63 0 0 1-1-1.083q-.352-.695-.352-1.625t.352-1.629a2.6 2.6 0 0 1 1-1.085q.644-.387 1.523-.387.88 0 1.523.387.645.386.996 1.085.356.7.356 1.63t-.355 1.624a2.6 2.6 0 0 1-.997 1.083q-.645.386-1.523.386m.008-1.133q.476 0 .797-.261.32-.266.476-.711.16-.445.16-.993 0-.55-.16-.996a1.6 1.6 0 0 0-.476-.714q-.321-.266-.797-.266-.489 0-.813.266a1.6 1.6 0 0 0-.48.714 3 3 0 0 0-.157.996q0 .547.157.993.16.446.48.71.324.262.813.262m5.481-2.5V96h-1.414v-6h1.352v1.02h.07q.207-.504.66-.801.457-.297 1.13-.297.62 0 1.081.266.465.265.719.769.258.504.254 1.223V96h-1.414v-3.602q0-.6-.313-.941-.308-.34-.855-.34-.372 0-.66.164-.285.16-.45.465a1.6 1.6 0 0 0-.16.738M50.28 96v-8h3.063q.867 0 1.441.273.578.27.864.739.288.468.288 1.062 0 .489-.187.836-.187.345-.504.559a2.1 2.1 0 0 1-.707.308v.079q.426.023.817.261.394.234.644.664t.25 1.04q0 .62-.3 1.117-.301.492-.907.777T53.519 96zm1.45-1.21h1.558q.789 0 1.137-.302a.99.99 0 0 0 .351-.781 1.2 1.2 0 0 0-.675-1.094 1.66 1.66 0 0 0-.774-.168H51.73zm0-3.388h1.433q.375 0 .676-.136.3-.141.473-.395.175-.258.175-.61 0-.464-.328-.765-.324-.3-.965-.3H51.73zm9.542 2.075V90h1.413v6h-1.37v-1.066h-.063q-.203.503-.668.824-.46.32-1.137.32-.589 0-1.043-.262a1.8 1.8 0 0 1-.703-.77q-.255-.507-.254-1.226V90h1.414v3.602q0 .57.313.906t.82.336q.313 0 .606-.153.292-.151.48-.453.192-.305.192-.761M67.136 90v1.094h-3.45V90zm-2.598-1.437h1.414v5.632q0 .285.086.438.09.148.234.203a.9.9 0 0 0 .32.055q.134 0 .243-.02.114-.02.172-.035l.238 1.105a3 3 0 0 1-.324.086 2.7 2.7 0 0 1-.508.055 2.3 2.3 0 0 1-.957-.16 1.5 1.5 0 0 1-.676-.555q-.246-.375-.242-.937zM71.314 90v1.094h-3.449V90zm-2.597-1.437h1.414v5.632q0 .285.086.438.09.148.234.203a.9.9 0 0 0 .32.055q.133 0 .243-.02.113-.02.172-.035l.238 1.105a3 3 0 0 1-.324.086 2.7 2.7 0 0 1-.508.055 2.3 2.3 0 0 1-.957-.16 1.5 1.5 0 0 1-.676-.555q-.246-.375-.242-.937zm6.333 7.554q-.879 0-1.524-.386a2.63 2.63 0 0 1-1-1.083q-.351-.695-.351-1.625t.351-1.629a2.6 2.6 0 0 1 1-1.085q.645-.387 1.524-.387.88 0 1.523.387.645.386.996 1.085.356.7.356 1.63t-.356 1.624a2.6 2.6 0 0 1-.996 1.083q-.644.386-1.523.386m.008-1.133q.476 0 .796-.261.321-.266.477-.711.16-.445.16-.993 0-.55-.16-.996a1.6 1.6 0 0 0-.477-.714q-.32-.266-.796-.266-.489 0-.813.266a1.6 1.6 0 0 0-.48.714 3 3 0 0 0-.157.996q0 .547.157.993.16.446.48.71.324.262.813.262m5.481-2.5V96h-1.414v-6h1.352v1.02h.07q.207-.504.66-.801.457-.297 1.129-.297.621 0 1.082.266.465.265.719.769.258.504.254 1.223V96h-1.414v-3.602q0-.6-.313-.941-.308-.34-.855-.34-.372 0-.66.164-.285.16-.45.465a1.6 1.6 0 0 0-.16.738"/><path fill-opacity=".7" d="M27.75 113h-2.693v-8.727h2.812q1.27 0 2.174.524a3.43 3.43 0 0 1 1.385 1.496q.48.971.481 2.326 0 1.364-.486 2.348a3.46 3.46 0 0 1-1.414 1.509q-.93.524-2.259.524m-1.636-.938h1.568q1.082 0 1.794-.417a2.58 2.58 0 0 0 1.06-1.189q.35-.77.35-1.837 0-1.056-.345-1.819a2.54 2.54 0 0 0-1.031-1.176q-.686-.414-1.709-.414h-1.687zm10.176 1.074q-.946 0-1.632-.417a2.8 2.8 0 0 1-1.053-1.176q-.366-.759-.366-1.765t.366-1.772q.37-.772 1.031-1.202.665-.435 1.551-.435.512 0 1.01.171.499.17.908.554.41.38.652 1.005.243.627.243 1.543v.426h-5.045v-.869h4.022a2.15 2.15 0 0 0-.221-.989 1.67 1.67 0 0 0-.623-.686 1.75 1.75 0 0 0-.946-.251q-.6 0-1.04.298-.434.294-.668.767a2.25 2.25 0 0 0-.235 1.014v.58q0 .741.256 1.257.26.512.72.78.46.264 1.07.264.396 0 .716-.111a1.5 1.5 0 0 0 .558-.341q.234-.23.362-.571l.972.273a2.16 2.16 0 0 1-.516.869q-.362.371-.895.58a3.3 3.3 0 0 1-1.197.204m7.155-6.681v.852h-3.529v-.852zM40.973 113v-7.449q0-.562.264-.937t.686-.563q.422-.187.89-.187.372 0 .606.059.234.06.35.111l-.29.869a6 6 0 0 0-.213-.064 1.3 1.3 0 0 0-.35-.038q-.498 0-.72.252-.217.25-.217.737V113zm5.62.153q-.623 0-1.13-.234a1.94 1.94 0 0 1-.805-.686q-.298-.452-.298-1.091 0-.562.221-.912.222-.354.593-.554.37-.2.818-.298.452-.102.908-.162.596-.077.967-.115.375-.043.545-.141.175-.098.175-.341v-.034q0-.63-.345-.98-.341-.35-1.036-.349-.72 0-1.129.315-.409.316-.575.673l-.955-.341q.256-.596.682-.929.43-.336.938-.468a4 4 0 0 1 1.005-.137 4 4 0 0 1 .725.077q.412.072.797.303.387.23.643.694.255.465.256 1.245V113h-1.006v-.886h-.051a1.8 1.8 0 0 1-.341.456q-.239.243-.635.413-.397.17-.967.17m.153-.903q.597 0 1.006-.234a1.6 1.6 0 0 0 .835-1.385v-.921q-.064.077-.281.141-.213.06-.495.106a21 21 0 0 1-.963.128 4 4 0 0 0-.733.166 1.26 1.26 0 0 0-.545.337q-.205.221-.205.605 0 .525.388.793.393.264.993.264m8.807-1.926v-3.869h1.006V113h-1.006v-1.108h-.068a2.15 2.15 0 0 1-.716.848q-.486.345-1.227.345-.614 0-1.091-.268a1.9 1.9 0 0 1-.75-.818q-.273-.55-.273-1.385v-4.159h1.006v4.09q0 .716.4 1.143.405.426 1.032.426.375 0 .763-.192.391-.192.656-.588.268-.396.268-1.01m3.854-6.051V113H58.4v-8.727zm4.688 2.182v.852h-3.392v-.852zm-2.403-1.569h1.005v6.239q0 .426.124.639a.64.64 0 0 0 .324.281q.2.069.422.069.166 0 .273-.017l.17-.035.204.904a2.2 2.2 0 0 1-.75.119q-.426 0-.835-.183a1.66 1.66 0 0 1-.673-.558q-.264-.376-.264-.946zM68.983 113v-6.545h1.006V113zm.511-7.636a.71.71 0 0 1-.507-.201.64.64 0 0 1-.209-.481q0-.282.21-.482a.72.72 0 0 1 .506-.2q.294 0 .503.2a.64.64 0 0 1 .213.482.64.64 0 0 1-.213.481.7.7 0 0 1-.503.201m4.996 7.772q-.92 0-1.585-.434a2.83 2.83 0 0 1-1.023-1.198q-.358-.762-.358-1.743 0-.996.366-1.76.37-.766 1.031-1.197.665-.435 1.552-.435.69 0 1.244.256.555.255.908.716t.439 1.074h-1.006a1.56 1.56 0 0 0-.512-.793q-.39-.35-1.056-.349-.588 0-1.031.307a2 2 0 0 0-.687.856q-.243.55-.243 1.291 0 .759.24 1.321.242.562.68.874.444.31 1.04.311.394 0 .712-.136.32-.137.542-.392.22-.256.315-.614h1.006a2.33 2.33 0 0 1-.422 1.044 2.36 2.36 0 0 1-.882.733q-.546.268-1.27.268m6.703 0q-.887 0-1.556-.422a2.86 2.86 0 0 1-1.04-1.18q-.37-.759-.37-1.773 0-1.022.37-1.785.375-.763 1.04-1.185.67-.422 1.556-.422t1.551.422q.67.422 1.04 1.185.375.763.375 1.785 0 1.014-.375 1.773a2.8 2.8 0 0 1-1.04 1.18q-.664.423-1.551.422m0-.903q.673 0 1.108-.345t.643-.908q.21-.562.21-1.219 0-.656-.21-1.223a2.07 2.07 0 0 0-.643-.916q-.436-.35-1.108-.349-.673 0-1.108.349-.434.35-.644.916-.208.567-.208 1.223t.208 1.219.644.908q.435.345 1.108.345m5.507-3.171V113h-1.006v-6.545h.971v1.022h.086q.23-.498.699-.801.468-.306 1.21-.307.664 0 1.163.273.499.269.776.818.276.546.277 1.381V113H89.87v-4.091q0-.771-.4-1.202-.402-.434-1.1-.434-.482 0-.86.209-.375.208-.593.609-.217.4-.217.971M96.225 113v-8.727h1.006v3.221h.085q.111-.17.306-.434a1.8 1.8 0 0 1 .572-.478q.375-.213 1.014-.213.826 0 1.457.414.631.413.985 1.172.353.758.353 1.789 0 1.04-.353 1.803-.354.759-.981 1.176-.626.413-1.444.413-.63 0-1.01-.208a1.9 1.9 0 0 1-.584-.482 6 6 0 0 1-.315-.452h-.12V113zm.988-3.273q0 .742.218 1.309.217.563.635.882.417.315 1.022.315.63 0 1.053-.332.426-.337.639-.904.218-.571.218-1.27 0-.69-.214-1.244a1.9 1.9 0 0 0-.634-.882q-.422-.328-1.062-.328-.613 0-1.03.311a1.86 1.86 0 0 0-.632.861q-.213.55-.213 1.282m10.454.597v-3.869h1.005V113h-1.005v-1.108h-.069a2.15 2.15 0 0 1-.716.848q-.484.345-1.227.345-.614 0-1.091-.268a1.9 1.9 0 0 1-.75-.818q-.273-.55-.272-1.385v-4.159h1.005v4.09q0 .716.401 1.143.405.426 1.031.426.375 0 .763-.192.392-.192.656-.588.269-.396.269-1.01m5.694-3.869v.852h-3.392v-.852zm-2.404-1.569h1.006v6.239q0 .426.124.639a.64.64 0 0 0 .324.281q.2.069.421.069.167 0 .273-.017l.171-.035.204.904a2.2 2.2 0 0 1-.75.119q-.426 0-.835-.183a1.66 1.66 0 0 1-.673-.558q-.265-.376-.265-.946zm6.763 1.569v.852h-3.392v-.852zm-2.403-1.569h1.005v6.239q0 .426.124.639a.64.64 0 0 0 .324.281q.2.069.422.069.166 0 .272-.017l.171-.035.204.904a2.2 2.2 0 0 1-.75.119q-.426 0-.835-.183a1.66 1.66 0 0 1-.673-.558q-.264-.376-.264-.946zm6.505 8.25q-.887 0-1.556-.422a2.86 2.86 0 0 1-1.039-1.18q-.371-.759-.371-1.773 0-1.022.371-1.785.375-.763 1.039-1.185.67-.422 1.556-.422t1.551.422q.668.422 1.04 1.185.375.763.375 1.785 0 1.014-.375 1.773a2.83 2.83 0 0 1-1.04 1.18q-.664.423-1.551.422m0-.903q.673 0 1.108-.345.434-.345.643-.908a3.5 3.5 0 0 0 .209-1.219q0-.656-.209-1.223a2.07 2.07 0 0 0-.643-.916q-.435-.35-1.108-.349-.673 0-1.108.349-.434.35-.644.916a3.5 3.5 0 0 0-.208 1.223q0 .657.208 1.219.21.563.644.908t1.108.345m5.506-3.171V113h-1.005v-6.545h.971v1.022h.086q.23-.498.698-.801.469-.306 1.211-.307.665 0 1.163.273.498.269.776.818.276.546.277 1.381V113h-1.006v-4.091q0-.771-.401-1.202-.4-.434-1.099-.434-.482 0-.861.209-.375.208-.592.609-.218.4-.218.971"/></g><rect width="256" height="92" x="173" fill="#f8f8f7" rx="8"/><rect width="23" height="23" x="197.5" y="24.5" stroke="#002c4e" rx="11.5"/><path stroke="#002c4e" stroke-linecap="round" stroke-linejoin="round" d="M204.333 36h9.334M209 31.333 213.667 36 209 40.667"/><rect width="23" height="23" x="-.5" y=".5" stroke="#002c4e" rx="11.5" transform="matrix(-1 0 0 1 268 24)"/><path stroke="#002c4e" stroke-linecap="round" stroke-linejoin="round" d="m259 40-4-4 4-4"/><rect width="23" height="23" x="293.5" y="24.5" stroke="#002c4e" rx="11.5"/><path stroke="#002c4e" stroke-linecap="round" stroke-linejoin="round" d="m303 40 4-4-4-4M353 46c5.523 0 10-4.477 10-10s-4.477-10-10-10-10 4.477-10 10 4.477 10 10 10"/><path stroke="#002c4e" stroke-linecap="round" stroke-linejoin="round" d="m357 34-4 4-4-4M397.003 42.666A6.666 6.666 0 0 0 403.669 36a6.666 6.666 0 1 0-13.333 0 6.667 6.667 0 0 0 6.667 6.666"/><path stroke="#002c4e" stroke-linecap="round" stroke-linejoin="round" d="m399.669 34.667-2.666 2.667-2.667-2.667"/><g clip-path="url(#c)"><path fill="#000" d="M198.816 72h-1.546l2.816-8h1.789l2.82 8h-1.547l-2.136-6.36h-.063zm.051-3.137h4.219v1.164h-4.219zm6.82 3.137v-6h1.371v1h.062q.164-.52.563-.8.402-.286.918-.286.117 0 .261.012.148.008.246.027v1.3a1.5 1.5 0 0 0-.285-.054 3 3 0 0 0-.371-.027 1.43 1.43 0 0 0-.695.168q-.304.165-.481.457-.175.292-.175.676V72zm4.361 0v-6h1.371v1h.062a1.5 1.5 0 0 1 1.481-1.086q.117 0 .262.012.149.008.246.027v1.3a1.5 1.5 0 0 0-.285-.054 3 3 0 0 0-.372-.027q-.386 0-.695.168-.305.165-.48.457a1.3 1.3 0 0 0-.176.676V72zm6.731.117q-.879 0-1.523-.386a2.62 2.62 0 0 1-1-1.083q-.352-.695-.352-1.625t.352-1.629q.355-.7 1-1.085.645-.387 1.523-.387.879 0 1.524.387.644.386.996 1.085.355.7.355 1.63t-.355 1.624a2.6 2.6 0 0 1-.996 1.083q-.645.386-1.524.386m.008-1.133q.477 0 .797-.261.32-.266.477-.711.16-.445.16-.993 0-.55-.16-.996a1.6 1.6 0 0 0-.477-.714q-.32-.266-.797-.266-.488 0-.812.266a1.6 1.6 0 0 0-.481.714 3 3 0 0 0-.156.996q0 .547.156.993.16.446.481.71.324.262.812.262M221.921 72l-1.695-6h1.441l1.055 4.219h.054L223.854 66h1.426l1.078 4.195h.059L227.456 66h1.445l-1.699 6h-1.473l-1.125-4.055h-.082L223.397 72zm12.71-4.414-1.289.14q-.055-.195-.192-.367a.95.95 0 0 0-.359-.277 1.3 1.3 0 0 0-.555-.105q-.44 0-.742.191-.297.192-.293.496a.52.52 0 0 0 .192.426q.198.165.656.27l1.023.218q.852.184 1.266.582.418.399.422 1.043a1.64 1.64 0 0 1-.332 1q-.324.43-.903.672-.578.243-1.328.242-1.101 0-1.773-.46a1.85 1.85 0 0 1-.801-1.294l1.379-.132a.97.97 0 0 0 .398.613q.306.207.793.207.504 0 .809-.207.309-.207.309-.512a.53.53 0 0 0-.2-.426q-.195-.168-.609-.258l-1.023-.214q-.864-.18-1.278-.606-.414-.429-.41-1.086-.004-.555.301-.96.309-.41.855-.634a3.3 3.3 0 0 1 1.27-.226q1.054 0 1.66.45.61.449.754 1.214m6.414 4.531q-.82 0-1.41-.297a2.24 2.24 0 0 1-.91-.8 2.1 2.1 0 0 1-.317-1.145q0-.48.196-.852.199-.37.546-.687.353-.316.813-.629l1.418-.965q.312-.203.473-.43a.9.9 0 0 0 .164-.53q0-.259-.219-.489-.214-.23-.594-.23a.852.852 0 0 0-.75.43.83.83 0 0 0-.105.405q0 .262.144.532.149.27.383.558l.508.614L245.139 72h-1.532l-3.117-3.57q-.347-.406-.672-.801a4.3 4.3 0 0 1-.527-.82 2.15 2.15 0 0 1-.203-.93q0-.567.262-1.012.261-.45.73-.707.473-.258 1.106-.258.632 0 1.085.25.454.25.7.664t.246.903q0 .566-.281 1.015a3 3 0 0 1-.782.809l-1.617 1.184q-.399.289-.57.585-.172.293-.172.5 0 .317.16.575t.449.414q.293.152.684.152.43 0 .848-.191.417-.195.761-.555t.547-.86q.203-.503.203-1.116h1.215q0 .757-.168 1.32a3.4 3.4 0 0 1-.433.945q-.267.383-.563.613l-.18.133a6 6 0 0 1-.179.133 2.64 2.64 0 0 1-.989.563q-.562.18-1.105.18m14.542-5.418h-1.461a1.8 1.8 0 0 0-.23-.636 1.7 1.7 0 0 0-.418-.477 1.7 1.7 0 0 0-.571-.293 2.2 2.2 0 0 0-.683-.102q-.653 0-1.157.328-.504.325-.789.954-.285.624-.285 1.527 0 .918.285 1.547.29.625.789.945.504.317 1.153.317.358 0 .672-.094a1.8 1.8 0 0 0 .566-.285q.254-.188.426-.461.176-.273.242-.625l1.461.008q-.082.57-.356 1.07a3.14 3.14 0 0 1-1.73 1.476q-.586.211-1.301.211-1.055 0-1.883-.488-.828-.487-1.304-1.41T248.536 68q0-1.293.481-2.21.48-.924 1.308-1.411.828-.488 1.875-.488.669 0 1.242.187.574.188 1.024.55.449.36.738.884.293.52.383 1.187m2.679 1.785V72h-1.414v-8h1.382v3.02h.071q.21-.508.652-.801.446-.297 1.133-.297.625 0 1.09.262t.718.765q.258.504.258 1.23V72h-1.414v-3.602q0-.605-.312-.941-.309-.34-.868-.34-.374 0-.671.164a1.15 1.15 0 0 0-.461.465q-.165.305-.164.738m7.988 3.633q-.902 0-1.559-.375a2.54 2.54 0 0 1-1.004-1.07q-.351-.696-.351-1.637 0-.926.351-1.625.356-.703.993-1.094.636-.394 1.496-.394.554 0 1.047.18.495.176.875.546.382.372.601.946.219.57.219 1.36v.433h-4.918v-.953h3.562a1.5 1.5 0 0 0-.175-.723 1.3 1.3 0 0 0-.481-.504 1.35 1.35 0 0 0-.711-.184q-.434 0-.761.211a1.45 1.45 0 0 0-.512.547q-.18.336-.184.738v.833q0 .523.192.898.191.371.535.57a1.6 1.6 0 0 0 .804.196q.309 0 .559-.086.25-.09.434-.262a1.1 1.1 0 0 0 .277-.426l1.32.149a2.06 2.06 0 0 1-.476.914 2.3 2.3 0 0 1-.891.601 3.4 3.4 0 0 1-1.242.211M275.306 66l-2.137 6h-1.563l-2.136-6h1.508l1.378 4.457h.063L273.802 66zm.978 6v-6h1.371v1h.063a1.5 1.5 0 0 1 1.48-1.086q.117 0 .262.012.148.008.246.027v1.3a1.5 1.5 0 0 0-.285-.054 3 3 0 0 0-.371-.027q-.387 0-.696.168-.305.165-.48.457a1.3 1.3 0 0 0-.176.676V72zm6.732.117q-.879 0-1.524-.386a2.63 2.63 0 0 1-1-1.083q-.351-.695-.351-1.625t.351-1.629a2.63 2.63 0 0 1 1-1.085q.645-.387 1.524-.387.878 0 1.523.387.645.386.996 1.085.356.7.356 1.63t-.356 1.624a2.6 2.6 0 0 1-.996 1.083q-.644.386-1.523.386m.007-1.133q.477 0 .797-.261.321-.266.477-.711a2.9 2.9 0 0 0 .16-.993q0-.55-.16-.996a1.57 1.57 0 0 0-.477-.714q-.32-.266-.797-.266-.488 0-.812.266a1.6 1.6 0 0 0-.481.714 3 3 0 0 0-.156.996q0 .547.156.993.16.446.481.71.324.262.812.262m5.482-2.5V72h-1.414v-6h1.351v1.02h.071q.207-.504.66-.801.457-.297 1.129-.297.62 0 1.082.266.464.265.719.769.257.504.253 1.223V72h-1.414v-3.602q0-.6-.312-.941-.309-.34-.856-.34-.37 0-.66.164-.285.16-.449.465-.16.305-.16.738m10.031-.898-1.289.14a1 1 0 0 0-.191-.367.96.96 0 0 0-.36-.277 1.3 1.3 0 0 0-.554-.105q-.442 0-.743.191-.297.192-.293.496a.52.52 0 0 0 .192.426q.199.165.656.27l1.024.218q.85.184 1.265.582.418.399.422 1.043a1.63 1.63 0 0 1-.332 1q-.324.43-.902.672a3.4 3.4 0 0 1-1.328.242q-1.102 0-1.774-.46a1.85 1.85 0 0 1-.801-1.294l1.379-.132q.094.405.399.613.304.207.793.207.504 0 .808-.207.309-.207.309-.512a.54.54 0 0 0-.199-.426q-.196-.168-.61-.258l-1.023-.214q-.864-.18-1.278-.606-.413-.429-.41-1.086-.003-.555.301-.96.309-.41.856-.634.55-.225 1.269-.226 1.055 0 1.66.45.61.449.754 1.214"/></g><rect width="151" height="125" x="445" fill="#f8f8f7" rx="8"/><g clip-path="url(#d)"><rect width="39" height="39" x="469.5" y="24.5" fill="#fff" rx="7.5"/><rect width="39" height="39" x="469.5" y="24.5" stroke="#e4e4e4" rx="7.5"/><path stroke="#002c4e" stroke-linecap="round" stroke-linejoin="round" d="M490.333 47.333h-6M493.667 40.667h-6M492.333 49.333a2 2 0 1 0 0-4 2 2 0 0 0 0 4M485.667 42.667a2 2 0 1 0 0-4.001 2 2 0 0 0 0 4"/></g><path fill="#000" d="M474.137 82.2a1.07 1.07 0 0 0-.461-.798q-.402-.285-1.047-.285-.453 0-.777.137a1.15 1.15 0 0 0-.497.371.9.9 0 0 0-.175.535q0 .25.113.434.117.183.316.312.2.126.442.211.242.086.488.145l.75.187q.454.106.871.285.422.18.754.454.336.273.531.66.196.387.196.906 0 .703-.36 1.238-.359.532-1.039.832-.675.297-1.637.297-.933 0-1.621-.289a2.4 2.4 0 0 1-1.07-.844q-.382-.555-.414-1.351h1.426q.032.417.258.695t.589.414q.368.137.821.137.472 0 .828-.14.359-.145.562-.4a.96.96 0 0 0 .207-.6.76.76 0 0 0-.183-.516 1.35 1.35 0 0 0-.504-.344 5 5 0 0 0-.75-.25l-.91-.235q-.988-.253-1.563-.77-.57-.518-.57-1.378 0-.707.383-1.238a2.53 2.53 0 0 1 1.051-.825 3.64 3.64 0 0 1 1.503-.296q.852 0 1.493.296a2.43 2.43 0 0 1 1.011.817q.367.52.379 1.195zm5.35 5.917q-.879 0-1.523-.386a2.62 2.62 0 0 1-1-1.083q-.352-.695-.352-1.625t.352-1.629q.355-.7 1-1.085.644-.387 1.523-.387t1.524.387.996 1.085q.355.7.355 1.63t-.355 1.624a2.6 2.6 0 0 1-.996 1.083q-.645.386-1.524.386m.008-1.133q.476 0 .797-.261.32-.266.477-.711.16-.445.16-.993 0-.55-.16-.996a1.6 1.6 0 0 0-.477-.714q-.32-.266-.797-.266-.488 0-.812.266a1.6 1.6 0 0 0-.481.714 3 3 0 0 0-.156.996q0 .547.156.993.16.446.481.71.324.262.812.262M483.563 88v-6h1.371v1h.062q.164-.52.563-.8.402-.286.918-.286.117 0 .261.012.149.008.246.027v1.3a1.5 1.5 0 0 0-.285-.054 3 3 0 0 0-.371-.027 1.43 1.43 0 0 0-.695.168q-.304.165-.481.457-.175.292-.175.676V88zm7.679-6v1.094h-3.449V82zm-2.597-1.437h1.414v5.632q0 .285.086.438a.46.46 0 0 0 .234.203.9.9 0 0 0 .32.055q.133 0 .242-.02.114-.02.172-.035l.239 1.105a3 3 0 0 1-.325.086q-.207.048-.507.055a2.3 2.3 0 0 1-.957-.16 1.5 1.5 0 0 1-.676-.555q-.246-.375-.242-.937z"/><path fill="#000" fill-opacity=".7" d="M474.83 98.455a1.34 1.34 0 0 0-.623-1.006q-.544-.358-1.338-.358-.579 0-1.014.187a1.6 1.6 0 0 0-.673.516 1.24 1.24 0 0 0-.239.746q0 .35.166.6.171.248.435.414.264.162.554.268.29.103.533.167l.886.238q.34.09.759.247.421.158.805.431.388.269.639.69.252.422.252 1.036a2.3 2.3 0 0 1-.371 1.278q-.366.571-1.074.908-.703.336-1.709.336-.937 0-1.623-.302a2.6 2.6 0 0 1-1.074-.844 2.4 2.4 0 0 1-.439-1.257h1.091q.042.495.332.818.294.32.742.477.452.154.971.154.606 0 1.087-.196.481-.2.763-.554.28-.358.281-.835 0-.435-.243-.708a1.8 1.8 0 0 0-.639-.443 7 7 0 0 0-.857-.298l-1.074-.307q-1.022-.294-1.619-.84-.597-.545-.597-1.427 0-.734.397-1.278.4-.55 1.074-.853a3.6 3.6 0 0 1 1.512-.307q.845 0 1.5.303.657.299 1.04.818.388.52.409 1.18zm5.402 6.681q-.886 0-1.556-.422a2.86 2.86 0 0 1-1.039-1.18q-.37-.759-.371-1.773 0-1.022.371-1.785a2.86 2.86 0 0 1 1.039-1.185q.67-.422 1.556-.422.887 0 1.551.422a2.8 2.8 0 0 1 1.04 1.185q.375.763.375 1.785 0 1.014-.375 1.773a2.8 2.8 0 0 1-1.04 1.18q-.664.423-1.551.422m0-.903q.673 0 1.108-.345t.643-.908q.21-.562.209-1.219 0-.656-.209-1.223a2.06 2.06 0 0 0-.643-.916q-.435-.35-1.108-.35t-1.108.35a2.07 2.07 0 0 0-.644.916 3.5 3.5 0 0 0-.208 1.223q0 .657.208 1.219.21.563.644.908t1.108.345m4.501.767v-6.546h.972v.99h.068q.179-.487.647-.79a1.9 1.9 0 0 1 1.057-.302q.11 0 .277.004.166.005.252.013v1.023a3 3 0 0 0-.235-.038 2.3 2.3 0 0 0-.379-.03 1.8 1.8 0 0 0-.852.2 1.468 1.468 0 0 0-.801 1.334V105zm7.722-6.546v.853h-3.393v-.853zm-2.404-1.568h1.006v6.239q0 .426.123.639a.65.65 0 0 0 .324.281q.2.069.422.069.166 0 .273-.017l.17-.035.205.904a2.2 2.2 0 0 1-.75.119q-.426 0-.835-.183a1.66 1.66 0 0 1-.674-.558q-.264-.376-.264-.946zm9.217 8.267q-.621 0-1.129-.234a1.94 1.94 0 0 1-.805-.686q-.298-.452-.298-1.091 0-.562.221-.912.222-.354.592-.554.371-.2.819-.298.451-.102.907-.162.597-.077.968-.115.375-.043.545-.141.175-.098.175-.341v-.034q0-.63-.345-.98-.342-.35-1.036-.35-.72 0-1.129.316t-.575.673l-.955-.34q.256-.597.682-.93.43-.336.937-.468.511-.137 1.006-.137.315 0 .724.077.414.073.797.303.388.23.644.694.255.465.255 1.245V105h-1.005v-.886h-.051a1.8 1.8 0 0 1-.341.456 2 2 0 0 1-.635.413q-.396.17-.968.17m.154-.903q.597 0 1.006-.234.413-.235.622-.605.213-.372.213-.78v-.921q-.065.077-.281.141-.214.06-.495.106a21 21 0 0 1-.963.128q-.392.052-.733.166a1.26 1.26 0 0 0-.545.337q-.205.221-.205.605 0 .525.388.793.391.264.993.264m7.341.886q-.92 0-1.585-.434a2.84 2.84 0 0 1-1.023-1.198q-.358-.762-.358-1.743 0-.996.367-1.76.37-.766 1.031-1.197.665-.435 1.551-.435.69 0 1.244.256t.908.716.439 1.074h-1.006a1.55 1.55 0 0 0-.511-.793q-.392-.35-1.057-.35-.588 0-1.031.307a2 2 0 0 0-.686.857q-.243.55-.243 1.291 0 .759.239 1.321.242.562.681.874.444.31 1.04.311.393 0 .712-.136.32-.137.541-.392.222-.256.315-.614h1.006a2.33 2.33 0 0 1-1.304 1.777q-.546.268-1.27.268m6.891-6.681v.852h-3.392v-.853zm-2.404-1.569h1.006v6.239q0 .426.124.639a.64.64 0 0 0 .323.281q.201.069.422.069.167 0 .273-.017l.171-.035.204.904a2.2 2.2 0 0 1-.75.119q-.426 0-.835-.183a1.66 1.66 0 0 1-.673-.558q-.265-.376-.265-.946zm3.917 8.114v-6.546h1.005V105zm.511-7.636a.72.72 0 0 1-.507-.2.65.65 0 0 1-.209-.482q0-.281.209-.482a.72.72 0 0 1 .507-.2.7.7 0 0 1 .503.2.64.64 0 0 1 .213.482.64.64 0 0 1-.213.481.7.7 0 0 1-.503.2m4.995 7.772q-.886 0-1.555-.422a2.86 2.86 0 0 1-1.04-1.18q-.37-.759-.371-1.773 0-1.022.371-1.785.375-.764 1.04-1.185.669-.422 1.555-.422t1.551.422a2.8 2.8 0 0 1 1.04 1.185q.375.763.375 1.785 0 1.014-.375 1.773a2.8 2.8 0 0 1-1.04 1.18q-.664.423-1.551.422m0-.903q.673 0 1.108-.345t.644-.908a3.5 3.5 0 0 0 .209-1.219q0-.656-.209-1.223a2.06 2.06 0 0 0-.644-.916q-.435-.35-1.108-.35t-1.108.35a2.07 2.07 0 0 0-.643.916 3.5 3.5 0 0 0-.209 1.223q0 .657.209 1.219t.643.908 1.108.345m5.507-3.171V105h-1.006v-6.546h.972v1.023h.085q.231-.499.699-.8.47-.308 1.21-.308.664 0 1.164.273.499.269.775.818.277.546.277 1.381V105h-1.006v-4.091q0-.771-.4-1.202-.4-.435-1.1-.434-.481 0-.86.209-.375.209-.593.609t-.217.971m9.525 3.938v-8.727h1.006v3.221h.085q.11-.17.307-.434.2-.269.571-.478.375-.213 1.014-.213.827 0 1.458.414.63.413.984 1.171.354.76.354 1.79 0 1.04-.354 1.803-.354.759-.98 1.176-.626.413-1.445.413-.63 0-1.01-.208a1.9 1.9 0 0 1-.583-.482 6 6 0 0 1-.316-.452h-.119V105zm.989-3.273q0 .742.217 1.309.218.563.635.882.418.315 1.023.315.63 0 1.052-.332a2.03 2.03 0 0 0 .64-.904q.217-.571.217-1.27 0-.69-.213-1.244a1.9 1.9 0 0 0-.635-.882q-.422-.328-1.061-.328-.614 0-1.031.31a1.86 1.86 0 0 0-.631.862q-.213.55-.213 1.282m10.453.597v-3.87h1.006V105h-1.006v-1.108h-.068a2.15 2.15 0 0 1-.716.848q-.486.345-1.227.345-.614 0-1.091-.268a1.9 1.9 0 0 1-.75-.818q-.273-.55-.273-1.385v-4.16h1.006v4.091q0 .716.4 1.143.405.426 1.032.426.375 0 .762-.192.392-.192.657-.588.268-.396.268-1.01m5.694-3.87v.853h-3.392v-.853zm-2.403-1.568h1.006v6.239q0 .426.123.639a.64.64 0 0 0 .324.281q.2.069.422.069.166 0 .273-.017l.17-.035.205.904a2.3 2.3 0 0 1-.75.119q-.427 0-.836-.183a1.66 1.66 0 0 1-.673-.558q-.264-.376-.264-.946zm6.763 1.569v.852h-3.392v-.853zm-2.404-1.569h1.006v6.239q0 .426.123.639a.65.65 0 0 0 .324.281q.201.069.422.069.167 0 .273-.017l.17-.035.205.904a2.2 2.2 0 0 1-.75.119q-.427 0-.835-.183a1.66 1.66 0 0 1-.674-.558q-.264-.376-.264-.946zm6.505 8.25q-.886 0-1.555-.422a2.86 2.86 0 0 1-1.04-1.18q-.37-.759-.371-1.773 0-1.022.371-1.785.375-.764 1.04-1.185.669-.422 1.555-.422t1.551.422a2.8 2.8 0 0 1 1.04 1.185q.375.763.375 1.785 0 1.014-.375 1.773a2.8 2.8 0 0 1-1.04 1.18q-.664.423-1.551.422m0-.903q.673 0 1.108-.345t.644-.908q.208-.562.208-1.219 0-.656-.208-1.223a2.07 2.07 0 0 0-.644-.916q-.435-.35-1.108-.35t-1.108.35a2.06 2.06 0 0 0-.643.916 3.5 3.5 0 0 0-.209 1.223q0 .657.209 1.219.208.563.643.908t1.108.345m5.507-3.171V105h-1.006v-6.546h.972v1.023h.085q.23-.499.699-.8.468-.308 1.21-.308.665 0 1.164.273.498.269.775.818.277.546.277 1.381V105h-1.006v-4.091q0-.771-.4-1.202-.4-.435-1.1-.434-.482 0-.86.209-.375.209-.593.609t-.217.971"/><rect width="156" height="125" x="612" fill="#f8f8f7" rx="8"/><g clip-path="url(#e)"><rect width="39" height="39" x="636.5" y="24.5" fill="#fff" rx="7.5"/><rect width="39" height="39" x="636.5" y="24.5" stroke="#e4e4e4" rx="7.5"/><path stroke="#002c4e" stroke-linecap="round" stroke-linejoin="round" d="M654.667 49.333a.67.67 0 0 0 .368.597l1.334.667a.664.664 0 0 0 .88-.272.7.7 0 0 0 .084-.325v-4.667c0-.33.123-.649.345-.894l4.815-5.326A.667.667 0 0 0 662 38h-12a.665.665 0 0 0-.658.772c.02.127.077.246.163.341l4.817 5.326c.222.245.344.564.345.894z"/></g><path fill="#000" d="M636.789 88v-8h5.125v1.215h-3.676v2.172h3.324v1.215h-3.324V88zm6.383 0v-6h1.414v6zm.711-6.852a.82.82 0 0 1-.578-.222.72.72 0 0 1-.242-.543q0-.321.242-.543a.82.82 0 0 1 .578-.227.8.8 0 0 1 .578.227q.242.223.242.543a.72.72 0 0 1-.242.543.82.82 0 0 1-.578.222M647.454 80v8h-1.414v-8zm4.45 2v1.094h-3.449V82zm-2.597-1.437h1.414v5.632q0 .285.086.438.09.148.234.203a.9.9 0 0 0 .32.055q.134 0 .243-.02.112-.02.171-.035l.239 1.105a3 3 0 0 1-.325.086q-.207.048-.507.055a2.3 2.3 0 0 1-.957-.16 1.5 1.5 0 0 1-.676-.555q-.246-.375-.242-.937zm6.372 7.554q-.902 0-1.559-.375a2.54 2.54 0 0 1-1.004-1.07q-.351-.696-.351-1.637 0-.926.351-1.625.356-.703.992-1.094.638-.394 1.496-.394.555 0 1.047.18.497.176.875.546.384.372.602.946.219.57.219 1.36v.433h-4.918v-.953h3.562a1.5 1.5 0 0 0-.176-.723 1.27 1.27 0 0 0-.48-.504 1.35 1.35 0 0 0-.711-.184q-.434 0-.762.211-.327.207-.511.547-.18.336-.184.738v.833q0 .523.191.898.192.371.536.57a1.6 1.6 0 0 0 .804.196q.309 0 .559-.086a1.2 1.2 0 0 0 .433-.262 1.1 1.1 0 0 0 .278-.426l1.32.149a2.06 2.06 0 0 1-.476.914 2.3 2.3 0 0 1-.891.601 3.4 3.4 0 0 1-1.242.211m3.864-.117v-6h1.371v1h.063q.163-.52.562-.8.402-.286.918-.286.117 0 .262.012.149.008.246.027v1.3a1.5 1.5 0 0 0-.285-.054 3 3 0 0 0-.371-.027q-.387 0-.696.168-.304.165-.48.457a1.3 1.3 0 0 0-.176.676V88z"/><path fill="#000" fill-opacity=".7" d="M637.057 105v-8.727h5.233v.937h-4.176v2.949h3.784v.938h-3.784V105zm6.906 0v-6.546h1.006V105zm.512-7.636a.72.72 0 0 1-.507-.2.64.64 0 0 1-.209-.482.64.64 0 0 1 .209-.482.72.72 0 0 1 .507-.2q.293 0 .503.2a.64.64 0 0 1 .213.482.64.64 0 0 1-.213.481.7.7 0 0 1-.503.2m3.342-1.091V105h-1.006v-8.727zm4.688 2.182v.852h-3.392v-.853zm-2.403-1.569h1.006v6.239q0 .426.123.639a.64.64 0 0 0 .324.281q.2.069.422.069.166 0 .273-.017l.17-.035.205.904a2.3 2.3 0 0 1-.75.119q-.426 0-.836-.183a1.66 1.66 0 0 1-.673-.558q-.264-.376-.264-.946zm6.59 8.25q-.947 0-1.632-.417a2.8 2.8 0 0 1-1.053-1.176q-.366-.759-.366-1.765t.366-1.772a2.9 2.9 0 0 1 1.032-1.202q.665-.435 1.551-.435.511 0 1.01.17.498.172.907.555.41.38.652 1.005.243.627.243 1.543v.426h-5.045v-.869h4.023q0-.554-.222-.989a1.67 1.67 0 0 0-.622-.686 1.74 1.74 0 0 0-.946-.251q-.601 0-1.04.298a1.96 1.96 0 0 0-.669.767 2.25 2.25 0 0 0-.234 1.014v.58q0 .741.255 1.257.26.512.721.78.46.264 1.069.264.396 0 .716-.111.324-.115.558-.341.235-.23.362-.571l.972.273a2.15 2.15 0 0 1-.516.869 2.5 2.5 0 0 1-.894.58 3.3 3.3 0 0 1-1.198.204m4.24-.136v-6.546h.972v.99h.068q.178-.487.648-.79a1.9 1.9 0 0 1 1.056-.302q.111 0 .277.004.167.005.252.013v1.023a3 3 0 0 0-.234-.038q-.18-.03-.38-.03a1.8 1.8 0 0 0-.852.2 1.468 1.468 0 0 0-.801 1.334V105zm9.766.153q-.622 0-1.129-.234a1.94 1.94 0 0 1-.806-.686q-.298-.452-.298-1.091 0-.562.222-.912.222-.354.592-.554a3.1 3.1 0 0 1 .818-.298 10 10 0 0 1 .908-.162q.597-.077.967-.115.375-.043.546-.141.174-.098.174-.341v-.034q0-.63-.345-.98-.34-.35-1.035-.35-.72 0-1.129.316t-.576.673l-.954-.34q.255-.597.682-.93.43-.336.937-.468.511-.137 1.006-.137.315 0 .724.077.413.073.797.303.388.23.643.694.256.465.256 1.245V105h-1.006v-.886h-.051a1.8 1.8 0 0 1-.341.456q-.238.243-.635.413-.396.17-.967.17m.154-.903q.596 0 1.005-.234a1.6 1.6 0 0 0 .835-1.385v-.921q-.063.077-.281.141a5 5 0 0 1-.494.106 21 21 0 0 1-.963.128q-.393.052-.733.166a1.26 1.26 0 0 0-.546.337q-.204.221-.204.605 0 .525.388.793.392.264.993.264m7.341.886q-.92 0-1.585-.434a2.83 2.83 0 0 1-1.023-1.198q-.358-.762-.358-1.743 0-.996.366-1.76a2.9 2.9 0 0 1 1.032-1.197q.665-.435 1.551-.435.69 0 1.244.256t.908.716.439 1.074h-1.006a1.56 1.56 0 0 0-.511-.793q-.393-.35-1.057-.35-.588 0-1.031.307a2 2 0 0 0-.687.857q-.242.55-.242 1.291 0 .759.238 1.321.243.562.682.874.444.31 1.04.311.391 0 .711-.136.32-.137.542-.392.221-.256.315-.614h1.006a2.34 2.34 0 0 1-.422 1.044 2.36 2.36 0 0 1-.882.733q-.546.268-1.27.268m6.89-6.681v.852h-3.392v-.853zm-2.403-1.569h1.006v6.239q0 .426.123.639a.64.64 0 0 0 .324.281q.2.069.422.069.166 0 .273-.017l.17-.035.205.904a2.2 2.2 0 0 1-.75.119q-.426 0-.835-.183a1.66 1.66 0 0 1-.674-.558q-.264-.376-.264-.946zm3.916 8.114v-6.546h1.006V105zm.512-7.636a.72.72 0 0 1-.508-.2.64.64 0 0 1-.208-.482q0-.281.208-.482a.72.72 0 0 1 .508-.2q.294 0 .502.2a.64.64 0 0 1 .214.482.64.64 0 0 1-.214.481.7.7 0 0 1-.502.2m4.995 7.772q-.886 0-1.555-.422a2.86 2.86 0 0 1-1.04-1.18q-.37-.759-.371-1.773 0-1.022.371-1.785.375-.764 1.04-1.185.669-.422 1.555-.422t1.551.422a2.8 2.8 0 0 1 1.04 1.185q.375.763.375 1.785 0 1.014-.375 1.773a2.8 2.8 0 0 1-1.04 1.18q-.665.423-1.551.422m0-.903q.673 0 1.108-.345t.643-.908q.21-.562.209-1.219 0-.656-.209-1.223a2.06 2.06 0 0 0-.643-.916q-.435-.35-1.108-.35t-1.108.35a2.06 2.06 0 0 0-.643.916q-.21.567-.209 1.223 0 .657.209 1.219.208.563.643.908t1.108.345m5.507-3.171V105h-1.006v-6.546h.972v1.023h.085q.23-.499.699-.8.468-.308 1.21-.308.665 0 1.163.273.499.269.776.818.277.546.277 1.381V105h-1.006v-4.091q0-.771-.4-1.202-.4-.435-1.1-.434-.481 0-.861.209-.375.209-.592.609t-.217.971m9.525 3.938v-8.727h1.006v3.221h.085q.11-.17.307-.434.2-.269.571-.478.375-.213 1.014-.213.827 0 1.457.414.631.413.985 1.171.353.76.353 1.79 0 1.04-.353 1.803-.354.759-.98 1.176-.627.413-1.445.413-.631 0-1.01-.208a1.9 1.9 0 0 1-.584-.482 7 7 0 0 1-.315-.452h-.119V105zm.989-3.273q0 .742.217 1.309.217.563.635.882.417.315 1.023.315.63 0 1.052-.332.426-.337.639-.904.218-.571.218-1.27 0-.69-.213-1.244a1.93 1.93 0 0 0-.635-.882q-.423-.328-1.061-.328-.614 0-1.032.31a1.87 1.87 0 0 0-.63.862q-.213.55-.213 1.282m10.453.597v-3.87h1.005V105h-1.005v-1.108h-.068a2.16 2.16 0 0 1-.716.848q-.486.345-1.228.345-.613 0-1.091-.268a1.9 1.9 0 0 1-.75-.818q-.272-.55-.272-1.385v-4.16h1.005v4.091q0 .716.401 1.143.405.426 1.031.426.375 0 .763-.192.392-.192.656-.588.269-.396.269-1.01m5.694-3.87v.853h-3.392v-.853zm-2.403-1.568h1.005v6.239q0 .426.124.639a.64.64 0 0 0 .324.281q.2.069.422.069.165 0 .272-.017l.171-.035.204.904a2.2 2.2 0 0 1-.75.119q-.426 0-.835-.183a1.66 1.66 0 0 1-.673-.558q-.264-.376-.264-.946zm6.762 1.569v.852h-3.392v-.853zm-2.403-1.569h1.006v6.239q0 .426.123.639a.64.64 0 0 0 .324.281q.2.069.422.069.167 0 .273-.017l.17-.035.205.904a2.3 2.3 0 0 1-.75.119q-.426 0-.836-.183a1.66 1.66 0 0 1-.673-.558q-.264-.376-.264-.946zm6.505 8.25q-.886 0-1.556-.422a2.86 2.86 0 0 1-1.039-1.18q-.37-.759-.371-1.773 0-1.022.371-1.785a2.86 2.86 0 0 1 1.039-1.185q.67-.422 1.556-.422t1.551.422a2.8 2.8 0 0 1 1.04 1.185q.375.763.375 1.785 0 1.014-.375 1.773a2.8 2.8 0 0 1-1.04 1.18q-.664.423-1.551.422m0-.903q.673 0 1.108-.345t.643-.908q.21-.562.209-1.219 0-.656-.209-1.223a2.06 2.06 0 0 0-.643-.916q-.435-.35-1.108-.35t-1.108.35a2.07 2.07 0 0 0-.644.916 3.5 3.5 0 0 0-.208 1.223q0 .657.208 1.219.21.563.644.908t1.108.345m5.507-3.171V105h-1.006v-6.546h.972v1.023h.085q.23-.499.699-.8.469-.308 1.21-.308.665 0 1.163.273.499.269.776.818.277.546.277 1.381V105h-1.006v-4.091q0-.771-.4-1.202-.402-.435-1.1-.434-.481 0-.861.209-.375.209-.592.609t-.217.971"/><defs><clipPath id="a"><path fill="#fff" d="M24 24h48v48H24z"/></clipPath><clipPath id="b"><path fill="#fff" d="M24 88h109v25H24z"/></clipPath><clipPath id="c"><path fill="#fff" d="M197 64h103v8H197z"/></clipPath><clipPath id="d"><path fill="#fff" d="M469 24h40v40h-40z"/></clipPath><clipPath id="e"><path fill="#fff" d="M636 24h40v40h-40z"/></clipPath></defs></svg>