<svg xmlns="http://www.w3.org/2000/svg" fill="none" viewBox="0 0 182 18"><path fill="#002c4e" d="M7.536 1.848v1.184H2.688v3.76h3.936v1.184H2.688V13H1.232V1.848zm5.583 11.296a4.53 4.53 0 0 1-2.24-.56A4.07 4.07 0 0 1 9.31 11q-.56-1.04-.56-2.4 0-1.344.576-2.368a4 4 0 0 1 1.6-1.584q1.009-.56 2.256-.56 1.249 0 2.256.56 1.008.544 1.585 1.568.591 1.024.591 2.384t-.608 2.4a4.1 4.1 0 0 1-1.616 1.584q-1.023.56-2.272.56m0-1.28q.783 0 1.472-.368a2.75 2.75 0 0 0 1.104-1.104q.43-.736.431-1.792 0-1.056-.416-1.792-.416-.735-1.088-1.088a3 3 0 0 0-1.456-.368q-.8 0-1.472.368-.655.352-1.056 1.088-.4.736-.4 1.792 0 1.072.385 1.808.399.736 1.056 1.104.656.352 1.44.352m7.866-6.208q.384-.751 1.088-1.168.72-.416 1.744-.416v1.504h-.384q-2.448 0-2.448 2.656V13h-1.456V4.232h1.456zm8.129-1.568q1.135 0 1.984.496.864.496 1.28 1.248v-1.6h1.472v8.96q0 1.2-.512 2.128a3.62 3.62 0 0 1-1.472 1.472q-.945.528-2.208.528-1.728 0-2.88-.816-1.153-.816-1.36-2.224h1.44q.24.8.992 1.28.752.496 1.808.496 1.2 0 1.952-.752.768-.751.768-2.112v-1.84q-.432.768-1.28 1.28t-1.984.512a4.06 4.06 0 0 1-2.128-.576 4.04 4.04 0 0 1-1.488-1.616q-.544-1.04-.544-2.368 0-1.344.544-2.352a3.95 3.95 0 0 1 1.488-1.584q.96-.56 2.128-.56M32.378 8.6q0-.992-.4-1.728a2.75 2.75 0 0 0-1.088-1.12 2.85 2.85 0 0 0-1.488-.4q-.816 0-1.488.384-.672.385-1.072 1.12t-.4 1.728q0 1.008.4 1.76a2.9 2.9 0 0 0 1.072 1.136q.672.384 1.488.384t1.488-.384a2.86 2.86 0 0 0 1.088-1.136q.4-.752.4-1.744m7.756 4.544a4.53 4.53 0 0 1-2.24-.56A4.07 4.07 0 0 1 36.326 11q-.56-1.04-.56-2.4 0-1.344.576-2.368a4 4 0 0 1 1.6-1.584q1.008-.56 2.256-.56t2.256.56q1.008.544 1.584 1.568.592 1.024.592 2.384t-.608 2.4a4.1 4.1 0 0 1-1.616 1.584q-1.024.56-2.272.56m0-1.28q.785 0 1.472-.368a2.75 2.75 0 0 0 1.104-1.104q.432-.736.432-1.792t-.416-1.792q-.416-.735-1.088-1.088a3 3 0 0 0-1.456-.368q-.8 0-1.472.368-.656.352-1.056 1.088t-.4 1.792q0 1.072.384 1.808.4.736 1.056 1.104.656.352 1.44.352m8.187-6.432V10.6q0 .64.272.912.27.255.943.256h1.072V13h-1.311q-1.217 0-1.825-.56t-.608-1.84V5.432h-1.136v-1.2h1.136V2.024h1.457v2.208h2.288v1.2zm15.87-1.2-5.28 12.896h-1.505l1.728-4.224-3.536-8.672h1.616l2.752 7.104 2.72-7.104zm5.287 8.912a4.53 4.53 0 0 1-2.24-.56A4.07 4.07 0 0 1 65.67 11q-.56-1.04-.56-2.4 0-1.344.576-2.368a4 4 0 0 1 1.6-1.584q1.008-.56 2.256-.56t2.256.56q1.008.544 1.584 1.568.591 1.024.592 2.384 0 1.36-.608 2.4a4.1 4.1 0 0 1-1.616 1.584q-1.024.56-2.272.56m0-1.28q.784 0 1.472-.368a2.75 2.75 0 0 0 1.104-1.104q.432-.736.432-1.792t-.416-1.792q-.416-.735-1.088-1.088a3 3 0 0 0-1.456-.368q-.8 0-1.472.368-.656.352-1.056 1.088t-.4 1.792q0 1.072.384 1.808.4.736 1.056 1.104.656.352 1.44.352m14.186-7.632V13h-1.456v-1.296q-.415.672-1.168 1.056a3.6 3.6 0 0 1-1.632.368q-1.024 0-1.84-.416a3.2 3.2 0 0 1-1.296-1.28q-.465-.848-.464-2.064V4.232h1.44v4.944q0 1.295.656 2 .657.688 1.792.688 1.168 0 1.84-.72t.672-2.096V4.232zm3.915 1.424q.383-.751 1.088-1.168.72-.416 1.744-.416v1.504h-.384q-2.448 0-2.448 2.656V13h-1.456V4.232h1.456zm10.234.192q.432-.752 1.28-1.248.864-.512 2-.512a4.06 4.06 0 0 1 2.112.56 3.9 3.9 0 0 1 1.504 1.584q.544 1.008.544 2.352 0 1.328-.544 2.368a4 4 0 0 1-1.504 1.616 3.97 3.97 0 0 1-2.112.576q-1.12 0-1.984-.496-.847-.512-1.296-1.264v5.776h-1.456V4.232h1.456zm5.952 2.736q0-.992-.4-1.728a2.75 2.75 0 0 0-1.088-1.12 2.95 2.95 0 0 0-1.488-.384 2.9 2.9 0 0 0-1.488.4q-.671.384-1.088 1.136-.4.735-.4 1.712 0 .992.4 1.744.416.736 1.088 1.136.689.384 1.488.384.816 0 1.488-.384a2.86 2.86 0 0 0 1.088-1.136q.4-.752.4-1.76m2.861 0q0-1.344.544-2.352a3.94 3.94 0 0 1 1.488-1.584 4.14 4.14 0 0 1 2.128-.56q1.151 0 2 .496.847.496 1.264 1.248v-1.6h1.472V13h-1.472v-1.632q-.432.768-1.296 1.28-.849.495-1.984.496a3.97 3.97 0 0 1-2.112-.576 4.03 4.03 0 0 1-1.488-1.616q-.544-1.04-.544-2.368m7.424.016q0-.992-.4-1.728a2.76 2.76 0 0 0-1.088-1.12 2.85 2.85 0 0 0-1.488-.4q-.816 0-1.488.384-.672.385-1.072 1.12t-.4 1.728q0 1.008.4 1.76.4.736 1.072 1.136.672.384 1.488.384t1.488-.384a2.87 2.87 0 0 0 1.088-1.136q.4-.752.4-1.744m7.036 4.544q-1.008 0-1.808-.336-.8-.352-1.264-.96a2.6 2.6 0 0 1-.512-1.424h1.504q.064.656.608 1.072.56.416 1.456.416.832 0 1.312-.368t.48-.928q0-.576-.512-.848-.511-.288-1.584-.56a13 13 0 0 1-1.6-.512 3.04 3.04 0 0 1-1.056-.784q-.432-.527-.432-1.376 0-.672.4-1.232t1.136-.88q.737-.336 1.68-.336 1.457 0 2.352.736.896.736.96 2.016h-1.456a1.5 1.5 0 0 0-.56-1.104q-.496-.416-1.344-.416-.784 0-1.248.336t-.464.88q0 .432.272.72.288.271.704.448.432.16 1.184.368.944.255 1.536.512.592.24 1.008.736.432.496.448 1.296 0 .72-.4 1.296t-1.136.912q-.72.32-1.664.32m8.359 0q-1.007 0-1.808-.336-.8-.352-1.264-.96a2.6 2.6 0 0 1-.512-1.424h1.504q.065.656.608 1.072.56.416 1.456.416.832 0 1.312-.368t.48-.928q0-.576-.512-.848-.512-.288-1.584-.56-.976-.255-1.6-.512a3.04 3.04 0 0 1-1.056-.784q-.432-.527-.432-1.376 0-.672.4-1.232t1.136-.88q.737-.336 1.68-.336 1.457 0 2.352.736.897.736.96 2.016h-1.456a1.5 1.5 0 0 0-.56-1.104q-.495-.416-1.344-.416-.783 0-1.248.336t-.464.88q0 .432.272.72.288.271.704.448.432.16 1.184.368.945.255 1.536.512.593.24 1.008.736.433.496.448 1.296 0 .72-.4 1.296t-1.136.912q-.72.32-1.664.32m16.936-8.912L143.645 13h-1.504l-2.112-6.96-2.112 6.96h-1.504l-2.752-8.768h1.488l2.016 7.36 2.176-7.36h1.488l2.128 7.376 1.984-7.376zm5.269 8.912a4.53 4.53 0 0 1-2.24-.56A4.07 4.07 0 0 1 147.842 11q-.56-1.04-.56-2.4 0-1.344.576-2.368a4 4 0 0 1 1.6-1.584q1.008-.56 2.256-.56t2.256.56q1.008.544 1.584 1.568.592 1.024.592 2.384t-.608 2.4a4.13 4.13 0 0 1-1.616 1.584q-1.024.56-2.272.56m0-1.28q.783 0 1.472-.368a2.76 2.76 0 0 0 1.104-1.104q.432-.736.432-1.792t-.416-1.792q-.416-.735-1.088-1.088a3 3 0 0 0-1.456-.368q-.8 0-1.472.368-.657.352-1.056 1.088-.4.736-.4 1.792 0 1.072.384 1.808.399.736 1.056 1.104.655.352 1.44.352m7.866-6.208a2.8 2.8 0 0 1 1.088-1.168q.72-.416 1.744-.416v1.504h-.384q-2.448 0-2.448 2.656V13h-1.456V4.232h1.456zm3.969 2.928q0-1.344.544-2.352a3.96 3.96 0 0 1 1.488-1.584 4.2 4.2 0 0 1 2.144-.56q1.024 0 1.904.48.88.464 1.344 1.232V1.16h1.472V13h-1.472v-1.648q-.432.784-1.28 1.296-.848.495-1.984.496a4.06 4.06 0 0 1-2.128-.576 4.05 4.05 0 0 1-1.488-1.616q-.544-1.04-.544-2.368m7.424.016q0-.992-.4-1.728a2.75 2.75 0 0 0-1.088-1.12 2.85 2.85 0 0 0-1.488-.4q-.816 0-1.488.384-.672.385-1.072 1.12t-.4 1.728q0 1.008.4 1.76.4.736 1.072 1.136.672.384 1.488.384t1.488-.384a2.86 2.86 0 0 0 1.088-1.136q.4-.752.4-1.744m6.78-6.896q1.585 0 2.56.896t.976 2.4q0 1.68-1.04 2.496-1.04.8-2.816.8l-.048 1.52h-1.264l-.064-2.528h.464q1.584 0 2.48-.48.897-.48.896-1.808 0-.96-.576-1.52t-1.552-.56q-.992 0-1.568.544-.56.528-.56 1.456h-1.376q0-.96.432-1.68.432-.736 1.216-1.136.8-.4 1.84-.4m-1.008 11.392a.96.96 0 0 1-.704-.288.96.96 0 0 1-.288-.704q0-.416.288-.704a.96.96 0 0 1 .704-.288q.4 0 .672.288a.96.96 0 0 1 .288.704.96.96 0 0 1-.288.704.89.89 0 0 1-.672.288"/><path fill="#002c4e" d="M0 14.6h181.993v.8H0z"/></svg>