<svg xmlns="http://www.w3.org/2000/svg" fill="none" viewBox="0 0 126 75"><path stroke="#84c12f" stroke-linecap="round" stroke-linejoin="round" stroke-width="2" d="M77 18c0-7.732-6.268-14-14-14s-14 6.268-14 14v12c0 7.732 6.268 14 14 14s14-6.268 14-14zM63 12v8"/><path fill="#002c4e" d="M4.34 74.098q-1.021 0-1.848-.35a3.03 3.03 0 0 1-1.288-1.008q-.475-.658-.49-1.554h2.1q.042.602.42.952.392.35 1.064.35.686 0 1.078-.322a1.09 1.09 0 0 0 .392-.868 1 1 0 0 0-.266-.714 1.8 1.8 0 0 0-.672-.434 9 9 0 0 0-1.092-.364 13 13 0 0 1-1.554-.546 2.9 2.9 0 0 1-1.022-.826q-.42-.56-.42-1.484 0-.868.434-1.512.434-.645 1.218-.98.784-.35 1.792-.35 1.512 0 2.45.742.952.728 1.05 2.044H5.53a1.09 1.09 0 0 0-.434-.826q-.391-.336-1.05-.336-.574 0-.924.294-.336.293-.336.854 0 .391.252.658.266.252.644.42.392.154 1.092.364.952.28 1.554.56t1.036.84.434 1.47q0 .784-.406 1.456-.405.672-1.19 1.078-.784.392-1.862.392m4.653-3.976q0-1.205.49-2.1a3.44 3.44 0 0 1 1.358-1.4q.869-.504 1.988-.504 1.443 0 2.38.728.953.714 1.274 2.016H14.37a1.5 1.5 0 0 0-.574-.784q-.392-.294-.98-.294-.84 0-1.33.616-.49.601-.49 1.722 0 1.105.49 1.722.49.602 1.33.602 1.191 0 1.554-1.064h2.114q-.322 1.26-1.274 2.002-.951.742-2.38.742-1.12 0-1.988-.49a3.56 3.56 0 0 1-1.358-1.4q-.49-.91-.49-2.114m10.886-2.674q.378-.616.98-.966.615-.35 1.4-.35v2.058h-.518q-.924 0-1.4.434-.462.434-.462 1.512V74h-1.96v-7.756h1.96zm7.144 6.678q-1.119 0-2.016-.49a3.7 3.7 0 0 1-1.414-1.414q-.504-.91-.504-2.1t.518-2.1a3.65 3.65 0 0 1 1.442-1.4 4.1 4.1 0 0 1 2.03-.504q1.12 0 2.03.504a3.55 3.55 0 0 1 1.428 1.4q.532.91.532 2.1t-.546 2.1a3.7 3.7 0 0 1-1.456 1.414q-.91.49-2.044.49m0-1.708q.532 0 .994-.252.477-.266.756-.784.28-.518.28-1.26 0-1.106-.588-1.694a1.88 1.88 0 0 0-1.414-.602q-.84 0-1.414.602-.56.588-.56 1.694t.546 1.708q.56.588 1.4.588m7.444-8.778V74h-1.96V63.64zm3.897 0V74h-1.96V63.64zm7.554 4.214v3.752q0 .392.182.574.195.168.644.168h.91V74h-1.232q-2.478 0-2.478-2.408v-3.738h-.924v-1.61h.924v-1.918h1.974v1.918h1.736v1.61zm6.59 6.272q-1.12 0-2.016-.49a3.7 3.7 0 0 1-1.414-1.414q-.504-.91-.504-2.1t.518-2.1a3.65 3.65 0 0 1 1.442-1.4 4.1 4.1 0 0 1 2.03-.504q1.12 0 2.03.504a3.55 3.55 0 0 1 1.428 1.4q.532.91.532 2.1t-.546 2.1a3.7 3.7 0 0 1-1.456 1.414q-.91.49-2.044.49m0-1.708q.532 0 .994-.252.476-.266.756-.784t.28-1.26q0-1.106-.588-1.694a1.88 1.88 0 0 0-1.414-.602q-.84 0-1.414.602-.56.588-.56 1.694t.546 1.708q.56.588 1.4.588M60.85 69.1q0-1.442.644-2.576a4.65 4.65 0 0 1 1.778-1.778q1.134-.644 2.534-.644 1.638 0 2.87.84t1.722 2.324h-2.254q-.336-.7-.952-1.05-.602-.35-1.4-.35-.854 0-1.526.406a2.74 2.74 0 0 0-1.036 1.12q-.364.728-.364 1.708 0 .966.364 1.708.379.728 1.036 1.134.672.392 1.526.392.798 0 1.4-.35.616-.364.952-1.064H70.4q-.489 1.498-1.722 2.338-1.218.825-2.87.826-1.4 0-2.534-.63a4.8 4.8 0 0 1-1.778-1.778q-.644-1.134-.644-2.576m14.666 5.026q-1.119 0-2.016-.49a3.7 3.7 0 0 1-1.414-1.414q-.504-.91-.504-2.1t.518-2.1a3.65 3.65 0 0 1 1.442-1.4 4.1 4.1 0 0 1 2.03-.504q1.12 0 2.03.504a3.55 3.55 0 0 1 1.428 1.4q.532.91.532 2.1t-.546 2.1a3.7 3.7 0 0 1-1.456 1.414q-.91.49-2.044.49m0-1.708q.532 0 .994-.252.477-.266.756-.784.28-.518.28-1.26 0-1.106-.588-1.694a1.88 1.88 0 0 0-1.414-.602q-.839 0-1.414.602-.56.588-.56 1.694t.546 1.708q.56.588 1.4.588m9.782-6.286q1.386 0 2.24.882.855.868.854 2.436V74h-1.96v-4.284q0-.924-.462-1.414-.462-.504-1.26-.504-.811 0-1.288.504-.462.49-.462 1.414V74h-1.96v-7.756h1.96v.966q.392-.504.994-.784a3.1 3.1 0 0 1 1.344-.294m7.24 1.722v3.752q0 .392.182.574.195.168.644.168h.91V74h-1.232q-2.478 0-2.478-2.408v-3.738h-.924v-1.61h.924v-1.918h1.974v1.918h1.736v1.61zm4.14-2.534q-.519 0-.868-.322a1.12 1.12 0 0 1-.336-.826q0-.49.336-.812.35-.336.868-.336t.854.336q.35.322.35.812a1.1 1.1 0 0 1-.35.826q-.336.322-.854.322m.966.924V74h-1.96v-7.756zm6.234-.112q1.386 0 2.24.882.855.868.854 2.436V74h-1.96v-4.284q0-.924-.462-1.414-.462-.504-1.26-.504-.811 0-1.288.504-.462.49-.462 1.414V74h-1.96v-7.756h1.96v.966q.393-.504.994-.784a3.1 3.1 0 0 1 1.344-.294m12.28.112V74h-1.974v-.98a2.63 2.63 0 0 1-.994.798 3.1 3.1 0 0 1-1.316.28q-.91 0-1.61-.378a2.8 2.8 0 0 1-1.106-1.134q-.392-.756-.392-1.792v-4.55h1.96v4.27q0 .924.462 1.428.462.49 1.26.49.812 0 1.274-.49.462-.504.462-1.428v-4.27zm9.144 3.71q0 .42-.056.756h-5.67q.07.84.588 1.316t1.274.476q1.092 0 1.554-.938h2.114a3.57 3.57 0 0 1-1.288 1.848q-.952.714-2.338.714-1.12 0-2.016-.49a3.6 3.6 0 0 1-1.386-1.414q-.49-.91-.49-2.1 0-1.204.49-2.114a3.4 3.4 0 0 1 1.372-1.4q.882-.49 2.03-.49 1.106 0 1.974.476.882.476 1.358 1.358.49.868.49 2.002m-2.03-.56q-.013-.756-.546-1.204-.532-.462-1.302-.462-.728 0-1.232.448-.49.434-.602 1.218z"/></svg>