<svg xmlns="http://www.w3.org/2000/svg" fill="none" viewBox="0 0 736 140"><rect width="140" height="140" fill="url(#a)" rx="70"/><path fill="#002c4e" d="M49.512 22.719h2.74l3.671 8.958h.145l3.67-8.958h2.741v12.363H60.33v-8.494h-.114l-3.417 8.458h-1.606l-3.417-8.476h-.115v8.512h-2.149zm18.674 12.544q-1.358 0-2.354-.597a4.06 4.06 0 0 1-1.545-1.672q-.544-1.075-.544-2.512t.544-2.517a4.05 4.05 0 0 1 1.545-1.678q.996-.598 2.355-.598t2.354.598a4 4 0 0 1 1.54 1.678q.548 1.08.549 2.517 0 1.437-.55 2.511a4 4 0 0 1-1.54 1.673q-.995.597-2.354.597m.012-1.75q.738 0 1.232-.405.495-.41.737-1.098.247-.689.247-1.534 0-.85-.247-1.54-.242-.693-.737-1.104-.494-.41-1.232-.41-.754 0-1.255.41-.495.41-.743 1.105a4.6 4.6 0 0 0-.241 1.54q0 .845.241 1.533.248.688.743 1.098.5.405 1.255.405m12.935-5.252-1.992.217a1.6 1.6 0 0 0-.296-.568 1.5 1.5 0 0 0-.555-.428q-.351-.163-.857-.163-.682 0-1.147.296-.459.295-.453.766a.8.8 0 0 0 .296.658q.308.254 1.014.417l1.582.338q1.316.284 1.956.9.645.615.652 1.611a2.52 2.52 0 0 1-.514 1.546q-.501.664-1.394 1.038-.894.374-2.053.374-1.702 0-2.74-.712-1.039-.719-1.238-1.998l2.131-.206q.145.63.616.948.47.32 1.225.32.78 0 1.25-.32.477-.32.477-.79a.82.82 0 0 0-.308-.659q-.302-.259-.942-.398l-1.582-.332q-1.334-.277-1.974-.936-.639-.664-.633-1.678-.007-.857.464-1.485.478-.634 1.323-.978.85-.35 1.962-.35 1.629 0 2.565.694.942.694 1.165 1.878m5.952-2.451v1.69h-5.33v-1.69zm-4.015-2.222h2.186v8.705q0 .442.132.676a.72.72 0 0 0 .363.314q.223.085.495.085.205 0 .374-.03.175-.03.266-.055l.368 1.709q-.175.06-.501.133a4 4 0 0 1-.785.084 3.6 3.6 0 0 1-1.479-.248 2.3 2.3 0 0 1-1.044-.857q-.381-.579-.375-1.449zM14.648 53.082h-2.39L16.61 40.72h2.765l4.359 12.363h-2.39l-3.303-9.828h-.096zm.079-4.847h6.52v1.799h-6.52zm10.61 4.847-2.62-9.272h2.228l1.63 6.52h.085l1.666-6.52h2.203l1.666 6.483h.091l1.606-6.483h2.233L33.5 53.082h-2.276l-1.738-6.266h-.127l-1.739 6.266zm14.303.187a3.9 3.9 0 0 1-1.588-.313 2.6 2.6 0 0 1-1.11-.942q-.405-.622-.405-1.534 0-.784.29-1.298.29-.513.79-.82.5-.308 1.13-.465.632-.164 1.31-.236.814-.085 1.321-.15.507-.074.737-.218.235-.15.235-.465v-.036q0-.682-.404-1.057-.405-.374-1.165-.374-.803 0-1.274.35-.466.351-.628.827l-2.04-.29a3.26 3.26 0 0 1 .796-1.412q.555-.574 1.359-.857a5.2 5.2 0 0 1 1.775-.29q.67 0 1.334.157.663.157 1.213.519.55.355.881.972.339.615.339 1.54v6.205h-2.101V51.81h-.073a2.7 2.7 0 0 1-.561.724q-.357.332-.9.537-.537.2-1.261.2m.567-1.605q.659 0 1.141-.26.483-.265.743-.7.265-.435.265-.948v-1.093a1 1 0 0 1-.35.157q-.24.072-.543.127-.302.054-.598.097l-.513.072a3.8 3.8 0 0 0-.875.217q-.387.151-.61.423-.223.265-.223.688 0 .604.44.912t1.123.308m5.846 1.418V43.81h2.119v1.545h.097q.253-.803.869-1.238.621-.44 1.419-.44.18 0 .404.018.23.012.38.042v2.01a2.3 2.3 0 0 0-.44-.084 4 4 0 0 0-.574-.042q-.597 0-1.074.26a1.9 1.9 0 0 0-.743.706 2 2 0 0 0-.272 1.044v5.451zm9.12.163q-1.093 0-1.956-.561-.863-.562-1.365-1.63-.5-1.069-.5-2.596 0-1.545.506-2.608.513-1.069 1.383-1.612a3.55 3.55 0 0 1 1.938-.55q.815 0 1.34.279.525.27.833.657.307.38.477.719h.09v-4.624h2.192v12.363h-2.15v-1.46h-.132a3.7 3.7 0 0 1-.49.718q-.32.375-.844.64-.525.265-1.323.265m.61-1.793q.693 0 1.182-.374.49-.381.743-1.056.254-.676.254-1.576 0-.899-.254-1.564-.247-.663-.736-1.032-.483-.368-1.19-.368-.73 0-1.22.38-.487.381-.736 1.05-.247.67-.247 1.534 0 .87.247 1.551.255.676.743 1.069.495.387 1.213.386m12.212 1.63-3.49-12.363h2.41l2.227 9.085h.114l2.379-9.085h2.191l2.385 9.091h.109l2.227-9.091h2.409l-3.49 12.363h-2.209l-2.475-8.675h-.097l-2.48 8.675zm13.737 0V43.81h2.186v9.272zm1.1-10.589q-.52 0-.894-.344a1.1 1.1 0 0 1-.375-.839q0-.495.375-.839.374-.35.893-.35.525 0 .894.35.374.345.374.84 0 .488-.374.838-.369.344-.894.344m4.838 5.156v5.433h-2.185V43.81h2.089v1.575h.109a2.65 2.65 0 0 1 1.02-1.237q.706-.46 1.744-.46.96 0 1.673.411.718.41 1.11 1.19.399.778.393 1.89v5.903h-2.186v-5.566q0-.93-.483-1.455-.476-.525-1.322-.525a2.03 2.03 0 0 0-1.02.254 1.76 1.76 0 0 0-.694.718q-.248.47-.248 1.141m9.68 0v5.433h-2.186V43.81h2.09v1.575h.108a2.65 2.65 0 0 1 1.02-1.237q.706-.46 1.745-.46.96 0 1.672.411.718.41 1.111 1.19.398.778.392 1.89v5.903h-2.185v-5.566q0-.93-.483-1.455-.477-.525-1.322-.525a2.03 2.03 0 0 0-1.02.254 1.76 1.76 0 0 0-.695.718q-.247.47-.247 1.141m7.494 5.433V43.81h2.185v9.272zm1.099-10.589q-.52 0-.894-.344a1.1 1.1 0 0 1-.374-.839q0-.495.374-.839.374-.35.894-.35.524 0 .893.35.374.345.374.84 0 .488-.374.838-.369.344-.893.344m4.839 5.156v5.433h-2.186V43.81h2.089v1.575h.109q.32-.778 1.02-1.237.707-.46 1.745-.46.96 0 1.672.411.718.41 1.111 1.19.398.778.392 1.89v5.903h-2.185v-5.566q0-.93-.483-1.455-.477-.525-1.322-.525-.575 0-1.02.254a1.76 1.76 0 0 0-.695.718q-.247.47-.247 1.141m11.526 9.104q-1.176 0-2.022-.32-.845-.315-1.358-.845a2.9 2.9 0 0 1-.713-1.178l1.968-.476q.134.27.387.537.253.27.682.447.435.18 1.093.18.93 0 1.539-.452.61-.447.61-1.473v-1.757h-.109a3.1 3.1 0 0 1-.495.694 2.5 2.5 0 0 1-.851.598q-.525.242-1.322.242a3.8 3.8 0 0 1-1.938-.502q-.863-.506-1.376-1.509-.508-1.008-.508-2.523 0-1.527.508-2.578.512-1.056 1.382-1.6a3.56 3.56 0 0 1 1.938-.55q.815 0 1.34.279.531.27.845.657.314.38.477.719h.121v-1.534h2.155v9.424q0 1.19-.567 1.968-.568.78-1.552 1.165-.983.387-2.234.387m.019-5.518q.694 0 1.183-.338t.742-.972q.254-.635.254-1.521 0-.876-.254-1.534-.247-.657-.736-1.02-.484-.368-1.189-.368-.73 0-1.22.38-.489.381-.736 1.044a4.2 4.2 0 0 0-.248 1.498q0 .85.248 1.49.253.634.742.99.495.351 1.214.351"/><path fill="#fff" d="M24.73 79.861q-.08-.744-.671-1.159-.585-.414-1.523-.415-.66 0-1.13.2-.472.198-.722.54a1.3 1.3 0 0 0-.256.778q0 .363.165.63.17.267.46.455.29.18.642.307.353.124.71.21l1.091.273q.66.153 1.268.414.613.262 1.096.66.488.397.773.96t.284 1.318q0 1.023-.523 1.8-.522.774-1.511 1.211-.984.432-2.38.432-1.359 0-2.359-.42-.994-.42-1.557-1.228-.556-.807-.602-1.966h2.074q.045.609.375 1.012.33.404.858.602a3.4 3.4 0 0 0 1.193.199q.687 0 1.205-.205.521-.21.818-.58.295-.374.3-.874-.005-.454-.266-.75-.261-.302-.733-.5a7 7 0 0 0-1.091-.364l-1.324-.34q-1.437-.37-2.273-1.12-.83-.755-.83-2.006 0-1.028.558-1.8.562-.774 1.528-1.2.966-.432 2.188-.432 1.238 0 2.17.432.938.426 1.472 1.188.534.755.55 1.738zm9.538 4.767v-5.056h2.057v8.727H34.33v-1.551h-.09q-.297.732-.972 1.199-.67.465-1.654.465-.857 0-1.517-.38a2.65 2.65 0 0 1-1.022-1.12q-.37-.738-.37-1.784v-5.556h2.057v5.238q0 .83.455 1.318.454.489 1.193.489.454 0 .88-.222a1.8 1.8 0 0 0 .7-.659q.278-.442.278-1.108m4.172 6.944v-12h2.022v1.443h.12q.159-.319.449-.676.29-.365.784-.62.495-.261 1.261-.261 1.011 0 1.824.517.818.511 1.295 1.517.483 1 .483 2.455 0 1.437-.471 2.443-.472 1.005-1.284 1.534a3.3 3.3 0 0 1-1.841.528q-.75 0-1.245-.25a2.5 2.5 0 0 1-.795-.602 4 4 0 0 1-.46-.676h-.086v4.648zm2.017-7.637q0 .847.238 1.483.244.636.7.994.459.353 1.113.353.681 0 1.142-.364.46-.369.693-1.006.24-.642.239-1.46a4.2 4.2 0 0 0-.233-1.443q-.234-.63-.693-.989-.46-.358-1.148-.358-.66 0-1.12.347-.46.346-.698.972-.234.624-.233 1.471m11.846 4.534q-1.312 0-2.267-.545a3.7 3.7 0 0 1-1.46-1.557q-.51-1.012-.511-2.38 0-1.347.511-2.364a3.87 3.87 0 0 1 1.443-1.591q.927-.574 2.176-.574.807 0 1.523.261.721.256 1.273.796.557.54.875 1.375.318.83.318 1.977v.63H49.03v-1.386h5.181a2.2 2.2 0 0 0-.255-1.05 1.86 1.86 0 0 0-.7-.734 1.97 1.97 0 0 0-1.033-.267q-.63 0-1.108.307-.477.3-.745.795a2.3 2.3 0 0 0-.267 1.074v1.21q0 .762.279 1.307.278.54.778.83.501.285 1.17.284.45 0 .813-.125.365-.13.63-.38.268-.25.404-.62l1.92.216q-.181.761-.692 1.33a3.4 3.4 0 0 1-1.296.874q-.79.307-1.807.307m5.621-.17v-8.727h1.994v1.454h.091q.24-.756.818-1.165.585-.414 1.336-.414.17 0 .38.017.217.01.358.04v1.891a2 2 0 0 0-.415-.08 4 4 0 0 0-.54-.039 2.1 2.1 0 0 0-1.01.244q-.444.24-.7.665t-.255.983v5.13zm18.199-7.92a3 3 0 0 0-.392-.825 2.5 2.5 0 0 0-.591-.63 2.4 2.4 0 0 0-.784-.392 3.3 3.3 0 0 0-.966-.137 3 3 0 0 0-1.67.472q-.734.471-1.154 1.386-.414.91-.415 2.216 0 1.319.415 2.233t1.153 1.392q.74.472 1.716.472.887 0 1.534-.341.654-.341 1.006-.966.352-.63.352-1.477l.478.074h-3.16v-1.648h4.722v1.398q0 1.494-.636 2.585a4.35 4.35 0 0 1-1.75 1.682q-1.114.585-2.557.585-1.608 0-2.824-.722-1.21-.727-1.892-2.062-.676-1.341-.676-3.182 0-1.41.398-2.517.404-1.109 1.125-1.88a4.8 4.8 0 0 1 1.693-1.183 5.4 5.4 0 0 1 2.114-.409q.965 0 1.8.284.836.279 1.484.796.653.517 1.073 1.227t.552 1.568zm4.192 7.92v-8.727h1.994v1.454h.09q.24-.756.819-1.165.585-.414 1.335-.414.17 0 .38.017.217.01.359.04v1.891a2 2 0 0 0-.415-.08 4 4 0 0 0-.54-.039 2.1 2.1 0 0 0-1.011.244q-.443.24-.699.665t-.256.983v5.13zm9.848.17q-1.313 0-2.267-.545a3.7 3.7 0 0 1-1.46-1.557q-.513-1.012-.512-2.38 0-1.347.511-2.364a3.87 3.87 0 0 1 1.444-1.591q.925-.574 2.176-.574.807 0 1.522.261.722.256 1.273.796.557.54.875 1.375.318.83.318 1.977v.63H86.89v-1.386h5.182a2.2 2.2 0 0 0-.256-1.05 1.86 1.86 0 0 0-.699-.734 1.97 1.97 0 0 0-1.034-.267q-.63 0-1.108.307-.477.3-.744.795a2.3 2.3 0 0 0-.267 1.074v1.21q0 .762.278 1.307.279.54.779.83.5.285 1.17.284.45 0 .813-.125.363-.13.63-.38t.404-.62l1.92.216q-.181.761-.693 1.33a3.4 3.4 0 0 1-1.296.874q-.789.307-1.806.307m9.484 0q-1.312 0-2.267-.545a3.7 3.7 0 0 1-1.46-1.557q-.512-1.012-.512-2.38 0-1.347.512-2.364a3.87 3.87 0 0 1 1.443-1.591q.926-.574 2.176-.574.807 0 1.523.261.721.256 1.273.796.556.54.875 1.375.318.83.318 1.977v.63h-7.154v-1.386h5.182a2.2 2.2 0 0 0-.256-1.05 1.86 1.86 0 0 0-.698-.734 1.97 1.97 0 0 0-1.035-.267q-.63 0-1.107.307-.478.3-.745.795a2.3 2.3 0 0 0-.267 1.074v1.21q0 .762.279 1.307.278.54.778.83.5.285 1.17.284.45 0 .813-.125.363-.13.631-.38.267-.25.403-.62l1.92.216a3 3 0 0 1-.693 1.33 3.4 3.4 0 0 1-1.295.874q-.79.307-1.807.307m7.678-5.284V88.3h-2.057v-8.727h1.966v1.483h.102q.302-.734.96-1.165.665-.432 1.642-.432.903 0 1.574.386.676.387 1.046 1.12.375.732.369 1.778v5.557h-2.057V83.06q0-.875-.455-1.37-.449-.493-1.244-.493-.54 0-.96.238a1.65 1.65 0 0 0-.653.676q-.233.444-.233 1.074m14.59-1.307-1.875.205a1.5 1.5 0 0 0-.278-.534 1.4 1.4 0 0 0-.523-.404q-.329-.153-.806-.153-.643 0-1.08.278-.432.28-.426.722a.76.76 0 0 0 .278.62q.29.238.955.391l1.488.319q1.24.267 1.841.846.609.58.614 1.517a2.38 2.38 0 0 1-.483 1.455q-.471.624-1.312.977-.842.352-1.932.352-1.602 0-2.58-.67-.977-.676-1.165-1.88l2.006-.194q.136.59.58.892.443.3 1.153.301.734 0 1.176-.301.449-.3.449-.744a.78.78 0 0 0-.29-.62q-.284-.243-.886-.375l-1.489-.312q-1.255-.262-1.858-.88-.602-.627-.596-1.58-.006-.807.437-1.398.449-.597 1.245-.92.8-.33 1.846-.33 1.534 0 2.415.653.886.654 1.096 1.767m-91.17 15.983q-.08-.744-.67-1.159-.585-.414-1.523-.415-.66 0-1.13.2-.473.198-.722.54a1.3 1.3 0 0 0-.256.778q0 .363.165.63.17.267.46.455.29.18.642.307.353.124.71.21l1.091.273q.66.153 1.267.414.614.262 1.097.659.489.399.772.961t.284 1.318q0 1.023-.522 1.801-.523.772-1.512 1.21-.982.432-2.38.432-1.358 0-2.358-.42-.995-.421-1.557-1.228-.557-.807-.602-1.966h2.074q.045.609.375 1.012t.858.602q.534.2 1.193.199.688 0 1.204-.205.524-.21.818-.579a1.4 1.4 0 0 0 .302-.875q-.006-.454-.267-.75-.262-.302-.733-.5a7 7 0 0 0-1.091-.364l-1.324-.341q-1.438-.369-2.273-1.12-.83-.754-.83-2.005 0-1.028.557-1.8.563-.774 1.529-1.2.966-.432 2.187-.432 1.24 0 2.17.432.939.426 1.472 1.188a3.03 3.03 0 0 1 .551 1.738zm9.538 4.767v-5.056h2.057v8.727h-1.994v-1.551h-.091a2.63 2.63 0 0 1-.972 1.199q-.67.465-1.653.465-.858 0-1.517-.38a2.65 2.65 0 0 1-1.023-1.12q-.37-.738-.37-1.784v-5.556h2.058v5.238q0 .83.454 1.318.455.489 1.193.489.455 0 .881-.222.426-.22.699-.659.279-.442.278-1.108m4.172 6.944v-12h2.023v1.443h.12q.158-.319.448-.676a2.4 2.4 0 0 1 .784-.62q.495-.261 1.262-.261 1.011 0 1.824.517.818.511 1.295 1.517.483 1 .483 2.455 0 1.437-.472 2.443-.471 1.005-1.284 1.534a3.3 3.3 0 0 1-1.84.528q-.75 0-1.245-.25a2.5 2.5 0 0 1-.796-.602 4 4 0 0 1-.46-.676h-.085v4.648zm2.017-7.637q0 .847.239 1.483.245.637.699.994.46.353 1.113.353.683 0 1.142-.364.46-.369.694-1.006.238-.641.238-1.46 0-.812-.233-1.443-.233-.63-.693-.989-.46-.358-1.148-.358-.659 0-1.119.347-.46.346-.699.972-.233.624-.233 1.471m7.983 7.637v-12h2.023v1.443h.12q.158-.319.448-.676a2.4 2.4 0 0 1 .784-.62q.495-.261 1.262-.261 1.011 0 1.824.517.818.511 1.295 1.517.483 1 .483 2.455 0 1.437-.472 2.443-.471 1.005-1.284 1.534a3.3 3.3 0 0 1-1.84.528q-.75 0-1.245-.25a2.5 2.5 0 0 1-.796-.602 4 4 0 0 1-.46-.676h-.085v4.648zm2.017-7.637q0 .847.239 1.483.245.637.699.994.46.353 1.113.353.683 0 1.142-.364.46-.369.694-1.006.238-.641.238-1.46 0-.812-.233-1.443-.233-.63-.693-.989-.46-.358-1.148-.358-.659 0-1.119.347-.46.346-.699.972-.233.624-.233 1.471m10.04-7.273V106.3h-2.057V94.662zm5.979 11.807q-1.312 0-2.267-.545a3.7 3.7 0 0 1-1.46-1.557q-.512-1.011-.512-2.381 0-1.346.511-2.363a3.87 3.87 0 0 1 1.444-1.591q.926-.574 2.176-.574.806 0 1.523.261.72.256 1.272.796.557.54.875 1.375.318.83.318 1.977v.631h-7.153v-1.387H74.4a2.2 2.2 0 0 0-.256-1.051 1.86 1.86 0 0 0-.699-.733 1.97 1.97 0 0 0-1.034-.267q-.63 0-1.108.307-.477.3-.744.795a2.3 2.3 0 0 0-.267 1.074v1.211q0 .761.278 1.306.279.54.779.83.5.284 1.17.284.45 0 .813-.125.363-.13.63-.381.267-.25.404-.619l1.92.216a3 3 0 0 1-.693 1.329 3.4 3.4 0 0 1-1.295.875q-.791.307-1.807.307m5.62-.17v-8.727h1.966v1.483h.103q.272-.75.903-1.17.63-.427 1.506-.427.886 0 1.494.432.614.426.864 1.165h.09q.291-.728.978-1.16.694-.437 1.642-.437 1.204 0 1.966.761.76.761.761 2.222v5.858h-2.062v-5.54q0-.812-.432-1.187a1.54 1.54 0 0 0-1.057-.381q-.744 0-1.165.466-.414.46-.414 1.199v5.443h-2.017v-5.625q0-.676-.41-1.08-.403-.403-1.056-.403-.444 0-.807.227a1.6 1.6 0 0 0-.58.631 2 2 0 0 0-.216.943v5.307zm18.224.17q-1.313 0-2.267-.545a3.7 3.7 0 0 1-1.46-1.557q-.512-1.011-.512-2.381 0-1.346.511-2.363a3.87 3.87 0 0 1 1.443-1.591q.927-.574 2.177-.574.806 0 1.522.261.722.256 1.273.796.557.54.875 1.375.318.83.318 1.977v.631h-7.153v-1.387h5.182a2.2 2.2 0 0 0-.256-1.051 1.86 1.86 0 0 0-.699-.733 1.97 1.97 0 0 0-1.034-.267q-.63 0-1.108.307-.477.3-.744.795a2.3 2.3 0 0 0-.267 1.074v1.211q0 .761.278 1.306.279.54.778.83.501.284 1.17.284.45 0 .813-.125.364-.13.631-.381.267-.25.404-.619l1.92.216a3 3 0 0 1-.693 1.329 3.4 3.4 0 0 1-1.296.875q-.79.307-1.806.307m7.677-5.284v5.114h-2.057v-8.727h1.966v1.483h.102q.301-.734.961-1.165.664-.432 1.642-.432.903 0 1.574.386.676.387 1.045 1.12.375.732.369 1.778v5.557h-2.056v-5.239q0-.875-.455-1.37-.449-.493-1.244-.493-.54 0-.961.238-.414.233-.653.676-.233.444-.233 1.074m12.051-3.613v1.59h-5.017v-1.59zm-3.778-2.091h2.057v8.193q0 .414.125.636.13.216.341.296.21.08.465.079.194 0 .353-.028.165-.028.25-.051l.346 1.608q-.165.056-.471.125a4 4 0 0 1-.739.079 3.35 3.35 0 0 1-1.392-.233 2.16 2.16 0 0 1-.983-.807q-.358-.545-.352-1.363z"/><path stroke="#96fff8" stroke-width="1.162" d="M9.632 64.401h50.355"/><path fill="#96fff8" d="m70 58.843 1.379 4.242h4.46l-3.608 2.622 1.378 4.242-3.608-2.622-3.61 2.622 1.38-4.242-3.61-2.622h4.461z"/><path stroke="#96fff8" stroke-width="1.162" d="M80.014 64.401h50.354"/><rect width="140" height="140" x="164" fill="url(#b)" rx="70"/><mask id="d" fill="#fff"><path d="M177 50.908h114v40H177z"/></mask><path fill="url(#c)" d="M177 50.908v1.498h114V49.41H177zm114 40v-1.497H177v2.995h114z" mask="url(#d)"/><path fill="#002c4e" d="M178.99 78.908v-16h6q1.845 0 3.094.688 1.258.687 1.899 1.89.648 1.195.648 2.72 0 1.538-.648 2.733-.65 1.196-1.914 1.883-1.266.68-3.118.68h-3.976v-2.383h3.586q1.077 0 1.765-.375t1.016-1.031q.336-.656.336-1.508t-.336-1.5a2.3 2.3 0 0 0-1.023-1.008q-.688-.367-1.774-.367h-2.656v13.578zm13.374 0v-12h2.742v2h.125q.328-1.038 1.125-1.601a3.1 3.1 0 0 1 1.836-.57q.234 0 .523.023.297.015.492.054v2.602a3 3 0 0 0-.57-.11 5 5 0 0 0-.742-.054q-.773 0-1.391.336a2.46 2.46 0 0 0-.961.914q-.351.585-.351 1.352v7.054zm12.803.235q-1.758 0-3.047-.774a5.25 5.25 0 0 1-2-2.164q-.703-1.39-.703-3.25t.703-3.258q.71-1.398 2-2.172 1.289-.773 3.047-.773 1.757 0 3.046.773 1.29.774 1.993 2.172.711 1.4.711 3.258 0 1.86-.711 3.25a5.2 5.2 0 0 1-1.993 2.164q-1.289.774-3.046.774m.015-2.266q.954 0 1.594-.523.64-.532.953-1.422.32-.891.32-1.985 0-1.101-.32-1.992-.312-.898-.953-1.43-.64-.53-1.594-.53-.977 0-1.625.53-.64.532-.961 1.43-.312.891-.312 1.992 0 1.094.312 1.985.32.89.961 1.421.648.524 1.625.524m7.475 6.531v-16.5h2.781v1.985h.164q.22-.438.617-.93.398-.5 1.079-.852.68-.36 1.734-.359 1.39 0 2.508.71 1.124.705 1.781 2.087.664 1.374.664 3.375 0 1.976-.648 3.36-.649 1.381-1.766 2.109-1.118.726-2.531.726-1.032 0-1.711-.344-.68-.343-1.094-.828a5.4 5.4 0 0 1-.633-.93h-.117v6.391zm2.773-10.5q0 1.164.328 2.04.336.874.961 1.367.633.483 1.532.484.937 0 1.57-.5.633-.508.953-1.383.328-.882.328-2.008 0-1.117-.32-1.984t-.953-1.36-1.578-.492q-.907 0-1.539.477-.633.476-.961 1.336-.321.86-.321 2.023m10.317 6v-12h2.742v2h.125q.328-1.038 1.125-1.601a3.1 3.1 0 0 1 1.836-.57q.235 0 .523.023.297.015.493.054v2.602a3 3 0 0 0-.571-.11 5 5 0 0 0-.742-.054q-.773 0-1.39.336a2.45 2.45 0 0 0-.961.914q-.352.585-.352 1.352v7.054zm8.063 0v-12h2.828v12zm1.421-13.703q-.671 0-1.156-.445a1.44 1.44 0 0 1-.484-1.086q0-.641.484-1.086a1.64 1.64 0 0 1 1.156-.453q.68 0 1.157.453.484.446.484 1.086 0 .633-.484 1.086a1.63 1.63 0 0 1-1.157.445m8.967 13.938q-1.804 0-3.117-.75a5.1 5.1 0 0 1-2.008-2.141q-.702-1.39-.703-3.273 0-1.852.703-3.25.711-1.407 1.985-2.188 1.273-.789 2.992-.789 1.11 0 2.094.36a4.74 4.74 0 0 1 1.75 1.093q.765.742 1.203 1.89.437 1.141.437 2.72v.867h-9.836v-1.907h7.125a3.04 3.04 0 0 0-.351-1.445 2.56 2.56 0 0 0-.961-1.008q-.609-.367-1.422-.367-.867 0-1.523.422-.657.413-1.024 1.094-.359.672-.367 1.476v1.664q0 1.047.383 1.797.383.743 1.07 1.14.688.391 1.609.391.618 0 1.118-.171.5-.18.867-.524.368-.344.555-.851l2.64.296a4.1 4.1 0 0 1-.953 1.829q-.695.772-1.781 1.203-1.086.422-2.485.422m13.061-12.235v2.188h-6.898v-2.188zm-5.195-2.875h2.828V75.3q0 .57.172.875.18.297.469.406.288.11.64.11.266 0 .485-.04.226-.04.343-.07l.477 2.211q-.226.078-.649.172a5.3 5.3 0 0 1-1.015.11q-1.064.03-1.914-.321a2.98 2.98 0 0 1-1.352-1.11q-.492-.75-.484-1.874zm10.353 15.117q-1.14 0-2.054-.406a3.36 3.36 0 0 1-1.438-1.219q-.523-.804-.523-1.984 0-1.016.375-1.68T259.8 72.8a5.2 5.2 0 0 1 1.461-.602q.82-.21 1.696-.304a66 66 0 0 0 1.71-.196q.657-.093.954-.281.304-.195.304-.602v-.046q0-.884-.523-1.368-.524-.484-1.508-.484-1.04 0-1.648.453-.602.453-.813 1.07l-2.641-.374q.314-1.095 1.032-1.829a4.5 4.5 0 0 1 1.758-1.109q1.039-.375 2.296-.375.868 0 1.727.203t1.57.672q.71.461 1.141 1.258.438.797.437 1.992v8.031h-2.718V77.26h-.094a3.5 3.5 0 0 1-.727.937 3.5 3.5 0 0 1-1.164.696q-.695.257-1.633.257m.735-2.078q.852 0 1.476-.336.625-.343.961-.906a2.3 2.3 0 0 0 .344-1.227V73.19q-.133.108-.453.203a6 6 0 0 1-.703.164q-.39.07-.774.125l-.664.093a5 5 0 0 0-1.132.282q-.5.195-.79.546-.288.345-.289.891 0 .781.571 1.18.57.398 1.453.398m7.785 1.836v-12h2.742v2h.125q.329-1.038 1.125-1.601a3.1 3.1 0 0 1 1.836-.57q.235 0 .524.023.297.015.492.054v2.602a3 3 0 0 0-.57-.11 5 5 0 0 0-.743-.054q-.773 0-1.39.336a2.46 2.46 0 0 0-.961.914q-.352.585-.352 1.352v7.054zm10.186 4.5q-.579 0-1.07-.094a4 4 0 0 1-.774-.203l.656-2.203q.618.18 1.102.172t.851-.305q.375-.288.633-.968l.242-.649-4.351-12.25h3l2.766 9.063h.125l2.773-9.063h3.008l-4.805 13.453a5.4 5.4 0 0 1-.891 1.633 3.6 3.6 0 0 1-1.359 1.047q-.797.367-1.906.367M233.826 25.165v16h-2.219l-8.132-11.734h-.149v11.734h-2.414v-16h2.234l8.141 11.75h.149v-11.75zm8.389 16.242q-1.688 0-2.945-.773-1.258-.774-1.954-2.164-.695-1.39-.695-3.25 0-1.868.695-3.266.696-1.398 1.954-2.172 1.257-.773 2.945-.773t2.945.773q1.258.774 1.953 2.172t.696 3.266q0 1.86-.696 3.25-.695 1.39-1.953 2.164-1.257.773-2.945.773m.008-1.96q1.094 0 1.812-.579.718-.578 1.063-1.539a6.1 6.1 0 0 0 .351-2.117q0-1.149-.351-2.11-.345-.968-1.063-1.554-.719-.585-1.812-.586-1.102 0-1.828.586-.72.585-1.071 1.555a6.2 6.2 0 0 0-.344 2.109q0 1.155.344 2.117.352.96 1.071 1.54.726.577 1.828.577M199.758 114.835v-16h5.859q1.704 0 2.82.563 1.118.555 1.672 1.507.555.945.555 2.133 0 1-.367 1.688a3 3 0 0 1-.985 1.093 4.3 4.3 0 0 1-1.343.594v.156q.796.039 1.554.516.766.469 1.266 1.336t.5 2.109q0 1.227-.578 2.203-.57.969-1.766 1.539-1.195.563-3.054.563zm2.414-2.07h3.484q1.734 0 2.485-.672t.75-1.68a2.64 2.64 0 0 0-.383-1.391 2.74 2.74 0 0 0-1.094-1.007q-.703-.375-1.672-.375h-3.57zm0-7.008h3.234q.813 0 1.461-.313a2.55 2.55 0 0 0 1.039-.875q.391-.57.391-1.343 0-.993-.695-1.664-.696-.672-2.133-.672h-3.297zm14.129-6.922v16h-2.336v-16zm8.314 16.242q-1.773 0-3.054-.758a5.13 5.13 0 0 1-1.969-2.148q-.688-1.39-.688-3.258 0-1.843.688-3.25.695-1.406 1.937-2.195 1.251-.789 2.922-.789a5.9 5.9 0 0 1 1.969.336 4.8 4.8 0 0 1 1.711 1.054q.758.72 1.195 1.868.438 1.14.438 2.773v.828h-9.539v-1.75h7.25q0-.922-.375-1.633a2.85 2.85 0 0 0-1.055-1.133q-.672-.414-1.578-.414-.984 0-1.719.485a3.25 3.25 0 0 0-1.125 1.25 3.6 3.6 0 0 0-.391 1.664v1.367q0 1.203.422 2.047.43.843 1.196 1.289.765.438 1.789.437a3.7 3.7 0 0 0 1.211-.187q.546-.195.945-.578t.609-.945l2.211.398a4 4 0 0 1-.953 1.711q-.68.726-1.711 1.133-1.023.398-2.336.398m10.076-7.367v7.125h-2.336v-12h2.243v1.953h.148a3.43 3.43 0 0 1 1.297-1.531q.89-.578 2.242-.578 1.227 0 2.149.515.922.508 1.429 1.516.508 1.008.508 2.492v7.633h-2.336v-7.352q0-1.304-.68-2.039-.68-.742-1.867-.742-.812 0-1.445.352a2.53 2.53 0 0 0-.992 1.031q-.36.672-.36 1.625m15.305 7.359q-1.453 0-2.594-.742-1.133-.75-1.781-2.133-.64-1.39-.641-3.336 0-1.945.649-3.328.655-1.382 1.797-2.117 1.14-.734 2.586-.734 1.117 0 1.797.375.687.367 1.062.859.382.492.594.867h.14v-5.945h2.336v16h-2.281v-1.867h-.195a6 6 0 0 1-.61.875q-.39.492-1.078.859-.687.367-1.781.367m.516-1.992q1.007 0 1.703-.531.703-.539 1.062-1.492.368-.953.368-2.219 0-1.25-.36-2.188-.359-.938-1.055-1.46-.695-.524-1.718-.524-1.054 0-1.758.547-.703.547-1.063 1.492-.351.945-.351 2.133 0 1.203.359 2.164.36.961 1.063 1.523.71.555 1.75.555m17.756-7.312-2.118.375a2.5 2.5 0 0 0-.421-.774 2.1 2.1 0 0 0-.766-.601q-.485-.235-1.211-.235-.993 0-1.656.446-.664.437-.664 1.132 0 .602.445.969.446.367 1.437.602l1.907.437q1.656.383 2.468 1.18t.813 2.07q0 1.079-.625 1.922-.618.836-1.727 1.313-1.101.476-2.554.476-2.016 0-3.289-.859-1.274-.868-1.563-2.461l2.258-.344q.212.883.867 1.336.657.445 1.711.445 1.149 0 1.836-.476.688-.484.688-1.18 0-.563-.422-.945-.414-.383-1.274-.578l-2.031-.446q-1.68-.383-2.484-1.218-.798-.836-.797-2.118 0-1.062.593-1.859.594-.796 1.641-1.242 1.046-.453 2.399-.453 1.944 0 3.062.843 1.117.837 1.477 2.243"/><rect width="140" height="140" x="328" fill="url(#e)" rx="70"/><path fill="#025f1d" d="M361.847 100.88c-15.04 0-26.72-12.72-26.72-30.8 0-18.8 12-30.96 26.72-30.96 14.48 0 26.64 12.8 26.64 30.96 0 18.72-11.68 30.8-26.64 30.8m1.92-3.04c8.08 0 14.48-7.36 14.48-20.72 0-16.64-5.76-34.96-18.32-34.96-8.4 0-14.56 7.36-14.56 20.96 0 16.8 5.6 34.72 18.4 34.72m58.946.16c4.88-.08 6.96-2 6.96-6.48V79.28c0-5.92-1.68-6.32-5.44-6.32v-1.04h19.84v1.04c-3.2 0-4.56.4-4.56 6.32v16.08c-3.04 2.8-8.96 5.52-18.08 5.52-18.08.08-29.04-13.04-29.04-30.56 0-19.44 13.44-31.2 28.4-31.2 6.8 0 11.6 3.04 13.68 3.04 1.36 0 2.08-.96 2.16-2.16h1.2v17.76h-1.28c-1.52-10.72-8.8-15.6-17.44-15.6-9.2 0-16.48 7.6-16.48 22.16 0 18.56 6.32 33.76 20.08 33.68m24.548-50.56c-.96-6.16 2.24-8.64 5.28-8.64s6.24 2.48 5.2 8.64l-4.56 33.44h-1.28zm5.28 53.12c-3.12 0-5.52-2.4-5.52-5.44 0-3.12 2.4-5.44 5.52-5.44 3.36 0 5.52 2.32 5.52 5.44 0 3.04-2.16 5.44-5.52 5.44"/><rect width="140" height="140" x="492" fill="url(#f)" rx="70"/><path fill="#002c4e" d="M538.228 47.272 531.916 64h-2.52l-6.312-16.728h2.328l5.256 14.424 5.256-14.424zm14.394 9.648q0 .624-.072 1.32h-10.512q.12 1.944 1.32 3.048 1.224 1.08 2.952 1.08 1.416 0 2.352-.648a3.54 3.54 0 0 0 1.344-1.776h2.352a5.7 5.7 0 0 1-2.112 3.096q-1.584 1.176-3.936 1.176-1.872 0-3.36-.84-1.464-.84-2.304-2.376-.84-1.56-.84-3.6t.816-3.576 2.28-2.352q1.488-.84 3.408-.84 1.872 0 3.312.816a5.55 5.55 0 0 1 2.208 2.256q.792 1.416.792 3.216m-2.256-.456q0-1.248-.552-2.136a3.47 3.47 0 0 0-1.512-1.368q-.936-.48-2.088-.48-1.656 0-2.832 1.056-1.152 1.056-1.32 2.928zm10.563-5.832q1.704 0 2.976.744 1.296.744 1.92 1.872v-2.4h2.208v13.44q0 1.8-.768 3.192a5.43 5.43 0 0 1-2.208 2.208q-1.416.792-3.312.792-2.592 0-4.32-1.224t-2.04-3.336h2.16q.36 1.2 1.488 1.92 1.128.744 2.712.744 1.8 0 2.928-1.128 1.152-1.128 1.152-3.168v-2.76q-.648 1.152-1.92 1.92t-2.976.768q-1.752 0-3.192-.864-1.416-.864-2.232-2.424t-.816-3.552q0-2.016.816-3.528.816-1.536 2.232-2.376 1.44-.84 3.192-.84m4.896 6.768q0-1.488-.6-2.592t-1.632-1.68q-1.008-.6-2.232-.6t-2.232.576-1.608 1.68-.6 2.592q0 1.512.6 2.64.6 1.104 1.608 1.704a4.4 4.4 0 0 0 2.232.576q1.224 0 2.232-.576a4.3 4.3 0 0 0 1.632-1.704q.6-1.128.6-2.616m5.083-.024q0-2.016.816-3.528.816-1.536 2.232-2.376 1.44-.84 3.192-.84 1.728 0 3 .744t1.896 1.872v-2.4h2.208V64h-2.208v-2.448q-.648 1.152-1.944 1.92-1.272.744-2.976.744-1.752 0-3.168-.864t-2.232-2.424-.816-3.552m11.136.024q0-1.488-.6-2.592t-1.632-1.68q-1.008-.6-2.232-.6t-2.232.576-1.608 1.68-.6 2.592q0 1.512.6 2.64.6 1.104 1.608 1.704a4.4 4.4 0 0 0 2.232.576q1.224 0 2.232-.576a4.3 4.3 0 0 0 1.632-1.704q.6-1.128.6-2.616m12.307-6.792q2.4 0 3.888 1.464 1.488 1.44 1.488 4.176V64h-2.16v-7.44q0-1.968-.984-3-.984-1.056-2.688-1.056-1.728 0-2.76 1.08-1.008 1.08-1.008 3.144V64h-2.184V50.848h2.184v1.872a4.35 4.35 0 0 1 1.752-1.56 5.55 5.55 0 0 1 2.472-.552m-67.464 25.664v1.776h-7.272v5.64h5.904v1.776h-5.904V93h-2.184V76.272zm4.822 5.712a4.2 4.2 0 0 1 1.632-1.752q1.08-.624 2.616-.624v2.256h-.576q-3.672 0-3.672 3.984V93h-2.184V79.848h2.184zm7.897-4.272q-.624 0-1.056-.432a1.44 1.44 0 0 1-.432-1.056q0-.624.432-1.056t1.056-.432q.6 0 1.008.432.432.432.432 1.056t-.432 1.056a1.33 1.33 0 0 1-1.008.432m1.056 2.136V93h-2.184V79.848zm15.722 6.072q0 .624-.072 1.32H545.8q.12 1.944 1.32 3.048 1.224 1.08 2.952 1.08 1.416 0 2.352-.648a3.54 3.54 0 0 0 1.344-1.776h2.352a5.7 5.7 0 0 1-2.112 3.096q-1.584 1.176-3.936 1.176-1.872 0-3.36-.84-1.464-.84-2.304-2.376-.84-1.56-.84-3.6t.816-3.576 2.28-2.352q1.488-.84 3.408-.84 1.872 0 3.312.816a5.55 5.55 0 0 1 2.208 2.256q.792 1.416.792 3.216m-2.256-.456q0-1.248-.552-2.136a3.47 3.47 0 0 0-1.512-1.368q-.936-.48-2.088-.48-1.656 0-2.832 1.056-1.152 1.056-1.32 2.928zm11.547-5.856q2.4 0 3.888 1.464 1.488 1.44 1.488 4.176V93h-2.16v-7.44q0-1.968-.984-3-.984-1.056-2.688-1.056-1.728 0-2.76 1.08-1.008 1.08-1.008 3.144V93h-2.184V79.848h2.184v1.872a4.35 4.35 0 0 1 1.752-1.56 5.55 5.55 0 0 1 2.472-.552m8.128 6.768q0-2.016.816-3.528.816-1.536 2.232-2.376 1.44-.84 3.216-.84a5.9 5.9 0 0 1 2.856.72q1.32.696 2.016 1.848v-6.96h2.208V93h-2.208v-2.472q-.648 1.176-1.92 1.944-1.272.744-2.976.744-1.752 0-3.192-.864-1.416-.864-2.232-2.424t-.816-3.552m11.136.024q0-1.488-.6-2.592t-1.632-1.68q-1.008-.6-2.232-.6t-2.232.576-1.608 1.68-.6 2.592q0 1.512.6 2.64.6 1.104 1.608 1.704a4.4 4.4 0 0 0 2.232.576q1.224 0 2.232-.576a4.3 4.3 0 0 0 1.632-1.704q.6-1.128.6-2.616m8.082-11.16V93h-2.184V75.24zm15.051 4.608-7.92 19.344h-2.256l2.592-6.336-5.304-13.008h2.424l4.128 10.656 4.08-10.656z"/><rect width="80" height="80" x="656" y="30" fill="url(#g)" rx="40"/><path fill="#002c4e" d="M674.602 67V51h6.125q1.735 0 2.883.547 1.156.54 1.727 1.476.578.938.578 2.125 0 .977-.375 1.672-.375.688-1.008 1.117a4.3 4.3 0 0 1-1.414.618v.156a3.47 3.47 0 0 1 1.633.523q.788.47 1.289 1.328.5.86.5 2.079 0 1.241-.602 2.234-.602.984-1.812 1.555-1.212.57-3.047.57zm2.899-2.422h3.117q1.578 0 2.273-.601.703-.61.703-1.563 0-.711-.351-1.281a2.4 2.4 0 0 0-1-.906q-.648-.336-1.547-.336h-3.195zm0-6.773h2.867q.75 0 1.351-.274.603-.28.946-.789.351-.516.351-1.219 0-.93-.656-1.53-.648-.602-1.93-.602h-2.929zm16.088 9.43q-1.804 0-3.117-.75a5.1 5.1 0 0 1-2.008-2.141q-.703-1.39-.703-3.274 0-1.85.703-3.25.71-1.406 1.984-2.187 1.274-.79 2.992-.79 1.11 0 2.094.36a4.7 4.7 0 0 1 1.75 1.094q.766.742 1.203 1.89.438 1.14.438 2.72v.866h-9.836v-1.906h7.125a3.04 3.04 0 0 0-.352-1.445 2.55 2.55 0 0 0-.961-1.008q-.609-.367-1.422-.367-.867 0-1.523.422-.657.414-1.023 1.093-.36.672-.368 1.477v1.664q0 1.047.383 1.797.383.743 1.07 1.14.688.391 1.61.391a3.4 3.4 0 0 0 1.117-.172q.5-.18.867-.523t.555-.852l2.641.297a4.1 4.1 0 0 1-.954 1.828q-.695.774-1.781 1.204-1.086.42-2.484.421m16.553-9.063-2.578.281a2.1 2.1 0 0 0-.383-.734 1.9 1.9 0 0 0-.719-.555q-.453-.21-1.109-.21-.884 0-1.485.382-.594.383-.586.992a1.04 1.04 0 0 0 .383.852q.398.327 1.313.539l2.046.437q1.704.368 2.532 1.164.835.798.843 2.086a3.26 3.26 0 0 1-.664 2q-.648.86-1.804 1.344t-2.657.484q-2.203 0-3.546-.921-1.344-.93-1.602-2.586l2.758-.266q.187.812.797 1.227.61.413 1.586.414 1.008 0 1.617-.415.617-.413.617-1.023 0-.516-.398-.852-.391-.335-1.219-.515l-2.047-.43q-1.727-.36-2.555-1.21-.828-.86-.82-2.173-.008-1.11.602-1.922.616-.82 1.71-1.265 1.102-.453 2.54-.453 2.11 0 3.32.898 1.218.9 1.508 2.43M718.064 55v2.188h-6.899V55zm-5.196-2.875h2.829v11.266q0 .57.171.875.18.296.469.406t.641.11q.265 0 .484-.04.227-.04.344-.07l.476 2.21q-.226.079-.648.173a5.3 5.3 0 0 1-1.016.11q-1.062.03-1.914-.321a2.98 2.98 0 0 1-1.351-1.11q-.492-.75-.485-1.875zm-35.227 25.273q-.11-1.023-.922-1.593-.804-.57-2.093-.57-.907 0-1.555.273-.648.274-.992.742-.344.47-.352 1.07 0 .5.227.868.234.367.633.624.398.25.882.422.485.172.977.29l1.5.374q.906.212 1.742.57.844.36 1.508.907.672.547 1.062 1.32.391.774.391 1.813 0 1.406-.719 2.476-.719 1.063-2.078 1.664-1.351.594-3.273.594-1.868 0-3.242-.578-1.368-.578-2.141-1.687-.766-1.11-.828-2.704h2.851q.063.837.516 1.391.453.555 1.18.828a4.7 4.7 0 0 0 1.64.274q.946 0 1.657-.282.719-.288 1.125-.796.405-.516.414-1.204-.008-.625-.368-1.03-.359-.415-1.007-.688a10 10 0 0 0-1.5-.5l-1.821-.47q-1.976-.506-3.125-1.538-1.14-1.04-1.14-2.758 0-1.414.765-2.477.774-1.062 2.102-1.648 1.328-.594 3.008-.594 1.703 0 2.984.594 1.289.586 2.023 1.633.735 1.04.758 2.39zm10.12 11.836q-1.806 0-3.118-.75a5.1 5.1 0 0 1-2.007-2.14q-.704-1.39-.704-3.274 0-1.85.704-3.25.71-1.405 1.984-2.187 1.273-.79 2.992-.79 1.11 0 2.094.36a4.7 4.7 0 0 1 1.75 1.094q.765.743 1.203 1.89.438 1.14.437 2.72v.866h-9.835v-1.906h7.125q-.009-.812-.352-1.445a2.56 2.56 0 0 0-.961-1.008q-.609-.367-1.422-.367-.867 0-1.523.422-.657.413-1.024 1.094-.359.671-.367 1.476v1.664q0 1.047.383 1.797.383.743 1.07 1.14.688.391 1.61.391.616 0 1.117-.172.5-.18.867-.523t.555-.852l2.64.297a4.1 4.1 0 0 1-.953 1.828q-.695.774-1.781 1.204-1.086.42-2.484.421M697.657 73v16h-2.828V73zm5.076 0v16h-2.828V73zm7.561 16.234q-1.804 0-3.117-.75a5.1 5.1 0 0 1-2.008-2.14q-.703-1.39-.703-3.274 0-1.85.703-3.25.711-1.405 1.985-2.187 1.273-.79 2.992-.79 1.109 0 2.093.36a4.7 4.7 0 0 1 1.75 1.094q.766.743 1.204 1.89.437 1.14.437 2.72v.866h-9.836v-1.906h7.125a3.04 3.04 0 0 0-.351-1.445 2.57 2.57 0 0 0-.961-1.008q-.61-.367-1.422-.367-.867 0-1.524.422-.656.413-1.023 1.094a3.14 3.14 0 0 0-.367 1.476v1.664q0 1.047.383 1.797.383.743 1.07 1.14.688.391 1.609.391.618 0 1.117-.172.5-.18.868-.523.366-.344.554-.852l2.641.297a4.1 4.1 0 0 1-.953 1.828q-.696.774-1.781 1.204-1.087.42-2.485.421m7.069-.234V77h2.742v2h.125q.329-1.04 1.125-1.602a3.1 3.1 0 0 1 1.836-.57q.235 0 .523.024.297.015.492.054v2.602a3 3 0 0 0-.57-.11 5 5 0 0 0-.742-.054q-.774 0-1.391.336a2.46 2.46 0 0 0-.961.914q-.351.585-.351 1.351V89z"/><defs><linearGradient id="a" x1="64.966" x2="97.365" y1="-8.583" y2="136.457" gradientUnits="userSpaceOnUse"><stop stop-color="#96fff8"/><stop offset="1" stop-color="#318cdb"/></linearGradient><linearGradient id="b" x1="234" x2="234" y1="21.361" y2="140" gradientUnits="userSpaceOnUse"><stop stop-color="#c5e86c"/><stop offset="1" stop-color="#78ba1f"/></linearGradient><linearGradient id="c" x1="243.11" x2="246.087" y1="59.221" y2="93.786" gradientUnits="userSpaceOnUse"><stop offset=".563" stop-color="#fff"/><stop offset="1" stop-color="#f1f1f1"/></linearGradient><linearGradient id="e" x1="398" x2="398" y1="21.361" y2="140" gradientUnits="userSpaceOnUse"><stop stop-color="#c5e86c"/><stop offset="1" stop-color="#78ba1f"/></linearGradient><linearGradient id="f" x1="632" x2="480.124" y1="125.389" y2="0" gradientUnits="userSpaceOnUse"><stop stop-color="#c5e86c"/><stop offset="1" stop-color="#e9f9c1"/></linearGradient><linearGradient id="g" x1="696" x2="696" y1="42.206" y2="110" gradientUnits="userSpaceOnUse"><stop stop-color="#c5e86c"/><stop offset="1" stop-color="#78ba1f"/></linearGradient></defs></svg>