<svg xmlns="http://www.w3.org/2000/svg" fill="none" viewBox="0 0 1073 220"><rect width="1072" height="219" x=".5" y=".5" stroke="#e4e4e4" rx="7.5"/><g clip-path="url(#a)"><path fill="#002c4e" d="m545.379 78.557-10.915 34.893h-9.245l-10.963-34.893h6.659l8.054 27.694h1.975l8.015-27.695zm3.534 1.737a3.034 3.034 0 0 1 6.067 0 3.034 3.034 0 0 1-6.067 0m.084 33.155V88.293h5.899v25.156zm17.264-3.043-.048 3.044h-5.232V77.261h5.899v7.56c0 1.95-.047 4.043-.143 5.945 1.808-1.902 4.662-2.949 7.659-2.949 6.803 0 12.512 5.327 12.512 13.078 0 7.656-5.709 13.03-12.512 13.03-3.282 0-6.375-1.285-8.134-3.52zm7.374-1.902c4.234 0 7.326-3.091 7.326-7.609 0-4.565-3.092-7.656-7.326-7.656-4.044 0-7.184 2.806-7.184 7.656 0 4.803 3.14 7.609 7.184 7.609m18.163-20.208h5.899v1.333c-.03.224-.045.345-.095.71 1.428-1.665 4.977-2.616 7.688-2.616q.284 0 .564.013V93.6h-2.182c-2.997 0-5.975 1.542-5.975 5.157v14.694h-5.899zm16.357 12.6c0-7.752 5.662-13.078 12.512-13.078 3.283 0 6.327 1.236 8.134 3.52l.048-3.044h5.233v25.156h-5.233l-.048-3.044c-1.807 2.283-4.852 3.52-8.134 3.52-6.851 0-12.512-5.374-12.512-13.03m13.273 7.608c3.996 0 7.183-2.806 7.183-7.608 0-4.851-3.187-7.657-7.183-7.657-4.234 0-7.374 3.091-7.374 7.657 0 4.517 3.14 7.608 7.374 7.608m18.742-20.208h5.899v1.333l-.096.71c1.428-1.665 4.977-2.616 7.688-2.616 5.567 0 10.162 3.9 10.162 10.652v15.075h-5.9V98.756c0-3.614-2.93-5.516-5.879-5.516-2.997 0-5.975 1.902-5.975 5.516v14.694h-5.899zm33.092 5.284h-5.765v-5.327h5.765V79.06h5.899v9.194h5.814v5.327h-5.814l-.047 19.87h-5.899zm-128.108 30.956v34.893h-6.183V144.55h-15.74v14.879h-6.182v-34.893h6.182v14.119h15.74v-14.119zm5.255 22.387c0-7.705 5.519-13.173 12.798-13.173 6.66 0 12.654 4.517 12.083 14.409h-19.362c.476 3.994 3.473 6.752 7.754 6.752 3.14 0 5.804-1.473 7.659-4.184l3.902 3.091c-2.474 3.567-6.375 6.182-11.703 6.182-7.85 0-13.13-5.517-13.13-13.077zm19.315-2.997c-.714-3.519-3.235-5.326-6.565-5.326-3.52 0-6.184 2.187-7.041 5.326zm9.458 2.949c0-7.751 5.662-13.077 12.512-13.077 3.283 0 6.327 1.236 8.135 3.519l.047-3.044h5.233v25.157h-5.233l-.047-3.044c-1.808 2.282-4.853 3.519-8.135 3.519-6.851 0-12.512-5.373-12.512-13.029zm13.273 7.609c3.996 0 7.183-2.806 7.183-7.609 0-4.851-3.187-7.656-7.183-7.656-4.234 0-7.374 3.091-7.374 7.656 0 4.518 3.14 7.609 7.374 7.609m18.742-31.243h5.899v36.188h-5.899zm15.689 16.318h-5.765v-5.326h5.765v-9.194h5.899v9.194h5.813v5.326h-5.813l-.047 19.871h-5.899zm15.727-16.318h5.899l-.095 13.077c1.427-1.664 4.976-2.616 7.687-2.616 5.566 0 10.162 3.9 10.162 10.652v15.075h-5.9v-14.694c0-3.613-2.93-5.516-5.879-5.516-2.997 0-5.975 1.903-5.975 5.516v14.694h-5.899zm-145.187 3.799c-2.087-3.105-5.726-4.921-9.317-4.826-.602.018-1.269.103-1.795.14-2.269.134-6.151-.05-8.598-2.915 0 0-5.267-7.078-5.275-7.092-2.115-3.34-.765-7.711.03-9.665.152-.328.45-1.013.45-1.013 3.43-8.662-2.584-19.239-13.645-18.54-10.476.658-14.981 11.785-10.923 19.897.654 1.447 2.835 7.251-.634 13.67l-1.445 2.322c-1.623 2.417-9.478 12.444-17.308-6.465l-19.014-45.551c-5.164-13.388-26.97-6.046-20.854 9.129l27.225 65.256c1.412 3.33 2.742 6.849 5.956 8.947 4.244 2.77 10.551 1.97 13.91-1.568.944-.991 1.462-2.058 1.691-2.523 1.591-3.292 9.432-23.764 10.592-26.267.566-1.22.768-1.698 1.08-2.228 3.702-6.286 9.293-7.36 11.568-7.573 1.818-.169 6.664-.381 9.439 3.007l5.3 7.082c1.877 2.586 2.571 8.118 2.049 10.936-.668 3.597.816 7.821 3.887 10.127 7.716 5.829 17.957-.113 17.394-8.951-.099-1.552-.627-3.647-1.762-5.336z"/></g><defs><clipPath id="a"><path fill="#fff" d="M388.025 60h296.949v100H388.025z"/></clipPath></defs></svg>