<svg xmlns="http://www.w3.org/2000/svg" fill="none" viewBox="0 0 1073 200"><rect width="1072" height="199" x=".5" y=".5" stroke="#e4e4e4" rx="7.5"/><path fill="#002c4e" d="m435.64 94.05-12.024 38.494H413.43L401.352 94.05h7.336l8.873 30.552h2.176l8.83-30.552zm3.895 1.917a3.344 3.344 0 0 1 3.342-3.345 3.344 3.344 0 0 1 3.342 3.345 3.343 3.343 0 0 1-3.342 3.345 3.343 3.343 0 0 1-3.342-3.345m.092 36.577v-27.752h6.499v27.752zm19.021-3.357-.052 3.357h-5.766V92.621h6.5v8.341c0 2.151-.052 4.459-.157 6.558 1.991-2.099 5.136-3.253 8.438-3.253 7.495 0 13.784 5.876 13.784 14.427 0 8.446-6.289 14.374-13.784 14.374-3.617 0-7.024-1.416-8.963-3.881m8.124-2.099c4.664 0 8.072-3.41 8.072-8.394 0-5.036-3.407-8.446-8.072-8.446-4.455 0-7.914 3.095-7.914 8.446 0 5.298 3.459 8.394 7.914 8.394m20.012-22.293h6.498v1.47c-.032.248-.05.381-.105.783 1.573-1.837 5.483-2.886 8.47-2.886q.313 0 .622.015v6.468h-2.404c-3.302 0-6.583 1.701-6.583 5.689v16.21h-6.498zm18.021 13.899c0-8.551 6.237-14.427 13.784-14.427 3.617 0 6.971 1.364 8.962 3.883l.052-3.358h5.765v27.752h-5.765l-.052-3.358c-1.991 2.518-5.346 3.882-8.962 3.882-7.547 0-13.784-5.928-13.784-14.374m14.622 8.394c4.403 0 7.914-3.095 7.914-8.394 0-5.351-3.511-8.446-7.914-8.446-4.665 0-8.123 3.41-8.123 8.446 0 4.984 3.458 8.394 8.123 8.394m20.649-22.293h6.499v1.47c-.033.248-.05.381-.105.783 1.573-1.837 5.482-2.886 8.47-2.886 6.132 0 11.195 4.302 11.195 11.751v16.631h-6.499v-16.211c0-3.986-3.229-6.085-6.479-6.085-3.301 0-6.582 2.099-6.582 6.085v16.211h-6.499zm36.459 5.829h-6.351v-5.876h6.351V94.605h6.5v10.143h6.404v5.876h-6.404l-.053 21.92h-6.499zm66.532-16.574v38.494h-6.812v-16.415h-17.341v16.415h-6.811V94.05h6.811v15.576h17.341V94.05zm5.791 24.697c0-8.499 6.08-14.532 14.099-14.532 7.338 0 13.941 4.984 13.312 15.896h-21.331c.524 4.407 3.826 7.449 8.543 7.449 3.459 0 6.395-1.626 8.438-4.616l4.298 3.41c-2.725 3.934-7.023 6.82-12.893 6.82-8.648-.001-14.466-6.086-14.466-14.427m21.279-3.306c-.786-3.882-3.563-5.876-7.232-5.876-3.879 0-6.814 2.413-7.757 5.876zm10.421 3.253c0-8.551 6.237-14.427 13.785-14.427 3.616 0 6.971 1.364 8.962 3.883l.052-3.358h5.765v27.752h-5.765l-.052-3.358c-1.992 2.518-5.346 3.882-8.962 3.882-7.547 0-13.785-5.928-13.785-14.374m14.623 8.394c4.403 0 7.914-3.095 7.914-8.394 0-5.351-3.512-8.446-7.914-8.446-4.665 0-8.124 3.41-8.124 8.446 0 4.984 3.459 8.394 8.124 8.394m20.649-34.467h6.499v39.923h-6.499zm17.285 18.003h-6.352v-5.876h6.352V94.605h6.499v10.143h6.404v5.876h-6.404l-.052 21.92h-6.5zm17.327-18.003h6.499l-.105 14.427c1.572-1.836 5.481-2.886 8.469-2.886 6.133 0 11.195 4.302 11.195 11.752v16.63h-6.499v-16.21c0-3.987-3.228-6.086-6.478-6.086-3.302 0-6.583 2.099-6.583 6.086v16.21h-6.498zm-358.936 25.676c-1.813-2.7-4.973-4.279-8.092-4.197-.523.016-1.101.09-1.558.122-1.971.116-5.342-.043-7.467-2.535 0 0-4.574-6.155-4.581-6.167-1.837-2.904-.665-6.705.025-8.404.133-.286.392-.882.392-.882 2.978-7.532-2.245-16.73-11.85-16.122-9.097.573-13.01 10.248-9.485 17.302.567 1.26 2.462 6.306-.552 11.888l-1.254 2.019c-1.409 2.102-8.231 10.821-15.031-5.622l-16.512-39.61c-4.484-11.642-23.421-5.257-18.11 7.938l23.643 56.745c1.226 2.896 2.381 5.956 5.173 7.781 3.685 2.409 9.162 1.713 12.079-1.363.82-.862 1.269-1.791 1.468-2.194 1.382-2.863 8.191-20.665 9.199-22.842.491-1.061.667-1.477.938-1.937 3.215-5.466 8.07-6.401 10.046-6.585 1.578-.148 5.786-.333 8.196 2.614l4.603 6.158c1.629 2.249 2.233 7.06 1.779 9.51-.579 3.128.709 6.801 3.376 8.806 6.7 5.069 15.594-.098 15.105-7.784-.086-1.349-.544-3.17-1.53-4.639"/></svg>