<svg xmlns="http://www.w3.org/2000/svg" fill="none" viewBox="0 0 1073 220"><rect width="1072" height="219" x=".5" y=".5" stroke="#e4e4e4" rx="7.5"/><path fill="#002c4e" d="m602.328 99.427-15.927 51.031h-13.493l-15.997-51.031h9.716l11.754 40.503h2.882l11.697-40.503zm46.753 0v51.031h-9.023v-21.761h-22.969v21.76h-9.023v-51.03h9.023v20.649h22.969v-20.65zM542.577 132.87c-2.265-3.375-6.211-5.349-10.106-5.246-.653.02-1.376.112-1.947.152-2.461.146-6.671-.054-9.325-3.169 0 0-5.713-7.693-5.721-7.709-2.295-3.63-.83-8.381.031-10.505.165-.357.489-1.101.489-1.101 3.72-9.416-2.803-20.912-14.8-20.153-11.362.716-16.248 12.81-11.846 21.628.708 1.573 3.074 7.882-.689 14.859l-1.567 2.525c-1.76 2.627-10.28 13.526-18.772-7.028l-20.623-49.513c-5.6-14.553-29.251-6.571-22.618 9.923l29.528 70.931c1.531 3.62 2.974 7.445 6.46 9.726 4.603 3.011 11.443 2.141 15.087-1.704 1.023-1.077 1.585-2.238 1.833-2.743 1.726-3.578 10.23-25.831 11.489-28.552.613-1.325.833-1.846 1.17-2.421 4.016-6.833 10.08-8.001 12.548-8.232 1.971-.184 7.227-.415 10.237 3.269l5.748 7.697c2.035 2.811 2.789 8.825 2.222 11.887-.723 3.91.886 8.502 4.216 11.008 8.369 6.336 19.476-.122 18.866-9.73-.108-1.686-.68-3.963-1.911-5.799z"/></svg>