<svg xmlns="http://www.w3.org/2000/svg" fill="none" viewBox="0 0 388 70"><path fill="#1f1f1f" d="M4.818 16.456v.286H0v-.286c.858 0 1.166-.484 1.716-1.958L7.348.066h.44l5.588 14.388c.55 1.386.836 2.002 1.672 2.002v.286H8.866v-.286c1.21 0 1.606-.418.968-2.002l-1.122-2.882H3.938l-.77 2.068c-.792 2.068-.088 2.706 1.65 2.816m-.55-5.742h4.114l-2.068-5.39zm13.265-8.448c0-1.628-.374-1.738-1.276-1.738V.242h5.94c3.014 0 6.094 1.144 6.094 3.894 0 1.848-1.364 3.256-3.124 3.85 2.288.396 3.96 1.672 3.96 3.938 0 2.75-2.728 4.818-6.578 4.818h-6.292v-.286c.902 0 1.276-.132 1.276-1.738zm4.29-1.166h-.792v6.578h1.1c1.936 0 2.816-1.012 2.816-3.168 0-2.2-1.012-3.41-3.124-3.41m.462 7.436h-1.254v7.348h1.452c2.046 0 3.102-.99 3.102-3.41 0-2.354-.99-3.938-3.3-3.938m15.864 8.448c-3.806.022-6.952-3.08-6.952-7.986 0-5.5 3.74-8.998 7.876-8.998 1.76 0 2.97.792 3.542.792.374 0 .594-.22.638-.55h.308V5.5h-.352C42.593 2.332 40.81.836 38.61.836c-2.178 0-3.806 1.826-3.806 5.918 0 3.806 1.276 7.898 4.906 7.898 1.848 0 3.212-1.232 3.916-3.652l.396.11c-.374 3.542-2.75 5.874-5.874 5.874M45.742.528V.242h6.072c4.84 0 8.514 2.97 8.514 8.118 0 5.082-3.52 8.382-8.272 8.382h-6.314v-.286c.902 0 1.276-.132 1.276-1.738V2.266c0-1.628-.374-1.738-1.276-1.738m6.116 15.356c3.124 0 4.84-1.826 4.84-5.478 0-5.676-1.474-9.306-5.17-9.306h-1.012v14.784zM63.33 2.266c0-1.628-.374-1.738-1.276-1.738V.242h11.264v4.004h-.352C72.9 2.024 72.13 1.1 69.423 1.1h-2.596v6.578h2.024c1.474 0 2.002-.594 2.068-2.244h.33v5.368h-.33c-.066-1.562-.594-2.266-2.068-2.266h-2.024v7.348h2.618c2.86 0 3.652-.858 3.828-3.718h.352v4.576H62.053v-.286c.902 0 1.276-.132 1.276-1.738zm13.432 0c0-1.628-.374-1.738-1.276-1.738V.242h11.286v4.136h-.352c-.088-2.354-.836-3.278-3.542-3.278H80.26v6.732h2.244c1.474 0 2.002-.594 2.068-2.244h.33v5.39h-.33c-.066-1.584-.594-2.288-2.068-2.288H80.26v6.028c0 1.606.462 1.738 1.518 1.738v.286h-6.292v-.286c.902 0 1.276-.132 1.276-1.738zM97.022 16.17c.946 0 1.364-.462 1.364-1.54v-3.586c0-1.628-.462-1.738-1.43-1.738V9.02h6.094v.286c-.792 0-1.144.11-1.144 1.738v4.334c-.946.924-2.618 1.606-5.192 1.606-4.884.022-8.008-3.652-8.008-8.316C88.706 3.102 92.468 0 96.604 0c1.76 0 3.102.792 3.674.792.396 0 .594-.22.638-.55h.33v5.104h-.352c-.484-2.904-2.398-4.51-4.752-4.51-2.178 0-3.828 1.65-3.828 5.698 0 5.478 1.716 9.658 4.708 9.636m8.58-13.904c0-1.628-.374-1.738-1.276-1.738V.242h6.16v.286c-.924 0-1.386.11-1.386 1.738v5.39h5.544v-5.39c0-1.628-.462-1.738-1.364-1.738V.242h6.16v.286c-.924 0-1.298.11-1.298 1.738v12.452c0 1.606.374 1.738 1.298 1.738v.286h-6.16v-.286c.902 0 1.364-.132 1.364-1.738V8.514H109.1v6.204c0 1.606.462 1.738 1.386 1.738v.286h-6.16v-.286c.902 0 1.276-.132 1.276-1.738zm16.784 0c0-1.628-.396-1.738-1.298-1.738V.242h6.116v.286c-.902 0-1.298.11-1.298 1.738v12.452c0 1.606.396 1.738 1.298 1.738v.286h-6.116v-.286c.902 0 1.298-.132 1.298-1.738zm15.748 9.482c.044 3.234-2.2 5.236-5.412 5.236-2.64 0-4.268-1.606-4.268-3.542 0-1.364.836-1.936 1.782-1.936.924 0 1.518.484 1.694 1.826.198 1.628.088 2.794 1.078 2.794 1.232 0 1.606-1.122 1.606-3.652V2.266c0-1.606-.418-1.738-1.496-1.738V.242h6.204v.286c-.814 0-1.188.132-1.188 1.738zm4.047-9.482c0-1.628-.374-1.738-1.276-1.738V.242h6.16v.286c-.924 0-1.386.11-1.386 1.738v12.452c0 1.606.462 1.738 1.386 1.738v.286h-6.16v-.286c.902 0 1.276-.132 1.276-1.738zm3.806 5.742 4.84-5.346c1.232-1.364.704-2.134-.418-2.134V.242h4.444v.286c-.462 0-1.1.242-2.31 1.584l-3.762 4.158 4.972 8.602c.77 1.342 1.034 1.584 1.562 1.584v.286h-5.852v-.286c1.144 0 1.144-.462.682-1.298l-4.158-7.106zm12.054 6.71V2.266c0-1.606-.374-1.738-1.276-1.738V.242h6.292v.286c-1.056 0-1.518.132-1.518 1.738v13.618h2.244c2.772 0 3.586-.814 3.74-3.718h.352v4.576h-11.11v-.286c.902 0 1.276-.11 1.276-1.738m12.873-12.452c0-1.452-.374-1.694-1.276-1.738V.242h5.258l3.564 10.142L181.98.242h5.104v.286c-.902 0-1.276.11-1.276 1.738v12.452c0 1.606.374 1.738 1.276 1.738v.286h-6.16v-.286c.902 0 1.364-.132 1.364-1.738V2.376l-4.972 14.256h-.33L171.97 2.376v11.88c0 1.76.726 2.2 1.738 2.2v.286h-4.07v-.286c.902 0 1.276-.22 1.276-2.024zm29.862 14.586L191.096 2.2v11.99c0 1.76.77 2.266 1.914 2.266v.286h-4.246v-.286c.902 0 1.276-.286 1.276-2.09v-12.1c0-1.452-.374-1.694-1.276-1.738V.242h5.17l6.248 9.438V2.794c0-1.804-.704-2.266-1.782-2.266V.242h4.224v.286c-1.012 0-1.386.308-1.386 2.09v14.234zm10.987.132c-4.246 0-7.48-3.498-7.48-8.47 0-5.236 3.278-8.514 7.48-8.514 4.07 0 7.458 3.542 7.458 8.514 0 5.236-3.146 8.47-7.458 8.47m.594-.836c1.914 0 3.256-1.496 3.256-4.928 0-4.774-1.254-10.384-4.444-10.384-1.914 0-3.278 1.496-3.278 4.972 0 4.752 1.254 10.34 4.466 10.34m9.919-13.882c0-1.628-.374-1.738-1.342-1.738V.242h6.16c3.696 0 6.512 1.32 6.512 4.444 0 2.64-2.09 5.082-6.71 5.082h-1.1v4.95c0 1.606.462 1.738 1.474 1.738v.286h-6.336v-.286c.968 0 1.342-.132 1.342-1.738zM226.72 1.1h-.924v7.81h1.232c2.354 0 3.08-1.43 3.08-3.652 0-2.684-1.254-4.158-3.388-4.158m23.728 18.414c-4.114 0-6.05-.836-7.502-2.53h-.022c-4.246 0-7.48-3.498-7.48-8.47 0-5.236 3.278-8.514 7.48-8.514 4.07 0 7.458 3.542 7.458 8.514 0 3.762-1.606 6.468-4.114 7.722 1.43 1.892 2.904 2.816 4.554 2.992v.286zm-6.93-3.366c1.914 0 3.256-1.496 3.256-4.928 0-4.774-1.254-10.384-4.444-10.384-1.914 0-3.278 1.496-3.278 4.972 0 4.752 1.254 10.34 4.466 10.34m21.467-1.738c.902 1.716 1.276 1.936 2.068 2.046v.286h-4.598l-4.158-7.832h-1.232v5.808c0 1.606.462 1.738 1.452 1.738v.286h-6.314v-.286c.968 0 1.342-.132 1.342-1.738V2.266c0-1.628-.374-1.738-1.342-1.738V.242h6.534c3.608 0 6.402.858 6.402 4.114 0 1.738-1.056 3.278-3.344 4.048zm-6.6-13.31h-1.32v6.952h1.32c2.464 0 3.19-1.1 3.19-3.146 0-2.596-1.254-3.806-3.19-3.806m17.329 12.21c0-1.276-.55-2.024-2.112-3.036l-2.2-1.452c-1.826-1.166-2.772-2.464-2.772-4.334 0-2.728 2.42-4.488 5.038-4.488 2.222 0 2.882.814 3.476.814.242 0 .418-.176.462-.572h.308v4.312h-.33c-.418-2.53-1.98-3.696-3.696-3.696-1.188 0-2.332.77-2.332 2.244 0 1.32.968 2.134 2.024 2.816l2.134 1.408c2.09 1.342 3.212 2.574 3.212 4.752 0 2.64-2.222 4.906-5.72 4.906-2.354 0-3.234-.858-3.982-.858-.264 0-.484.154-.528.616h-.33v-5.214h.352c.462 3.036 1.804 4.554 4.268 4.554 1.87 0 2.728-1.122 2.728-2.772m9.241 1.408V1.1h-1.1c-2.002 0-3.058.594-3.124 3.564h-.352V.242h12.65v4.422h-.352c-.066-2.97-1.122-3.564-3.124-3.564h-1.1v13.618c0 1.606.462 1.738 1.474 1.738v.286h-6.468v-.286c1.122 0 1.496-.132 1.496-1.738m10.9-3.52V2.266c0-1.606-.374-1.738-1.144-1.738V.242h6.028v.286c-.924 0-1.386.132-1.386 1.738v8.25c0 3.146 1.144 4.598 3.894 4.598 2.046 0 3.322-1.298 3.322-3.652V2.728c0-1.76-.748-2.2-1.738-2.2V.242h3.96v.286c-.792 0-1.166.22-1.166 2.024v8.888c0 3.036-1.76 5.544-5.456 5.544-4.29 0-6.314-2.398-6.314-5.786M320.102.528V.242h4.752v.286c-.858 0-1.166.484-1.716 1.958l-5.566 14.432h-.44L311.588 2.53c-.528-1.386-.814-2.002-1.65-2.002V.242h6.182v.286c-1.21 0-1.606.418-.99 2.002l3.476 9.108 3.08-8.294c.748-2.002.11-2.728-1.584-2.816m21.389 0V.242h4.29v.286c-.704 0-1.078.484-1.562 1.958l-4.774 14.432h-.44l-3.366-10.23-3.476 10.23h-.44l-4.73-14.388c-.462-1.386-.77-2.002-1.452-2.002V.242h5.764v.286c-1.078 0-1.21.374-.704 2.002l2.596 8.074 1.892-5.544-.836-2.53c-.462-1.386-.748-2.002-1.43-2.002V.242h5.83v.286c-1.1 0-1.364.374-.836 2.002l2.618 8.118 2.332-7.304c.638-1.98.11-2.728-1.276-2.816m13.916 14.344-2.75-5.258-2.31 4.004c-1.122 1.914-.594 2.838 1.012 2.838v.286h-4.796v-.286c.616 0 1.232-.44 2.156-2.002l3.432-5.808-3.476-6.6c-.66-1.254-.968-1.518-1.584-1.518V.242h6.006v.286c-1.1 0-1.298.33-.792 1.32l2.442 4.642 1.87-3.146c1.1-1.87.77-2.816-.616-2.816V.242h4.268v.286c-.572 0-1.056.506-1.76 1.65l-3.256 5.258 3.806 7.238c.704 1.342 1.1 1.782 1.716 1.782v.286h-6.072v-.286c1.122 0 1.364-.33.704-1.584M370.921.528V.242h4.422v.286c-.682 0-1.056.594-1.76 1.958l-3.19 6.248v5.984c0 1.606.462 1.738 1.474 1.738v.286h-6.468v-.286c1.122 0 1.496-.132 1.496-1.738V9.042l-3.498-6.798c-.528-1.012-.88-1.716-1.562-1.716V.242h6.006v.286c-1.078 0-1.43.506-.836 1.716l2.838 5.522 2.178-4.312c.902-1.804.484-2.86-1.1-2.926m16.96-.286v.286l-7.678 15.356h2.904c3.102 0 3.96-.946 4.136-3.938h.352v4.796h-11.396v-.286L383.877 1.1h-2.816c-2.904 0-3.674.946-3.74 3.322h-.352V.242zM3.63 41.006c-1.87 0-3.168-1.276-3.168-3.234 0-2.156 1.386-3.014 3.014-3.542.836-.264 1.738-.484 2.486-.836.682-.352 1.166-.968 1.166-2.354 0-1.276-.462-1.98-1.54-1.98-1.496 0-1.474 1.21-1.672 2.398-.132.924-.616 1.452-1.606 1.452-.924 0-1.562-.616-1.562-1.496 0-1.716 1.936-3.168 5.104-3.168 2.574 0 4.422 1.012 4.422 3.784v6.314c0 .528.176.924.594.924.264 0 .506-.154.726-.506l.176.11c-.374.99-1.232 2.09-2.706 2.09-1.562 0-2.068-.836-2.134-1.936-.682 1.034-1.76 1.98-3.3 1.98m.176-3.916c0 1.21.528 1.936 1.496 1.936.66 0 1.188-.396 1.628-.99v-4.488c-.11.176-.33.418-.704.66-.396.264-.902.462-1.32.726-.66.418-1.1 1.056-1.1 2.156m15.087 3.806c-1.76 0-2.838-.506-3.586-1.188l-1.738 1.078h-.088V26.948c0-1.408 0-1.804-.924-1.76v-.264l4.29-1.76v7.37c.77-1.232 2.09-2.288 3.718-2.288 2.42 0 4.18 2.068 4.18 5.874 0 4.334-2.706 6.776-5.852 6.776m-2.046-3.894c0 1.914 1.034 3.08 2.332 3.08s2.178-1.298 2.178-4.004c0-3.168-.682-5.72-2.486-5.72-1.012 0-1.584.682-2.024 1.298zm15.797-7.854c-1.342 0-2.596 1.276-2.596 3.916 0 3.41 1.518 5.258 3.806 5.258 1.386 0 2.398-.858 3.014-2.618l.308.11c-.484 3.124-2.222 5.082-5.104 5.082-3.344 0-5.324-2.486-5.324-5.962 0-4.092 3.124-6.6 6.204-6.6 2.574 0 4.114 1.496 4.114 3.234 0 .946-.682 1.672-1.694 1.672-1.056 0-1.496-.682-1.606-1.43-.198-1.452.374-2.662-1.122-2.662m10.622 11.748c-2.42 0-4.202-2.046-4.202-5.808 0-4.378 2.838-6.842 5.918-6.842.814 0 1.452.132 1.98.352v-1.65c0-1.408 0-1.804-.924-1.76v-.264l4.29-1.76v14.608c0 1.408.022 1.804.902 1.782v.264l-4.268 1.144v-2.354c-.77 1.232-2.09 2.288-3.696 2.288m-.814-7.744c0 3.102.726 5.632 2.53 5.632 1.012 0 1.54-.682 1.98-1.298v-5.324c0-1.914-.946-3.102-2.244-3.102-1.32 0-2.266 1.342-2.266 4.092m15.71 7.744c-3.344 0-5.324-2.662-5.324-6.006 0-4.048 2.904-6.556 5.698-6.556 2.926 0 4.642 1.98 4.796 5.082H56.16c.132 3.3 1.54 5.016 3.696 5.016 1.342 0 2.574-.924 3.146-2.728l.308.11c-.528 3.344-2.332 5.082-5.148 5.082m-.088-11.748c-1.056 0-1.826 1.276-1.914 3.476h3.784c-.132-2.376-.792-3.476-1.87-3.476m6.836.308v-.946h1.254c-.638-3.652 1.144-5.214 3.212-5.214 1.32 0 2.596.682 2.596 1.98 0 .704-.418 1.21-1.144 1.21-.748 0-1.056-.44-1.364-1.254-.33-.858-.528-1.056-.858-1.056s-.55.264-.55.748c0 1.012 1.122 1.914 1.364 3.586h2.178v.946h-2.134v9.636c0 1.166.396 1.386 1.144 1.386v.264h-5.412v-.264c.528 0 .902-.22.902-1.386v-9.636zm12.734 15.422c-3.234 0-4.994-.99-4.994-2.332 0-1.078 1.232-1.87 2.244-2.2-1.012-.33-1.562-1.034-1.562-2.002 0-1.122 1.21-2.156 2.267-2.662-1.475-.594-2.443-1.76-2.443-3.366 0-2.376 2.134-3.982 4.774-3.982.528 0 1.034.066 1.496.176h3.939v.748h-2.508c1.144.55 1.936 1.628 1.936 3.058 0 2.376-2.113 3.784-4.818 3.784-.55 0-1.078-.066-1.584-.176-.419.242-.727.572-.727 1.034 0 .44.352.638.968.638h3.212c3.015 0 3.873 1.21 3.873 2.97 0 2.266-2.112 4.312-6.073 4.312m.638-9.548c.99 0 1.453-.858 1.453-2.112 0-1.826-.507-4.114-2.025-4.114-.88 0-1.495.726-1.495 2.068 0 1.958.725 4.158 2.067 4.158m-3.19 6.512c0 1.144 1.1 1.914 3.653 1.914 2.42 0 3.608-1.056 3.608-2.112 0-.682-.506-1.078-1.914-1.078h-4.026a7 7 0 0 1-.704-.044c-.309.264-.617.616-.617 1.32m15.35-1.1h-5.236v-.264c.44 0 .814-.22.814-1.386V26.948c0-1.408 0-1.804-.924-1.76v-.264l4.29-1.76v7.546c.77-1.21 1.98-2.464 3.784-2.464 2.134 0 3.124 1.364 3.124 3.586v7.26c0 1.166.396 1.386.88 1.386v.264h-5.258v-.264c.638 0 1.012-.22 1.012-1.386v-6.996c0-1.122-.462-1.672-1.452-1.672-1.034 0-1.65.726-2.09 1.364v7.304c0 1.166.33 1.386 1.056 1.386zm10.963-12.98c-1.122 0-1.936-.792-1.936-1.87 0-1.056.814-1.87 1.936-1.87 1.166 0 1.936.814 1.936 1.87 0 1.078-.77 1.87-1.936 1.87m2.53 12.98h-5.06v-.264c.462 0 .836-.22.836-1.386v-6.754c0-1.496-.022-1.892-.924-1.826v-.286l4.29-1.98v10.846c0 1.166.352 1.386.858 1.386zm4.328-12.98c-1.144 0-1.936-.792-1.936-1.87 0-1.056.792-1.87 1.936-1.87 1.166 0 1.936.814 1.936 1.87 0 1.078-.77 1.87-1.936 1.87m1.672.484v11.638c0 3.872-1.166 5.346-3.278 5.346-1.364 0-2.53-.682-2.53-1.848 0-.66.396-1.1 1.122-1.1.682 0 1.012.352 1.364 1.21.242.616.484.858.836.858.308 0 .506-.264.506-.726 0-1.056-1.408-2.068-1.408-4.642v-6.644c0-1.496 0-1.892-.902-1.826v-.286zm7.676 12.496h-5.236v-.264c.44 0 .814-.22.814-1.386V26.948c0-1.408 0-1.804-.902-1.76v-.264l4.29-1.76v15.928c0 1.166.33 1.386 1.034 1.386zm1.782 0V40.5c.682 0 .836-.308.374-1.056l-3.036-4.906v-.066l3.388-3.564c1.32-1.408.726-2.112-.352-2.112v-.286h4.246v.286c-.572 0-.99.374-2.09 1.496l-2.53 2.574 3.674 5.94c.814 1.32 1.21 1.694 1.606 1.694v.242zm11.389 0h-5.06v-.264c.462 0 .836-.22.836-1.386V26.948c0-1.408 0-1.804-.946-1.76v-.264l4.312-1.76v15.928c0 1.166.33 1.386.858 1.386zm6.967 0h-5.148v-.264c.44 0 .814-.22.814-1.386v-6.754c0-1.496 0-1.892-.902-1.826v-.286l4.268-1.98v2.332c.748-1.21 1.892-2.332 3.52-2.332s2.618.902 2.86 2.508c.748-1.276 1.87-2.508 3.63-2.508 2.024 0 2.992 1.32 2.992 3.586v7.26c0 1.166.374 1.386.88 1.386v.264h-5.236v-.264c.616 0 .99-.22.99-1.386v-6.996c0-1.166-.418-1.672-1.298-1.672-.858 0-1.43.66-1.848 1.298v7.37c0 1.166.374 1.386.99 1.386v.264h-5.324v-.264c.594 0 .968-.22.968-1.386v-6.996c0-1.166-.418-1.672-1.298-1.672-.836 0-1.408.638-1.826 1.276v7.392c0 1.166.33 1.386.968 1.386zm19.815 0h-5.236v-.264c.44 0 .814-.22.814-1.386v-6.754c0-1.496 0-1.892-.902-1.826v-.286l4.268-1.98v2.442c.792-1.21 1.98-2.442 3.784-2.442 2.134 0 3.124 1.364 3.124 3.586v7.26c0 1.166.374 1.386.88 1.386v.264h-5.258v-.264c.638 0 1.012-.22 1.012-1.386v-6.996c0-1.122-.462-1.672-1.474-1.672s-1.628.726-2.068 1.364v7.304c0 1.166.33 1.386 1.056 1.386zm14.197.154c-3.278 0-5.786-2.574-5.786-6.292 0-3.74 2.42-6.27 5.786-6.27 3.322 0 5.808 2.596 5.808 6.314 0 3.74-2.398 6.248-5.808 6.248m.572-.792c1.056 0 1.848-1.166 1.848-3.19 0-3.454-.858-7.766-2.926-7.766-1.122 0-1.892 1.1-1.892 3.124 0 3.41.902 7.832 2.97 7.832m13.278.792c-.836 0-1.496-.132-2.046-.374v2.86c0 1.166.352 1.386 1.144 1.386v.264h-5.324v-.264c.44 0 .814-.22.814-1.386V32.338c0-1.496.022-1.892-.902-1.826v-.286l4.268-1.98v2.288c.77-1.232 2.068-2.288 3.696-2.288 2.442 0 4.202 2.068 4.202 5.874 0 4.334-2.706 6.776-5.852 6.776m-2.046-3.894c0 1.914 1.034 3.08 2.332 3.08s2.2-1.298 2.2-4.004c0-3.168-.704-5.72-2.508-5.72-1.034 0-1.584.682-2.024 1.298zm14.014 3.894c-2.42 0-4.18-2.046-4.18-5.808 0-4.378 2.816-6.842 5.896-6.842 1.716 0 2.86.572 3.63 1.386l1.628-1.254h.088v15.004c0 1.166.374 1.386.814 1.386v.264h-5.302v-.264c.77 0 1.122-.22 1.122-1.386v-4.774c-.77 1.232-2.09 2.288-3.696 2.288m-.814-7.744c0 3.102.726 5.632 2.53 5.632 1.012 0 1.54-.682 1.98-1.298v-5.324c0-1.914-.924-3.102-2.244-3.102s-2.266 1.342-2.266 4.092m15.755 7.59h-5.368v-.264c.44 0 .814-.22.814-1.386v-6.754c0-1.496 0-1.892-.902-1.826v-.286l4.268-1.98v2.596c.682-1.386 1.848-2.596 2.97-2.596s1.738.77 1.738 1.958c0 .924-.506 1.694-1.518 1.694-1.386 0-1.43-1.1-2.134-1.1-.33 0-.704.396-1.056 1.034v7.26c0 1.166.352 1.386 1.188 1.386zm10.754-2.354c0-.968-.418-1.364-1.694-2.112l-1.452-.858c-1.672-.968-2.376-2.112-2.376-3.52 0-2.42 1.848-3.608 3.872-3.608 1.716 0 2.53.726 2.97.726.264 0 .352-.198.374-.506h.33v3.696h-.33c-.308-1.914-1.76-3.124-3.212-3.124-.968 0-1.628.506-1.628 1.408 0 .792.55 1.276 1.76 1.98l1.452.88c1.76 1.012 2.75 2.046 2.75 3.806 0 2.178-1.738 3.74-4.356 3.74-1.892 0-2.684-.726-3.124-.726-.33 0-.462.308-.484.572h-.33v-4.136h.33c.286 2.31 1.87 3.476 3.388 3.476 1.166 0 1.76-.726 1.76-1.694m11.64-1.188c-.132 1.958-.946 3.784-3.234 3.784-1.892 0-3.08-1.078-3.08-3.168v-8.36h-1.034v-.286c1.452-.396 3.234-2.2 3.872-4.642h.528v3.982h2.662v.946h-2.662v8.162c0 1.056.352 1.518 1.144 1.518.814 0 1.254-.682 1.562-1.98zm5.626-.044c0 1.166.506 1.672 1.43 1.672.836 0 1.43-.506 1.87-1.034v-5.456c0-1.452 0-1.936-.924-1.87v-.264l4.29-1.958v9.526c0 1.364 0 1.804.88 1.782v.264l-4.246 1.144v-2.09c-.77 1.1-1.936 2.134-3.542 2.134-2.112 0-3.124-1.32-3.124-3.586v-5.082c0-1.452 0-1.936-.924-1.87v-.264l4.29-1.958zm16.427-8.36v-.286h3.762v.286c-.528 0-.968.88-1.584 2.376l-4.004 9.746h-.264l-4.356-10.56c-.44-1.144-.638-1.562-1.232-1.562v-.286h5.588v.286c-.88 0-1.298.418-.858 1.54l2.222 5.61 1.738-4.29c.814-1.98.22-2.86-1.012-2.86m18.21 0v-.286h3.784v.286c-.55 0-1.012.88-1.606 2.376l-3.894 9.746h-.242l-2.794-7.216-3.014 7.216h-.264l-4.246-10.56c-.44-1.144-.638-1.562-1.232-1.562v-.286h5.412v.286c-.726 0-1.144.418-.682 1.54l2.156 5.544 1.408-3.366-.836-2.156c-.44-1.144-.66-1.562-1.21-1.562v-.286h5.434v.286c-.814 0-1.232.418-.814 1.54l2.046 5.5 1.628-4.18c.77-2.002.22-2.86-1.034-2.86M291.706 40.5v.242h-5.522V40.5c.88 0 1.122-.198.638-1.056l-2.046-3.674-1.65 2.552c-.946 1.474-.264 2.134.902 2.134v.286h-4.048v-.286c.55 0 1.056-.484 1.76-1.562l2.596-3.938-2.508-4.51c-.792-1.43-1.144-1.694-1.584-1.694v-.242h5.368v.242c-.748 0-1.012.198-.528 1.056l1.738 3.146 1.254-1.936c1.034-1.562.44-2.222-.594-2.222v-.286h3.718v.286c-.55 0-.88.396-1.804 1.76l-2.112 3.234 2.794 5.016c.77 1.408 1.166 1.694 1.628 1.694m3.414 4.752c-1.078 0-2.068-.682-2.068-1.76 0-.88.616-1.298 1.298-1.298.924 0 1.408.836 2.046.836.462 0 1.034-.374 1.584-1.87l.11-.33-4.136-10.472c-.44-1.144-.638-1.562-1.232-1.562v-.286h5.588v.286c-.88 0-1.276.418-.858 1.54l2.244 6.072 1.716-4.752c.726-2.024.22-2.86-1.012-2.86v-.286h3.762v.286c-.528 0-1.034.858-1.584 2.376l-3.454 9.328c-1.32 3.542-2.2 4.752-4.004 4.752m19.799-16.742v.286l-5.918 11.022h1.826c2.486 0 3.322-.396 3.432-3.212h.352v4.136h-9.46v-.286l5.918-11.022h-2.112c-2.046 0-2.684.484-2.75 2.794h-.352V28.51zM2.024 50.948c-.44.11-1.166.242-1.628.264v-.286C2.574 50.134 4.158 48.968 5.06 48h.484v14.718c0 1.606.396 1.738 1.452 1.738v.286H.528v-.286c1.232 0 1.496-.132 1.496-1.738zm6.715 13.794v-.858c1.474-1.43 2.2-2.2 3.234-3.3 2.332-2.42 3.476-4.598 3.476-7.04 0-2.002-.968-3.41-2.904-3.41-1.65 0-2.574 1.32-3.102 2.838l-.418-.11C9.575 50.288 11.357 48 14.393 48c2.926 0 4.532 1.936 4.532 4.29 0 3.168-2.596 5.258-6.006 8.536-.286.286-.66.66-1.122 1.1h3.828c2.53 0 2.882-.352 3.19-1.936h.352l-.682 4.752zm15.479-7.832-.22-.352c2.024-1.386 3.542-2.706 3.542-4.378 0-1.43-.902-2.222-2.31-2.222-1.43 0-2.332.946-2.86 2.112l-.418-.088C22.678 49.694 24.108 48 26.748 48c2.552 0 3.85 1.474 3.85 3.124 0 1.672-1.716 2.772-3.168 3.498 2.706.308 4.598 1.958 4.598 4.532 0 3.146-2.684 5.742-6.358 5.742-2.772 0-4.532-1.452-4.532-3.19 0-1.21.726-1.672 1.562-1.672.902 0 1.254.55 1.364 1.628.176 1.716.55 2.464 2.024 2.464 1.408 0 2.596-1.342 2.596-3.894 0-2.31-1.232-3.718-3.08-3.718-.682 0-1.056.198-1.386.396m20.726 7.546v.286h-6.468v-.286c1.078 0 1.452-.132 1.452-1.738v-2.112H33.9v-.792l8.778-11.77h.77v11.044h2.112v1.518h-2.112v2.112c0 1.606.352 1.738 1.496 1.738m-9.416-5.368h4.4v-6.006zm16.425 5.808c-2.75 0-4.51-1.43-4.51-3.014 0-1.21.726-1.672 1.562-1.672.902 0 1.254.572 1.364 1.628.176 1.606.572 2.288 1.87 2.288 1.738 0 2.794-1.54 2.772-3.696-.022-2.42-1.32-3.894-3.454-3.894-1.122 0-1.98.352-2.64 1.1h-.352l1.034-9.394h8.074l-.396 2.816h-7.084l-.418 3.674c.682-.462 1.694-.814 3.08-.814 3.168 0 5.434 1.892 5.434 5.06 0 3.234-2.354 5.918-6.336 5.918M72.2 58.934c0 3.696-2.53 6.05-5.852 6.05-3.366 0-5.918-2.574-5.918-6.688 0-6.402 5.038-9.658 9.9-10.296l.044.418c-2.662.968-6.006 2.75-6.38 7.964.792-1.166 2.068-2.2 3.96-2.2 2.75 0 4.246 2.068 4.246 4.752m-5.764-2.992c-1.188 0-1.914.858-2.464 1.672.044 4.4 1.166 6.534 2.684 6.534 1.298 0 2.068-1.496 2.068-4.092s-.792-4.114-2.288-4.114m16.833-7.7v.704l-6.182 15.796h-1.65l6.116-13.816h-4.928c-2.53 0-2.794.462-3.19 1.826h-.352l.638-4.51zm11.749 3.3c0 1.87-1.54 3.036-3.08 3.806 2.156 1.298 3.718 2.332 3.718 4.906 0 2.75-2.684 4.73-5.962 4.73-2.464 0-5.258-1.474-5.258-3.96 0-2.222 1.892-3.542 3.454-4.246-1.804-1.078-2.904-2.398-2.904-4.268 0-2.794 2.772-4.51 5.324-4.51 2.508 0 4.708 1.254 4.708 3.542m-7.48-.462c0 1.43 1.166 2.288 3.718 3.85.902-.726 1.474-1.672 1.474-3.058 0-1.892-1.056-3.014-2.728-3.014-1.54 0-2.464 1.034-2.464 2.222m-.462 9.526c0 2.068 1.188 3.52 3.014 3.52 1.76 0 2.882-1.078 2.882-2.552 0-1.342-1.254-2.64-4.356-4.378a4.43 4.43 0 0 0-1.54 3.41m10.319-6.556c0-3.542 2.53-6.05 5.874-6.05s5.896 2.53 5.896 6.688c0 6.512-5.082 9.658-10.538 10.296l-.044-.418c3.212-.946 6.622-2.838 6.996-7.92-.77 1.144-1.98 2.156-3.872 2.156-2.75 0-4.312-2.068-4.312-4.752m3.498-1.122c0 2.596.792 4.114 2.288 4.114 1.166 0 1.892-.836 2.442-1.628-.044-4.422-1.122-6.578-2.684-6.578-1.276 0-2.046 1.496-2.046 4.092m17.051 12.056c-3.322-.022-6.6-3.146-6.6-8.47 0-5.566 3.102-8.514 6.578-8.514 3.168 0 6.622 3.19 6.622 8.514 0 5.566-2.992 8.492-6.6 8.47m.594-.814c1.408 0 2.486-1.188 2.486-4.84 0-4.774-.99-10.494-3.696-10.494-1.364 0-2.464 1.188-2.464 4.862 0 4.708 1.012 10.472 3.674 10.472m8.262-13.156c-.484-2.2.682-3.102 1.804-3.102 1.1 0 2.288.902 1.804 3.102l-1.628 8.47h-.352zm1.804 13.882c-1.056 0-1.848-.77-1.848-1.804s.792-1.804 1.848-1.804c1.1 0 1.848.77 1.848 1.804s-.748 1.804-1.848 1.804m7.911-16.17c-.814 0-.902.594-1.1 2.134-.132 1.166-.462 1.782-1.496 1.782s-1.518-.638-1.518-1.54c0-2.024 1.98-3.19 4.4-3.168 3.542.022 4.95 1.804 4.95 3.652 0 2.156-1.32 3.102-3.102 4.4-1.32.968-2.662 1.936-3.014 3.498h-.352c-.242-2.112.682-3.63 1.584-4.906.704-.968 1.408-1.826 1.408-3.3 0-1.584-.77-2.552-1.76-2.552m-.55 16.17c-1.056 0-1.848-.77-1.848-1.804s.792-1.804 1.848-1.804c1.1 0 1.848.77 1.848 1.804s-.748 1.804-1.848 1.804m15.448-.814c-1.606 0-2.904-1.144-2.904-3.322 0-4.378 4.026-7.854 7.172-7.854.946 0 1.54.308 1.914.792l.22-.66h3.19l-2.442 7.524c-.44 1.386-.396 1.98.616 1.98 2.112 0 4.488-2.596 4.488-6.556 0-5.214-3.476-7.194-7.304-7.194-5.478 0-10.692 4.4-10.692 10.802 0 6.182 3.63 8.536 8.426 8.536 2.508 0 4.686-.704 5.962-1.672l.22.286c-1.122 1.122-3.63 2.398-6.82 2.398-5.39 0-9.878-2.926-9.878-8.822 0-7.282 6.402-12.276 12.782-12.298 4.796 0 8.8 2.31 8.8 7.216 0 5.126-3.938 8.844-7.744 8.844-1.54 0-2.464-.77-2.398-2.2-.88 1.232-2.09 2.2-3.608 2.2m.528-3.52c0 .858.396 1.496 1.166 1.496.88 0 1.584-.748 2.288-1.892l1.628-4.818c-.132-1.078-.638-1.628-1.364-1.628-1.672 0-3.718 3.3-3.718 6.842m15.15-2.75h2.31l.726-2.948h-2.134v-2.2h2.662l1.078-4.422h.858l-1.078 4.422h2.816l1.078-4.422h.88l-1.078 4.422h1.76v2.2h-2.288l-.726 2.948h2.112v2.2h-2.64l-1.144 4.73h-.88l1.144-4.73h-2.816l-1.144 4.73h-.858l1.144-4.73h-1.782zm3.168 0h2.816l.726-2.948h-2.816zm13.865-11.132h.638v1.342c2.662.154 4.334 1.43 4.334 2.838 0 1.078-.638 1.518-1.452 1.518-.836 0-1.276-.528-1.386-1.496-.154-1.298-.418-1.892-1.496-2.024v5.412l1.672 1.012c2.134 1.276 3.168 2.618 3.168 4.796 0 2.574-2.068 4.752-5.346 4.862v2.156h-.638V64.94c-2.948-.11-4.774-1.562-4.774-3.234 0-1.21.704-1.672 1.54-1.672.902 0 1.254.55 1.364 1.628.154 1.562.638 2.31 1.87 2.442v-6.336l-1.584-.946c-1.98-1.21-2.948-2.486-2.948-4.334 0-2.706 2.464-4.422 5.038-4.488zm-2.09 4.4c0 1.276.88 2.046 2.09 2.794v-5.038c-1.166.066-2.09.836-2.09 2.244m2.222 7.062v5.984c1.408-.132 2.134-1.254 2.134-2.816 0-1.276-.462-2.134-2.134-3.168m10.857-2.002c-1.496 0-3.674-1.1-3.674-4.07 0-2.948 2.178-4.07 3.674-4.07 1.452 0 3.696 1.122 3.696 4.07 0 2.97-2.112 4.07-3.696 4.07m8.47-7.898h1.078l-11.044 16.5h-1.078zm-8.228 7.172c.44 0 1.056-.396 1.056-2.332 0-2.178-.44-4.356-1.496-4.356-.484 0-1.056.44-1.056 2.31 0 2.046.396 4.378 1.496 4.378m6.71 9.526c-1.518 0-3.674-1.1-3.674-4.07 0-2.948 2.156-4.07 3.674-4.07 1.452 0 3.696 1.122 3.696 4.07 0 2.97-2.112 4.07-3.696 4.07m.22-.726c.462 0 1.056-.396 1.056-2.332 0-2.178-.418-4.356-1.496-4.356-.484 0-1.034.44-1.034 2.31 0 2.046.374 4.378 1.474 4.378m12.267-9.79-2.882-4.994-2.904 4.994h-1.012l3.696-6.38h.44l3.696 6.38zm15.495 7.964c1.012 1.562 1.474 1.958 2.266 2.068v.286h-4.488l-.814-1.21c-1.1.792-2.442 1.364-3.982 1.364-3.344 0-5.324-1.87-5.324-4.51 0-2.332 1.804-3.938 3.938-4.752-.88-1.056-1.408-2.266-1.408-3.564 0-2.508 2.134-3.982 4.554-3.982s4.158 1.232 4.158 3.256c0 1.804-1.474 3.08-3.586 3.872l3.344 5.126c.572-1.056.99-2.42.99-3.498 0-.704-.33-1.056-1.364-1.056v-.286h3.938v.286c-.66 0-1.078.44-1.496 1.606-.44 1.232-.814 2.53-1.562 3.74zm-6.754-11.242c0 1.276.682 2.486 1.54 3.454.902-.55 1.562-1.408 1.562-2.97 0-1.738-.66-2.684-1.54-2.684-.924 0-1.562.814-1.562 2.2m-2.332 7.81c0 2.53 1.518 4.4 3.63 4.4.682 0 1.32-.22 1.914-.572l-4.312-6.49c-.66.594-1.232 1.364-1.232 2.662m14.703-5.148c-.44 0-.968-.44-.968-.902 0-.33.264-.704.836-1.056l1.144-.682-1.32.088c-.946.088-1.43-.242-1.43-.88 0-.44.33-.858.814-.858.352 0 .682.176 1.034.484l1.012.858-.528-1.232c-.44-1.1-.044-1.672.704-1.672s1.1.572.66 1.672l-.528 1.232 1.012-.858c.352-.308.682-.484 1.056-.484.462 0 .792.418.792.858 0 .638-.462.968-1.43.88l-1.32-.088 1.144.682c.594.352.836.726.836 1.056 0 .462-.528.902-.968.902-.418 0-.77-.352-.946-1.166l-.33-1.364-.308 1.364c-.198.814-.55 1.166-.968 1.166m6.328 4.07c0-4.202 2.222-7.898 5.346-10.648l.396.286c-1.936 3.036-2.772 6.578-2.772 10.362s.836 7.326 2.772 10.362l-.396.286c-3.124-2.75-5.346-6.446-5.346-10.648m13 0c0 4.202-2.2 7.898-5.346 10.648l-.374-.286c1.914-3.036 2.75-6.578 2.75-10.362s-.836-7.326-2.75-10.362l.374-.286c3.146 2.75 5.346 6.446 5.346 10.648m8.006 10.164h-4.928V47.34h4.928v.286c-1.914 0-2.288.11-2.288 1.738v16.654c0 1.606.374 1.738 2.288 1.738zm1.645 0v-.286c1.914 0 2.288-.132 2.288-1.738V49.364c0-1.628-.374-1.738-2.288-1.738v-.286h4.928v20.702zm9.764-10.274c1.518.286 2.42 1.1 2.42 2.42 0 1.276-.946 3.784-.946 5.17 0 1.408.572 2.09 2.332 2.398l-.044.396c-3.3-.264-4.972-1.364-4.972-3.366 0-1.804 1.386-3.806 1.386-5.148 0-.814-.484-1.584-2.332-1.76v-.264c1.848-.176 2.332-.946 2.332-1.76 0-1.342-1.386-3.19-1.386-5.148 0-2.002 1.672-3.102 4.972-3.366l.044.396c-1.76.308-2.332.99-2.332 2.398 0 1.386.946 3.894.946 5.17 0 1.32-.902 2.134-2.42 2.42zm9.305 0v-.044c-1.518-.286-2.42-1.1-2.42-2.42 0-1.276.946-3.784.946-5.17 0-1.408-.55-2.09-2.332-2.398l.044-.396c3.3.264 4.972 1.364 4.972 3.366 0 1.958-1.386 3.806-1.386 5.148 0 .814.506 1.584 2.354 1.76v.264c-1.848.176-2.354.946-2.354 1.76 0 1.342 1.386 3.344 1.386 5.148 0 2.002-1.672 3.102-4.972 3.366l-.044-.396c1.782-.308 2.332-.99 2.332-2.398 0-1.386-.946-3.894-.946-5.17 0-1.32.902-2.134 2.42-2.42m12.077 2.376v.946l-7.92-4.026v-.44l7.92-4.026v.946l-6.578 3.3zm10.729-3.08-7.92 4.026v-.946l6.578-3.3-6.578-3.3v-.946l7.92 4.026zm2.545-.836h5.368v2.244h-5.368zm11.934 5.17v-4.224h-3.74v-.88h3.74V52.07h.968v4.224h3.74v.88h-3.74v4.224z"/></svg>