<svg xmlns="http://www.w3.org/2000/svg" width="596" height="32" fill="none" viewBox="0 0 596 32"><path fill="#000" d="M11.296 15.424H9.28l-1.536 7.2c-.512 2.336.128 2.528 1.6 2.528l-.128.416H0l.096-.416c1.44 0 2.016-.192 2.528-2.528l3.84-18.112c.512-2.368 0-2.528-1.44-2.528l.096-.416h8.8c4.704 0 7.968 2.144 7.968 6.016 0 4.512-4 7.84-10.592 7.84m2.016-12.608h-1.376l-2.4 11.36h2.144c3.584 0 5.28-3.136 5.28-7.072 0-2.848-1.312-4.288-3.648-4.288m7.308 22.752 3.104-12.544c.544-2.144.288-2.464-.928-2.336l.096-.416 7.168-2.88-1.056 4.192c1.568-2.688 3.04-4.192 4.704-4.192 1.248 0 2.112.864 2.112 2.272 0 1.632-1.12 2.944-2.4 2.944-1.216 0-1.696-1.216-2.56-1.216-.672 0-1.472.928-2.368 2.304l-2.976 11.872zm20.412.256c-3.424 0-6.144-2.816-6.144-7.008C34.888 12.608 39.784 7.52 45 7.52c2.88 0 4.96 1.6 4.96 3.744 0 2.624-2.752 4.704-9.824 5.728v.768c0 2.72 1.184 4.48 3.584 4.48 2.016 0 3.776-1.504 5.152-4l.416.16c-1.376 3.904-4.032 7.424-8.256 7.424m3.104-17.152c-1.632 0-3.488 3.04-3.904 7.296 3.904-.864 5.28-2.336 5.28-5.12 0-1.28-.48-2.176-1.376-2.176m5.578 16.896 3.104-12.544c.544-2.144.288-2.464-.928-2.336l.096-.416 7.168-2.88-1.056 4.224c2.4-2.528 4.448-4.224 6.432-4.224 2.016 0 3.008 1.76 2.752 4.192 2.56-2.688 4.512-4.192 6.432-4.192 2.464 0 3.264 2.56 2.528 5.344l-2.656 9.632c-.224.864-.032 1.152.416 1.152.384 0 .928-.192 1.504-.544l.192.384c-1.632 1.312-3.584 2.496-5.568 2.496-1.408 0-2.144-.736-1.632-2.688l2.88-10.464c.352-1.312.192-2.176-.64-2.176-.928 0-2.4 1.088-3.776 2.656l-3.104 12.384h-4.896l3.2-12.832c.352-1.344.256-2.208-.608-2.208-1.056 0-2.656 1.344-3.872 2.752L54.61 25.568zm34.232-18.88c-1.536 0-2.528-.896-2.528-2.304 0-1.728 1.472-3.136 3.296-3.136 1.472 0 2.528.896 2.528 2.336 0 1.632-1.504 3.104-3.296 3.104m2.176.704L82.314 22.56c-.192.864-.032 1.28.448 1.28.448 0 .992-.32 1.504-.64l.192.352c-1.344 1.184-3.328 2.304-5.312 2.304-1.728 0-2.208-1.216-1.792-2.944l2.432-9.888c.544-2.144.288-2.464-.928-2.336l.096-.416zm14.223 15.168c-.224.864-.032 1.28.448 1.28.448 0 .992-.32 1.504-.64l.192.352c-1.344 1.184-3.232 2.304-5.184 2.304-1.696 0-2.432-1.088-1.664-4.128l.032-.096c-1.92 2.304-4.256 4.224-6.528 4.224-2.496 0-3.36-2.304-2.592-5.248l1.888-7.584c.512-2.08.288-2.464-.928-2.336l.064-.416 7.168-2.88-3.232 13.024c-.416 1.664-.16 2.272.768 2.272.96 0 2.528-1.216 3.84-2.88l3.04-12.032h4.896zm3.087 3.008 3.104-12.544c.544-2.144.288-2.464-.928-2.336l.096-.416 7.168-2.88-1.056 4.224c2.4-2.528 4.448-4.224 6.432-4.224 2.016 0 3.008 1.76 2.752 4.192 2.56-2.688 4.512-4.192 6.432-4.192 2.464 0 3.264 2.56 2.528 5.344l-2.656 9.632c-.224.864-.032 1.152.416 1.152.384 0 .928-.192 1.504-.544l.192.384c-1.632 1.312-3.584 2.496-5.568 2.496-1.408 0-2.144-.736-1.632-2.688l2.88-10.464c.352-1.312.192-2.176-.64-2.176-.928 0-2.4 1.088-3.776 2.656l-3.104 12.384h-4.896l3.2-12.832c.352-1.344.256-2.208-.608-2.208-1.056 0-2.656 1.344-3.872 2.752l-3.072 12.288zm37.843-.928c1.632 0 2.592-1.056 2.592-2.496 0-3.328-5.536-4.704-5.536-9.248 0-3.456 2.784-5.408 5.952-5.408 2.016 0 3.264 1.024 3.968 1.024.384 0 .576-.288.704-.736h.48l-1.12 5.376h-.48c.16-2.848-1.568-4.512-3.488-4.512-1.472 0-2.208.8-2.208 2.048 0 3.04 5.824 4.8 5.824 9.248 0 3.264-2.592 5.888-6.848 5.888-2.368 0-3.648-1.152-4.288-1.152-.48 0-.768.512-.928.896h-.48l1.28-6.016h.48c-.192 3.296 1.632 5.088 4.096 5.088m22.508-2.08c-.224.864-.032 1.28.448 1.28.448 0 .992-.32 1.504-.64l.192.352c-1.344 1.184-3.232 2.304-5.184 2.304-1.696 0-2.432-1.088-1.664-4.128l.032-.096c-1.92 2.304-4.256 4.224-6.528 4.224-2.496 0-3.36-2.304-2.592-5.248l1.888-7.584c.512-2.08.288-2.464-.928-2.336l.064-.416 7.168-2.88-3.232 13.024c-.416 1.664-.16 2.272.768 2.272.96 0 2.528-1.216 3.84-2.88l3.04-12.032h4.896zm2.095 7.232 4.096-16.768c.544-2.144.288-2.464-.928-2.336l.096-.416 7.168-2.88-.896 3.616c1.728-2.112 3.776-3.488 5.632-3.488 2.56 0 4.288 2.176 4.288 5.472 0 7.072-5.184 12.832-10.624 12.832-1.152 0-2.08-.192-2.816-.544l-1.024 4.128c-.416 1.696.064 2.016 1.216 2.016l-.096.384h-7.712l.064-.384c.8 0 1.216-.32 1.536-1.632m12.48-19.328c-.896 0-2.208.736-3.392 2.304l-2.464 10.016c.384 1.312 1.12 1.888 2.016 1.888 2.816 0 5.728-5.536 5.728-11.072 0-1.984-.608-3.136-1.888-3.136m5.989 19.328 4.096-16.768c.544-2.144.288-2.464-.928-2.336l.096-.416 7.168-2.88-.896 3.616c1.728-2.112 3.776-3.488 5.632-3.488 2.56 0 4.288 2.176 4.288 5.472 0 7.072-5.184 12.832-10.624 12.832-1.152 0-2.08-.192-2.816-.544l-1.024 4.128c-.416 1.696.064 2.016 1.216 2.016l-.096.384h-7.712l.064-.384c.8 0 1.216-.32 1.536-1.632m12.48-19.328c-.896 0-2.208.736-3.392 2.304l-2.464 10.016c.384 1.312 1.12 1.888 2.016 1.888 2.816 0 5.728-5.536 5.728-11.072 0-1.984-.608-3.136-1.888-3.136M214.847 0l-5.44 22.56c-.224.928 0 1.28.448 1.28.48 0 .992-.32 1.504-.64l.192.352c-1.344 1.184-3.296 2.304-5.312 2.304-1.696 0-2.208-1.184-1.76-3.008l4.096-17.408c.448-1.856.288-2.112-1.088-1.984l.064-.416zm4.497 25.824c-3.424 0-6.144-2.816-6.144-7.008 0-6.208 4.896-11.296 10.112-11.296 2.88 0 4.96 1.6 4.96 3.744 0 2.624-2.752 4.704-9.824 5.728v.768c0 2.72 1.184 4.48 3.584 4.48 2.016 0 3.776-1.504 5.152-4l.416.16c-1.376 3.904-4.032 7.424-8.256 7.424m3.104-17.152c-1.632 0-3.488 3.04-3.904 7.296 3.904-.864 5.28-2.336 5.28-5.12 0-1.28-.48-2.176-1.376-2.176m5.578 16.896 3.104-12.544c.544-2.144.288-2.464-.928-2.336l.096-.416 7.168-2.88-1.056 4.224c2.4-2.528 4.448-4.224 6.432-4.224 2.016 0 3.008 1.76 2.752 4.192 2.56-2.688 4.512-4.192 6.432-4.192 2.464 0 3.264 2.56 2.528 5.344l-2.656 9.632c-.224.864-.032 1.152.416 1.152.384 0 .928-.192 1.504-.544l.192.384c-1.632 1.312-3.584 2.496-5.568 2.496-1.408 0-2.144-.736-1.632-2.688l2.88-10.464c.352-1.312.192-2.176-.64-2.176-.928 0-2.4 1.088-3.776 2.656l-3.104 12.384h-4.896l3.2-12.832c.352-1.344.256-2.208-.608-2.208-1.056 0-2.656 1.344-3.872 2.752l-3.072 12.288zm33.881.256c-3.424 0-6.144-2.816-6.144-7.008 0-6.208 4.896-11.296 10.112-11.296 2.88 0 4.96 1.6 4.96 3.744 0 2.624-2.752 4.704-9.824 5.728v.768c0 2.72 1.184 4.48 3.584 4.48 2.016 0 3.776-1.504 5.152-4l.416.16c-1.376 3.904-4.032 7.424-8.256 7.424m3.104-17.152c-1.632 0-3.488 3.04-3.904 7.296 3.904-.864 5.28-2.336 5.28-5.12 0-1.28-.48-2.176-1.376-2.176m5.578 16.896 3.104-12.544c.544-2.144.288-2.464-.928-2.336l.096-.416 7.168-2.88-1.088 4.32c2.688-2.752 4.832-4.32 6.848-4.32 2.464 0 3.264 2.56 2.496 5.344l-2.656 9.632c-.224.864 0 1.152.416 1.152.384 0 .96-.192 1.536-.544l.192.384c-1.664 1.312-3.616 2.496-5.568 2.496-1.44 0-2.176-.736-1.632-2.688l2.848-10.464c.384-1.376.256-2.144-.64-2.144-1.024 0-2.688 1.152-4.256 2.848l-3.04 12.16zm28.715-5.216c-.928 3.008-2.656 5.536-5.728 5.536-2.528 0-4.384-2.016-3.328-6.144l2.656-10.592h-1.472l.096-.384c2.368-.576 5.312-2.944 7.136-6.784h.768l-1.376 5.792h3.68l-.288 1.376h-3.744l-2.688 11.264c-.512 2.08.032 2.816.928 2.816 1.056 0 1.984-.832 2.976-2.976zm6.002 4.288c1.632 0 2.592-1.056 2.592-2.496 0-3.328-5.536-4.704-5.536-9.248 0-3.456 2.784-5.408 5.952-5.408 2.016 0 3.264 1.024 3.968 1.024.384 0 .576-.288.704-.736h.48l-1.12 5.376h-.48c.16-2.848-1.568-4.512-3.488-4.512-1.472 0-2.208.8-2.208 2.048 0 3.04 5.824 4.8 5.824 9.248 0 3.264-2.592 5.888-6.848 5.888-2.368 0-3.648-1.152-4.288-1.152-.48 0-.768.512-.928.896h-.48l1.28-6.016h.48c-.192 3.296 1.632 5.088 4.096 5.088m9.512 1.504c0-.864-1.856-1.12-1.856-2.944 0-1.472 1.088-2.656 2.784-2.656 1.568 0 2.496 1.216 2.496 2.656 0 2.624-2.08 4.864-6.528 6.08l-.128-.48c2.272-.896 3.232-1.984 3.232-2.656m21.051-17.44c-2.4 0-4.704 3.712-4.704 8.576 0 3.168 1.44 4.768 3.584 4.768 1.76 0 3.488-.96 4.992-3.808l.416.16c-1.504 4.736-4.128 7.456-7.904 7.456-3.84 0-6.24-2.752-6.24-6.784 0-6.368 5.088-11.552 10.144-11.552 3.424 0 5.248 2.016 5.248 4.192 0 1.568-.768 2.688-2.4 2.688-1.312 0-2.08-.736-2.08-2.304-.032-1.632.96-3.392-1.056-3.392m5.063 16.864 3.104-12.544c.544-2.144.288-2.464-.928-2.336l.096-.416 7.168-2.88-1.056 4.192c1.568-2.688 3.04-4.192 4.704-4.192 1.248 0 2.112.864 2.112 2.272 0 1.632-1.12 2.944-2.4 2.944-1.216 0-1.696-1.216-2.56-1.216-.672 0-1.472.928-2.368 2.304l-2.976 11.872zm17.736.256c-2.176 0-4-2.08-4-5.44 0-7.232 5.344-12.864 10.24-12.864 1.312 0 2.304.608 2.848 1.44l.384-1.184h4.256l-3.648 14.592c-.224.864-.064 1.152.416 1.152.448 0 .992-.192 1.504-.544l.192.384c-1.632 1.312-3.584 2.496-5.376 2.496-1.44 0-2.08-1.056-1.568-3.392-1.536 2.112-3.296 3.36-5.248 3.36m1.088-6.048c0 2.112.64 3.104 1.6 3.104 1.056 0 2.048-.928 3.072-2.528l2.56-10.208c-.384-.96-1.056-1.504-1.856-1.504-2.432 0-5.376 5.312-5.376 11.136m13.647 3.04 2.464-13.664h-1.76l.32-1.376h1.696l.16-.864c.864-4.736 3.392-6.72 6.24-6.72 1.792 0 3.392 1.056 3.392 2.624 0 .96-.544 2.016-1.952 2.016-2.112 0-1.76-3.328-3.104-3.328-.576 0-.96.704-.96 1.632 0 1.344.672 2.688.832 4.64h3.36l-.32 1.376h-3.04c-.064.448-.128.96-.224 1.472l-2.208 10.816c-1.152 5.632-3.84 10.496-7.52 10.496-2.08 0-3.296-1.12-3.296-2.528 0-1.152.704-1.824 1.792-1.824 1.952 0 1.824 2.976 2.688 2.976 1.088 0 .48-2.56 1.44-7.744m18.432-2.464c-.928 3.008-2.656 5.536-5.728 5.536-2.528 0-4.384-2.016-3.328-6.144l2.656-10.592h-1.472l.096-.384c2.368-.576 5.312-2.944 7.136-6.784h.768l-1.376 5.792h3.68l-.288 1.376h-3.744l-2.688 11.264c-.512 2.08.032 2.816.928 2.816 1.056 0 1.984-.832 2.976-2.976zm7.322 5.472c-3.424 0-6.144-2.816-6.144-7.008 0-6.208 4.896-11.296 10.112-11.296 2.88 0 4.96 1.6 4.96 3.744 0 2.624-2.752 4.704-9.824 5.728v.768c0 2.72 1.184 4.48 3.584 4.48 2.016 0 3.776-1.504 5.152-4l.416.16c-1.376 3.904-4.032 7.424-8.256 7.424m3.104-17.152c-1.632 0-3.488 3.04-3.904 7.296 3.904-.864 5.28-2.336 5.28-5.12 0-1.28-.48-2.176-1.376-2.176m10.634 17.152c-2.528 0-4.352-2.08-4.352-5.504 0-7.232 5.312-12.8 10.496-12.8 1.216 0 2.08.288 2.752.768l.672-2.848c.448-1.888.288-2.144-1.248-1.984l.064-.416L428.735 0l-5.504 22.496c-.224.928 0 1.344.448 1.344.48 0 .992-.32 1.504-.64l.192.352c-1.344 1.216-3.2 2.304-5.152 2.304-1.664 0-2.368-1.248-1.856-3.424l.032-.16c-1.76 2.304-3.744 3.552-5.504 3.552m.736-6.048c0 2.048.64 3.104 1.792 3.104 1.088 0 2.432-1.024 3.488-2.656l2.432-10.144c-.512-.96-1.312-1.44-2.144-1.44-2.72 0-5.568 5.632-5.568 11.136m19.772 3.04 2.464-13.664h-1.76l.32-1.376h1.696l.16-.864c.864-4.736 3.392-6.72 6.24-6.72 1.792 0 3.392 1.056 3.392 2.624 0 .96-.544 2.016-1.952 2.016-2.112 0-1.76-3.328-3.104-3.328-.576 0-.96.704-.96 1.632 0 1.344.672 2.688.832 4.64h3.36l-.32 1.376h-3.04c-.064.448-.128.96-.224 1.472l-2.208 10.816c-1.152 5.632-3.84 10.496-7.52 10.496-2.08 0-3.296-1.12-3.296-2.528 0-1.152.704-1.824 1.792-1.824 1.952 0 1.824 2.976 2.688 2.976 1.088 0 .48-2.56 1.44-7.744m15.424 3.008c-3.616 0-6.752-2.496-6.752-7.168 0-6.016 4.768-11.136 10.144-11.136 3.648 0 6.784 2.464 6.784 7.072 0 6.048-4.608 11.232-10.176 11.232m-1.824-5.664c0 2.72.704 4.48 2.272 4.48 2.624 0 4.8-6.848 4.8-11.52 0-2.848-.704-4.416-2.112-4.416-2.56 0-4.96 6.24-4.96 11.456m12.054 5.408 3.104-12.544c.544-2.144.288-2.464-.928-2.336l.096-.416 7.168-2.88-1.056 4.192c1.568-2.688 3.04-4.192 4.704-4.192 1.248 0 2.112.864 2.112 2.272 0 1.632-1.12 2.944-2.4 2.944-1.216 0-1.696-1.216-2.56-1.216-.672 0-1.472.928-2.368 2.304l-2.976 11.872zm31.474-13.952c-.416-1.44-.608-1.536-1.536-1.28l-.096-.384 5.344-2.56c1.28 2.72 2.08 8.448 1.856 13.536 2.496-2.88 4.32-5.984 4.32-7.616 0-1.504-1.76-2.24-1.76-3.936 0-1.248.992-2.016 2.176-2.016 1.568 0 2.208 1.152 2.208 2.528 0 4.896-5.12 11.328-10.144 15.936h-1.44c.096-3.264.096-5.952-.032-8.192-1.92 2.848-4.544 5.824-7.2 8.192h-1.408c.224-6.88-.448-11.264-1.28-14.208-.384-1.44-.608-1.536-1.504-1.28l-.096-.384 5.44-2.56c1.28 2.784 2.272 8.352 2.112 13.536 1.696-1.952 3.04-4.032 3.744-5.6-.16-1.472-.384-2.688-.704-3.712m18.688 14.208c-3.424 0-6.144-2.816-6.144-7.008 0-6.208 4.896-11.296 10.112-11.296 2.88 0 4.96 1.6 4.96 3.744 0 2.624-2.752 4.704-9.824 5.728v.768c0 2.72 1.184 4.48 3.584 4.48 2.016 0 3.776-1.504 5.152-4l.416.16c-1.376 3.904-4.032 7.424-8.256 7.424m3.104-17.152c-1.632 0-3.488 3.04-3.904 7.296 3.904-.864 5.28-2.336 5.28-5.12 0-1.28-.48-2.176-1.376-2.176M528.785 0l-5.44 22.56c-.224.928 0 1.28.448 1.28.48 0 .992-.32 1.504-.64l.192.352c-1.344 1.184-3.296 2.304-5.312 2.304-1.696 0-2.208-1.184-1.76-3.008l4.096-17.408c.448-1.856.288-2.112-1.088-1.984l.064-.416zm8.781 0-5.44 22.56c-.224.928 0 1.28.448 1.28.48 0 .992-.32 1.504-.64l.192.352c-1.344 1.184-3.296 2.304-5.312 2.304-1.696 0-2.208-1.184-1.76-3.008l4.096-17.408c.448-1.856.288-2.112-1.088-1.984l.064-.416zm-2.259 25.568 3.104-12.544c.544-2.144.288-2.464-.928-2.336l.096-.416 7.168-2.88-1.088 4.32c2.688-2.752 4.832-4.32 6.848-4.32 2.464 0 3.264 2.56 2.496 5.344l-2.656 9.632c-.224.864 0 1.152.416 1.152.384 0 .96-.192 1.536-.544l.192.384c-1.664 1.312-3.616 2.496-5.568 2.496-1.44 0-2.176-.736-1.632-2.688l2.848-10.464c.384-1.376.256-2.144-.64-2.144-1.024 0-2.688 1.152-4.256 2.848l-3.04 12.16zm25.1.256c-3.424 0-6.144-2.816-6.144-7.008 0-6.208 4.896-11.296 10.112-11.296 2.88 0 4.96 1.6 4.96 3.744 0 2.624-2.752 4.704-9.824 5.728v.768c0 2.72 1.184 4.48 3.584 4.48 2.016 0 3.776-1.504 5.152-4l.416.16c-1.376 3.904-4.032 7.424-8.256 7.424m3.104-17.152c-1.632 0-3.488 3.04-3.904 7.296 3.904-.864 5.28-2.336 5.28-5.12 0-1.28-.48-2.176-1.376-2.176m10.858 15.968c1.632 0 2.592-1.056 2.592-2.496 0-3.328-5.536-4.704-5.536-9.248 0-3.456 2.784-5.408 5.952-5.408 2.016 0 3.264 1.024 3.968 1.024.384 0 .576-.288.704-.736h.48l-1.12 5.376h-.48c.16-2.848-1.568-4.512-3.488-4.512-1.472 0-2.208.8-2.208 2.048 0 3.04 5.824 4.8 5.824 9.248 0 3.264-2.592 5.888-6.848 5.888-2.368 0-3.648-1.152-4.288-1.152-.48 0-.768.512-.928.896h-.48l1.28-6.016h.48c-.192 3.296 1.632 5.088 4.096 5.088m12.843 0c1.632 0 2.592-1.056 2.592-2.496 0-3.328-5.536-4.704-5.536-9.248 0-3.456 2.784-5.408 5.952-5.408 2.016 0 3.264 1.024 3.968 1.024.384 0 .576-.288.704-.736h.48l-1.12 5.376h-.48c.16-2.848-1.568-4.512-3.488-4.512-1.472 0-2.208.8-2.208 2.048 0 3.04 5.824 4.8 5.824 9.248 0 3.264-2.592 5.888-6.848 5.888-2.368 0-3.648-1.152-4.288-1.152-.48 0-.768.512-.928.896h-.48l1.28-6.016h.48c-.192 3.296 1.632 5.088 4.096 5.088"/></svg>