<svg xmlns="http://www.w3.org/2000/svg" width="597" height="32" fill="none" viewBox="0 0 597 32"><path fill="#000" d="M1.952 4.512c0-2.368-.544-2.528-1.952-2.528v-.416h8.96c5.376 0 9.472 1.92 9.472 6.464 0 3.84-3.04 7.392-9.76 7.392h-1.6v7.2c0 2.336.672 2.528 2.144 2.528v.416H0v-.416c1.408 0 1.952-.192 1.952-2.528zm6.464-1.696H7.072v11.36h1.792c3.424 0 4.48-2.08 4.48-5.312 0-3.904-1.824-6.048-4.928-6.048m18.801 22.752H19.41v-.384c.64 0 1.184-.32 1.184-2.016v-9.824c0-2.176 0-2.752-1.312-2.656v-.416l6.208-2.88v3.776c.992-2.016 2.688-3.776 4.32-3.776s2.528 1.12 2.528 2.848c0 1.344-.736 2.464-2.208 2.464-2.016 0-2.08-1.6-3.104-1.6-.48 0-1.024.576-1.536 1.504v10.56c0 1.696.512 2.016 1.728 2.016zm12.873.224c-4.864 0-7.744-3.872-7.744-8.736 0-5.888 4.224-9.536 8.288-9.536 4.256 0 6.752 2.88 6.976 7.392H37.178c.192 4.8 2.24 7.296 5.376 7.296 1.952 0 3.744-1.344 4.576-3.968l.448.16c-.768 4.864-3.392 7.392-7.488 7.392m-.128-17.088c-1.536 0-2.656 1.856-2.784 5.056h5.504c-.192-3.456-1.152-5.056-2.72-5.056m16.091 16.864h-7.487v-.384c.64 0 1.183-.32 1.183-2.016v-9.824c0-2.176 0-2.752-1.312-2.656v-.416l6.209-2.88v3.392c1.087-1.76 2.752-3.392 5.12-3.392 2.367 0 3.808 1.312 4.16 3.648 1.087-1.856 2.72-3.648 5.28-3.648 2.944 0 4.352 1.92 4.352 5.216v10.56c0 1.696.543 2.016 1.28 2.016v.384h-7.616v-.384c.896 0 1.44-.32 1.44-2.016V12.992c0-1.696-.609-2.432-1.889-2.432-1.248 0-2.08.96-2.687 1.888v10.72c0 1.696.543 2.016 1.44 2.016v.384h-7.744v-.384c.864 0 1.408-.32 1.408-2.016V12.992c0-1.696-.608-2.432-1.889-2.432-1.215 0-2.047.928-2.656 1.856v10.752c0 1.696.48 2.016 1.408 2.016zM79.34 6.688c-1.632 0-2.816-1.152-2.816-2.72 0-1.536 1.184-2.72 2.816-2.72 1.696 0 2.816 1.184 2.816 2.72 0 1.568-1.12 2.72-2.816 2.72m3.68 18.88h-7.36v-.384c.672 0 1.216-.32 1.216-2.016v-9.824c0-2.176-.032-2.752-1.344-2.656v-.416l6.24-2.88v15.776c0 1.696.512 2.016 1.248 2.016zm6.967-5.216c0 1.696.736 2.432 2.08 2.432 1.216 0 2.08-.736 2.72-1.504v-7.936c0-2.112 0-2.816-1.344-2.72v-.384l6.24-2.848v13.856c0 1.984 0 2.624 1.28 2.592v.384l-6.176 1.664v-3.04c-1.12 1.6-2.816 3.104-5.152 3.104-3.072 0-4.544-1.92-4.544-5.216v-7.392c0-2.112 0-2.816-1.344-2.72v-.384l6.24-2.848zm19.442 5.216h-7.488v-.384c.64 0 1.184-.32 1.184-2.016v-9.824c0-2.176 0-2.752-1.312-2.656v-.416l6.208-2.88v3.392c1.088-1.76 2.752-3.392 5.12-3.392s3.808 1.312 4.16 3.648c1.088-1.856 2.72-3.648 5.28-3.648 2.944 0 4.352 1.92 4.352 5.216v10.56c0 1.696.544 2.016 1.28 2.016v.384h-7.616v-.384c.896 0 1.44-.32 1.44-2.016V12.992c0-1.696-.608-2.432-1.888-2.432-1.248 0-2.08.96-2.688 1.888v10.72c0 1.696.544 2.016 1.44 2.016v.384h-7.744v-.384c.864 0 1.408-.32 1.408-2.016V12.992c0-1.696-.608-2.432-1.888-2.432-1.216 0-2.048.928-2.656 1.856v10.752c0 1.696.48 2.016 1.408 2.016zm33.456-3.424c0-1.408-.608-1.984-2.464-3.072l-2.112-1.248c-2.432-1.408-3.456-3.072-3.456-5.12 0-3.52 2.688-5.248 5.632-5.248 2.496 0 3.68 1.056 4.32 1.056.384 0 .512-.288.544-.736h.48v5.376h-.48c-.448-2.784-2.56-4.544-4.672-4.544-1.408 0-2.368.736-2.368 2.048 0 1.152.8 1.856 2.56 2.88l2.112 1.28c2.56 1.472 4 2.976 4 5.536 0 3.168-2.528 5.44-6.336 5.44-2.752 0-3.904-1.056-4.544-1.056-.48 0-.672.448-.704.832h-.48v-6.016h.48c.416 3.36 2.72 5.056 4.928 5.056 1.696 0 2.56-1.056 2.56-2.464m10.915-1.792c0 1.696.736 2.432 2.08 2.432 1.216 0 2.08-.736 2.72-1.504v-7.936c0-2.112 0-2.816-1.344-2.72v-.384l6.24-2.848v13.856c0 1.984 0 2.624 1.28 2.592v.384l-6.176 1.664v-3.04c-1.12 1.6-2.816 3.104-5.152 3.104-3.072 0-4.544-1.92-4.544-5.216v-7.392c0-2.112 0-2.816-1.344-2.72v-.384l6.24-2.848zm20.978 5.44c-1.216 0-2.176-.192-2.976-.544v4.16c0 1.696.512 2.016 1.664 2.016v.384h-7.744v-.384c.64 0 1.184-.32 1.184-2.016V13.344c0-2.176.032-2.752-1.312-2.656v-.416l6.208-2.88v3.328c1.12-1.792 3.008-3.328 5.376-3.328 3.552 0 6.112 3.008 6.112 8.544 0 6.304-3.936 9.856-8.512 9.856m-2.976-5.664c0 2.784 1.504 4.48 3.392 4.48s3.2-1.888 3.2-5.824c0-4.608-1.024-8.32-3.648-8.32-1.504 0-2.304.992-2.944 1.888zm21.632 5.664c-1.216 0-2.176-.192-2.976-.544v4.16c0 1.696.512 2.016 1.664 2.016v.384h-7.744v-.384c.64 0 1.184-.32 1.184-2.016V13.344c0-2.176.032-2.752-1.312-2.656v-.416l6.208-2.88v3.328c1.12-1.792 3.008-3.328 5.376-3.328 3.552 0 6.112 3.008 6.112 8.544 0 6.304-3.936 9.856-8.512 9.856m-2.976-5.664c0 2.784 1.504 4.48 3.392 4.48s3.2-1.888 3.2-5.824c0-4.608-1.024-8.32-3.648-8.32-1.504 0-2.304.992-2.944 1.888zm19.812 5.44h-7.36v-.384c.672 0 1.216-.32 1.216-2.016V5.504c0-2.048 0-2.624-1.376-2.56V2.56L209.021 0v23.168c0 1.696.48 2.016 1.248 2.016zm8.602.224c-4.864 0-7.744-3.872-7.744-8.736 0-5.888 4.224-9.536 8.288-9.536 4.256 0 6.752 2.88 6.976 7.392h-10.432c.192 4.8 2.24 7.296 5.376 7.296 1.952 0 3.744-1.344 4.576-3.968l.448.16c-.768 4.864-3.392 7.392-7.488 7.392m-.128-17.088c-1.536 0-2.656 1.856-2.784 5.056h5.504c-.192-3.456-1.152-5.056-2.72-5.056m16.092 16.864h-7.488v-.384c.64 0 1.184-.32 1.184-2.016v-9.824c0-2.176 0-2.752-1.312-2.656v-.416l6.208-2.88v3.392c1.088-1.76 2.752-3.392 5.12-3.392s3.808 1.312 4.16 3.648c1.088-1.856 2.72-3.648 5.28-3.648 2.944 0 4.352 1.92 4.352 5.216v10.56c0 1.696.544 2.016 1.28 2.016v.384h-7.616v-.384c.896 0 1.44-.32 1.44-2.016V12.992c0-1.696-.608-2.432-1.888-2.432-1.248 0-2.08.96-2.688 1.888v10.72c0 1.696.544 2.016 1.44 2.016v.384h-7.744v-.384c.864 0 1.408-.32 1.408-2.016V12.992c0-1.696-.608-2.432-1.888-2.432-1.216 0-2.048.928-2.656 1.856v10.752c0 1.696.48 2.016 1.408 2.016zm27.317.224c-4.864 0-7.744-3.872-7.744-8.736 0-5.888 4.224-9.536 8.288-9.536 4.256 0 6.752 2.88 6.976 7.392H259.24c.192 4.8 2.24 7.296 5.376 7.296 1.952 0 3.744-1.344 4.576-3.968l.448.16c-.768 4.864-3.392 7.392-7.488 7.392m-.128-17.088c-1.536 0-2.656 1.856-2.784 5.056h5.504c-.192-3.456-1.152-5.056-2.72-5.056m16.22 16.864h-7.616v-.384c.64 0 1.184-.32 1.184-2.016v-9.824c0-2.176 0-2.752-1.312-2.656v-.416l6.208-2.88v3.552c1.152-1.76 2.88-3.552 5.504-3.552 3.104 0 4.544 1.984 4.544 5.216v10.56c0 1.696.544 2.016 1.28 2.016v.384h-7.648v-.384c.928 0 1.472-.32 1.472-2.016V12.992c0-1.632-.672-2.432-2.144-2.432s-2.368 1.056-3.008 1.984v10.624c0 1.696.48 2.016 1.536 2.016zm21.002-5.152c-.192 2.848-1.376 5.504-4.704 5.504-2.752 0-4.48-1.568-4.48-4.608V9.152h-1.504v-.416c2.112-.576 4.704-3.2 5.632-6.752h.768v5.792h3.872v1.376h-3.872v11.872c0 1.536.512 2.208 1.664 2.208 1.184 0 1.824-.992 2.272-2.88zm9.044 1.728c0-1.408-.608-1.984-2.464-3.072l-2.112-1.248c-2.432-1.408-3.456-3.072-3.456-5.12 0-3.52 2.688-5.248 5.632-5.248 2.496 0 3.68 1.056 4.32 1.056.384 0 .512-.288.544-.736h.48v5.376h-.48c-.448-2.784-2.56-4.544-4.672-4.544-1.408 0-2.368.736-2.368 2.048 0 1.152.8 1.856 2.56 2.88l2.112 1.28c2.56 1.472 4 2.976 4 5.536 0 3.168-2.528 5.44-6.336 5.44-2.752 0-3.904-1.056-4.544-1.056-.48 0-.672.448-.704.832h-.48v-6.016h.48c.416 3.36 2.72 5.056 4.928 5.056 1.696 0 2.56-1.056 2.56-2.464m7.683 4.096c0-.544-.32-.736-.96-.992-1.088-.448-1.696-.96-1.696-2.208 0-1.44 1.216-2.496 2.656-2.496 1.568 0 2.752 1.12 2.752 2.88 0 2.688-1.888 4.736-5.248 5.856l-.192-.48c1.728-.768 2.688-1.696 2.688-2.56m18.075-17.536c-1.952 0-3.776 1.856-3.776 5.696 0 4.96 2.208 7.648 5.536 7.648 2.016 0 3.488-1.248 4.384-3.808l.448.16c-.704 4.544-3.232 7.392-7.424 7.392-4.864 0-7.744-3.616-7.744-8.672 0-5.952 4.544-9.6 9.024-9.6 3.744 0 5.984 2.176 5.984 4.704 0 1.376-.992 2.432-2.464 2.432-1.536 0-2.176-.992-2.336-2.08-.288-2.112.544-3.872-1.632-3.872m15.325 16.864h-7.808v-.384c.64 0 1.184-.32 1.184-2.016v-9.824c0-2.176 0-2.752-1.312-2.656v-.416l6.208-2.88v3.776c.992-2.016 2.688-3.776 4.32-3.776s2.528 1.12 2.528 2.848c0 1.344-.736 2.464-2.208 2.464-2.016 0-2.08-1.6-3.104-1.6-.48 0-1.024.576-1.536 1.504v10.56c0 1.696.512 2.016 1.728 2.016zm10.266.384c-2.72 0-4.608-1.856-4.608-4.704 0-3.136 2.016-4.384 4.384-5.152 1.216-.384 2.528-.704 3.616-1.216.992-.512 1.696-1.408 1.696-3.424 0-1.856-.672-2.88-2.24-2.88-2.176 0-2.144 1.76-2.432 3.488-.192 1.344-.896 2.112-2.336 2.112-1.344 0-2.272-.896-2.272-2.176 0-2.496 2.816-4.608 7.424-4.608 3.744 0 6.432 1.472 6.432 5.504v9.184c0 .768.256 1.344.864 1.344.384 0 .736-.224 1.056-.736l.256.16c-.544 1.44-1.792 3.04-3.936 3.04-2.272 0-3.008-1.216-3.104-2.816-.992 1.504-2.56 2.88-4.8 2.88m.256-5.696c0 1.76.768 2.816 2.176 2.816.96 0 1.728-.576 2.368-1.44v-6.528c-.16.256-.48.608-1.024.96-.576.384-1.312.672-1.92 1.056-.96.608-1.6 1.536-1.6 3.136m11.286-11.104V7.776h1.824c-.928-5.312 1.664-7.584 4.672-7.584 1.92 0 3.776.992 3.776 2.88 0 1.024-.608 1.76-1.664 1.76-1.088 0-1.536-.64-1.984-1.824-.48-1.248-.768-1.536-1.248-1.536s-.8.384-.8 1.088c0 1.472 1.632 2.784 1.984 5.216h3.168v1.376h-3.104v14.016c0 1.696.576 2.016 1.664 2.016v.384h-7.872v-.384c.768 0 1.312-.32 1.312-2.016V9.152zm20.815 11.264c-.192 2.848-1.376 5.504-4.704 5.504-2.752 0-4.48-1.568-4.48-4.608V9.152h-1.504v-.416c2.112-.576 4.704-3.2 5.632-6.752h.768v5.792h3.872v1.376h-3.872v11.872c0 1.536.512 2.208 1.664 2.208 1.184 0 1.824-.992 2.272-2.88zm8.344 5.376c-4.864 0-7.744-3.872-7.744-8.736 0-5.888 4.224-9.536 8.288-9.536 4.256 0 6.752 2.88 6.976 7.392h-10.432c.192 4.8 2.24 7.296 5.376 7.296 1.952 0 3.744-1.344 4.576-3.968l.448.16c-.768 4.864-3.392 7.392-7.488 7.392m-.128-17.088c-1.536 0-2.656 1.856-2.784 5.056h5.504c-.192-3.456-1.152-5.056-2.72-5.056m14.936 17.088c-3.52 0-6.112-2.976-6.112-8.448 0-6.368 4.128-9.952 8.608-9.952 1.184 0 2.112.192 2.88.512v-2.4c0-2.048 0-2.624-1.344-2.56V2.56L425.42 0v21.248c0 2.048.032 2.624 1.312 2.592v.384l-6.208 1.664v-3.424c-1.12 1.792-3.04 3.328-5.376 3.328m-1.184-11.264c0 4.512 1.056 8.192 3.68 8.192 1.472 0 2.24-.992 2.88-1.888v-7.744c0-2.784-1.376-4.512-3.264-4.512-1.92 0-3.296 1.952-3.296 5.952m18.873-5.376V7.776h1.824c-.928-5.312 1.664-7.584 4.672-7.584 1.92 0 3.776.992 3.776 2.88 0 1.024-.608 1.76-1.664 1.76-1.088 0-1.536-.64-1.984-1.824-.48-1.248-.768-1.536-1.248-1.536s-.8.384-.8 1.088c0 1.472 1.632 2.784 1.984 5.216h3.168v1.376h-3.104v14.016c0 1.696.576 2.016 1.664 2.016v.384h-7.872v-.384c.768 0 1.312-.32 1.312-2.016V9.152zm18.051 16.64c-4.768 0-8.416-3.744-8.416-9.152 0-5.44 3.52-9.12 8.416-9.12 4.832 0 8.448 3.776 8.448 9.184 0 5.44-3.488 9.088-8.448 9.088m.832-1.152c1.536 0 2.688-1.696 2.688-4.64 0-5.024-1.248-11.296-4.256-11.296-1.632 0-2.752 1.6-2.752 4.544 0 4.96 1.312 11.392 4.32 11.392m16.497.928h-7.808v-.384c.64 0 1.184-.32 1.184-2.016v-9.824c0-2.176 0-2.752-1.312-2.656v-.416l6.208-2.88v3.776c.992-2.016 2.688-3.776 4.32-3.776s2.528 1.12 2.528 2.848c0 1.344-.736 2.464-2.208 2.464-2.016 0-2.08-1.6-3.104-1.6-.48 0-1.024.576-1.536 1.504v10.56c0 1.696.512 2.016 1.728 2.016zm30.356-17.376v-.416h5.504v.416c-.8 0-1.472 1.28-2.336 3.456l-5.664 14.176h-.352l-4.064-10.496-4.384 10.496h-.384l-6.176-15.36c-.64-1.664-.928-2.272-1.792-2.272v-.416h7.872v.416c-1.056 0-1.664.608-.992 2.24l3.136 8.064 2.048-4.896-1.216-3.136c-.64-1.664-.96-2.272-1.76-2.272v-.416h7.904v.416c-1.184 0-1.792.608-1.184 2.24l2.976 8 2.368-6.08c1.12-2.912.32-4.16-1.504-4.16m12.361 17.6c-4.864 0-7.744-3.872-7.744-8.736 0-5.888 4.224-9.536 8.288-9.536 4.256 0 6.752 2.88 6.976 7.392h-10.432c.192 4.8 2.24 7.296 5.376 7.296 1.952 0 3.744-1.344 4.576-3.968l.448.16c-.768 4.864-3.392 7.392-7.488 7.392m-.128-17.088c-1.536 0-2.656 1.856-2.784 5.056h5.504c-.192-3.456-1.152-5.056-2.72-5.056m15.963 16.864h-7.36v-.384c.672 0 1.216-.32 1.216-2.016V5.504c0-2.048 0-2.624-1.376-2.56V2.56L525.521 0v23.168c0 1.696.48 2.016 1.248 2.016zm8.406 0h-7.36v-.384c.672 0 1.216-.32 1.216-2.016V5.504c0-2.048 0-2.624-1.376-2.56V2.56L533.927 0v23.168c0 1.696.48 2.016 1.248 2.016zm8.663 0h-7.616v-.384c.64 0 1.184-.32 1.184-2.016v-9.824c0-2.176 0-2.752-1.312-2.656v-.416l6.208-2.88v3.552c1.152-1.76 2.88-3.552 5.504-3.552 3.104 0 4.544 1.984 4.544 5.216v10.56c0 1.696.544 2.016 1.28 2.016v.384h-7.648v-.384c.928 0 1.472-.32 1.472-2.016V12.992c0-1.632-.672-2.432-2.144-2.432s-2.368 1.056-3.008 1.984v10.624c0 1.696.48 2.016 1.536 2.016zm18.346.224c-4.864 0-7.744-3.872-7.744-8.736 0-5.888 4.224-9.536 8.288-9.536 4.256 0 6.752 2.88 6.976 7.392h-10.432c.192 4.8 2.24 7.296 5.376 7.296 1.952 0 3.744-1.344 4.576-3.968l.448.16c-.768 4.864-3.392 7.392-7.488 7.392m-.128-17.088c-1.536 0-2.656 1.856-2.784 5.056h5.504c-.192-3.456-1.152-5.056-2.72-5.056m17.015 13.44c0-1.408-.608-1.984-2.464-3.072l-2.112-1.248c-2.432-1.408-3.456-3.072-3.456-5.12 0-3.52 2.688-5.248 5.632-5.248 2.496 0 3.68 1.056 4.32 1.056.384 0 .512-.288.544-.736h.48v5.376h-.48c-.448-2.784-2.56-4.544-4.672-4.544-1.408 0-2.368.736-2.368 2.048 0 1.152.8 1.856 2.56 2.88l2.112 1.28c2.56 1.472 4 2.976 4 5.536 0 3.168-2.528 5.44-6.336 5.44-2.752 0-3.904-1.056-4.544-1.056-.48 0-.672.448-.704.832h-.48v-6.016h.48c.416 3.36 2.72 5.056 4.928 5.056 1.696 0 2.56-1.056 2.56-2.464m13.219 0c0-1.408-.608-1.984-2.464-3.072l-2.112-1.248c-2.432-1.408-3.456-3.072-3.456-5.12 0-3.52 2.688-5.248 5.632-5.248 2.496 0 3.68 1.056 4.32 1.056.384 0 .512-.288.544-.736h.48v5.376h-.48c-.448-2.784-2.56-4.544-4.672-4.544-1.408 0-2.368.736-2.368 2.048 0 1.152.8 1.856 2.56 2.88l2.112 1.28c2.56 1.472 4 2.976 4 5.536 0 3.168-2.528 5.44-6.336 5.44-2.752 0-3.904-1.056-4.544-1.056-.48 0-.672.448-.704.832h-.48v-6.016h.48c.416 3.36 2.72 5.056 4.928 5.056 1.696 0 2.56-1.056 2.56-2.464"/></svg>