<svg xmlns="http://www.w3.org/2000/svg" fill="none" viewBox="0 0 374 70"><path fill="#1f1f1f" d="m4.18 16.456-.044.286H0l.088-.286c.836 0 1.276-.484 2.068-1.958L10.164.066h.33l2.024 14.388c.198 1.496.374 2.002 1.21 2.002l-.088.286H9.46l.088-.286c1.276 0 1.716-.374 1.496-2.002l-.55-4.18h-5.17L3.3 13.97c-1.034 1.892-.792 2.376.88 2.486m1.496-6.82h4.73L9.46 2.684zm14.212-7.37C20.24.638 19.888.528 18.7.528l.044-.286h4.884c2.354 0 4.51 1.188 4.51 3.564 0 2.134-1.716 3.762-3.96 4.268 2.024.418 3.476 1.672 3.476 3.63 0 2.948-2.64 5.038-6.534 5.038h-5.852l.044-.286c1.188 0 1.584-.132 1.936-1.738zM23.232.902h-1.584l-1.452 6.886h2.2c2.904 0 4.224-1.738 4.224-4.026 0-1.914-1.188-2.86-3.388-2.86m-.748 7.524h-2.42l-1.628 7.656h2.882c3.454 0 4.73-2.068 4.73-4.378 0-2.002-1.012-3.278-3.564-3.278m13.695 8.536c-3.41 0-5.698-2.64-5.698-6.468C30.481 4.202 34.97 0 39.083 0c2.09 0 2.97.902 3.542.902.396 0 .616-.242.704-.66h.33l-.99 4.664h-.352c.484-3.102-1.276-4.268-3.344-4.268-3.894 0-6.842 4.268-6.842 9.482 0 3.542 1.738 5.83 4.4 5.83 2.354 0 4.224-1.518 5.522-4.312l.308.132c-1.166 3.014-3.08 5.192-6.182 5.192M46.595.528l.044-.286h5.038c4.246 0 6.82 2.684 6.82 6.93 0 5.192-3.894 9.57-9.614 9.57h-5.72l.044-.286c1.188 0 1.606-.132 1.936-1.738l2.64-12.452c.352-1.628 0-1.738-1.188-1.738m2.244 15.554c4.884 0 8.008-3.674 8.008-9.306 0-3.652-1.848-5.874-5.5-5.874h-1.804l-3.212 15.18zM63.3 2.266c.352-1.628 0-1.738-1.188-1.738l.044-.286H72.54l-.836 3.96h-.352c.572-3.036-.132-3.3-2.53-3.3H65.06l-1.43 6.776h2.86c1.716 0 2.266-.418 2.706-2.288h.352l-1.1 5.214h-.352c.308-1.782-.022-2.288-1.738-2.288h-2.86l-1.65 7.766h4.07c2.97 0 3.674-.55 4.554-4.048h.352l-1.012 4.708H58.68l.044-.286c1.188 0 1.584-.132 1.936-1.738zm13.41 0c.353-1.628 0-1.738-1.187-1.738l.044-.286h10.582l-.858 3.96h-.352c.594-3.036-.132-3.3-2.508-3.3h-3.96l-1.474 6.952h3.014c1.716 0 2.244-.396 2.706-2.266h.33l-1.1 5.214h-.352c.308-1.804 0-2.288-1.716-2.288h-3.014l-1.298 6.204c-.352 1.606.088 1.738 1.364 1.738l-.088.286H72.09l.044-.286c1.188 0 1.584-.132 1.936-1.738zm20.863 13.31c-.726.572-2.31 1.386-4.598 1.386-3.916 0-6.336-2.508-6.336-6.468C86.638 4.026 91.28 0 95.328 0c2.244 0 3.212.902 3.806.902.374 0 .594-.242.682-.66h.352L99.2 4.774h-.352c.396-2.97-1.32-4.136-3.652-4.136-3.784 0-6.908 4.07-6.908 9.526 0 3.52 1.518 6.182 4.84 6.182 1.848 0 2.948-.682 3.212-1.936l.704-3.366c.352-1.628-.088-1.738-1.232-1.738l.044-.286h4.488l-.088.286c-.968 0-1.364.132-1.716 1.738zm7.269-13.31c.352-1.628 0-1.738-1.188-1.738l.044-.286h4.686l-.044.286c-1.166 0-1.65.11-2.002 1.738l-1.166 5.5h8.118l1.166-5.5c.352-1.628-.088-1.738-1.254-1.738l.044-.286h4.664l-.044.286c-1.188 0-1.584.11-1.936 1.738l-2.64 12.452c-.308 1.606 0 1.738 1.188 1.738l-.066.286h-4.686l.088-.286c1.166 0 1.672-.132 2.002-1.738l1.342-6.314h-8.118l-1.342 6.314c-.352 1.606.088 1.738 1.254 1.738l-.066.286h-4.664l.044-.286c1.188 0 1.606-.132 1.936-1.738zm16.204 0c.352-1.628.022-1.738-1.21-1.738l.044-.286h4.62l-.044.286c-1.188 0-1.584.11-1.936 1.738l-2.64 12.452c-.33 1.606 0 1.738 1.188 1.738l-.044.286h-4.62l.044-.286c1.232 0 1.628-.132 1.958-1.738zm5.808 14.036c1.496 0 2.464-1.144 3.058-3.828l2.178-10.208c.33-1.606-.11-1.738-1.232-1.738l.044-.286h4.444l-.044.286c-.99 0-1.386.132-1.738 1.738l-2.09 9.812c-.726 3.388-2.508 4.84-4.73 4.84-2.266 0-3.608-1.298-3.608-2.684 0-.836.396-1.276 1.034-1.276.66 0 1.012.396.792 1.496-.264 1.364.484 1.848 1.892 1.848m11.538-14.036c.352-1.628 0-1.738-1.188-1.738l.044-.286h4.686l-.044.286c-1.166 0-1.65.11-2.002 1.738l-2.64 12.452c-.352 1.606.088 1.738 1.254 1.738l-.066.286h-4.664l.044-.286c1.188 0 1.584-.132 1.936-1.738zm.704 5.632 6.248-5.61c1.628-1.474 1.188-1.76.088-1.76l.044-.286h3.85l-.044.286c-.616 0-1.254.154-2.97 1.738l-5.742 5.236 4.312 7.392c.726 1.276 1.21 1.562 1.738 1.562l-.066.286h-4.356l.066-.286c1.276 0 1.584-.484 1.144-1.21l-4.312-7.282zm11.141 6.82 2.64-12.452c.33-1.606 0-1.738-1.188-1.738l.044-.286h4.796l-.044.286c-1.276 0-1.76.132-2.112 1.738l-2.948 13.816h3.696c2.772 0 3.432-.484 4.224-3.784h.352l-.924 4.444h-10.516l.044-.286c1.188 0 1.584-.11 1.936-1.738M165.47 2.266c.308-1.452-.022-1.694-1.188-1.738l.044-.286h3.366l2.024 13.728 7.7-13.728h3.366l-.044.286c-1.188 0-1.584.11-1.936 1.738l-2.64 12.452c-.308 1.606 0 1.738 1.188 1.738l-.066.286h-4.686l.088-.286c1.166 0 1.672-.132 2.002-1.738l2.772-13.156-8.47 15.07h-.308l-2.31-15.07-2.64 12.408c-.418 2.024.154 2.486 1.386 2.486l-.066.286h-4.202l.044-.286c1.188 0 1.65-.418 2.068-2.442zm25.563 14.586-6.072-15.466-2.64 12.496c-.44 1.98.242 2.574 1.694 2.574l-.066.286h-4.532l.044-.286c1.188 0 1.672-.528 2.112-2.552l2.464-11.638c.308-1.452-.022-1.694-1.188-1.738l.044-.286h3.19l5.236 13.552 2.244-10.67c.418-2.002-.11-2.596-1.54-2.596l.044-.286h4.422l-.044.286c-1.188 0-1.694.55-2.112 2.574l-2.926 13.75zm11.293.11c-3.476 0-5.654-2.552-5.654-6.424 0-5.28 3.63-10.538 8.668-10.538 3.3 0 5.478 2.596 5.478 6.446 0 5.192-3.564 10.516-8.492 10.516M205.12.638c-4.51 0-6.798 5.346-6.798 10.12 0 3.344 1.32 5.566 4.202 5.566 4.466 0 6.644-5.434 6.644-10.054 0-3.366-1.342-5.632-4.048-5.632m12.906 8.976h-2.486l-1.078 5.104c-.352 1.606.11 1.738 1.342 1.738l-.066.286h-4.752l.044-.286c1.188 0 1.584-.132 1.936-1.738l2.64-12.452c.352-1.628 0-1.738-1.188-1.738l.044-.286h5.016c2.948 0 4.972 1.562 4.972 4.092 0 3.102-2.772 5.28-6.424 5.28m1.188-8.712h-1.848l-1.694 8.074h2.398c3.08 0 4.796-1.914 4.796-4.62 0-2.002-1.276-3.454-3.652-3.454m18.095 19.008c-3.08 0-4.928-1.012-6.094-2.97-3.102-.308-4.994-2.772-4.994-6.402 0-5.28 3.652-10.538 8.668-10.538 3.3 0 5.478 2.596 5.478 6.446 0 4.774-3.014 9.658-7.326 10.406.99 1.738 2.53 2.618 4.708 2.75l-.044.308zm-5.236-3.586c4.488 0 6.644-5.434 6.644-10.054 0-3.366-1.342-5.632-4.048-5.632-4.532 0-6.798 5.346-6.798 10.12 0 3.344 1.32 5.566 4.202 5.566m19.79-1.584c.572 1.408.88 1.65 1.87 1.716l-.066.286h-2.552l-3.256-7.876h-2.53l-1.232 5.852c-.33 1.628.11 1.738 1.276 1.738l-.066.286h-4.664l.044-.286c1.166 0 1.584-.11 1.936-1.738l2.64-12.452c.352-1.628-.022-1.738-1.188-1.738l.044-.286h5.39c2.442 0 4.466 1.298 4.466 3.718 0 2.486-1.892 4.18-4.576 4.708zM249.091.902h-2.068l-1.562 7.326h2.156c3.014 0 4.774-1.54 4.774-4.202 0-2.024-1.078-3.124-3.3-3.124m11.126 15.422c2.2 0 3.696-1.518 3.696-3.652 0-1.32-.638-2.31-1.782-3.278l-1.936-1.606c-1.144-.968-1.98-2.178-1.98-3.608 0-2.508 2.046-4.18 4.532-4.18 1.76 0 2.684.836 3.212.836.264 0 .462-.198.572-.594h.308l-.836 4.004h-.352c.264-2.464-1.188-3.586-3.014-3.586-1.804 0-3.124 1.166-3.124 2.992 0 1.232.77 2.134 1.606 2.838l2.002 1.672c1.166.99 2.178 2.2 2.178 3.916 0 2.926-2.31 4.884-5.192 4.884-2.244 0-3.278-.924-3.916-.924-.286 0-.528.242-.66.704h-.33l.99-4.774h.352c-.352 2.596.88 4.356 3.674 4.356m8.576-11.946.858-4.136h11.968l-.88 4.136h-.352c.616-3.212-.176-3.476-2.508-3.476h-1.628l-2.948 13.816c-.33 1.606.132 1.738 1.144 1.738l-.088.286h-4.466l.066-.286c1.122 0 1.54-.132 1.87-1.738L274.755.902h-1.672c-2.332 0-3.19.264-3.938 3.476zm13.882 6.028 1.76-8.14c.33-1.606 0-1.738-1.012-1.738l.044-.286h4.488l-.044.286c-1.166 0-1.672.132-2.002 1.738l-1.76 8.272c-.682 3.234.308 5.588 3.96 5.588 2.662 0 4.092-1.87 4.642-4.356l1.848-8.756c.418-2.024-.132-2.486-1.496-2.486l.044-.286h4.18l-.044.286c-1.034 0-1.496.418-1.914 2.442l-1.914 8.932c-.616 2.97-2.376 5.082-5.61 5.082-4.29 0-6.05-2.486-5.17-6.578m27.789-7.92-8.272 14.432h-.374L300.036 2.53c-.198-1.496-.33-2.002-1.166-2.002l.044-.286h4.18l-.044.286c-1.276 0-1.738.374-1.54 2.002l1.408 11.704 6.402-11.22c.99-1.76.858-2.398-.748-2.486l.044-.286h3.982l-.044.286c-.88 0-1.276.506-2.09 1.958M329.358.528l.044-.286h3.96l-.044.286c-.858 0-1.32.506-2.068 1.958l-7.744 14.432h-.352l-.77-9.724-5.566 9.724h-.374L315.102 2.53c-.154-1.496-.352-2.002-1.188-2.002l.044-.286h4.136l-.044.286c-1.232 0-1.65.374-1.496 2.002l1.034 11.528 4.686-8.14-.264-3.388c-.132-1.518-.352-2.002-1.188-2.002l.044-.286h4.114l-.044.286c-1.254 0-1.606.374-1.474 2.002l.814 11.396 5.808-10.912c.946-1.782.88-2.398-.726-2.486m11.857 14.344-2.178-5.962-4.07 5.104c-1.672 2.024-1.364 2.42.264 2.442l-.066.286h-4.29l.088-.286c.88 0 1.584-.594 2.728-2.024l5.082-6.226-2.266-6.16c-.44-1.188-.616-1.518-1.518-1.518l.044-.286h4.114l-.044.286c-1.1 0-1.43.374-1.1 1.32l2.002 5.434 3.586-4.51c1.496-1.892 1.188-2.222-.22-2.244l.044-.286h3.894l-.044.286c-.858 0-1.32.484-2.266 1.65l-4.73 5.83 2.442 6.666c.484 1.32.726 1.782 1.628 1.782l-.066.286h-4.158l.066-.286c1.122 0 1.474-.374 1.034-1.584M357.802.528l.044-.286h3.938l-.044.286c-.88 0-1.43.682-2.354 1.958l-4.972 6.996-1.1 5.236c-.352 1.606.088 1.738 1.1 1.738l-.044.286h-4.488l.066-.286c1.122 0 1.518-.132 1.87-1.738l1.122-5.302-2.31-6.798c-.44-1.364-.638-2.09-1.496-2.09l.044-.286h4.268l-.044.286c-1.32 0-1.76.462-1.232 2.09l2.024 6.05 3.982-5.676c1.166-1.628 1.166-2.398-.374-2.464m16.02-.286-.044.286-11.792 15.554h4.73c2.794 0 3.564-.462 4.488-4.004h.352l-1.012 4.664h-10.582l.065-.286L371.797.902h-4.553c-2.332 0-3.168.264-3.894 3.256h-.352l.836-3.916zM4.532 40.94c-1.54 0-2.816-1.342-2.816-3.894 0-4.73 3.564-8.712 6.688-8.712 1.078 0 1.958.616 2.376 1.562l.374-1.386h1.254l-2.64 10.78c-.132.506 0 .66.264.66s.704-.132 1.276-.528l.132.198c-.726.726-1.628 1.298-2.442 1.298-.638 0-.99-.462-.748-1.408l.462-1.914c-1.232 2.002-2.64 3.344-4.18 3.344m-1.276-4.158c0 1.98.638 3.102 1.716 3.102 1.408 0 2.816-1.562 4.136-3.872l1.276-5.28c-.308-1.122-1.1-1.804-2.068-1.804-2.332 0-5.06 3.652-5.06 7.854M17.11 26.354c.33-1.364.374-1.672-.726-1.54l.044-.22 2.948-1.386-2.024 8.206c1.254-1.65 2.97-3.08 4.576-3.08 1.826 0 2.948 1.452 2.948 3.784 0 4.51-3.542 8.822-7.172 8.822-2.596 0-3.74-1.826-3.124-4.334zm-1.122 10.582c-.462 1.826.264 3.366 1.848 3.366 2.75 0 5.478-3.872 5.478-7.92 0-1.76-.528-2.992-1.87-2.992-1.21 0-2.926 1.078-4.4 3.234zm17.515-7.942c-2.42 0-4.884 3.388-4.884 6.952 0 2.2 1.166 3.784 2.926 3.784 1.54 0 3.014-.836 4.202-3.476l.286.088c-1.034 3.124-2.838 4.598-4.928 4.598-2.442 0-4.07-1.914-4.07-4.51 0-4.62 3.652-8.096 6.644-8.096 2.178 0 3.212 1.32 3.212 2.64 0 .77-.352 1.188-.946 1.188s-.77-.396-.814-1.232c-.044-1.144-.308-1.936-1.628-1.936m8.173 11.946c-1.803 0-3.035-1.364-3.035-3.96 0-4.686 3.696-8.646 7.017-8.646 1.145 0 1.959.396 2.487.924l.726-2.904c.33-1.364.373-1.672-.726-1.54l.044-.22 2.947-1.386-3.96 16.016c-.131.55 0 .726.265.726.264 0 .704-.132 1.254-.528l.11.198c-.705.748-1.54 1.298-2.355 1.298-.637 0-1.033-.484-.747-1.716l.395-1.628c-1.254 2.002-2.75 3.366-4.422 3.366m-1.495-4.158c0 1.98.66 3.102 1.935 3.102 1.54 0 3.168-1.738 4.4-3.96l1.32-5.368c-.418-1.012-1.232-1.65-2.243-1.65-2.684 0-5.413 3.828-5.413 7.876m15.357 4.136c-2.31 0-3.96-1.914-3.96-4.532 0-4.356 3.564-8.052 6.732-8.052 1.804 0 2.662 1.144 2.662 2.244 0 2.31-2.464 3.784-7.766 4.576-.022.286-.044.594-.044.88 0 2.266 1.1 3.718 2.926 3.718s3.19-1.452 4.07-3.586l.242.132c-.748 2.618-2.354 4.62-4.862 4.62m2.42-11.968c-1.804 0-4.114 2.332-4.664 5.61 4.29-.682 6.204-1.958 6.204-3.894 0-.902-.462-1.716-1.54-1.716m5.213 11.748 2.156-11.484h-1.408l.132-.704h1.408l.176-.968c.572-3.168 2.024-4.246 3.542-4.246.968 0 1.518.506 1.518 1.1 0 .462-.308.836-.792.836-.858 0-.704-1.254-1.54-1.254-.704 0-1.276.924-1.32 2.068 0 .77-.022 1.65-.132 2.464h2.31l-.154.704h-2.288L64.82 39.246c-.77 3.872-2.134 5.874-4.048 5.874-.902 0-1.562-.506-1.562-1.144 0-.55.33-.814.77-.814.814 0 .902 1.232 1.562 1.232.77 0 1.122-1.012 1.628-3.696m9.288 4.224c-2.684 0-4.51-1.056-4.51-2.508 0-1.408 1.914-2.486 3.96-3.058l-.352-.11c-1.254-.352-1.672-.836-1.672-1.474 0-.858.946-1.474 2.046-2.024-.968-.506-1.716-1.452-1.716-2.794 0-2.376 2.112-4.62 4.664-4.62.418 0 .792.066 1.144.176h3.696l-.11.572h-2.706c.814.55 1.496 1.474 1.496 2.816 0 2.112-2.024 4.268-4.752 4.268-.418 0-.836-.066-1.232-.22-1.034.462-1.386.924-1.386 1.232 0 .396.286.55.946.748l4.004 1.122c1.342.374 2.112 1.122 2.112 2.398 0 1.32-1.518 3.476-5.632 3.476m-.704-11.88c0 1.276.572 2.552 2.068 2.552 1.936 0 3.036-2.002 3.036-3.828 0-1.892-.726-2.86-2.046-2.86-1.958 0-3.058 2.068-3.058 4.136m-2.376 9.196c0 1.276 1.232 2.112 3.388 2.112 2.376 0 4.18-1.056 4.18-2.376 0-.836-.44-1.298-1.65-1.65l-2.706-.77c-1.76.462-3.212 1.32-3.212 2.684m10.952-1.496 3.52-14.388c.352-1.364.374-1.672-.704-1.54l.044-.22 2.926-1.386-2.068 8.36c1.606-1.716 3.564-3.3 5.17-3.3 1.716 0 2.156 1.628 1.628 3.41L88.69 39.29c-.132.506 0 .66.264.66s.704-.132 1.276-.528l.132.198c-.704.704-1.672 1.298-2.464 1.298-.616 0-.99-.462-.748-1.364l2.244-7.876c.352-1.298.286-2.332-.814-2.332-1.386 0-3.278 1.496-4.774 3.212l-2.024 8.184zm16.707-14.168c-.594 0-.946-.352-.946-.88 0-.704.572-1.254 1.254-1.254.55 0 .946.352.946.88 0 .682-.572 1.254-1.254 1.254m.418 1.65-2.728 11.088c-.088.484 0 .638.264.638s.726-.132 1.298-.528l.11.198c-.704.704-1.65 1.298-2.464 1.298-.616 0-.946-.484-.704-1.408l1.936-7.964c.352-1.496.44-1.848-.66-1.672l.044-.22zm5.539-1.65c-.594 0-.946-.352-.946-.88 0-.704.594-1.254 1.254-1.254.572 0 .946.352.946.88 0 .682-.572 1.254-1.254 1.254m.44 1.65-3.168 12.914c-.704 2.948-1.584 4.048-3.212 4.048-1.056 0-1.606-.528-1.606-1.144 0-.528.33-.88.836-.88.902 0 .77 1.276 1.518 1.276.528 0 .946-.572.968-1.54 0-.616.11-2.068.572-4.048l1.782-7.304c.374-1.496.44-1.848-.638-1.672l.044-.22zm1.208 12.518 3.52-14.388c.352-1.364.374-1.672-.704-1.54l.044-.22 2.926-1.386-4.334 17.534zm7.7-1.474c.33.572.484.726.792.726.264 0 .616-.154 1.1-.616l.132.176c-.792.99-1.364 1.364-1.892 1.364-.594 0-.946-.308-1.452-1.232l-2.992-5.258v-.066l4.268-3.894c1.276-1.166 1.056-1.65-.044-1.672l.088-.286h3.63l-.066.286c-.704 0-1.188.264-2.728 1.694l-3.806 3.454zm9.535-16.06-3.872 16.082c-.132.572.044.66.308.66.242 0 .682-.132 1.254-.528l.11.198c-.704.704-1.628 1.298-2.464 1.298-.572 0-.968-.44-.704-1.452l3.124-13.112c.33-1.364.352-1.672-.704-1.54l.044-.22zm.175 17.534 2.244-9.196c.352-1.496.44-1.848-.638-1.672l.044-.22 2.882-1.43-.836 3.432c1.342-1.606 3.124-3.388 4.752-3.388 1.672 0 2.024 1.496 1.738 3.036 1.43-1.65 2.992-3.036 4.466-3.036 1.716 0 2.134 1.65 1.628 3.41l-2.112 7.612c-.132.506 0 .66.264.66s.704-.132 1.276-.528l.132.198c-.704.704-1.672 1.298-2.464 1.298-.616 0-.99-.462-.748-1.364l2.2-7.876c.352-1.298.264-2.354-.814-2.354-1.21 0-2.706 1.386-4.092 3.036l-2.09 8.382h-1.452l2.222-9.02c.33-1.364.286-2.398-.792-2.398-1.452 0-3.234 1.98-4.4 3.432l-1.958 7.986zm18.352 0 2.244-9.196c.352-1.496.44-1.848-.638-1.672l.044-.22 2.882-1.43-.836 3.366c1.606-1.738 3.586-3.322 5.17-3.322 1.738 0 2.156 1.628 1.65 3.41l-2.178 7.612c-.132.506 0 .66.264.66s.726-.132 1.298-.528l.11.198c-.704.704-1.65 1.298-2.442 1.298-.638 0-1.012-.462-.748-1.364l2.222-7.876c.374-1.298.286-2.332-.814-2.332-1.364 0-3.256 1.496-4.774 3.234l-2.002 8.162zm16.884.176c-2.354 0-3.982-2.156-3.982-4.862 0-4.29 3.124-7.722 6.512-7.722 2.42 0 4.004 2.046 4.004 4.73 0 4.378-3.08 7.854-6.534 7.854m-2.442-4.532c0 2.112.792 3.938 2.662 3.938 2.486 0 4.752-3.586 4.752-7.546 0-2.112-.77-3.85-2.618-3.85-2.31 0-4.796 3.542-4.796 7.458m10.065 7.04 2.904-11.88c.352-1.496.44-1.848-.638-1.672l.044-.22 2.882-1.43-.792 3.234c1.254-1.672 2.992-3.124 4.62-3.124 1.826 0 2.926 1.452 2.926 3.784 0 4.488-3.366 8.822-6.974 8.822-1.122 0-2.046-.462-2.64-1.122l-.88 3.608c-.264 1.144.044 1.364 1.21 1.364l-.066.242h-4.004l.066-.242c.638 0 1.034-.22 1.342-1.364m8.536-14.036c-1.254 0-2.948 1.1-4.444 3.278l-1.364 5.566c.286 1.254 1.034 2.068 2.354 2.068 2.728 0 5.302-3.828 5.302-7.92 0-1.76-.506-2.992-1.848-2.992m8.491 11.55c-1.804 0-3.036-1.364-3.036-3.96 0-4.686 3.696-8.646 7.018-8.646 1.452 0 2.354.55 2.904 1.232l1.166-1.056h.088l-3.696 14.916c-.264 1.144.044 1.364.682 1.364l-.066.242h-4.004l.044-.242c1.166 0 1.584-.22 1.892-1.364l1.452-5.896c-1.254 2.046-2.772 3.41-4.444 3.41m-1.496-4.158c0 1.98.66 3.102 1.936 3.102 1.54 0 3.19-1.76 4.422-3.982l1.32-5.346c-.44-.99-1.254-1.65-2.266-1.65-2.684 0-5.412 3.828-5.412 7.876m10.811 3.96 2.244-9.196c.352-1.496.44-1.848-.638-1.672l.044-.22 2.882-1.43-.814 3.278c1.298-2.178 2.376-3.234 3.52-3.234.748 0 1.012.506 1.012.946 0 .594-.396.924-.858.924-.506 0-.682-.44-1.21-.44-.682 0-1.65 1.144-2.772 3.124l-1.958 7.92zm11.96-.44c1.584 0 2.376-1.21 2.376-2.376 0-2.662-4.004-3.652-4.004-6.578 0-1.716 1.43-2.992 3.3-2.992 1.232 0 1.958.638 2.376.638.264 0 .418-.176.528-.484h.308l-.704 3.476h-.308c.154-2.42-1.012-3.036-2.288-3.036-1.32 0-1.98.858-1.98 1.98 0 2.178 4.092 3.586 4.092 6.512 0 1.936-1.54 3.432-3.828 3.432-1.54 0-2.31-.748-2.772-.748-.308 0-.528.264-.66.616h-.308l.836-4.092h.308c-.264 2.728 1.034 3.652 2.728 3.652m11.926-2.684c-.748 1.804-1.738 3.344-3.432 3.344-1.452 0-2.31-1.166-1.804-3.212l2.156-8.536h-1.1l.044-.286c1.562-.44 2.2-1.606 3.036-3.454h.352l-.748 3.036h3.168l-.154.704h-3.19l-2.134 8.778c-.308 1.276.022 2.09.836 2.09.946 0 1.804-.792 2.706-2.596zm10.285 1.672c-.132.506 0 .66.264.66s.726-.132 1.298-.528l.11.198c-.704.682-1.628 1.298-2.42 1.298-.66 0-.968-.484-.748-1.408l.418-1.672c-1.386 1.562-3.212 3.124-4.73 3.124-1.628 0-2.244-1.452-1.738-3.344l1.584-6.05c.374-1.452.44-1.87-.638-1.694l.044-.22 2.904-1.43-2.376 9.262c-.396 1.496-.264 2.398.88 2.398 1.21 0 3.102-1.628 4.334-3.058l2.09-8.316h1.496zm14.031-9.68c0 3.454-3.256 8.25-6.512 11.308h-.264c.088-4.928-.528-8.448-1.012-10.34-.286-1.1-.616-1.056-1.298-.836l-.022-.22 2.024-1.342c1.122 2.42 1.716 6.82 1.672 10.824 2.178-2.53 4.268-5.786 4.268-7.854 0-.902-.748-1.276-.748-1.98 0-.572.44-.902.924-.902.66 0 .968.506.968 1.342m9.042.968c-.308-1.1-.572-1.056-1.276-.836l-.044-.22 2.024-1.342c1.144 2.398 1.474 6.842 1.32 10.802 2.024-2.486 3.982-5.786 3.982-7.832 0-.924-.726-1.254-.726-1.98 0-.572.44-.902.924-.902.638 0 .968.528.968 1.386 0 3.322-3.146 8.272-6.248 11.264h-.286c.154-2.86.088-5.346-.11-7.26-1.21 2.552-3.168 5.346-5.104 7.26h-.308c.22-4.752-.264-8.448-.748-10.34-.264-1.1-.572-1.056-1.276-.836l-.022-.22 2.024-1.342c1.1 2.376 1.54 6.864 1.408 10.846 1.606-2.002 3.256-4.664 3.872-6.622-.11-.726-.22-1.342-.374-1.826m9.152 8.976c.506 0 1.166-.77 3.3-4.862l-1.276-3.872c-.396-1.166-.528-1.298-1.606-.99l.022-.286 2.244-1.364 1.738 5.324c2.068-4.114 3.146-5.302 4.312-5.302.638 0 .99.33.99.902 0 .506-.22.99-.836.99-.484 0-.704-.44-1.144-.44-.506 0-1.32 1.144-3.102 4.598l1.518 4.642c.242.748.44 1.078.77 1.078.242 0 .506-.176 1.056-.682l.154.176c-.528.748-1.254 1.474-1.936 1.474-.66 0-1.034-.55-1.43-1.782l-1.232-3.74c-2.398 4.796-3.3 5.544-4.532 5.544-.66 0-1.1-.44-1.1-1.012s.374-.924.902-.924c.572 0 .77.528 1.188.528m13.15-11.374c1.188 2.816 2.002 7.216 2.112 11.55 2.288-3.058 3.938-6.6 3.938-8.58 0-.902-.726-1.276-.726-1.98 0-.572.44-.902.902-.902.66 0 .99.506.99 1.342 0 3.014-2.266 7.458-5.28 11.242-2.354 3.014-4.004 4.378-5.72 4.378-.88 0-1.364-.484-1.364-1.078 0-.528.418-.902.968-.902.704 0 .968.88 1.562.88.66 0 1.694-.704 3.388-2.728.022-4.994-.924-8.734-1.496-10.824-.286-1.056-.594-1.056-1.32-.836l-.022-.22zm18.063 1.034c-1.628 3.256-6.578 6.6-9.372 10.208h4.026c2.442 0 2.706-.528 3.256-2.332h.352l-.968 3.652h-7.964l.154-.726c1.98-3.432 6.93-6.688 9.46-10.186h-4.466c-1.782 0-2.002.352-2.464 1.936h-.33l.814-3.256h7.656zM5.324 49.738c-.484.242-1.452.528-1.936.594l.044-.286c1.32-.484 2.486-1.232 3.454-2.046h.286L4.048 62.718c-.352 1.606.022 1.738 1.298 1.738l-.066.286H.44l.066-.286c1.232 0 1.694-.132 2.046-1.738zM7.12 64.742l.088-.484c2.112-1.738 3.476-2.904 5.456-4.796 2.992-2.882 4.62-4.972 4.62-7.48 0-1.782-1.034-2.926-2.596-2.926-1.76 0-3.256 1.342-4.18 3.542l-.352-.154C10.947 49.914 12.73 48 15.171 48c2.376 0 3.784 1.562 3.784 3.762 0 3.014-2.354 5.17-5.852 8.228a110 110 0 0 1-3.982 3.41h4.598c2.508 0 2.904-.286 3.608-1.936h.352l-1.166 3.278zm16.756-8.096-.154-.33c2.838-1.606 4.862-3.036 4.862-5.258 0-1.144-.682-2.024-2.2-2.024-1.584 0-2.86 1.056-3.674 2.574l-.308-.198c.814-1.98 2.53-3.41 4.554-3.41 2.112 0 3.168 1.276 3.168 2.75 0 1.804-1.254 3.058-3.652 4.444 1.848.22 3.278 1.606 3.278 3.74 0 2.992-2.486 5.962-6.116 5.962-2.53 0-3.938-1.452-3.938-2.794 0-.792.352-1.276 1.012-1.276.528 0 .814.308.748 1.122-.132 1.474.264 2.354 2.332 2.354 2.728 0 4.312-2.244 4.312-4.994 0-1.958-.946-3.102-2.574-3.102-.682 0-1.21.22-1.65.44m16.895 7.81-.088.286h-4.708l.044-.286c1.276 0 1.672-.132 2.024-1.738l.506-2.332H31.75l.088-.396 10.406-11.946h.374l-2.398 11.44h2.266l-.264.902h-2.2l-.484 2.332c-.352 1.606-.044 1.738 1.232 1.738m-7.59-4.972h5.544l1.826-8.514zm21.138-1.166c0 3.41-2.684 6.578-6.424 6.578-2.464 0-3.828-1.43-3.828-2.838 0-.77.308-1.232.99-1.232.55 0 .858.33.77 1.056-.22 1.54.286 2.42 2.156 2.42 2.948 0 4.686-2.464 4.686-5.434 0-2.31-1.232-3.674-3.146-3.674-1.188 0-2.2.396-3.102 1.188h-.352l2.442-8.14h7.216l-.44 1.364H48.84l-1.65 5.5c.704-.528 1.804-.99 3.036-.99 2.09 0 4.092 1.408 4.092 4.202m13.007.11c0 3.762-2.993 6.534-5.875 6.534-2.2 0-4.532-1.694-4.532-5.456 0-6.974 6.27-10.846 10.693-11.506l-.044.396c-3.344.88-7.59 3.498-8.712 8.844 1.122-1.54 2.904-2.75 4.862-2.75 2.112 0 3.608 1.496 3.608 3.938m-8.757 1.628c0 2.97 1.364 4.246 2.992 4.246 2.53 0 4.136-2.464 4.136-5.632 0-2.134-1.055-3.212-2.683-3.212-1.606 0-3.366 1.276-4.334 2.838-.067.572-.11 1.144-.11 1.76m21.54-11.814-.11.506-9.13 15.994h-.969l8.976-15.224h-5.06c-2.464 0-2.772.396-3.52 1.848h-.352l1.1-3.124zm10.344 3.036c0 2.156-2.046 3.63-4.202 4.554 1.936 1.606 3.256 2.838 3.256 4.51 0 2.574-2.266 4.62-5.412 4.62-2.596 0-4.664-1.43-4.664-3.74 0-2.618 2.398-4.224 4.818-5.214-1.628-1.364-2.398-2.442-2.398-3.872 0-2.398 2.112-4.136 4.708-4.136 2.112 0 3.894 1.232 3.894 3.278m-7.304.484c0 1.474 1.254 2.53 2.684 3.718 2.046-.968 3.3-2.244 3.3-4.158 0-1.584-.836-2.684-2.75-2.684-1.848 0-3.234 1.232-3.234 3.124m-2.178 9.372c0 1.826 1.144 3.19 3.344 3.19 2.332 0 3.806-1.65 3.806-3.476 0-1.694-1.562-2.904-3.432-4.466-2.068.946-3.718 2.244-3.718 4.752m11.749-6.644c0-3.696 2.992-6.49 5.896-6.49 2.2 0 4.532 1.65 4.532 5.302 0 7.37-5.962 10.956-11.264 11.66l.044-.396c4.136-.88 8.228-3.432 9.306-8.8-1.056 1.54-2.772 2.684-4.686 2.684-2.2 0-3.828-1.518-3.828-3.96m1.628-.22c0 2.134 1.1 3.212 2.684 3.212 1.628 0 3.366-1.144 4.378-2.86.066-.55.088-1.122.088-1.716 0-2.948-1.276-4.246-2.97-4.246-2.486 0-4.18 2.508-4.18 5.61M112.65 48c2.486 0 4.444 2.2 4.444 5.962 0 5.39-3.146 11-7.458 11-2.706 0-4.708-2.244-4.708-6.138 0-5.412 3.476-10.824 7.722-10.824m-.198.638c-3.762 0-5.874 5.72-5.874 10.868 0 3.014 1.166 4.818 3.19 4.818 3.784 0 5.676-5.896 5.676-10.846 0-2.97-1.166-4.84-2.992-4.84m8.582.66c.176-1.034.528-1.386 1.1-1.386s.968.462.638 1.65l-2.882 10.142h-.352zm-2.332 15.576c-.55 0-.924-.396-.924-.924 0-.616.462-1.144 1.166-1.144.594 0 .902.374.902.88 0 .616-.44 1.188-1.144 1.188m7.016-5.17c.132-2.244 1.254-3.454 2.86-4.884 1.452-1.254 2.508-2.244 2.508-3.894 0-1.364-.704-2.376-2.288-2.376-1.232 0-1.716.484-1.914 1.936-.11.836-.396 1.232-.99 1.232-.506 0-.858-.264-.858-.836 0-1.364 1.452-2.948 3.916-2.948 2.354 0 3.674 1.364 3.674 3.036 0 1.782-1.012 2.728-3.322 4.488-1.804 1.364-2.97 2.442-3.234 4.246zm-.44 5.17c-.528 0-.902-.396-.902-.924 0-.616.462-1.144 1.166-1.144.572 0 .902.374.902.88 0 .616-.44 1.188-1.166 1.188m15.725-.792c-1.562 0-2.728-1.188-2.728-3.256 0-4.092 3.674-7.81 6.468-7.81 1.232 0 1.958.682 2.288 1.43l.418-1.298h1.43l-2.508 7.898c-.462 1.474-.462 2.332.924 2.332 2.332 0 5.368-3.168 5.368-7.744 0-5.016-3.476-7.018-7.216-7.018-5.5 0-11 4.334-11 11.286 0 6.05 4.004 8.492 8.426 8.492 2.75 0 4.884-.968 6.138-1.936l.22.242c-1.122 1.078-3.652 2.442-6.776 2.442-4.928 0-9.35-2.86-9.35-8.8 0-7.238 6.006-12.32 12.342-12.32 4.488 0 8.25 2.442 8.25 7.304 0 5.236-3.564 8.756-6.732 8.756-1.65 0-2.486-.924-2.178-2.552-.946 1.342-2.288 2.552-3.784 2.552m-1.188-3.608c0 1.628.418 2.596 1.628 2.596 1.474 0 2.926-1.672 3.85-3.256l1.364-4.246c-.132-1.254-.924-1.958-1.98-1.958-2.09 0-4.862 3.388-4.862 6.864m16.201-2.442h2.31l1.21-3.388h-2.222l.132-.99h2.464l1.958-5.412h.66l-1.958 5.412h2.882l1.958-5.412h.66l-1.958 5.412h1.98l-.11.99h-2.244l-1.21 3.388h2.134l-.132.99h-2.376l-2.068 5.72h-.66l2.068-5.72h-2.882l-2.068 5.72h-.66l2.068-5.72h-2.046zm2.97 0h2.882l1.21-3.388h-2.882zM173.935 48h.132l.286-1.32h.594l-.286 1.364c1.958.198 3.3 1.276 3.3 2.486 0 .748-.374 1.122-.946 1.122-.55 0-.836-.242-.792-.99.066-1.1-.374-1.804-1.716-1.958l-1.386 6.512 1.166.946c1.166.968 2.156 2.2 2.156 3.916 0 2.948-2.31 4.884-5.258 4.884h-.176l-.462 2.134h-.594l.462-2.178c-2.464-.22-3.828-1.584-3.828-2.904 0-.748.33-1.21.99-1.21.594 0 .858.308.77 1.1-.088 1.276.55 2.178 2.2 2.376l1.65-7.788-.858-.682c-1.144-.968-1.98-2.178-1.98-3.608 0-2.508 2.068-4.202 4.576-4.202m-1.672 6.512.352.286 1.32-6.138h-.11c-1.804 0-3.168 1.188-3.168 3.014 0 1.232.77 2.156 1.606 2.838m1.034 2.882-.572-.462-1.584 7.392h.176c2.222 0 3.762-1.518 3.762-3.652 0-1.342-.638-2.31-1.782-3.278m9.429-1.364c-1.232 0-2.596-.88-2.596-3.08 0-2.904 2.024-4.928 3.916-4.928 1.122 0 2.552.88 2.552 3.08 0 2.926-2.046 4.928-3.872 4.928m-4.664 8.712 14.366-16.5h.902l-14.366 16.5zm4.796-9.284c1.32 0 2.464-1.958 2.464-4.62 0-1.298-.396-2.222-1.408-2.222-1.298 0-2.508 1.782-2.508 4.664 0 1.254.352 2.178 1.452 2.178m4.554 9.482c-1.232 0-2.574-.902-2.574-3.08 0-2.926 2.024-4.906 3.894-4.906 1.122 0 2.574.88 2.574 3.036 0 2.948-2.068 4.95-3.894 4.95m.132-.594c1.32 0 2.486-1.936 2.486-4.62 0-1.276-.396-2.2-1.43-2.2-1.298 0-2.486 1.804-2.486 4.664 0 1.276.352 2.156 1.43 2.156m14.06-10.032-2.86-5.214-2.86 5.214h-.814l3.476-6.27h.44l3.476 6.27zm11.833 7.964c.814 1.54 1.364 2.112 2.618 2.178l-.066.286h-.748c-1.342 0-2.354-.726-3.256-2.178-1.364 1.386-2.838 2.332-4.84 2.332-2.508 0-4.07-1.87-4.07-3.85 0-2.816 2.42-4.466 5.06-5.478-.704-1.166-1.188-2.376-1.188-3.696 0-2.222 1.694-3.784 3.938-3.784 1.672 0 3.08 1.034 3.08 2.816 0 1.892-1.628 3.432-4.202 4.62l2.904 5.346c1.122-1.43 1.87-3.058 1.98-4.092.088-.704-.198-.99-1.188-.99l.044-.286h3.828l-.044.286c-.902.022-1.386.418-1.87 1.43-.638 1.43-1.298 2.838-2.42 4.224zm-5.104-10.714c0 1.188.418 2.31 1.166 3.52 1.958-.946 3.146-2.222 3.146-4.07 0-1.364-.704-2.288-1.936-2.288-1.43 0-2.376 1.122-2.376 2.838m-3.652 9.086c0 1.738 1.144 3.168 3.08 3.168 1.43 0 2.706-.682 3.894-1.826l-3.256-5.94c-2.068.968-3.718 2.332-3.718 4.598m16.737-8.536c0-.308.264-.528.88-.924l.99-.594-.99-.176c-.726-.11-1.144-.308-1.144-.704 0-.286.176-.55.528-.55.264 0 .572.198.968.572l.726.616-.132-1.012c-.11-.924.022-1.386.55-1.386.33 0 .506.198.506.55 0 .242-.066.572-.242.924l-.44.968.88-.352c.396-.176.726-.308.99-.308.33 0 .506.198.506.462 0 .374-.308.594-.968.572-.088 0-.792-.022-1.386-.132l.682.726c.396.396.638.704.638 1.012s-.242.528-.55.528c-.33 0-.572-.396-.726-1.144l-.242-.99-.572.924c-.352.616-.616.924-.924.924-.242 0-.528-.242-.528-.506m7.119 16.412c-1.584-2.64-2.486-5.28-2.486-8.316 0-4.576 2.288-8.888 7.062-12.98l.33.33c-4.378 4.29-6.204 8.536-6.204 12.914 0 2.97.594 5.324 1.694 7.832zm1.89 0-.308-.33c4.378-4.29 6.204-8.536 6.204-12.914 0-2.97-.594-5.324-1.716-7.832l.418-.22c1.562 2.64 2.486 5.28 2.486 8.316 0 4.576-2.288 8.888-7.084 12.98m11.614-.484h-3.652l4.4-20.702h3.652l-.066.286c-2.178 0-2.596.11-2.926 1.738l-3.52 16.654c-.352 1.606 0 1.716 2.178 1.716zm1.977 0 .088-.308c2.178 0 2.574-.11 2.926-1.716l3.542-16.654c.33-1.628-.022-1.738-2.2-1.738l.044-.286h3.652l-4.4 20.702zm9.765-10.318c1.386.374 1.98 1.122 1.98 2.09 0 1.518-2.024 4.246-2.024 5.764 0 .946.418 1.76 2.42 2.2l-.132.374c-2.376-.484-3.454-1.276-3.454-2.75 0-1.848 2.31-4.29 2.31-5.808 0-.858-.528-1.584-2.376-1.804l.088-.308c2.706-.132 3.344-1.144 3.344-2.508 0-1.408-.528-3.19-.242-4.862.286-1.738 1.826-2.662 4.73-2.772l-.022.374c-2.684.198-3.256 1.188-3.454 2.354-.242 1.496-.044 3.146-.044 4.576 0 1.672-.99 2.728-3.102 3.036zm11.026.044c-1.364-.374-1.958-1.122-1.958-2.09 0-1.518 2.024-4.246 2.024-5.764 0-.946-.418-1.76-2.42-2.2l.132-.374c2.376.484 3.432 1.276 3.432 2.75 0 1.848-2.288 4.29-2.288 5.808 0 .858.528 1.584 2.354 1.804l-.066.308c-2.728.132-3.344 1.144-3.344 2.508 0 1.408.506 3.19.22 4.862-.286 1.738-1.804 2.662-4.73 2.772l.022-.374c2.706-.198 3.278-1.188 3.454-2.354.242-1.496.066-3.146.066-4.576 0-1.672.968-2.728 3.08-3.036zm11.18 2.442v.726l-7.7-3.938v-.352l7.7-3.938v.726l-6.644 3.388zm10.6-3.212-7.7 3.938v-.726l6.644-3.388-6.644-3.388v-.726l7.7 3.938zm2.526-.154h5.148l-.22 1.012h-5.148zm11.698 4.444v-4.224h-3.74v-.66h3.74V52.18h.748v4.224h3.74v.66h-3.74v4.224z"/></svg>