<svg xmlns="http://www.w3.org/2000/svg" fill="none" viewBox="0 0 375 70">
    <path fill="#1f1f1f"
        d="M4.091 16.456v.286H0v-.286c.88 0 1.144-.506 1.672-1.958L6.863.066h.352l5.192 14.388c.528 1.496.792 2.002 1.628 2.002v.286H9.767v-.286c1.276 0 1.672-.374 1.1-2.002l-1.496-4.18h-5.39L2.683 13.97c-.66 1.892-.308 2.376 1.408 2.486m.132-6.82h4.928L6.665 2.684zm12.95-7.37c0-1.628-.375-1.738-1.563-1.738V.242h4.906c2.662 0 5.39 1.166 5.39 3.916 0 1.914-1.298 3.3-3.014 3.828 2.134.352 4.004 1.694 4.004 3.96 0 2.948-2.398 4.796-6.094 4.796H15.61v-.286c1.188 0 1.562-.132 1.562-1.738zM20.273.902h-1.628v6.886h1.892c2.552 0 3.85-1.232 3.85-3.322 0-2.508-1.694-3.564-4.114-3.564m.792 7.524h-2.42v7.656h2.09c3.234 0 4.576-1.32 4.576-3.696 0-2.398-1.32-3.96-4.246-3.96m14.885 8.558c-3.872-.022-6.842-3.366-6.842-8.118C29.11 3.454 32.63 0 36.567 0c2.112 0 3.3.902 3.894.902.374 0 .55-.242.55-.66h.352v4.664h-.352c-.176-3.102-2.2-4.268-4.752-4.268-3.124 0-5.588 2.64-5.588 7.304 0 4.466 2.178 8.03 5.94 8.03 2.464 0 4.004-1.694 4.752-4.334l.374.11c-.66 3.08-2.596 5.236-5.786 5.236M43.742.528V.242h4.884c5.5 0 8.734 3.19 8.734 8.184 0 5.038-3.19 8.316-7.854 8.316h-5.764v-.286c1.188 0 1.562-.132 1.562-1.738V2.266c0-1.628-.374-1.738-1.562-1.738m5.544 15.554c4.092 0 6.468-2.486 6.468-6.842 0-5.038-2.376-8.338-7.436-8.338h-1.54v15.18zm11.62-13.816c0-1.628-.374-1.738-1.562-1.738V.242h10.868v3.96h-.352c-.066-3.036-.858-3.3-3.256-3.3H62.38v6.776h2.882c1.716 0 2.178-.418 2.222-2.288h.352v5.214h-.352c-.044-1.782-.506-2.288-2.222-2.288H62.38v7.766h4.136c2.97 0 3.542-.55 3.696-4.048h.352v4.708h-11.22v-.286c1.188 0 1.562-.132 1.562-1.738zm13.496 0c0-1.628-.374-1.738-1.562-1.738V.242h10.802v3.96h-.352c-.066-3.036-.858-3.3-3.234-3.3h-4.18v6.952h3.168c1.716 0 2.156-.396 2.244-2.266h.308v5.214h-.308c-.088-1.804-.528-2.288-2.244-2.288h-3.168v6.204c0 1.606.484 1.738 1.76 1.738v.286H72.84v-.286c1.188 0 1.562-.132 1.562-1.738zm19.561 14.102c2.156-.022 2.948-.726 2.948-1.958v-3.366c0-1.628-.484-1.738-1.628-1.738V9.02h4.444v.286c-.968 0-1.342.11-1.342 1.738v4.532c-.704.594-2.134 1.408-4.686 1.408-4.928-.022-7.854-3.498-7.854-8.382C85.845 3.41 89.431 0 93.435 0c2.046 0 3.212.902 3.828.902.352 0 .528-.242.55-.66h.33v4.532h-.352c-.22-2.97-2.2-4.136-4.708-4.136-3.124 0-5.632 2.706-5.632 7.084 0 4.796 1.892 8.624 6.512 8.646m8.872-14.102c0-1.628-.374-1.738-1.562-1.738V.242h4.686v.286c-1.166 0-1.65.11-1.65 1.738v5.5h8.338v-5.5c0-1.628-.462-1.738-1.65-1.738V.242h4.686v.286c-1.166 0-1.562.11-1.562 1.738v12.452c0 1.606.396 1.738 1.562 1.738v.286h-4.686v-.286c1.188 0 1.65-.132 1.65-1.738V8.404h-8.338v6.314c0 1.606.484 1.738 1.65 1.738v.286h-4.686v-.286c1.188 0 1.562-.132 1.562-1.738zm16.44 0c0-1.628-.352-1.738-1.584-1.738V.242h4.62v.286c-1.188 0-1.54.11-1.54 1.738v12.452c0 1.606.352 1.738 1.54 1.738v.286h-4.62v-.286c1.232 0 1.584-.132 1.584-1.738zm12.562 9.592c0 3.41-1.738 5.082-4.136 5.082-2.332 0-3.828-1.43-3.828-2.948 0-.682.396-1.034.924-1.034.638 0 .88.418.968 1.21.176 1.606.682 2.134 2.134 2.134 1.562 0 2.442-1.32 2.442-4.048V2.266c0-1.606-.462-1.738-1.584-1.738V.242h4.444v.286c-.99 0-1.364.132-1.364 1.738zm4.827-9.592c0-1.628-.374-1.738-1.562-1.738V.242h4.686v.286c-1.166 0-1.65.11-1.65 1.738v12.452c0 1.606.484 1.738 1.65 1.738v.286h-4.686v-.286c1.188 0 1.562-.132 1.562-1.738zm1.914 5.632 5.522-5.61c1.386-1.43.814-1.76-.308-1.76V.242h3.85v.286c-.528 0-1.1.242-2.552 1.738l-5.126 5.192 6.006 7.436c1.012 1.276 1.496 1.562 2.024 1.562v.286h-4.4v-.286c1.276 0 1.474-.484.88-1.21l-5.896-7.282zm12.657 6.82V2.266c0-1.606-.374-1.738-1.562-1.738V.242h4.796v.286c-1.276 0-1.76.132-1.76 1.738v13.816h3.74c2.816 0 3.41-.484 3.52-3.784h.352v4.444h-10.648v-.286c1.188 0 1.562-.11 1.562-1.738m12.68-12.452c0-1.452-.374-1.694-1.562-1.738V.242h3.41l5.06 13.706L175.729.242h3.322v.286c-1.166 0-1.562.11-1.562 1.738v12.452c0 1.606.396 1.738 1.562 1.738v.286h-4.686v-.286c1.188 0 1.65-.132 1.65-1.738V1.584l-5.434 15.048h-.308l-5.588-15.026V13.97c0 2.024.66 2.486 1.892 2.486v.286h-4.224v-.286c1.188 0 1.562-.418 1.562-2.442zm29.168 14.586-9.702-15.4v12.43c0 1.98.77 2.574 2.222 2.574v.286h-4.554v-.286c1.188 0 1.562-.528 1.562-2.552V2.266c0-1.452-.374-1.694-1.562-1.738V.242h3.256l8.404 13.31V3.124c0-2.002-.66-2.596-2.112-2.596V.242h4.444v.286c-1.188 0-1.584.55-1.584 2.574v13.75zm11.151.132c-4.092 0-7.194-3.476-7.194-8.448 0-5.126 3.278-8.536 7.194-8.536 3.872 0 7.084 3.498 7.084 8.492 0 5.082-3.256 8.492-7.084 8.492m.308-.638c2.838 0 5.192-2.706 5.192-7.04 0-4.598-2.068-8.668-5.83-8.668-3.08 0-5.258 2.706-5.258 7.062 0 4.774 2.046 8.646 5.896 8.646m10.325-14.08c0-1.628-.374-1.738-1.562-1.738V.242h5.28c3.036 0 5.786 1.408 5.786 4.444 0 2.816-2.42 4.928-5.742 4.928h-2.288v5.104c0 1.606.506 1.738 1.738 1.738v.286h-4.774v-.286c1.188 0 1.562-.132 1.562-1.738zm3.41-1.364h-1.936v8.074h2.2c2.728 0 4.224-1.386 4.224-3.916 0-2.486-1.518-4.158-4.488-4.158m22.375 19.008c-3.168 0-5.258-1.034-7.018-2.926h-.022c-4.092 0-7.194-3.476-7.194-8.448 0-5.126 3.278-8.536 7.194-8.536 3.872 0 7.084 3.498 7.084 8.492 0 4.29-2.332 7.392-5.368 8.25 1.65 1.716 3.454 2.728 5.698 2.86v.308zm-6.732-3.564c2.838 0 5.192-2.706 5.192-7.04 0-4.598-2.068-8.668-5.83-8.668-3.08 0-5.258 2.706-5.258 7.062 0 4.774 2.046 8.646 5.896 8.646m19.628-1.606c.902 1.408 1.21 1.65 2.244 1.716v.286h-2.706l-4.994-7.876h-2.266v5.852c0 1.628.484 1.738 1.65 1.738v.286h-4.686v-.286c1.166 0 1.562-.11 1.562-1.738V2.266c0-1.628-.396-1.738-1.562-1.738V.242h5.412c2.86 0 5.5 1.056 5.5 4.114 0 2.2-1.65 3.806-4.004 4.334zM247.938.902h-2.112v7.326h2.112c2.64 0 4.136-1.122 4.136-3.564 0-2.354-1.408-3.762-4.136-3.762m17.264 12.32c0-1.54-.924-2.684-2.552-3.718l-2.508-1.606c-1.54-.968-2.728-2.332-2.728-4.114 0-2.288 1.892-3.784 4.092-3.784 2.068 0 2.816.836 3.432.836.22 0 .396-.198.44-.594h.308v4.004h-.352c-.132-2.464-1.738-3.586-4.048-3.586-1.452 0-2.552 1.034-2.552 2.618 0 1.452 1.012 2.552 2.222 3.322l2.508 1.606c1.606 1.012 3.168 2.288 3.168 4.488 0 2.64-2.002 4.29-4.642 4.29-2.244 0-3.366-.946-3.982-.946-.286 0-.462.242-.506.704h-.352v-4.774h.352c.088 2.618 1.672 4.378 4.686 4.378 1.76 0 3.014-1.276 3.014-3.124m8.726 1.496V.902h-1.76c-2.398 0-3.19.264-3.256 3.476h-.352V.242h12.188v4.136h-.352c-.044-3.212-.836-3.476-3.234-3.476h-1.76v13.816c0 1.606.484 1.738 1.496 1.738v.286h-4.466v-.286c1.1 0 1.496-.132 1.496-1.738m10.068-4.004V2.266c0-1.606-.374-1.738-1.364-1.738V.242h4.488v.286c-1.188 0-1.628.132-1.628 1.738v8.052c0 3.608 1.188 5.808 4.994 5.808 2.816 0 4.246-1.804 4.246-4.708V3.014c0-2.024-.66-2.486-2.024-2.486V.242h4.18v.286c-1.034 0-1.386.418-1.386 2.442v8.448c0 3.256-1.804 5.566-5.39 5.566-4.18 0-6.116-2.574-6.116-6.27M308.411.528V.242h3.96v.286c-.88 0-1.144.506-1.672 1.958l-5.192 14.432h-.352L299.963 2.53c-.528-1.496-.792-2.002-1.628-2.002V.242h4.268v.286c-1.276 0-1.672.374-1.1 2.002l4.202 11.77 3.982-11.286c.638-1.76.352-2.398-1.276-2.486m21.024 0V.242h3.96v.286c-.88 0-1.188.506-1.672 1.958l-4.686 14.432h-.374l-3.058-9.438-3.344 9.438h-.374L315.223 2.53c-.484-1.496-.792-2.002-1.628-2.002V.242h4.224v.286c-1.254 0-1.584.374-1.056 2.002l3.696 11.528 2.75-7.788-1.21-3.74c-.484-1.518-.77-2.002-1.606-2.002V.242h4.202v.286c-1.232 0-1.584.374-1.056 2.002l3.652 11.462 3.52-10.978c.572-1.782.352-2.398-1.276-2.486m15.277 14.344L341.17 8.91l-3.146 5.082c-1.276 2.024-.836 2.442.792 2.464v.286h-4.268v-.286c.88 0 1.43-.594 2.31-2.002l3.916-6.204-3.696-6.204c-.726-1.188-.968-1.518-1.87-1.518V.242h4.18v.286c-1.1 0-1.342.374-.792 1.32l3.234 5.412 2.794-4.488c1.144-1.848.704-2.222-.704-2.244V.242h3.872v.286c-.88 0-1.188.506-1.914 1.65l-3.652 5.764 4.026 6.732c.792 1.32 1.1 1.782 1.98 1.782v.286h-4.224v-.286c1.122 0 1.408-.374.704-1.584m13.7-14.344V.242h3.982v.286c-.88 0-1.276.682-1.958 1.958l-3.718 6.864v5.368c0 1.606.462 1.738 1.496 1.738v.286h-4.488v-.286c1.144 0 1.496-.132 1.496-1.738V9.394l-3.74-6.776c-.726-1.364-1.1-2.09-1.958-2.09V.242h4.334v.286c-1.32 0-1.672.462-.792 2.09l3.256 5.984 3.036-5.61c.88-1.606.638-2.398-.946-2.464m16.107-.286v.286l-9.108 15.554h4.95c2.838 0 3.476-.462 3.63-4.004h.352v4.664h-10.802v-.286l9.13-15.554h-4.796c-2.332 0-3.124.264-3.19 3.256h-.352V.242zM3.739 41.006c-1.892 0-3.256-1.232-3.256-3.146 0-2.024 1.408-2.97 3.058-3.498.99-.308 1.98-.572 2.618-.88.748-.396 1.276-.88 1.276-2.024 0-1.672-.836-2.596-2.552-2.596-1.518 0-2.2.792-2.376 2.156-.088.748-.396 1.188-.968 1.188-.484 0-.792-.352-.792-.836 0-1.364 1.76-3.102 4.356-3.102 2.508 0 3.828 1.298 3.828 3.454v7.502c0 .528.132.814.572.814.308 0 .594-.176.924-.66l.176.154c-.308.682-.902 1.386-1.76 1.386-.836 0-1.342-.462-1.342-1.584v-.594c-.836 1.188-2.024 2.266-3.762 2.266M2.067 37.75c0 1.364.792 2.354 2.2 2.354 1.32 0 2.332-.88 3.234-2.2v-4.862c-.154.308-.638.726-1.122 1.012-.748.396-1.54.638-2.442 1.056-1.122.528-1.87 1.188-1.87 2.64m15.217 3.146c-1.628 0-2.684-.616-3.432-1.43l-1.145 1.188h-.11V26.09c0-1.1-.021-1.408-1.1-1.166v-.242l2.597-1.474v7.326c.902-1.144 2.243-2.266 4.025-2.266 2.553 0 4.555 2.068 4.555 5.83 0 4.356-2.706 6.798-5.39 6.798m-3.19-3.784c0 1.804 1.606 3.124 3.432 3.124 2.111 0 3.674-1.694 3.674-4.95 0-3.432-1.21-5.962-3.652-5.962-1.672 0-2.53.858-3.454 2.134zm16.038-8.118c-2.024 0-3.74 1.98-3.74 5.148 0 3.52 1.738 5.544 4.07 5.544 1.738 0 3.146-1.1 3.828-3.564l.308.066c-.374 2.728-2.178 4.708-4.642 4.708-3.146 0-5.016-2.618-5.016-5.874 0-4.664 3.102-6.688 5.412-6.688 2.552 0 3.96 1.496 3.96 2.97 0 .506-.308.858-.77.858-.594 0-.858-.396-.99-1.1-.22-1.342-.924-2.068-2.42-2.068m11.055 11.902c-2.53 0-4.554-2.002-4.554-5.786 0-4.356 2.772-6.842 5.478-6.842 1.452 0 2.442.462 3.124 1.144V26.09c0-1.1-.044-1.408-1.1-1.166v-.242l2.552-1.474v14.96c0 1.386.022 1.694 1.1 1.452v.242l-2.552 1.056v-2.31c-.88 1.144-2.266 2.288-4.048 2.288m-3.08-6.974c0 3.432 1.232 5.918 3.652 5.918 1.694 0 2.53-.88 3.476-2.156v-5.588c0-1.804-1.496-3.168-3.344-3.168-2.09 0-3.784 1.738-3.784 4.994m16.63 6.974c-3.147 0-5.038-2.618-5.038-5.698 0-4.972 3.41-6.864 5.456-6.864 2.53-.022 4.355 1.848 4.312 4.554H51.26c-.089.484-.133.99-.133 1.562 0 3.234 1.694 5.324 4.246 5.324 1.804 0 3.212-1.232 3.828-3.696l.309.088c-.397 2.728-2.068 4.73-4.775 4.73m.197-11.946c-1.451 0-2.97 1.078-3.563 3.366h6.445c-.154-2.002-.99-3.366-2.882-3.366m6.476.264v-.704h1.342l.022-.594c-.264-3.058.946-4.62 2.64-4.62 1.188 0 1.672.638 1.672 1.232 0 .396-.286.726-.704.726-.506 0-.748-.33-.968-.682-.176-.286-.352-.572-.748-.572-.484 0-.792.594-.792 1.364 0 1.166.308 1.804.33 3.146h2.486v.704h-2.486v9.9c0 1.166.396 1.386 1.298 1.386v.242h-3.806V40.5c.682 0 1.034-.22 1.034-1.386v-9.9zm10.936 15.642c-2.574 0-4.73-1.078-4.73-2.772 0-1.188 1.166-2.09 2.134-2.618-.726-.308-1.1-.88-1.1-1.562 0-1.056 1.034-1.848 1.914-2.244-1.254-.66-2.112-1.914-2.112-3.388 0-2.222 1.848-3.938 4.048-3.938.462 0 .88.066 1.254.176h3.894v.572h-2.772a3.59 3.59 0 0 1 1.848 3.146c0 2.222-1.848 3.916-4.136 3.916-.506 0-.99-.088-1.43-.242-.902.418-1.386.946-1.386 1.518 0 .506.352.902 1.386.902h3.146c2.64 0 3.52 1.012 3.52 2.552 0 2.068-2.09 3.982-5.478 3.982m.418-9.284c1.364 0 2.464-.99 2.464-2.97 0-1.892-.968-3.696-2.816-3.696-1.232 0-2.42.792-2.42 3.036 0 2.024 1.078 3.63 2.772 3.63m-3.74 6.182c0 1.716 1.452 2.464 3.674 2.464 2.706 0 4.07-1.496 4.07-2.86 0-.836-.308-1.628-2.244-1.628h-3.41c-.264 0-.528-.022-.748-.066-.77.462-1.342 1.166-1.342 2.09m14.248-1.012h-3.696V40.5c.616 0 1.012-.198 1.012-1.386V26.09c0-1.1-.044-1.408-1.1-1.166v-.242l2.552-1.474v7.458c.836-1.1 2.09-2.398 3.938-2.398 2.244 0 3.322 1.65 3.322 3.696v7.15c0 1.188.352 1.386 1.034 1.386v.242h-3.718V40.5c.836 0 1.188-.198 1.188-1.386v-6.82c0-1.848-.748-2.992-2.42-2.992s-2.684 1.32-3.344 2.266v7.546c0 1.188.352 1.386 1.232 1.386zm10.807-14.168a1.04 1.04 0 0 1-1.056-1.056c0-.616.44-1.078 1.056-1.078.66 0 1.056.462 1.056 1.078 0 .572-.396 1.056-1.056 1.056m1.958 14.168h-3.586V40.5c.638 0 1.012-.198 1.012-1.386v-7.568c0-1.54 0-1.892-1.056-1.628v-.242l2.53-1.518v10.956c0 1.188.33 1.386 1.1 1.386zm3.869-14.168a1.04 1.04 0 0 1-1.056-1.056c0-.616.44-1.078 1.056-1.078.638 0 1.056.462 1.056 1.078 0 .572-.418 1.056-1.056 1.056m.836 1.584v11.704c-.044 4.048-.858 5.324-2.64 5.324-1.254 0-1.804-.66-1.804-1.276 0-.462.286-.792.748-.792.44 0 .704.264.946.748.176.352.33.638.726.638.462 0 .836-.528.836-1.386 0-1.144-.264-1.716-.264-3.96v-7.612c0-1.54 0-1.892-1.078-1.628v-.242zm6.67 12.584h-3.696V40.5c.638 0 1.012-.198 1.012-1.386V26.09c0-1.1-.044-1.408-1.1-1.166v-.242l2.574-1.474v15.906c0 1.188.33 1.386 1.21 1.386zm3.19 0V40.5c.924 0 .968-.33.286-1.056l-4.467-4.95v-.066l3.983-3.96c1.1-1.078.792-1.65-.308-1.672v-.286h3.63v.286c-.682 0-1.1.418-2.376 1.65l-3.564 3.52 4.51 4.994c1.034 1.166 1.584 1.54 2.068 1.54v.242zm8.564 0h-3.586V40.5c.682 0 1.056-.198 1.056-1.386V26.09c0-1.1-.022-1.408-1.166-1.166v-.242l2.64-1.474v15.906c0 1.188.33 1.386 1.056 1.386zm5.872 0h-3.696V40.5c.638 0 .99-.198.99-1.386V31.59c0-1.54 0-1.936-1.056-1.672v-.22l2.552-1.474v2.354c.792-1.078 1.958-2.31 3.696-2.31 1.694 0 2.64 1.034 2.97 2.508.792-1.122 1.98-2.508 3.828-2.508 2.09 0 3.102 1.562 3.102 3.652v7.194c0 1.188.352 1.386 1.034 1.386v.242h-3.718V40.5c.836 0 1.188-.198 1.188-1.386V32.25c0-1.87-.682-2.948-2.2-2.948-1.474 0-2.486 1.276-3.124 2.2v7.612c0 1.188.352 1.386 1.232 1.386v.242h-3.894V40.5c.814 0 1.21-.198 1.21-1.386V32.25c0-1.87-.704-2.948-2.2-2.948-1.452 0-2.486 1.232-3.124 2.178v7.634c0 1.188.308 1.386 1.21 1.386zm19.168 0h-3.696V40.5c.638 0 .99-.198.99-1.386V31.59c0-1.54 0-1.936-1.056-1.672v-.22l2.552-1.474v2.42c.836-1.078 2.046-2.376 3.916-2.376 2.244 0 3.3 1.65 3.3 3.696v7.15c0 1.188.396 1.386 1.056 1.386v.242h-3.718V40.5c.814 0 1.21-.198 1.21-1.386v-6.82c0-1.848-.77-2.992-2.442-2.992-1.65 0-2.662 1.298-3.322 2.222v7.59c0 1.188.308 1.386 1.21 1.386zm14.459.154c-2.992 0-5.412-2.618-5.412-6.27 0-3.63 2.332-6.292 5.412-6.292 3.014 0 5.39 2.64 5.39 6.292 0 3.63-2.31 6.27-5.39 6.27m.308-.594c1.76 0 3.476-1.694 3.476-4.884 0-3.608-1.452-6.49-4.048-6.49-1.782 0-3.564 1.606-3.564 4.774 0 3.63 1.54 6.6 4.136 6.6m12.895.594c-1.474 0-2.486-.506-3.212-1.21v3.74c0 1.144.352 1.364 1.54 1.364v.242h-4.004v-.242c.616 0 1.012-.22 1.012-1.364V31.59c0-1.54 0-1.936-1.078-1.672v-.22l2.53-1.474v2.332c.88-1.144 2.266-2.288 4.048-2.288 2.552 0 4.554 2.068 4.554 5.83 0 4.356-2.706 6.798-5.39 6.798m-3.212-3.784c0 1.804 1.628 3.124 3.454 3.124 2.09 0 3.674-1.694 3.674-4.95 0-3.432-1.21-5.962-3.652-5.962-1.694 0-2.53.88-3.476 2.156zm15.373 3.784c-2.53 0-4.554-2.002-4.554-5.786 0-4.356 2.772-6.842 5.478-6.842 1.628 0 2.684.594 3.388 1.43l1.078-1.188h.11v14.916c0 1.144.374 1.364.99 1.364v.242h-4.004v-.242c1.144 0 1.54-.22 1.54-1.364v-4.818c-.88 1.144-2.244 2.288-4.026 2.288m-3.102-6.974c0 3.432 1.232 5.918 3.652 5.918 1.694 0 2.552-.88 3.476-2.156v-5.588c0-1.804-1.474-3.168-3.322-3.168-2.09 0-3.806 1.738-3.806 4.994m15.488 6.82h-3.938V40.5c.638 0 .99-.198.99-1.386V31.59c0-1.54 0-1.936-1.056-1.672v-.22l2.552-1.474v2.838c.792-1.43 1.98-2.794 3.256-2.794.858 0 1.188.484 1.188.99 0 .462-.286.858-.792.858-.594 0-.792-.418-1.364-.418-.77 0-1.518.924-2.288 2.31v7.106c0 1.188.33 1.386 1.452 1.386zm10.753-2.574c0-1.254-.66-1.87-1.672-2.53l-2.134-1.364c-1.254-.792-1.958-1.804-1.958-3.08 0-1.848 1.496-2.882 3.212-2.882 1.364 0 2.09.638 2.464.638.33 0 .44-.176.484-.44h.352v3.476h-.352c-.198-2.266-1.672-3.08-3.08-3.08-1.276 0-1.914.792-1.914 1.804 0 1.056.77 1.694 1.65 2.288l2.112 1.364c1.32.836 2.2 1.672 2.2 3.344 0 1.804-1.452 3.19-3.564 3.19-1.716 0-2.42-.726-2.948-.726-.308 0-.528.308-.528.572h-.352V36.65h.352c.176 2.464 1.716 3.652 3.498 3.652 1.496 0 2.178-.946 2.178-2.134m9.478-.638c-.154 1.892-.902 3.454-2.706 3.454-1.408 0-2.464-.792-2.464-2.75v-9.02h-1.1v-.308c1.452-.352 1.892-1.892 2.2-3.432h.374v3.036h3.278v.704h-3.278v8.8c0 1.474.506 2.068 1.474 2.068s1.628-.792 1.892-2.596zm4.195-.572c0 1.892.748 3.036 2.332 3.036 1.496 0 2.552-1.1 3.212-2.024v-6.38c0-1.496 0-1.98-1.056-1.694v-.242l2.552-1.43v9.944c0 1.364 0 1.694 1.056 1.452v.242l-2.552 1.056V38.85c-.836 1.056-2.046 2.156-3.74 2.156-2.244 0-3.3-1.628-3.3-3.696v-5.72c0-1.496 0-1.98-1.056-1.694v-.242l2.552-1.43zm16.775-8.184v-.264h3.52v.264c-.704 0-1.056.726-1.672 2.332l-3.63 9.812h-.242l-3.828-10.406c-.484-1.342-.726-1.738-1.364-1.738v-.264h3.806v.264c-1.034 0-1.452.396-.946 1.76l2.838 7.766 2.442-6.71c.814-2.178.44-2.772-.924-2.816m16.904 0v-.264h3.52v.264c-.704 0-1.1.704-1.672 2.332l-3.388 9.812h-.242l-2.596-7.546-2.772 7.546h-.242l-3.586-10.406c-.462-1.342-.726-1.738-1.386-1.738v-.264h3.828v.264c-1.056 0-1.452.396-.968 1.76l2.596 7.7 2.178-5.852-.638-1.87c-.44-1.342-.748-1.738-1.386-1.738v-.264h3.762v.264c-.968 0-1.364.396-.88 1.76l2.574 7.634 2.222-6.578c.77-2.2.44-2.772-.924-2.816M270.047 40.5v.242h-3.872V40.5c1.056 0 1.342-.242.836-1.056l-2.728-4.334-2.244 3.542c-.792 1.21-.352 1.782.88 1.826v.264h-3.828v-.264c.704 0 1.276-.506 2.002-1.584l2.816-4.378-2.574-4.07c-.836-1.364-1.232-1.672-1.804-1.672v-.264h3.784v.264c-.924 0-1.232.198-.704 1.034l2.31 3.696 1.826-2.794c.902-1.386.396-1.914-.616-1.936v-.264h3.476v.264c-.66 0-1.078.418-1.98 1.782l-2.332 3.542 2.948 4.708c.836 1.342 1.32 1.694 1.804 1.694m2.729 4.752c-.946 0-1.716-.418-1.716-1.166 0-.55.396-.814.836-.814.704 0 .946.814 1.716.814.594 0 1.32-.44 2.42-3.454l-3.564-10.098c-.484-1.364-.726-1.76-1.364-1.76v-.264h3.806v.264c-1.078 0-1.43.396-.946 1.76l2.794 8.052 2.508-7.04c.748-2.112.462-2.728-.946-2.772v-.264h3.52v.264c-.704 0-1.078.704-1.672 2.332l-3.388 9.46c-1.364 3.784-2.398 4.686-4.004 4.686m19.065-16.742v.264l-7.128 11.286h3.52c2.2 0 2.794-.396 2.904-3.036h.352v3.718h-8.624v-.264l7.128-11.286h-3.564c-1.848 0-2.376.33-2.442 2.64h-.352V28.51zM2.155 49.738c-.396.22-1.364.528-1.826.594v-.286c1.21-.484 2.222-1.232 3.014-2.046h.286v14.718c0 1.606.396 1.738 1.672 1.738v.286H.461v-.286c1.232 0 1.694-.132 1.694-1.738zm5.183 15.004v-.484c1.716-1.804 2.882-2.97 4.532-4.84 2.134-2.464 3.41-4.708 3.41-6.842 0-2.332-1.342-3.52-3.322-3.52-1.936 0-3.278 1.342-3.916 3.586l-.396-.088C8.218 49.958 9.692 48 12.574 48c2.552 0 4.312 1.606 4.312 4.026 0 2.728-1.848 5.104-4.488 7.876a163 163 0 0 1-3.41 3.498h4.598c2.508 0 2.86-.286 3.168-1.936h.352l-.484 3.278zm15.361-8.008-.22-.33c2.244-1.518 3.74-2.618 3.74-4.62 0-1.54-.814-2.75-2.64-2.75-1.738 0-2.596 1.078-3.234 2.552l-.374-.088C20.675 49.386 21.995 48 24.239 48s3.432 1.584 3.432 3.234c0 1.496-1.012 2.684-2.684 3.916 2.156.11 4.048 1.804 4.048 4.268 0 2.992-2.178 5.478-5.412 5.478-2.882 0-4.488-1.716-4.488-3.146 0-.616.352-.924.88-.924.506 0 .748.352.88 1.056.308 1.474.792 2.42 3.036 2.42 2.068 0 3.564-1.496 3.564-4.07 0-2.31-1.232-3.96-3.344-3.96-.638 0-1.056.198-1.452.462m18.348 7.722v.286h-4.752v-.286c1.276 0 1.65-.132 1.65-1.738v-2.332h-6.842v-.396l7.942-11.946h.374v11.44h2.332v.902h-2.332v2.332c0 1.606.352 1.738 1.628 1.738m-8.734-4.972h5.632v-8.492zm15.57 5.412c-2.662 0-4.312-1.716-4.312-3.146 0-.616.352-.924.88-.924.506 0 .748.352.88 1.056.308 1.474.836 2.42 2.86 2.42 2.42 0 3.762-1.87 3.762-4.488 0-2.86-1.628-4.62-3.982-4.62-1.276 0-2.2.374-2.948 1.188h-.352l.902-8.14h7.524l-.242 1.364h-6.71l-.638 5.544c.638-.572 1.54-1.034 2.948-1.034 2.486 0 5.016 1.65 5.016 4.95 0 3.168-2.134 5.83-5.588 5.83m18.661-5.654c0 3.476-2.53 5.72-5.148 5.72-2.662 0-5.61-2.2-5.61-6.688 0-7.084 6.248-9.834 9.108-10.274l.044.396c-2.486.726-7.062 2.97-7.502 8.69 1.012-1.342 2.552-2.596 4.488-2.596 2.794 0 4.62 1.98 4.62 4.752m-5.082-3.784c-1.892 0-3.19 1.32-4.07 2.596.022 4.158 2.068 6.248 4.18 6.248 1.936 0 3.388-1.672 3.388-4.532 0-2.772-1.342-4.312-3.498-4.312m15.925-7.216v.506l-6.38 15.994h-.968l6.358-15.224h-5.302c-2.464 0-2.684.396-3.102 1.848h-.352l.44-3.124zm10.72 3.234c0 2.09-1.827 3.52-3.235 4.356 2.42 1.386 3.872 2.706 3.872 4.818 0 2.354-2.112 4.334-4.972 4.334-2.288 0-4.928-1.386-4.928-4.07 0-2.332 2.134-3.828 3.806-4.73-2.2-1.276-3.19-2.64-3.19-4.29 0-2.156 2.024-3.894 4.444-3.894 2.068 0 4.202 1.056 4.202 3.476m-7.327-.11c0 1.628 1.012 2.662 3.542 4.158 1.408-.88 2.486-2.068 2.486-3.718 0-2.002-1.056-3.168-3.124-3.168-1.782 0-2.904 1.144-2.904 2.728m-.44 9.306c0 2.222 1.518 3.674 3.74 3.674 2.112 0 3.234-1.474 3.234-3.124 0-1.716-1.1-3.036-4.092-4.73-1.452.902-2.882 2.002-2.882 4.18m10.304-6.974c0-3.454 2.552-5.698 5.17-5.698 2.64 0 5.588 2.134 5.588 6.71 0 7.304-6.292 9.812-9.592 10.252l-.044-.396c2.904-.726 7.546-2.75 7.986-8.668-1.012 1.342-2.552 2.574-4.488 2.574-2.794 0-4.62-2.002-4.62-4.774m1.584-.528c0 2.794 1.342 4.312 3.498 4.312 1.892 0 3.19-1.298 4.07-2.596-.022-4.114-2.046-6.226-4.18-6.226-1.892 0-3.388 1.65-3.388 4.51m17.336 11.814c-2.332 0-5.852-2.222-5.852-8.426 0-6.336 3.498-8.558 5.852-8.558 2.288 0 5.874 2.31 5.874 8.47 0 6.336-3.476 8.514-5.874 8.514m.308-.638c1.628 0 4.048-1.232 4.048-6.864 0-4.4-1.606-8.822-4.686-8.822-1.65 0-3.982 1.254-3.982 6.864 0 4.488 1.54 8.822 4.62 8.822m8.227-14.916c-.066-1.056.33-1.518.902-1.518.528 0 .924.462.88 1.518l-.704 10.274h-.352zm.902 15.444c-.616 0-1.034-.484-1.034-1.056s.418-1.012 1.034-1.012 1.012.44 1.012 1.012-.396 1.056-1.012 1.056m6.752-16.324c-1.21 0-1.716.572-1.848 1.848-.088.902-.33 1.32-.924 1.32s-.858-.374-.858-.99c0-1.386 1.474-2.794 3.784-2.794 2.42.022 4.004 1.276 4.004 3.212 0 1.76-.726 2.728-2.574 4.488-1.144 1.122-2.134 2.332-2.288 4.07h-.352c-.066-2.156.924-3.586 1.98-4.862.814-.99 1.694-2.09 1.672-3.564 0-1.672-.88-2.728-2.596-2.728m-.836 16.324c-.572 0-1.012-.484-1.012-1.056a.996.996 0 0 1 1.012-1.012c.638 0 1.034.44 1.034 1.012s-.396 1.056-1.034 1.056m15.065-.792c-1.496 0-2.794-1.1-2.794-3.212 0-4.004 3.872-7.854 6.776-7.854 1.1 0 1.782.528 2.156 1.144l.33-1.012h1.452l-2.618 7.898c-.484 1.452-.506 2.332.902 2.332 2.508 0 5.412-3.124 5.412-7.524 0-5.236-3.52-7.238-7.282-7.238-5.478 0-10.978 4.29-10.978 11.198 0 6.116 3.916 8.58 8.36 8.58 2.904 0 4.994-.968 6.27-1.936l.22.242c-1.122 1.056-3.674 2.442-6.974 2.442-4.884 0-9.196-2.904-9.196-8.888 0-7.194 5.984-12.232 12.298-12.232 4.466 0 8.294 2.442 8.294 7.348 0 5.28-3.41 8.712-6.732 8.712-1.562 0-2.398-.902-2.222-2.354-.88 1.254-2.156 2.354-3.674 2.354m-1.254-3.74c0 1.562.594 2.552 1.914 2.552 1.518 0 2.64-1.342 3.454-2.772l1.54-4.576c-.11-1.232-.99-1.848-1.958-1.848-2.068 0-4.95 2.904-4.95 6.644m16.026-2.31h2.244l.814-3.388h-2.178v-.99h2.42l1.32-5.412h.66l-1.32 5.412h2.882l1.32-5.412h.66l-1.32 5.412h2.046v.99h-2.288l-.814 3.388h2.178v.99h-2.42l-1.386 5.72h-.66l1.386-5.72h-2.882l-1.386 5.72h-.66l1.386-5.72h-2.002zm2.904 0h2.882l.814-3.388h-2.882zm13.144-11.352h.594v1.342c2.354.154 3.916 1.54 3.916 2.728 0 .616-.33.902-.792.902-.506 0-.77-.33-.924-1.034-.264-1.078-.66-1.804-2.2-1.936v6.556l1.386.88c1.606 1.012 3.102 2.266 3.102 4.488 0 2.53-1.892 4.18-4.532 4.334v2.156h-.594v-2.134c-2.75-.066-4.488-1.826-4.488-3.212 0-.616.33-.946.858-.946.506 0 .77.374.902 1.078.286 1.364.814 2.354 2.728 2.464V56.58l-1.144-.726c-1.694-1.078-2.882-2.288-2.882-4.048 0-2.2 1.76-3.674 4.07-3.806zm-.264 8.03.264.176V48.66c-1.672.044-2.772 1.078-2.772 2.662 0 1.452 1.056 2.442 2.508 3.388m1.298 2.552-.484-.308v7.392c1.87-.088 3.102-1.298 3.102-3.168 0-1.562-.836-2.772-2.618-3.916m9.296-1.232c-1.32 0-3.168-1.144-3.168-4.004 0-2.882 1.848-4.004 3.124-4.004s3.212 1.122 3.212 4.004c0 2.86-1.87 4.004-3.168 4.004m8.096-7.788h.902l-10.714 16.5h-.902zm-7.92 7.216c.682 0 1.716-.55 1.716-2.816 0-1.936-.616-4.026-2.112-4.026-.704 0-1.672.55-1.672 2.772 0 1.936.572 4.07 2.068 4.07m6.226 9.482c-1.298 0-3.168-1.122-3.168-4.026 0-2.86 1.87-3.96 3.124-3.96 1.298 0 3.19 1.1 3.19 3.96 0 2.904-1.848 4.026-3.146 4.026m.154-.594c.704 0 1.738-.528 1.738-2.794 0-1.914-.638-4.026-2.09-4.026-.726 0-1.716.55-1.716 2.772 0 1.936.616 4.048 2.068 4.048m11.618-10.032-2.86-5.214-2.86 5.214h-.836l3.476-6.27h.44l3.476 6.27zm14.121 8.228c1.1 1.496 1.452 1.848 2.508 1.914v.286h-2.728l-1.562-2.134c-1.144 1.342-2.684 2.288-4.642 2.288-2.86 0-4.532-2.046-4.532-4.202 0-2.53 1.804-4.07 3.96-5.104-1.012-1.122-1.716-2.398-1.716-3.806 0-2.178 1.716-3.696 3.784-3.696 1.65 0 3.278 1.078 3.278 3.212 0 1.738-1.43 3.234-3.498 4.246l3.806 5.192c.682-1.232 1.166-2.64 1.166-3.828 0-.792-.308-1.122-1.452-1.122v-.286h3.872v.286c-.88.022-1.254.418-1.54 1.43-.374 1.386-.814 2.75-1.606 4.114zm-7.392-11.264c0 1.342.616 2.508 1.87 3.828 1.496-.77 2.574-1.848 2.574-3.52 0-1.716-.814-2.86-2.156-2.86-1.32 0-2.288 1.012-2.288 2.552m-2.09 8.778c0 2.09 1.408 3.762 3.696 3.762 1.386 0 2.618-.66 3.586-1.782l-4.4-5.984c-1.606.836-2.882 2.134-2.882 4.004m15.225-7.216c-.264 0-.55-.242-.55-.506 0-.308.264-.638.792-1.034l.77-.638-.99-.044c-.836-.022-1.298-.22-1.298-.638 0-.286.198-.55.506-.55.242 0 .572.154 1.034.462l.836.55-.286-1.012c-.286-.968-.132-1.474.418-1.474s.682.506.374 1.474l-.264 1.012.836-.55c.462-.308.792-.462 1.056-.462.308 0 .484.264.484.55 0 .418-.44.616-1.276.638l-1.012.044.792.638c.528.396.792.726.792 1.034 0 .264-.308.506-.572.506-.286 0-.572-.352-.836-1.078l-.374-.968-.374.968c-.264.726-.572 1.078-.858 1.078m6.13 5.038c0-3.74 1.408-7.348 3.872-10.648l.418.22c-2.134 3.388-3.058 6.754-3.058 10.428s.924 7.04 3.058 10.428l-.418.22c-2.464-3.3-3.872-6.908-3.872-10.648m10.513 0c0 3.74-1.408 7.348-3.894 10.648l-.418-.22c2.134-3.388 3.08-6.754 3.08-10.428s-.946-7.04-3.08-10.428l.418-.22c2.486 3.3 3.894 6.908 3.894 10.648m7.17 10.164h-3.652V47.34h3.652v.286c-2.2 0-2.552.11-2.552 1.738v16.654c0 1.606.352 1.716 2.552 1.716zm1.977 0v-.308c2.2 0 2.574-.11 2.574-1.716V49.364c0-1.628-.374-1.738-2.574-1.738v-.286h3.652v20.702zm7.829-10.274c1.43.22 2.244 1.122 2.244 2.354 0 1.276-.902 3.542-.902 5.038 0 1.276.66 2.266 2.882 2.618l-.044.374c-2.552-.33-4.048-1.364-4.048-3.278 0-1.76 1.188-3.784 1.188-5.104 0-.946-.396-1.716-2.64-1.848v-.352c2.244-.11 2.64-.902 2.64-1.848 0-1.32-1.188-3.344-1.188-5.104 0-1.914 1.496-2.948 4.048-3.278l.044.374c-2.222.352-2.882 1.342-2.882 2.618 0 1.496.902 3.762.902 5.038 0 1.232-.814 2.134-2.244 2.354zm10.52 0v-.044c-1.43-.22-2.244-1.122-2.244-2.354 0-1.276.902-3.542.902-5.038 0-1.276-.66-2.266-2.882-2.618l.044-.374c2.552.33 4.048 1.364 4.048 3.278 0 1.76-1.188 3.784-1.188 5.104 0 .946.396 1.738 2.64 1.848v.352c-2.244.11-2.64.902-2.64 1.848 0 1.32 1.188 3.344 1.188 5.104 0 1.914-1.496 2.948-4.048 3.278l-.044-.374c2.222-.352 2.882-1.342 2.882-2.618 0-1.496-.902-3.762-.902-5.038 0-1.232.814-2.134 2.244-2.354m11.07 2.442v.726l-7.7-3.938v-.352l7.7-3.938v.726l-6.644 3.388zm10.6-3.212-7.7 3.938v-.726l6.644-3.388-6.644-3.388v-.726l7.7 3.938zm2.593-.154h5.148v1.012h-5.148zm11.631 4.444v-4.224h-3.74v-.66h3.74V52.18h.748v4.224h3.74v.66h-3.74v4.224z" />
</svg>