<svg xmlns="http://www.w3.org/2000/svg" width="558" height="32" fill="none" viewBox="0 0 558 32"><path fill="#000" d="M2.176 4.544c0-2.368-.544-2.528-2.176-2.528V1.6h7.904c4.512 0 8.64 2.112 8.64 6.4 0 4-3.424 7.424-8.416 7.424h-3.2v7.232c0 2.336.704 2.528 2.432 2.528v.416H0v-.416c1.632 0 2.176-.192 2.176-2.528zm5.12-1.696H4.928v11.328h3.104c3.936 0 5.6-2.016 5.6-5.536 0-3.328-2.272-5.792-6.336-5.792M23.96 25.6h-6.176v-.352c.864 0 1.408-.32 1.408-2.016V12.64c0-2.24 0-2.784-1.504-2.624v-.352l4.192-2.336v4.16c1.12-2.016 2.752-4.032 4.672-4.032 1.376 0 1.952.832 1.952 1.76 0 .8-.544 1.536-1.44 1.536-1.024 0-1.312-.608-2.336-.608-.96 0-1.856 1.28-2.848 2.976v10.112c0 1.696.512 2.016 2.08 2.016zm11.963.224c-4.576 0-7.296-3.776-7.296-8.256 0-6.944 4.768-10.016 7.872-10.016 3.744-.032 6.368 2.752 6.368 6.912H31.25a14 14 0 0 0-.096 1.664c0 4.768 2.72 7.584 5.92 7.584 2.304 0 4.416-1.536 5.408-4.896l.448.128c-.608 3.968-3.2 6.88-7.008 6.88m.128-17.088c-1.856 0-3.84 1.568-4.576 4.64h8.48c-.288-2.784-1.376-4.64-3.904-4.64M50.046 25.6h-5.824v-.352c.864 0 1.408-.32 1.408-2.016V12.64c0-2.24 0-2.784-1.504-2.624v-.352l4.192-2.336v3.456c1.152-1.6 2.752-3.36 5.312-3.36 2.464 0 3.808 1.504 4.288 3.648 1.12-1.664 2.784-3.648 5.504-3.648 3.04 0 4.48 2.24 4.48 5.344v10.464c0 1.696.544 2.016 1.472 2.016v.352h-5.856v-.352c1.152 0 1.696-.32 1.696-2.016v-9.984c0-2.432-.96-3.808-2.944-3.808-2.048 0-3.296 1.664-4.16 2.944v10.848c0 1.696.48 2.016 1.728 2.016v.352h-6.112v-.352c1.152 0 1.696-.32 1.696-2.016v-9.984c0-2.432-.96-3.808-2.944-3.808-2.048 0-3.296 1.664-4.16 2.944v10.848c0 1.696.48 2.016 1.728 2.016zM73.41 5.344c-1.056 0-1.824-.8-1.824-1.824s.768-1.824 1.824-1.824c1.088 0 1.824.8 1.824 1.824s-.736 1.824-1.824 1.824M76.419 25.6h-5.632v-.352c.864 0 1.408-.32 1.408-2.016V12.64c0-2.24 0-2.784-1.504-2.624v-.352l4.192-2.336v15.904c0 1.696.48 2.016 1.536 2.016zm5.492-5.44c0 2.432 1.088 3.808 3.072 3.808 2.08 0 3.488-1.44 4.384-2.688v-8.64c0-2.112 0-2.912-1.536-2.72v-.352l4.224-2.24V21.76c0 1.696 0 2.24 1.536 2.144v.352l-4.224 1.696V22.88c-1.216 1.536-3.008 3.104-5.44 3.104-3.232 0-4.704-2.24-4.704-5.344v-8c0-2.112 0-2.912-1.536-2.72v-.352l4.224-2.24zm18.916 5.44h-5.824v-.352c.864 0 1.408-.32 1.408-2.016V12.64c0-2.24 0-2.784-1.504-2.624v-.352L99.1 7.328v3.456c1.152-1.6 2.752-3.36 5.312-3.36 2.464 0 3.808 1.504 4.288 3.648 1.12-1.664 2.784-3.648 5.504-3.648 3.04 0 4.48 2.24 4.48 5.344v10.464c0 1.696.544 2.016 1.472 2.016v.352h-5.856v-.352c1.152 0 1.696-.32 1.696-2.016v-9.984c0-2.432-.96-3.808-2.944-3.808-2.048 0-3.296 1.664-4.16 2.944v10.848c0 1.696.48 2.016 1.728 2.016v.352h-6.112v-.352c1.152 0 1.696-.32 1.696-2.016v-9.984c0-2.432-.96-3.808-2.944-3.808-2.048 0-3.296 1.664-4.16 2.944v10.848c0 1.696.48 2.016 1.728 2.016zm34.559-3.616c0-1.632-.832-2.4-2.368-3.456l-2.784-1.92c-1.856-1.28-2.88-2.848-2.88-4.64 0-2.944 2.24-4.448 4.768-4.448 2.08 0 3.136.992 3.712.992.448 0 .64-.288.704-.704h.48v5.408h-.448c-.544-3.232-2.56-4.608-4.64-4.608-1.664 0-2.464.992-2.464 2.432 0 1.344.992 2.112 2.336 3.072l2.784 1.984c1.952 1.376 3.264 2.592 3.264 5.152s-2.08 4.576-5.152 4.576c-2.72 0-3.744-1.088-4.448-1.088-.512 0-.768.48-.8.864h-.48v-6.272h.448c.416 3.68 2.976 5.408 5.312 5.408 1.888 0 2.656-1.376 2.656-2.752m7.931-1.824c0 2.432 1.088 3.808 3.072 3.808 2.08 0 3.488-1.44 4.384-2.688v-8.64c0-2.112 0-2.912-1.536-2.72v-.352l4.224-2.24V21.76c0 1.696 0 2.24 1.536 2.144v.352l-4.224 1.696V22.88c-1.216 1.536-3.008 3.104-5.44 3.104-3.232 0-4.704-2.24-4.704-5.344v-8c0-2.112 0-2.912-1.536-2.72v-.352l4.224-2.24zm21.508 5.664c-1.952 0-3.36-.576-4.384-1.376v5.024c0 1.696.544 2.016 2.112 2.016v.352h-6.208v-.352c.864 0 1.408-.32 1.408-2.016V12.64c0-2.24 0-2.784-1.504-2.624v-.352l4.192-2.336v3.296c1.312-1.6 3.328-3.2 5.76-3.2 3.616 0 6.496 3.04 6.496 8.64 0 6.176-3.936 9.76-7.872 9.76m-4.384-5.664c0 2.592 2.336 4.416 4.896 4.416 2.848 0 4.736-2.24 4.736-6.56 0-4.448-1.472-8.576-5.12-8.576-2.208 0-3.328 1.184-4.512 2.752zm22.134 5.664c-1.952 0-3.36-.576-4.384-1.376v5.024c0 1.696.544 2.016 2.112 2.016v.352h-6.208v-.352c.864 0 1.408-.32 1.408-2.016V12.64c0-2.24 0-2.784-1.504-2.624v-.352l4.192-2.336v3.296c1.312-1.6 3.328-3.2 5.76-3.2 3.616 0 6.496 3.04 6.496 8.64 0 6.176-3.936 9.76-7.872 9.76m-4.384-5.664c0 2.592 2.336 4.416 4.896 4.416 2.848 0 4.736-2.24 4.736-6.56 0-4.448-1.472-8.576-5.12-8.576-2.208 0-3.328 1.184-4.512 2.752zm19.226 5.44h-5.664v-.352c.928 0 1.472-.32 1.472-2.016V4.768c0-1.824 0-2.272-1.632-2.144v-.352L195.913 0v23.232c0 1.696.48 2.016 1.504 2.016zm8.506.224c-4.576 0-7.296-3.776-7.296-8.256 0-6.944 4.768-10.016 7.872-10.016 3.744-.032 6.368 2.752 6.368 6.912h-11.616a14 14 0 0 0-.096 1.664c0 4.768 2.72 7.584 5.92 7.584 2.304 0 4.416-1.536 5.408-4.896l.448.128c-.608 3.968-3.2 6.88-7.008 6.88m.128-17.088c-1.856 0-3.84 1.568-4.576 4.64h8.48c-.288-2.784-1.376-4.64-3.904-4.64M220.046 25.6h-5.824v-.352c.864 0 1.408-.32 1.408-2.016V12.64c0-2.24 0-2.784-1.504-2.624v-.352l4.192-2.336v3.456c1.152-1.6 2.752-3.36 5.312-3.36 2.464 0 3.808 1.504 4.288 3.648 1.12-1.664 2.784-3.648 5.504-3.648 3.04 0 4.48 2.24 4.48 5.344v10.464c0 1.696.544 2.016 1.472 2.016v.352h-5.856v-.352c1.152 0 1.696-.32 1.696-2.016v-9.984c0-2.432-.96-3.808-2.944-3.808-2.048 0-3.296 1.664-4.16 2.944v10.848c0 1.696.48 2.016 1.728 2.016v.352h-6.112v-.352c1.152 0 1.696-.32 1.696-2.016v-9.984c0-2.432-.96-3.808-2.944-3.808-2.048 0-3.296 1.664-4.16 2.944v10.848c0 1.696.48 2.016 1.728 2.016zm27.877.224c-4.576 0-7.296-3.776-7.296-8.256 0-6.944 4.768-10.016 7.872-10.016 3.744-.032 6.368 2.752 6.368 6.912h-11.616a14 14 0 0 0-.096 1.664c0 4.768 2.72 7.584 5.92 7.584 2.304 0 4.416-1.536 5.408-4.896l.448.128c-.608 3.968-3.2 6.88-7.008 6.88m.128-17.088c-1.856 0-3.84 1.568-4.576 4.64h8.48c-.288-2.784-1.376-4.64-3.904-4.64M262.046 25.6h-5.824v-.352c.864 0 1.408-.32 1.408-2.016V12.64c0-2.24 0-2.784-1.504-2.624v-.352l4.192-2.336v3.52c1.184-1.6 2.976-3.424 5.632-3.424 3.232 0 4.8 2.304 4.8 5.344v10.464c0 1.696.544 2.016 1.472 2.016v.352h-5.856v-.352c1.152 0 1.696-.32 1.696-2.016v-9.984c0-2.368-1.056-3.808-3.296-3.808-2.368 0-3.584 1.696-4.448 2.944v10.848c0 1.696.48 2.016 1.728 2.016zm20.576-4.768c-.288 2.592-1.28 5.12-4.128 5.12-2.144 0-3.712-1.216-3.712-4.128V9.152h-1.6v-.416c2.08-.64 2.944-2.912 3.648-5.6h.64v4.672h4.576v1.344h-4.576v12.384c0 1.92.768 2.752 2.08 2.752 1.28 0 2.208-.928 2.624-3.52zm9.42 1.152c0-1.632-.832-2.4-2.368-3.456l-2.784-1.92c-1.856-1.28-2.88-2.848-2.88-4.64 0-2.944 2.24-4.448 4.768-4.448 2.08 0 3.136.992 3.712.992.448 0 .64-.288.704-.704h.48v5.408h-.448c-.544-3.232-2.56-4.608-4.64-4.608-1.664 0-2.464.992-2.464 2.432 0 1.344.992 2.112 2.336 3.072l2.784 1.984c1.952 1.376 3.264 2.592 3.264 5.152s-2.08 4.576-5.152 4.576c-2.72 0-3.744-1.088-4.448-1.088-.512 0-.768.48-.8.864h-.48v-6.272h.448c.416 3.68 2.976 5.408 5.312 5.408 1.888 0 2.656-1.376 2.656-2.752m5.503 4.48c0-.48-.288-.672-.64-.928-.512-.352-1.024-.672-1.024-1.536 0-.992.672-1.664 1.664-1.664 1.056 0 1.792.736 1.792 2.08 0 1.92-1.056 3.584-3.584 4.832l-.192-.384c1.344-.896 1.984-1.76 1.984-2.4m16.573-17.696c-2.56 0-5.056 2.72-5.056 7.04 0 4.992 2.592 7.808 5.824 7.808 2.24 0 4.192-1.504 5.216-4.736l.448.128c-.64 3.84-3.2 6.816-6.784 6.816-4.576 0-7.296-3.776-7.296-8.576 0-6.624 4.48-9.696 8.032-9.696 3.68 0 5.632 2.048 5.632 4.352 0 .864-.544 1.504-1.312 1.504-1.024 0-1.472-.768-1.696-1.856-.352-1.76-1.344-2.784-3.008-2.784M327.835 25.6h-6.176v-.352c.864 0 1.408-.32 1.408-2.016V12.64c0-2.24 0-2.784-1.504-2.624v-.352l4.192-2.336v4.16c1.12-2.016 2.752-4.032 4.672-4.032 1.376 0 1.952.832 1.952 1.76 0 .8-.544 1.536-1.44 1.536-1.024 0-1.312-.608-2.336-.608-.96 0-1.856 1.28-2.848 2.976v10.112c0 1.696.512 2.016 2.08 2.016zm10.188.384c-2.784 0-4.896-1.888-4.896-4.64 0-2.944 2.08-4.256 4.544-5.088 1.376-.48 2.72-.8 3.68-1.248.928-.448 1.856-1.312 1.856-3.04 0-2.048-1.28-3.392-3.456-3.392s-3.008 1.056-3.232 2.784c-.192 1.408-.736 2.24-1.696 2.24-.864 0-1.408-.608-1.408-1.504 0-2.144 2.656-4.672 6.816-4.672 3.552 0 5.632 1.6 5.632 4.832V23.04c0 .736.256 1.184.864 1.184.448 0 .864-.192 1.312-.864l.224.224c-.512 1.152-1.44 2.304-2.88 2.304s-2.176-.896-2.176-2.592v-.544c-1.184 1.568-2.88 3.232-5.184 3.232m-2.048-4.896c0 1.792 1.152 3.072 3.072 3.072 1.536 0 2.784-1.056 4.16-2.848v-6.624c-.224.416-.736.96-1.408 1.376-.96.608-2.272.992-3.456 1.6-1.504.768-2.368 1.888-2.368 3.424M348.31 9.152V7.808h1.952c-.672-5.248 1.44-7.584 3.936-7.584 1.856 0 2.784 1.024 2.784 2.112 0 .672-.448 1.216-1.184 1.216-.8 0-1.216-.608-1.536-1.12-.288-.448-.608-.992-1.184-.992-.544 0-.96.64-.96 1.6 0 1.632.672 2.528.736 4.768h3.552v1.344h-3.552v14.08c0 1.696.576 2.016 1.856 2.016v.352h-5.984v-.352c.928 0 1.472-.32 1.472-2.016V9.152zm18.031 11.68c-.288 2.592-1.28 5.12-4.128 5.12-2.144 0-3.712-1.216-3.712-4.128V9.152h-1.6v-.416c2.08-.64 2.944-2.912 3.648-5.6h.64v4.672h4.576v1.344h-4.576v12.384c0 1.92.768 2.752 2.08 2.752 1.28 0 2.208-.928 2.624-3.52zm8.175 4.992c-4.576 0-7.296-3.776-7.296-8.256 0-6.944 4.768-10.016 7.872-10.016 3.744-.032 6.368 2.752 6.368 6.912h-11.616a14 14 0 0 0-.096 1.664c0 4.768 2.72 7.584 5.92 7.584 2.304 0 4.416-1.536 5.408-4.896l.448.128c-.608 3.968-3.2 6.88-7.008 6.88m.128-17.088c-1.856 0-3.84 1.568-4.576 4.64h8.48c-.288-2.784-1.376-4.64-3.904-4.64m14.824 17.088c-3.584 0-6.528-2.88-6.528-8.48 0-6.208 4.128-9.92 8.16-9.92 1.888 0 3.168.576 4.096 1.312V4.768c0-1.824 0-2.272-1.536-2.144v-.352L397.884 0v21.76c0 1.792.032 2.24 1.6 2.144v.352l-4.288 1.696v-3.296c-1.28 1.6-3.328 3.168-5.728 3.168m-3.904-10.432c0 4.416 1.536 8.416 5.12 8.416 2.208 0 3.36-1.184 4.512-2.752v-7.84c0-2.592-1.92-4.544-4.544-4.544-2.848 0-5.088 2.368-5.088 6.72m20.496-6.24V7.808h1.952c-.672-5.248 1.44-7.584 3.936-7.584 1.856 0 2.784 1.024 2.784 2.112 0 .672-.448 1.216-1.184 1.216-.8 0-1.216-.608-1.536-1.12-.288-.448-.608-.992-1.184-.992-.544 0-.96.64-.96 1.6 0 1.632.672 2.528.736 4.768h3.552v1.344h-3.552v14.08c0 1.696.576 2.016 1.856 2.016v.352h-5.984v-.352c.928 0 1.472-.32 1.472-2.016V9.152zm16.222 16.672c-4.448 0-7.968-3.808-7.968-9.12s3.424-9.152 7.968-9.152c4.48 0 7.968 3.84 7.968 9.152s-3.392 9.12-7.968 9.12m.608-1.12c2.272 0 4.512-2.24 4.512-6.432 0-5.056-1.952-9.568-5.632-9.568-2.336 0-4.64 2.08-4.64 6.24 0 5.088 2.08 9.76 5.76 9.76m14.945.896h-6.176v-.352c.864 0 1.408-.32 1.408-2.016V12.64c0-2.24 0-2.784-1.504-2.624v-.352l4.192-2.336v4.16c1.12-2.016 2.752-4.032 4.672-4.032 1.376 0 1.952.832 1.952 1.76 0 .8-.544 1.536-1.44 1.536-1.024 0-1.312-.608-2.336-.608-.96 0-1.856 1.28-2.848 2.976v10.112c0 1.696.512 2.016 2.08 2.016zm28.549-17.376v-.416h5.408v.416c-.992 0-1.632 1.184-2.4 3.392l-5.024 14.24h-.352l-4-11.136-4.416 11.136h-.352l-5.344-15.168c-.672-1.888-1.024-2.464-1.952-2.464v-.416h6.016v.416c-1.472 0-2.048.576-1.376 2.464l3.584 10.208 3.2-7.904-.832-2.304c-.672-1.888-1.088-2.464-2.016-2.464v-.416h5.888v.416c-1.28 0-1.856.576-1.184 2.464l3.616 10.08 2.912-8.48c.992-2.848.48-4.064-1.376-4.064m12.32 17.6c-4.576 0-7.296-3.776-7.296-8.256 0-6.944 4.768-10.016 7.872-10.016 3.744-.032 6.368 2.752 6.368 6.912h-11.616a14 14 0 0 0-.096 1.664c0 4.768 2.72 7.584 5.92 7.584 2.304 0 4.416-1.536 5.408-4.896l.448.128c-.608 3.968-3.2 6.88-7.008 6.88m.128-17.088c-1.856 0-3.84 1.568-4.576 4.64h8.48c-.288-2.784-1.376-4.64-3.904-4.64M492.667 25.6h-5.664v-.352c.928 0 1.472-.32 1.472-2.016V4.768c0-1.824 0-2.272-1.632-2.144v-.352L491.163 0v23.232c0 1.696.48 2.016 1.504 2.016zm7.094 0h-5.664v-.352c.928 0 1.472-.32 1.472-2.016V4.768c0-1.824 0-2.272-1.632-2.144v-.352L498.257 0v23.232c0 1.696.48 2.016 1.504 2.016zm7.254 0h-5.824v-.352c.864 0 1.408-.32 1.408-2.016V12.64c0-2.24 0-2.784-1.504-2.624v-.352l4.192-2.336v3.52c1.184-1.6 2.976-3.424 5.632-3.424 3.232 0 4.8 2.304 4.8 5.344v10.464c0 1.696.544 2.016 1.472 2.016v.352h-5.856v-.352c1.152 0 1.696-.32 1.696-2.016v-9.984c0-2.368-1.056-3.808-3.296-3.808-2.368 0-3.584 1.696-4.448 2.944v10.848c0 1.696.48 2.016 1.728 2.016zm18.72.224c-4.576 0-7.296-3.776-7.296-8.256 0-6.944 4.768-10.016 7.872-10.016 3.744-.032 6.368 2.752 6.368 6.912h-11.616a14 14 0 0 0-.096 1.664c0 4.768 2.72 7.584 5.92 7.584 2.304 0 4.416-1.536 5.408-4.896l.448.128c-.608 3.968-3.2 6.88-7.008 6.88m.128-17.088c-1.856 0-3.84 1.568-4.576 4.64h8.48c-.288-2.784-1.376-4.64-3.904-4.64m16.648 13.248c0-1.632-.832-2.4-2.368-3.456l-2.784-1.92c-1.856-1.28-2.88-2.848-2.88-4.64 0-2.944 2.24-4.448 4.768-4.448 2.08 0 3.136.992 3.712.992.448 0 .64-.288.704-.704h.48v5.408h-.448c-.544-3.232-2.56-4.608-4.64-4.608-1.664 0-2.464.992-2.464 2.432 0 1.344.992 2.112 2.336 3.072l2.784 1.984c1.952 1.376 3.264 2.592 3.264 5.152s-2.08 4.576-5.152 4.576c-2.72 0-3.744-1.088-4.448-1.088-.512 0-.768.48-.8.864h-.48v-6.272h.448c.416 3.68 2.976 5.408 5.312 5.408 1.888 0 2.656-1.376 2.656-2.752m12.187 0c0-1.632-.832-2.4-2.368-3.456l-2.784-1.92c-1.856-1.28-2.88-2.848-2.88-4.64 0-2.944 2.24-4.448 4.768-4.448 2.08 0 3.136.992 3.712.992.448 0 .64-.288.704-.704h.48v5.408h-.448c-.544-3.232-2.56-4.608-4.64-4.608-1.664 0-2.464.992-2.464 2.432 0 1.344.992 2.112 2.336 3.072l2.784 1.984c1.952 1.376 3.264 2.592 3.264 5.152s-2.08 4.576-5.152 4.576c-2.72 0-3.744-1.088-4.448-1.088-.512 0-.768.48-.8.864h-.48v-6.272h.448c.416 3.68 2.976 5.408 5.312 5.408 1.888 0 2.656-1.376 2.656-2.752"/></svg>