<svg xmlns="http://www.w3.org/2000/svg" width="551" height="32" fill="none" viewBox="0 0 551 32"><path fill="#000" d="M10.464 15.424h-3.36l-1.536 7.232c-.512 2.336.16 2.528 1.888 2.528l-.096.416H0l.096-.416c1.632 0 2.208-.192 2.72-2.528l3.84-18.112c.512-2.368 0-2.528-1.632-2.528l.064-.416h7.424c4.48 0 7.552 2.24 7.552 6.048 0 4.64-4.32 7.776-9.6 7.776m1.632-12.576H9.76l-2.4 11.328h3.264c4.192 0 6.528-2.72 6.528-6.464 0-2.88-1.792-4.864-5.056-4.864M18.971 25.6l3.168-12.96c.544-2.208.704-2.784-.832-2.624l.064-.352 4.768-2.336-1.088 4.48c1.664-2.848 3.136-4.352 4.768-4.352 1.152 0 1.664.864 1.664 1.664 0 1.216-.8 1.728-1.44 1.728-.768 0-1.184-.736-2.08-.736-.928 0-2.048 1.536-3.424 3.776L21.66 25.6zm17.458.256c-3.328 0-5.728-2.848-5.728-6.72 0-5.856 5.024-11.584 10.048-11.584 2.624 0 4 1.664 4 3.328 0 3.328-3.68 5.44-11.104 6.56 0 .384-.032.8-.032 1.184 0 3.104 1.44 5.088 4.096 5.088 2.592 0 4.448-2.112 5.888-4.928l.352.192c-1.184 3.744-3.52 6.88-7.52 6.88m3.488-17.12c-2.272 0-5.312 2.912-6.112 7.552 5.472-.864 8.224-2.432 8.224-5.184 0-1.184-.672-2.368-2.112-2.368M44.971 25.6l3.168-12.96c.544-2.208.704-2.784-.832-2.624l.064-.352 4.768-2.336-1.184 4.768c1.824-2.08 4.384-4.672 6.752-4.672s3.008 2.016 2.592 4.384c2.112-2.432 4.384-4.384 6.464-4.384 2.496 0 3.2 2.272 2.336 5.344L66.155 23.2c-.192.736-.064.992.352.992s1.12-.256 1.984-.864l.192.288c-1.088 1.12-2.656 2.24-4.096 2.24-1.056 0-1.632-.64-1.216-2.112l3.04-10.976c.544-1.984.576-3.392-.896-3.392-1.728 0-3.648 1.824-5.664 4.288L56.875 25.6H54.22l3.104-12.704c.544-2.176.608-3.52-.864-3.52-2.144 0-4.608 2.944-5.984 4.672L47.66 25.6zM76.647 5.344c-1.056 0-1.664-.608-1.664-1.504 0-1.184.992-2.144 2.176-2.144.992 0 1.632.608 1.632 1.504 0 1.152-.992 2.144-2.144 2.144m.992 1.984-3.904 15.904c-.16.704-.064.96.352.96s1.12-.256 1.984-.864l.192.288c-1.088 1.12-2.656 2.24-4.096 2.24-1.056 0-1.6-.672-1.216-2.208L73.64 12.64c.544-2.208.704-2.784-.832-2.624l.064-.352zM90.325 23.2c-.192.736-.064.992.352.992s1.12-.256 1.984-.864l.192.288c-1.088 1.12-2.656 2.24-4.096 2.24-1.056 0-1.6-.64-1.216-2.112l.576-2.272c-1.824 2.08-4.352 4.448-6.592 4.448s-3.552-1.728-2.624-5.184l2.144-8.096c.544-2.016.768-2.816-.832-2.624l.064-.352 4.768-2.336-3.36 13.088c-.64 2.528-.544 3.488 1.152 3.488s4.224-2.4 5.728-4.256l3.008-11.84h2.688zm4.209 2.4 3.168-12.96c.544-2.208.704-2.784-.832-2.624l.064-.352 4.768-2.336-1.184 4.768c1.824-2.08 4.384-4.672 6.752-4.672s3.008 2.016 2.592 4.384c2.112-2.432 4.384-4.384 6.464-4.384 2.496 0 3.2 2.272 2.336 5.344L115.718 23.2c-.192.736-.064.992.352.992s1.12-.256 1.984-.864l.192.288c-1.088 1.12-2.656 2.24-4.096 2.24-1.056 0-1.632-.64-1.216-2.112l3.04-10.976c.544-1.984.576-3.392-.896-3.392-1.728 0-3.648 1.824-5.664 4.288L106.438 25.6h-2.656l3.104-12.704c.544-2.176.608-3.52-.864-3.52-2.144 0-4.608 2.944-5.984 4.672L97.222 25.6zm35.99-.832c1.984 0 3.072-1.664 3.072-3.072 0-4-5.696-5.248-5.696-9.568 0-2.944 2.336-4.576 4.992-4.576 1.696 0 2.944.96 3.616.96.384 0 .608-.224.768-.704h.48l-1.056 5.408h-.448c.192-3.488-1.568-4.576-3.488-4.576-1.632 0-2.624.96-2.624 2.528 0 3.2 5.92 5.152 5.92 9.472 0 3.168-2.56 5.216-5.792 5.216-2.208 0-3.456-1.12-4.096-1.12-.512 0-.8.384-.992.864h-.48l1.248-6.272h.448c-.256 3.968 1.472 5.44 4.128 5.44m19.551-1.568c-.192.736-.064.992.352.992s1.12-.256 1.984-.864l.192.288c-1.088 1.12-2.656 2.24-4.096 2.24-1.056 0-1.6-.64-1.216-2.112l.576-2.272c-1.824 2.08-4.352 4.448-6.592 4.448s-3.552-1.728-2.624-5.184l2.144-8.096c.544-2.016.768-2.816-.832-2.624l.064-.352 4.768-2.336-3.36 13.088c-.64 2.528-.544 3.488 1.152 3.488s4.224-2.4 5.728-4.256l3.008-11.84h2.688zm3.249 6.272 4.128-16.832c.544-2.272.672-2.784-.832-2.624l.064-.352 4.768-2.336-1.12 4.576c1.92-2.496 4.256-4.352 6.4-4.352 2.752 0 4.32 2.336 4.32 5.504 0 6.464-4.896 12.8-10.688 12.8-1.216 0-2.368-.448-3.168-1.152l-1.184 4.768c-.416 1.696.064 2.016 1.632 2.016l-.064.352h-6.208l.064-.352c.864 0 1.472-.32 1.888-2.016m12.384-19.904c-1.376 0-3.616 1.088-5.856 4.32l-2.08 8.48c.416 1.408 1.28 2.336 2.848 2.336 3.808 0 7.648-4.992 7.648-10.88 0-2.464-.512-4.256-2.56-4.256m5.178 19.904 4.128-16.832c.544-2.272.672-2.784-.832-2.624l.064-.352 4.768-2.336-1.12 4.576c1.92-2.496 4.256-4.352 6.4-4.352 2.752 0 4.32 2.336 4.32 5.504 0 6.464-4.896 12.8-10.688 12.8-1.216 0-2.368-.448-3.168-1.152l-1.184 4.768c-.416 1.696.064 2.016 1.632 2.016l-.064.352h-6.208l.064-.352c.864 0 1.472-.32 1.888-2.016M183.27 9.568c-1.376 0-3.616 1.088-5.856 4.32l-2.08 8.48c.416 1.408 1.28 2.336 2.848 2.336 3.808 0 7.648-4.992 7.648-10.88 0-2.464-.512-4.256-2.56-4.256M197.829 0l-5.568 23.2c-.224.896.032.992.416.992s1.056-.256 1.92-.864l.192.288c-1.12 1.12-2.592 2.24-4.128 2.24-.896 0-1.6-.544-1.152-2.368l4.448-18.72c.448-1.824.544-2.272-.992-2.144l.064-.352zm4.569 25.856c-3.328 0-5.728-2.848-5.728-6.72 0-5.856 5.024-11.584 10.048-11.584 2.624 0 4 1.664 4 3.328 0 3.328-3.68 5.44-11.104 6.56 0 .384-.032.8-.032 1.184 0 3.104 1.44 5.088 4.096 5.088 2.592 0 4.448-2.112 5.888-4.928l.352.192c-1.184 3.744-3.52 6.88-7.52 6.88m3.488-17.12c-2.272 0-5.312 2.912-6.112 7.552 5.472-.864 8.224-2.432 8.224-5.184 0-1.184-.672-2.368-2.112-2.368M210.94 25.6l3.168-12.96c.544-2.208.704-2.784-.832-2.624l.064-.352 4.768-2.336-1.184 4.768c1.824-2.08 4.384-4.672 6.752-4.672s3.008 2.016 2.592 4.384c2.112-2.432 4.384-4.384 6.464-4.384 2.496 0 3.2 2.272 2.336 5.344L232.124 23.2c-.192.736-.064.992.352.992s1.12-.256 1.984-.864l.192.288c-1.088 1.12-2.656 2.24-4.096 2.24-1.056 0-1.632-.64-1.216-2.112l3.04-10.976c.544-1.984.576-3.392-.896-3.392-1.728 0-3.648 1.824-5.664 4.288L222.844 25.6h-2.656l3.104-12.704c.544-2.176.608-3.52-.864-3.52-2.144 0-4.608 2.944-5.984 4.672L213.628 25.6zm31.708.256c-3.328 0-5.728-2.848-5.728-6.72 0-5.856 5.024-11.584 10.048-11.584 2.624 0 4 1.664 4 3.328 0 3.328-3.68 5.44-11.104 6.56 0 .384-.032.8-.032 1.184 0 3.104 1.44 5.088 4.096 5.088 2.592 0 4.448-2.112 5.888-4.928l.352.192c-1.184 3.744-3.52 6.88-7.52 6.88m3.488-17.12c-2.272 0-5.312 2.912-6.112 7.552 5.472-.864 8.224-2.432 8.224-5.184 0-1.184-.672-2.368-2.112-2.368M251.19 25.6l3.168-12.96c.544-2.208.704-2.784-.832-2.624l.064-.352 4.768-2.336-1.12 4.544c2.304-2.368 4.992-4.448 7.264-4.448 2.496 0 3.2 2.272 2.336 5.344L263.894 23.2c-.192.736-.064.992.352.992s1.12-.256 1.984-.864l.192.288c-1.088 1.12-2.656 2.24-4.096 2.24-1.056 0-1.632-.64-1.216-2.112l3.04-10.976c.544-1.984.64-3.328-.896-3.328-2.048 0-4.256 1.76-6.432 4.192L253.878 25.6zm26.055-4.992c-1.152 2.88-2.784 5.248-5.376 5.248-2.336 0-3.36-2.08-2.656-4.864l3.008-11.84h-1.568l.064-.384c2.208-.736 3.488-2.464 4.864-5.632h.64l-1.12 4.672h4.608l-.32 1.344h-4.608l-2.976 12.288c-.448 1.888.064 2.848 1.056 2.848 1.12 0 2.496-.864 3.968-3.872zm6.216 4.16c1.984 0 3.072-1.664 3.072-3.072 0-4-5.696-5.248-5.696-9.568 0-2.944 2.336-4.576 4.992-4.576 1.696 0 2.944.96 3.616.96.384 0 .608-.224.768-.704h.48l-1.056 5.408h-.448c.192-3.488-1.568-4.576-3.488-4.576-1.632 0-2.624.96-2.624 2.528 0 3.2 5.92 5.152 5.92 9.472 0 3.168-2.56 5.216-5.792 5.216-2.208 0-3.456-1.12-4.096-1.12-.512 0-.8.384-.992.864h-.48l1.248-6.272h.448c-.256 3.968 1.472 5.44 4.128 5.44m7.768 1.44c0-.608-1.184-.832-1.184-2.016 0-.96.672-1.856 1.856-1.856.992 0 1.6.736 1.6 1.696 0 1.728-1.216 3.808-4.672 5.216l-.16-.384c1.856-1.056 2.56-2.144 2.56-2.656m20.413-17.44c-3.712 0-6.592 5.056-6.592 9.6 0 3.072 1.696 5.248 4.128 5.248 2.112 0 4.096-.864 5.92-4.736l.416.128c-1.408 4.768-4.128 6.912-7.296 6.912-3.68 0-6.048-2.816-6.048-6.624 0-6.784 5.248-11.744 9.792-11.744 3.328 0 4.896 1.984 4.896 4.032 0 1.088-.576 1.824-1.632 1.824-1.12 0-1.376-.672-1.44-2.208-.096-1.536-.512-2.432-2.144-2.432M317.19 25.6l3.168-12.96c.544-2.208.704-2.784-.832-2.624l.064-.352 4.768-2.336-1.088 4.48c1.664-2.848 3.136-4.352 4.768-4.352 1.152 0 1.664.864 1.664 1.664 0 1.216-.8 1.728-1.44 1.728-.768 0-1.184-.736-2.08-.736-.928 0-2.048 1.536-3.424 3.776l-2.88 11.712zm15.169.256c-2.272 0-4.064-1.952-4.064-5.536 0-6.944 5.152-12.768 9.696-12.768 1.408 0 2.592.8 3.232 2.144l.512-1.888h2.304L340.263 23.2c-.192.736-.064.992.352.992s1.12-.256 1.984-.864l.192.288c-1.088 1.12-2.656 2.24-4.096 2.24-1.056 0-1.568-.64-1.216-2.112l.576-2.336c-1.888 2.88-3.84 4.448-5.696 4.448m-1.28-6.24c0 2.784.768 4.224 2.24 4.224 1.824 0 3.424-1.92 5.344-4.992l1.888-7.84c-.416-1.472-1.376-2.432-2.72-2.432-2.784 0-6.752 4.864-6.752 11.04m14.578 5.472 2.976-15.936h-2.112l.288-1.344h2.08l.288-1.568c.896-4.8 3.392-6.016 5.344-6.016 1.376 0 2.368.736 2.368 1.76 0 .736-.48 1.568-1.44 1.568-1.408 0-1.152-2.08-2.336-2.08-.864 0-1.472 1.216-1.472 2.656 0 1.536.064 2.528-.064 3.68h3.328l-.288 1.344h-3.296l-2.688 13.6c-1.248 6.24-3.52 9.216-6.336 9.216-1.536 0-2.72-.832-2.72-1.952 0-.928.544-1.44 1.344-1.44 1.344 0 1.76 2.112 2.624 2.112 1.056 0 1.344-1.536 2.112-5.6m16.526-4.48c-1.152 2.88-2.784 5.248-5.376 5.248-2.336 0-3.36-2.08-2.656-4.864l3.008-11.84h-1.568l.064-.384c2.208-.736 3.488-2.464 4.864-5.632h.64l-1.12 4.672h4.608l-.32 1.344h-4.608l-2.976 12.288c-.448 1.888.064 2.848 1.056 2.848 1.12 0 2.496-.864 3.968-3.872zm7.371 5.248c-3.328 0-5.728-2.848-5.728-6.72 0-5.856 5.024-11.584 10.048-11.584 2.624 0 4 1.664 4 3.328 0 3.328-3.68 5.44-11.104 6.56 0 .384-.032.8-.032 1.184 0 3.104 1.44 5.088 4.096 5.088 2.592 0 4.448-2.112 5.888-4.928l.352.192c-1.184 3.744-3.52 6.88-7.52 6.88m3.488-17.12c-2.272 0-5.312 2.912-6.112 7.552 5.472-.864 8.224-2.432 8.224-5.184 0-1.184-.672-2.368-2.112-2.368m10.043 17.12c-2.688 0-4.352-2.016-4.352-5.696 0-6.848 5.28-12.608 10.144-12.608 1.632 0 2.72.48 3.488 1.12l.96-3.904c.448-1.824.544-2.272-.992-2.144l.064-.352 4.8-2.272-5.696 22.976c-.224.896-.032 1.216.384 1.216s1.024-.256 1.888-.864l.192.288c-1.12 1.216-2.464 2.24-3.904 2.24-1.056 0-1.76-.736-1.216-2.976l.352-1.44c-1.952 2.912-4.16 4.416-6.112 4.416m-1.568-6.176c0 2.752.8 4.16 2.432 4.16 1.824 0 4.288-2.208 5.92-5.088l1.984-8.032c-.608-1.28-1.664-2.144-3.072-2.144-3.488 0-7.264 5.312-7.264 11.104m20.921 5.408 2.976-15.936h-2.112l.288-1.344h2.08l.288-1.568c.896-4.8 3.392-6.016 5.344-6.016 1.376 0 2.368.736 2.368 1.76 0 .736-.48 1.568-1.44 1.568-1.408 0-1.152-2.08-2.336-2.08-.864 0-1.472 1.216-1.472 2.656 0 1.536.064 2.528-.064 3.68h3.328l-.288 1.344h-3.296l-2.688 13.6c-1.248 6.24-3.52 9.216-6.336 9.216-1.536 0-2.72-.832-2.72-1.952 0-.928.544-1.44 1.344-1.44 1.344 0 1.76 2.112 2.624 2.112 1.056 0 1.344-1.536 2.112-5.6m13.906.768c-3.584 0-6.08-3.2-6.08-7.232 0-6.304 4.416-11.072 9.504-11.072 3.712 0 6.08 3.04 6.08 7.04 0 6.432-4.288 11.264-9.504 11.264m-3.328-6.624c0 3.136 1.12 5.472 3.648 5.472 3.68 0 6.432-5.44 6.432-10.72 0-3.072-1.056-5.28-3.584-5.28-3.424 0-6.496 5.472-6.496 10.528m13.643 6.368 3.168-12.96c.544-2.208.704-2.784-.832-2.624l.064-.352 4.768-2.336-1.088 4.48c1.664-2.848 3.136-4.352 4.768-4.352 1.152 0 1.664.864 1.664 1.664 0 1.216-.8 1.728-1.44 1.728-.768 0-1.184-.736-2.08-.736-.928 0-2.048 1.536-3.424 3.776l-2.88 11.712zm28.236-14.528c-.512-1.728-.832-1.664-1.728-1.408l-.064-.352 3.328-1.984c1.6 3.584 1.952 8.992 1.728 15.072 2.976-3.456 5.408-8 5.408-10.208 0-1.568-1.056-2.112-1.056-3.232 0-.928.704-1.504 1.472-1.504 1.088 0 1.6.832 1.6 2.144 0 4.512-4.608 11.904-9.536 16.256h-.416c.256-4.352.224-7.84 0-10.464-1.824 3.648-4.64 7.744-7.712 10.464h-.416c.416-7.296-.256-12.192-.896-14.784-.416-1.728-.8-1.664-1.696-1.408l-.064-.352 3.328-1.984c1.504 3.616 2.08 9.088 1.856 15.072 2.464-2.88 4.64-6.816 5.344-9.184-.16-.832-.288-1.568-.48-2.144m17.003 14.784c-3.328 0-5.728-2.848-5.728-6.72 0-5.856 5.024-11.584 10.048-11.584 2.624 0 4 1.664 4 3.328 0 3.328-3.68 5.44-11.104 6.56 0 .384-.032.8-.032 1.184 0 3.104 1.44 5.088 4.096 5.088 2.592 0 4.448-2.112 5.888-4.928l.352.192c-1.184 3.744-3.52 6.88-7.52 6.88m3.488-17.12c-2.272 0-5.312 2.912-6.112 7.552 5.472-.864 8.224-2.432 8.224-5.184 0-1.184-.672-2.368-2.112-2.368M489.016 0l-5.568 23.2c-.224.896.032.992.416.992s1.056-.256 1.92-.864l.192.288c-1.12 1.12-2.592 2.24-4.128 2.24-.896 0-1.6-.544-1.152-2.368l4.448-18.72c.448-1.824.544-2.272-.992-2.144l.064-.352zm6.938 0-5.568 23.2c-.224.896.032.992.416.992s1.056-.256 1.92-.864l.192.288c-1.12 1.12-2.592 2.24-4.128 2.24-.896 0-1.6-.544-1.152-2.368l4.448-18.72c.448-1.824.544-2.272-.992-2.144l.064-.352zm-1.483 25.6 3.168-12.96c.544-2.208.704-2.784-.832-2.624l.064-.352 4.768-2.336-1.12 4.544c2.304-2.368 4.992-4.448 7.264-4.448 2.496 0 3.2 2.272 2.336 5.344L507.175 23.2c-.192.736-.064.992.352.992s1.12-.256 1.984-.864l.192.288c-1.088 1.12-2.656 2.24-4.096 2.24-1.056 0-1.632-.64-1.216-2.112l3.04-10.976c.544-1.984.64-3.328-.896-3.328-2.048 0-4.256 1.76-6.432 4.192L497.159 25.6zm23.24.256c-3.328 0-5.728-2.848-5.728-6.72 0-5.856 5.024-11.584 10.048-11.584 2.624 0 4 1.664 4 3.328 0 3.328-3.68 5.44-11.104 6.56 0 .384-.032.8-.032 1.184 0 3.104 1.44 5.088 4.096 5.088 2.592 0 4.448-2.112 5.888-4.928l.352.192c-1.184 3.744-3.52 6.88-7.52 6.88m3.488-17.12c-2.272 0-5.312 2.912-6.112 7.552 5.472-.864 8.224-2.432 8.224-5.184 0-1.184-.672-2.368-2.112-2.368m10.106 16.032c1.984 0 3.072-1.664 3.072-3.072 0-4-5.696-5.248-5.696-9.568 0-2.944 2.336-4.576 4.992-4.576 1.696 0 2.944.96 3.616.96.384 0 .608-.224.768-.704h.48l-1.056 5.408h-.448c.192-3.488-1.568-4.576-3.488-4.576-1.632 0-2.624.96-2.624 2.528 0 3.2 5.92 5.152 5.92 9.472 0 3.168-2.56 5.216-5.792 5.216-2.208 0-3.456-1.12-4.096-1.12-.512 0-.8.384-.992.864h-.48l1.248-6.272h.448c-.256 3.968 1.472 5.44 4.128 5.44m12.344 0c1.984 0 3.072-1.664 3.072-3.072 0-4-5.696-5.248-5.696-9.568 0-2.944 2.336-4.576 4.992-4.576 1.696 0 2.944.96 3.616.96.384 0 .608-.224.768-.704h.48l-1.056 5.408h-.448c.192-3.488-1.568-4.576-3.488-4.576-1.632 0-2.624.96-2.624 2.528 0 3.2 5.92 5.152 5.92 9.472 0 3.168-2.56 5.216-5.792 5.216-2.208 0-3.456-1.12-4.096-1.12-.512 0-.8.384-.992.864h-.48l1.248-6.272h.448c-.256 3.968 1.472 5.44 4.128 5.44"/></svg>