<svg xmlns="http://www.w3.org/2000/svg" fill="none" viewBox="0 0 380 70"><path fill="#1f1f1f" d="m4.51 16.456-.065.286H0l.066-.286c.858 0 1.342-.55 2.134-1.958L10.473.066h.352l2.068 14.388c.198 1.386.352 2.002 1.188 2.002l-.066.286H9.46l.066-.286c1.21 0 1.716-.396 1.496-2.002l-.528-3.872H5.457l-1.87 3.322c-1.122 1.98-.77 2.442.924 2.552m1.453-6.732h4.422L9.527 3.41zm14.14-7.458c.352-1.628 0-1.738-1.122-1.738l.044-.286h4.994c2.508 0 4.62 1.32 4.62 3.608 0 1.87-1.628 3.652-3.872 4.224 1.958.462 3.366 1.694 3.366 3.498 0 2.904-2.684 5.17-6.732 5.17h-5.874l.066-.286c1.122 0 1.54-.132 1.87-1.738zM23.469 1.1h-1.232l-1.408 6.578h2.024c2.794 0 3.85-1.804 3.85-3.894 0-1.65-.902-2.684-3.234-2.684m-.616 7.436h-2.2l-1.562 7.348h2.684c3.19 0 4.29-2.2 4.29-4.334 0-1.848-.88-3.014-3.212-3.014m13.935 8.382c-3.652 0-5.852-2.684-5.852-6.38C30.936 4.004 35.622 0 39.626 0c2.156 0 3.146.858 3.718.858.374 0 .616-.264.704-.616h.33l-1.034 4.95h-.352C43.41 1.914 41.386.858 39.516.858c-3.806 0-6.468 4.158-6.468 9.086 0 3.52 1.628 5.654 4.18 5.654 2.222 0 4.092-1.452 5.522-4.312l.352.132c-1.232 3.102-3.058 5.5-6.314 5.5M47.413.528l.044-.286h5.126c4.246 0 6.842 2.706 6.842 6.952 0 4.708-3.652 9.548-9.68 9.548H43.96l.066-.286c1.122 0 1.54-.132 1.87-1.738l2.64-12.452c.352-1.628 0-1.738-1.122-1.738m2.332 15.356c4.51 0 7.568-3.542 7.568-9.262 0-3.608-1.892-5.522-5.192-5.522H50.67l-3.146 14.784zM64.201 2.266c.353-1.628 0-1.738-1.121-1.738l.044-.286h10.56l-.88 4.136h-.353c.55-2.882-.417-3.278-2.595-3.278h-3.52L64.95 7.59h2.706c1.495 0 2.243-.44 2.683-2.266h.33l-1.144 5.412h-.33c.309-1.738-.22-2.288-1.715-2.288h-2.707l-1.583 7.436h3.85c2.683 0 3.695-.616 4.575-4.004h.353l-1.035 4.862H59.625l.066-.286c1.122 0 1.518-.132 1.87-1.738zm13.54 0c.352-1.628 0-1.738-1.122-1.738l.044-.286H87.53l-.88 4.136h-.352c.55-2.882-.418-3.278-2.596-3.278h-3.828l-1.43 6.754h2.97c1.496 0 2.222-.44 2.684-2.266h.33L83.263 11h-.33c.308-1.738-.198-2.288-1.694-2.288h-2.97l-1.276 6.006c-.352 1.606.088 1.738 1.32 1.738l-.066.286h-5.082l.066-.286c1.122 0 1.518-.132 1.87-1.738zm21.452 13.266c-.836.616-2.552 1.43-4.752 1.43-4.048 0-6.424-2.596-6.424-6.468C88.017 3.85 92.725 0 96.707 0c2.31 0 3.432.858 4.004.858.374 0 .616-.264.704-.616h.33l-.99 4.686h-.352c.264-3.014-1.628-4.07-3.85-4.07-3.718 0-6.424 4.048-6.424 9.064 0 3.586 1.232 6.248 4.466 6.248 1.65 0 2.684-.594 2.97-1.958l.682-3.168c.352-1.628-.088-1.738-1.21-1.738l.066-.286h4.862l-.066.286c-1.012 0-1.43.176-1.76 1.738zm7.174-13.266c.352-1.628 0-1.738-1.122-1.738l.044-.286h4.972l-.044.286c-1.122 0-1.606.11-1.958 1.738l-1.144 5.39h7.59l1.144-5.39c.352-1.628-.088-1.738-1.21-1.738l.044-.286h4.972l-.044.286c-1.122 0-1.518.11-1.87 1.738l-2.64 12.452c-.33 1.606 0 1.738 1.122 1.738l-.066.286h-4.972l.066-.286c1.122 0 1.628-.132 1.958-1.738l1.32-6.204h-7.59l-1.32 6.204c-.33 1.606.088 1.738 1.21 1.738l-.066.286h-4.972l.066-.286c1.122 0 1.54-.132 1.87-1.738zm16.311 0c.352-1.628 0-1.738-1.122-1.738l.044-.286h4.862l-.044.286c-1.122 0-1.496.11-1.848 1.738l-2.64 12.452c-.33 1.606-.022 1.738 1.1 1.738l-.066.286h-4.862l.066-.286c1.122 0 1.54-.132 1.87-1.738zm6.265 13.882c1.342 0 2.266-1.166 2.86-3.938l2.112-9.944c.33-1.606-.088-1.738-1.21-1.738l.044-.286h4.796l-.044.286c-.946 0-1.342.132-1.694 1.738l-2.024 9.482c-.748 3.454-2.53 5.214-4.972 5.214-2.31 0-3.784-1.364-3.784-2.838 0-.946.484-1.474 1.276-1.474s1.188.55.946 1.628c-.308 1.408.374 1.87 1.694 1.87m11.532-13.882c.352-1.628 0-1.738-1.122-1.738l.044-.286h4.972l-.044.286c-1.122 0-1.606.11-1.958 1.738l-2.64 12.452c-.352 1.606.088 1.738 1.21 1.738l-.066.286h-4.972l.066-.286c1.122 0 1.518-.132 1.87-1.738zm1.012 5.544 6.16-5.522c1.826-1.65.99-1.76.11-1.76l.044-.286h4.048l-.044.286c-.506 0-1.188.11-2.86 1.628l-5.632 5.082 4.224 7.634c.66 1.21 1.078 1.584 1.606 1.584l-.066.286h-4.664l.066-.286c1.254 0 1.474-.55 1.056-1.298l-4.048-7.304zm11.069 6.908 2.64-12.452c.33-1.606 0-1.738-1.122-1.738l.044-.286h5.082l-.044.286c-1.232 0-1.716.132-2.068 1.738l-2.904 13.618h3.85c2.266 0 3.212-.484 3.938-3.586h.352l-.946 4.444H150.62l.066-.286c1.122 0 1.518-.11 1.87-1.738m15.385-12.452c.308-1.452-.022-1.694-1.122-1.738l.044-.286h3.806l1.87 12.936 7.26-12.936h3.806l-.044.286c-1.122 0-1.518.11-1.87 1.738l-2.64 12.452c-.33 1.606 0 1.738 1.122 1.738l-.066.286h-4.972l.066-.286c1.122 0 1.628-.132 1.958-1.738l2.728-12.914-8.316 14.828h-.33l-2.266-14.828-2.596 12.232c-.418 1.958.264 2.42 1.452 2.42l-.066.286h-4.4l.066-.286c1.122 0 1.584-.374 2.002-2.354zm25.973 14.586-6.05-15.136-2.552 12.1c-.418 1.958.33 2.64 1.826 2.64l-.066.286h-4.818l.066-.286c1.122 0 1.628-.594 2.046-2.574l2.464-11.616c.308-1.452-.022-1.694-1.122-1.738l.044-.286h3.564l4.994 12.606 2.046-9.658c.418-1.958-.088-2.662-1.54-2.662l.044-.286h4.576l-.044.286c-1.166 0-1.672.616-2.09 2.596l-2.926 13.728zm11.313.11c-3.498 0-5.566-2.508-5.566-6.16 0-5.412 3.63-10.802 8.91-10.802 3.212 0 5.346 2.552 5.346 6.226 0 5.192-3.52 10.736-8.69 10.736m2.97-16.104c-4.532 0-6.424 5.654-6.424 10.34 0 3.014 1.1 4.906 3.806 4.906 4.51 0 6.226-5.874 6.226-10.274 0-3.036-1.188-4.972-3.608-4.972m13.121 8.888h-2.31l-1.056 4.972c-.352 1.606.11 1.738 1.298 1.738l-.066.286h-5.06l.066-.286c1.122 0 1.518-.132 1.87-1.738l2.64-12.452c.352-1.628 0-1.738-1.122-1.738l.044-.286h5.104c3.08 0 5.192 1.54 5.192 4.158 0 3.19-2.97 5.346-6.6 5.346M222.44 1.1h-1.606l-1.65 7.788h2.244c2.882 0 4.488-1.87 4.488-4.444 0-1.98-1.232-3.344-3.476-3.344m18.312 18.722c-3.388 0-5.236-.99-6.336-2.904-3.058-.33-4.84-2.728-4.84-6.116 0-5.412 3.63-10.802 8.91-10.802 3.212 0 5.346 2.552 5.346 6.226 0 4.664-2.838 9.614-7.15 10.56.946 1.694 2.464 2.618 4.51 2.75l-.066.286zm-5.258-3.718c4.51 0 6.226-5.874 6.226-10.274 0-3.036-1.188-4.972-3.608-4.972-4.532 0-6.424 5.654-6.424 10.34 0 3.014 1.1 4.906 3.806 4.906m20.158-1.716c.638 1.584 1.056 1.958 2.09 2.068l-.066.286h-3.08l-3.234-7.832h-2.156l-1.232 5.808c-.33 1.606.088 1.738 1.21 1.738l-.066.286h-4.972l.066-.286c1.122 0 1.54-.132 1.87-1.738l2.64-12.452c.33-1.606 0-1.738-1.122-1.738l.044-.286h5.588c2.618 0 4.62 1.342 4.62 3.74 0 2.42-1.782 4.114-4.51 4.708zM252.682 1.1h-1.826l-1.474 6.952h1.98c2.926 0 4.51-1.474 4.51-4.004 0-2.024-1.078-2.948-3.19-2.948m11.536 15.004c1.958 0 3.388-1.254 3.388-3.278 0-1.276-.638-2.244-1.76-3.212l-1.848-1.562c-1.232-1.056-2.024-2.332-2.024-3.718 0-2.574 2.09-4.334 4.73-4.334 1.782 0 2.772.814 3.322.814.242 0 .462-.176.572-.572h.308l-.858 4.092h-.33c.242-2.332-1.276-3.476-3.168-3.476-1.518 0-2.926.858-2.926 2.794 0 1.144.748 2.002 1.562 2.684l1.848 1.562c1.364 1.144 2.354 2.354 2.354 4.18 0 2.882-2.244 4.884-5.324 4.884-2.2 0-3.388-.902-4.07-.902-.264 0-.528.22-.66.682h-.33l1.034-4.906h.352c-.374 2.552 1.078 4.268 3.828 4.268m8.637-11.506.902-4.356h12.1l-.902 4.356h-.352c.594-3.102-.374-3.498-2.574-3.498h-1.452l-2.882 13.618c-.33 1.606.11 1.738 1.122 1.738l-.066.286h-4.884l.066-.286c1.122 0 1.54-.132 1.87-1.738L278.685 1.1h-1.452c-2.156 0-3.3.396-4.026 3.498zm13.989 5.698 1.716-8.03c.33-1.606 0-1.738-.946-1.738l.044-.286h4.796l-.044.286c-1.122 0-1.606.132-1.958 1.738l-1.76 8.25c-.638 2.992.352 5.39 3.894 5.39 2.552 0 4.004-1.694 4.532-4.158l1.848-8.8c.418-1.958-.242-2.42-1.43-2.42l.044-.286h4.268l-.044.286c-.99 0-1.452.374-1.87 2.354l-1.936 9.086c-.594 2.794-2.288 5.038-5.808 5.038-4.312 0-6.248-2.53-5.346-6.71m28.223-7.81-8.316 14.432h-.44L304.485 2.53c-.176-1.386-.33-2.002-1.166-2.002l.044-.286h4.554l-.044.286c-1.21 0-1.716.396-1.518 2.002l1.32 11.066 6.006-10.516c1.012-1.76.902-2.486-.66-2.552l.044-.286h4.158l-.044.286c-.858 0-1.32.55-2.112 1.958M333.871.528l.044-.286h4.18l-.044.286c-.858 0-1.364.572-2.112 1.958l-7.832 14.432h-.44l-.836-9.592-5.5 9.592h-.44L319.527 2.53c-.132-1.386-.33-2.002-1.166-2.002l.044-.286h4.488l-.044.286c-1.144 0-1.606.352-1.452 2.002l.968 10.714 4.334-7.524-.286-3.19c-.132-1.386-.33-2.002-1.1-2.002l.044-.286h4.422l-.044.286c-1.21 0-1.606.352-1.474 2.002l.836 10.582 5.434-10.032c.968-1.782.902-2.486-.66-2.552m11.919 14.344-2.09-5.72-3.806 4.774c-1.606 2.002-1.276 2.53.33 2.53l-.066.286h-4.554l.066-.286c.858 0 1.518-.594 2.684-2.046l5.016-6.16-2.266-6.204c-.44-1.21-.638-1.518-1.474-1.518l.044-.286h4.466l-.044.286c-1.1 0-1.43.374-1.078 1.32l1.914 5.214 3.256-4.092C349.75.99 349.42.528 348.034.528l.044-.286h4.158l-.044.286c-.814 0-1.298.484-2.244 1.65l-4.708 5.764 2.464 6.732c.484 1.32.726 1.782 1.562 1.782l-.066.286h-4.51l.066-.286c1.122 0 1.474-.374 1.034-1.584M362.724.528l.044-.286h4.202l-.044.286c-.836 0-1.408.66-2.332 1.958l-4.95 6.974-1.122 5.258c-.352 1.606.088 1.738 1.122 1.738l-.066.286h-4.884l.066-.286c1.122 0 1.518-.132 1.87-1.738l1.144-5.39-2.288-6.798c-.418-1.276-.616-2.002-1.452-2.002l.044-.286h4.598l-.044.286c-1.21 0-1.716.506-1.232 2.002l1.958 5.896 3.784-5.346c1.166-1.65 1.144-2.486-.418-2.552m16.539-.286-.044.286-11.572 15.356h4.224c2.684 0 3.696-.616 4.576-4.004h.352l-1.034 4.862h-10.692l.066-.286L376.689 1.1h-4.136c-2.178 0-3.322.396-4.004 3.278h-.352l.88-4.136zM4.533 40.918c-1.562 0-2.794-1.342-2.794-3.806 0-4.774 3.542-8.778 6.666-8.778.968 0 1.782.55 2.222 1.474l.352-1.298h1.584L9.967 39.092c-.132.506-.044.682.242.682s.77-.176 1.364-.594l.132.198c-.748.77-1.826 1.54-2.816 1.54-.726 0-1.078-.44-.836-1.452l.396-1.606c-1.298 1.98-2.64 3.058-3.916 3.058m-.88-4.29c0 1.914.528 2.904 1.54 2.904 1.254 0 2.354-1.32 3.674-3.432l1.298-5.39c-.286-1.012-.946-1.672-1.87-1.672-1.914 0-4.642 3.344-4.642 7.59M17.15 26.42c.308-1.254.374-1.562-.682-1.474l.044-.242 3.3-1.562-2.024 8.184c1.32-1.716 2.948-2.992 4.4-2.992 1.892 0 2.97 1.584 2.97 3.784 0 4.444-3.388 8.8-7.37 8.8-2.772 0-3.762-1.826-3.146-4.334zm-.748 10.538c-.462 1.892.176 3.168 1.584 3.168 2.618 0 5.258-3.476 5.258-7.48 0-1.694-.352-2.926-1.76-2.926-.946 0-2.464.748-4.026 2.97zm17.358-7.788c-2.552 0-4.532 3.476-4.532 6.6 0 2.112 1.166 3.608 2.838 3.608 1.452 0 2.816-.594 4.07-3.256l.286.088c-.968 3.278-2.838 4.752-5.016 4.752-2.53 0-4.158-1.936-4.158-4.554 0-4.664 3.608-8.074 6.732-8.074 2.288 0 3.366 1.364 3.366 2.772 0 .748-.396 1.254-1.122 1.254-.77 0-.946-.462-.99-1.518-.066-1.056-.352-1.672-1.474-1.672m8.344 11.748c-1.848 0-2.992-1.386-2.992-3.916 0-4.708 3.63-8.668 6.974-8.668 1.122 0 1.87.33 2.398.77l.66-2.684c.308-1.254.374-1.562-.682-1.474l.044-.242 3.3-1.562-3.916 15.796c-.154.616-.022.836.264.836s.704-.176 1.298-.594l.132.198c-.77.836-1.694 1.54-2.684 1.54-.726 0-1.21-.506-.836-2.046l.242-.99c-1.342 2.002-2.86 3.036-4.202 3.036m-1.078-4.246c0 1.892.55 2.86 1.672 2.86 1.254 0 2.948-1.518 4.07-3.498l1.364-5.522c-.418-.88-1.144-1.474-2.112-1.474-2.398 0-4.994 3.652-4.994 7.634m14.94 4.246c-2.288 0-3.937-1.958-3.937-4.62 0-4.026 3.453-7.964 6.907-7.964 1.805 0 2.75 1.144 2.75 2.288 0 2.288-2.53 3.74-7.633 4.51 0 .264-.023.55-.023.814 0 2.134.99 3.498 2.816 3.498 1.782 0 3.059-1.452 4.048-3.388l.242.132c-.813 2.574-2.42 4.73-5.17 4.73m2.398-11.77c-1.562 0-3.651 2.002-4.202 5.192 3.763-.594 5.655-1.672 5.655-3.564 0-.814-.462-1.628-1.453-1.628m5.433 11.242 2.046-10.956h-1.452l.198-.924h1.43l.198-1.078c.616-3.3 2.332-4.136 3.674-4.136.946 0 1.628.506 1.628 1.21 0 .506-.33 1.078-.99 1.078-.968 0-.792-1.43-1.606-1.43-.594 0-1.012.836-1.012 1.826 0 1.056.044 1.738-.044 2.53h2.288l-.198.924h-2.266l-1.848 9.35c-.858 4.29-2.42 6.336-4.356 6.336-1.056 0-1.87-.572-1.87-1.342 0-.638.374-.99.924-.99.924 0 1.21 1.452 1.804 1.452.726 0 .924-1.056 1.452-3.85m9.543 4.532c-2.728 0-4.598-1.012-4.598-2.53 0-1.32 1.87-2.31 3.608-2.86-1.342-.396-1.826-.924-1.826-1.628 0-.946 1.034-1.628 2.156-2.2-.924-.506-1.65-1.408-1.65-2.772 0-2.354 2.068-4.598 4.774-4.598a3.6 3.6 0 0 1 1.1.176h3.916l-.154.726H78.05c.836.66 1.364 1.584 1.364 2.662 0 2.222-1.892 4.29-4.884 4.29-.418 0-.88-.088-1.32-.242-.836.418-1.188.77-1.188 1.1 0 .352.308.55.946.726l3.916 1.012c1.32.33 2.266 1.122 2.266 2.53 0 1.21-1.342 3.608-5.808 3.608m-.418-11.88c0 1.012.462 2.398 1.87 2.398 1.716 0 2.728-1.738 2.728-3.674 0-1.606-.462-2.684-1.804-2.684-1.76 0-2.794 1.694-2.794 3.96m-2.42 9.108c0 1.298 1.188 2.024 3.256 2.024 2.376 0 3.982-.924 3.982-2.134 0-.814-.55-1.232-1.606-1.518l-2.948-.77c-1.32.374-2.684 1.122-2.684 2.398m10.838-1.408 3.542-14.322c.308-1.254.374-1.562-.682-1.474l.044-.242 3.3-1.562-2.024 8.162c1.584-1.628 3.432-3.058 4.994-3.058 1.716 0 2.2 1.562 1.606 3.674l-2.024 7.172c-.132.506-.044.682.242.682s.77-.176 1.364-.594l.132.198c-.748.77-1.826 1.54-2.816 1.54-.726 0-1.122-.44-.836-1.452l2.09-7.546c.374-1.364.44-2.288-.616-2.288-1.408 0-2.926 1.232-4.422 2.882l-2.046 8.228zm17.075-13.926c-.726 0-1.144-.418-1.144-1.034 0-.814.682-1.474 1.496-1.474.682 0 1.122.418 1.122 1.034 0 .792-.682 1.474-1.474 1.474m.682 1.364-2.684 10.934c-.11.484-.044.66.242.66s.77-.176 1.364-.594l.132.198c-.748.77-1.826 1.54-2.816 1.54-.726 0-1.1-.462-.836-1.518l1.848-7.568c.374-1.518.484-1.914-.572-1.804l.044-.242zm5.641-1.364c-.726 0-1.144-.418-1.144-1.034 0-.814.682-1.474 1.496-1.474.682 0 1.122.418 1.122 1.034 0 .792-.682 1.474-1.474 1.474m.682 1.364-3.19 13.002c-.682 2.794-1.606 4.026-3.388 4.026-1.166 0-1.782-.66-1.782-1.386 0-.638.396-1.056 1.012-1.056 1.056 0 1.012 1.474 1.738 1.474.418 0 .704-.418.704-1.144 0-.506-.088-2.068.44-4.246l1.716-7.018c.374-1.518.484-1.914-.572-1.804l.044-.242zm1.048 12.562 3.542-14.322c.308-1.254.374-1.562-.682-1.474l.044-.242 3.3-1.562-4.356 17.6zm8.008-1.738c.33.638.528.77.836.77.198 0 .528-.088 1.144-.682l.154.176c-.924 1.21-1.584 1.65-2.244 1.65-.682 0-1.078-.418-1.584-1.408l-2.596-5.082v-.066l4.136-3.806c1.21-1.1.946-1.76-.132-1.76l.066-.286h3.982l-.066.286c-.748 0-1.188.308-2.64 1.65l-3.652 3.344zm9.707-15.862-3.828 15.95c-.154.616.022.682.286.682s.726-.176 1.32-.594l.132.198c-.77.77-1.782 1.54-2.838 1.54-.616 0-1.1-.374-.792-1.628l3.058-12.87c.308-1.254.374-1.562-.682-1.474l.044-.242zm.081 17.6 2.178-8.91c.374-1.518.484-1.914-.572-1.804l.044-.242 3.278-1.606-.814 3.278c1.254-1.43 3.014-3.212 4.642-3.212s2.068 1.386 1.782 3.014c1.452-1.672 3.014-3.014 4.444-3.014 1.716 0 2.2 1.562 1.606 3.674l-2.024 7.172c-.132.506-.044.682.242.682s.77-.176 1.364-.594l.132.198c-.748.77-1.826 1.54-2.816 1.54-.726 0-1.122-.44-.836-1.452l2.09-7.546c.374-1.364.396-2.332-.616-2.332-1.188 0-2.508 1.254-3.894 2.948l-2.046 8.206h-1.826l2.134-8.734c.374-1.496.418-2.42-.594-2.42-1.474 0-3.168 2.024-4.114 3.212l-1.936 7.942zm18.631 0 2.178-8.91c.374-1.518.484-1.914-.572-1.804l.044-.242 3.278-1.606-.77 3.124c1.584-1.628 3.432-3.058 4.994-3.058 1.716 0 2.2 1.562 1.606 3.674l-2.024 7.172c-.132.506-.044.682.242.682s.77-.176 1.364-.594l.132.198c-.748.77-1.826 1.54-2.816 1.54-.726 0-1.122-.44-.836-1.452l2.09-7.546c.374-1.364.44-2.288-.616-2.288-1.408 0-2.926 1.21-4.422 2.882l-2.024 8.228zm17.319.176c-2.464 0-4.18-2.2-4.18-4.972 0-4.334 3.036-7.612 6.534-7.612 2.552 0 4.18 2.09 4.18 4.84 0 4.422-2.948 7.744-6.534 7.744m-2.288-4.554c0 2.156.77 3.762 2.508 3.762 2.53 0 4.422-3.74 4.422-7.37 0-2.112-.726-3.63-2.464-3.63-2.354 0-4.466 3.762-4.466 7.238m9.82 7.04 2.838-11.572c.374-1.562.462-1.914-.572-1.804l.044-.242 3.278-1.606-.77 3.146c1.32-1.716 2.926-2.992 4.4-2.992 1.892 0 2.97 1.606 2.97 3.784 0 4.444-3.366 8.8-7.348 8.8-.836 0-1.628-.308-2.178-.792l-.814 3.278c-.286 1.166.044 1.386 1.122 1.386l-.044.242h-4.268l.044-.242c.594 0 1.012-.22 1.298-1.386m8.514-13.684c-.946 0-2.486.748-4.026 2.97l-1.43 5.83c.286.968.88 1.606 1.958 1.606 2.618 0 5.258-3.432 5.258-7.48 0-1.694-.352-2.926-1.76-2.926m8.642 11.198c-1.848 0-2.992-1.386-2.992-3.916 0-4.708 3.63-8.668 6.974-8.668 1.562 0 2.464.528 3.036 1.166l1.254-.99h.11l-3.696 14.894c-.286 1.166.044 1.386.638 1.386l-.044.242h-4.268l.044-.242c1.078 0 1.496-.22 1.782-1.386l1.386-5.544c-1.342 2.024-2.882 3.058-4.224 3.058m-1.078-4.246c0 1.892.55 2.86 1.672 2.86 1.254 0 2.948-1.54 4.092-3.542l1.364-5.456c-.418-.88-1.144-1.496-2.134-1.496-2.398 0-4.994 3.63-4.994 7.634m10.372 4.07 2.178-8.91c.374-1.518.484-1.914-.572-1.804l.044-.242 3.278-1.606-.748 3.08c1.144-1.958 2.156-2.992 3.278-2.992.792 0 1.144.594 1.144 1.144 0 .836-.55 1.188-.99 1.188-.528 0-.814-.506-1.43-.506-.638 0-1.408 1.056-2.354 2.596l-1.98 8.052zm12.522-.572c1.364 0 2.112-1.144 2.112-2.112 0-2.75-3.916-3.608-3.916-6.578 0-2.024 1.606-3.146 3.432-3.146 1.166 0 2.024.66 2.486.66.264 0 .418-.154.528-.484h.33l-.726 3.718h-.308c.132-2.398-1.078-3.146-2.398-3.146-1.122 0-1.804.66-1.804 1.738 0 2.2 4.07 3.542 4.07 6.512 0 2.178-1.76 3.586-3.982 3.586-1.518 0-2.376-.77-2.816-.77-.352 0-.55.264-.682.594h-.33l.858-4.312h.308c-.176 2.728 1.012 3.74 2.838 3.74m12.21-2.86c-.792 1.98-1.914 3.608-3.696 3.608-1.606 0-2.31-1.43-1.826-3.344l2.068-8.14h-1.078l.044-.264c1.518-.506 2.398-1.694 3.344-3.872h.44l-.77 3.212h3.168l-.22.924h-3.168l-2.046 8.448c-.308 1.298.044 1.958.726 1.958.77 0 1.716-.594 2.728-2.662zm10.436 1.782c-.132.506-.044.682.242.682s.77-.176 1.364-.594l.132.198c-.748.77-1.826 1.54-2.816 1.54-.726 0-1.1-.44-.836-1.452l.396-1.562c-1.254 1.43-2.992 3.058-4.532 3.058s-2.442-1.188-1.804-3.564l1.474-5.566c.374-1.386.528-1.936-.572-1.804l.044-.242 3.278-1.606-2.31 8.998c-.44 1.738-.374 2.398.792 2.398s2.904-1.65 3.938-2.926l2.068-8.14h1.848zm13.962-9.35c0 3.388-3.388 8.162-6.798 11.176h-.286c.286-5.016-.418-8.36-.858-10.164-.286-1.188-.55-1.144-1.166-.968l-.044-.242 2.288-1.364c1.056 2.42 1.65 6.248 1.518 10.362 2.09-2.376 3.96-5.324 3.96-7.018 0-1.078-.726-1.452-.726-2.222a1 1 0 0 1 1.012-1.034c.748 0 1.1.572 1.1 1.474m9.104 1.012c-.352-1.188-.572-1.144-1.188-.968l-.044-.242 2.288-1.364c1.1 2.464 1.342 6.182 1.188 10.362 2.046-2.376 3.718-5.5 3.718-7.018 0-1.078-.726-1.452-.726-2.222a1 1 0 0 1 1.012-1.034c.748 0 1.1.572 1.1 1.474 0 3.102-3.168 8.184-6.556 11.176h-.286c.176-2.992.154-5.39 0-7.194-1.254 2.508-3.19 5.324-5.302 7.194h-.286c.286-5.016-.176-8.382-.616-10.164-.286-1.188-.55-1.144-1.166-.968l-.044-.242 2.288-1.364c1.034 2.486 1.43 6.248 1.276 10.362 1.694-1.98 3.19-4.686 3.674-6.314-.11-.572-.198-1.078-.33-1.474m9.591 8.47c.484 0 .99-.88 2.948-4.466l-1.144-3.498c-.44-1.386-.44-1.65-1.804-1.342l.066-.33 2.684-1.408 1.628 5.17c1.804-3.652 2.926-5.148 4.268-5.148.77 0 1.166.396 1.166 1.078 0 .616-.264 1.21-.968 1.21-.594 0-.836-.506-1.342-.506-.572 0-1.364 1.386-2.838 4.246l1.386 4.356c.242.792.506 1.188.836 1.188.264 0 .528-.176 1.078-.682l.154.176c-.594.836-1.386 1.672-2.134 1.672-.792 0-1.254-.66-1.694-2.046l-1.056-3.256c-2.112 4.202-2.97 5.324-4.422 5.324-.748 0-1.276-.55-1.276-1.254 0-.726.462-1.166 1.1-1.166.726 0 .902.682 1.364.682m13.405-11.044c1.188 2.882 2.09 6.93 2.222 11.11 2.2-2.948 3.476-6.292 3.476-7.766 0-1.078-.726-1.452-.726-2.222a1 1 0 0 1 1.012-1.034c.748 0 1.1.572 1.1 1.474 0 2.706-2.002 7.216-5.434 11.374-1.826 2.222-3.872 4.092-5.5 4.092-1.012 0-1.496-.594-1.496-1.254 0-.572.484-1.056 1.188-1.056.792 0 1.034.858 1.65.858.55 0 1.628-.836 3.058-2.464 0-4.686-1.012-8.602-1.584-10.494-.352-1.188-.572-1.188-1.21-1.012l-.044-.242zm18.476.33-.022.044-.198.792c-1.562 3.124-6.336 6.314-9.196 9.768h3.96c2.464 0 2.706-.528 3.234-2.354h.352l-.99 3.982h-8.272l.198-.836c1.87-3.212 6.666-6.446 9.306-9.768h-4.422c-1.782 0-1.98.352-2.442 1.936h-.352l.88-3.564zM5.281 50.024c-.462.176-1.43.44-1.87.484l.044-.286C4.973 49.65 6.249 48.836 7.283 48h.33L4.489 62.718c-.352 1.606.022 1.738 1.254 1.738l-.066.286H.507l.066-.286c1.232 0 1.672-.132 2.024-1.738zm2.337 14.718.11-.55c1.98-1.672 3.256-2.794 5.082-4.532 2.926-2.794 4.708-5.016 4.708-7.524 0-1.584-.902-2.772-2.398-2.772-1.628 0-3.08 1.254-4.092 3.3l-.352-.176c.77-2.53 2.552-4.488 5.06-4.488s3.916 1.606 3.916 3.806c0 3.08-2.42 5.192-6.116 8.382-1.122.968-2.046 1.76-3.344 2.816h4.246c2.53 0 2.948-.352 3.586-1.936h.352l-1.298 3.674zm16.924-8.096-.154-.352c2.926-1.65 4.708-2.97 4.708-5.016 0-1.122-.682-1.98-2.09-1.98-1.562 0-2.64.902-3.564 2.42l-.33-.22c.858-2.024 2.53-3.498 4.62-3.498 2.266 0 3.366 1.276 3.366 2.86 0 1.716-1.232 3.014-3.564 4.158 1.738.286 3.212 1.76 3.212 3.894 0 2.992-2.552 5.984-6.336 5.984-2.486 0-4.026-1.43-4.026-2.882 0-.88.462-1.43 1.188-1.43.594 0 .968.374.902 1.254-.11 1.474.308 2.288 2.156 2.288 2.398 0 3.982-1.76 3.982-4.774 0-2.068-.902-3.146-2.398-3.146-.704 0-1.21.198-1.672.44m17.308 7.81-.066.286h-5.082l.066-.286c1.232 0 1.628-.132 1.98-1.738l.484-2.288h-6.644l.088-.484L43.28 48.044h.462L41.388 59.22h2.288l-.396 1.21h-2.156l-.484 2.288c-.352 1.606-.022 1.738 1.21 1.738m-7.414-5.236h5.06l1.584-7.524zm21.222-.814c0 3.52-2.794 6.49-6.644 6.49-2.288 0-3.894-1.364-3.894-2.882 0-.858.374-1.43 1.166-1.43.682 0 1.034.396.924 1.254-.198 1.54.352 2.288 2.002 2.288 2.838 0 4.312-2.2 4.312-4.994 0-2.354-1.32-3.63-3.256-3.63-1.166 0-2.002.352-2.86 1.122h-.352l2.508-8.382H57l-.572 1.738H49.96l-1.474 4.884c.682-.506 1.628-.88 2.816-.88 2.156 0 4.356 1.474 4.356 4.422m13.572-.044c0 3.652-3.147 6.6-6.183 6.6-2.265 0-4.597-1.65-4.597-5.39 0-7.546 6.775-11.088 10.977-11.572l-.044.418c-3.3.99-7.435 3.3-8.557 8.734 1.143-1.474 2.837-2.728 4.795-2.728 2.113 0 3.609 1.474 3.609 3.938m-8.69 1.782c0 2.948 1.276 3.96 2.662 3.96 2.53 0 3.96-2.42 3.96-5.412 0-2.112-1.079-2.992-2.553-2.992-1.407 0-3.057 1.276-3.96 2.596a16 16 0 0 0-.11 1.848m21.94-11.902-.11.55-9.174 15.95h-1.188l8.91-14.894h-5.104c-2.53 0-2.904.462-3.586 1.826h-.352l1.21-3.432zm10.495 3.102c0 1.892-1.694 3.476-4.004 4.444 1.694 1.452 3.08 2.706 3.08 4.422 0 2.64-2.354 4.752-5.72 4.752-2.618 0-4.62-1.32-4.62-3.718 0-2.53 2.2-4.158 4.664-5.104-1.496-1.32-2.244-2.354-2.244-3.784 0-2.574 2.266-4.356 4.95-4.356 2.046 0 3.894 1.188 3.894 3.344m-7.216.462c0 1.606 1.54 2.684 2.706 3.586 1.914-.968 2.904-2.266 2.904-4.004 0-1.474-.858-2.552-2.574-2.552-1.628 0-3.036 1.034-3.036 2.97m-2.09 9.262c0 1.804 1.122 3.058 2.97 3.058 2.134 0 3.652-1.562 3.652-3.168 0-1.936-2.002-3.212-3.432-4.4h-.022c-1.914.924-3.168 2.222-3.168 4.51M95.326 54.6c0-3.652 3.102-6.6 6.16-6.6 2.266 0 4.62 1.65 4.62 5.39 0 7.854-6.556 11.044-11.638 11.572l.044-.418c4.048-.946 8.096-3.124 9.218-8.558-1.056 1.43-2.684 2.552-4.554 2.552-2.178 0-3.85-1.518-3.85-3.938m2.046-.286c0 2.046 1.034 2.948 2.508 2.948 1.452 0 3.058-.99 4.048-2.552.044-.572.088-1.188.088-1.848 0-2.926-1.122-4.004-2.684-4.004-2.398 0-3.96 2.464-3.96 5.456M115.77 48c2.442 0 4.554 2.024 4.554 5.896 0 5.126-3.08 11.066-7.744 11.066-2.552 0-4.664-2.112-4.664-6.138 0-4.862 3.058-10.824 7.854-10.824m-.286.836c-4.026 0-5.434 6.446-5.434 10.802 0 3.014 1.232 4.488 2.728 4.488 3.938 0 5.412-6.402 5.412-10.78 0-2.992-1.298-4.51-2.706-4.51m8.622.726c.176-1.298.704-1.65 1.298-1.65.638 0 1.232.528.792 1.936l-3.014 9.636h-.352zm-2.156 15.312c-.616 0-1.034-.462-1.034-1.078 0-.682.506-1.298 1.32-1.298.682 0 1.056.44 1.056 1.012 0 .726-.484 1.364-1.342 1.364m7.21-5.39c.154-2.134 1.276-3.344 2.838-4.752 1.584-1.43 2.266-2.376 2.266-3.784 0-1.342-.792-2.222-2.178-2.222-.902 0-1.32.418-1.518 1.694-.154.968-.44 1.54-1.166 1.54-.638 0-1.056-.308-1.056-.968 0-1.562 1.738-3.058 3.982-3.058 2.596 0 3.894 1.496 3.894 3.124 0 1.716-.792 2.574-3.168 4.312-1.892 1.386-3.19 2.442-3.542 4.114zm-.484 5.39c-.616 0-1.034-.462-1.034-1.078 0-.682.506-1.298 1.32-1.298.682 0 1.056.44 1.056 1.012 0 .726-.484 1.364-1.342 1.364m16.111-.792c-1.562 0-2.684-1.1-2.684-3.212 0-4.136 3.916-7.964 6.754-7.964 1.144 0 1.848.572 2.178 1.32l.396-1.188h1.782l-2.552 7.92c-.462 1.452-.594 2.156.77 2.156 2.134 0 5.258-3.168 5.258-7.568 0-4.95-3.608-6.754-7.194-6.754-5.478 0-11 4.312-11 10.956 0 6.16 4.158 8.47 8.536 8.47 2.574 0 4.73-.792 6.006-1.76l.22.242c-1.1 1.1-3.63 2.442-6.82 2.442-4.994 0-9.57-2.926-9.57-8.822 0-7.282 6.248-12.298 12.628-12.298 4.532 0 8.382 2.31 8.382 7.15 0 5.148-3.674 8.91-6.908 8.91-1.738 0-2.552-.99-2.31-2.618-.968 1.408-2.354 2.618-3.872 2.618m-.704-3.608c0 1.518.308 2.31 1.32 2.31 1.474 0 2.86-1.606 3.828-3.256l1.364-4.048c-.088-1.276-.88-1.87-1.76-1.87-2.222 0-4.752 3.432-4.752 6.864m16.018-2.508h2.354l1.166-3.256H161.4l.154-1.276h2.53l1.892-5.192h.792l-1.892 5.192h2.794l1.892-5.192h.792l-1.892 5.192h1.98l-.154 1.276H168l-1.166 3.256h2.156l-.154 1.276h-2.464l-2.002 5.5h-.792l2.002-5.5h-2.794l-2.002 5.5h-.792l2.002-5.5h-2.046zm3.146 0h2.794l1.166-3.256h-2.794zM178.389 48h.132l.286-1.32h.638l-.286 1.364c1.87.198 3.41 1.144 3.41 2.486 0 .858-.462 1.342-1.122 1.342s-.99-.242-.968-1.078c.044-1.078-.286-1.716-1.518-1.892l-1.298 6.16 1.012.836c1.364 1.122 2.354 2.354 2.354 4.18 0 2.882-2.31 4.884-5.456 4.884h-.11l-.462 2.134h-.638l.462-2.156c-2.442-.22-3.894-1.474-3.894-2.882 0-.88.44-1.474 1.232-1.474.66 0 1.034.33.946 1.21-.11 1.254.374 2.09 1.892 2.266l1.54-7.216-.946-.77c-1.254-1.034-2.024-2.332-2.024-3.718 0-2.574 2.156-4.356 4.818-4.356m-1.606 6.358.33.264 1.232-5.764h-.11c-1.54 0-3.014.88-3.014 2.816 0 1.144.748 2.024 1.562 2.684m.704 3.256-.396-.33-1.452 6.82h.088c2.024 0 3.52-1.254 3.52-3.278 0-1.276-.616-2.266-1.76-3.212m9.841-1.474c-1.166 0-2.618-.836-2.618-3.102 0-3.014 2.244-5.038 4.092-5.038 1.21 0 2.618.836 2.618 3.102 0 3.014-2.2 5.038-4.092 5.038m-4.576 8.602 14.41-16.5h1.1l-14.41 16.5zm4.752-9.328c1.056 0 2.354-1.804 2.354-4.708 0-1.254-.308-1.98-1.232-1.98-1.1 0-2.354 1.804-2.354 4.73 0 1.232.308 1.958 1.232 1.958m4.84 9.526c-1.166 0-2.618-.836-2.618-3.102 0-3.014 2.244-5.038 4.092-5.038 1.21 0 2.618.836 2.618 3.102 0 3.014-2.2 5.038-4.092 5.038m.176-.726c1.056 0 2.354-1.804 2.354-4.708 0-1.254-.308-1.98-1.232-1.98-1.1 0-2.354 1.804-2.354 4.73 0 1.232.308 1.958 1.232 1.958m14.68-9.79-2.882-4.994-2.904 4.994h-1.012l3.696-6.38h.44l3.696 6.38zm12.063 7.436c1.056 1.958 1.452 2.508 2.882 2.596l-.044.286h-.792c-1.54 0-2.574-.638-3.564-2.046-1.342 1.254-2.838 2.2-4.818 2.2-2.508 0-4.202-1.76-4.202-3.872 0-2.728 2.288-4.356 5.016-5.412-.682-1.188-1.122-2.42-1.122-3.696 0-2.31 1.914-3.828 4.114-3.828 1.738 0 3.256 1.012 3.256 2.882 0 1.738-1.408 3.256-4.18 4.532l2.794 5.148c1.166-1.452 1.914-3.146 1.914-4.048 0-.55-.352-.814-1.254-.814l.044-.286h4.114l-.044.286c-.858 0-1.452.44-2.002 1.606-.66 1.32-1.276 2.64-2.376 3.96zm-4.928-10.362c0 1.122.396 2.288 1.144 3.476 2.09-1.056 2.904-2.398 2.904-3.85 0-1.386-.77-2.178-1.848-2.178-1.276 0-2.2.968-2.2 2.552m-3.608 9.042c0 1.782 1.166 2.97 2.992 2.97 1.21 0 2.464-.572 3.586-1.518-.11-.176-.22-.352-.33-.55l-2.882-5.236c-2.068.99-3.366 2.266-3.366 4.334m16.988-8.448c0-.352.374-.66 1.034-.968l.924-.418-.88-.11c-.726-.088-1.364-.33-1.364-.814 0-.33.22-.66.638-.66.308 0 .66.242 1.144.748l.528.55-.176-.88c-.198-1.034.022-1.584.616-1.584.396 0 .638.22.638.616 0 .286-.088.638-.33 1.078l-.462.836.748-.374c.352-.176.704-.396 1.034-.396.418 0 .66.242.66.594 0 .462-.352.682-.858.682-.22 0-.462-.022-1.584-.242l.66.572c.506.418.792.748.792 1.122 0 .33-.286.66-.704.66-.396 0-.682-.418-.814-1.342l-.132-.88-.396.814c-.33.682-.682 1.078-1.034 1.078-.308 0-.682-.33-.682-.682m7.335 16.434c-1.76-2.64-2.64-5.434-2.64-8.47 0-4.884 2.882-9.394 7.238-12.826l.352.352c-4.092 3.938-6.16 8.316-6.16 12.826 0 2.838.44 5.214 1.628 7.898zm2.37 0-.352-.352c4.092-3.938 6.16-8.316 6.16-12.826 0-2.838-.44-5.214-1.628-7.898l.418-.22c1.76 2.64 2.64 5.434 2.64 8.47 0 4.884-2.882 9.394-7.238 12.826m11.786-.484h-3.85l4.4-20.702h3.85l-.066.308c-2.222 0-2.618.11-2.948 1.716l-3.542 16.654c-.352 1.584 0 1.716 2.222 1.716zm1.928 0 .066-.308c2.222 0 2.618-.132 2.97-1.716l3.542-16.654c.33-1.606-.022-1.716-2.244-1.716l.066-.308h3.85l-4.4 20.702zm9.869-10.384c1.562.396 2.2 1.232 2.2 2.222 0 1.386-1.958 4.334-1.958 5.588 0 .902.396 1.76 2.332 2.266l-.154.418c-2.442-.572-3.608-1.43-3.608-2.882 0-1.914 2.376-4.224 2.376-5.588 0-.924-.572-1.694-2.53-2.002l.066-.308c2.684-.11 3.52-.924 3.52-2.222 0-1.474-.66-3.212-.33-4.972.352-1.936 2.09-2.684 4.928-2.838l-.044.418c-2.596.264-3.146 1.188-3.344 2.332-.308 1.738-.132 3.102-.132 4.62 0 1.65-1.034 2.618-3.3 2.904zm11.399.176c-1.562-.396-2.2-1.232-2.2-2.222 0-1.386 1.958-4.334 1.958-5.588 0-.902-.396-1.76-2.332-2.266l.154-.418c2.442.572 3.608 1.43 3.608 2.882 0 1.914-2.376 4.224-2.376 5.588 0 .924.572 1.694 2.53 2.002l-.066.308c-2.684.11-3.52.924-3.52 2.222 0 1.474.66 3.212.33 4.972-.352 1.936-2.09 2.684-4.928 2.838l.044-.418c2.596-.264 3.146-1.188 3.344-2.332.308-1.716.132-3.102.132-4.62 0-1.65 1.034-2.618 3.3-2.904zm11.091 2.31v.946l-7.92-4.026v-.44l7.92-4.026v.946l-6.578 3.3zm10.729-3.08-7.92 4.026v-.946l6.578-3.3-6.578-3.3v-.946l7.92 4.026zm2.523-.374h5.368l-.286 1.32h-5.368zm11.956 4.708v-4.224h-3.74v-.88h3.74V52.07h.968v4.224h3.74v.88h-3.74v4.224z"/></svg>