<svg xmlns="http://www.w3.org/2000/svg" fill="none" viewBox="0 0 378 70"><path fill="#1f1f1f" d="M4.4 16.456v.286H0v-.286c.859 0 1.167-.55 1.673-1.958L6.975.066h.44l5.302 14.388c.506 1.386.792 2.002 1.628 2.002v.286H9.703v-.286c1.21 0 1.65-.396 1.056-2.002L9.35 10.582H4.115l-1.188 3.322c-.704 1.98-.242 2.442 1.474 2.552m.023-6.732H9.02L6.71 3.388zm12.901-7.458c0-1.628-.373-1.738-1.496-1.738V.242h5.105c2.64 0 5.412 1.188 5.412 3.938 0 1.804-1.21 3.168-2.816 3.762 1.87.352 3.784 1.65 3.784 3.96 0 2.75-2.464 4.84-6.116 4.84h-5.368v-.286c1.122 0 1.495-.132 1.495-1.738zM20.559 1.1h-1.341v6.578h1.342c2.706 0 3.893-1.1 3.893-3.168 0-2.288-1.562-3.41-3.894-3.41m.837 7.436h-2.178v7.348h1.914c2.925 0 4.18-1.122 4.18-3.542 0-2.354-1.364-3.806-3.916-3.806m14.969 8.448c-3.872 0-6.864-3.52-6.864-8.008C29.5 3.432 33.086 0 37.023 0c2.069 0 3.366.858 3.938.858.375 0 .55-.264.572-.616h.33v4.95h-.352C41.247 1.914 39.07.858 36.561.858c-2.772 0-5.103 2.288-5.103 6.842 0 4.07 2.134 7.92 5.874 7.92 2.288 0 3.806-1.606 4.575-4.334l.397.132c-.595 3.366-2.729 5.566-5.94 5.566M44.26.528V.242h5.258c5.192 0 8.558 3.146 8.558 8.14 0 5.082-3.256 8.36-7.854 8.36h-5.962v-.286c1.122 0 1.496-.132 1.496-1.738V2.266c0-1.628-.374-1.738-1.496-1.738m5.698 15.356c3.872 0 6.094-2.222 6.094-6.38 0-5.126-2.376-8.404-6.996-8.404h-1.408v14.784zm11.55-13.618c0-1.628-.374-1.738-1.496-1.738V.242H70.97v4.136h-.352c-.066-2.882-1.122-3.278-3.3-3.278h-3.916v6.49h2.75c1.496 0 2.134-.44 2.2-2.266h.33v5.412h-.33c-.066-1.738-.704-2.288-2.2-2.288h-2.75v7.436h3.894c2.684 0 3.564-.616 3.718-4.004h.352v4.862H60.013v-.286c1.122 0 1.496-.132 1.496-1.738zm13.583 0c0-1.628-.374-1.738-1.496-1.738V.242h10.956v4.136H84.2C84.134 1.496 83.078 1.1 80.9 1.1h-3.916v6.754h3.19c1.496 0 2.134-.44 2.2-2.266h.33V11h-.33c-.066-1.738-.704-2.288-2.2-2.288h-3.19v6.006c0 1.606.462 1.738 1.694 1.738v.286h-5.082v-.286c1.122 0 1.496-.132 1.496-1.738zm19.89 13.926c1.738-.022 2.486-.616 2.486-1.98v-3.168c0-1.628-.462-1.738-1.584-1.738V9.02h4.862v.286c-1.012 0-1.386.11-1.386 1.738v4.488c-.726.638-2.31 1.452-4.752 1.452-5.038 0-7.964-3.52-7.964-8.492C86.644 3.388 90.296 0 94.388 0c1.958 0 3.256.858 3.828.858.374 0 .55-.264.572-.616h.33v4.686h-.352c-.374-3.014-2.442-4.07-4.84-4.07-2.926 0-5.28 2.486-5.28 6.49 0 4.686 1.76 8.888 6.336 8.844m8.736-13.926c0-1.628-.374-1.738-1.496-1.738V.242h4.972v.286c-1.122 0-1.584.11-1.584 1.738v5.39h7.766v-5.39c0-1.628-.462-1.738-1.584-1.738V.242h4.972v.286c-1.122 0-1.496.11-1.496 1.738v12.452c0 1.606.374 1.738 1.496 1.738v.286h-4.972v-.286c1.122 0 1.584-.132 1.584-1.738V8.514h-7.766v6.204c0 1.606.462 1.738 1.584 1.738v.286h-4.972v-.286c1.122 0 1.496-.132 1.496-1.738zm16.482 0c0-1.628-.374-1.738-1.496-1.738V.242h4.862v.286c-1.122 0-1.474.11-1.474 1.738v12.452c0 1.606.352 1.738 1.474 1.738v.286h-4.862v-.286c1.122 0 1.496-.132 1.496-1.738zm13.13 9.482c0 3.476-1.848 5.236-4.334 5.236-2.178 0-3.916-1.298-3.916-2.992 0-.902.462-1.342 1.144-1.342.748 0 1.012.594 1.1 1.518.154 1.54.726 2.002 2.002 2.002 1.342 0 2.112-1.166 2.112-3.96V2.266c0-1.606-.462-1.738-1.584-1.738V.242h4.796v.286c-.946 0-1.32.132-1.32 1.738zm4.668-9.482c0-1.628-.374-1.738-1.496-1.738V.242h4.972v.286c-1.122 0-1.584.11-1.584 1.738v12.452c0 1.606.462 1.738 1.584 1.738v.286h-4.972v-.286c1.122 0 1.496-.132 1.496-1.738zm2.2 5.544 5.39-5.522c1.54-1.584.616-1.76-.264-1.76V.242h4.048v.286c-.506 0-1.1.176-2.508 1.628l-4.95 5.06 5.852 7.656c.924 1.21 1.408 1.584 1.936 1.584v.286h-4.708v-.286c1.254 0 1.364-.55.792-1.298l-5.588-7.304zm12.521 6.908V2.266c0-1.606-.374-1.738-1.496-1.738V.242h5.082v.286c-1.232 0-1.694.132-1.694 1.738v13.618h3.674c2.376 0 3.278-.484 3.344-3.586h.352v4.444h-10.758v-.286c1.122 0 1.496-.11 1.496-1.738m12.745-12.452c0-1.452-.374-1.694-1.496-1.738V.242h3.872l4.73 12.848L177.19.242h3.74v.286c-1.122 0-1.496.11-1.496 1.738v12.452c0 1.606.374 1.738 1.496 1.738v.286h-4.972v-.286c1.122 0 1.584-.132 1.584-1.738V1.892l-5.28 14.74h-.33l-5.522-14.74v12.144c0 1.958.77 2.42 1.958 2.42v.286h-4.4v-.286c1.122 0 1.496-.374 1.496-2.354zm29.449 14.586-9.614-15.136v12.1c0 1.958.88 2.64 2.376 2.64v.286h-4.818v-.286c1.122 0 1.496-.594 1.496-2.574V2.266c0-1.452-.374-1.694-1.496-1.738V.242h3.674l7.898 12.386V3.19c0-1.958-.66-2.662-2.112-2.662V.242h4.598v.286c-1.166 0-1.54.616-1.54 2.596v13.728zm11.194.132c-4.048 0-7.238-3.498-7.238-8.47 0-5.104 3.344-8.514 7.238-8.514 3.872 0 7.172 3.52 7.172 8.514 0 5.082-3.3 8.47-7.172 8.47m.44-.858c2.552 0 4.73-2.508 4.73-6.468 0-4.378-1.936-8.8-5.632-8.8-2.728 0-4.774 2.508-4.774 6.512 0 4.51 1.848 8.756 5.676 8.756m10.17-13.86c0-1.628-.374-1.738-1.496-1.738V.242h5.434c3.102 0 5.94 1.452 5.94 4.4 0 2.75-2.354 5.104-5.786 5.104h-2.2v4.972c0 1.606.484 1.738 1.672 1.738v.286h-5.06v-.286c1.122 0 1.496-.132 1.496-1.738zm3.52-1.166h-1.628v7.788h2.134c2.706 0 3.85-1.386 3.85-3.806 0-2.288-1.562-3.982-4.356-3.982m22.808 18.722c-3.366 0-5.434-.99-7.128-2.838h-.11c-4.048 0-7.238-3.498-7.238-8.47 0-5.104 3.344-8.514 7.238-8.514 3.872 0 7.172 3.52 7.172 8.514 0 4.114-2.156 7.106-5.016 8.118 1.54 1.65 3.322 2.75 5.456 2.904v.286zm-6.798-3.696c2.552 0 4.73-2.508 4.73-6.468 0-4.378-1.936-8.8-5.632-8.8-2.728 0-4.774 2.508-4.774 6.512 0 4.51 1.848 8.756 5.676 8.756m19.781-1.738c1.012 1.584 1.474 1.958 2.53 2.068v.286h-3.168l-5.038-7.832h-1.936v5.808c0 1.606.462 1.738 1.584 1.738v.286h-4.972v-.286c1.122 0 1.496-.132 1.496-1.738V2.266c0-1.628-.374-1.738-1.496-1.738V.242h5.654c2.948 0 5.588 1.056 5.588 4.158 0 2.09-1.562 3.696-3.916 4.29zM250.308 1.1h-1.892v6.952h1.892c2.706 0 3.96-.968 3.96-3.322 0-2.288-1.386-3.63-3.96-3.63m17.212 12.144c0-1.496-.858-2.53-2.42-3.542l-2.398-1.562c-1.628-1.056-2.728-2.508-2.728-4.202 0-2.354 1.936-3.938 4.202-3.938 2.244 0 2.904.814 3.498.814.242 0 .418-.176.462-.572h.308v4.092h-.33c-.242-2.332-1.892-3.476-4.158-3.476-1.188 0-2.266.88-2.266 2.464 0 1.386.88 2.354 1.936 3.036l2.398 1.562c1.826 1.188 3.388 2.464 3.388 4.642 0 2.64-2.002 4.422-4.884 4.422-2.244 0-3.322-.924-3.96-.924-.264 0-.462.22-.506.682h-.33v-4.906h.352c.154 2.574 1.958 4.29 4.664 4.29 1.65 0 2.772-1.078 2.772-2.882m8.855 1.474V1.1h-1.562c-2.178 0-3.234.396-3.3 3.498h-.352V.242h12.32v4.356h-.352c-.066-3.102-1.122-3.498-3.3-3.498h-1.562v13.618c0 1.606.484 1.738 1.496 1.738v.286h-4.884v-.286c1.122 0 1.496-.132 1.496-1.738m10.18-4.07V2.266c0-1.606-.374-1.738-1.32-1.738V.242h4.796v.286c-1.122 0-1.584.132-1.584 1.738v7.92c0 3.696 1.034 5.72 4.862 5.72 2.53 0 4.07-1.584 4.07-4.642V2.948c0-1.958-.77-2.42-1.958-2.42V.242h4.268v.286c-.99 0-1.364.374-1.364 2.354v8.36c0 3.366-1.826 5.764-5.588 5.764-4.18 0-6.182-2.552-6.182-6.358m24.61-10.12V.242h4.18v.286c-.858 0-1.166.55-1.672 1.958l-5.302 14.432h-.44L302.629 2.53c-.506-1.386-.792-2.002-1.628-2.002V.242h4.642v.286c-1.21 0-1.65.396-1.056 2.002l4.026 11.044 3.806-10.494c.638-1.76.33-2.486-1.254-2.552m21.152 0V.242h4.18v.286c-.858 0-1.21.55-1.672 1.958l-4.708 14.432h-.44l-3.146-9.548-3.41 9.548h-.44L318.017 2.53c-.44-1.386-.792-2.002-1.628-2.002V.242h4.554v.286c-1.144 0-1.518.352-.99 2.002l3.432 10.626 2.64-7.348-1.078-3.278c-.462-1.386-.792-2.002-1.562-2.002V.242h4.554v.286c-1.21 0-1.584.352-1.056 2.002l3.454 10.56 3.234-10.01c.572-1.782.33-2.486-1.254-2.552m15.077 14.344-3.322-5.742-2.882 4.774c-1.21 2.002-.748 2.552.858 2.552v.286h-4.554v-.286c.858 0 1.408-.572 2.288-2.002l3.806-6.16-3.608-6.248c-.704-1.21-.968-1.518-1.804-1.518V.242h4.598v.286c-1.1 0-1.342.374-.792 1.32l2.97 5.148 2.508-4.026c1.21-1.936.726-2.442-.66-2.442V.242h4.158v.286c-.814 0-1.166.506-1.892 1.65l-3.608 5.676 3.938 6.82c.77 1.32 1.1 1.782 1.936 1.782v.286h-4.642v-.286c1.122 0 1.408-.374.704-1.584M361.334.528V.242h4.202v.286c-.836 0-1.21.66-1.914 1.958l-3.608 6.71v5.522c0 1.606.462 1.738 1.496 1.738v.286h-4.884v-.286c1.122 0 1.496-.132 1.496-1.738V9.372l-3.696-6.842c-.682-1.276-1.056-2.002-1.892-2.002V.242h4.686v.286c-1.21 0-1.584.506-.792 2.002l3.102 5.786 2.794-5.236c.88-1.65.594-2.486-.99-2.552m16.348-.286v.286l-8.712 15.356h4.466c2.684 0 3.564-.616 3.718-4.004h.352v4.862h-10.912v-.286L375.306 1.1h-4.312c-2.178 0-3.234.396-3.3 3.278h-.352V.242zM3.872 41.006c-1.913 0-3.365-1.298-3.365-3.19 0-2.024 1.43-2.926 3.124-3.498.946-.33 1.87-.55 2.53-.858.638-.308 1.276-.902 1.276-2.09 0-1.408-.88-2.332-2.376-2.332s-2.068.726-2.222 1.914c-.132.968-.506 1.54-1.166 1.54-.594 0-.968-.418-.968-1.034 0-1.474 1.826-3.212 4.686-3.212 2.442 0 3.872 1.1 3.872 3.322v7.414c0 .506.176.814.594.814.308 0 .594-.132.902-.594l.154.154c-.352.792-.99 1.584-1.98 1.584s-1.496-.616-1.496-1.782v-.374c-.814 1.078-1.98 2.222-3.564 2.222M2.466 37.64c0 1.232.792 2.112 2.112 2.112 1.056 0 1.914-.726 2.86-1.958V33.24c-.154.286-.506.66-.968.946-.66.418-1.562.682-2.376 1.1-1.034.528-1.628 1.298-1.628 2.354m15.234 3.256c-1.672 0-2.772-.638-3.52-1.386l-1.232 1.144h-.11V26.42c0-1.254 0-1.562-1.056-1.474v-.242l2.904-1.562v7.304c.902-1.1 2.288-2.2 3.96-2.2 2.486 0 4.466 2.09 4.466 5.94 0 4.246-2.706 6.71-5.412 6.71m-3.014-3.894c0 1.782 1.606 3.036 3.366 3.036 1.958 0 3.256-1.54 3.256-4.51 0-3.058-1.012-5.896-3.52-5.896-1.518 0-2.288.814-3.102 1.892zm15.86-7.832c-1.76 0-3.476 1.87-3.476 4.84 0 3.432 1.782 5.368 4.004 5.368 1.54 0 2.882-1.034 3.586-3.256l.308.088c-.44 2.64-2.2 4.686-4.664 4.686-3.146 0-5.016-2.596-5.016-5.896 0-4.554 3.08-6.666 5.522-6.666 2.53 0 3.872 1.408 3.872 2.992 0 .594-.374 1.034-.902 1.034-.704 0-1.012-.528-1.166-1.276-.242-1.21-.924-1.914-2.068-1.914m10.858 11.726c-2.464 0-4.488-1.98-4.488-5.83 0-4.268 2.838-6.82 5.61-6.82 1.298 0 2.178.396 2.816.902V26.42c0-1.254 0-1.562-1.056-1.474v-.242l2.904-1.562v14.96c0 1.232.022 1.54 1.1 1.474v.242l-2.948 1.166v-2.266c-.88 1.1-2.288 2.178-3.938 2.178m-2.684-7.172c0 3.036 1.056 5.786 3.52 5.786 1.518 0 2.31-.814 3.102-1.892v-5.39c0-1.782-1.32-3.124-3.124-3.124-1.958 0-3.498 1.628-3.498 4.62m16.386 7.172c-3.146 0-5.016-2.596-5.016-5.676 0-4.774 3.278-6.886 5.412-6.886 2.574-.022 4.378 1.892 4.378 4.752h-7.986a9 9 0 0 0-.066 1.144c0 3.278 1.87 5.214 4.07 5.214 1.584 0 3.036-1.056 3.718-3.366l.308.088c-.418 2.728-2.2 4.73-4.818 4.73m.088-11.748c-1.276 0-2.64 1.078-3.146 3.19h5.83c-.198-1.914-.946-3.19-2.684-3.19m6.541.286v-.924h1.342c-.462-3.608.99-5.214 2.706-5.214 1.276 0 1.914.704 1.914 1.452 0 .462-.308.836-.814.836-.55 0-.836-.418-1.056-.77-.198-.308-.418-.682-.814-.682-.374 0-.66.44-.66 1.1 0 1.122.462 1.738.506 3.278H67.3v.924h-2.442v9.68c0 1.166.396 1.386 1.276 1.386v.242H62.02V40.5c.638 0 1.012-.22 1.012-1.386v-9.68zm11.437 15.444c-2.97 0-4.928-1.1-4.928-2.662 0-1.1 1.232-2.156 2.134-2.596-.748-.352-1.144-.946-1.144-1.65 0-1.012 1.056-1.87 1.936-2.288-1.254-.682-2.112-1.936-2.112-3.432 0-2.222 1.87-3.916 4.048-3.916.55 0 .99.066 1.386.176h3.894v.726h-2.486c.99.616 1.584 1.672 1.584 3.014 0 2.222-1.87 3.938-4.202 3.938-.462 0-.924-.066-1.342-.198-.836.396-1.298.814-1.298 1.32 0 .462.33.836 1.276.836h2.904c2.794 0 3.696 1.012 3.696 2.64 0 1.958-1.804 4.092-5.346 4.092m.33-9.438c1.342 0 2.156-1.144 2.156-2.684 0-1.584-.66-3.674-2.596-3.674-1.034 0-2.156.77-2.156 2.728 0 1.936.99 3.63 2.596 3.63m-3.52 6.27c0 1.518 1.32 2.332 3.696 2.332 2.618 0 3.696-1.518 3.696-2.684 0-.792-.352-1.43-2.266-1.43H71.96c-.308 0-.594-.022-.858-.088-.484.352-1.122 1.056-1.122 1.87m14.16-.968h-4.004V40.5c.594 0 .968-.22.968-1.386V26.42c0-1.254 0-1.562-1.056-1.474v-.242l2.904-1.562V30.6c.814-1.1 2.046-2.354 3.872-2.354 2.222 0 3.3 1.584 3.3 3.674v7.194c0 1.166.374 1.386 1.012 1.386v.242H87.11V40.5c.792 0 1.166-.22 1.166-1.386V32.25c0-1.628-.726-2.618-2.266-2.618-1.628 0-2.464 1.166-3.058 2.024v7.458c0 1.166.33 1.386 1.188 1.386zM95.01 26.816c-.726 0-1.254-.55-1.254-1.254s.528-1.254 1.254-1.254c.748 0 1.254.55 1.254 1.254s-.506 1.254-1.254 1.254m2.068 13.926h-3.872V40.5c.594 0 .968-.22.968-1.386v-7.282c0-1.54 0-1.914-1.034-1.804v-.242l2.882-1.606v10.934c0 1.166.33 1.386 1.056 1.386zm3.93-13.926c-.726 0-1.254-.55-1.254-1.254s.528-1.254 1.254-1.254c.748 0 1.254.55 1.254 1.254s-.506 1.254-1.254 1.254m1.012 1.364v11.792c0 3.806-.858 5.236-2.662 5.236-1.474 0-2.266-.792-2.266-1.606 0-.55.352-.946.902-.946.484 0 .858.33 1.122.924.198.44.352.814.858.814.33 0 .616-.33.616-.902 0-1.056-.418-1.804-.418-4.576v-7.084c0-1.54 0-1.914-1.034-1.804v-.242zm6.884 12.562H104.9V40.5c.594 0 .968-.22.968-1.386V26.42c0-1.254 0-1.562-1.056-1.474v-.242l2.904-1.562v15.972c0 1.166.33 1.386 1.188 1.386zm2.882 0V40.5c.902 0 1.012-.33.374-1.056l-4.224-4.95v-.044l3.872-3.894c1.078-1.078.748-1.76-.33-1.76v-.286h3.982v.286c-.726 0-1.144.396-2.376 1.628l-3.476 3.454 4.202 4.928c1.034 1.232 1.606 1.694 2.156 1.694v.242zm9.237 0h-3.894V40.5c.638 0 1.012-.22 1.012-1.386V26.42c0-1.254 0-1.562-1.122-1.474v-.242l2.97-1.562v15.972c0 1.166.33 1.386 1.034 1.386zm6.087 0h-4.004V40.5c.594 0 .968-.22.968-1.386v-7.282c0-1.54 0-1.914-1.034-1.804v-.242l2.882-1.606v2.376c.792-1.1 1.892-2.31 3.652-2.31 1.694 0 2.618 1.034 2.948 2.508.77-1.144 1.914-2.508 3.784-2.508 2.09 0 3.08 1.54 3.08 3.674v7.194c0 1.166.374 1.386 1.012 1.386v.242h-4.026V40.5c.792 0 1.166-.22 1.166-1.386V32.25c0-1.672-.66-2.618-2.024-2.618-1.408 0-2.266 1.144-2.86 2.024v7.458c0 1.166.33 1.386 1.188 1.386v.242h-4.202V40.5c.792 0 1.166-.22 1.166-1.386V32.25c0-1.672-.66-2.618-2.024-2.618-1.408 0-2.266 1.144-2.86 2.024v7.458c0 1.166.33 1.386 1.188 1.386zm19.298 0h-4.004V40.5c.594 0 .968-.22.968-1.386v-7.282c0-1.54 0-1.914-1.034-1.804v-.242l2.882-1.606v2.42c.814-1.1 2.046-2.354 3.872-2.354 2.222 0 3.3 1.584 3.3 3.674v7.194c0 1.166.374 1.386 1.012 1.386v.242h-4.026V40.5c.792 0 1.166-.22 1.166-1.386V32.25c0-1.628-.726-2.618-2.266-2.618-1.628 0-2.464 1.166-3.058 2.024v7.458c0 1.166.33 1.386 1.188 1.386zm14.432.154c-3.058 0-5.478-2.618-5.478-6.27s2.354-6.292 5.478-6.292c3.08 0 5.478 2.64 5.478 6.292s-2.332 6.27-5.478 6.27m.418-.77c1.562 0 3.102-1.54 3.102-4.422 0-3.476-1.342-6.578-3.872-6.578-1.606 0-3.19 1.43-3.19 4.29 0 3.498 1.43 6.71 3.96 6.71m12.915.77c-1.342 0-2.31-.396-3.014-.946v3.454c0 1.166.374 1.386 1.452 1.386v.242h-4.268v-.242c.594 0 .968-.22.968-1.386V31.832c0-1.54 0-1.914-1.034-1.804v-.242l2.882-1.606v2.266c.902-1.1 2.288-2.2 3.96-2.2 2.486 0 4.466 2.09 4.466 5.94 0 4.246-2.706 6.71-5.412 6.71m-3.014-3.894c0 1.782 1.606 3.036 3.366 3.036 1.958 0 3.256-1.54 3.256-4.51 0-3.058-1.012-5.896-3.52-5.896-1.518 0-2.288.814-3.102 1.892zm15.019 3.894c-2.464 0-4.488-1.98-4.488-5.83 0-4.268 2.838-6.82 5.61-6.82 1.694 0 2.662.638 3.366 1.408l1.188-1.144h.11v14.894c0 1.166.374 1.386.968 1.386v.242h-4.268v-.242c1.078 0 1.452-.22 1.452-1.386v-4.686c-.88 1.1-2.288 2.178-3.938 2.178m-2.684-7.172c0 3.036 1.056 5.786 3.52 5.786 1.518 0 2.31-.814 3.102-1.892v-5.39c0-1.782-1.32-3.124-3.124-3.124-1.958 0-3.498 1.628-3.498 4.62m15.595 7.018h-4.246V40.5c.594 0 .968-.22.968-1.386v-7.282c0-1.54 0-1.914-1.034-1.804v-.242l2.882-1.606v2.86c.77-1.386 1.892-2.772 3.212-2.772.946 0 1.342.572 1.342 1.21 0 .55-.374 1.056-.99 1.056-.704 0-.902-.418-1.606-.418-.66 0-1.276.88-1.958 2.046v6.952c0 1.166.352 1.386 1.43 1.386zm10.501-2.486c0-1.122-.572-1.65-1.628-2.376l-1.914-1.32c-1.276-.88-1.98-1.958-1.98-3.19 0-2.024 1.54-3.058 3.278-3.058 1.43 0 2.156.682 2.552.682.308 0 .44-.198.484-.484h.33v3.718h-.308c-.374-2.222-1.76-3.168-3.19-3.168-1.144 0-1.694.682-1.694 1.672 0 .924.682 1.452 1.606 2.112l1.914 1.364c1.342.946 2.244 1.782 2.244 3.542s-1.43 3.146-3.542 3.146c-1.87 0-2.574-.748-3.058-.748-.352 0-.528.33-.55.594h-.33V36.43h.308c.286 2.53 2.046 3.718 3.652 3.718 1.298 0 1.826-.946 1.826-1.892m10.007-.792c-.198 1.782-.88 3.52-2.838 3.52-1.474 0-2.552-.836-2.552-2.838v-8.712h-1.1v-.286c1.43-.44 2.024-2.002 2.508-3.85h.44v3.212h3.146v.924h-3.146v8.514c0 1.32.528 1.892 1.43 1.892.88 0 1.518-.638 1.804-2.42zm4.543-.462c0 1.672.748 2.618 2.112 2.618 1.43 0 2.398-.99 3.014-1.848v-5.94c0-1.452 0-2.002-1.056-1.87v-.242l2.904-1.54v9.922c0 1.166 0 1.54 1.056 1.474v.242l-2.904 1.166v-2.112c-.836 1.056-2.068 2.134-3.74 2.134-2.222 0-3.234-1.54-3.234-3.674v-5.5c0-1.452 0-2.002-1.056-1.87v-.242l2.904-1.54zm16.593-8.206v-.286h3.718v.286c-.682 0-1.078.836-1.65 2.332l-3.718 9.79h-.242l-3.938-10.428c-.484-1.298-.704-1.694-1.342-1.694v-.286h4.136v.286c-1.012 0-1.43.396-.946 1.694l2.684 7.15 2.244-6.05c.726-1.936.33-2.794-.946-2.794m17.364 0v-.286h3.718v.286c-.682 0-1.122.814-1.65 2.332l-3.454 9.79h-.242l-2.75-7.656-3.036 7.656h-.242l-3.674-10.428c-.462-1.298-.704-1.694-1.342-1.694v-.286h4.136v.286c-1.012 0-1.408.396-.946 1.694l2.464 7.018 2.2-5.434-.572-1.584c-.462-1.298-.748-1.694-1.386-1.694v-.286h4.048v.286c-.88 0-1.276.396-.814 1.694l2.486 6.93 2.002-5.83c.682-1.958.33-2.794-.946-2.794m16.11 11.704v.242h-4.246V40.5c1.034 0 1.32-.22.792-1.056l-2.64-4.18-2.134 3.322c-.792 1.21-.242 1.87.836 1.87v.286h-4.004v-.286c.704 0 1.276-.484 2.002-1.562l2.86-4.334-2.596-4.114c-.858-1.364-1.342-1.694-1.804-1.694v-.242h4.136v.242c-.902 0-1.21.22-.682 1.056l2.222 3.542 1.694-2.574c.858-1.32.352-1.98-.55-1.98v-.286h3.674v.286c-.704 0-1.122.396-2.024 1.76l-2.31 3.52 2.97 4.73c.836 1.342 1.342 1.694 1.804 1.694m2.72 4.752c-.968 0-1.892-.44-1.892-1.32 0-.638.44-.946.946-.946.748 0 .968.748 1.804.748.506 0 1.122-.198 2.222-3.168l.022-.066-3.498-10.01c-.462-1.298-.704-1.694-1.342-1.694v-.286h4.136v.286c-1.012 0-1.386.396-.946 1.694l2.552 7.546 2.376-6.446c.704-1.936.33-2.794-.946-2.794v-.286h3.718v.286c-.682 0-1.1.836-1.65 2.332l-3.542 9.548c-1.342 3.586-2.332 4.576-3.96 4.576M296.21 28.51v.286l-6.776 11.022h3.058c2.222 0 2.904-.396 3.014-3.058h.352v3.982h-8.8v-.286l6.776-11.022h-3.146c-1.804 0-2.442.352-2.508 2.64h-.352V28.51zM2.2 50.024c-.417.176-1.341.44-1.781.484v-.286A10.6 10.6 0 0 0 3.763 48h.33v14.718c0 1.606.396 1.738 1.628 1.738v.286H.55v-.286c1.232 0 1.65-.132 1.65-1.738zm5.638 14.718v-.55c1.628-1.76 2.75-2.816 4.268-4.554 2.112-2.398 3.366-4.664 3.366-6.798 0-2.222-1.232-3.476-3.234-3.476-1.804 0-3.124 1.342-3.74 3.432l-.418-.11C8.63 50.112 10.148 48 13.14 48c2.684 0 4.356 1.65 4.356 4.07 0 2.794-1.804 5.148-4.598 8.03a118 118 0 0 1-2.882 2.904h4.202c2.53 0 2.882-.352 3.19-1.936h.352l-.528 3.674zM23.412 56.8l-.22-.33c2.156-1.518 3.63-2.662 3.63-4.532 0-1.518-.858-2.64-2.552-2.64-1.672 0-2.508.968-3.124 2.398l-.418-.11C21.454 49.408 22.774 48 25.106 48c2.31 0 3.564 1.54 3.564 3.19 0 1.562-1.078 2.684-2.574 3.784 2.024.308 3.894 1.98 3.894 4.334 0 2.992-2.266 5.588-5.61 5.588-2.86 0-4.51-1.672-4.51-3.212 0-.726.44-1.1 1.034-1.1s.902.44 1.056 1.254c.264 1.386.814 2.288 2.838 2.288 2.09 0 3.234-1.342 3.234-3.894 0-2.222-1.276-3.872-3.212-3.872-.66 0-1.034.198-1.408.44m18.672 7.656v.286h-5.082v-.286c1.232 0 1.606-.132 1.606-1.738V60.43h-6.644v-.484l8.074-11.902h.462V59.22h2.354v1.21H40.5v2.288c0 1.606.352 1.738 1.584 1.738m-8.536-5.236h5.06v-7.546zm15.48 5.676c-2.64 0-4.356-1.672-4.356-3.212 0-.726.44-1.1 1.034-1.1s.902.44 1.056 1.254c.264 1.386.88 2.288 2.684 2.288 2.31 0 3.432-1.826 3.432-4.312 0-2.816-1.65-4.312-3.872-4.312-1.254 0-2.112.33-2.838 1.122h-.352l.924-8.382h7.634l-.264 1.738h-6.644l-.572 4.884c.638-.528 1.496-.88 2.816-.88 2.442 0 5.126 1.628 5.126 4.906 0 3.344-2.244 6.006-5.808 6.006m19.248-5.808c0 3.696-2.662 5.896-5.39 5.896-2.816 0-5.764-2.288-5.764-6.71 0-7.062 6.182-9.812 9.284-10.274l.044.418c-2.64.946-6.688 2.838-7.194 8.47.946-1.122 2.442-2.464 4.4-2.464 2.882 0 4.62 2.068 4.62 4.664m-9.064-1.034c0 3.916 1.848 6.072 3.916 6.072 1.738 0 3.102-1.628 3.102-4.378 0-2.64-1.188-4.026-3.19-4.026-1.914 0-3.124 1.386-3.828 2.332m20.073-9.812v.55l-6.335 15.95H71.76l6.249-14.894h-5.148c-2.53 0-2.794.462-3.19 1.826h-.352l.484-3.432zm11.2 3.256c0 1.958-1.783 3.52-3.213 4.29 2.332 1.32 3.872 2.574 3.872 4.796 0 2.42-2.288 4.4-5.346 4.4-2.266 0-5.038-1.408-5.038-4.092 0-2.31 2.112-3.74 3.74-4.642-2.156-1.232-3.146-2.574-3.146-4.29 0-2.2 2.134-3.96 4.796-3.96 2.156 0 4.334 1.078 4.334 3.498m-7.525-.22c0 1.584 1.1 2.64 3.674 4.136 1.21-.814 2.354-2.002 2.354-3.586 0-1.914-1.1-2.97-3.146-2.97-1.738 0-2.882 1.012-2.882 2.42m-.352 9.328c0 2.156 1.386 3.52 3.586 3.52 2.068 0 3.146-1.298 3.146-2.838 0-1.606-1.232-2.97-4.158-4.664-1.32.946-2.574 2.002-2.574 3.982m10.425-6.71c0-3.696 2.662-5.896 5.39-5.896 2.816 0 5.764 2.288 5.764 6.71 0 7.062-6.27 9.812-9.812 10.274l-.044-.418c3.058-.946 7.194-2.838 7.722-8.448-.946 1.1-2.442 2.442-4.4 2.442-2.882 0-4.62-2.068-4.62-4.664m2.046-.66c0 2.64 1.188 4.026 3.19 4.026 1.914 0 3.124-1.386 3.828-2.332 0-3.916-1.848-6.072-3.916-6.072-1.738 0-3.102 1.628-3.102 4.378m17.371 11.748c-2.508 0-5.984-2.288-5.984-8.47S109.92 48 112.45 48c2.42 0 6.006 2.332 6.006 8.514s-3.388 8.47-6.006 8.47m.418-.836c1.408 0 3.674-1.034 3.674-6.116 0-4.4-1.474-9.152-4.554-9.152-1.474 0-3.608 1.078-3.608 6.094 0 4.4 1.452 9.174 4.488 9.174m8.133-14.586c-.066-1.188.506-1.65 1.078-1.65s1.144.462 1.078 1.65l-.902 9.922h-.352zm1.078 15.312a1.17 1.17 0 0 1-1.188-1.188c0-.682.506-1.188 1.188-1.188.726 0 1.188.506 1.188 1.188 0 .66-.462 1.188-1.188 1.188m6.902-16.148c-.968 0-1.408.462-1.562 1.694-.11.968-.352 1.54-1.144 1.54-.748-.022-1.012-.506-1.012-1.232 0-1.562 1.782-2.816 3.85-2.794 2.75.022 4.334 1.43 4.334 3.278 0 1.738-.55 2.706-2.684 4.488-1.232 1.034-2.222 2.156-2.464 3.784h-.352c-.044-2.024.902-3.476 2.002-4.774.792-.924 1.562-1.892 1.562-3.344 0-1.738-1.078-2.64-2.53-2.64m-.704 16.148a1.17 1.17 0 0 1-1.188-1.188c0-.682.506-1.188 1.188-1.188.726 0 1.188.506 1.188 1.188 0 .66-.462 1.188-1.188 1.188m15.364-.792c-1.518 0-2.948-1.144-2.948-3.322 0-3.938 3.938-7.854 6.908-7.854 1.1 0 1.76.484 2.112 1.078l.33-.946h1.782l-2.552 7.92c-.462 1.452-.594 2.156.77 2.156 2.134 0 5.258-3.168 5.258-7.348 0-5.17-3.608-6.974-7.194-6.974-5.478 0-11 4.312-11 10.956 0 6.16 4.158 8.47 8.536 8.47 2.574 0 4.73-.792 6.006-1.76l.22.242c-1.078 1.034-3.63 2.442-6.82 2.442-4.994 0-9.57-2.926-9.57-8.822 0-7.282 6.248-12.276 12.628-12.298 4.532 0 8.382 2.31 8.382 7.15 0 5.148-3.674 8.91-6.908 8.91-1.672 0-2.486-.902-2.332-2.398-.88 1.32-2.112 2.398-3.608 2.398m-.946-3.916c0 1.54.594 2.398 1.76 2.398 1.408 0 2.376-1.166 3.278-2.706l1.452-4.312c-.088-1.32-1.056-1.826-1.914-1.826-2.112 0-4.576 2.97-4.576 6.446m15.908-2.2h2.31l.792-3.256h-2.2v-1.276h2.508l1.254-5.192h.792l-1.254 5.192h2.794l1.254-5.192h.792l-1.254 5.192h2.002v1.276h-2.31l-.792 3.256h2.2v1.276h-2.508l-1.342 5.5h-.792l1.342-5.5h-2.794l-1.342 5.5h-.792l1.342-5.5h-2.002zm3.102 0h2.794l.792-3.256h-2.794zm13.293-11.286h.638v1.342c2.42.176 4.026 1.606 4.026 2.816 0 .726-.374 1.034-.946 1.034s-.858-.374-1.078-1.188c-.264-.968-.704-1.628-2.002-1.782v6.116l1.21.792c1.826 1.188 3.388 2.574 3.388 4.752 0 2.552-1.958 4.246-4.686 4.378v2.156h-.638V64.94c-2.684-.132-4.532-1.782-4.532-3.256 0-.726.44-1.1 1.034-1.1s.902.44 1.056 1.254c.242 1.254.836 2.112 2.442 2.266V56.8l-1.122-.726c-1.914-1.254-3.102-2.486-3.102-4.18 0-2.288 1.936-3.806 4.312-3.894zm0 2.178c-1.408 0-2.596.836-2.596 2.42 0 1.386.99 2.288 2.596 3.322zm.638 8.426-.088-.066v6.908c1.606-.044 2.794-1.1 2.794-2.882 0-1.496-.858-2.75-2.706-3.96m9.929-1.144c-1.342 0-3.256-1.1-3.256-4.07 0-2.948 1.914-4.07 3.256-4.07 1.298 0 3.278 1.122 3.278 4.07 0 2.97-1.87 4.07-3.278 4.07m8.426-7.898h1.078l-11.044 16.5h-1.078zm-8.228 7.172c.638 0 1.54-.44 1.54-2.64 0-1.98-.572-4.048-1.936-4.048-.66 0-1.518.484-1.518 2.64 0 1.958.55 4.048 1.914 4.048m6.666 9.526c-1.342 0-3.256-1.1-3.256-4.07 0-2.948 1.914-4.07 3.256-4.07 1.298 0 3.278 1.122 3.278 4.07 0 2.97-1.87 4.07-3.278 4.07m.198-.726c.638 0 1.54-.44 1.54-2.64 0-1.98-.572-4.048-1.936-4.048-.66 0-1.518.484-1.518 2.64 0 1.958.55 4.048 1.914 4.048m12.018-9.79-2.882-4.994-2.904 4.994h-1.012l3.696-6.38h.44l3.696 6.38zm14.856 7.964c1.1 1.518 1.474 1.958 2.53 2.068v.286h-3.168l-1.452-2.002c-1.144 1.232-2.684 2.156-4.554 2.156-2.794 0-4.576-2.002-4.576-4.224 0-2.464 1.694-4.092 3.916-5.082-.924-1.1-1.518-2.288-1.518-3.608 0-2.332 1.848-3.894 3.982-3.894 1.826 0 3.476 1.056 3.476 3.344 0 1.694-1.32 3.102-3.542 4.114l3.498 4.884c.616-1.056 1.1-2.332 1.1-3.586 0-.704-.33-1.056-1.518-1.056v-.286h4.18v.286c-.814 0-1.276.44-1.65 1.606-.418 1.254-.814 2.508-1.584 3.762zm-7.216-11.066c0 1.188.55 2.354 1.826 3.674 1.54-.792 2.486-1.694 2.486-3.278 0-1.76-.946-2.772-2.09-2.772-1.276 0-2.222.814-2.222 2.376m-2.134 8.426c0 2.178 1.474 3.762 3.586 3.762 1.122 0 2.266-.572 3.168-1.496l-4.202-5.852c-1.54.792-2.552 1.826-2.552 3.586M225.6 53.06c-.308 0-.682-.308-.682-.66 0-.308.264-.682.902-1.1l.77-.528-.88.044c-.99.044-1.518-.22-1.518-.704 0-.396.242-.682.616-.682.286 0 .682.154 1.188.55l.704.55-.33-.88c-.44-1.166-.154-1.694.462-1.694s.88.528.44 1.694l-.352.902.748-.572c.506-.396.902-.55 1.188-.55.374 0 .616.286.616.682 0 .484-.528.748-1.518.704l-.88-.044.77.528c.638.418.902.792.902 1.1 0 .352-.374.66-.682.66-.352 0-.66-.352-.946-1.254l-.286-.924-.286.924c-.286.902-.594 1.254-.946 1.254m6.169 4.818c0-3.762 1.584-7.436 4.18-10.648l.44.22c-2.222 3.498-3.124 6.732-3.124 10.428s.902 6.93 3.124 10.428l-.44.22c-2.596-3.212-4.18-6.886-4.18-10.648m10.994 0c0 3.762-1.584 7.436-4.18 10.648l-.44-.22c2.222-3.498 3.124-6.732 3.124-10.428s-.902-6.93-3.124-10.428l.44-.22c2.596 3.212 4.18 6.886 4.18 10.648m7.341 10.164h-3.85V47.34h3.85v.308c-2.222 0-2.596.11-2.596 1.716v16.654c0 1.584.374 1.716 2.596 1.716zm1.928 0v-.308c2.222 0 2.596-.132 2.596-1.716V49.364c0-1.606-.374-1.716-2.596-1.716v-.308h3.85v20.702zm8.176-10.274c1.43.22 2.222 1.122 2.222 2.442 0 1.122-.88 3.608-.88 4.994 0 1.188.748 2.266 2.838 2.53l-.044.418c-2.64-.264-4.246-1.386-4.246-3.3 0-1.804 1.276-3.784 1.276-5.148 0-.88-.33-1.672-2.618-1.804v-.308c2.288-.132 2.618-.924 2.618-1.804 0-1.364-1.276-3.344-1.276-5.148 0-1.914 1.606-3.036 4.246-3.3l.044.418c-2.09.264-2.838 1.342-2.838 2.53 0 1.386.88 3.872.88 4.994 0 1.32-.792 2.222-2.222 2.442zm10.387 0v-.044c-1.43-.22-2.222-1.122-2.222-2.442 0-1.122.88-3.608.88-4.994 0-1.188-.748-2.266-2.838-2.53l.044-.418c2.64.264 4.246 1.386 4.246 3.3 0 1.804-1.276 3.784-1.276 5.148 0 .88.33 1.672 2.618 1.804v.308c-2.288.132-2.618.924-2.618 1.804 0 1.364 1.276 3.344 1.276 5.148 0 1.914-1.606 3.036-4.246 3.3l-.044-.418c2.09-.264 2.838-1.342 2.838-2.53 0-1.386-.88-3.872-.88-4.994 0-1.32.792-2.222 2.222-2.442m11.355 2.376v.946l-7.92-4.026v-.44l7.92-4.026v.946l-6.578 3.3zm10.729-3.08-7.92 4.026v-.946l6.578-3.3-6.578-3.3v-.946l7.92 4.026zm2.545-.374h5.368v1.32h-5.368zm11.934 4.708v-4.224h-3.74v-.88h3.74V52.07h.968v4.224h3.74v.88h-3.74v4.224z"/></svg>