<svg xmlns="http://www.w3.org/2000/svg" fill="none" viewBox="0 0 383 70"><path fill="#1f1f1f" d="M4.62 16.456v.286H0v-.286c.857 0 1.165-.528 1.693-1.958L7.15.066h.44l5.456 14.388c.528 1.386.814 2.002 1.65 2.002v.286H9.283v-.286c1.21 0 1.628-.418 1.012-2.002L9.02 11.066H4.025l-.99 2.706c-.748 2.024-.154 2.574 1.584 2.684m-.265-6.248H8.69l-2.178-5.83zm13.073-7.942c0-1.628-.374-1.738-1.386-1.738V.242h5.522c2.838 0 5.742 1.166 5.742 3.916 0 1.826-1.276 3.212-2.926 3.806 2.046.374 3.828 1.672 3.828 3.96 0 2.75-2.596 4.818-6.336 4.818h-5.83v-.286c1.012 0 1.386-.132 1.386-1.738zM21.19 1.1h-1.056v6.578h1.21c2.31 0 3.366-1.056 3.366-3.168 0-2.244-1.298-3.41-3.52-3.41m.66 7.436h-1.716v7.348h1.672c2.486 0 3.63-1.056 3.63-3.476 0-2.354-1.166-3.872-3.586-3.872m15.394 8.448c-3.85.022-6.908-3.3-6.908-7.986 0-5.544 3.652-8.998 7.7-8.998 1.914 0 3.168.836 3.74.836.374 0 .572-.264.594-.594h.33v5.104h-.352c-.44-3.234-2.42-4.51-4.774-4.51-2.464 0-4.466 2.068-4.466 6.402 0 3.938 1.716 7.898 5.412 7.898 2.068 0 3.498-1.408 4.246-4.004l.396.132c-.506 3.454-2.75 5.72-5.918 5.72M44.99.528V.242h5.654c5.016 0 8.536 3.058 8.536 8.14s-3.388 8.36-8.052 8.36H44.99v-.286c1.012 0 1.386-.132 1.386-1.738V2.266c0-1.628-.374-1.738-1.386-1.738m5.918 15.356c3.498 0 5.456-2.024 5.456-5.94 0-5.39-1.914-8.844-6.094-8.844h-1.188v14.784zM62.386 2.266C62.386.638 62.012.528 61 .528V.242h11.11v4.07h-.352c-.066-2.552-.99-3.212-3.41-3.212h-3.256v6.534h2.376c1.496 0 2.068-.506 2.134-2.266h.33v5.412h-.33c-.066-1.65-.638-2.288-2.134-2.288h-2.376v7.392h3.234c2.794 0 3.608-.726 3.784-3.872h.352v4.73H61v-.286c1.012 0 1.386-.132 1.386-1.738zm13.518 0c0-1.628-.374-1.738-1.386-1.738V.242H85.65v4.136h-.352C85.21 1.76 84.308 1.1 81.866 1.1H78.61v6.754h2.706c1.474 0 2.068-.528 2.134-2.266h.33v5.39h-.33c-.066-1.65-.66-2.266-2.134-2.266H78.61v6.006c0 1.606.462 1.738 1.584 1.738v.286h-5.676v-.286c1.012 0 1.386-.132 1.386-1.738zM95.99 16.192c1.342-.022 1.914-.55 1.914-1.782v-3.366c0-1.628-.462-1.738-1.496-1.738V9.02h5.456v.286c-.88 0-1.254.11-1.254 1.738v4.422c-.836.77-2.464 1.518-4.972 1.518-4.972.022-7.986-3.586-7.986-8.404 0-5.346 3.696-8.58 7.81-8.58 1.87 0 3.19.836 3.762.836.374 0 .572-.264.594-.594h.33v4.884h-.352C99.378 2.178 97.376.836 95 .836c-2.53 0-4.532 2.09-4.532 6.094 0 5.104 1.738 9.284 5.522 9.262m8.604-13.926c0-1.628-.374-1.738-1.386-1.738V.242h5.566v.286c-1.012 0-1.474.11-1.474 1.738v5.39h6.644v-5.39c0-1.628-.462-1.738-1.474-1.738V.242h5.566v.286c-1.012 0-1.386.11-1.386 1.738v12.452c0 1.606.374 1.738 1.386 1.738v.286h-5.566v-.286c1.012 0 1.474-.132 1.474-1.738V8.514H107.3v6.204c0 1.606.462 1.738 1.474 1.738v.286h-5.566v-.286c1.012 0 1.386-.132 1.386-1.738zm16.655 0c0-1.628-.396-1.738-1.408-1.738V.242h5.5v.286c-1.034 0-1.408.11-1.408 1.738v12.452c0 1.606.374 1.738 1.408 1.738v.286h-5.5v-.286c1.012 0 1.408-.132 1.408-1.738zm14.482 9.482c.022 3.366-2.024 5.236-4.884 5.236-2.398 0-4.092-1.452-4.092-3.278 0-1.122.66-1.628 1.474-1.628.836 0 1.276.528 1.386 1.672.176 1.584.418 2.398 1.54 2.398 1.298 0 1.87-1.144 1.87-3.806V2.266c0-1.606-.44-1.738-1.54-1.738V.242h5.5v.286c-.88 0-1.254.132-1.254 1.738zm4.347-9.482c0-1.628-.374-1.738-1.386-1.738V.242h5.566v.286c-1.012 0-1.474.11-1.474 1.738v12.452c0 1.606.462 1.738 1.474 1.738v.286h-5.566v-.286c1.012 0 1.386-.132 1.386-1.738zm3.014 5.654 5.104-5.456c1.386-1.474.66-1.936-.33-1.936V.242h4.224v.286c-.484 0-1.1.198-2.398 1.606l-4.334 4.642 5.39 8.096c.836 1.276 1.232 1.584 1.76 1.584v.286h-5.302v-.286c1.21 0 1.276-.506.748-1.298l-4.862-7.194zm12.266 6.798V2.266c0-1.606-.374-1.738-1.386-1.738V.242h5.676v.286c-1.122 0-1.584.132-1.584 1.738v13.618h2.948c2.574 0 3.432-.638 3.542-3.652h.352v4.51h-10.934v-.286c1.012 0 1.386-.11 1.386-1.738m12.809-12.452c0-1.452-.374-1.694-1.386-1.738V.242h4.554l4.158 11.506 4.07-11.506h4.422v.286c-1.012 0-1.386.11-1.386 1.738v12.452c0 1.606.374 1.738 1.386 1.738v.286h-5.566v-.286c1.012 0 1.474-.132 1.474-1.738V2.112l-5.126 14.52h-.33l-5.28-14.564v12.078c0 1.87.77 2.31 1.848 2.31v.286h-4.224v-.286c1.012 0 1.386-.286 1.386-2.178zm29.665 14.586-9.658-14.916v12.056c0 1.87.836 2.464 2.156 2.464v.286h-4.532v-.286c1.012 0 1.386-.44 1.386-2.332V2.266c0-1.452-.374-1.694-1.386-1.738V.242h4.422l7.084 10.956V2.992c0-1.87-.682-2.464-1.958-2.464V.242h4.4v.286c-1.078 0-1.452.462-1.452 2.332v13.992zm11.07.132c-4.136 0-7.348-3.498-7.348-8.47 0-5.17 3.3-8.514 7.348-8.514 3.982 0 7.326 3.52 7.326 8.514 0 5.148-3.212 8.47-7.326 8.47m.528-.836c2.222 0 3.982-2.024 3.982-5.698 0-4.576-1.584-9.614-5.038-9.614-2.31 0-4.004 2.024-4.004 5.764 0 4.62 1.54 9.548 5.06 9.548m10.055-13.882c0-1.628-.374-1.738-1.43-1.738V.242h5.786c3.41 0 6.248 1.386 6.248 4.422 0 2.706-2.222 5.082-6.27 5.082h-1.65v4.972c0 1.606.484 1.738 1.584 1.738v.286h-5.698v-.286c1.056 0 1.43-.132 1.43-1.738zm3.96-1.166h-1.276v7.788h1.694c2.53 0 3.476-1.386 3.476-3.718 0-2.486-1.408-4.07-3.894-4.07m23.301 18.568c-3.718 0-5.742-.902-7.304-2.684h-.088c-4.136 0-7.348-3.498-7.348-8.47 0-5.17 3.3-8.514 7.348-8.514 3.982 0 7.326 3.52 7.326 8.514 0 3.916-1.87 6.776-4.576 7.92 1.496 1.76 3.124 2.772 5.016 2.948v.286zm-6.864-3.52c2.222 0 3.982-2.024 3.982-5.698 0-4.576-1.584-9.614-5.038-9.614-2.31 0-4.004 2.024-4.004 5.764 0 4.62 1.54 9.548 5.06 9.548m20.612-1.738c.968 1.628 1.386 1.936 2.31 2.046v.286h-3.894l-4.598-7.832h-1.584v5.808c0 1.606.462 1.738 1.518 1.738v.286h-5.632v-.286c1.056 0 1.43-.132 1.43-1.738V2.266c0-1.628-.374-1.738-1.43-1.738V.242h6.094c3.278 0 5.984.946 5.984 4.136 0 1.892-1.276 3.476-3.608 4.158zm-6.16-13.31h-1.606v6.952h1.606c2.596 0 3.586-1.034 3.586-3.234 0-2.442-1.32-3.718-3.586-3.718m17.283 12.166c0-1.364-.704-2.266-2.266-3.278l-2.31-1.496c-1.716-1.122-2.75-2.508-2.75-4.268 0-2.552 2.178-4.224 4.62-4.224 2.244 0 2.882.814 3.476.814.242 0 .418-.176.462-.572h.308v4.202h-.33c-.33-2.442-1.936-3.586-3.916-3.586-1.188 0-2.31.836-2.31 2.354 0 1.364.946 2.244 2.002 2.926l2.266 1.474c1.958 1.276 3.278 2.53 3.278 4.708 0 2.64-2.09 4.664-5.302 4.664-2.288 0-3.278-.902-3.96-.902-.264 0-.484.198-.528.66h-.33v-5.06h.352c.308 2.816 1.892 4.422 4.466 4.422 1.76 0 2.772-1.1 2.772-2.838m8.961 1.452V1.1h-1.32c-2.09 0-3.146.506-3.212 3.52h-.352V.242h12.474V4.62h-.352c-.066-3.014-1.122-3.52-3.212-3.52h-1.32v13.618c0 1.606.484 1.738 1.496 1.738v.286h-5.676v-.286c1.122 0 1.474-.132 1.474-1.738m10.529-3.784V2.266c0-1.606-.374-1.738-1.232-1.738V.242h5.412v.286c-1.012 0-1.474.132-1.474 1.738v8.096c0 3.41 1.078 5.148 4.378 5.148 2.288 0 3.696-1.452 3.696-4.136V2.838c0-1.87-.748-2.31-1.848-2.31V.242h4.114v.286c-.902 0-1.276.286-1.276 2.178v8.646c0 3.19-1.782 5.654-5.5 5.654-4.246 0-6.27-2.486-6.27-6.072M315.547.528V.242h4.466v.286c-.858 0-1.166.528-1.694 1.958l-5.434 14.432h-.44L307.033 2.53c-.528-1.386-.814-2.002-1.65-2.002V.242h5.412v.286c-1.21 0-1.628.418-1.012 2.002l3.74 10.076 3.454-9.394c.682-1.892.22-2.596-1.43-2.684m21.216 0V.242h4.246v.286c-.792 0-1.144.528-1.628 1.958l-4.73 14.432h-.44l-3.256-9.878-3.454 9.878h-.44L322.353 2.53c-.44-1.386-.77-2.002-1.518-2.002V.242h5.148v.286c-1.1 0-1.364.374-.858 2.002l3.036 9.372 2.266-6.468-.968-2.904c-.462-1.386-.77-2.002-1.496-2.002V.242h5.192v.286c-1.144 0-1.474.374-.946 2.002l3.036 9.372 2.794-8.69c.594-1.892.22-2.596-1.276-2.684m14.443 14.344-3.036-5.5-2.596 4.378c-1.166 1.98-.66 2.706.946 2.706v.286h-4.686v-.286c.748 0 1.32-.506 2.222-2.002l3.608-5.984-3.542-6.424C343.44.814 343.154.528 342.45.528V.242h5.302v.286c-1.1 0-1.342.352-.792 1.32l2.706 4.906 2.178-3.608c1.166-1.892.748-2.618-.638-2.618V.242h4.224v.286c-.704 0-1.122.506-1.848 1.65l-3.432 5.456 3.894 7.04c.726 1.342 1.1 1.782 1.804 1.782v.286h-5.346v-.286c1.122 0 1.386-.352.704-1.584M365.933.528V.242h4.312v.286c-.748 0-1.122.616-1.826 1.958l-3.41 6.49v5.742c0 1.606.462 1.738 1.496 1.738v.286h-5.676v-.286c1.122 0 1.474-.132 1.474-1.738V9.174l-3.586-6.798c-.594-1.122-.968-1.848-1.716-1.848V.242h5.346v.286c-1.166 0-1.518.506-.814 1.848l2.948 5.676 2.508-4.796c.88-1.716.528-2.662-1.056-2.728m16.654-.286v.286l-8.184 15.356h3.696c2.882 0 3.74-.792 3.916-3.96h.352v4.818h-11.154v-.286L379.397 1.1h-3.564c-2.53 0-3.432.66-3.52 3.3h-.352V.242zM3.761 41.006c-1.892 0-3.278-1.276-3.278-3.212 0-2.09 1.408-2.97 3.08-3.52.88-.308 1.804-.506 2.508-.858.66-.308 1.21-.924 1.21-2.222 0-1.342-.682-2.156-1.958-2.156-1.496 0-1.782.99-1.936 2.178-.154.946-.572 1.474-1.386 1.474-.77 0-1.276-.506-1.276-1.254 0-1.584 1.87-3.19 4.906-3.19 2.486 0 4.136 1.056 4.136 3.564v6.842c0 .528.176.88.594.88.286 0 .55-.154.814-.55l.154.132c-.352.902-1.1 1.848-2.332 1.848-1.32 0-1.826-.814-1.826-1.98v-.044c-.77 1.056-1.87 2.068-3.41 2.068m-.616-3.652c0 1.232.638 2.046 1.782 2.046.858 0 1.562-.55 2.244-1.474v-4.532c-.11.242-.418.55-.814.814-.528.33-1.254.55-1.87.902-.836.484-1.342 1.188-1.342 2.244m15.14 3.542c-1.716 0-2.794-.55-3.543-1.276l-1.496 1.1h-.088V26.684c0-1.342 0-1.672-.99-1.606v-.264l3.587-1.672v7.348c.835-1.166 2.2-2.244 3.827-2.244 2.465 0 4.334 2.068 4.334 5.918 0 4.268-2.706 6.732-5.631 6.732m-2.53-3.894c0 1.848 1.32 3.058 2.838 3.058 1.65 0 2.727-1.43 2.727-4.268 0-3.102-.835-5.808-3.014-5.808-1.276 0-1.936.77-2.552 1.606zm15.828-7.832c-1.562 0-3.036 1.562-3.036 4.378 0 3.41 1.628 5.302 3.894 5.302 1.452 0 2.64-.946 3.3-2.926l.308.088c-.462 2.882-2.222 4.884-4.884 4.884-3.256 0-5.17-2.552-5.17-5.918 0-4.334 3.102-6.644 5.852-6.644 2.574 0 4.004 1.452 4.004 3.124 0 .77-.528 1.342-1.298 1.342-.88 0-1.254-.616-1.386-1.364-.22-1.32-.264-2.266-1.584-2.266m10.74 11.726c-2.442 0-4.334-2.002-4.334-5.808 0-4.334 2.838-6.842 5.764-6.842 1.034 0 1.782.242 2.376.572v-2.134c0-1.342 0-1.672-.99-1.606v-.264l3.608-1.672v14.806c0 1.298.022 1.672.99 1.606v.264l-3.608 1.166v-2.288c-.836 1.144-2.178 2.2-3.806 2.2m-1.76-7.458c0 3.058.902 5.72 3.036 5.72 1.254 0 1.914-.748 2.53-1.584v-5.368c0-1.87-1.122-3.124-2.684-3.124-1.628 0-2.882 1.474-2.882 4.356m16.091 7.458c-3.256 0-5.17-2.64-5.17-5.83 0-4.422 3.08-6.732 5.544-6.732 2.75-.022 4.51 1.936 4.598 4.906h-7.612v.352c0 3.454 1.65 5.346 3.872 5.346 1.474 0 2.794-.99 3.432-3.036l.308.088c-.484 3.036-2.266 4.906-4.972 4.906m-.022-11.748c-1.166 0-2.266 1.166-2.552 3.322h4.84c-.154-2.134-.858-3.322-2.288-3.322m6.646.308v-.946h1.298c-.55-3.652 1.078-5.214 2.97-5.214 1.298 0 2.266.682 2.266 1.716 0 .594-.374 1.012-.99 1.012-.638 0-.946-.418-1.21-1.012-.264-.572-.484-.858-.836-.858s-.594.352-.594.924c0 1.056.792 1.826.924 3.432h2.31v.946h-2.288v9.636c0 1.166.396 1.386 1.21 1.386v.264h-4.774v-.264c.594 0 .968-.22.968-1.386v-9.636zm12.086 15.422c-3.102 0-4.972-1.056-4.972-2.486 0-1.078 1.232-2.002 2.178-2.398-.858-.352-1.32-1.012-1.32-1.848 0-1.056 1.144-2.002 2.09-2.464-1.364-.638-2.288-1.848-2.288-3.41 0-2.288 2.002-3.938 4.422-3.938.55 0 1.012.066 1.452.176h3.916v.748h-2.486c1.056.572 1.738 1.65 1.738 3.014 0 2.31-2.002 3.872-4.51 3.872a5.4 5.4 0 0 1-1.474-.198c-.616.352-.99.726-.99 1.188 0 .44.33.726 1.122.726H77.3c2.882 0 3.784 1.122 3.784 2.816 0 2.112-1.98 4.202-5.72 4.202m.484-9.482c1.166 0 1.804-1.012 1.804-2.398 0-1.716-.572-3.916-2.31-3.916-.968 0-1.826.77-1.826 2.42 0 1.936.858 3.894 2.332 3.894m-3.366 6.38c0 1.32 1.232 2.112 3.674 2.112 2.53 0 3.674-1.276 3.674-2.376 0-.748-.44-1.254-2.112-1.254h-3.586q-.429 0-.792-.066c-.396.33-.858.814-.858 1.584m14.787-1.034h-4.62v-.264c.506 0 .88-.22.88-1.386V26.684c0-1.342 0-1.672-.99-1.606v-.264l3.608-1.672v7.48c.792-1.144 2.024-2.376 3.828-2.376 2.156 0 3.212 1.474 3.212 3.63v7.216c0 1.166.374 1.386.946 1.386v.264h-4.642v-.264c.704 0 1.078-.22 1.078-1.386v-6.93c0-1.364-.594-2.134-1.87-2.134-1.32 0-2.024.924-2.552 1.672v7.392c0 1.166.33 1.386 1.122 1.386zM98.153 27.3c-.924 0-1.584-.682-1.584-1.584 0-.88.66-1.562 1.584-1.562.968 0 1.606.682 1.606 1.562 0 .902-.638 1.584-1.606 1.584m2.288 13.442h-4.466v-.264c.528 0 .902-.22.902-1.386v-6.996c0-1.54 0-1.914-.968-1.826v-.264l3.586-1.804v10.89c0 1.166.352 1.386.946 1.386zm4.162-13.442c-.946 0-1.606-.682-1.606-1.584 0-.88.66-1.562 1.606-1.562s1.584.682 1.584 1.562c0 .902-.638 1.584-1.584 1.584m1.32.902v11.726c0 3.85-.99 5.302-2.948 5.302-1.43 0-2.42-.748-2.42-1.738 0-.616.396-1.034 1.034-1.034.572 0 .924.352 1.232 1.078.22.528.418.836.858.836.308 0 .55-.308.55-.814 0-1.056-.902-1.936-.902-4.62v-6.842c0-1.54-.022-1.914-.99-1.826v-.264zm7.355 12.54h-4.62v-.264c.528 0 .902-.22.902-1.386V26.684c0-1.342 0-1.672-.99-1.606v-.264l3.586-1.672v15.95c0 1.166.33 1.386 1.122 1.386zm2.332 0V40.5c.792 0 .924-.308.374-1.056l-3.63-4.928v-.044l3.63-3.74c1.188-1.232.726-1.936-.352-1.936v-.286h4.114v.286c-.638 0-1.056.396-2.222 1.562l-2.992 3.014 3.916 5.434c.946 1.276 1.43 1.694 1.892 1.694v.242zm10.238 0h-4.466v-.264c.55 0 .924-.22.924-1.386V26.684c0-1.342 0-1.672-1.034-1.606v-.264l3.652-1.672v15.95c0 1.166.33 1.386.924 1.386zm6.559 0h-4.576v-.264c.506 0 .88-.22.88-1.386v-6.996c0-1.54 0-1.914-.968-1.826v-.264l3.586-1.804v2.376c.77-1.166 1.892-2.332 3.586-2.332 1.65 0 2.618.968 2.904 2.508.77-1.21 1.914-2.508 3.718-2.508 2.046 0 3.014 1.43 3.014 3.63v7.216c0 1.166.396 1.386.946 1.386v.264h-4.62v-.264c.704 0 1.078-.22 1.078-1.386v-6.93c0-1.408-.55-2.134-1.672-2.134s-1.826.88-2.332 1.65v7.414c0 1.166.33 1.386 1.078 1.386v.264h-4.774v-.264c.704 0 1.078-.22 1.078-1.386v-6.93c0-1.408-.528-2.134-1.65-2.134s-1.848.88-2.354 1.65v7.414c0 1.166.33 1.386 1.078 1.386zm19.557 0h-4.62v-.264c.506 0 .88-.22.88-1.386v-6.996c0-1.54 0-1.914-.968-1.826v-.264l3.586-1.804v2.442c.792-1.144 2.002-2.398 3.828-2.398 2.178 0 3.212 1.474 3.212 3.63v7.216c0 1.166.374 1.386.946 1.386v.264h-4.642v-.264c.704 0 1.078-.22 1.078-1.386v-6.93c0-1.364-.594-2.134-1.848-2.134-1.342 0-2.046.924-2.574 1.672v7.392c0 1.166.33 1.386 1.122 1.386zm14.314.154c-3.168 0-5.632-2.596-5.632-6.292 0-3.674 2.398-6.27 5.632-6.27 3.19 0 5.654 2.618 5.654 6.314 0 3.674-2.376 6.248-5.654 6.248m.484-.77c1.32 0 2.486-1.364 2.486-3.828 0-3.454-1.1-7.172-3.41-7.172-1.342 0-2.53 1.276-2.53 3.718 0 3.454 1.166 7.282 3.454 7.282m13.086.77c-1.056 0-1.87-.242-2.508-.616v3.102c0 1.166.352 1.386 1.276 1.386v.264h-4.774v-.264c.506 0 .88-.22.88-1.386V32.096c0-1.54 0-1.914-.968-1.826v-.264l3.586-1.804v2.266c.836-1.144 2.178-2.222 3.828-2.222 2.442 0 4.312 2.068 4.312 5.918 0 4.268-2.706 6.732-5.632 6.732m-2.508-3.894c0 1.848 1.298 3.058 2.838 3.058 1.628 0 2.728-1.43 2.728-4.268 0-3.102-.858-5.808-3.014-5.808-1.254 0-1.914.748-2.552 1.584zm14.527 3.894c-2.442 0-4.356-2.002-4.356-5.808 0-4.334 2.838-6.842 5.764-6.842 1.716 0 2.75.594 3.476 1.386l1.43-1.188h.088v14.938c0 1.166.374 1.386.902 1.386v.264h-4.774v-.264c.924 0 1.276-.22 1.276-1.386v-4.708c-.836 1.144-2.178 2.222-3.806 2.222m-1.76-7.458c0 3.058.902 5.72 3.036 5.72 1.254 0 1.914-.77 2.53-1.606v-5.346c0-1.87-1.122-3.124-2.684-3.124-1.628 0-2.882 1.474-2.882 4.356m15.675 7.304h-4.796v-.264c.506 0 .88-.22.88-1.386v-6.996c0-1.54 0-1.914-.968-1.826v-.264l3.586-1.804v2.728c.726-1.386 1.848-2.662 3.08-2.662 1.056 0 1.562.66 1.562 1.562 0 .748-.44 1.386-1.254 1.386-1.056 0-1.188-.748-1.892-.748-.484 0-.968.616-1.496 1.54v7.084c0 1.166.352 1.386 1.298 1.386zm10.638-2.42c0-1.034-.484-1.518-1.672-2.244l-1.672-1.1c-1.474-.924-2.178-2.024-2.178-3.344 0-2.222 1.694-3.322 3.564-3.322 1.584 0 2.354.682 2.772.682.286 0 .396-.176.418-.484h.33v3.696h-.308c-.352-2.068-1.76-3.124-3.212-3.124-1.056 0-1.65.572-1.65 1.518 0 .88.616 1.386 1.672 2.046l1.694 1.122c1.562.99 2.508 1.936 2.508 3.674 0 1.98-1.606 3.454-3.96 3.454-1.892 0-2.64-.748-3.102-.748-.33 0-.484.33-.506.594h-.33v-4.224h.33c.264 2.42 1.958 3.586 3.52 3.586 1.232 0 1.782-.814 1.782-1.782m10.835-.99c-.154 1.87-.902 3.652-3.036 3.652-1.672 0-2.816-.946-2.816-3.014v-8.514h-1.056v-.286c1.43-.44 2.618-2.112 3.19-4.268h.462v3.608h2.926v.946h-2.926v8.338c0 1.166.462 1.694 1.298 1.694s1.386-.66 1.694-2.2zm5.106-.242c0 1.408.616 2.134 1.76 2.134s1.914-.748 2.442-1.43v-5.698c0-1.452 0-1.98-.99-1.87v-.264l3.608-1.76v9.746c0 1.254 0 1.672.946 1.606v.264l-3.564 1.166v-2.112c-.792 1.078-2.024 2.134-3.652 2.134-2.156 0-3.168-1.43-3.168-3.63v-5.28c0-1.452 0-1.98-.99-1.87v-.264l3.608-1.76zm16.499-8.294v-.286h3.74v.286c-.616 0-1.034.858-1.628 2.354l-3.85 9.768h-.242l-4.158-10.494c-.462-1.21-.66-1.628-1.276-1.628v-.286h4.862v.286c-.946 0-1.386.418-.924 1.606l2.464 6.358 2.002-5.148c.748-1.958.264-2.816-.99-2.816m17.798 0v-.286h3.74v.286c-.616 0-1.056.836-1.628 2.354l-3.674 9.768h-.242l-2.772-7.458-3.036 7.458h-.242l-3.96-10.494c-.44-1.21-.66-1.628-1.276-1.628v-.286h4.752v.286c-.858 0-1.254.418-.814 1.606l2.31 6.27 1.826-4.378-.704-1.87c-.462-1.21-.704-1.628-1.298-1.628v-.286h4.73v.286c-.858 0-1.254.418-.814 1.606l2.266 6.204 1.804-4.994c.748-1.958.286-2.816-.968-2.816M282.955 40.5v.242h-4.862V40.5c.946 0 1.21-.198.704-1.056l-2.332-3.938-1.892 2.948c-.88 1.342-.264 2.002.858 2.002v.286h-4.026v-.286c.638 0 1.166-.484 1.87-1.562l2.728-4.158-2.53-4.29c-.836-1.386-1.254-1.694-1.694-1.694v-.242h4.752v.242c-.836 0-1.122.198-.616 1.056l1.98 3.344 1.474-2.244c.946-1.452.396-2.112-.572-2.112v-.286h3.696v.286c-.638 0-1.012.396-1.914 1.76l-2.222 3.366 2.904 4.884c.792 1.364 1.232 1.694 1.694 1.694m3.09 4.752c-1.034 0-2.002-.572-2.002-1.54 0-.748.55-1.122 1.144-1.122.814 0 1.166.792 1.914.792.484 0 1.078-.286 1.892-2.53l.088-.22-3.828-10.208c-.44-1.21-.66-1.628-1.276-1.628v-.286h4.862v.286c-.946 0-1.342.418-.924 1.606l2.42 6.82 2.046-5.61c.704-1.958.264-2.816-.99-2.816v-.286h3.74v.286c-.616 0-1.056.836-1.628 2.354l-3.498 9.438c-1.32 3.564-2.244 4.664-3.96 4.664m19.518-16.742v.286l-6.358 11.022h2.464c2.354 0 3.102-.396 3.212-3.124h.352v4.048h-9.13v-.286l6.358-11.022h-2.618c-1.936 0-2.574.418-2.64 2.728h-.352V28.51zM2.111 50.486c-.418.154-1.254.33-1.694.374v-.286C2.177 49.892 3.541 48.902 4.4 48h.418v14.718c0 1.606.396 1.738 1.54 1.738v.286H.55v-.286c1.232 0 1.562-.132 1.562-1.738zm6.177 14.256v-.704c1.562-1.606 2.486-2.508 3.762-3.938 2.221-2.398 3.41-4.62 3.41-6.908 0-2.112-1.1-3.454-3.059-3.454-1.737 0-2.86 1.342-3.431 3.146l-.418-.11C9.102 50.2 10.752 48 13.766 48c2.794 0 4.443 1.782 4.443 4.18 0 2.97-2.2 5.192-5.301 8.272-.572.616-1.21 1.232-2.024 2.002h4.047c2.53 0 2.883-.352 3.19-1.936h.353l-.616 4.224zm15.59-7.898-.22-.33c2.09-1.452 3.587-2.684 3.587-4.444 0-1.474-.88-2.442-2.442-2.442s-2.42.946-2.992 2.266l-.418-.11C22.119 49.562 23.483 48 25.99 48c2.42 0 3.696 1.518 3.696 3.168 0 1.628-1.452 2.75-2.904 3.63 2.376.286 4.268 1.936 4.268 4.444 0 3.058-2.464 5.654-5.962 5.654-2.838 0-4.532-1.562-4.532-3.212 0-.946.594-1.386 1.298-1.386.748 0 1.078.506 1.21 1.452.22 1.54.682 2.376 2.442 2.376 1.738 0 2.904-1.342 2.904-3.894 0-2.266-1.254-3.806-3.146-3.806-.66 0-1.056.22-1.386.418m19.7 7.612v.286h-5.786v-.286c1.166 0 1.54-.132 1.54-1.738v-2.2h-6.336v-.638L41.4 48.044h.616v11.11h2.244v1.364h-2.244v2.2c0 1.606.352 1.738 1.562 1.738m-8.998-5.302h4.752v-6.776zm15.974 5.742c-2.684 0-4.422-1.562-4.422-3.102 0-.968.594-1.386 1.298-1.386.748 0 1.078.484 1.21 1.43.22 1.496.726 2.288 2.288 2.288 2.024 0 3.102-1.694 3.102-4.004-.022-2.618-1.496-4.114-3.674-4.114-1.188 0-2.046.352-2.728 1.122h-.352l.968-8.888h7.854l-.33 2.288h-6.864l-.484 4.246c.638-.484 1.584-.836 2.948-.836 2.794 0 5.258 1.782 5.258 4.994 0 3.3-2.288 5.962-6.072 5.962m19.683-5.874c0 3.696-2.596 5.962-5.632 5.962-3.08 0-5.83-2.442-5.83-6.688 0-6.754 5.61-9.746 9.592-10.296l.044.418c-2.64.946-6.358 2.794-6.776 8.206.858-1.144 2.244-2.332 4.18-2.332 2.794 0 4.422 2.068 4.422 4.73m-5.5-3.19c-1.562 0-2.508 1.1-3.146 1.98.044 4.202 1.496 6.336 3.3 6.336 1.518 0 2.574-1.562 2.574-4.246 0-2.618-.99-4.07-2.728-4.07m16.614-7.59v.616l-6.27 15.884h-1.408l6.182-14.344h-5.038c-2.53 0-2.794.44-3.19 1.804h-.352l.572-3.96zm11.55 3.278c0 1.914-1.673 3.278-3.147 4.048 2.222 1.32 3.784 2.442 3.784 4.862 0 2.574-2.486 4.554-5.654 4.554-2.376 0-5.148-1.452-5.148-4.026 0-2.266 2.024-3.652 3.608-4.444-1.98-1.166-3.036-2.486-3.036-4.268 0-2.508 2.464-4.246 5.06-4.246 2.332 0 4.532 1.166 4.532 3.52m-7.503-.352c0 1.54 1.122 2.464 3.674 4.004 1.056-.77 1.914-1.848 1.914-3.322 0-1.914-1.078-2.992-2.926-2.992-1.628 0-2.662 1.034-2.662 2.31m-.418 9.438c0 2.112 1.298 3.52 3.3 3.52 1.914 0 3.014-1.188 3.014-2.684s-1.232-2.816-4.246-4.532c-1.1.836-2.068 1.914-2.068 3.696m10.394-6.644c0-3.608 2.596-5.962 5.61-5.962 3.102 0 5.852 2.42 5.852 6.688 0 6.798-5.698 9.746-10.186 10.296l-.044-.418c3.146-.946 6.952-2.838 7.37-8.228-.836 1.166-2.2 2.354-4.136 2.354-2.816 0-4.466-2.068-4.466-4.73m2.75-.88c0 2.618.99 4.07 2.75 4.07 1.54 0 2.53-1.122 3.146-2.024-.044-4.158-1.518-6.292-3.3-6.292-1.518 0-2.596 1.562-2.596 4.246m17.19 11.902c-2.904 0-6.292-2.706-6.292-8.47 0-5.874 3.278-8.514 6.292-8.514 2.794 0 6.314 2.75 6.314 8.514 0 5.874-3.212 8.47-6.314 8.47m.506-.836c1.408 0 3.08-1.1 3.08-5.456 0-4.598-1.232-9.834-4.136-9.834-1.408 0-3.036 1.122-3.036 5.478 0 4.554 1.254 9.812 4.092 9.812m8.186-13.86c-.264-1.694.616-2.376 1.452-2.376s1.716.682 1.43 2.376l-1.254 9.196h-.352zm1.452 14.608c-.858 0-1.518-.66-1.518-1.496 0-.858.66-1.496 1.518-1.496.924 0 1.518.638 1.518 1.496 0 .836-.594 1.496-1.518 1.496m7.418-16.17c-.902 0-1.166.528-1.32 1.914-.132 1.056-.418 1.65-1.32 1.65s-1.276-.55-1.276-1.386c0-1.782 1.892-2.992 4.136-2.97 3.146.022 4.62 1.606 4.62 3.454 0 1.958-.924 2.926-2.882 4.466-1.276.99-2.442 2.046-2.75 3.63h-.352c-.132-2.068.814-3.542 1.804-4.84.748-.946 1.474-1.848 1.474-3.322 0-1.672-.902-2.596-2.134-2.596m-.638 16.17c-.858 0-1.518-.66-1.518-1.496 0-.858.66-1.496 1.518-1.496.924 0 1.518.638 1.518 1.496 0 .836-.594 1.496-1.518 1.496m15.395-.814c-1.562 0-2.926-1.144-2.926-3.322 0-4.158 3.982-7.854 7.04-7.854 1.012 0 1.65.396 2.024.924l.264-.792h2.486l-2.486 7.722c-.462 1.43-.506 2.068.682 2.068 2.112 0 4.862-2.882 4.862-6.952 0-5.192-3.52-7.084-7.238-7.084-5.478 0-10.846 4.356-10.846 10.89 0 6.16 3.894 8.492 8.47 8.492 2.552 0 4.73-.748 6.006-1.716l.22.264c-1.1 1.078-3.63 2.42-6.82 2.42-5.192 0-9.724-2.926-9.724-8.822 0-7.282 6.314-12.276 12.694-12.298 4.664 0 8.58 2.31 8.58 7.194 0 5.126-3.784 8.866-7.304 8.866-1.606 0-2.464-.836-2.376-2.288-.88 1.276-2.112 2.288-3.608 2.288m-.198-3.718c0 1.188.484 1.936 1.452 1.936 1.166 0 1.98-.946 2.794-2.31l1.54-4.532c-.11-1.21-.858-1.738-1.65-1.738-1.892 0-4.136 3.146-4.136 6.644m15.529-2.486h2.31l.748-3.08h-2.156v-1.76h2.574l1.166-4.796h.836l-1.166 4.796h2.794l1.166-4.796h.836l-1.166 4.796h1.892v1.76h-2.31l-.748 3.08h2.156v1.76H169.3l-1.232 5.104h-.836l1.232-5.104h-2.794l-1.232 5.104h-.836l1.232-5.104h-1.87zm3.146 0h2.794l.748-3.08h-2.794zm13.535-11.198h.638v1.342c2.552.154 4.18 1.496 4.18 2.816 0 .924-.484 1.298-1.188 1.298s-1.056-.462-1.232-1.342c-.22-1.144-.572-1.782-1.76-1.936v5.764l1.452.924c1.98 1.232 3.278 2.596 3.278 4.774 0 2.552-2.024 4.488-5.016 4.62v2.156h-.638V64.94c-2.816-.132-4.664-1.672-4.664-3.256 0-.946.594-1.386 1.298-1.386.748 0 1.078.506 1.21 1.452.198 1.386.748 2.222 2.156 2.354v-6.82l-1.342-.836c-1.958-1.232-3.036-2.486-3.036-4.268 0-2.464 2.2-4.092 4.664-4.18zm-2.332 4.488c0 1.364.99 2.222 2.332 3.058v-5.39c-1.276.044-2.332.858-2.332 2.332m2.728 6.556-.044-.022v6.424c1.518-.088 2.464-1.188 2.464-2.86 0-1.364-.66-2.442-2.42-3.542m10.404-1.584c-1.43 0-3.476-1.1-3.476-4.07 0-2.948 2.046-4.07 3.476-4.07 1.364 0 3.476 1.122 3.476 4.07 0 2.97-1.98 4.07-3.476 4.07m8.448-7.898h1.078l-11.044 16.5h-1.078zm-8.25 7.172c.55 0 1.298-.418 1.298-2.486 0-2.09-.484-4.202-1.716-4.202-.572 0-1.276.462-1.276 2.486 0 2.002.462 4.202 1.694 4.202m6.688 9.526c-1.408 0-3.454-1.1-3.454-4.07 0-2.948 2.046-4.07 3.454-4.07 1.386 0 3.498 1.122 3.498 4.07 0 2.97-2.002 4.07-3.498 4.07m.22-.726c.55 0 1.298-.418 1.298-2.486 0-2.09-.506-4.202-1.716-4.202-.572 0-1.276.462-1.276 2.486 0 2.002.462 4.202 1.694 4.202m12.143-9.79-2.882-4.994-2.904 4.994h-1.012l3.696-6.38h.44l3.696 6.38zm15.164 7.964c1.078 1.54 1.474 1.958 2.398 2.068v.286h-3.828l-1.1-1.584c-1.122 1.012-2.574 1.738-4.29 1.738-3.058 0-4.95-1.936-4.95-4.356 0-2.398 1.76-4.026 3.938-4.928-.924-1.078-1.474-2.266-1.474-3.586 0-2.42 2.002-3.938 4.268-3.938 2.134 0 3.828 1.144 3.828 3.3 0 1.738-1.408 3.08-3.586 4.004l3.432 4.994c.594-1.056 1.034-2.354 1.034-3.542 0-.704-.33-1.056-1.43-1.056v-.286h4.07v.286c-.748 0-1.188.44-1.584 1.606-.44 1.232-.814 2.53-1.584 3.762zm-6.974-11.154c0 1.232.616 2.442 1.694 3.586 1.21-.682 2.024-1.562 2.024-3.146 0-1.738-.814-2.728-1.826-2.728-1.1 0-1.892.814-1.892 2.288m-2.222 8.118c0 2.354 1.496 4.07 3.608 4.07.902 0 1.782-.374 2.552-.99l-4.29-6.226c-1.1.704-1.87 1.628-1.87 3.146m15.054-5.918c-.374 0-.814-.374-.814-.77 0-.33.242-.704.858-1.078l.946-.616-1.078.066c-.99.066-1.474-.242-1.474-.792 0-.418.264-.77.704-.77.33 0 .682.154 1.1.506l.858.704-.418-1.056c-.44-1.122-.11-1.672.572-1.672.704 0 1.012.55.55 1.672l-.44 1.078.902-.726c.418-.352.77-.506 1.1-.506.44 0 .704.352.704.77 0 .55-.484.858-1.452.792l-1.1-.066.946.616c.616.374.858.748.858 1.078 0 .396-.44.77-.814.77s-.704-.352-.946-1.21l-.308-1.144-.308 1.144c-.242.858-.572 1.21-.946 1.21m6.249 4.444c0-3.982 1.892-7.656 4.774-10.648l.396.242c-2.068 3.278-2.926 6.666-2.926 10.406s.858 7.128 2.926 10.406l-.396.242c-2.882-2.992-4.774-6.666-4.774-10.648m12.018 0c0 3.982-1.914 7.656-4.774 10.648l-.396-.242c2.068-3.278 2.926-6.666 2.926-10.406s-.858-7.128-2.926-10.406l.396-.242c2.86 2.992 4.774 6.666 4.774 10.648m7.663 10.164h-4.378V47.34h4.378v.308c-2.068 0-2.442.11-2.442 1.716v16.654c0 1.584.374 1.716 2.442 1.716zm1.808 0v-.308c2.068 0 2.442-.132 2.442-1.716V49.364c0-1.606-.374-1.716-2.442-1.716v-.308h4.378v20.702zm8.981-10.274c1.474.264 2.332 1.122 2.332 2.442 0 1.188-.924 3.696-.924 5.06 0 1.298.66 2.2 2.596 2.464l-.044.418c-2.97-.264-4.62-1.386-4.62-3.322 0-1.804 1.342-3.806 1.342-5.148 0-.858-.418-1.628-2.486-1.782v-.308c2.068-.154 2.486-.924 2.486-1.782 0-1.342-1.342-3.256-1.342-5.148 0-1.936 1.65-3.058 4.62-3.322l.044.418c-1.936.264-2.596 1.166-2.596 2.464 0 1.364.924 3.872.924 5.06 0 1.32-.858 2.178-2.332 2.442zm9.857 0v-.044c-1.474-.264-2.332-1.122-2.332-2.442 0-1.188.924-3.696.924-5.06 0-1.298-.66-2.2-2.596-2.464l.044-.418c2.97.264 4.62 1.386 4.62 3.322 0 1.892-1.342 3.806-1.342 5.148 0 .858.418 1.628 2.486 1.782v.308c-2.068.154-2.486.924-2.486 1.782 0 1.342 1.342 3.344 1.342 5.148 0 1.936-1.65 3.058-4.62 3.322l-.044-.418c1.936-.264 2.596-1.166 2.596-2.464 0-1.364-.924-3.872-.924-5.06 0-1.32.858-2.178 2.332-2.442m11.705 2.376v.946l-7.92-4.026v-.44l7.92-4.026v.946l-6.578 3.3zm10.729-3.08-7.92 4.026v-.946l6.578-3.3-6.578-3.3v-.946l7.92 4.026zm2.545-.594h5.368v1.76h-5.368zm11.934 4.928v-4.224h-3.74v-.88h3.74V52.07h.968v4.224h3.74v.88h-3.74v4.224z"/></svg>