<svg width="374" height="70" viewBox="0 0 374 70" fill="none" xmlns="http://www.w3.org/2000/svg">
<path d="M4.18042 16.4562L4.13642 16.7422H0.000421837L0.0884219 16.4562C0.924422 16.4562 1.36442 15.9722 2.15642 14.4982L10.1644 0.0661871H10.4944L12.5184 14.4542C12.7164 15.9502 12.8924 16.4562 13.7284 16.4562L13.6404 16.7422H9.46042L9.54842 16.4562C10.8244 16.4562 11.2644 16.0822 11.0444 14.4542L10.4944 10.2742H5.32442L3.30042 13.9702C2.26642 15.8622 2.50842 16.3462 4.18042 16.4562ZM5.67642 9.63619H10.4064L9.46042 2.68419L5.67642 9.63619ZM19.8879 2.26619C20.2399 0.638186 19.8879 0.528186 18.6999 0.528186L18.7439 0.242186H23.6279C25.9819 0.242186 28.1379 1.43019 28.1379 3.80619C28.1379 5.94019 26.4219 7.56819 24.1779 8.07419C26.2019 8.49219 27.6539 9.74619 27.6539 11.7042C27.6539 14.6522 25.0139 16.7422 21.1199 16.7422H15.2679L15.3119 16.4562C16.4999 16.4562 16.8959 16.3242 17.2479 14.7182L19.8879 2.26619ZM23.2319 0.902187H21.6479L20.1959 7.78819H22.3959C25.2999 7.78819 26.6199 6.05019 26.6199 3.76219C26.6199 1.84819 25.4319 0.902187 23.2319 0.902187ZM22.4839 8.42619H20.0639L18.4359 16.0822H21.3179C24.7719 16.0822 26.0479 14.0142 26.0479 11.7042C26.0479 9.70219 25.0359 8.42619 22.4839 8.42619ZM36.1794 16.9622C32.7694 16.9622 30.4814 14.3222 30.4814 10.4942C30.4814 4.20219 34.9694 0.000186682 39.0834 0.000186682C41.1734 0.000186682 42.0534 0.902187 42.6254 0.902187C43.0214 0.902187 43.2414 0.660187 43.3294 0.242186H43.6594L42.6694 4.90619H42.3174C42.8014 1.80419 41.0414 0.638186 38.9734 0.638186C35.0794 0.638186 32.1314 4.90619 32.1314 10.1202C32.1314 13.6622 33.8694 15.9502 36.5314 15.9502C38.8854 15.9502 40.7554 14.4322 42.0534 11.6382L42.3614 11.7702C41.1954 14.7842 39.2814 16.9622 36.1794 16.9622ZM46.5952 0.528186L46.6392 0.242186H51.6772C55.9232 0.242186 58.4972 2.92619 58.4972 7.17219C58.4972 12.3642 54.6032 16.7422 48.8832 16.7422H43.1632L43.2072 16.4562C44.3952 16.4562 44.8132 16.3242 45.1432 14.7182L47.7832 2.26619C48.1352 0.638186 47.7832 0.528186 46.5952 0.528186ZM48.8392 16.0822C53.7232 16.0822 56.8472 12.4082 56.8472 6.77619C56.8472 3.12419 54.9992 0.902187 51.3472 0.902187H49.5432L46.3312 16.0822H48.8392ZM63.2992 2.26619C63.6512 0.638186 63.2992 0.528186 62.1112 0.528186L62.1552 0.242186H72.5392L71.7032 4.20219H71.3512C71.9232 1.16619 71.2192 0.902187 68.8212 0.902187H65.0592L63.6292 7.67819H66.4892C68.2052 7.67819 68.7552 7.26019 69.1952 5.39019H69.5472L68.4472 10.6042H68.0952C68.4032 8.82219 68.0732 8.31619 66.3572 8.31619H63.4972L61.8472 16.0822H65.9172C68.8872 16.0822 69.5912 15.5322 70.4712 12.0342H70.8232L69.8112 16.7422H58.6792L58.7232 16.4562C59.9112 16.4562 60.3072 16.3242 60.6592 14.7182L63.2992 2.26619ZM76.7098 2.26619C77.0618 0.638186 76.7098 0.528186 75.5218 0.528186L75.5658 0.242186H86.1478L85.2898 4.20219H84.9378C85.5318 1.16619 84.8058 0.902187 82.4298 0.902187H78.4698L76.9958 7.85419H80.0098C81.7258 7.85419 82.2538 7.45819 82.7158 5.58819H83.0458L81.9458 10.8022H81.5938C81.9018 8.99819 81.5938 8.51419 79.8778 8.51419H76.8638L75.5658 14.7182C75.2138 16.3242 75.6538 16.4562 76.9298 16.4562L76.8418 16.7422H72.0898L72.1338 16.4562C73.3218 16.4562 73.7178 16.3242 74.0698 14.7182L76.7098 2.26619ZM97.5718 15.5762C96.8458 16.1482 95.2618 16.9622 92.9738 16.9622C89.0578 16.9622 86.6378 14.4542 86.6378 10.4942C86.6378 4.02619 91.2798 0.000186682 95.3278 0.000186682C97.5718 0.000186682 98.5398 0.902187 99.1338 0.902187C99.5078 0.902187 99.7278 0.660187 99.8158 0.242186H100.168L99.1998 4.77419H98.8478C99.2438 1.80419 97.5278 0.638186 95.1958 0.638186C91.4118 0.638186 88.2878 4.70819 88.2878 10.1642C88.2878 13.6842 89.8058 16.3462 93.1278 16.3462C94.9758 16.3462 96.0758 15.6642 96.3398 14.4102L97.0438 11.0442C97.3958 9.41619 96.9558 9.30619 95.8118 9.30619L95.8558 9.02019H100.344L100.256 9.30619C99.2878 9.30619 98.8918 9.43819 98.5398 11.0442L97.5718 15.5762ZM104.841 2.26619C105.193 0.638186 104.841 0.528186 103.653 0.528186L103.697 0.242186H108.383L108.339 0.528186C107.173 0.528186 106.689 0.638186 106.337 2.26619L105.171 7.76619H113.289L114.455 2.26619C114.807 0.638186 114.367 0.528186 113.201 0.528186L113.245 0.242186H117.909L117.865 0.528186C116.677 0.528186 116.281 0.638186 115.929 2.26619L113.289 14.7182C112.981 16.3242 113.289 16.4562 114.477 16.4562L114.411 16.7422H109.725L109.813 16.4562C110.979 16.4562 111.485 16.3242 111.815 14.7182L113.157 8.40419H105.039L103.697 14.7182C103.345 16.3242 103.785 16.4562 104.951 16.4562L104.885 16.7422H100.221L100.265 16.4562C101.453 16.4562 101.871 16.3242 102.201 14.7182L104.841 2.26619ZM121.045 2.26619C121.397 0.638186 121.067 0.528186 119.835 0.528186L119.879 0.242186H124.499L124.455 0.528186C123.267 0.528186 122.871 0.638186 122.519 2.26619L119.879 14.7182C119.549 16.3242 119.879 16.4562 121.067 16.4562L121.023 16.7422H116.403L116.447 16.4562C117.679 16.4562 118.075 16.3242 118.405 14.7182L121.045 2.26619ZM126.853 16.3022C128.349 16.3022 129.317 15.1582 129.911 12.4742L132.089 2.26619C132.419 0.660187 131.979 0.528186 130.857 0.528186L130.901 0.242186H135.345L135.301 0.528186C134.311 0.528186 133.915 0.660187 133.563 2.26619L131.473 12.0782C130.747 15.4662 128.965 16.9182 126.743 16.9182C124.477 16.9182 123.135 15.6202 123.135 14.2342C123.135 13.3982 123.531 12.9582 124.169 12.9582C124.829 12.9582 125.181 13.3542 124.961 14.4542C124.697 15.8182 125.445 16.3022 126.853 16.3022ZM138.391 2.26619C138.743 0.638186 138.391 0.528186 137.203 0.528186L137.247 0.242186H141.933L141.889 0.528186C140.723 0.528186 140.239 0.638186 139.887 2.26619L137.247 14.7182C136.895 16.3242 137.335 16.4562 138.501 16.4562L138.435 16.7422H133.771L133.815 16.4562C135.003 16.4562 135.399 16.3242 135.751 14.7182L138.391 2.26619ZM139.095 7.89819L145.343 2.28819C146.971 0.814187 146.531 0.528186 145.431 0.528186L145.475 0.242186H149.325L149.281 0.528186C148.665 0.528186 148.027 0.682187 146.311 2.26619L140.569 7.50219L144.881 14.8942C145.607 16.1702 146.091 16.4562 146.619 16.4562L146.553 16.7422H142.197L142.263 16.4562C143.539 16.4562 143.847 15.9722 143.407 15.2462L139.095 7.96419V7.89819ZM150.236 14.7182L152.876 2.26619C153.206 0.660187 152.876 0.528186 151.688 0.528186L151.732 0.242186H156.528L156.484 0.528186C155.208 0.528186 154.724 0.660187 154.372 2.26619L151.424 16.0822H155.12C157.892 16.0822 158.552 15.5982 159.344 12.2982H159.696L158.772 16.7422H148.256L148.3 16.4562C149.488 16.4562 149.884 16.3462 150.236 14.7182ZM165.47 2.26619C165.778 0.814187 165.448 0.572187 164.282 0.528186L164.326 0.242186H167.692L169.716 13.9702L177.416 0.242186H180.782L180.738 0.528186C179.55 0.528186 179.154 0.638186 178.802 2.26619L176.162 14.7182C175.854 16.3242 176.162 16.4562 177.35 16.4562L177.284 16.7422H172.598L172.686 16.4562C173.852 16.4562 174.358 16.3242 174.688 14.7182L177.46 1.56219L168.99 16.6322H168.682L166.372 1.56219L163.732 13.9702C163.314 15.9942 163.886 16.4562 165.118 16.4562L165.052 16.7422H160.85L160.894 16.4562C162.082 16.4562 162.544 16.0382 162.962 14.0142L165.47 2.26619ZM191.033 16.8522L184.961 1.38619L182.321 13.8822C181.881 15.8622 182.563 16.4562 184.015 16.4562L183.949 16.7422H179.417L179.461 16.4562C180.649 16.4562 181.133 15.9282 181.573 13.9042L184.037 2.26619C184.345 0.814187 184.015 0.572187 182.849 0.528186L182.893 0.242186H186.083L191.319 13.7942L193.563 3.12419C193.981 1.12219 193.453 0.528186 192.023 0.528186L192.067 0.242186H196.489L196.445 0.528186C195.257 0.528186 194.751 1.07819 194.333 3.10219L191.407 16.8522H191.033ZM202.326 16.9622C198.85 16.9622 196.672 14.4102 196.672 10.5382C196.672 5.25819 200.302 0.000186682 205.34 0.000186682C208.64 0.000186682 210.818 2.59619 210.818 6.44619C210.818 11.6382 207.254 16.9622 202.326 16.9622ZM205.12 0.638186C200.61 0.638186 198.322 5.98419 198.322 10.7582C198.322 14.1022 199.642 16.3242 202.524 16.3242C206.99 16.3242 209.168 10.8902 209.168 6.27019C209.168 2.90419 207.826 0.638186 205.12 0.638186ZM218.026 9.61419H215.54L214.462 14.7182C214.11 16.3242 214.572 16.4562 215.804 16.4562L215.738 16.7422H210.986L211.03 16.4562C212.218 16.4562 212.614 16.3242 212.966 14.7182L215.606 2.26619C215.958 0.638186 215.606 0.528186 214.418 0.528186L214.462 0.242186H219.478C222.426 0.242186 224.45 1.80419 224.45 4.33419C224.45 7.43619 221.678 9.61419 218.026 9.61419ZM219.214 0.902187H217.366L215.672 8.97619H218.07C221.15 8.97619 222.866 7.06219 222.866 4.35619C222.866 2.35419 221.59 0.902187 219.214 0.902187ZM237.309 19.9102C234.229 19.9102 232.381 18.8982 231.215 16.9402C228.113 16.6322 226.221 14.1682 226.221 10.5382C226.221 5.25819 229.873 0.000186682 234.889 0.000186682C238.189 0.000186682 240.367 2.59619 240.367 6.44619C240.367 11.2202 237.353 16.1042 233.041 16.8522C234.031 18.5902 235.571 19.4702 237.749 19.6022L237.705 19.9102H237.309ZM232.073 16.3242C236.561 16.3242 238.717 10.8902 238.717 6.27019C238.717 2.90419 237.375 0.638186 234.669 0.638186C230.137 0.638186 227.871 5.98419 227.871 10.7582C227.871 14.1022 229.191 16.3242 232.073 16.3242ZM251.863 14.7402C252.435 16.1482 252.743 16.3902 253.733 16.4562L253.667 16.7422H251.115L247.859 8.86619C247.727 8.86619 247.595 8.86619 247.441 8.86619H245.329L244.097 14.7182C243.767 16.3462 244.207 16.4562 245.373 16.4562L245.307 16.7422H240.643L240.687 16.4562C241.853 16.4562 242.271 16.3462 242.623 14.7182L245.263 2.26619C245.615 0.638186 245.241 0.528186 244.075 0.528186L244.119 0.242186H249.509C251.951 0.242186 253.975 1.54019 253.975 3.96019C253.975 6.44619 252.083 8.14019 249.399 8.66819L251.863 14.7402ZM249.091 0.902187H247.023L245.461 8.22819H247.617C250.631 8.22819 252.391 6.68819 252.391 4.02619C252.391 2.00219 251.313 0.902187 249.091 0.902187ZM260.217 16.3242C262.417 16.3242 263.913 14.8062 263.913 12.6722C263.913 11.3522 263.275 10.3622 262.131 9.39419L260.195 7.78819C259.051 6.82019 258.215 5.61019 258.215 4.18019C258.215 1.67219 260.261 0.000186682 262.747 0.000186682C264.507 0.000186682 265.431 0.836186 265.959 0.836186C266.223 0.836186 266.421 0.638186 266.531 0.242186H266.839L266.003 4.24619H265.651C265.915 1.78219 264.463 0.660187 262.637 0.660187C260.833 0.660187 259.513 1.82619 259.513 3.65219C259.513 4.88419 260.283 5.78619 261.119 6.49019L263.121 8.16219C264.287 9.15219 265.299 10.3622 265.299 12.0782C265.299 15.0042 262.989 16.9622 260.107 16.9622C257.863 16.9622 256.829 16.0382 256.191 16.0382C255.905 16.0382 255.663 16.2802 255.531 16.7422H255.201L256.191 11.9682H256.543C256.191 14.5642 257.423 16.3242 260.217 16.3242ZM268.793 4.37819L269.651 0.242186H281.619L280.739 4.37819H280.387C281.003 1.16619 280.211 0.902187 277.879 0.902187H276.251L273.303 14.7182C272.973 16.3242 273.435 16.4562 274.447 16.4562L274.359 16.7422H269.893L269.959 16.4562C271.081 16.4562 271.499 16.3242 271.829 14.7182L274.755 0.902187H273.083C270.751 0.902187 269.893 1.16619 269.145 4.37819H268.793ZM282.675 10.4062L284.435 2.26619C284.765 0.660187 284.435 0.528186 283.423 0.528186L283.467 0.242186H287.955L287.911 0.528186C286.745 0.528186 286.239 0.660187 285.909 2.26619L284.149 10.5382C283.467 13.7722 284.457 16.1262 288.109 16.1262C290.771 16.1262 292.201 14.2562 292.751 11.7702L294.599 3.01419C295.017 0.990187 294.467 0.528186 293.103 0.528186L293.147 0.242186H297.327L297.283 0.528186C296.249 0.528186 295.787 0.946186 295.369 2.97019L293.455 11.9022C292.839 14.8722 291.079 16.9842 287.845 16.9842C283.555 16.9842 281.795 14.4982 282.675 10.4062ZM310.464 2.48619L302.192 16.9182H301.818L300.036 2.53019C299.838 1.03419 299.706 0.528186 298.87 0.528186L298.914 0.242186H303.094L303.05 0.528186C301.774 0.528186 301.312 0.902187 301.51 2.53019L302.918 14.2342L309.32 3.01419C310.31 1.25419 310.178 0.616187 308.572 0.528186L308.616 0.242186H312.598L312.554 0.528186C311.674 0.528186 311.278 1.03419 310.464 2.48619ZM329.358 0.528186L329.402 0.242186H333.362L333.318 0.528186C332.46 0.528186 331.998 1.03419 331.25 2.48619L323.506 16.9182H323.154L322.384 7.19419L316.818 16.9182H316.444L315.102 2.53019C314.948 1.03419 314.75 0.528186 313.914 0.528186L313.958 0.242186H318.094L318.05 0.528186C316.818 0.528186 316.4 0.902187 316.554 2.53019L317.588 14.0582L322.274 5.91819L322.01 2.53019C321.878 1.01219 321.658 0.528186 320.822 0.528186L320.866 0.242186H324.98L324.936 0.528186C323.682 0.528186 323.33 0.902187 323.462 2.53019L324.276 13.9262L330.084 3.01419C331.03 1.23219 330.964 0.616187 329.358 0.528186ZM341.215 14.8722L339.037 8.91019L334.967 14.0142C333.295 16.0382 333.603 16.4342 335.231 16.4562L335.165 16.7422H330.875L330.963 16.4562C331.843 16.4562 332.547 15.8622 333.691 14.4322L338.773 8.20619L336.507 2.04619C336.067 0.858186 335.891 0.528186 334.989 0.528186L335.033 0.242186H339.147L339.103 0.528186C338.003 0.528186 337.673 0.902187 338.003 1.84819L340.005 7.28219L343.591 2.77219C345.087 0.880187 344.779 0.550186 343.371 0.528186L343.415 0.242186H347.309L347.265 0.528186C346.407 0.528186 345.945 1.01219 344.999 2.17819L340.269 8.00819L342.711 14.6742C343.195 15.9942 343.437 16.4562 344.339 16.4562L344.273 16.7422H340.115L340.181 16.4562C341.303 16.4562 341.655 16.0822 341.215 14.8722ZM357.802 0.528186L357.846 0.242186H361.784L361.74 0.528186C360.86 0.528186 360.31 1.21019 359.386 2.48619L354.414 9.48219L353.314 14.7182C352.962 16.3242 353.402 16.4562 354.414 16.4562L354.37 16.7422H349.882L349.948 16.4562C351.07 16.4562 351.466 16.3242 351.818 14.7182L352.94 9.41619L350.63 2.61819C350.19 1.25419 349.992 0.528186 349.134 0.528186L349.178 0.242186H353.446L353.402 0.528186C352.082 0.528186 351.642 0.990187 352.17 2.61819L354.194 8.66819L358.176 2.99219C359.342 1.36419 359.342 0.594187 357.802 0.528186ZM373.822 0.242186L373.778 0.528186L361.986 16.0822H366.716C369.51 16.0822 370.28 15.6202 371.204 12.0782H371.556L370.544 16.7422H359.962L360.027 16.4562L371.797 0.902187H367.244C364.912 0.902187 364.076 1.16619 363.35 4.15819H362.998L363.834 0.242186H373.822ZM4.53242 40.9402C2.99242 40.9402 1.71642 39.5982 1.71642 37.0462C1.71642 32.3162 5.28042 28.3342 8.40442 28.3342C9.48242 28.3342 10.3624 28.9502 10.7804 29.8962L11.1544 28.5102H12.4084L9.76842 39.2902C9.63642 39.7962 9.76842 39.9502 10.0324 39.9502C10.2964 39.9502 10.7364 39.8182 11.3084 39.4222L11.4404 39.6202C10.7144 40.3462 9.81242 40.9182 8.99842 40.9182C8.36042 40.9182 8.00842 40.4562 8.25042 39.5102L8.71242 37.5962C7.48042 39.5982 6.07242 40.9402 4.53242 40.9402ZM3.25642 36.7822C3.25642 38.7622 3.89442 39.8842 4.97242 39.8842C6.38042 39.8842 7.78842 38.3222 9.10842 36.0122L10.3844 30.7322C10.0764 29.6102 9.28442 28.9282 8.31642 28.9282C5.98442 28.9282 3.25642 32.5802 3.25642 36.7822ZM17.1087 26.3542C17.4387 24.9902 17.4827 24.6822 16.3827 24.8142L16.4267 24.5942L19.3747 23.2082L17.3507 31.4142C18.6047 29.7642 20.3207 28.3342 21.9267 28.3342C23.7527 28.3342 24.8747 29.7862 24.8747 32.1182C24.8747 36.6282 21.3327 40.9402 17.7027 40.9402C15.1067 40.9402 13.9627 39.1142 14.5787 36.6062L17.1087 26.3542ZM15.9867 36.9362C15.5247 38.7622 16.2507 40.3022 17.8347 40.3022C20.5847 40.3022 23.3127 36.4302 23.3127 32.3822C23.3127 30.6222 22.7847 29.3902 21.4427 29.3902C20.2327 29.3902 18.5167 30.4682 17.0427 32.6242L15.9867 36.9362ZM33.5016 28.9942C31.0816 28.9942 28.6176 32.3822 28.6176 35.9462C28.6176 38.1462 29.7836 39.7302 31.5436 39.7302C33.0836 39.7302 34.5576 38.8942 35.7456 36.2542L36.0316 36.3422C34.9976 39.4662 33.1936 40.9402 31.1036 40.9402C28.6616 40.9402 27.0336 39.0262 27.0336 36.4302C27.0336 31.8102 30.6856 28.3342 33.6776 28.3342C35.8556 28.3342 36.8896 29.6542 36.8896 30.9742C36.8896 31.7442 36.5376 32.1622 35.9436 32.1622C35.3496 32.1622 35.1736 31.7662 35.1296 30.9302C35.0856 29.7862 34.8216 28.9942 33.5016 28.9942ZM41.6755 40.9402C39.8715 40.9402 38.6395 39.5762 38.6395 36.9802C38.6395 32.2942 42.3355 28.3342 45.6575 28.3342C46.8015 28.3342 47.6155 28.7302 48.1435 29.2582L48.8695 26.3542C49.1995 24.9902 49.2435 24.6822 48.1435 24.8142L48.1875 24.5942L51.1355 23.2082L47.1755 39.2242C47.0435 39.7742 47.1755 39.9502 47.4395 39.9502C47.7035 39.9502 48.1435 39.8182 48.6935 39.4222L48.8035 39.6202C48.0995 40.3682 47.2635 40.9182 46.4495 40.9182C45.8115 40.9182 45.4155 40.4342 45.7015 39.2022L46.0975 37.5742C44.8435 39.5762 43.3475 40.9402 41.6755 40.9402ZM40.1795 36.7822C40.1795 38.7622 40.8395 39.8842 42.1155 39.8842C43.6555 39.8842 45.2835 38.1462 46.5155 35.9242L47.8355 30.5562C47.4175 29.5442 46.6035 28.9062 45.5915 28.9062C42.9075 28.9062 40.1795 32.7342 40.1795 36.7822ZM55.5374 40.9182C53.2274 40.9182 51.5774 39.0042 51.5774 36.3862C51.5774 32.0302 55.1414 28.3342 58.3094 28.3342C60.1134 28.3342 60.9714 29.4782 60.9714 30.5782C60.9714 32.8882 58.5074 34.3622 53.2054 35.1542C53.1834 35.4402 53.1614 35.7482 53.1614 36.0342C53.1614 38.3002 54.2614 39.7522 56.0874 39.7522C57.9134 39.7522 59.2774 38.3002 60.1574 36.1662L60.3994 36.2982C59.6514 38.9162 58.0454 40.9182 55.5374 40.9182ZM57.9574 28.9502C56.1534 28.9502 53.8434 31.2822 53.2934 34.5602C57.5834 33.8782 59.4974 32.6022 59.4974 30.6662C59.4974 29.7642 59.0354 28.9502 57.9574 28.9502ZM63.17 40.6982L65.326 29.2142H63.918L64.05 28.5102H65.458L65.634 27.5422C66.206 24.3742 67.658 23.2962 69.176 23.2962C70.144 23.2962 70.694 23.8022 70.694 24.3962C70.694 24.8582 70.386 25.2322 69.902 25.2322C69.044 25.2322 69.198 23.9782 68.362 23.9782C67.658 23.9782 67.086 24.9022 67.042 26.0462C67.042 26.8162 67.02 27.6962 66.91 28.5102H69.22L69.066 29.2142H66.778L64.82 39.2462C64.05 43.1182 62.686 45.1202 60.772 45.1202C59.87 45.1202 59.21 44.6142 59.21 43.9762C59.21 43.4262 59.54 43.1622 59.98 43.1622C60.794 43.1622 60.882 44.3942 61.542 44.3942C62.312 44.3942 62.664 43.3822 63.17 40.6982ZM72.4581 44.9222C69.7741 44.9222 67.9481 43.8662 67.9481 42.4142C67.9481 41.0062 69.8621 39.9282 71.9081 39.3562L71.5561 39.2462C70.3021 38.8942 69.8841 38.4102 69.8841 37.7722C69.8841 36.9142 70.8301 36.2982 71.9301 35.7482C70.9621 35.2422 70.2141 34.2962 70.2141 32.9542C70.2141 30.5782 72.3261 28.3342 74.8781 28.3342C75.2961 28.3342 75.6701 28.4002 76.0221 28.5102H79.7181L79.6081 29.0822H76.9021C77.7161 29.6322 78.3981 30.5562 78.3981 31.8982C78.3981 34.0102 76.3741 36.1662 73.6461 36.1662C73.2281 36.1662 72.8101 36.1002 72.4141 35.9462C71.3801 36.4082 71.0281 36.8702 71.0281 37.1782C71.0281 37.5742 71.3141 37.7282 71.9741 37.9262L75.9781 39.0482C77.3201 39.4222 78.0901 40.1702 78.0901 41.4462C78.0901 42.7662 76.5721 44.9222 72.4581 44.9222ZM71.7541 33.0422C71.7541 34.3182 72.3261 35.5942 73.8221 35.5942C75.7581 35.5942 76.8581 33.5922 76.8581 31.7662C76.8581 29.8742 76.1321 28.9062 74.8121 28.9062C72.8541 28.9062 71.7541 30.9742 71.7541 33.0422ZM69.3781 42.2382C69.3781 43.5142 70.6101 44.3502 72.7661 44.3502C75.1421 44.3502 76.9461 43.2942 76.9461 41.9742C76.9461 41.1382 76.5061 40.6762 75.2961 40.3242L72.5901 39.5542C70.8301 40.0162 69.3781 40.8742 69.3781 42.2382ZM80.3302 40.7422L83.8502 26.3542C84.2022 24.9902 84.2242 24.6822 83.1462 24.8142L83.1902 24.5942L86.1162 23.2082L84.0482 31.5682C85.6542 29.8522 87.6122 28.2682 89.2182 28.2682C90.9342 28.2682 91.3742 29.8962 90.8462 31.6782L88.6902 39.2902C88.5582 39.7962 88.6902 39.9502 88.9542 39.9502C89.2182 39.9502 89.6582 39.8182 90.2302 39.4222L90.3622 39.6202C89.6582 40.3242 88.6902 40.9182 87.8982 40.9182C87.2822 40.9182 86.9082 40.4562 87.1502 39.5542L89.3942 31.6782C89.7462 30.3802 89.6802 29.3462 88.5802 29.3462C87.1942 29.3462 85.3022 30.8422 83.8062 32.5582L81.7822 40.7422H80.3302ZM97.0373 26.5742C96.4433 26.5742 96.0913 26.2222 96.0913 25.6942C96.0913 24.9902 96.6633 24.4402 97.3453 24.4402C97.8953 24.4402 98.2913 24.7922 98.2913 25.3202C98.2913 26.0022 97.7193 26.5742 97.0373 26.5742ZM97.4553 28.2242L94.7273 39.3122C94.6393 39.7962 94.7273 39.9502 94.9913 39.9502C95.2553 39.9502 95.7173 39.8182 96.2893 39.4222L96.3993 39.6202C95.6953 40.3242 94.7493 40.9182 93.9353 40.9182C93.3193 40.9182 92.9893 40.4342 93.2313 39.5102L95.1673 31.5462C95.5193 30.0502 95.6073 29.6982 94.5073 29.8742L94.5513 29.6542L97.4553 28.2242ZM102.994 26.5742C102.4 26.5742 102.048 26.2222 102.048 25.6942C102.048 24.9902 102.642 24.4402 103.302 24.4402C103.874 24.4402 104.248 24.7922 104.248 25.3202C104.248 26.0022 103.676 26.5742 102.994 26.5742ZM103.434 28.2242L100.266 41.1382C99.5623 44.0862 98.6823 45.1862 97.0543 45.1862C95.9983 45.1862 95.4483 44.6582 95.4483 44.0422C95.4483 43.5142 95.7783 43.1622 96.2843 43.1622C97.1863 43.1622 97.0543 44.4382 97.8023 44.4382C98.3303 44.4382 98.7483 43.8662 98.7703 42.8982C98.7703 42.2822 98.8803 40.8302 99.3423 38.8502L101.124 31.5462C101.498 30.0502 101.564 29.6982 100.486 29.8742L100.53 29.6542L103.434 28.2242ZM104.642 40.7422L108.162 26.3542C108.514 24.9902 108.536 24.6822 107.458 24.8142L107.502 24.5942L110.428 23.2082L106.094 40.7422H104.642ZM112.342 39.2682C112.672 39.8402 112.826 39.9942 113.134 39.9942C113.398 39.9942 113.75 39.8402 114.234 39.3782L114.366 39.5542C113.574 40.5442 113.002 40.9182 112.474 40.9182C111.88 40.9182 111.528 40.6102 111.022 39.6862L108.03 34.4282V34.3622L112.298 30.4682C113.574 29.3022 113.354 28.8182 112.254 28.7962L112.342 28.5102H115.972L115.906 28.7962C115.202 28.7962 114.718 29.0602 113.178 30.4902L109.372 33.9442L112.342 39.2682ZM121.877 23.2082L118.005 39.2902C117.873 39.8622 118.049 39.9502 118.313 39.9502C118.555 39.9502 118.995 39.8182 119.567 39.4222L119.677 39.6202C118.973 40.3242 118.049 40.9182 117.213 40.9182C116.641 40.9182 116.245 40.4782 116.509 39.4662L119.633 26.3542C119.963 24.9902 119.985 24.6822 118.929 24.8142L118.973 24.5942L121.877 23.2082ZM122.052 40.7422L124.296 31.5462C124.648 30.0502 124.736 29.6982 123.658 29.8742L123.702 29.6542L126.584 28.2242L125.748 31.6562C127.09 30.0502 128.872 28.2682 130.5 28.2682C132.172 28.2682 132.524 29.7642 132.238 31.3042C133.668 29.6542 135.23 28.2682 136.704 28.2682C138.42 28.2682 138.838 29.9182 138.332 31.6782L136.22 39.2902C136.088 39.7962 136.22 39.9502 136.484 39.9502C136.748 39.9502 137.188 39.8182 137.76 39.4222L137.892 39.6202C137.188 40.3242 136.22 40.9182 135.428 40.9182C134.812 40.9182 134.438 40.4562 134.68 39.5542L136.88 31.6782C137.232 30.3802 137.144 29.3242 136.066 29.3242C134.856 29.3242 133.36 30.7102 131.974 32.3602L129.884 40.7422H128.432L130.654 31.7222C130.984 30.3582 130.94 29.3242 129.862 29.3242C128.41 29.3242 126.628 31.3042 125.462 32.7562L123.504 40.7422H122.052ZM140.404 40.7422L142.648 31.5462C143 30.0502 143.088 29.6982 142.01 29.8742L142.054 29.6542L144.936 28.2242L144.1 31.5902C145.706 29.8522 147.686 28.2682 149.27 28.2682C151.008 28.2682 151.426 29.8962 150.92 31.6782L148.742 39.2902C148.61 39.7962 148.742 39.9502 149.006 39.9502C149.27 39.9502 149.732 39.8182 150.304 39.4222L150.414 39.6202C149.71 40.3242 148.764 40.9182 147.972 40.9182C147.334 40.9182 146.96 40.4562 147.224 39.5542L149.446 31.6782C149.82 30.3802 149.732 29.3462 148.632 29.3462C147.268 29.3462 145.376 30.8422 143.858 32.5802L141.856 40.7422H140.404ZM157.288 40.9182C154.934 40.9182 153.306 38.7622 153.306 36.0562C153.306 31.7662 156.43 28.3342 159.818 28.3342C162.238 28.3342 163.822 30.3802 163.822 33.0642C163.822 37.4422 160.742 40.9182 157.288 40.9182ZM154.846 36.3862C154.846 38.4982 155.638 40.3242 157.508 40.3242C159.994 40.3242 162.26 36.7382 162.26 32.7782C162.26 30.6662 161.49 28.9282 159.642 28.9282C157.332 28.9282 154.846 32.4702 154.846 36.3862ZM164.911 43.4262L167.815 31.5462C168.167 30.0502 168.255 29.6982 167.177 29.8742L167.221 29.6542L170.103 28.2242L169.311 31.4582C170.565 29.7862 172.303 28.3342 173.931 28.3342C175.757 28.3342 176.857 29.7862 176.857 32.1182C176.857 36.6062 173.491 40.9402 169.883 40.9402C168.761 40.9402 167.837 40.4782 167.243 39.8182L166.363 43.4262C166.099 44.5702 166.407 44.7902 167.573 44.7902L167.507 45.0322H163.503L163.569 44.7902C164.207 44.7902 164.603 44.5702 164.911 43.4262ZM173.447 29.3902C172.193 29.3902 170.499 30.4902 169.003 32.6682L167.639 38.2342C167.925 39.4882 168.673 40.3022 169.993 40.3022C172.721 40.3022 175.295 36.4742 175.295 32.3822C175.295 30.6222 174.789 29.3902 173.447 29.3902ZM181.938 40.9402C180.134 40.9402 178.902 39.5762 178.902 36.9802C178.902 32.2942 182.598 28.3342 185.92 28.3342C187.372 28.3342 188.274 28.8842 188.824 29.5662L189.99 28.5102H190.078L186.382 43.4262C186.118 44.5702 186.426 44.7902 187.064 44.7902L186.998 45.0322H182.994L183.038 44.7902C184.204 44.7902 184.622 44.5702 184.93 43.4262L186.382 37.5302C185.128 39.5762 183.61 40.9402 181.938 40.9402ZM180.442 36.7822C180.442 38.7622 181.102 39.8842 182.378 39.8842C183.918 39.8842 185.568 38.1242 186.8 35.9022L188.12 30.5562C187.68 29.5662 186.866 28.9062 185.854 28.9062C183.17 28.9062 180.442 32.7342 180.442 36.7822ZM191.253 40.7422L193.497 31.5462C193.849 30.0502 193.937 29.6982 192.859 29.8742L192.903 29.6542L195.785 28.2242L194.971 31.5022C196.269 29.3242 197.347 28.2682 198.491 28.2682C199.239 28.2682 199.503 28.7742 199.503 29.2142C199.503 29.8082 199.107 30.1382 198.645 30.1382C198.139 30.1382 197.963 29.6982 197.435 29.6982C196.753 29.6982 195.785 30.8422 194.663 32.8222L192.705 40.7422H191.253ZM203.213 40.3022C204.797 40.3022 205.589 39.0922 205.589 37.9262C205.589 35.2642 201.585 34.2742 201.585 31.3482C201.585 29.6322 203.015 28.3562 204.885 28.3562C206.117 28.3562 206.843 28.9942 207.261 28.9942C207.525 28.9942 207.679 28.8182 207.789 28.5102H208.097L207.393 31.9862H207.085C207.239 29.5662 206.073 28.9502 204.797 28.9502C203.477 28.9502 202.817 29.8082 202.817 30.9302C202.817 33.1082 206.909 34.5162 206.909 37.4422C206.909 39.3782 205.369 40.8742 203.081 40.8742C201.541 40.8742 200.771 40.1262 200.309 40.1262C200.001 40.1262 199.781 40.3902 199.649 40.7422H199.341L200.177 36.6502H200.485C200.221 39.3782 201.519 40.3022 203.213 40.3022ZM215.139 37.6182C214.391 39.4222 213.401 40.9622 211.707 40.9622C210.255 40.9622 209.397 39.7962 209.903 37.7502L212.059 29.2142H210.959L211.003 28.9282C212.565 28.4882 213.203 27.3222 214.039 25.4742H214.391L213.643 28.5102H216.811L216.657 29.2142H213.467L211.333 37.9922C211.025 39.2682 211.355 40.0822 212.169 40.0822C213.115 40.0822 213.973 39.2902 214.875 37.4862L215.139 37.6182ZM225.424 39.2902C225.292 39.7962 225.424 39.9502 225.688 39.9502C225.952 39.9502 226.414 39.8182 226.986 39.4222L227.096 39.6202C226.392 40.3022 225.468 40.9182 224.676 40.9182C224.016 40.9182 223.708 40.4342 223.928 39.5102L224.346 37.8382C222.96 39.4002 221.134 40.9622 219.616 40.9622C217.988 40.9622 217.372 39.5102 217.878 37.6182L219.462 31.5682C219.836 30.1162 219.902 29.6982 218.824 29.8742L218.868 29.6542L221.772 28.2242L219.396 37.4862C219 38.9822 219.132 39.8842 220.276 39.8842C221.486 39.8842 223.378 38.2562 224.61 36.8262L226.7 28.5102H228.196L225.424 39.2902ZM239.455 29.6102C239.455 33.0642 236.199 37.8602 232.943 40.9182H232.679C232.767 35.9902 232.151 32.4702 231.667 30.5782C231.381 29.4782 231.051 29.5222 230.369 29.7422L230.347 29.5222L232.371 28.1802C233.493 30.6002 234.087 35.0002 234.043 39.0042C236.221 36.4742 238.311 33.2182 238.311 31.1502C238.311 30.2482 237.563 29.8742 237.563 29.1702C237.563 28.5982 238.003 28.2682 238.487 28.2682C239.147 28.2682 239.455 28.7742 239.455 29.6102ZM248.497 30.5782C248.189 29.4782 247.925 29.5222 247.221 29.7422L247.177 29.5222L249.201 28.1802C250.345 30.5782 250.675 35.0222 250.521 38.9822C252.545 36.4962 254.503 33.1962 254.503 31.1502C254.503 30.2262 253.777 29.8962 253.777 29.1702C253.777 28.5982 254.217 28.2682 254.701 28.2682C255.339 28.2682 255.669 28.7962 255.669 29.6542C255.669 32.9762 252.523 37.9262 249.421 40.9182H249.135C249.289 38.0582 249.223 35.5722 249.025 33.6582C247.815 36.2102 245.857 39.0042 243.921 40.9182H243.613C243.833 36.1662 243.349 32.4702 242.865 30.5782C242.601 29.4782 242.293 29.5222 241.589 29.7422L241.567 29.5222L243.591 28.1802C244.691 30.5562 245.131 35.0442 244.999 39.0262C246.605 37.0242 248.255 34.3622 248.871 32.4042C248.761 31.6782 248.651 31.0622 248.497 30.5782ZM257.649 39.5542C258.155 39.5542 258.815 38.7842 260.949 34.6922L259.673 30.8202C259.277 29.6542 259.145 29.5222 258.067 29.8302L258.089 29.5442L260.333 28.1802L262.071 33.5042C264.139 29.3902 265.217 28.2022 266.383 28.2022C267.021 28.2022 267.373 28.5322 267.373 29.1042C267.373 29.6102 267.153 30.0942 266.537 30.0942C266.053 30.0942 265.833 29.6542 265.393 29.6542C264.887 29.6542 264.073 30.7982 262.291 34.2522L263.809 38.8942C264.051 39.6422 264.249 39.9722 264.579 39.9722C264.821 39.9722 265.085 39.7962 265.635 39.2902L265.789 39.4662C265.261 40.2142 264.535 40.9402 263.853 40.9402C263.193 40.9402 262.819 40.3902 262.423 39.1582L261.191 35.4182C258.793 40.2142 257.891 40.9622 256.659 40.9622C255.999 40.9622 255.559 40.5222 255.559 39.9502C255.559 39.3782 255.933 39.0262 256.461 39.0262C257.033 39.0262 257.231 39.5542 257.649 39.5542ZM270.799 28.1802C271.987 30.9962 272.801 35.3962 272.911 39.7302C275.199 36.6722 276.849 33.1302 276.849 31.1502C276.849 30.2482 276.123 29.8742 276.123 29.1702C276.123 28.5982 276.563 28.2682 277.025 28.2682C277.685 28.2682 278.015 28.7742 278.015 29.6102C278.015 32.6242 275.749 37.0682 272.735 40.8522C270.381 43.8662 268.731 45.2302 267.015 45.2302C266.135 45.2302 265.651 44.7462 265.651 44.1522C265.651 43.6242 266.069 43.2502 266.619 43.2502C267.323 43.2502 267.587 44.1302 268.181 44.1302C268.841 44.1302 269.875 43.4262 271.569 41.4022C271.591 36.4082 270.645 32.6682 270.073 30.5782C269.787 29.5222 269.479 29.5222 268.753 29.7422L268.731 29.5222L270.799 28.1802ZM288.862 29.2142C287.234 32.4702 282.284 35.8142 279.49 39.4222H283.516C285.958 39.4222 286.222 38.8942 286.772 37.0902H287.124L286.156 40.7422H278.192L278.346 40.0162C280.326 36.5842 285.276 33.3282 287.806 29.8302H283.34C281.558 29.8302 281.338 30.1822 280.876 31.7662H280.546L281.36 28.5102H289.016L288.862 29.2142ZM5.32442 49.7382C4.84042 49.9802 3.87242 50.2662 3.38842 50.3322L3.43242 50.0462C4.75242 49.5622 5.91842 48.8142 6.88642 48.0002H7.17242L4.04842 62.7182C3.69642 64.3242 4.07042 64.4562 5.34642 64.4562L5.28042 64.7422H0.440422L0.506422 64.4562C1.73842 64.4562 2.20042 64.3242 2.55242 62.7182L5.32442 49.7382ZM7.11914 64.7422L7.20714 64.2582C9.31914 62.5202 10.6831 61.3542 12.6631 59.4622C15.6551 56.5802 17.2831 54.4902 17.2831 51.9822C17.2831 50.2002 16.2491 49.0562 14.6871 49.0562C12.9271 49.0562 11.4311 50.3982 10.5071 52.5982L10.1551 52.4442C10.9471 49.9142 12.7291 48.0002 15.1711 48.0002C17.5471 48.0002 18.9551 49.5622 18.9551 51.7622C18.9551 54.7762 16.6011 56.9322 13.1031 59.9902C11.6731 61.2662 10.7051 62.1022 9.12114 63.4002H13.7191C16.2271 63.4002 16.6231 63.1142 17.3271 61.4642H17.6791L16.5131 64.7422H7.11914ZM23.8751 56.6462L23.7211 56.3162C26.5591 54.7102 28.5831 53.2802 28.5831 51.0582C28.5831 49.9142 27.9011 49.0342 26.3831 49.0342C24.7991 49.0342 23.5231 50.0902 22.7091 51.6082L22.4011 51.4102C23.2151 49.4302 24.9311 48.0002 26.9551 48.0002C29.0671 48.0002 30.1231 49.2762 30.1231 50.7502C30.1231 52.5542 28.8691 53.8082 26.4711 55.1942C28.3191 55.4142 29.7491 56.8002 29.7491 58.9342C29.7491 61.9262 27.2631 64.8962 23.6331 64.8962C21.1031 64.8962 19.6951 63.4442 19.6951 62.1022C19.6951 61.3102 20.0471 60.8262 20.7071 60.8262C21.2351 60.8262 21.5211 61.1342 21.4551 61.9482C21.3231 63.4222 21.7191 64.3022 23.7871 64.3022C26.5151 64.3022 28.0991 62.0582 28.0991 59.3082C28.0991 57.3502 27.1531 56.2062 25.5251 56.2062C24.8431 56.2062 24.3151 56.4262 23.8751 56.6462ZM40.77 64.4562L40.682 64.7422H35.974L36.018 64.4562C37.294 64.4562 37.69 64.3242 38.042 62.7182L38.548 60.3862H31.75L31.838 59.9902L42.244 48.0442H42.618L40.22 59.4842H42.486L42.222 60.3862H40.022L39.538 62.7182C39.186 64.3242 39.494 64.4562 40.77 64.4562ZM33.18 59.4842H38.724L40.55 50.9702L33.18 59.4842ZM54.3179 58.3182C54.3179 61.7282 51.6339 64.8962 47.8939 64.8962C45.4299 64.8962 44.0659 63.4662 44.0659 62.0582C44.0659 61.2882 44.3739 60.8262 45.0559 60.8262C45.6059 60.8262 45.9139 61.1562 45.8259 61.8822C45.6059 63.4222 46.1119 64.3022 47.9819 64.3022C50.9299 64.3022 52.6679 61.8382 52.6679 58.8682C52.6679 56.5582 51.4359 55.1942 49.5219 55.1942C48.3339 55.1942 47.3219 55.5902 46.4199 56.3822H46.0679L48.5099 48.2422H55.7259L55.2859 49.6062H48.8399L47.1899 55.1062C47.8939 54.5782 48.9939 54.1162 50.2259 54.1162C52.3159 54.1162 54.3179 55.5242 54.3179 58.3182ZM67.3245 58.4282C67.3245 62.1902 64.3325 64.9622 61.4505 64.9622C59.2505 64.9622 56.9185 63.2682 56.9185 59.5062C56.9185 52.5322 63.1885 48.6602 67.6105 48.0002L67.5665 48.3962C64.2225 49.2762 59.9765 51.8942 58.8545 57.2402C59.9765 55.7002 61.7585 54.4902 63.7165 54.4902C65.8285 54.4902 67.3245 55.9862 67.3245 58.4282ZM58.5685 60.0562C58.5685 63.0262 59.9325 64.3022 61.5605 64.3022C64.0905 64.3022 65.6965 61.8382 65.6965 58.6702C65.6965 56.5362 64.6405 55.4582 63.0125 55.4582C61.4065 55.4582 59.6465 56.7342 58.6785 58.2962C58.6125 58.8682 58.5685 59.4402 58.5685 60.0562ZM80.1071 48.2422L79.9971 48.7482L70.8671 64.7422H69.8991L78.8751 49.5182H73.8151C71.3511 49.5182 71.0431 49.9142 70.2951 51.3662H69.9431L71.0431 48.2422H80.1071ZM90.4519 51.2782C90.4519 53.4342 88.4059 54.9082 86.2499 55.8322C88.1859 57.4382 89.5059 58.6702 89.5059 60.3422C89.5059 62.9162 87.2399 64.9622 84.0939 64.9622C81.4979 64.9622 79.4299 63.5322 79.4299 61.2222C79.4299 58.6042 81.8279 56.9982 84.2479 56.0082C82.6199 54.6442 81.8499 53.5662 81.8499 52.1362C81.8499 49.7382 83.9619 48.0002 86.5579 48.0002C88.6699 48.0002 90.4519 49.2322 90.4519 51.2782ZM83.1479 51.7622C83.1479 53.2362 84.4019 54.2922 85.8319 55.4802C87.8779 54.5122 89.1319 53.2362 89.1319 51.3222C89.1319 49.7382 88.2959 48.6382 86.3819 48.6382C84.5339 48.6382 83.1479 49.8702 83.1479 51.7622ZM80.9699 61.1342C80.9699 62.9602 82.1139 64.3242 84.3139 64.3242C86.6459 64.3242 88.1199 62.6742 88.1199 60.8482C88.1199 59.1542 86.5579 57.9442 84.6879 56.3822C82.6199 57.3282 80.9699 58.6262 80.9699 61.1342ZM92.7189 54.4902C92.7189 50.7942 95.7109 48.0002 98.6149 48.0002C100.815 48.0002 103.147 49.6502 103.147 53.3022C103.147 60.6722 97.1849 64.2582 91.8829 64.9622L91.9269 64.5662C96.0629 63.6862 100.155 61.1342 101.233 55.7662C100.177 57.3062 98.4609 58.4502 96.5469 58.4502C94.3469 58.4502 92.7189 56.9322 92.7189 54.4902ZM94.3469 54.2702C94.3469 56.4042 95.4469 57.4822 97.0309 57.4822C98.6589 57.4822 100.397 56.3382 101.409 54.6222C101.475 54.0722 101.497 53.5002 101.497 52.9062C101.497 49.9582 100.221 48.6602 98.5269 48.6602C96.0409 48.6602 94.3469 51.1682 94.3469 54.2702ZM112.651 48.0002C115.137 48.0002 117.095 50.2002 117.095 53.9622C117.095 59.3522 113.949 64.9622 109.637 64.9622C106.931 64.9622 104.929 62.7182 104.929 58.8242C104.929 53.4122 108.405 48.0002 112.651 48.0002ZM112.453 48.6382C108.691 48.6382 106.579 54.3582 106.579 59.5062C106.579 62.5202 107.745 64.3242 109.769 64.3242C113.553 64.3242 115.445 58.4282 115.445 53.4782C115.445 50.5082 114.279 48.6382 112.453 48.6382ZM121.035 49.2982C121.211 48.2642 121.563 47.9122 122.135 47.9122C122.707 47.9122 123.103 48.3742 122.773 49.5622L119.891 59.7042H119.539L121.035 49.2982ZM118.703 64.8742C118.153 64.8742 117.779 64.4782 117.779 63.9502C117.779 63.3342 118.241 62.8062 118.945 62.8062C119.539 62.8062 119.847 63.1802 119.847 63.6862C119.847 64.3022 119.407 64.8742 118.703 64.8742ZM125.719 59.7042C125.851 57.4602 126.973 56.2502 128.579 54.8202C130.031 53.5662 131.087 52.5762 131.087 50.9262C131.087 49.5622 130.383 48.5502 128.799 48.5502C127.567 48.5502 127.083 49.0342 126.885 50.4862C126.775 51.3222 126.489 51.7182 125.895 51.7182C125.389 51.7182 125.037 51.4542 125.037 50.8822C125.037 49.5182 126.489 47.9342 128.953 47.9342C131.307 47.9342 132.627 49.2982 132.627 50.9702C132.627 52.7522 131.615 53.6982 129.305 55.4582C127.501 56.8222 126.335 57.9002 126.071 59.7042H125.719ZM125.279 64.8742C124.751 64.8742 124.377 64.4782 124.377 63.9502C124.377 63.3342 124.839 62.8062 125.543 62.8062C126.115 62.8062 126.445 63.1802 126.445 63.6862C126.445 64.3022 126.005 64.8742 125.279 64.8742ZM141.004 64.0822C139.442 64.0822 138.276 62.8942 138.276 60.8262C138.276 56.7342 141.95 53.0162 144.744 53.0162C145.976 53.0162 146.702 53.6982 147.032 54.4462L147.45 53.1482H148.88L146.372 61.0462C145.91 62.5202 145.91 63.3782 147.296 63.3782C149.628 63.3782 152.664 60.2102 152.664 55.6342C152.664 50.6182 149.188 48.6162 145.448 48.6162C139.948 48.6162 134.448 52.9502 134.448 59.9022C134.448 65.9522 138.452 68.3942 142.874 68.3942C145.624 68.3942 147.758 67.4262 149.012 66.4582L149.232 66.7002C148.11 67.7782 145.58 69.1422 142.456 69.1422C137.528 69.1422 133.106 66.2822 133.106 60.3422C133.106 53.1042 139.112 48.0222 145.448 48.0222C149.936 48.0222 153.698 50.4642 153.698 55.3262C153.698 60.5622 150.134 64.0822 146.966 64.0822C145.316 64.0822 144.48 63.1582 144.788 61.5302C143.842 62.8722 142.5 64.0822 141.004 64.0822ZM139.816 60.4742C139.816 62.1022 140.234 63.0702 141.444 63.0702C142.918 63.0702 144.37 61.3982 145.294 59.8142L146.658 55.5682C146.526 54.3142 145.734 53.6102 144.678 53.6102C142.588 53.6102 139.816 56.9982 139.816 60.4742ZM156.017 58.0322H158.327L159.537 54.6442H157.315L157.447 53.6542H159.911L161.869 48.2422H162.529L160.571 53.6542H163.453L165.411 48.2422H166.071L164.113 53.6542H166.093L165.983 54.6442H163.739L162.529 58.0322H164.663L164.531 59.0222H162.155L160.087 64.7422H159.427L161.495 59.0222H158.613L156.545 64.7422H155.885L157.953 59.0222H155.907L156.017 58.0322ZM158.987 58.0322H161.869L163.079 54.6442H160.197L158.987 58.0322ZM173.935 48.0002C173.979 48.0002 174.023 48.0002 174.067 48.0002L174.353 46.6802H174.947L174.661 48.0442C176.619 48.2422 177.961 49.3202 177.961 50.5302C177.961 51.2782 177.587 51.6522 177.015 51.6522C176.465 51.6522 176.179 51.4102 176.223 50.6622C176.289 49.5622 175.849 48.8582 174.507 48.7042L173.121 55.2162L174.287 56.1622C175.453 57.1302 176.443 58.3622 176.443 60.0782C176.443 63.0262 174.133 64.9622 171.185 64.9622C171.119 64.9622 171.053 64.9622 171.009 64.9622L170.547 67.0962H169.953L170.415 64.9182C167.951 64.6982 166.587 63.3342 166.587 62.0142C166.587 61.2662 166.917 60.8042 167.577 60.8042C168.171 60.8042 168.435 61.1122 168.347 61.9042C168.259 63.1802 168.897 64.0822 170.547 64.2802L172.197 56.4922L171.339 55.8102C170.195 54.8422 169.359 53.6322 169.359 52.2022C169.359 49.6942 171.427 48.0002 173.935 48.0002ZM172.263 54.5122L172.615 54.7982L173.935 48.6602H173.825C172.021 48.6602 170.657 49.8482 170.657 51.6742C170.657 52.9062 171.427 53.8302 172.263 54.5122ZM173.297 57.3942L172.725 56.9322L171.141 64.3242C171.207 64.3242 171.251 64.3242 171.317 64.3242C173.539 64.3242 175.079 62.8062 175.079 60.6722C175.079 59.3302 174.441 58.3622 173.297 57.3942ZM182.726 56.0302C181.494 56.0302 180.13 55.1502 180.13 52.9502C180.13 50.0462 182.154 48.0222 184.046 48.0222C185.168 48.0222 186.598 48.9022 186.598 51.1022C186.598 54.0282 184.552 56.0302 182.726 56.0302ZM178.062 64.7422L192.428 48.2422H193.33L178.964 64.7422H178.062ZM182.858 55.4582C184.178 55.4582 185.322 53.5002 185.322 50.8382C185.322 49.5402 184.926 48.6162 183.914 48.6162C182.616 48.6162 181.406 50.3982 181.406 53.2802C181.406 54.5342 181.758 55.4582 182.858 55.4582ZM187.412 64.9402C186.18 64.9402 184.838 64.0382 184.838 61.8602C184.838 58.9342 186.862 56.9542 188.732 56.9542C189.854 56.9542 191.306 57.8342 191.306 59.9902C191.306 62.9382 189.238 64.9402 187.412 64.9402ZM187.544 64.3462C188.864 64.3462 190.03 62.4102 190.03 59.7262C190.03 58.4502 189.634 57.5262 188.6 57.5262C187.302 57.5262 186.114 59.3302 186.114 62.1902C186.114 63.4662 186.466 64.3462 187.544 64.3462ZM201.604 54.3142L198.744 49.1002L195.884 54.3142H195.07L198.546 48.0442H198.986L202.462 54.3142H201.604ZM213.437 62.2782C214.251 63.8182 214.801 64.3902 216.055 64.4562L215.989 64.7422H215.241C213.899 64.7422 212.887 64.0162 211.985 62.5642C210.621 63.9502 209.147 64.8962 207.145 64.8962C204.637 64.8962 203.075 63.0262 203.075 61.0462C203.075 58.2302 205.495 56.5802 208.135 55.5682C207.431 54.4022 206.947 53.1922 206.947 51.8722C206.947 49.6502 208.641 48.0882 210.885 48.0882C212.557 48.0882 213.965 49.1222 213.965 50.9042C213.965 52.7962 212.337 54.3362 209.763 55.5242L212.667 60.8702C213.789 59.4402 214.537 57.8122 214.647 56.7782C214.735 56.0742 214.449 55.7882 213.459 55.7882L213.503 55.5022H217.331L217.287 55.7882C216.385 55.8102 215.901 56.2062 215.417 57.2182C214.779 58.6482 214.119 60.0562 212.997 61.4422L213.437 62.2782ZM208.333 51.5642C208.333 52.7522 208.751 53.8742 209.499 55.0842C211.457 54.1382 212.645 52.8622 212.645 51.0142C212.645 49.6502 211.941 48.7262 210.709 48.7262C209.279 48.7262 208.333 49.8482 208.333 51.5642ZM204.681 60.6502C204.681 62.3882 205.825 63.8182 207.761 63.8182C209.191 63.8182 210.467 63.1362 211.655 61.9922L208.399 56.0522C206.331 57.0202 204.681 58.3842 204.681 60.6502ZM221.418 52.1142C221.418 51.8062 221.682 51.5862 222.298 51.1902L223.288 50.5962L222.298 50.4202C221.572 50.3102 221.154 50.1122 221.154 49.7162C221.154 49.4302 221.33 49.1662 221.682 49.1662C221.946 49.1662 222.254 49.3642 222.65 49.7382L223.376 50.3542L223.244 49.3422C223.134 48.4182 223.266 47.9562 223.794 47.9562C224.124 47.9562 224.3 48.1542 224.3 48.5062C224.3 48.7482 224.234 49.0782 224.058 49.4302L223.618 50.3982L224.498 50.0462C224.894 49.8702 225.224 49.7382 225.488 49.7382C225.818 49.7382 225.994 49.9362 225.994 50.2002C225.994 50.5742 225.686 50.7942 225.026 50.7722C224.938 50.7722 224.234 50.7502 223.64 50.6402L224.322 51.3662C224.718 51.7622 224.96 52.0702 224.96 52.3782C224.96 52.6862 224.718 52.9062 224.41 52.9062C224.08 52.9062 223.838 52.5102 223.684 51.7622L223.442 50.7722L222.87 51.6962C222.518 52.3122 222.254 52.6202 221.946 52.6202C221.704 52.6202 221.418 52.3782 221.418 52.1142ZM228.537 68.5262C226.953 65.8862 226.051 63.2462 226.051 60.2102C226.051 55.6342 228.339 51.3222 233.113 47.2302L233.443 47.5602C229.065 51.8502 227.239 56.0962 227.239 60.4742C227.239 63.4442 227.833 65.7982 228.933 68.3062L228.537 68.5262ZM230.427 68.5262L230.119 68.1962C234.497 63.9062 236.323 59.6602 236.323 55.2822C236.323 52.3122 235.729 49.9582 234.607 47.4502L235.025 47.2302C236.587 49.8702 237.511 52.5102 237.511 55.5462C237.511 60.1222 235.223 64.4342 230.427 68.5262ZM242.041 68.0422H238.389L242.789 47.3402H246.441L246.375 47.6262C244.197 47.6262 243.779 47.7362 243.449 49.3642L239.929 66.0182C239.577 67.6242 239.929 67.7342 242.107 67.7342L242.041 68.0422ZM244.018 68.0422L244.106 67.7342C246.284 67.7342 246.68 67.6242 247.032 66.0182L250.574 49.3642C250.904 47.7362 250.552 47.6262 248.374 47.6262L248.418 47.3402H252.07L247.67 68.0422H244.018ZM253.783 57.7242C255.169 58.0982 255.763 58.8462 255.763 59.8142C255.763 61.3322 253.739 64.0602 253.739 65.5782C253.739 66.5242 254.157 67.3382 256.159 67.7782L256.027 68.1522C253.651 67.6682 252.573 66.8762 252.573 65.4022C252.573 63.5542 254.883 61.1122 254.883 59.5942C254.883 58.7362 254.355 58.0102 252.507 57.7902L252.595 57.4822C255.301 57.3502 255.939 56.3382 255.939 54.9742C255.939 53.5662 255.411 51.7842 255.697 50.1122C255.983 48.3742 257.523 47.4502 260.427 47.3402L260.405 47.7142C257.721 47.9122 257.149 48.9022 256.951 50.0682C256.709 51.5642 256.907 53.2142 256.907 54.6442C256.907 56.3162 255.917 57.3722 253.805 57.6802L253.783 57.7242ZM264.809 57.7682C263.445 57.3942 262.851 56.6462 262.851 55.6782C262.851 54.1602 264.875 51.4322 264.875 49.9142C264.875 48.9682 264.457 48.1542 262.455 47.7142L262.587 47.3402C264.963 47.8242 266.019 48.6162 266.019 50.0902C266.019 51.9382 263.731 54.3802 263.731 55.8982C263.731 56.7562 264.259 57.4822 266.085 57.7022L266.019 58.0102C263.291 58.1422 262.675 59.1542 262.675 60.5182C262.675 61.9262 263.181 63.7082 262.895 65.3802C262.609 67.1182 261.091 68.0422 258.165 68.1522L258.187 67.7782C260.893 67.5802 261.465 66.5902 261.641 65.4242C261.883 63.9282 261.707 62.2782 261.707 60.8482C261.707 59.1762 262.675 58.1202 264.787 57.8122L264.809 57.7682ZM275.989 60.2102V60.9362L268.289 56.9982V56.6462L275.989 52.7082V53.4342L269.345 56.8222L275.989 60.2102ZM286.589 56.9982L278.889 60.9362V60.2102L285.533 56.8222L278.889 53.4342V52.7082L286.589 56.6462V56.9982ZM289.115 56.8442H294.263L294.043 57.8562H288.895L289.115 56.8442ZM300.813 61.2882V57.0642H297.073V56.4042H300.813V52.1802H301.561V56.4042H305.301V57.0642H301.561V61.2882H300.813Z" fill="#1F1F1F"/>
</svg>
