<svg width="388" height="70" viewBox="0 0 388 70" fill="none" xmlns="http://www.w3.org/2000/svg">
<path d="M4.81778 16.4562V16.7422H-0.000218758V16.4562C0.857781 16.4562 1.16578 15.9722 1.71578 14.4982L7.34778 0.0661871H7.78778L13.3758 14.4542C13.9258 15.8402 14.2118 16.4562 15.0478 16.4562V16.7422H8.86578V16.4562C10.0758 16.4562 10.4718 16.0382 9.83378 14.4542L8.71178 11.5722H3.93778L3.16778 13.6402C2.37578 15.7082 3.07978 16.3462 4.81778 16.4562ZM4.26778 10.7142H8.38178L6.31378 5.32419L4.26778 10.7142ZM17.5331 2.26619C17.5331 0.638186 17.1591 0.528186 16.2571 0.528186V0.242186H22.1971C25.2111 0.242186 28.2911 1.38619 28.2911 4.13619C28.2911 5.98419 26.9271 7.39219 25.1671 7.98619C27.4551 8.38219 29.1271 9.65819 29.1271 11.9242C29.1271 14.6742 26.3991 16.7422 22.5491 16.7422H16.2571V16.4562C17.1591 16.4562 17.5331 16.3242 17.5331 14.7182V2.26619ZM21.8231 1.10019H21.0311V7.67819H22.1311C24.0671 7.67819 24.9471 6.66619 24.9471 4.51019C24.9471 2.31019 23.9351 1.10019 21.8231 1.10019ZM22.2851 8.53619H21.0311V15.8842H22.4831C24.5291 15.8842 25.5851 14.8942 25.5851 12.4742C25.5851 10.1202 24.5951 8.53619 22.2851 8.53619ZM38.1486 16.9842C34.3426 17.0062 31.1966 13.9042 31.1966 8.99819C31.1966 3.49819 34.9366 0.000186682 39.0726 0.000186682C40.8326 0.000186682 42.0426 0.792187 42.6146 0.792187C42.9886 0.792187 43.2086 0.572187 43.2526 0.242186H43.5606V5.50019H43.2086C42.5926 2.33219 40.8106 0.836186 38.6106 0.836186C36.4326 0.836186 34.8046 2.66219 34.8046 6.75419C34.8046 10.5602 36.0806 14.6522 39.7106 14.6522C41.5586 14.6522 42.9226 13.4202 43.6266 11.0002L44.0226 11.1102C43.6486 14.6522 41.2726 16.9842 38.1486 16.9842ZM45.7422 0.528186V0.242186H51.8142C56.6542 0.242186 60.3283 3.21219 60.3283 8.36019C60.3283 13.4422 56.8082 16.7422 52.0562 16.7422H45.7422V16.4562C46.6442 16.4562 47.0182 16.3242 47.0182 14.7182V2.26619C47.0182 0.638186 46.6442 0.528186 45.7422 0.528186ZM51.8582 15.8842C54.9822 15.8842 56.6983 14.0582 56.6983 10.4062C56.6983 4.73019 55.2243 1.10019 51.5282 1.10019H50.5162V15.8842H51.8582ZM63.3292 2.26619C63.3292 0.638186 62.9552 0.528186 62.0532 0.528186V0.242186H73.3172V4.24619H72.9652C72.8992 2.02419 72.1292 1.10019 69.4232 1.10019H66.8272V7.67819H68.8512C70.3252 7.67819 70.8532 7.08419 70.9192 5.43419H71.2492V10.8022H70.9192C70.8532 9.24019 70.3252 8.53619 68.8512 8.53619H66.8272V15.8842H69.4452C72.3052 15.8842 73.0972 15.0262 73.2732 12.1662H73.6252V16.7422H62.0532V16.4562C62.9552 16.4562 63.3292 16.3242 63.3292 14.7182V2.26619ZM76.7612 2.26619C76.7612 0.638186 76.3872 0.528186 75.4852 0.528186V0.242186H86.7712V4.37819H86.4192C86.3312 2.02419 85.5832 1.10019 82.8772 1.10019H80.2592V7.83219H82.5032C83.9772 7.83219 84.5052 7.23819 84.5712 5.58819H84.9012V10.9782H84.5712C84.5052 9.39419 83.9772 8.69019 82.5032 8.69019H80.2592V14.7182C80.2592 16.3242 80.7212 16.4562 81.7772 16.4562V16.7422H75.4852V16.4562C76.3872 16.4562 76.7612 16.3242 76.7612 14.7182V2.26619ZM97.022 16.1702C97.968 16.1702 98.386 15.7082 98.386 14.6302V11.0442C98.386 9.41619 97.924 9.30619 96.956 9.30619V9.02019H103.05V9.30619C102.258 9.30619 101.906 9.41619 101.906 11.0442V15.3782C100.96 16.3022 99.288 16.9842 96.714 16.9842C91.83 17.0062 88.706 13.3322 88.706 8.66819C88.706 3.10219 92.468 0.000186682 96.604 0.000186682C98.364 0.000186682 99.706 0.792187 100.278 0.792187C100.674 0.792187 100.872 0.572187 100.916 0.242186H101.246V5.34619H100.894C100.41 2.44219 98.496 0.836186 96.142 0.836186C93.964 0.836186 92.314 2.48619 92.314 6.53419C92.314 12.0122 94.03 16.1922 97.022 16.1702ZM105.602 2.26619C105.602 0.638186 105.228 0.528186 104.326 0.528186V0.242186H110.486V0.528186C109.562 0.528186 109.1 0.638186 109.1 2.26619V7.65619H114.644V2.26619C114.644 0.638186 114.182 0.528186 113.28 0.528186V0.242186H119.44V0.528186C118.516 0.528186 118.142 0.638186 118.142 2.26619V14.7182C118.142 16.3242 118.516 16.4562 119.44 16.4562V16.7422H113.28V16.4562C114.182 16.4562 114.644 16.3242 114.644 14.7182V8.51419H109.1V14.7182C109.1 16.3242 109.562 16.4562 110.486 16.4562V16.7422H104.326V16.4562C105.228 16.4562 105.602 16.3242 105.602 14.7182V2.26619ZM122.386 2.26619C122.386 0.638186 121.99 0.528186 121.088 0.528186V0.242186H127.204V0.528186C126.302 0.528186 125.906 0.638186 125.906 2.26619V14.7182C125.906 16.3242 126.302 16.4562 127.204 16.4562V16.7422H121.088V16.4562C121.99 16.4562 122.386 16.3242 122.386 14.7182V2.26619ZM138.134 11.7482C138.178 14.9822 135.934 16.9842 132.722 16.9842C130.082 16.9842 128.454 15.3782 128.454 13.4422C128.454 12.0782 129.29 11.5062 130.236 11.5062C131.16 11.5062 131.754 11.9902 131.93 13.3322C132.128 14.9602 132.018 16.1262 133.008 16.1262C134.24 16.1262 134.614 15.0042 134.614 12.4742V2.26619C134.614 0.660187 134.196 0.528186 133.118 0.528186V0.242186H139.322V0.528186C138.508 0.528186 138.134 0.660187 138.134 2.26619V11.7482ZM142.181 2.26619C142.181 0.638186 141.807 0.528186 140.905 0.528186V0.242186H147.065V0.528186C146.141 0.528186 145.679 0.638186 145.679 2.26619V14.7182C145.679 16.3242 146.141 16.4562 147.065 16.4562V16.7422H140.905V16.4562C141.807 16.4562 142.181 16.3242 142.181 14.7182V2.26619ZM145.987 8.00819L150.827 2.66219C152.059 1.29819 151.531 0.528186 150.409 0.528186V0.242186H154.853V0.528186C154.391 0.528186 153.753 0.770187 152.543 2.11219L148.781 6.27019L153.753 14.8722C154.523 16.2142 154.787 16.4562 155.315 16.4562V16.7422H149.463V16.4562C150.607 16.4562 150.607 15.9942 150.145 15.1582L145.987 8.05219V8.00819ZM158.041 14.7182V2.26619C158.041 0.660187 157.667 0.528186 156.765 0.528186V0.242186H163.057V0.528186C162.001 0.528186 161.539 0.660187 161.539 2.26619V15.8842H163.783C166.555 15.8842 167.369 15.0702 167.523 12.1662H167.875V16.7422H156.765V16.4562C157.667 16.4562 158.041 16.3462 158.041 14.7182ZM170.914 2.26619C170.914 0.814187 170.54 0.572187 169.638 0.528186V0.242186H174.896L178.46 10.3842L181.98 0.242186H187.084V0.528186C186.182 0.528186 185.808 0.638186 185.808 2.26619V14.7182C185.808 16.3242 186.182 16.4562 187.084 16.4562V16.7422H180.924V16.4562C181.826 16.4562 182.288 16.3242 182.288 14.7182V2.37619L177.316 16.6322H176.986L171.97 2.37619V14.2562C171.97 16.0162 172.696 16.4562 173.708 16.4562V16.7422H169.638V16.4562C170.54 16.4562 170.914 16.2362 170.914 14.4322V2.26619ZM200.776 16.8522L191.096 2.20019V14.1902C191.096 15.9502 191.866 16.4562 193.01 16.4562V16.7422H188.764V16.4562C189.666 16.4562 190.04 16.1702 190.04 14.3662V2.26619C190.04 0.814187 189.666 0.572187 188.764 0.528186V0.242186H193.934L200.182 9.68019V2.79419C200.182 0.990187 199.478 0.528186 198.4 0.528186V0.242186H202.624V0.528186C201.612 0.528186 201.238 0.836186 201.238 2.61819V16.8522H200.776ZM211.763 16.9842C207.517 16.9842 204.283 13.4862 204.283 8.51419C204.283 3.27819 207.561 0.000186682 211.763 0.000186682C215.833 0.000186682 219.221 3.54219 219.221 8.51419C219.221 13.7502 216.075 16.9842 211.763 16.9842ZM212.357 16.1482C214.271 16.1482 215.613 14.6522 215.613 11.2202C215.613 6.44619 214.359 0.836186 211.169 0.836186C209.255 0.836186 207.891 2.33219 207.891 5.80819C207.891 10.5602 209.145 16.1482 212.357 16.1482ZM222.276 2.26619C222.276 0.638186 221.902 0.528186 220.934 0.528186V0.242186H227.094C230.79 0.242186 233.606 1.56219 233.606 4.68619C233.606 7.32619 231.516 9.76819 226.896 9.76819H225.796V14.7182C225.796 16.3242 226.258 16.4562 227.27 16.4562V16.7422H220.934V16.4562C221.902 16.4562 222.276 16.3242 222.276 14.7182V2.26619ZM226.72 1.10019H225.796V8.91019H227.028C229.382 8.91019 230.108 7.48019 230.108 5.25819C230.108 2.57419 228.854 1.10019 226.72 1.10019ZM250.448 19.5142C246.334 19.5142 244.398 18.6782 242.946 16.9842H242.924C238.678 16.9842 235.444 13.4862 235.444 8.51419C235.444 3.27819 238.722 0.000186682 242.924 0.000186682C246.994 0.000186682 250.382 3.54219 250.382 8.51419C250.382 12.2762 248.776 14.9822 246.268 16.2362C247.698 18.1282 249.172 19.0522 250.822 19.2282V19.5142H250.448ZM243.518 16.1482C245.432 16.1482 246.774 14.6522 246.774 11.2202C246.774 6.44619 245.52 0.836186 242.33 0.836186C240.416 0.836186 239.052 2.33219 239.052 5.80819C239.052 10.5602 240.306 16.1482 243.518 16.1482ZM264.985 14.4102C265.887 16.1262 266.261 16.3462 267.053 16.4562V16.7422H262.455L258.297 8.91019C258.275 8.91019 258.253 8.91019 258.231 8.91019H257.065V14.7182C257.065 16.3242 257.527 16.4562 258.517 16.4562V16.7422H252.203V16.4562C253.171 16.4562 253.545 16.3242 253.545 14.7182V2.26619C253.545 0.638186 253.171 0.528186 252.203 0.528186V0.242186H258.737C262.345 0.242186 265.139 1.10019 265.139 4.35619C265.139 6.09419 264.083 7.63419 261.795 8.40419L264.985 14.4102ZM258.385 1.10019H257.065V8.05219H258.385C260.849 8.05219 261.575 6.95219 261.575 4.90619C261.575 2.31019 260.321 1.10019 258.385 1.10019ZM275.714 13.3102C275.714 12.0342 275.164 11.2862 273.602 10.2742L271.402 8.82219C269.576 7.65619 268.63 6.35819 268.63 4.48819C268.63 1.76019 271.05 0.000186682 273.668 0.000186682C275.89 0.000186682 276.55 0.814187 277.144 0.814187C277.386 0.814187 277.562 0.638186 277.606 0.242186H277.914V4.55419H277.584C277.166 2.02419 275.604 0.858186 273.888 0.858186C272.7 0.858186 271.556 1.62819 271.556 3.10219C271.556 4.42219 272.524 5.23619 273.58 5.91819L275.714 7.32619C277.804 8.66819 278.926 9.90019 278.926 12.0782C278.926 14.7182 276.704 16.9842 273.206 16.9842C270.852 16.9842 269.972 16.1262 269.224 16.1262C268.96 16.1262 268.74 16.2802 268.696 16.7422H268.366V11.5282H268.718C269.18 14.5642 270.522 16.0822 272.986 16.0822C274.856 16.0822 275.714 14.9602 275.714 13.3102ZM284.955 14.7182V1.10019H283.855C281.853 1.10019 280.797 1.69419 280.731 4.66419H280.379V0.242186H293.029V4.66419H292.677C292.611 1.69419 291.555 1.10019 289.553 1.10019H288.453V14.7182C288.453 16.3242 288.915 16.4562 289.927 16.4562V16.7422H283.459V16.4562C284.581 16.4562 284.955 16.3242 284.955 14.7182ZM295.855 11.1982V2.26619C295.855 0.660187 295.481 0.528186 294.711 0.528186V0.242186H300.739V0.528186C299.815 0.528186 299.353 0.660187 299.353 2.26619V10.5162C299.353 13.6622 300.497 15.1142 303.247 15.1142C305.293 15.1142 306.569 13.8162 306.569 11.4622V2.72819C306.569 0.968187 305.821 0.528186 304.831 0.528186V0.242186H308.791V0.528186C307.999 0.528186 307.625 0.748186 307.625 2.55219V11.4402C307.625 14.4762 305.865 16.9842 302.169 16.9842C297.879 16.9842 295.855 14.5862 295.855 11.1982ZM320.102 0.528186V0.242186H324.854V0.528186C323.996 0.528186 323.688 1.01219 323.138 2.48619L317.572 16.9182H317.132L311.588 2.53019C311.06 1.14419 310.774 0.528186 309.938 0.528186V0.242186H316.12V0.528186C314.91 0.528186 314.514 0.946186 315.13 2.53019L318.606 11.6382L321.686 3.34419C322.434 1.34219 321.796 0.616187 320.102 0.528186ZM341.491 0.528186V0.242186H345.781V0.528186C345.077 0.528186 344.703 1.01219 344.219 2.48619L339.445 16.9182H339.005L335.639 6.68819L332.163 16.9182H331.723L326.993 2.53019C326.531 1.14419 326.223 0.528186 325.541 0.528186V0.242186H331.305V0.528186C330.227 0.528186 330.095 0.902187 330.601 2.53019L333.197 10.6042L335.089 5.06019L334.253 2.53019C333.791 1.14419 333.505 0.528186 332.823 0.528186V0.242186H338.653V0.528186C337.553 0.528186 337.289 0.902187 337.817 2.53019L340.435 10.6482L342.767 3.34419C343.405 1.36419 342.877 0.616187 341.491 0.528186ZM355.407 14.8722L352.657 9.61419L350.347 13.6182C349.225 15.5322 349.753 16.4562 351.359 16.4562V16.7422H346.563V16.4562C347.179 16.4562 347.795 16.0162 348.719 14.4542L352.151 8.64619L348.675 2.04619C348.015 0.792187 347.707 0.528186 347.091 0.528186V0.242186H353.097V0.528186C351.997 0.528186 351.799 0.858186 352.305 1.84819L354.747 6.49019L356.617 3.34419C357.717 1.47419 357.387 0.528186 356.001 0.528186V0.242186H360.269V0.528186C359.697 0.528186 359.213 1.03419 358.509 2.17819L355.253 7.43619L359.059 14.6742C359.763 16.0162 360.159 16.4562 360.775 16.4562V16.7422H354.703V16.4562C355.825 16.4562 356.067 16.1262 355.407 14.8722ZM370.921 0.528186V0.242186H375.343V0.528186C374.661 0.528186 374.287 1.12219 373.583 2.48619L370.393 8.73419V14.7182C370.393 16.3242 370.855 16.4562 371.867 16.4562V16.7422H365.399V16.4562C366.521 16.4562 366.895 16.3242 366.895 14.7182V9.04219L363.397 2.24419C362.869 1.23219 362.517 0.528186 361.835 0.528186V0.242186H367.841V0.528186C366.763 0.528186 366.411 1.03419 367.005 2.24419L369.843 7.76619L372.021 3.45419C372.923 1.65019 372.505 0.594187 370.921 0.528186ZM387.881 0.242186V0.528186L380.203 15.8842H383.107C386.209 15.8842 387.067 14.9382 387.243 11.9462H387.595V16.7422H376.199V16.4562L383.877 1.10019H381.061C378.157 1.10019 377.387 2.04619 377.321 4.42219H376.969V0.242186H387.881ZM3.62978 41.0062C1.75978 41.0062 0.461781 39.7302 0.461781 37.7722C0.461781 35.6162 1.84778 34.7582 3.47578 34.2302C4.31178 33.9662 5.21378 33.7462 5.96178 33.3942C6.64378 33.0422 7.12778 32.4262 7.12778 31.0402C7.12778 29.7642 6.66578 29.0602 5.58778 29.0602C4.09178 29.0602 4.11378 30.2702 3.91578 31.4582C3.78378 32.3822 3.29978 32.9102 2.30978 32.9102C1.38578 32.9102 0.747781 32.2942 0.747781 31.4142C0.747781 29.6982 2.68378 28.2462 5.85178 28.2462C8.42578 28.2462 10.2738 29.2582 10.2738 32.0302V38.3442C10.2738 38.8722 10.4498 39.2682 10.8678 39.2682C11.1318 39.2682 11.3738 39.1142 11.5938 38.7622L11.7698 38.8722C11.3958 39.8622 10.5378 40.9622 9.06378 40.9622C7.50178 40.9622 6.99578 40.1262 6.92978 39.0262C6.24778 40.0602 5.16978 41.0062 3.62978 41.0062ZM3.80578 37.0902C3.80578 38.3002 4.33378 39.0262 5.30178 39.0262C5.96178 39.0262 6.48978 38.6302 6.92978 38.0362V33.5482C6.81978 33.7242 6.59978 33.9662 6.22578 34.2082C5.82978 34.4722 5.32378 34.6702 4.90578 34.9342C4.24578 35.3522 3.80578 35.9902 3.80578 37.0902ZM18.8931 40.8962C17.1331 40.8962 16.0551 40.3902 15.3071 39.7082L13.5691 40.7862H13.4811V26.9482C13.4811 25.5402 13.4811 25.1442 12.5571 25.1882V24.9242L16.8471 23.1642V30.5342C17.6171 29.3022 18.9371 28.2462 20.5651 28.2462C22.9851 28.2462 24.7451 30.3142 24.7451 34.1202C24.7451 38.4542 22.0391 40.8962 18.8931 40.8962ZM16.8471 37.0022C16.8471 38.9162 17.8811 40.0822 19.1791 40.0822C20.4771 40.0822 21.3571 38.7842 21.3571 36.0782C21.3571 32.9102 20.6751 30.3582 18.8711 30.3582C17.8591 30.3582 17.2871 31.0402 16.8471 31.6562V37.0022ZM32.6438 29.1482C31.3018 29.1482 30.0478 30.4242 30.0478 33.0642C30.0478 36.4742 31.5658 38.3222 33.8538 38.3222C35.2398 38.3222 36.2518 37.4642 36.8678 35.7042L37.1758 35.8142C36.6918 38.9382 34.9538 40.8962 32.0718 40.8962C28.7278 40.8962 26.7478 38.4102 26.7478 34.9342C26.7478 30.8422 29.8718 28.3342 32.9518 28.3342C35.5258 28.3342 37.0658 29.8302 37.0658 31.5682C37.0658 32.5142 36.3838 33.2402 35.3718 33.2402C34.3158 33.2402 33.8758 32.5582 33.7658 31.8102C33.5678 30.3582 34.1398 29.1482 32.6438 29.1482ZM43.2657 40.8962C40.8457 40.8962 39.0637 38.8502 39.0637 35.0882C39.0637 30.7102 41.9017 28.2462 44.9817 28.2462C45.7957 28.2462 46.4337 28.3782 46.9617 28.5982V26.9482C46.9617 25.5402 46.9617 25.1442 46.0377 25.1882V24.9242L50.3277 23.1642V37.7722C50.3277 39.1802 50.3497 39.5762 51.2297 39.5542V39.8182L46.9617 40.9622V38.6082C46.1917 39.8402 44.8717 40.8962 43.2657 40.8962ZM42.4517 33.1522C42.4517 36.2542 43.1777 38.7842 44.9817 38.7842C45.9937 38.7842 46.5217 38.1022 46.9617 37.4862V32.1622C46.9617 30.2482 46.0157 29.0602 44.7177 29.0602C43.3977 29.0602 42.4517 30.4022 42.4517 33.1522ZM58.1619 40.8962C54.8179 40.8962 52.8379 38.2342 52.8379 34.8902C52.8379 30.8422 55.7419 28.3342 58.5359 28.3342C61.4619 28.3342 63.1779 30.3142 63.3319 33.4162H56.1599C56.2919 36.7162 57.6999 38.4322 59.8559 38.4322C61.1979 38.4322 62.4299 37.5082 63.0019 35.7042L63.3099 35.8142C62.7819 39.1582 60.9779 40.8962 58.1619 40.8962ZM58.0739 29.1482C57.0179 29.1482 56.2479 30.4242 56.1599 32.6242H59.9439C59.8119 30.2482 59.1519 29.1482 58.0739 29.1482ZM64.9103 29.4562V28.5102H66.1643C65.5263 24.8582 67.3083 23.2962 69.3763 23.2962C70.6963 23.2962 71.9723 23.9782 71.9723 25.2762C71.9723 25.9802 71.5543 26.4862 70.8283 26.4862C70.0803 26.4862 69.7723 26.0462 69.4643 25.2322C69.1343 24.3742 68.9363 24.1762 68.6063 24.1762C68.2763 24.1762 68.0563 24.4402 68.0563 24.9242C68.0563 25.9362 69.1783 26.8382 69.4203 28.5102H71.5983V29.4562H69.4643V39.0922C69.4643 40.2582 69.8603 40.4782 70.6083 40.4782V40.7422H65.1963V40.4782C65.7243 40.4782 66.0983 40.2582 66.0983 39.0922V29.4562H64.9103ZM77.6445 44.8782C74.4105 44.8782 72.6505 43.8882 72.6505 42.5462C72.6505 41.4682 73.8825 40.6762 74.8945 40.3462C73.8825 40.0162 73.3325 39.3122 73.3325 38.3442C73.3325 37.2222 74.5425 36.1882 75.5985 35.6822C74.1245 35.0882 73.1565 33.9222 73.1565 32.3162C73.1565 29.9402 75.2905 28.3342 77.9305 28.3342C78.4585 28.3342 78.9645 28.4002 79.4265 28.5102H83.3645V29.2582H80.8565C82.0005 29.8082 82.7925 30.8862 82.7925 32.3162C82.7925 34.6922 80.6805 36.1002 77.9745 36.1002C77.4245 36.1002 76.8965 36.0342 76.3905 35.9242C75.9725 36.1662 75.6645 36.4962 75.6645 36.9582C75.6645 37.3982 76.0165 37.5962 76.6325 37.5962H79.8445C82.8585 37.5962 83.7165 38.8062 83.7165 40.5662C83.7165 42.8322 81.6045 44.8782 77.6445 44.8782ZM78.2825 35.3302C79.2725 35.3302 79.7345 34.4722 79.7345 33.2182C79.7345 31.3922 79.2285 29.1042 77.7105 29.1042C76.8305 29.1042 76.2145 29.8302 76.2145 31.1722C76.2145 33.1302 76.9405 35.3302 78.2825 35.3302ZM75.0925 41.8422C75.0925 42.9862 76.1925 43.7562 78.7445 43.7562C81.1645 43.7562 82.3525 42.7002 82.3525 41.6442C82.3525 40.9622 81.8465 40.5662 80.4385 40.5662H76.4125C76.1705 40.5662 75.9285 40.5442 75.7085 40.5222C75.4005 40.7862 75.0925 41.1382 75.0925 41.8422ZM90.4423 40.7422H85.2063V40.4782C85.6463 40.4782 86.0203 40.2582 86.0203 39.0922V26.9482C86.0203 25.5402 86.0203 25.1442 85.0963 25.1882V24.9242L89.3863 23.1642V30.7102C90.1563 29.5002 91.3663 28.2462 93.1703 28.2462C95.3043 28.2462 96.2943 29.6102 96.2943 31.8322V39.0922C96.2943 40.2582 96.6903 40.4782 97.1743 40.4782V40.7422H91.9163V40.4782C92.5543 40.4782 92.9283 40.2582 92.9283 39.0922V32.0962C92.9283 30.9742 92.4663 30.4242 91.4763 30.4242C90.4423 30.4242 89.8263 31.1502 89.3863 31.7882V39.0922C89.3863 40.2582 89.7163 40.4782 90.4423 40.4782V40.7422ZM101.405 27.7622C100.283 27.7622 99.4692 26.9702 99.4692 25.8922C99.4692 24.8362 100.283 24.0222 101.405 24.0222C102.571 24.0222 103.341 24.8362 103.341 25.8922C103.341 26.9702 102.571 27.7622 101.405 27.7622ZM103.935 40.7422H98.8752V40.4782C99.3372 40.4782 99.7112 40.2582 99.7112 39.0922V32.3382C99.7112 30.8422 99.6892 30.4462 98.7872 30.5122V30.2262L103.077 28.2462V39.0922C103.077 40.2582 103.429 40.4782 103.935 40.4782V40.7422ZM108.263 27.7622C107.119 27.7622 106.327 26.9702 106.327 25.8922C106.327 24.8362 107.119 24.0222 108.263 24.0222C109.429 24.0222 110.199 24.8362 110.199 25.8922C110.199 26.9702 109.429 27.7622 108.263 27.7622ZM109.935 28.2462V39.8842C109.935 43.7562 108.769 45.2302 106.657 45.2302C105.293 45.2302 104.127 44.5482 104.127 43.3822C104.127 42.7222 104.523 42.2822 105.249 42.2822C105.931 42.2822 106.261 42.6342 106.613 43.4922C106.855 44.1082 107.097 44.3502 107.449 44.3502C107.757 44.3502 107.955 44.0862 107.955 43.6242C107.955 42.5682 106.547 41.5562 106.547 38.9822V32.3382C106.547 30.8422 106.547 30.4462 105.645 30.5122V30.2262L109.935 28.2462ZM117.611 40.7422H112.375V40.4782C112.815 40.4782 113.189 40.2582 113.189 39.0922V26.9482C113.189 25.5402 113.189 25.1442 112.287 25.1882V24.9242L116.577 23.1642V39.0922C116.577 40.2582 116.907 40.4782 117.611 40.4782V40.7422ZM119.393 40.7422V40.5002C120.075 40.5002 120.229 40.1922 119.767 39.4442L116.731 34.5382V34.4722L120.119 30.9082C121.439 29.5002 120.845 28.7962 119.767 28.7962V28.5102H124.013V28.7962C123.441 28.7962 123.023 29.1702 121.923 30.2922L119.393 32.8662L123.067 38.8062C123.881 40.1262 124.277 40.5002 124.673 40.5002V40.7422H119.393ZM130.782 40.7422H125.722V40.4782C126.184 40.4782 126.558 40.2582 126.558 39.0922V26.9482C126.558 25.5402 126.558 25.1442 125.612 25.1882V24.9242L129.924 23.1642V39.0922C129.924 40.2582 130.254 40.4782 130.782 40.4782V40.7422ZM137.749 40.7422H132.601V40.4782C133.041 40.4782 133.415 40.2582 133.415 39.0922V32.3382C133.415 30.8422 133.415 30.4462 132.513 30.5122V30.2262L136.781 28.2462V30.5782C137.529 29.3682 138.673 28.2462 140.301 28.2462C141.929 28.2462 142.919 29.1482 143.161 30.7542C143.909 29.4782 145.031 28.2462 146.791 28.2462C148.815 28.2462 149.783 29.5662 149.783 31.8322V39.0922C149.783 40.2582 150.157 40.4782 150.663 40.4782V40.7422H145.427V40.4782C146.043 40.4782 146.417 40.2582 146.417 39.0922V32.0962C146.417 30.9302 145.999 30.4242 145.119 30.4242C144.261 30.4242 143.689 31.0842 143.271 31.7222V39.0922C143.271 40.2582 143.645 40.4782 144.261 40.4782V40.7422H138.937V40.4782C139.531 40.4782 139.905 40.2582 139.905 39.0922V32.0962C139.905 30.9302 139.487 30.4242 138.607 30.4242C137.771 30.4242 137.199 31.0622 136.781 31.7002V39.0922C136.781 40.2582 137.111 40.4782 137.749 40.4782V40.7422ZM157.564 40.7422H152.328V40.4782C152.768 40.4782 153.142 40.2582 153.142 39.0922V32.3382C153.142 30.8422 153.142 30.4462 152.24 30.5122V30.2262L156.508 28.2462V30.6882C157.3 29.4782 158.488 28.2462 160.292 28.2462C162.426 28.2462 163.416 29.6102 163.416 31.8322V39.0922C163.416 40.2582 163.79 40.4782 164.296 40.4782V40.7422H159.038V40.4782C159.676 40.4782 160.05 40.2582 160.05 39.0922V32.0962C160.05 30.9742 159.588 30.4242 158.576 30.4242C157.564 30.4242 156.948 31.1502 156.508 31.7882V39.0922C156.508 40.2582 156.838 40.4782 157.564 40.4782V40.7422ZM171.761 40.8962C168.483 40.8962 165.975 38.3222 165.975 34.6042C165.975 30.8642 168.395 28.3342 171.761 28.3342C175.083 28.3342 177.569 30.9302 177.569 34.6482C177.569 38.3882 175.171 40.8962 171.761 40.8962ZM172.333 40.1042C173.389 40.1042 174.181 38.9382 174.181 36.9142C174.181 33.4602 173.323 29.1482 171.255 29.1482C170.133 29.1482 169.363 30.2482 169.363 32.2722C169.363 35.6822 170.265 40.1042 172.333 40.1042ZM185.611 40.8962C184.775 40.8962 184.115 40.7642 183.565 40.5222V43.3822C183.565 44.5482 183.917 44.7682 184.709 44.7682V45.0322H179.385V44.7682C179.825 44.7682 180.199 44.5482 180.199 43.3822V32.3382C180.199 30.8422 180.221 30.4462 179.297 30.5122V30.2262L183.565 28.2462V30.5342C184.335 29.3022 185.633 28.2462 187.261 28.2462C189.703 28.2462 191.463 30.3142 191.463 34.1202C191.463 38.4542 188.757 40.8962 185.611 40.8962ZM183.565 37.0022C183.565 38.9162 184.599 40.0822 185.897 40.0822C187.195 40.0822 188.097 38.7842 188.097 36.0782C188.097 32.9102 187.393 30.3582 185.589 30.3582C184.555 30.3582 184.005 31.0402 183.565 31.6562V37.0022ZM197.579 40.8962C195.159 40.8962 193.399 38.8502 193.399 35.0882C193.399 30.7102 196.215 28.2462 199.295 28.2462C201.011 28.2462 202.155 28.8182 202.925 29.6322L204.553 28.3782H204.641V43.3822C204.641 44.5482 205.015 44.7682 205.455 44.7682V45.0322H200.153V44.7682C200.923 44.7682 201.275 44.5482 201.275 43.3822V38.6082C200.505 39.8402 199.185 40.8962 197.579 40.8962ZM196.765 33.1522C196.765 36.2542 197.491 38.7842 199.295 38.7842C200.307 38.7842 200.835 38.1022 201.275 37.4862V32.1622C201.275 30.2482 200.351 29.0602 199.031 29.0602C197.711 29.0602 196.765 30.4022 196.765 33.1522ZM212.52 40.7422H207.152V40.4782C207.592 40.4782 207.966 40.2582 207.966 39.0922V32.3382C207.966 30.8422 207.966 30.4462 207.064 30.5122V30.2262L211.332 28.2462V30.8422C212.014 29.4562 213.18 28.2462 214.302 28.2462C215.424 28.2462 216.04 29.0162 216.04 30.2042C216.04 31.1282 215.534 31.8982 214.522 31.8982C213.136 31.8982 213.092 30.7982 212.388 30.7982C212.058 30.7982 211.684 31.1942 211.332 31.8322V39.0922C211.332 40.2582 211.684 40.4782 212.52 40.4782V40.7422ZM223.274 38.3882C223.274 37.4202 222.856 37.0242 221.58 36.2762L220.128 35.4182C218.456 34.4502 217.752 33.3062 217.752 31.8982C217.752 29.4782 219.6 28.2902 221.624 28.2902C223.34 28.2902 224.154 29.0162 224.594 29.0162C224.858 29.0162 224.946 28.8182 224.968 28.5102H225.298V32.2062H224.968C224.66 30.2922 223.208 29.0822 221.756 29.0822C220.788 29.0822 220.128 29.5882 220.128 30.4902C220.128 31.2822 220.678 31.7662 221.888 32.4702L223.34 33.3502C225.1 34.3622 226.09 35.3962 226.09 37.1562C226.09 39.3342 224.352 40.8962 221.734 40.8962C219.842 40.8962 219.05 40.1702 218.61 40.1702C218.28 40.1702 218.148 40.4782 218.126 40.7422H217.796V36.6062H218.126C218.412 38.9162 219.996 40.0822 221.514 40.0822C222.68 40.0822 223.274 39.3562 223.274 38.3882ZM234.914 37.2002C234.782 39.1582 233.968 40.9842 231.68 40.9842C229.788 40.9842 228.6 39.9062 228.6 37.8162V29.4562H227.566V29.1702C229.018 28.7742 230.8 26.9702 231.438 24.5282H231.966V28.5102H234.628V29.4562H231.966V37.6182C231.966 38.6742 232.318 39.1362 233.11 39.1362C233.924 39.1362 234.364 38.4542 234.672 37.1562L234.914 37.2002ZM240.54 37.1562C240.54 38.3222 241.046 38.8282 241.97 38.8282C242.806 38.8282 243.4 38.3222 243.84 37.7942V32.3382C243.84 30.8862 243.84 30.4022 242.916 30.4682V30.2042L247.206 28.2462V37.7722C247.206 39.1362 247.206 39.5762 248.086 39.5542V39.8182L243.84 40.9622V38.8722C243.07 39.9722 241.904 41.0062 240.298 41.0062C238.186 41.0062 237.174 39.6862 237.174 37.4202V32.3382C237.174 30.8862 237.174 30.4022 236.25 30.4682V30.2042L240.54 28.2462V37.1562ZM256.967 28.7962V28.5102H260.729V28.7962C260.201 28.7962 259.761 29.6762 259.145 31.1722L255.141 40.9182H254.877L250.521 30.3582C250.081 29.2142 249.883 28.7962 249.289 28.7962V28.5102H254.877V28.7962C253.997 28.7962 253.579 29.2142 254.019 30.3362L256.241 35.9462L257.979 31.6562C258.793 29.6762 258.199 28.7962 256.967 28.7962ZM275.177 28.7962V28.5102H278.961V28.7962C278.411 28.7962 277.949 29.6762 277.355 31.1722L273.461 40.9182H273.219L270.425 33.7022L267.411 40.9182H267.147L262.901 30.3582C262.461 29.2142 262.263 28.7962 261.669 28.7962V28.5102H267.081V28.7962C266.355 28.7962 265.937 29.2142 266.399 30.3362L268.555 35.8802L269.963 32.5142L269.127 30.3582C268.687 29.2142 268.467 28.7962 267.917 28.7962V28.5102H273.351V28.7962C272.537 28.7962 272.119 29.2142 272.537 30.3362L274.583 35.8362L276.211 31.6562C276.981 29.6542 276.431 28.7962 275.177 28.7962ZM291.706 40.5002V40.7422H286.184V40.5002C287.064 40.5002 287.306 40.3022 286.822 39.4442L284.776 35.7702L283.126 38.3222C282.18 39.7962 282.862 40.4562 284.028 40.4562V40.7422H279.98V40.4562C280.53 40.4562 281.036 39.9722 281.74 38.8942L284.336 34.9562L281.828 30.4462C281.036 29.0162 280.684 28.7522 280.244 28.7522V28.5102H285.612V28.7522C284.864 28.7522 284.6 28.9502 285.084 29.8082L286.822 32.9542L288.076 31.0182C289.11 29.4562 288.516 28.7962 287.482 28.7962V28.5102H291.2V28.7962C290.65 28.7962 290.32 29.1922 289.396 30.5562L287.284 33.7902L290.078 38.8062C290.848 40.2142 291.244 40.5002 291.706 40.5002ZM295.12 45.2522C294.042 45.2522 293.052 44.5702 293.052 43.4922C293.052 42.6122 293.668 42.1942 294.35 42.1942C295.274 42.1942 295.758 43.0302 296.396 43.0302C296.858 43.0302 297.43 42.6562 297.98 41.1602L298.09 40.8302L293.954 30.3582C293.514 29.2142 293.316 28.7962 292.722 28.7962V28.5102H298.31V28.7962C297.43 28.7962 297.034 29.2142 297.452 30.3362L299.696 36.4082L301.412 31.6562C302.138 29.6322 301.632 28.7962 300.4 28.7962V28.5102H304.162V28.7962C303.634 28.7962 303.128 29.6542 302.578 31.1722L299.124 40.5002C297.804 44.0422 296.924 45.2522 295.12 45.2522ZM314.919 28.5102V28.7962L309.001 39.8182H310.827C313.313 39.8182 314.149 39.4222 314.259 36.6062H314.611V40.7422H305.151V40.4562L311.069 29.4342H308.957C306.911 29.4342 306.273 29.9182 306.207 32.2282H305.855V28.5102H314.919ZM2.02378 50.9482C1.58378 51.0582 0.857781 51.1902 0.395781 51.2122V50.9262C2.57378 50.1342 4.15778 48.9682 5.05978 48.0002H5.54378V62.7182C5.54378 64.3242 5.93978 64.4562 6.99578 64.4562V64.7422H0.527781V64.4562C1.75978 64.4562 2.02378 64.3242 2.02378 62.7182V50.9482ZM8.73859 64.7422V63.8842C10.2126 62.4542 10.9386 61.6842 11.9726 60.5842C14.3046 58.1642 15.4486 55.9862 15.4486 53.5442C15.4486 51.5422 14.4806 50.1342 12.5446 50.1342C10.8946 50.1342 9.97059 51.4542 9.44259 52.9722L9.02459 52.8622C9.57459 50.2882 11.3566 48.0002 14.3926 48.0002C17.3186 48.0002 18.9246 49.9362 18.9246 52.2902C18.9246 55.4582 16.3286 57.5482 12.9186 60.8262C12.6326 61.1122 12.2586 61.4862 11.7966 61.9262H15.6246C18.1546 61.9262 18.5066 61.5742 18.8146 59.9902H19.1666L18.4846 64.7422H8.73859ZM24.2178 56.9102L23.9978 56.5582C26.0218 55.1722 27.5398 53.8522 27.5398 52.1802C27.5398 50.7502 26.6378 49.9582 25.2298 49.9582C23.7998 49.9582 22.8978 50.9042 22.3698 52.0702L21.9518 51.9822C22.6778 49.6942 24.1078 48.0002 26.7478 48.0002C29.2998 48.0002 30.5978 49.4742 30.5978 51.1242C30.5978 52.7962 28.8818 53.8962 27.4298 54.6222C30.1358 54.9302 32.0278 56.5802 32.0278 59.1542C32.0278 62.3002 29.3438 64.8962 25.6698 64.8962C22.8978 64.8962 21.1378 63.4442 21.1378 61.7062C21.1378 60.4962 21.8638 60.0342 22.6998 60.0342C23.6018 60.0342 23.9538 60.5842 24.0638 61.6622C24.2398 63.3782 24.6138 64.1262 26.0878 64.1262C27.4958 64.1262 28.6838 62.7842 28.6838 60.2322C28.6838 57.9222 27.4518 56.5142 25.6038 56.5142C24.9218 56.5142 24.5478 56.7122 24.2178 56.9102ZM44.9442 64.4562V64.7422H38.4762V64.4562C39.5542 64.4562 39.9282 64.3242 39.9282 62.7182V60.6062H33.9002V59.8142L42.6782 48.0442H43.4482V59.0882H45.5602V60.6062H43.4482V62.7182C43.4482 64.3242 43.8002 64.4562 44.9442 64.4562ZM35.5282 59.0882H39.9282V53.0822L35.5282 59.0882ZM51.9533 64.8962C49.2033 64.8962 47.4433 63.4662 47.4433 61.8822C47.4433 60.6722 48.1693 60.2102 49.0053 60.2102C49.9073 60.2102 50.2593 60.7822 50.3693 61.8382C50.5453 63.4442 50.9413 64.1262 52.2393 64.1262C53.9773 64.1262 55.0333 62.5862 55.0113 60.4302C54.9893 58.0102 53.6913 56.5362 51.5573 56.5362C50.4353 56.5362 49.5773 56.8882 48.9173 57.6362H48.5653L49.5993 48.2422H57.6733L57.2773 51.0582H50.1933L49.7753 54.7322C50.4573 54.2702 51.4693 53.9182 52.8553 53.9182C56.0233 53.9182 58.2893 55.8102 58.2893 58.9782C58.2893 62.2122 55.9353 64.8962 51.9533 64.8962ZM72.1993 58.9342C72.1993 62.6302 69.6693 64.9842 66.3473 64.9842C62.9813 64.9842 60.4293 62.4102 60.4293 58.2962C60.4293 51.8942 65.4673 48.6382 70.3293 48.0002L70.3733 48.4182C67.7113 49.3862 64.3673 51.1682 63.9933 56.3822C64.7853 55.2162 66.0613 54.1822 67.9533 54.1822C70.7033 54.1822 72.1993 56.2502 72.1993 58.9342ZM66.4353 55.9422C65.2473 55.9422 64.5213 56.8002 63.9713 57.6142C64.0153 62.0142 65.1373 64.1482 66.6553 64.1482C67.9533 64.1482 68.7233 62.6522 68.7233 60.0562C68.7233 57.4602 67.9313 55.9422 66.4353 55.9422ZM83.2682 48.2422V48.9462L77.0862 64.7422H75.4362L81.5522 50.9262H76.6242C74.0942 50.9262 73.8302 51.3882 73.4342 52.7522H73.0822L73.7202 48.2422H83.2682ZM95.0169 51.5422C95.0169 53.4122 93.4769 54.5782 91.9369 55.3482C94.0929 56.6462 95.6549 57.6802 95.6549 60.2542C95.6549 63.0042 92.9709 64.9842 89.6929 64.9842C87.2289 64.9842 84.4349 63.5102 84.4349 61.0242C84.4349 58.8022 86.3269 57.4822 87.8889 56.7782C86.0849 55.7002 84.9849 54.3802 84.9849 52.5102C84.9849 49.7162 87.7569 48.0002 90.3089 48.0002C92.8169 48.0002 95.0169 49.2542 95.0169 51.5422ZM87.5369 51.0802C87.5369 52.5102 88.7029 53.3682 91.2549 54.9302C92.1569 54.2042 92.7289 53.2582 92.7289 51.8722C92.7289 49.9802 91.6729 48.8582 90.0009 48.8582C88.4609 48.8582 87.5369 49.8922 87.5369 51.0802ZM87.0749 60.6062C87.0749 62.6742 88.2629 64.1262 90.0889 64.1262C91.8489 64.1262 92.9709 63.0482 92.9709 61.5742C92.9709 60.2322 91.7169 58.9342 88.6149 57.1962C87.7789 57.9222 87.0749 59.0662 87.0749 60.6062ZM97.3938 54.0502C97.3938 50.5082 99.9238 48.0002 103.268 48.0002C106.612 48.0002 109.164 50.5302 109.164 54.6882C109.164 61.2002 104.082 64.3462 98.6258 64.9842L98.5818 64.5662C101.794 63.6202 105.204 61.7282 105.578 56.6462C104.808 57.7902 103.598 58.8022 101.706 58.8022C98.9558 58.8022 97.3938 56.7342 97.3938 54.0502ZM100.892 52.9282C100.892 55.5242 101.684 57.0422 103.18 57.0422C104.346 57.0422 105.072 56.2062 105.622 55.4142C105.578 50.9922 104.5 48.8362 102.938 48.8362C101.662 48.8362 100.892 50.3322 100.892 52.9282ZM117.943 64.9842C114.621 64.9622 111.343 61.8382 111.343 56.5142C111.343 50.9482 114.445 48.0002 117.921 48.0002C121.089 48.0002 124.543 51.1902 124.543 56.5142C124.543 62.0802 121.551 65.0062 117.943 64.9842ZM118.537 64.1702C119.945 64.1702 121.023 62.9822 121.023 59.3302C121.023 54.5562 120.033 48.8362 117.327 48.8362C115.963 48.8362 114.863 50.0242 114.863 53.6982C114.863 58.4062 115.875 64.1702 118.537 64.1702ZM126.799 51.0142C126.315 48.8142 127.481 47.9122 128.603 47.9122C129.703 47.9122 130.891 48.8142 130.407 51.0142L128.779 59.4842H128.427L126.799 51.0142ZM128.603 64.8962C127.547 64.8962 126.755 64.1262 126.755 63.0922C126.755 62.0582 127.547 61.2882 128.603 61.2882C129.703 61.2882 130.451 62.0582 130.451 63.0922C130.451 64.1262 129.703 64.8962 128.603 64.8962ZM136.514 48.7262C135.7 48.7262 135.612 49.3202 135.414 50.8602C135.282 52.0262 134.952 52.6422 133.918 52.6422C132.884 52.6422 132.4 52.0042 132.4 51.1022C132.4 49.0782 134.38 47.9122 136.8 47.9342C140.342 47.9562 141.75 49.7382 141.75 51.5862C141.75 53.7422 140.43 54.6882 138.648 55.9862C137.328 56.9542 135.986 57.9222 135.634 59.4842H135.282C135.04 57.3722 135.964 55.8542 136.866 54.5782C137.57 53.6102 138.274 52.7522 138.274 51.2782C138.274 49.6942 137.504 48.7262 136.514 48.7262ZM135.964 64.8962C134.908 64.8962 134.116 64.1262 134.116 63.0922C134.116 62.0582 134.908 61.2882 135.964 61.2882C137.064 61.2882 137.812 62.0582 137.812 63.0922C137.812 64.1262 137.064 64.8962 135.964 64.8962ZM151.412 64.0822C149.806 64.0822 148.508 62.9382 148.508 60.7602C148.508 56.3822 152.534 52.9062 155.68 52.9062C156.626 52.9062 157.22 53.2142 157.594 53.6982L157.814 53.0382H161.004L158.562 60.5622C158.122 61.9482 158.166 62.5422 159.178 62.5422C161.29 62.5422 163.666 59.9462 163.666 55.9862C163.666 50.7722 160.19 48.7922 156.362 48.7922C150.884 48.7922 145.67 53.1922 145.67 59.5942C145.67 65.7762 149.3 68.1302 154.096 68.1302C156.604 68.1302 158.782 67.4262 160.058 66.4582L160.278 66.7442C159.156 67.8662 156.648 69.1422 153.458 69.1422C148.068 69.1422 143.58 66.2162 143.58 60.3202C143.58 53.0382 149.982 48.0442 156.362 48.0222C161.158 48.0222 165.162 50.3322 165.162 55.2382C165.162 60.3642 161.224 64.0822 157.418 64.0822C155.878 64.0822 154.954 63.3122 155.02 61.8822C154.14 63.1142 152.93 64.0822 151.412 64.0822ZM151.94 60.5622C151.94 61.4202 152.336 62.0582 153.106 62.0582C153.986 62.0582 154.69 61.3102 155.394 60.1662L157.022 55.3482C156.89 54.2702 156.384 53.7202 155.658 53.7202C153.986 53.7202 151.94 57.0202 151.94 60.5622ZM167.09 57.8122H169.4L170.126 54.8642H167.992V52.6642H170.654L171.732 48.2422H172.59L171.512 52.6642H174.328L175.406 48.2422H176.286L175.208 52.6642H176.968V54.8642H174.68L173.954 57.8122H176.066V60.0122H173.426L172.282 64.7422H171.402L172.546 60.0122H169.73L168.586 64.7422H167.728L168.872 60.0122H167.09V57.8122ZM170.258 57.8122H173.074L173.8 54.8642H170.984L170.258 57.8122ZM184.123 46.6802H184.761V48.0222C187.423 48.1762 189.095 49.4522 189.095 50.8602C189.095 51.9382 188.457 52.3782 187.643 52.3782C186.807 52.3782 186.367 51.8502 186.257 50.8822C186.103 49.5842 185.839 48.9902 184.761 48.8582V54.2702L186.433 55.2822C188.567 56.5582 189.601 57.9002 189.601 60.0782C189.601 62.6522 187.533 64.8302 184.255 64.9402V67.0962H183.617V64.9402C180.669 64.8302 178.843 63.3782 178.843 61.7062C178.843 60.4962 179.547 60.0342 180.383 60.0342C181.285 60.0342 181.637 60.5842 181.747 61.6622C181.901 63.2242 182.385 63.9722 183.617 64.1042V57.7682L182.033 56.8222C180.053 55.6122 179.085 54.3362 179.085 52.4882C179.085 49.7822 181.549 48.0662 184.123 48.0002V46.6802ZM182.033 51.0802C182.033 52.3562 182.913 53.1262 184.123 53.8742V48.8362C182.957 48.9022 182.033 49.6722 182.033 51.0802ZM184.255 58.1422V64.1262C185.663 63.9942 186.389 62.8722 186.389 61.3102C186.389 60.0342 185.927 59.1762 184.255 58.1422ZM195.112 56.1402C193.616 56.1402 191.438 55.0402 191.438 52.0702C191.438 49.1222 193.616 48.0002 195.112 48.0002C196.564 48.0002 198.808 49.1222 198.808 52.0702C198.808 55.0402 196.696 56.1402 195.112 56.1402ZM203.582 48.2422H204.66L193.616 64.7422H192.538L203.582 48.2422ZM195.354 55.4142C195.794 55.4142 196.41 55.0182 196.41 53.0822C196.41 50.9042 195.97 48.7262 194.914 48.7262C194.43 48.7262 193.858 49.1662 193.858 51.0362C193.858 53.0822 194.254 55.4142 195.354 55.4142ZM202.064 64.9402C200.546 64.9402 198.39 63.8402 198.39 60.8702C198.39 57.9222 200.546 56.8002 202.064 56.8002C203.516 56.8002 205.76 57.9222 205.76 60.8702C205.76 63.8402 203.648 64.9402 202.064 64.9402ZM202.284 64.2142C202.746 64.2142 203.34 63.8182 203.34 61.8822C203.34 59.7042 202.922 57.5262 201.844 57.5262C201.36 57.5262 200.81 57.9662 200.81 59.8362C200.81 61.8822 201.184 64.2142 202.284 64.2142ZM214.551 54.4242L211.669 49.4302L208.765 54.4242H207.753L211.449 48.0442H211.889L215.585 54.4242H214.551ZM230.046 62.3882C231.058 63.9502 231.52 64.3462 232.312 64.4562V64.7422H227.824L227.01 63.5322C225.91 64.3242 224.568 64.8962 223.028 64.8962C219.684 64.8962 217.704 63.0262 217.704 60.3862C217.704 58.0542 219.508 56.4482 221.642 55.6342C220.762 54.5782 220.234 53.3682 220.234 52.0702C220.234 49.5622 222.368 48.0882 224.788 48.0882C227.208 48.0882 228.946 49.3202 228.946 51.3442C228.946 53.1482 227.472 54.4242 225.36 55.2162L228.704 60.3422C229.276 59.2862 229.694 57.9222 229.694 56.8442C229.694 56.1402 229.364 55.7882 228.33 55.7882V55.5022H232.268V55.7882C231.608 55.7882 231.19 56.2282 230.772 57.3942C230.332 58.6262 229.958 59.9242 229.21 61.1342L230.046 62.3882ZM223.292 51.1462C223.292 52.4222 223.974 53.6322 224.832 54.6002C225.734 54.0502 226.394 53.1922 226.394 51.6302C226.394 49.8922 225.734 48.9462 224.854 48.9462C223.93 48.9462 223.292 49.7602 223.292 51.1462ZM220.96 58.9562C220.96 61.4862 222.478 63.3562 224.59 63.3562C225.272 63.3562 225.91 63.1362 226.504 62.7842L222.192 56.2942C221.532 56.8882 220.96 57.6582 220.96 58.9562ZM235.663 53.8082C235.223 53.8082 234.695 53.3682 234.695 52.9062C234.695 52.5762 234.959 52.2022 235.531 51.8502L236.675 51.1682L235.355 51.2562C234.409 51.3442 233.925 51.0142 233.925 50.3762C233.925 49.9362 234.255 49.5182 234.739 49.5182C235.091 49.5182 235.421 49.6942 235.773 50.0022L236.785 50.8602L236.257 49.6282C235.817 48.5282 236.213 47.9562 236.961 47.9562C237.709 47.9562 238.061 48.5282 237.621 49.6282L237.093 50.8602L238.105 50.0022C238.457 49.6942 238.787 49.5182 239.161 49.5182C239.623 49.5182 239.953 49.9362 239.953 50.3762C239.953 51.0142 239.491 51.3442 238.523 51.2562L237.203 51.1682L238.347 51.8502C238.941 52.2022 239.183 52.5762 239.183 52.9062C239.183 53.3682 238.655 53.8082 238.215 53.8082C237.797 53.8082 237.445 53.4562 237.269 52.6422L236.939 51.2782L236.631 52.6422C236.433 53.4562 236.081 53.8082 235.663 53.8082ZM241.991 57.8782C241.991 53.6762 244.213 49.9802 247.337 47.2302L247.733 47.5162C245.797 50.5522 244.961 54.0942 244.961 57.8782C244.961 61.6622 245.797 65.2042 247.733 68.2402L247.337 68.5262C244.213 65.7762 241.991 62.0802 241.991 57.8782ZM254.991 57.8782C254.991 62.0802 252.791 65.7762 249.645 68.5262L249.271 68.2402C251.185 65.2042 252.021 61.6622 252.021 57.8782C252.021 54.0942 251.185 50.5522 249.271 47.5162L249.645 47.2302C252.791 49.9802 254.991 53.6762 254.991 57.8782ZM262.997 68.0422H258.069V47.3402H262.997V47.6262C261.083 47.6262 260.709 47.7362 260.709 49.3642V66.0182C260.709 67.6242 261.083 67.7562 262.997 67.7562V68.0422ZM264.642 68.0422V67.7562C266.556 67.7562 266.93 67.6242 266.93 66.0182V49.3642C266.93 47.7362 266.556 47.6262 264.642 47.6262V47.3402H269.57V68.0422H264.642ZM274.406 57.7682C275.924 58.0542 276.826 58.8682 276.826 60.1882C276.826 61.4642 275.88 63.9722 275.88 65.3582C275.88 66.7662 276.452 67.4482 278.212 67.7562L278.168 68.1522C274.868 67.8882 273.196 66.7882 273.196 64.7862C273.196 62.9822 274.582 60.9802 274.582 59.6382C274.582 58.8242 274.098 58.0542 272.25 57.8782V57.6142C274.098 57.4382 274.582 56.6682 274.582 55.8542C274.582 54.5122 273.196 52.6642 273.196 50.7062C273.196 48.7042 274.868 47.6042 278.168 47.3402L278.212 47.7362C276.452 48.0442 275.88 48.7262 275.88 50.1342C275.88 51.5202 276.826 54.0282 276.826 55.3042C276.826 56.6242 275.924 57.4382 274.406 57.7242V57.7682ZM283.711 57.7682V57.7242C282.193 57.4382 281.291 56.6242 281.291 55.3042C281.291 54.0282 282.237 51.5202 282.237 50.1342C282.237 48.7262 281.687 48.0442 279.905 47.7362L279.949 47.3402C283.249 47.6042 284.921 48.7042 284.921 50.7062C284.921 52.6642 283.535 54.5122 283.535 55.8542C283.535 56.6682 284.041 57.4382 285.889 57.6142V57.8782C284.041 58.0542 283.535 58.8242 283.535 59.6382C283.535 60.9802 284.921 62.9822 284.921 64.7862C284.921 66.7882 283.249 67.8882 279.949 68.1522L279.905 67.7562C281.687 67.4482 282.237 66.7662 282.237 65.3582C282.237 63.9722 281.291 61.4642 281.291 60.1882C281.291 58.8682 282.193 58.0542 283.711 57.7682ZM295.788 60.1442V61.0902L287.868 57.0642V56.6242L295.788 52.5982V53.5442L289.21 56.8442L295.788 60.1442ZM306.517 57.0642L298.597 61.0902V60.1442L305.175 56.8442L298.597 53.5442V52.5982L306.517 56.6242V57.0642ZM309.062 56.2282H314.43V58.4722H309.062V56.2282ZM320.996 61.3982V57.1742H317.256V56.2942H320.996V52.0702H321.964V56.2942H325.704V57.1742H321.964V61.3982H320.996Z" fill="#1F1F1F"/>
</svg>
