<svg xmlns="http://www.w3.org/2000/svg" fill="none" viewBox="0 0 383 70"><path fill="#1f1f1f" d="m4.709 16.456-.066.286H0l.066-.286c.858 0 1.32-.506 2.156-1.958L10.583.066h.396l2.266 14.388c.22 1.386.374 2.002 1.21 2.002l-.066.286H9.065l.066-.286c1.21 0 1.694-.418 1.452-2.002l-.506-3.388H5.259l-1.54 2.706c-1.166 2.046-.704 2.574.99 2.684m1.034-6.248h4.224l-.88-5.896zm14.486-7.942c.352-1.628 0-1.738-1.012-1.738l.066-.286h5.368c2.618 0 4.928 1.298 4.928 3.608 0 1.98-1.76 3.652-3.982 4.202 2.024.462 3.432 1.716 3.432 3.542 0 2.992-2.86 5.148-6.886 5.148h-6.38l.066-.286c1.012 0 1.43-.132 1.76-1.738zM24.101 1.1h-.946L21.77 7.678h1.628c2.662 0 3.542-2.156 3.542-4.048 0-1.562-.814-2.53-2.838-2.53m-.814 7.436h-1.694l-1.562 7.348h2.222c2.816 0 3.938-2.156 3.938-4.51 0-1.716-.792-2.838-2.904-2.838m14.274 8.404c-3.696 0-5.874-2.728-5.874-6.38C31.687 3.916 36.483 0 40.553 0c2.024 0 3.014.836 3.608.836.374 0 .638-.264.726-.594h.33l-1.078 5.104h-.352c.286-3.344-1.518-4.51-3.322-4.51-3.344 0-5.852 3.982-5.852 8.998 0 3.3 1.562 5.28 3.938 5.28 1.848 0 3.586-1.144 4.95-3.982l.352.132c-1.188 3.41-3.168 5.676-6.292 5.676M48.058.528l.066-.286h5.478c4.246 0 6.842 2.64 6.842 6.732 0 4.884-3.652 9.768-9.702 9.768h-6.138l.066-.286c1.012 0 1.43-.132 1.76-1.738l2.64-12.452c.352-1.628 0-1.738-1.012-1.738m2.706 15.356c4.224 0 6.82-4.136 6.82-9.636 0-3.52-1.496-5.148-4.444-5.148h-1.122l-3.146 14.784zM64.887 2.266c.352-1.628 0-1.738-1.012-1.738l.066-.286h10.714l-.88 4.07h-.352c.462-2.552-.308-3.212-2.728-3.212h-2.86l-1.386 6.534h2.244c1.496 0 2.2-.506 2.618-2.266h.33l-1.144 5.412h-.33c.308-1.65-.154-2.288-1.65-2.288h-2.244l-1.584 7.392h3.234c2.794 0 3.784-.726 4.598-3.872h.352l-.99 4.73H60.42l.066-.286c1.012 0 1.408-.132 1.76-1.738zm13.496 0c.352-1.628 0-1.738-1.012-1.738l.066-.286H88.46l-.88 4.136h-.352C87.711 1.76 86.941 1.1 84.5 1.1h-3.168l-1.43 6.754h2.442c1.474 0 2.178-.528 2.618-2.266h.33l-1.166 5.39h-.33c.286-1.65-.154-2.266-1.628-2.266h-2.442l-1.276 6.006c-.352 1.606.088 1.738 1.232 1.738l-.066.286h-5.698l.066-.286c1.012 0 1.408-.132 1.76-1.738zm21.847 13.266c-.946.682-2.728 1.43-4.928 1.43-4.246 0-6.534-2.794-6.534-6.512 0-6.776 4.95-10.45 9.02-10.45 2.266 0 3.322.836 3.916.836.374 0 .616-.264.704-.594h.33l-1.034 4.884h-.352c.154-3.146-1.584-4.29-3.674-4.29-3.322 0-6.006 4.026-6.006 9.68 0 3.168 1.078 5.654 3.718 5.654 1.32 0 2.112-.484 2.354-1.672l.748-3.454c.352-1.628-.088-1.738-1.144-1.738l.066-.286h5.478l-.066.286c-.902 0-1.298.154-1.65 1.738zm6.801-13.266c.352-1.628 0-1.738-1.012-1.738l.066-.286h5.566l-.066.286c-1.012 0-1.496.11-1.848 1.738l-1.144 5.39h6.49l1.144-5.39c.352-1.628-.088-1.738-1.1-1.738l.066-.286h5.566l-.066.286c-1.012 0-1.408.11-1.76 1.738l-2.64 12.452c-.33 1.606 0 1.738 1.012 1.738l-.066.286h-5.566l.066-.286c1.012 0 1.518-.132 1.848-1.738l1.32-6.204h-6.49l-1.32 6.204c-.33 1.606.088 1.738 1.1 1.738l-.066.286h-5.566l.066-.286c1.012 0 1.43-.132 1.76-1.738zm16.504 0c.352-1.628-.022-1.738-1.034-1.738l.066-.286h5.478l-.044.286c-1.012 0-1.408.11-1.76 1.738l-2.64 12.452c-.352 1.606 0 1.738 1.012 1.738l-.066.286h-5.5l.066-.286c1.012 0 1.452-.132 1.782-1.738zm7.2 13.86c1.122 0 1.87-1.056 2.442-3.718l2.156-10.142c.33-1.606-.088-1.738-1.166-1.738l.044-.286h5.5l-.044.286c-.88 0-1.276.132-1.628 1.738l-2.09 9.724c-.682 3.278-2.574 4.972-5.28 4.972-2.574 0-4.026-1.364-4.026-2.992 0-1.21.638-1.848 1.628-1.848.902 0 1.496.594 1.21 1.892-.374 1.628.11 2.112 1.254 2.112m11.629-13.86c.352-1.628 0-1.738-1.012-1.738l.066-.286h5.566l-.066.286c-1.012 0-1.496.11-1.848 1.738l-2.64 12.452c-.352 1.606.088 1.738 1.1 1.738l-.066.286h-5.566l.066-.286c1.012 0 1.408-.132 1.76-1.738zm1.826 5.698 5.918-5.5c1.672-1.518 1.078-1.936.088-1.936l.044-.286h4.224l-.044.286c-.484 0-1.188.154-2.75 1.606l-4.972 4.642 3.674 8.096c.572 1.254.88 1.584 1.408 1.584l-.066.286h-5.258l.066-.286c1.21 0 1.364-.506 1.012-1.298l-3.344-7.15zm10.77 6.754 2.64-12.452c.33-1.606 0-1.738-1.012-1.738l.066-.286h5.676l-.044.286c-1.144 0-1.628.132-1.98 1.738l-2.904 13.618h3.08c2.508 0 3.454-.66 4.202-3.652h.352l-.968 4.51h-10.934l.066-.286c1.012 0 1.408-.11 1.76-1.738m15.449-12.452c.308-1.452 0-1.694-1.012-1.738l.066-.286h4.532l1.562 11.484L181.959.242h4.488l-.066.286c-1.012 0-1.408.11-1.76 1.738l-2.64 12.452c-.33 1.606 0 1.738 1.012 1.738l-.066.286h-5.566l.066-.286c1.034 0 1.518-.132 1.87-1.738l2.662-12.628-8.096 14.542h-.33l-2.068-14.586-2.574 12.1c-.396 1.87.264 2.31 1.364 2.31l-.066.286h-4.246l.066-.286c1.012 0 1.452-.286 1.87-2.178zm25.995 14.586-6.05-14.85-2.53 11.99c-.396 1.87.308 2.464 1.628 2.464l-.066.286h-4.532l.066-.286c1.012 0 1.496-.44 1.892-2.332l2.508-11.858c.308-1.452-.022-1.694-1.012-1.738l.044-.286h4.356l4.356 11.022 1.76-8.272c.396-1.87-.176-2.464-1.43-2.464l.044-.286h4.4l-.066.286c-1.078 0-1.54.462-1.936 2.332l-2.97 13.992zm11.125.11c-3.586 0-5.742-2.508-5.742-6.38 0-5.016 3.498-10.582 9.02-10.582 3.366 0 5.522 2.53 5.522 6.292 0 4.95-3.388 10.67-8.8 10.67M210.411.836c-3.938 0-5.72 6.204-5.72 10.626 0 2.86.902 4.664 3.146 4.664 3.894 0 5.588-6.402 5.588-10.516 0-2.926-.99-4.774-3.014-4.774m13.385 8.91h-1.848l-1.056 4.972c-.352 1.606.088 1.738 1.188 1.738l-.066.286h-5.698l.066-.286c1.056 0 1.452-.132 1.804-1.738l2.64-12.452c.352-1.628 0-1.738-1.056-1.738l.066-.286h5.566c3.146 0 5.346 1.518 5.346 4.158 0 3.146-2.882 5.346-6.952 5.346M225.05 1.1h-1.276l-1.65 7.788h1.848c2.684 0 4.07-2.002 4.07-4.642 0-1.958-1.078-3.146-2.992-3.146m18.388 18.568c-3.608 0-5.368-.99-6.446-2.772-2.992-.418-4.774-2.794-4.774-6.314 0-5.016 3.498-10.582 9.02-10.582 3.366 0 5.522 2.53 5.522 6.292 0 4.312-2.552 9.196-6.798 10.384.902 1.672 2.266 2.574 4.114 2.706l-.066.286zm-5.17-3.542c3.894 0 5.588-6.402 5.588-10.516 0-2.926-.99-4.774-3.014-4.774-3.938 0-5.72 6.204-5.72 10.626 0 2.86.902 4.664 3.146 4.664m20.906-1.716c.616 1.628.968 1.936 1.848 2.046l-.066.286h-3.74l-2.948-7.832h-1.606l-1.232 5.808c-.352 1.606.088 1.738 1.144 1.738l-.066.286h-5.654l.066-.286c1.056 0 1.474-.132 1.804-1.738l2.64-12.452c.33-1.606 0-1.738-1.056-1.738l.066-.286h5.72c2.926 0 5.214 1.254 5.214 3.762 0 2.2-1.584 3.916-4.312 4.598zm-3.52-13.31h-1.342l-1.474 6.952h1.54c3.014 0 4.224-1.738 4.224-4.026 0-2.024-.99-2.926-2.948-2.926m11.809 14.982c1.892 0 3.234-1.144 3.234-3.058 0-1.232-.572-2.134-1.716-3.124l-1.694-1.43c-1.364-1.122-2.09-2.464-2.09-3.916 0-2.772 2.244-4.554 4.972-4.554 1.848 0 2.86.814 3.454.814.242 0 .462-.176.572-.572h.308l-.88 4.202h-.33c.066-2.552-1.408-3.586-3.146-3.586-1.496 0-2.728.814-2.728 2.552 0 1.122.704 1.936 1.628 2.728l1.628 1.364c1.562 1.32 2.42 2.53 2.42 4.356 0 2.948-2.376 5.104-5.676 5.104-2.332 0-3.388-.88-4.026-.88-.264 0-.55.22-.682.66h-.308l1.056-5.06h.352c-.374 2.728 1.056 4.4 3.652 4.4m8.853-11.462.902-4.378h12.276l-.902 4.378h-.352c.572-3.014-.374-3.52-2.486-3.52h-1.21l-2.904 13.618c-.33 1.606.11 1.738 1.122 1.738l-.066.286h-5.676l.066-.286c1.122 0 1.518-.132 1.87-1.738L281.838 1.1h-1.232c-2.068 0-3.234.506-3.938 3.52zm13.985 6.072 1.804-8.426c.33-1.606 0-1.738-.858-1.738l.044-.286h5.412l-.044.286c-1.012 0-1.518.132-1.848 1.738l-1.804 8.448c-.616 2.86.374 4.796 3.388 4.796 2.332 0 3.586-1.474 4.07-3.696l1.892-8.976c.396-1.87-.264-2.31-1.342-2.31l.044-.286h4.114l-.044.286c-.902 0-1.342.286-1.738 2.178l-1.98 9.306c-.594 2.772-2.2 4.994-5.698 4.994-4.268 0-6.226-2.486-5.412-6.314M318.4 2.486l-8.36 14.432h-.44L307.708 2.53c-.198-1.386-.374-2.002-1.21-2.002l.066-.286h5.324l-.044.286c-1.21 0-1.672.396-1.474 2.002l1.188 10.01 5.346-9.328c1.078-1.892.792-2.596-.836-2.684l.066-.286h4.444l-.044.286c-.858 0-1.32.528-2.134 1.958M337.008.528l.044-.286h4.246l-.044.286c-.792 0-1.298.528-2.068 1.958l-7.722 14.432h-.44l-.902-10.208-5.742 10.208h-.44L322.598 2.53c-.132-1.386-.33-2.002-1.078-2.002l.044-.286h5.06l-.066.286c-1.1 0-1.43.374-1.298 2.002l.792 9.504 3.916-6.93-.22-2.574c-.132-1.386-.33-2.002-1.056-2.002l.066-.286h5.038l-.066.286c-1.144 0-1.496.374-1.364 2.002l.704 9.35 4.642-8.668c.99-1.87.77-2.596-.704-2.684m11.396 14.344-1.892-5.478-3.41 4.378c-1.54 1.958-1.254 2.684.352 2.684l-.066.286h-4.686l.066-.286c.748 0 1.452-.55 2.618-2.046l4.774-5.984-2.2-6.38c-.44-1.232-.638-1.518-1.364-1.518l.044-.286h5.192l-.044.286c-1.1 0-1.386.352-1.056 1.32l1.716 4.972 2.882-3.674c1.518-1.958 1.254-2.618-.132-2.618l.066-.286h4.18l-.044.286c-.704 0-1.254.506-2.178 1.65l-4.444 5.588 2.398 6.908c.462 1.342.726 1.782 1.452 1.782l-.066.286h-5.258l.088-.286c1.1 0 1.43-.352 1.012-1.584M366.058.528l.044-.286h4.29l-.066.286c-.748.022-1.32.638-2.244 1.958l-4.708 6.688-1.166 5.544c-.352 1.606.088 1.738 1.1 1.738l-.066.286h-5.676l.066-.286c1.122 0 1.518-.132 1.87-1.738l1.188-5.588-2.178-6.754c-.374-1.122-.572-1.848-1.32-1.848l.044-.286h5.28l-.044.286c-1.144 0-1.65.506-1.21 1.848l1.826 5.742 3.388-4.862c1.21-1.738 1.122-2.662-.418-2.728m16.846-.286-.044.286-11.11 15.356h3.542c2.882 0 3.916-.792 4.774-3.96h.352l-1.034 4.818h-11.022l.066-.286L379.516 1.1h-3.41c-2.53 0-3.586.66-4.224 3.3h-.352l.88-4.158zM4.511 40.918c-1.54 0-2.794-1.386-2.794-3.784 0-4.862 3.63-8.8 6.864-8.8a2.38 2.38 0 0 1 2.112 1.232l.286-1.056h2.266L10.67 38.806c-.132.572-.022.748.264.748.308 0 .748-.154 1.21-.484l.132.22c-.946.858-2.134 1.65-3.256 1.65-.88 0-1.276-.638-.924-2.024l.176-.726c-1.188 1.738-2.442 2.728-3.762 2.728m-.088-4.224c0 1.672.484 2.508 1.32 2.508 1.012 0 1.914-.968 2.926-2.596l1.496-6.204c-.286-.814-.836-1.342-1.562-1.342-1.782 0-4.18 3.498-4.18 7.634m13.006-10.032c.308-1.276.286-1.518-.726-1.43l.044-.242 4.158-1.848-1.936 7.876c1.254-1.584 2.75-2.684 4.136-2.684 1.804 0 2.948 1.54 2.948 3.762 0 4.664-3.476 8.822-7.414 8.822-3.014 0-4.29-1.804-3.652-4.4zm0 10.582c-.418 1.672.11 2.882 1.32 2.882 2.266 0 4.598-3.652 4.598-7.546 0-1.518-.396-2.552-1.54-2.552-.792 0-1.98.66-3.168 2.31zM34.58 29.17c-2.09 0-3.872 3.014-3.872 6.248 0 2.134 1.078 3.432 2.64 3.432 1.342 0 2.618-.638 3.762-2.926l.286.088c-1.012 3.278-2.838 4.928-5.214 4.928-2.596 0-4.246-1.914-4.246-4.598 0-4.532 3.564-8.008 6.864-8.008 2.332 0 3.498 1.364 3.498 2.816 0 .924-.462 1.562-1.408 1.562-.836 0-1.166-.484-1.21-1.54-.044-1.1.176-2.002-1.1-2.002m8.254 11.748c-1.782 0-2.992-1.408-2.992-3.85 0-4.84 3.652-8.734 7.106-8.734.99 0 1.65.264 2.134.638l.572-2.31c.308-1.276.286-1.518-.77-1.43l.044-.242 4.202-1.848-3.828 15.642c-.154.616-.022.88.286.88.286 0 .682-.198 1.144-.528l.132.22c-.836.858-1.936 1.562-3.102 1.562-.946 0-1.43-.66-1.056-2.178l.132-.572c-1.254 1.804-2.728 2.75-4.004 2.75m-.286-4.202c0 1.65.506 2.486 1.474 2.486.99 0 2.288-1.1 3.212-2.662l1.54-6.226c-.396-.792-1.034-1.254-1.804-1.254-2.134 0-4.422 3.762-4.422 7.656m14.733 4.202c-2.332 0-4.092-1.936-4.092-4.73 0-4.136 3.432-7.854 6.952-7.854 1.87 0 3.08 1.122 3.08 2.42 0 2.068-2.223 3.498-7.194 4.246-.023.22-.023.44-.023.66 0 2.002.902 3.3 2.64 3.3 1.584 0 2.816-1.254 3.807-3.08l.242.132c-.858 2.618-2.575 4.906-5.413 4.906m2.266-11.77c-1.343 0-3.037 2.024-3.455 5.104 3.256-.594 4.642-1.65 4.642-3.542 0-.858-.395-1.562-1.187-1.562m5.645 10.472 1.892-10.164h-1.342l.198-.946h1.32l.154-.836c.594-3.278 2.332-4.378 3.982-4.378 1.078 0 1.98.616 1.98 1.518 0 .572-.374 1.21-1.188 1.21-1.21 0-.99-1.848-1.848-1.848-.506 0-.858.66-.858 1.474 0 .968.286 1.804.286 2.86h2.288l-.22.946h-2.156c0 .088-.022.198-.044.286l-1.716 8.602c-.836 4.092-2.552 6.776-4.774 6.776-1.232 0-2.068-.682-2.068-1.54 0-.704.418-1.122 1.078-1.122 1.122 0 1.232 1.76 1.826 1.76.726 0 .638-1.408 1.21-4.598m10.174 5.302c-3.059 0-4.863-1.056-4.863-2.486 0-1.232 1.65-2.09 3.432-2.596-1.187-.374-1.738-.924-1.738-1.65 0-1.1 1.145-1.892 2.443-2.53-1.056-.528-1.805-1.474-1.805-2.838 0-2.31 2.09-4.488 4.95-4.488.418 0 .858.066 1.254.176h4.07l-.153.748h-2.618c.77.594 1.407 1.54 1.407 2.728 0 2.244-1.935 4.158-4.95 4.158-.55 0-1.1-.088-1.606-.264-.748.396-1.034.726-1.034 1.056s.352.506.968.66l3.719.858c1.54.33 2.573 1.188 2.573 2.574 0 1.54-1.627 3.894-6.05 3.894m-.023-11.858c0 1.166.419 2.332 1.585 2.332 1.451 0 2.331-1.76 2.331-3.806 0-1.54-.44-2.486-1.54-2.486-1.54 0-2.376 1.716-2.376 3.96m-2.573 9.064c0 1.276 1.188 2.002 3.19 2.002 2.222 0 3.585-.858 3.585-1.958 0-.704-.506-1.1-1.54-1.364l-3.344-.792c-.99.396-1.892 1.078-1.892 2.112m10.63-1.386 3.497-14.08c.308-1.276.286-1.518-.726-1.43l.044-.242 4.158-1.848-2.024 8.14c1.716-1.782 3.366-3.036 4.862-3.036 1.716 0 2.222 1.672 1.672 3.674l-1.936 6.908c-.132.55-.022.726.264.726s.704-.154 1.21-.484l.132.22c-.946.858-2.156 1.65-3.322 1.65-.858 0-1.298-.484-.968-1.65l2.024-7.392c.308-1.144.286-1.87-.528-1.87-1.078 0-2.42 1.034-3.718 2.464l-2.046 8.25zM101.214 27.3c-.902 0-1.452-.528-1.452-1.32 0-.99.858-1.826 1.892-1.826.858 0 1.43.528 1.43 1.32 0 .968-.858 1.826-1.87 1.826m1.078.902-2.64 10.692c-.132.55-.022.77.264.77.308 0 .748-.198 1.21-.528l.132.22c-.836.814-2.046 1.562-3.234 1.562-.968 0-1.32-.638-1.034-1.76l1.76-7.194c.374-1.474.352-1.782-.594-1.694l.044-.264zm5.631-.902c-.902 0-1.452-.528-1.452-1.32 0-.99.858-1.826 1.892-1.826.858 0 1.43.528 1.43 1.32 0 .968-.858 1.826-1.87 1.826m1.078.902-3.08 12.672c-.726 3.036-1.804 4.356-3.784 4.356-1.188 0-1.98-.66-1.98-1.562 0-.682.418-1.122 1.1-1.122 1.166 0 1.034 1.716 1.87 1.716.374 0 .66-.352.66-.99 0-.704-.528-2.134.132-4.928l1.562-6.402c.352-1.452.33-1.76-.638-1.672l.066-.264zm.751 12.54 3.498-14.08c.308-1.276.286-1.518-.726-1.43l.044-.242 4.158-1.848-4.378 17.6zm9.064-1.848c.264.528.462.682.748.682.22 0 .528-.088 1.012-.572l.176.198c-.836 1.056-1.782 1.716-2.728 1.716-.88 0-1.32-.55-1.782-1.65l-2.068-4.796v-.066l3.982-3.674c1.408-1.276 1.012-1.936-.066-1.936l.066-.286h4.136l-.044.286c-.682 0-1.21.286-2.596 1.584l-3.168 2.904zm10.176-15.752-3.762 15.752c-.154.616 0 .77.286.77s.704-.198 1.188-.528l.132.22c-.858.814-2.046 1.562-3.256 1.562-.902 0-1.298-.572-1.012-1.826l2.948-12.43c.308-1.276.286-1.518-.726-1.43l.044-.242zm-.175 17.6 2.156-8.778c.374-1.474.352-1.782-.594-1.694l.044-.264 4.092-1.804-.77 3.124c1.43-1.584 3.036-3.08 4.554-3.08 1.496 0 2.068 1.298 1.804 2.97 1.606-1.76 3.058-2.97 4.466-2.97 1.694 0 2.222 1.672 1.65 3.674l-1.914 6.908c-.154.55-.022.726.264.726.264 0 .704-.154 1.21-.484l.132.22c-.946.858-2.156 1.65-3.322 1.65-.858 0-1.298-.484-.99-1.65l2.024-7.392c.33-1.122.264-1.892-.506-1.892-.924 0-2.112.99-3.278 2.398l-2.068 8.338h-2.596l2.178-8.778c.308-1.21.286-1.958-.506-1.958-1.078 0-2.508 1.452-3.41 2.574l-2.002 8.162zm19.146 0 2.156-8.778c.374-1.474.352-1.782-.594-1.694l.044-.264 4.092-1.804-.748 3.08c1.694-1.782 3.366-3.036 4.84-3.036 1.716 0 2.222 1.672 1.672 3.674l-1.914 6.908c-.154.55-.044.726.264.726.264 0 .704-.154 1.188-.484l.132.22c-.924.858-2.134 1.65-3.322 1.65-.836 0-1.298-.484-.968-1.65l2.024-7.392c.308-1.144.308-1.87-.528-1.87-1.056 0-2.398 1.012-3.674 2.42l-2.046 8.294zm18.036.176c-2.464 0-4.422-1.958-4.422-4.95 0-4.224 3.168-7.634 6.776-7.634 2.53 0 4.4 1.892 4.4 4.84 0 4.312-3.058 7.744-6.754 7.744m-1.782-4.224c0 2.024.638 3.432 2.046 3.432 2.178 0 3.872-4.224 3.872-7.656 0-2.024-.616-3.344-1.98-3.344-2.046 0-3.938 4.048-3.938 7.568m9.285 6.82 2.816-11.55c.374-1.518.33-1.782-.594-1.694l.044-.264 4.092-1.804-.704 2.838c1.276-1.584 2.794-2.706 4.158-2.706 1.826 0 2.97 1.562 2.97 3.762 0 4.664-3.476 8.822-7.326 8.822-.836 0-1.54-.22-2.068-.55l-.748 3.014c-.286 1.166.044 1.386.968 1.386l-.044.264h-4.796l.044-.264c.572 0 .924-.22 1.188-1.254m8.536-13.486c-.792 0-2.002.66-3.19 2.31l-1.562 6.336c.286.924.836 1.452 1.694 1.452 2.266 0 4.576-3.608 4.576-7.546 0-1.518-.374-2.552-1.518-2.552m9.008 10.89c-1.782 0-2.992-1.408-2.992-3.85 0-4.84 3.652-8.734 7.106-8.734 1.496 0 2.464.528 3.102 1.21l1.716-1.1h.088l-3.696 14.938c-.286 1.166 0 1.386.572 1.386l-.044.264h-4.774l.044-.264c.946 0 1.32-.242 1.584-1.342l1.298-5.258c-1.254 1.804-2.728 2.75-4.004 2.75m-.286-4.202c0 1.65.506 2.486 1.474 2.486.99 0 2.288-1.1 3.234-2.684l1.496-5.962c-.33-.924-.924-1.496-1.782-1.496-2.156 0-4.422 3.762-4.422 7.656m9.943 4.026 2.156-8.778c.374-1.474.352-1.782-.594-1.694l.044-.264 4.092-1.804-.748 3.036c1.122-1.914 2.156-2.97 3.278-2.97.836 0 1.298.572 1.298 1.342 0 .99-.66 1.606-1.32 1.606-.682 0-.99-.66-1.584-.66-.572 0-1.232.836-2.024 2.09l-1.98 8.096zm13.364-.594c1.232 0 1.958-.946 1.958-1.936 0-2.508-3.872-3.41-3.872-6.446 0-2.2 1.76-3.454 3.762-3.454 1.276 0 2.134.704 2.596.704.264 0 .418-.176.528-.506h.33l-.748 3.696h-.33c.132-2.178-1.078-3.124-2.398-3.124-1.056 0-1.65.616-1.65 1.584 0 2.156 4.026 3.41 4.026 6.424 0 2.222-1.76 3.828-4.334 3.828-1.584 0-2.464-.792-2.904-.792-.33 0-.528.308-.638.616h-.33l.858-4.224h.33c-.154 2.508 1.056 3.63 2.816 3.63m12.798-2.926c-.704 2.046-1.848 3.718-3.806 3.718-1.672 0-2.662-1.408-2.068-3.784l1.958-7.7h-1.056l.066-.286c1.584-.44 3.014-1.848 4.114-4.268h.484l-.858 3.608h2.86l-.22.946h-2.882l-1.936 8.096c-.33 1.364.044 1.936.704 1.936.726 0 1.518-.594 2.376-2.354zm11.11 1.672c-.132.528-.022.77.286.77s.726-.198 1.21-.528l.132.22c-.836.814-2.046 1.562-3.212 1.562-.924 0-1.386-.572-.99-2.134l.198-.77c-1.276 1.474-2.948 2.926-4.488 2.926-1.628 0-2.376-1.364-1.804-3.564l1.408-5.412c.352-1.386.352-1.804-.616-1.694l.044-.264 4.114-1.804-2.288 8.998c-.352 1.43-.242 1.958.66 1.958.924 0 2.332-1.254 3.3-2.442l2.068-8.206h2.618zm14.237-9.02c0 3.432-3.586 7.964-7.018 11.044h-.638c.198-4.862-.44-8.03-.902-9.966-.264-1.1-.484-1.1-1.1-.924l-.044-.242 2.992-1.584c.968 2.156 1.606 6.028 1.518 9.856 1.936-2.178 3.586-4.686 3.586-6.116 0-1.078-.968-1.518-.968-2.486 0-.748.594-1.21 1.254-1.21.924 0 1.32.704 1.32 1.628m9.117 1.078c-.33-1.1-.506-1.1-1.122-.924l-.044-.242 2.97-1.584c.968 2.156 1.386 6.006 1.232 9.834 1.87-2.2 3.344-4.796 3.344-6.116 0-1.056-.968-1.496-.968-2.464 0-.748.572-1.21 1.254-1.21.902 0 1.32.682 1.32 1.606 0 3.234-3.366 7.986-6.776 11.066h-.638c.11-2.596.11-4.708-.022-6.402-1.276 2.244-3.168 4.664-5.104 6.402h-.638c.22-4.862-.242-8.052-.748-9.966-.286-1.1-.484-1.1-1.1-.924l-.044-.242 2.992-1.584c.968 2.2 1.518 6.006 1.386 9.812 1.43-1.672 2.64-3.696 3.102-5.038a12.7 12.7 0 0 0-.396-2.024m10.344 8.14c.484 0 .968-.814 2.618-4.158l-1.254-3.784c-.396-1.188-.484-1.43-1.606-1.144l.044-.308 3.344-1.496 1.606 4.928c1.496-3.454 2.596-4.928 3.982-4.928.88 0 1.298.528 1.298 1.254s-.33 1.32-1.056 1.32c-.638 0-.946-.594-1.452-.594-.55 0-1.21 1.188-2.442 3.982l1.452 4.466c.198.616.418.968.726.968.264 0 .528-.176.99-.616l.176.198c-.594.814-1.65 1.76-2.64 1.76-.946 0-1.408-.704-1.848-2.068l-.99-2.948c-1.804 3.894-2.662 5.038-4.202 5.038-.88 0-1.452-.616-1.452-1.408 0-.77.506-1.32 1.232-1.32.792 0 .99.858 1.474.858m14.383-10.89c1.144 2.64 2.002 6.93 2.112 10.692 1.98-2.728 3.212-5.566 3.212-6.952 0-1.078-.99-1.518-.99-2.486 0-.748.594-1.21 1.254-1.21.924 0 1.32.704 1.32 1.628 0 2.904-2.376 7.326-5.676 11.374-1.782 2.156-3.784 3.982-5.632 3.982-1.122 0-1.694-.66-1.694-1.452 0-.726.594-1.232 1.32-1.232 1.012 0 1.21 1.144 1.936 1.144.55 0 1.408-.638 2.706-2.046-.176-4.862-1.056-8.338-1.672-10.67-.308-1.078-.506-1.122-1.144-.946l-.044-.242zm18.137 1.034c-1.782 3.322-6.05 6.182-8.888 9.46h3.674c2.376 0 2.706-.418 3.234-2.178h.352l-1.078 4.224h-8.426l.176-.726c1.958-3.3 6.314-6.226 8.998-9.46h-4.026c-1.804 0-2.134.33-2.574 1.826h-.352l.946-3.872h8.14zM5.149 50.486c-.484.154-1.342.352-1.76.374l.044-.286c1.958-.66 3.498-1.65 4.554-2.574h.396L5.259 62.718c-.352 1.606.044 1.738 1.188 1.738l-.066.286H.55l.066-.286c1.21 0 1.606-.132 1.958-1.738zm3.118 14.256.132-.704c1.848-1.54 2.882-2.486 4.4-3.916 2.86-2.75 4.818-5.082 4.818-7.678 0-1.54-.814-2.706-2.266-2.706-1.606 0-2.904 1.276-3.828 3.058l-.352-.154c.814-2.64 2.75-4.642 5.28-4.642 2.662 0 4.048 1.628 4.048 3.828 0 3.146-2.86 5.434-6.886 8.756-.682.572-1.386 1.166-2.266 1.87h4.114c2.508 0 2.904-.352 3.542-1.936h.352l-1.474 4.224zm17.026-8.008-.176-.396c2.86-1.65 4.532-2.948 4.532-4.884 0-1.1-.682-1.826-1.936-1.826-1.474 0-2.574.836-3.476 2.266l-.33-.198c.88-2.09 2.618-3.696 4.884-3.696 2.222 0 3.52 1.232 3.52 2.882 0 1.76-1.408 3.014-3.828 3.982 2.024.242 3.586 1.716 3.586 3.938 0 3.102-2.772 6.094-6.776 6.094-2.508 0-4.114-1.276-4.114-2.882 0-1.078.616-1.672 1.452-1.672.748 0 1.232.462 1.1 1.584-.176 1.518.11 2.2 1.672 2.2 2.156 0 3.762-1.936 3.762-4.906 0-1.958-.902-2.926-2.266-2.926-.682 0-1.188.198-1.606.44m18.181 7.722-.066.286h-5.764l.066-.286c1.144 0 1.54-.132 1.892-1.738l.462-2.2H33.75l.11-.638 10.868-11.836h.704l-2.376 11.11h2.178l-.374 1.364h-2.09l-.462 2.2c-.352 1.606-.022 1.738 1.166 1.738m-7.81-5.302h4.708l1.452-6.798zm21.958-.77c0 3.388-2.816 6.512-6.952 6.512-2.332 0-3.916-1.254-3.916-2.86 0-1.056.528-1.65 1.408-1.65.792 0 1.276.462 1.1 1.562-.22 1.518.132 2.178 1.606 2.178 2.442 0 3.894-2.156 3.894-4.818 0-2.112-1.144-3.3-2.97-3.3-1.078 0-1.98.374-2.816 1.122h-.352l2.662-8.888h7.678l-.748 2.288h-6.688l-1.298 4.29c.726-.484 1.716-.88 2.992-.88 2.376 0 4.422 1.562 4.4 4.444m13.81-.176c0 3.806-3.256 6.754-6.534 6.754-2.464 0-4.774-1.76-4.774-5.434 0-7.194 6.38-10.956 11.396-11.528l-.022.418c-3.586 1.012-7.018 3.498-8.162 8.382 1.078-1.386 2.706-2.508 4.576-2.508 2.002 0 3.52 1.43 3.52 3.916m-8.514 2.354c0 2.706 1.034 3.564 2.222 3.564 2.068 0 3.454-2.53 3.454-5.456 0-2.024-.902-2.838-2.178-2.838-1.144 0-2.464.99-3.322 2.2-.11.792-.176 1.628-.176 2.53m21.76-12.32-.11.616-9.196 15.884h-1.475l8.888-14.344h-5.037c-2.53 0-2.904.44-3.587 1.804h-.352l1.43-3.96zm10.95 3.102c0 1.848-1.672 3.3-3.983 4.246 1.782 1.408 3.124 2.596 3.124 4.4 0 2.772-2.464 4.95-6.006 4.95-2.75 0-4.884-1.32-4.884-3.74 0-2.354 2.024-3.872 4.532-4.84-1.54-1.232-2.243-2.332-2.243-3.784 0-2.75 2.463-4.576 5.257-4.576 2.178 0 4.203 1.188 4.203 3.344m-7.326.264c0 1.584 1.54 2.618 2.837 3.586 1.672-.946 2.487-2.178 2.487-3.784 0-1.518-.859-2.574-2.487-2.574-1.605 0-2.837 1.034-2.837 2.772m-2.113 9.438c0 1.892 1.167 3.058 2.905 3.058 1.958 0 3.366-1.386 3.366-3.014 0-1.848-1.848-3.036-3.542-4.312-1.695.902-2.729 2.244-2.729 4.268m11.583-6.314c0-3.784 3.212-6.732 6.512-6.732 2.464 0 4.774 1.782 4.774 5.434 0 7.414-6.138 10.956-12.078 11.528l.044-.418c4.444-1.122 7.788-3.454 8.888-8.294-1.034 1.342-2.596 2.376-4.378 2.376-2.09 0-3.762-1.43-3.762-3.894m2.816-.418c0 1.98.88 2.794 2.156 2.794 1.166 0 2.486-.77 3.388-2.156.11-.748.154-1.562.154-2.42 0-2.706-.946-3.696-2.244-3.696-2.002 0-3.454 2.508-3.454 5.478M119.003 48c2.574 0 4.774 2.068 4.774 6.05 0 5.368-3.322 10.912-8.052 10.912-2.728 0-4.928-2.134-4.928-6.182 0-5.192 3.432-10.78 8.206-10.78m-.352.836c-3.388 0-4.972 6.622-4.972 11 0 2.904 1.034 4.312 2.288 4.312 3.322 0 4.906-6.842 4.906-11 0-2.816-.99-4.312-2.222-4.312m8.59 1.54c.11-1.914.88-2.464 1.738-2.464.88 0 1.76.836.946 2.816l-3.168 8.756h-.352zm-1.672 14.52c-.77 0-1.32-.572-1.32-1.342 0-.858.704-1.65 1.716-1.65.836 0 1.342.528 1.342 1.254 0 .924-.66 1.738-1.738 1.738m7.747-5.412c-.066-2.288 1.1-3.52 2.53-4.862 1.43-1.32 2.266-2.332 2.266-3.85 0-1.232-.682-2.046-1.848-2.046-.814 0-1.188.396-1.474 1.914-.176 1.056-.484 1.65-1.408 1.65-.726 0-1.232-.374-1.232-1.144 0-1.65 1.782-3.212 4.29-3.212 2.882 0 4.224 1.628 4.224 3.256 0 1.958-1.188 2.948-3.498 4.4-1.98 1.232-3.146 2.222-3.498 3.894zm-.418 5.412c-.792 0-1.32-.572-1.32-1.342 0-.858.704-1.65 1.716-1.65.814 0 1.32.528 1.32 1.254 0 .924-.638 1.738-1.716 1.738m16.166-.814c-1.606 0-2.75-1.122-2.75-3.256 0-4.29 3.96-7.92 6.93-7.92 1.034 0 1.694.44 2.046 1.078l.33-.946h2.486l-2.486 7.722c-.462 1.43-.506 2.068.682 2.068 2.112 0 4.862-2.882 4.862-7.084 0-5.06-3.52-6.952-7.238-6.952-5.478 0-10.846 4.356-10.846 10.89 0 6.16 3.894 8.492 8.47 8.492 2.552 0 4.73-.748 6.006-1.716l.22.264c-1.122 1.122-3.63 2.42-6.82 2.42-5.192 0-9.724-2.926-9.724-8.822 0-7.282 6.314-12.298 12.694-12.298 4.664 0 8.58 2.31 8.58 7.194 0 5.126-3.784 8.866-7.304 8.866-1.65 0-2.53-.88-2.376-2.42-.924 1.32-2.244 2.42-3.762 2.42m-.044-3.52c0 1.188.308 1.892 1.166 1.892 1.166 0 2.266-1.21 3.124-2.618l1.496-4.4c-.11-1.188-.748-1.782-1.54-1.782-1.958 0-4.246 3.432-4.246 6.908m15.617-2.684h2.31l1.122-3.08h-2.134l.22-1.76h2.552l1.738-4.796h.858l-1.738 4.796h2.794l1.738-4.796h.836l-1.738 4.796h1.892l-.22 1.76h-2.31l-1.122 3.08h2.134l-.242 1.76h-2.53l-1.848 5.104h-.836l1.848-5.104h-2.816l-1.848 5.104h-.836l1.848-5.104h-1.914zm3.168 0h2.794l1.122-3.08h-2.794zM183.122 48h.132l.286-1.32h.638l-.286 1.364c2.024.198 3.652 1.166 3.652 2.552 0 .924-.484 1.54-1.342 1.54-.836 0-1.188-.418-1.144-1.276.11-1.188-.198-1.804-1.342-1.98l-1.254 5.852 1.232 1.034c1.408 1.188 2.332 2.398 2.332 4.158 0 2.728-2.178 5.016-5.852 5.016h-.11l-.462 2.156h-.638l.462-2.178c-2.508-.22-4.026-1.474-4.026-2.97 0-1.012.528-1.65 1.452-1.65.836 0 1.254.418 1.1 1.518-.176 1.342.264 2.068 1.65 2.244l1.452-6.754-1.232-1.034c-1.144-.99-1.914-2.244-1.914-3.718 0-2.772 2.376-4.554 5.214-4.554m-1.43 6.072.22.198 1.166-5.434h-.154c-1.474 0-2.728.858-2.728 2.618 0 1.1.726 1.958 1.496 2.618m.154 3.916-.264-.22-1.342 6.336h.132c1.87 0 3.168-1.21 3.168-3.08 0-1.21-.616-2.134-1.694-3.036m10.514-1.848c-1.386 0-2.816-.924-2.816-3.124 0-2.948 2.266-5.016 4.334-5.016 1.32 0 2.794.924 2.794 3.168 0 2.838-2.2 4.972-4.312 4.972m-4.554 8.602 14.41-16.5h1.1l-14.41 16.5zm4.774-9.328c1.056 0 2.112-2.332 2.112-4.818 0-1.21-.286-1.87-1.034-1.87-1.078 0-2.134 2.288-2.134 4.862 0 1.166.286 1.826 1.056 1.826m4.818 9.526c-1.364 0-2.794-.924-2.794-3.124 0-2.948 2.266-5.016 4.334-5.016 1.298 0 2.794.924 2.794 3.168 0 2.838-2.2 4.972-4.334 4.972m.242-.726c1.034 0 2.112-2.332 2.112-4.818 0-1.21-.286-1.87-1.034-1.87-1.1 0-2.134 2.288-2.134 4.862 0 1.166.286 1.826 1.056 1.826m14.76-9.79-2.882-4.994-2.904 4.994h-1.012l3.696-6.38h.44l3.696 6.38zm12.349 6.842c1.364 2.596 1.804 3.08 3.014 3.19l-.044.286h-1.364c-1.452 0-2.508-.594-3.432-1.738-1.254 1.078-2.772 1.892-4.708 1.892-2.552 0-4.378-1.738-4.378-3.938 0-2.772 2.266-4.378 4.906-5.302-.66-1.1-1.056-2.266-1.056-3.432 0-2.53 2.09-4.136 4.532-4.136 2.046 0 3.564 1.144 3.564 2.97 0 1.87-1.672 3.278-4.224 4.312l2.75 5.06c1.034-1.364 1.782-2.992 1.782-3.806 0-.55-.33-.836-1.21-.836l.044-.286h4.026l-.044.286c-.77 0-1.342.44-1.936 1.606-.616 1.276-1.254 2.53-2.266 3.784zm-4.62-9.856c0 1.254.418 2.376 1.1 3.41 1.738-.924 2.508-2.288 2.508-3.74 0-1.342-.66-2.134-1.672-2.134-1.1 0-1.936.924-1.936 2.464m-3.586 8.822c0 1.98 1.188 3.19 3.036 3.19.968 0 1.936-.418 2.86-1.1a7 7 0 0 1-.484-.792l-2.86-5.28c-1.54.88-2.552 2.134-2.552 3.982m16.264-7.898c0-.352.33-.682 1.056-.99l1.056-.462-1.1-.11c-.748-.066-1.32-.352-1.32-.858 0-.418.264-.792.726-.792.352 0 .682.264 1.1.726l.66.726-.22-1.056c-.198-1.034.088-1.562.704-1.562.462 0 .77.242.77.682 0 .286-.088.616-.33 1.034l-.572.99.88-.484c.374-.198.682-.396 1.012-.396.462 0 .748.33.748.704 0 .506-.352.792-.902.792-.198 0-.506-.022-1.76-.308l.836.704c.484.396.748.726.748 1.1 0 .352-.352.748-.836.748-.44 0-.77-.396-.858-1.32l-.11-1.122-.462 1.034c-.308.682-.66 1.034-1.034 1.034s-.792-.374-.792-.814m8.383 16.192c-1.958-2.53-3.146-5.324-3.146-8.558 0-4.884 3.146-9.46 7.744-12.716l.308.33c-3.784 3.718-5.984 8.47-5.984 13.2 0 2.794.462 5.192 1.496 7.502zm1.92 0-.33-.352c3.806-3.696 6.006-8.448 6.006-13.2 0-2.794-.484-5.17-1.518-7.48l.418-.242c1.98 2.53 3.146 5.324 3.146 8.558 0 4.884-3.124 9.438-7.722 12.716m12.943-.484h-4.4l4.4-20.702h4.4l-.066.308c-2.068 0-2.464.11-2.816 1.716l-3.52 16.654c-.352 1.584 0 1.716 2.068 1.716zm1.632 0 .066-.308c2.068 0 2.486-.132 2.816-1.716l3.542-16.654c.33-1.606-.022-1.716-2.09-1.716l.066-.308h4.4l-4.4 20.702zm10.961-10.384c1.452.44 2.134 1.144 2.134 2.2 0 1.452-2.046 4.378-2.046 5.874 0 .88.396 1.562 2.068 2.002l-.154.418c-2.618-.484-3.916-1.386-3.916-2.86 0-1.936 2.486-4.378 2.486-5.786 0-.858-.528-1.562-2.31-1.848l.066-.308c2.464-.088 3.19-.902 3.19-2.112 0-1.32-.594-2.948-.374-4.708.22-2.068 1.914-3.058 5.324-3.19l-.022.418c-2.442.22-3.014 1.188-3.124 2.596-.22 1.606-.066 2.816-.066 4.202 0 1.782-1.056 2.684-3.234 3.058zm10.384.176c-1.452-.44-2.156-1.144-2.156-2.2 0-1.452 2.068-4.378 2.068-5.874 0-.88-.396-1.562-2.068-2.002l.132-.418c2.64.484 3.916 1.386 3.916 2.86 0 1.936-2.464 4.378-2.464 5.786 0 .858.528 1.562 2.31 1.848l-.066.308c-2.464.088-3.212.902-3.212 2.112 0 1.32.594 2.948.396 4.708-.242 2.068-1.914 3.058-5.324 3.19l.022-.418c2.442-.22 2.992-1.188 3.124-2.596.198-1.606.066-2.816.066-4.202 0-1.782 1.056-2.684 3.234-3.058zm11.727 2.31v.946l-7.92-4.026v-.44l7.92-4.026v.946l-6.578 3.3zm10.729-3.08-7.92 4.026v-.946l6.578-3.3-6.578-3.3v-.946l7.92 4.026zm2.524-.594h5.368l-.396 1.76h-5.368zm11.956 4.928v-4.224h-3.74v-.88h3.74V52.07h.968v4.224h3.74v.88h-3.74v4.224z"/></svg>