<svg xmlns="http://www.w3.org/2000/svg" fill="none" viewBox="0 0 387 70"><path fill="#1f1f1f" d="m4.907 16.456-.044.286H0l.066-.286c.858 0 1.298-.462 2.178-1.958L10.715.066h.418l2.486 14.388c.242 1.386.374 2.002 1.21 2.002l-.066.286H8.647l.066-.286c1.21 0 1.672-.418 1.43-2.002l-.462-2.882H5.039L3.85 13.64c-1.188 2.09-.66 2.706 1.056 2.816m.616-5.742h4.026l-.88-5.5zm14.834-8.448c.352-1.628 0-1.738-.924-1.738l.066-.286h5.764c2.75 0 5.236 1.298 5.236 3.608 0 2.09-1.848 3.63-4.026 4.18 2.068.462 3.432 1.76 3.432 3.564 0 3.102-3.014 5.148-7.04 5.148h-6.886l.066-.286c.924 0 1.342-.132 1.672-1.738zM24.69 1.1h-.66l-1.364 6.578h1.254c2.508 0 3.234-2.508 3.234-4.224 0-1.452-.726-2.354-2.464-2.354m-.968 7.436H22.49l-1.54 7.348h1.782c2.398 0 3.586-2.112 3.586-4.664 0-1.628-.726-2.684-2.596-2.684m14.504 8.426c-3.784 0-5.896-2.75-5.896-6.38C32.33 3.828 37.193 0 41.373 0c1.892 0 2.838.792 3.476.792.374 0 .638-.22.748-.55h.33L44.805 5.5h-.352C44.607 2.09 43 .836 41.285.836c-2.882 0-5.236 3.784-5.236 8.866 0 3.08 1.518 4.95 3.696 4.95 1.474 0 3.08-.88 4.378-3.674l.374.132c-1.144 3.718-3.278 5.852-6.27 5.852M48.553.528l.066-.286h5.83c4.268 0 6.864 2.574 6.864 6.512 0 5.06-3.675 9.988-9.702 9.988h-6.512l.066-.286c.924 0 1.32-.132 1.672-1.738l2.64-12.452c.352-1.628 0-1.738-.924-1.738m3.08 15.356c3.915 0 6.072-4.752 6.072-10.01 0-3.454-1.1-4.774-3.697-4.774h-.77l-3.167 14.784zM65.465 2.266c.352-1.628 0-1.738-.924-1.738l.066-.286h10.868l-.858 4.004h-.352c.396-2.222-.176-3.146-2.882-3.146h-2.156L67.82 7.678h1.804c1.452 0 2.134-.594 2.552-2.244h.308l-1.144 5.368h-.308c.264-1.562-.132-2.266-1.584-2.266h-1.804l-1.584 7.348h2.64c2.86 0 3.828-.858 4.62-3.718h.352l-.968 4.576H61.087l.066-.286c.924 0 1.32-.132 1.672-1.738zm13.41 0c.353-1.628 0-1.738-.923-1.738l.066-.286h11.198l-.88 4.136h-.352c.418-2.354-.154-3.278-2.86-3.278h-2.486l-1.43 6.732H83.1c1.452 0 2.134-.594 2.53-2.244h.352l-1.166 5.39h-.33c.286-1.584-.11-2.288-1.562-2.288H81.01l-1.276 6.028c-.352 1.606.088 1.738 1.144 1.738l-.066.286h-6.314l.066-.286c.924 0 1.32-.132 1.672-1.738zm22.134 13.266c-1.056.748-2.926 1.452-5.148 1.452-4.422 0-6.644-3.014-6.644-6.6C89.217 3.498 94.431 0 98.59 0c2.222 0 3.212.792 3.806.792.374 0 .638-.22.726-.55h.352l-1.1 5.104h-.352c.066-3.278-1.562-4.51-3.52-4.51-2.926 0-5.588 3.982-5.588 10.274 0 2.728.924 5.06 2.992 5.06.99 0 1.54-.396 1.738-1.386l.792-3.74c.352-1.628-.088-1.738-1.056-1.738l.066-.286h6.094l-.066.286c-.77 0-1.188.132-1.518 1.738zm6.536-13.266c.352-1.628 0-1.738-.924-1.738l.066-.286h6.16l-.066.286c-.902 0-1.386.11-1.738 1.738l-1.144 5.39h5.412l1.144-5.39c.352-1.628-.088-1.738-1.012-1.738l.066-.286h6.16l-.066.286c-.902 0-1.298.11-1.65 1.738l-2.64 12.452c-.33 1.606 0 1.738.902 1.738l-.066.286h-6.138l.044-.286c.924 0 1.43-.132 1.76-1.738l1.32-6.204h-5.412l-1.32 6.204c-.33 1.606.088 1.738.99 1.738l-.066.286h-6.16l.066-.286c.924 0 1.342-.132 1.672-1.738zm16.655 0c.352-1.628-.022-1.738-.946-1.738l.066-.286h6.116l-.044.286c-.902 0-1.32.11-1.672 1.738l-2.64 12.452c-.352 1.606.022 1.738.924 1.738l-.066.286H119.8l.066-.286c.924 0 1.342-.132 1.694-1.738zm8.004 13.86c.946 0 1.496-.968 2.046-3.52l2.2-10.34c.33-1.606-.066-1.738-1.144-1.738l.066-.286h6.204l-.066.286c-.814 0-1.21.132-1.562 1.738l-2.112 9.966c-.66 3.102-2.662 4.752-5.61 4.752-2.838 0-4.268-1.364-4.268-3.168 0-1.452.792-2.222 2.002-2.222.99 0 1.76.616 1.43 2.156-.396 1.848-.132 2.376.814 2.376m11.791-13.86c.352-1.628 0-1.738-.924-1.738l.066-.286h6.16l-.066.286c-.902 0-1.386.11-1.738 1.738l-2.64 12.452c-.352 1.606.088 1.738.99 1.738l-.066.286h-6.16l.066-.286c.924 0 1.32-.132 1.672-1.738zm2.618 5.83 5.676-5.434c1.496-1.43 1.166-2.134.066-2.134l.044-.286h4.4l-.044.286c-.462 0-1.188.22-2.64 1.606l-4.334 4.158 3.146 8.58c.484 1.298.682 1.584 1.21 1.584l-.044.286h-5.874l.066-.286c1.144 0 1.276-.462.968-1.298l-2.662-6.974zm10.451 6.622 2.64-12.452c.33-1.606 0-1.738-.924-1.738l.066-.286h6.292l-.044.286c-1.056 0-1.54.132-1.892 1.738l-2.904 13.618h2.288c2.75 0 3.718-.814 4.488-3.718h.352l-.968 4.576h-11.132l.066-.286c.924 0 1.32-.11 1.672-1.738m15.514-12.452c.308-1.452-.022-1.694-.924-1.738l.066-.286H177l1.276 9.966 5.5-9.966h5.192l-.066.286c-.902 0-1.298.11-1.65 1.738l-2.64 12.452c-.33 1.606 0 1.738.902 1.738l-.066.286h-6.16l.066-.286c.902 0 1.386-.132 1.738-1.738l2.64-12.408-7.92 14.322h-.33l-1.87-14.278-2.552 11.902c-.352 1.76.286 2.2 1.298 2.2l-.066.286H168.2l.066-.286c.924 0 1.342-.22 1.716-2.024zm25.993 14.586-6.006-14.608-2.53 11.946c-.374 1.76.286 2.266 1.43 2.266l-.044.286h-4.268l.066-.286c.902 0 1.342-.286 1.738-2.09l2.574-12.1c.308-1.452-.022-1.694-.924-1.738l.044-.286h5.148l3.718 9.416 1.452-6.864c.396-1.804-.22-2.266-1.298-2.266l.044-.286h4.202l-.044.286c-1.012 0-1.43.308-1.826 2.09l-3.014 14.234zm11.002.132c-3.696 0-5.896-2.552-5.896-6.622 0-4.62 3.366-10.362 9.108-10.362 3.52 0 5.676 2.508 5.676 6.358 0 4.73-3.256 10.626-8.888 10.626M212.389.836c-3.366 0-5.038 6.732-5.038 10.89 0 2.706.704 4.422 2.508 4.422 3.278 0 4.928-6.93 4.928-10.758 0-2.794-.77-4.554-2.398-4.554m13.627 8.932h-1.386l-1.056 4.95c-.352 1.606.088 1.738 1.1 1.738l-.088.286h-6.336l.066-.286c.99 0 1.386-.132 1.738-1.738l2.64-12.452c.352-1.628 0-1.738-.99-1.738l.066-.286h6.05c3.234 0 5.478 1.474 5.478 4.136 0 3.102-2.75 5.39-7.282 5.39m1.386-8.668h-.946l-1.65 7.81h1.474c2.464 0 3.63-2.156 3.63-4.862 0-1.958-.902-2.948-2.508-2.948m18.356 18.414c-3.828 0-5.544-.946-6.534-2.618-2.97-.506-4.708-2.926-4.708-6.534 0-4.62 3.366-10.362 9.108-10.362 3.52 0 5.676 2.508 5.676 6.358 0 3.982-2.31 8.8-6.424 10.208.836 1.694 2.046 2.508 3.718 2.662l-.066.286zm-5.06-3.366c3.278 0 4.928-6.93 4.928-10.758 0-2.794-.77-4.554-2.398-4.554-3.366 0-5.038 6.732-5.038 10.89 0 2.706.704 4.422 2.508 4.422m21.632-1.738c.594 1.716.858 1.936 1.628 2.046l-.066.286h-4.4l-2.684-7.832h-1.056l-1.232 5.808c-.352 1.606.088 1.738 1.056 1.738l-.066.286h-6.314l.066-.286c.99 0 1.386-.132 1.738-1.738l2.64-12.452c.352-1.628 0-1.738-.99-1.738l.066-.286h5.874c3.212 0 5.83 1.188 5.83 3.784 0 1.98-1.408 3.74-4.136 4.488zM258.26 1.1h-.858l-1.474 6.952h1.1c3.102 0 3.938-2.002 3.938-4.07 0-2.002-.88-2.882-2.706-2.882m11.996 14.982c1.826 0 3.08-1.056 3.08-2.86 0-1.188-.484-2.024-1.694-3.036l-1.54-1.276c-1.452-1.232-2.134-2.596-2.134-4.136 0-2.948 2.398-4.774 5.192-4.774 1.936 0 2.97.814 3.586.814.242 0 .484-.176.594-.572h.308l-.924 4.312h-.33c-.11-2.772-1.496-3.696-3.124-3.696-1.452 0-2.53.77-2.53 2.332 0 1.1.66 1.87 1.716 2.75l1.386 1.166c1.782 1.474 2.508 2.706 2.508 4.532 0 3.036-2.53 5.346-6.028 5.346-2.442 0-3.388-.858-3.982-.858-.264 0-.572.176-.682.616h-.33l1.122-5.214h.352c-.396 2.926 1.012 4.554 3.454 4.554m9.047-11.418.946-4.422h12.452l-.946 4.422h-.352c.572-2.97-.374-3.564-2.376-3.564h-.968l-2.904 13.618c-.352 1.606.088 1.738 1.1 1.738l-.066.286h-6.468l.066-.286c1.122 0 1.518-.132 1.848-1.738L284.539 1.1h-1.012c-2.002 0-3.168.594-3.872 3.564zm14.004 6.424 1.87-8.822c.33-1.606 0-1.738-.792-1.738l.066-.286h6.028l-.066.286c-.902 0-1.408.132-1.738 1.738l-1.826 8.668c-.594 2.728.396 4.18 2.86 4.18 2.112 0 3.212-1.254 3.63-3.234l1.936-9.152c.374-1.76-.264-2.2-1.276-2.2l.066-.286h3.96l-.066.286c-.792 0-1.21.22-1.584 2.024l-2.024 9.526c-.594 2.706-2.112 4.906-5.61 4.906-4.202 0-6.182-2.398-5.434-5.896m27.91-8.602-8.382 14.432h-.44L310.393 2.53c-.198-1.386-.374-2.002-1.21-2.002l.066-.286h6.094l-.044.286c-1.21 0-1.628.396-1.43 2.002l1.078 8.954 4.664-8.14c1.144-2.024.704-2.728-.99-2.816l.066-.286h4.73l-.044.286c-.858 0-1.32.484-2.156 1.958M339.63.528l.044-.286h4.312l-.066.286c-.704 0-1.21.506-2.002 1.958l-7.634 14.432h-.44l-.968-10.78-5.94 10.78h-.44L325.154 2.53c-.132-1.386-.308-2.002-.99-2.002l.044-.286h5.632l-.066.286c-1.078 0-1.276.374-1.144 2.002l.616 8.294 3.476-6.27-.176-2.024c-.132-1.386-.308-2.002-.968-2.002l.066-.286h5.632l-.044.286c-1.1 0-1.408.374-1.298 2.002l.616 8.074 3.806-7.238c1.034-1.958.638-2.75-.726-2.838m10.979 14.344-1.716-5.17-2.992 3.916c-1.474 1.936-1.232 2.838.374 2.838l-.066.286h-4.818l.066-.286c.66 0 1.386-.506 2.574-2.024l4.532-5.808-2.178-6.578c-.396-1.232-.638-1.518-1.232-1.518l.044-.286h5.94l-.066.286c-1.1 0-1.364.33-1.034 1.32l1.54 4.686 2.486-3.234c1.452-1.892 1.298-2.772-.088-2.772l.044-.286h4.246l-.066.286c-.572 0-1.21.506-2.09 1.672l-4.202 5.39 2.332 7.084c.44 1.342.726 1.782 1.342 1.782l-.088.286h-5.962l.066-.286c1.122 0 1.408-.33 1.012-1.584M368.941.528l.066-.286h4.356l-.044.286c-.682.022-1.254.594-2.178 1.958l-4.488 6.468-1.21 5.764c-.352 1.606.088 1.738 1.1 1.738l-.044.286h-6.49l.066-.286c1.122 0 1.518-.132 1.87-1.738l1.21-5.808-2.046-6.666c-.308-1.012-.506-1.716-1.188-1.716l.044-.286h5.984l-.066.286c-1.1 0-1.562.506-1.21 1.716l1.694 5.566 3.014-4.4c1.254-1.804 1.122-2.816-.44-2.882m17.196-.286-.066.286-10.648 15.356h2.86c3.102 0 4.136-.946 4.95-3.938h.352l-1.012 4.796h-11.374l.066-.286L381.935 1.1h-2.706c-2.904 0-3.85.946-4.444 3.322h-.352l.902-4.18zM4.467 40.918c-1.496 0-2.75-1.43-2.75-3.74 0-4.972 3.674-8.844 7.04-8.844.902 0 1.584.418 1.958.99l.264-.814h2.926l-2.508 10.032c-.154.594-.044.792.286.792.308 0 .682-.132 1.034-.374l.132.264c-1.122.902-2.464 1.716-3.696 1.716-.99 0-1.43-.726-1.078-2.332-1.056 1.452-2.266 2.31-3.608 2.31m.748-4.158c0 1.452.44 2.134 1.1 2.134.726 0 1.408-.638 2.112-1.738l1.76-7.018c-.264-.66-.726-1.034-1.276-1.034-1.672 0-3.696 3.652-3.696 7.656m12.577-9.856c.33-1.276.198-1.452-.748-1.364l.044-.286 5.016-2.09-1.892 7.568c1.188-1.452 2.596-2.398 3.872-2.398 1.716 0 2.948 1.496 2.948 3.762 0 4.862-3.564 8.822-7.458 8.822-3.234 0-4.818-1.804-4.158-4.466zm.726 10.604c-.374 1.474.066 2.618 1.056 2.618 1.958 0 3.96-3.806 3.96-7.612 0-1.364-.418-2.156-1.298-2.156-.616 0-1.518.506-2.332 1.606zm17.14-8.36c-1.65 0-3.233 2.552-3.233 5.896 0 2.178.99 3.278 2.464 3.278 1.21 0 2.397-.66 3.432-2.618l.285.11c-1.034 3.256-2.837 5.126-5.434 5.126-2.64 0-4.29-1.892-4.29-4.664 0-4.378 3.498-7.942 6.974-7.942 2.355 0 3.608 1.386 3.608 2.882 0 1.078-.527 1.848-1.65 1.848-.901 0-1.43-.506-1.43-1.584-.022-1.122.66-2.332-.726-2.332m8.058 11.77c-1.738 0-2.992-1.43-2.992-3.784 0-4.972 3.652-8.8 7.216-8.8.836 0 1.43.198 1.892.528l.462-1.958c.308-1.298.198-1.474-.858-1.364l.044-.286 5.126-2.09-3.784 15.466c-.154.638 0 .924.308.924.33 0 .682-.22 1.034-.44l.132.242c-.924.836-2.2 1.584-3.542 1.584-1.144 0-1.628-.858-1.276-2.354l.022-.11c-1.21 1.584-2.574 2.442-3.784 2.442m.506-4.158c0 1.408.44 2.134 1.232 2.134.748 0 1.672-.704 2.398-1.826l1.672-6.974c-.352-.66-.902-.99-1.474-.99-1.87 0-3.828 3.872-3.828 7.656m14.417 4.158c-2.355 0-4.225-1.936-4.225-4.818 0-4.268 3.367-7.766 6.953-7.766 1.98 0 3.41 1.1 3.41 2.574 0 1.804-1.892 3.234-6.754 3.938v.528c0 1.87.813 3.08 2.463 3.08 1.387 0 2.597-1.034 3.542-2.75l.286.11c-.945 2.684-2.771 5.104-5.675 5.104m2.133-11.792c-1.121 0-2.398 2.09-2.683 5.016 2.684-.594 3.63-1.606 3.63-3.52 0-.88-.33-1.496-.947-1.496m5.903 9.724 1.694-9.394h-1.21l.22-.946h1.166l.11-.594c.594-3.256 2.332-4.62 4.29-4.62 1.232 0 2.332.726 2.332 1.804 0 .66-.374 1.386-1.342 1.386-1.452 0-1.21-2.288-2.134-2.288-.396 0-.66.484-.66 1.122 0 .924.462 1.848.572 3.19h2.31l-.22.946h-2.09c-.044.308-.088.66-.154 1.012l-1.518 7.436c-.792 3.872-2.64 7.216-5.17 7.216-1.43 0-2.266-.77-2.266-1.738 0-.792.484-1.254 1.232-1.254 1.342 0 1.254 2.046 1.848 2.046.748 0 .33-1.76.99-5.324m10.803 6.094c-3.388 0-5.104-1.122-5.104-2.442 0-1.144 1.386-1.892 3.234-2.354-1.078-.352-1.628-.924-1.628-1.694 0-1.276 1.188-2.134 2.684-2.838-1.166-.528-1.936-1.518-1.936-2.904 0-2.266 2.112-4.378 5.126-4.378.462 0 .946.066 1.386.176h4.224l-.154.748h-2.618c.726.55 1.452 1.452 1.452 2.816 0 2.266-1.98 4.048-4.994 4.048a6.6 6.6 0 0 1-1.914-.264c-.616.374-.836.682-.836.968 0 .308.352.462.99.594l3.498.682c1.782.33 2.882 1.276 2.882 2.662 0 1.87-1.914 4.18-6.292 4.18m.374-11.836c0 1.298.374 2.222 1.298 2.222 1.166 0 1.914-1.76 1.914-3.916 0-1.496-.396-2.31-1.254-2.31-1.298 0-1.958 1.782-1.958 4.004m-2.75 8.998c0 1.232 1.21 1.958 3.146 1.958 2.09 0 3.19-.77 3.19-1.738 0-.616-.462-.99-1.496-1.21l-3.652-.792c-.682.374-1.188.99-1.188 1.782m10.421-1.364 3.432-13.838c.33-1.276.198-1.452-.748-1.364l.044-.286 5.016-2.09-2.002 8.052c1.848-1.892 3.3-2.97 4.708-2.97 1.694 0 2.244 1.76 1.716 3.674l-1.826 6.622c-.154.594 0 .792.286.792.264 0 .66-.132 1.056-.374l.132.264c-1.144.902-2.486 1.716-3.828 1.716-.99 0-1.496-.506-1.122-1.848l1.958-7.194c.264-.946.176-1.474-.44-1.474-.704 0-1.87.792-2.926 1.958l-2.09 8.36zm18.599-12.98c-1.056 0-1.738-.616-1.738-1.584 0-1.188 1.012-2.156 2.266-2.156 1.012 0 1.738.616 1.738 1.606 0 1.122-1.034 2.134-2.266 2.134m1.496.484L103 38.674c-.132.594-.022.88.308.88.308 0 .682-.22 1.034-.44l.132.242c-.924.814-2.288 1.584-3.652 1.584-1.188 0-1.518-.836-1.232-2.024l1.672-6.798c.374-1.474.198-1.694-.638-1.606l.066-.286zm5.62-.484c-1.056 0-1.738-.616-1.738-1.584 0-1.188 1.012-2.156 2.266-2.156 1.012 0 1.738.616 1.738 1.606 0 1.122-1.034 2.134-2.266 2.134m1.474.484-2.97 12.342c-.77 3.234-2.002 4.642-4.158 4.642-1.232 0-2.2-.638-2.2-1.716 0-.726.44-1.21 1.166-1.21 1.298 0 1.1 1.958 2.002 1.958.352 0 .638-.286.638-.814 0-.88-.99-2.222-.176-5.632l1.408-5.764c.33-1.386.154-1.628-.682-1.54l.044-.286zm.453 12.496 3.432-13.838c.33-1.276.198-1.452-.748-1.364l.044-.286 5.016-2.09-4.378 17.578zm10.142-1.98c.154.418.352.616.66.616.198 0 .484-.088.88-.462l.176.22c-.748.902-1.98 1.804-3.212 1.804-1.078 0-1.584-.704-1.98-1.914l-1.562-4.51v-.066l3.85-3.542c1.584-1.452 1.078-2.112 0-2.112l.066-.286h4.312l-.066.286c-.572 0-1.21.286-2.53 1.518l-2.662 2.464zm10.774-15.598-3.74 15.51c-.154.638 0 .88.308.88.33 0 .682-.22 1.034-.44l.132.242c-.924.814-2.266 1.584-3.652 1.584-1.166 0-1.518-.814-1.21-2.068l2.816-11.968c.308-1.276.198-1.452-.748-1.364l.044-.286zm-.453 17.578 2.134-8.624c.374-1.474.198-1.694-.638-1.606l.066-.286 4.928-1.98-.726 2.904c1.65-1.738 3.058-2.904 4.422-2.904 1.386 0 2.068 1.21 1.892 2.882 1.76-1.848 3.102-2.882 4.422-2.882 1.694 0 2.244 1.76 1.738 3.674l-1.826 6.622c-.154.594-.022.792.286.792.264 0 .638-.132 1.034-.374l.132.264c-1.122.902-2.464 1.716-3.828 1.716-.968 0-1.474-.506-1.122-1.848l1.98-7.194c.242-.902.132-1.496-.44-1.496-.638 0-1.65.748-2.596 1.826l-2.134 8.514h-3.366l2.2-8.822c.242-.924.176-1.518-.418-1.518-.726 0-1.826.924-2.662 1.892l-2.112 8.448zm19.641 0 2.134-8.624c.374-1.474.198-1.694-.638-1.606l.066-.286 4.928-1.98-.748 2.97c1.848-1.892 3.322-2.97 4.708-2.97 1.694 0 2.244 1.76 1.716 3.674l-1.826 6.622c-.154.594 0 .792.286.792.264 0 .66-.132 1.056-.374l.132.264c-1.144.902-2.486 1.716-3.828 1.716-.99 0-1.496-.506-1.122-1.848l1.958-7.194c.264-.946.176-1.474-.44-1.474-.704 0-1.848.792-2.926 1.958l-2.09 8.36zm18.774.176c-2.486 0-4.642-1.716-4.642-4.928 0-4.136 3.278-7.656 6.974-7.656 2.508 0 4.664 1.694 4.664 4.862 0 4.158-3.168 7.722-6.996 7.722m-1.254-3.894c0 1.87.484 3.08 1.562 3.08 1.804 0 3.3-4.708 3.3-7.92 0-1.958-.484-3.036-1.452-3.036-1.76 0-3.41 4.29-3.41 7.876m8.705 6.622 2.816-11.528c.374-1.474.198-1.694-.638-1.606l.066-.286 4.928-1.98-.616 2.486c1.188-1.452 2.596-2.398 3.872-2.398 1.76 0 2.948 1.496 2.948 3.762 0 4.862-3.564 8.822-7.304 8.822-.792 0-1.43-.132-1.936-.374l-.704 2.838c-.286 1.166.044 1.386.836 1.386l-.066.264h-5.302l.044-.264c.55 0 .836-.22 1.056-1.122m8.58-13.288c-.616 0-1.518.506-2.332 1.584l-1.694 6.886c.264.902.77 1.298 1.386 1.298 1.936 0 3.938-3.806 3.938-7.612 0-1.364-.418-2.156-1.298-2.156m9.483 10.56c-1.738 0-2.992-1.43-2.992-3.784 0-4.972 3.652-8.8 7.216-8.8 1.452 0 2.486.528 3.168 1.254l2.178-1.21h.066l-3.696 15.004c-.286 1.166-.066 1.386.528 1.386l-.066.264h-5.302l.066-.264c.792 0 1.144-.308 1.386-1.32l1.232-4.972c-1.21 1.584-2.574 2.442-3.784 2.442m.506-4.158c0 1.408.44 2.134 1.232 2.134.77 0 1.672-.704 2.398-1.848l1.606-6.446c-.22-.99-.726-1.496-1.43-1.496-1.914 0-3.806 3.85-3.806 7.656m9.536 3.982 2.134-8.624c.374-1.474.198-1.694-.638-1.606l.066-.286 4.928-1.98-.726 2.882c1.078-1.848 2.09-2.882 3.234-2.882.858 0 1.452.594 1.452 1.562 0 1.122-.77 2.024-1.65 2.024-.836 0-1.166-.836-1.76-.836-.462 0-1.012.638-1.628 1.584l-2.046 8.162zm14.333-.638c1.122 0 1.782-.726 1.782-1.716 0-2.288-3.806-3.234-3.806-6.358 0-2.376 1.914-3.718 4.092-3.718 1.386 0 2.244.704 2.728.704.264 0 .396-.198.484-.506h.33l-.77 3.696h-.33c.11-1.958-1.078-3.102-2.398-3.102-1.012 0-1.518.55-1.518 1.408 0 2.09 4.004 3.3 4.004 6.358 0 2.244-1.782 4.048-4.708 4.048-1.628 0-2.508-.792-2.948-.792-.33 0-.528.352-.638.616h-.33l.88-4.136h.33c-.132 2.266 1.122 3.498 2.816 3.498m13.538-2.948c-.638 2.068-1.826 3.806-3.938 3.806-1.738 0-3.014-1.386-2.288-4.224l1.826-7.282h-1.012l.066-.264c1.628-.396 3.652-2.024 4.906-4.664h.528l-.946 3.982h2.53l-.198.946h-2.574l-1.848 7.744c-.352 1.43.022 1.936.638 1.936.726 0 1.364-.572 2.046-2.046zm11.763 1.518c-.154.594-.022.88.308.88.308 0 .682-.22 1.034-.44l.132.242c-.924.814-2.222 1.584-3.564 1.584-1.166 0-1.672-.748-1.144-2.838l.022-.066c-1.32 1.584-2.926 2.904-4.488 2.904-1.716 0-2.31-1.584-1.782-3.608l1.298-5.214c.352-1.43.198-1.694-.638-1.606l.044-.286 4.928-1.98-2.222 8.954c-.286 1.144-.11 1.562.528 1.562.66 0 1.738-.836 2.64-1.98l2.09-8.272h3.366zm14.489-8.668c0 3.454-3.784 7.766-7.216 10.912h-.99c.088-4.73-.44-7.722-.946-9.768-.242-.99-.418-1.056-1.034-.88l-.066-.264 3.74-1.76c.902 1.914 1.518 5.786 1.474 9.35 1.782-1.958 3.234-4.048 3.234-5.236 0-1.078-1.21-1.562-1.21-2.75 0-.858.682-1.386 1.518-1.386 1.056 0 1.496.858 1.496 1.782m9.13 1.144c-.286-.99-.418-1.056-1.056-.88l-.066-.264 3.674-1.76c.88 1.87 1.43 5.808 1.276 9.306 1.716-1.98 2.97-4.114 2.97-5.236 0-1.034-1.21-1.54-1.21-2.706 0-.858.682-1.386 1.496-1.386 1.078 0 1.518.792 1.518 1.738 0 3.366-3.52 7.788-6.974 10.956h-.99c.066-2.244.066-4.092-.022-5.632-1.32 1.958-3.124 4.004-4.95 5.632h-.968c.154-4.73-.308-7.744-.88-9.768-.264-.99-.418-1.056-1.034-.88l-.066-.264 3.74-1.76c.88 1.914 1.562 5.742 1.452 9.306 1.166-1.342 2.09-2.772 2.574-3.85-.11-1.012-.264-1.848-.484-2.552m10.989 7.81c.528 0 .924-.77 2.31-3.806l-1.408-4.136c-.33-.99-.484-1.188-1.364-.924l-.022-.308 4.048-1.562 1.54 4.62c1.188-3.19 2.288-4.642 3.718-4.642.99 0 1.43.638 1.43 1.43 0 .836-.418 1.452-1.144 1.452-.682 0-1.078-.726-1.54-.726-.506 0-1.056 1.012-2.068 3.718l1.54 4.598c.154.462.308.726.616.726.242 0 .506-.154.902-.506l.176.198c-.616.814-1.892 1.848-3.146 1.848-1.1 0-1.584-.77-2.024-2.068l-.88-2.618c-1.518 3.542-2.354 4.73-3.982 4.73-1.056 0-1.65-.704-1.65-1.584 0-.836.55-1.452 1.342-1.452.858 0 1.122 1.012 1.606 1.012m15.406-10.714c1.034 2.376 1.892 6.864 2.002 10.274 1.782-2.464 2.926-4.84 2.926-6.16 0-1.078-1.254-1.562-1.254-2.75 0-.858.682-1.386 1.496-1.386 1.078 0 1.518.858 1.518 1.782 0 3.124-2.728 7.436-5.896 11.352-1.716 2.134-3.718 3.872-5.786 3.872-1.232 0-1.848-.704-1.848-1.606 0-.88.704-1.452 1.43-1.452 1.232 0 1.364 1.43 2.244 1.43.506 0 1.21-.44 2.288-1.606-.286-5.016-1.056-8.074-1.738-10.846-.242-.99-.418-1.056-1.056-.88l-.066-.264zm17.866.88c-2.002 3.498-5.83 6.094-8.602 9.174h3.388c2.31 0 2.75-.352 3.234-2.024h.352l-1.144 4.466h-8.58l.154-.616c2.024-3.366 6.006-6.05 8.712-9.174h-3.63c-1.826 0-2.332.33-2.75 1.716h-.352l1.034-4.158h8.338zM5.017 50.948c-.506.132-1.276.264-1.65.264l.044-.286c2.376-.748 4.202-1.914 5.28-2.926h.484L6.05 62.718c-.352 1.606.022 1.738 1.1 1.738l-.066.286H.595l.088-.286c1.144 0 1.496-.132 1.848-1.738zm3.898 13.794.176-.858c1.672-1.408 2.508-2.156 3.696-3.3 2.816-2.706 4.906-5.148 4.906-7.832 0-1.474-.726-2.618-2.134-2.618-1.584 0-2.728 1.254-3.542 2.816l-.352-.176c.88-2.728 2.926-4.774 5.522-4.774 2.772 0 4.18 1.672 4.18 3.85 0 3.212-3.344 5.676-7.656 9.13-.308.264-.704.572-1.188.946h3.982c2.486 0 2.838-.352 3.454-1.936h.352l-1.628 4.752zM25.937 56.8l-.176-.396c2.772-1.65 4.334-2.948 4.334-4.774 0-1.1-.66-1.672-1.782-1.672-1.386 0-2.508.748-3.388 2.134l-.352-.198C25.497 49.738 27.301 48 29.765 48c2.178 0 3.652 1.166 3.652 2.882 0 1.804-1.562 3.036-4.048 3.828 2.288.242 3.916 1.716 3.916 4.004 0 3.19-2.992 6.204-7.194 6.204-2.53 0-4.224-1.122-4.224-2.904 0-1.276.77-1.914 1.716-1.914.924 0 1.496.572 1.276 1.914-.242 1.562-.066 2.134 1.21 2.134 1.892 0 3.542-2.134 3.542-5.038 0-1.848-.902-2.728-2.156-2.728-.638 0-1.144.198-1.518.418m19.227 7.656-.066.286h-6.49l.066-.286c1.1 0 1.496-.132 1.848-1.738l.44-2.112h-6.028l.154-.792 11.154-11.77h.902L44.79 59.088h2.046l-.33 1.518H44.46l-.44 2.112c-.352 1.606-.022 1.738 1.144 1.738m-8.228-5.368h4.356l1.276-6.05zm22.673-.704c-.022 3.256-2.838 6.534-7.282 6.534-2.398 0-3.96-1.166-3.96-2.882 0-1.21.726-1.87 1.672-1.87.924 0 1.496.572 1.276 1.87-.264 1.496-.11 2.112 1.21 2.112 2.046 0 3.476-2.134 3.476-4.686 0-1.848-.968-2.926-2.662-2.926-1.034 0-1.98.374-2.794 1.1h-.352l2.816-9.394h7.898l-.902 2.816h-6.908l-1.1 3.696c.726-.44 1.804-.836 3.146-.836 2.574 0 4.466 1.65 4.466 4.466m14.133-.308c0 3.96-3.344 6.908-6.864 6.908-2.662 0-4.95-1.914-4.95-5.478 0-6.886 5.94-10.868 11.814-11.506l-.044.418c-3.784.99-6.622 3.608-7.744 8.03 1.034-1.298 2.596-2.266 4.334-2.266 1.936 0 3.454 1.342 3.454 3.894m-8.316 2.904c0 2.442.748 3.168 1.738 3.168 1.65 0 2.97-2.64 2.97-5.478 0-1.958-.748-2.706-1.804-2.706-.836 0-1.826.638-2.64 1.738a19 19 0 0 0-.264 3.278m21.471-12.738-.154.704-9.196 15.796h-1.76l8.844-13.816h-4.95c-2.53 0-2.904.462-3.586 1.826h-.352l1.65-4.51zm11.254 3.124c0 1.782-1.628 3.124-3.894 4.026 1.87 1.364 3.146 2.486 3.146 4.378 0 2.904-2.574 5.17-6.292 5.17-2.882 0-5.148-1.364-5.148-3.762 0-2.2 1.826-3.608 4.334-4.576-1.518-1.166-2.178-2.332-2.178-3.806 0-2.948 2.64-4.796 5.566-4.796 2.31 0 4.466 1.21 4.466 3.366m-7.414.044c0 1.54 1.496 2.53 2.992 3.586 1.408-.946 2.024-2.112 2.024-3.586 0-1.54-.858-2.552-2.398-2.552-1.562 0-2.618 1.034-2.618 2.552m-2.112 9.636c0 1.958 1.188 3.036 2.838 3.036 1.782 0 3.08-1.188 3.08-2.882 0-1.716-1.694-2.838-3.696-4.18-1.43.902-2.222 2.288-2.222 4.026m11.443-6.16c0-3.96 3.344-6.886 6.864-6.886 2.662 0 4.972 1.892 4.972 5.478 0 6.974-5.742 10.846-12.518 11.506l.022-.418c4.752-1.276 7.524-3.74 8.536-8.03-.99 1.254-2.464 2.178-4.158 2.178-2.024 0-3.718-1.342-3.718-3.828m3.63-.55c0 1.87.704 2.596 1.782 2.596.858 0 1.892-.506 2.706-1.65.154-.946.22-1.98.22-3.08 0-2.486-.726-3.366-1.76-3.366-1.606 0-2.948 2.53-2.948 5.5M122.085 48c2.728 0 4.994 2.134 4.994 6.204 0 5.588-3.542 10.78-8.338 10.78-2.904 0-5.214-2.156-5.214-6.226 0-5.544 3.85-10.758 8.558-10.758m-.396.814c-2.728 0-4.488 6.798-4.488 11.242 0 2.772.814 4.092 1.826 4.092 2.728 0 4.4-7.238 4.4-11.198 0-2.662-.682-4.136-1.738-4.136m8.644 2.398c.066-2.552 1.034-3.3 2.178-3.3s2.266 1.122 1.1 3.718l-3.344 7.854h-.352zm-1.166 13.684c-.946 0-1.606-.66-1.606-1.562 0-1.034.88-2.046 2.09-2.046.99 0 1.606.638 1.606 1.518 0 1.122-.814 2.09-2.09 2.09m8.241-5.412c-.286-2.442.902-3.718 2.2-4.972 1.276-1.232 2.31-2.31 2.31-3.938 0-1.1-.616-1.848-1.562-1.848-.682 0-1.034.396-1.386 2.134-.22 1.144-.572 1.782-1.672 1.782-.814 0-1.408-.462-1.408-1.364 0-1.716 1.826-3.344 4.62-3.344 3.146 0 4.51 1.76 4.51 3.41 0 2.178-1.562 3.278-3.806 4.466-2.09 1.078-3.124 2.002-3.454 3.674zm-.352 5.412c-.946 0-1.606-.66-1.606-1.562 0-1.034.88-2.046 2.09-2.046.99 0 1.606.638 1.606 1.518 0 1.122-.814 2.09-2.09 2.09m16.261-.814c-1.628 0-2.838-1.122-2.838-3.3 0-4.444 4.026-7.876 7.128-7.876.946 0 1.584.33 1.936.858l.242-.726h3.19l-2.442 7.524c-.44 1.386-.396 1.98.616 1.98 2.112 0 4.466-2.596 4.466-6.6 0-5.17-3.432-7.15-7.282-7.15-5.478 0-10.692 4.4-10.692 10.802 0 6.182 3.63 8.536 8.426 8.536 2.508 0 4.686-.704 5.962-1.672l.22.286c-1.122 1.122-3.63 2.398-6.82 2.398-5.39 0-9.878-2.926-9.878-8.822 0-7.282 6.402-12.276 12.782-12.298 4.774 0 8.778 2.31 8.778 7.216 0 5.126-3.916 8.844-7.722 8.844-1.562 0-2.486-.792-2.398-2.266-.902 1.254-2.156 2.266-3.674 2.266m.594-3.432c0 .858.308 1.474 1.034 1.474.924 0 1.738-.88 2.464-2.09l1.584-4.686c-.154-1.056-.572-1.65-1.32-1.65-1.716 0-3.762 3.432-3.762 6.952m15.238-2.838h2.266l1.078-2.948h-2.068l.308-2.2h2.552l1.606-4.422h.902l-1.606 4.422h2.816l1.606-4.422h.902l-1.606 4.422h1.804l-.308 2.2h-2.31l-1.056 2.948h2.09l-.308 2.2h-2.596l-1.716 4.73h-.902l1.716-4.73h-2.816l-1.716 4.73h-.88l1.716-4.73h-1.782zm3.168 0h2.816l1.056-2.948h-2.816zM187.811 48h.132l.286-1.32h.638l-.286 1.364c2.178.176 3.894 1.188 3.894 2.618 0 .968-.528 1.716-1.54 1.716s-1.43-.572-1.32-1.452c.154-1.298-.132-1.87-1.21-2.046l-1.166 5.478 1.452 1.298c1.43 1.232 2.288 2.42 2.288 4.114 0 2.574-2.046 5.17-6.248 5.17h-.088l-.462 2.156h-.638l.462-2.178c-2.574-.198-4.18-1.474-4.18-3.08 0-1.144.594-1.804 1.65-1.804 1.012 0 1.474.484 1.276 1.782-.22 1.43.154 2.09 1.43 2.266l1.342-6.292-1.496-1.32c-1.056-.946-1.826-2.156-1.826-3.718 0-2.948 2.618-4.752 5.61-4.752m-1.254 5.764.132.11 1.078-5.038h-.198c-1.408 0-2.442.814-2.442 2.398 0 1.056.704 1.914 1.43 2.53m-.396 4.598-.088-.088-1.254 5.852h.154c1.694 0 2.816-1.188 2.816-2.882 0-1.166-.616-2.002-1.628-2.882m11.166-2.222c-1.562 0-2.992-1.012-2.992-3.168 0-2.86 2.288-4.972 4.598-4.972 1.386 0 2.948 1.012 2.948 3.234 0 2.684-2.2 4.906-4.554 4.906m-4.488 8.602 14.388-16.5h1.078l-14.388 16.5zm4.774-9.328c1.034 0 1.87-2.86 1.87-4.928 0-1.166-.264-1.76-.836-1.76-1.078 0-1.914 2.772-1.914 5.016 0 1.1.264 1.672.88 1.672m4.818 9.526c-1.584 0-3.014-1.012-3.014-3.168 0-2.86 2.31-4.972 4.598-4.972 1.408 0 2.97 1.012 2.97 3.234 0 2.684-2.2 4.906-4.554 4.906m.264-.726c1.056 0 1.87-2.86 1.87-4.928 0-1.166-.264-1.76-.836-1.76-1.056 0-1.892 2.772-1.892 5.016 0 1.1.242 1.672.858 1.672m14.885-9.79-2.904-5.016-2.904 5.016h-1.012l3.696-6.38h.44l3.696 6.38zm13.756 10.318c-1.364 0-2.42-.528-3.278-1.452-1.21.946-2.706 1.628-4.576 1.628-2.618 0-4.576-1.716-4.576-4.026 0-2.794 2.244-4.378 4.774-5.214-.616-.968-.99-2.09-.99-3.146 0-2.772 2.288-4.444 4.972-4.444 2.354 0 3.872 1.254 3.872 3.036 0 2.002-1.936 3.322-4.224 4.136l2.64 4.972c.924-1.298 1.65-2.86 1.65-3.608 0-.55-.286-.836-1.144-.836l.044-.286h3.938l-.066.286c-.66 0-1.232.44-1.826 1.606-.616 1.188-1.276 2.42-2.2 3.608 1.562 2.926 2.024 3.344 2.992 3.454l-.044.286zm-5.478-13.42c0 1.342.44 2.42 1.034 3.322 1.408-.792 2.156-2.178 2.156-3.586 0-1.342-.55-2.112-1.474-2.112-.946 0-1.716.902-1.716 2.376m-3.564 8.602c0 2.178 1.254 3.432 3.08 3.432.748 0 1.474-.264 2.156-.726a9 9 0 0 1-.616-1.012l-2.838-5.302c-1.056.792-1.782 2.024-1.782 3.608m15.584-7.348c0-.374.286-.704 1.056-1.012l1.21-.484-1.32-.11c-.792-.088-1.276-.396-1.276-.946 0-.484.308-.902.836-.902.374 0 .704.286 1.056.682l.836.99-.308-1.298c-.22-1.012.132-1.54.792-1.54.528 0 .88.286.88.77 0 .264-.088.594-.33.99l-.748 1.166 1.056-.638c.396-.242.682-.396 1.012-.396.506 0 .814.396.814.836 0 .528-.33.902-.924.902-.198 0-.55-.044-1.892-.418l.99.88c.418.374.66.682.66 1.034 0 .396-.396.836-.968.836-.462 0-.836-.374-.88-1.298l-.088-1.342-.528 1.254c-.286.66-.638.99-1.034.99-.44 0-.902-.418-.902-.946m2.486-1.518h.022l-.022-.022zm6.966 17.468c-2.178-2.442-3.674-5.214-3.674-8.646 0-4.884 3.41-9.504 8.228-12.628l.308.352c-3.52 3.476-5.83 8.602-5.83 13.574 0 2.75.484 5.148 1.386 7.062zm1.427 0-.308-.33c3.52-3.498 5.83-8.624 5.83-13.596 0-2.728-.484-5.126-1.386-7.062l.418-.286c2.178 2.442 3.674 5.236 3.674 8.646 0 4.884-3.41 9.526-8.228 12.628m14.078-.484h-4.928l4.4-20.702h4.928l-.066.308c-1.914 0-2.31.11-2.662 1.716l-3.542 16.654c-.33 1.584.022 1.716 1.936 1.716zm1.338 0 .066-.308c1.914 0 2.31-.132 2.64-1.716l3.542-16.654c.352-1.606 0-1.716-1.914-1.716l.066-.308h4.928l-4.4 20.702zm12.008-10.406c1.364.506 2.09 1.1 2.09 2.178 0 1.54-2.156 4.444-2.156 6.16 0 .88.396 1.386 1.804 1.782l-.132.396c-2.838-.396-4.224-1.342-4.224-2.86 0-1.958 2.574-4.488 2.574-5.984 0-.77-.484-1.408-2.112-1.694l.066-.264c2.266-.11 2.904-.902 2.904-2.046s-.55-2.684-.44-4.4c.11-2.2 1.738-3.432 5.72-3.564v.396c-2.288.198-2.86 1.21-2.926 2.86-.088 1.496.022 2.574.022 3.784 0 1.914-1.056 2.772-3.19 3.212zm9.37.22c-1.364-.506-2.09-1.1-2.09-2.178 0-1.54 2.156-4.444 2.156-6.16 0-.88-.396-1.386-1.804-1.782l.132-.396c2.816.396 4.224 1.342 4.224 2.86 0 1.958-2.574 4.488-2.574 5.984 0 .77.484 1.408 2.09 1.694l-.066.264c-2.244.11-2.882.902-2.882 2.046s.528 2.684.44 4.4c-.11 2.2-1.738 3.432-5.72 3.564v-.396c2.288-.198 2.86-1.21 2.904-2.86.11-1.496-.022-2.574-.022-3.784 0-1.914 1.078-2.772 3.19-3.212zm12.341 2.288v.946l-7.92-4.026v-.44l7.92-4.026v.946l-6.578 3.3zm10.729-3.08-7.92 4.026v-.946l6.578-3.3-6.578-3.3v-.946l7.92 4.026zm2.523-.836h5.368l-.484 2.244h-5.368zm11.956 5.17v-4.224h-3.74v-.88h3.74V52.07h.968v4.224h3.74v.88h-3.74v4.224z"/></svg>