<svg width="233" height="207" viewBox="0 0 233 207" fill="none" xmlns="http://www.w3.org/2000/svg">
<path d="M189.95 18.3413C190.461 23.6713 187.969 28.1177 183.687 31.5274C181.628 33.1664 175.568 37.4302 172.567 39.6091C167.338 42.8464 160.561 40.6708 157.532 39.4038C157.206 39.2495 156.443 38.9036 155.961 38.6847C142.545 33.2061 125.989 42.3836 126.897 59.5941C127.749 75.8949 144.98 83.0817 157.67 76.9032C159.932 75.913 168.996 72.6122 178.926 78.1169C179.827 78.6353 181.948 79.9998 182.516 80.4025C186.21 83.025 202.101 95.1913 172.556 107.046C172.556 107.046 21.03 168.311 12.8257 171.642C-11.8706 181.956 2.80466 213.863 25.6197 204.645C33.9959 201.256 216.816 127.333 216.816 127.333C216.816 127.333 218.146 126.741 220.834 125.58C235.899 119.076 235.756 102.249 226.801 94.8873C225.272 93.6305 221.05 91.3937 219.368 90.737C213.217 88.3345 196.903 82.1947 190.788 79.9783C189.641 79.562 183.692 77.3876 180.362 74.874C172.251 68.7545 169.475 60.8191 169 57.2949C168.932 56.789 168.89 56.3364 168.82 55.1273C168.756 54.0202 168.652 47.5707 173.835 42.5605C176.123 40.571 182.14 36.3537 184.937 34.4413C189.487 31.4525 194.831 30.4464 200.751 32.7705C207.32 35.3499 216.7 33.3513 221.274 25.578C228.786 12.8117 217.587 -3.63997 201.863 0.714549C192.4 3.69204 189.385 12.4771 189.946 18.339L189.95 18.3413Z" fill="black"/>
</svg>
