<svg width="103" height="103" viewBox="0 0 103 103" fill="none" xmlns="http://www.w3.org/2000/svg">
<g clip-path="url(#clip0_40002135_3173)">
<path d="M58.9445 99.5727C55.5133 91.4714 52.44 82.9056 48.7565 74.9519C48.1006 73.5341 47.1579 72.1908 45.4722 73.3632C44.0385 74.3571 43.4515 77.1632 43.4798 78.8086C43.5291 81.3844 44.856 83.4948 43.6173 85.9858C41.1389 90.9665 33.1415 88.853 33.961 82.709C34.627 77.7226 42.1334 78.5637 43.7896 74.2078C45.0962 70.768 44.4557 66.3307 47.0158 63.3519C49.4516 60.5204 53.9631 60.9271 55.7108 64.7761C57.0298 67.6813 68.4029 95.9121 68.4029 95.9121C69.4221 98.5446 68.1188 101.244 65.5383 102.255C62.8083 103.326 60.0613 102.21 58.9443 99.5725L58.9445 99.5727Z" fill="#1F1F1F"/>
<path d="M13.3052 82.0389C18.6147 75.0207 24.5061 68.0798 29.5615 60.9172C30.4631 59.641 31.1566 58.1541 29.2971 57.2824C27.7184 56.5394 24.9915 57.4346 23.5788 58.2819C21.3698 59.6124 20.2032 61.8151 17.4238 61.9894C11.8654 62.3362 9.69956 54.3626 15.4371 51.9995C20.0942 50.0823 23.118 56.995 27.7233 56.2495C31.3595 55.6597 34.8872 52.887 38.7503 53.6118C42.4237 54.3028 44.3267 58.4081 41.8628 61.8441C40.0031 64.4375 21.2087 88.3894 21.2087 88.3894C19.4354 90.587 16.4433 90.8093 14.2756 89.0834C11.9823 87.2575 11.5767 84.3236 13.3052 82.0389Z" fill="#1F1F1F"/>
<path d="M5.68528 33.7938C14.4259 34.8769 23.3906 36.5018 32.1296 37.2928C33.687 37.4344 35.3232 37.2907 35.1494 35.2467C35.0044 33.5097 32.8646 31.599 31.4235 30.8008C29.1652 29.5554 26.6718 29.6478 25.1309 27.331C22.0511 22.6971 27.8824 16.8371 32.8005 20.6178C36.7916 23.6871 32.3091 29.7587 35.2582 33.3691C37.5878 36.2191 41.756 37.8838 43.059 41.5873C44.2965 45.1098 41.688 48.8084 37.4765 48.3954C34.2977 48.0837 4.13018 43.8046 4.13018 43.8046C1.33781 43.3698 -0.351049 40.8933 0.0618056 38.1554C0.498524 35.2591 2.83991 33.4413 5.68536 33.7938H5.68528Z" fill="#1F1F1F"/>
<path d="M43.7082 3.08612C47.1393 11.1874 50.2126 19.7532 53.8961 27.7069C54.552 29.1247 55.4947 30.468 57.1804 29.2956C58.6141 28.3017 59.2012 25.4956 59.1728 23.8502C59.1235 21.2744 57.7967 19.164 59.0353 16.673C61.5138 11.6923 69.5111 13.8058 68.6916 19.9498C68.0256 24.9362 60.5193 24.0951 58.863 28.4509C57.5564 31.8908 58.1969 36.3281 55.6369 39.3069C53.201 42.1384 48.6895 41.7317 46.9419 37.8827C45.6228 34.9775 34.2497 6.74666 34.2497 6.74666C33.2306 4.11418 34.5338 1.41521 37.1144 0.403384C39.8444 -0.667069 42.5914 0.449062 43.7084 3.0863L43.7082 3.08612Z" fill="#1F1F1F"/>
<path d="M89.351 20.6166C84.0415 27.6348 78.1501 34.5758 73.0947 41.7383C72.1931 43.0145 71.4996 44.5014 73.3591 45.3731C74.9378 46.1161 77.6647 45.2209 79.0774 44.3736C81.2864 43.0431 82.453 40.8404 85.2324 40.6661C90.7908 40.3194 92.9566 48.2929 87.2191 50.656C82.562 52.5732 79.5382 45.6606 74.9329 46.406C71.2967 46.9958 67.769 49.7685 63.9059 49.0438C60.2325 48.3527 58.3295 44.2474 60.7934 40.8115C62.6531 38.218 81.4475 14.2662 81.4475 14.2662C83.2208 12.0685 86.2129 11.8462 88.3806 13.5721C90.6739 15.398 91.0795 18.3319 89.351 20.6166Z" fill="#1F1F1F"/>
<path d="M96.9715 68.8618C88.2308 67.7787 79.2661 66.1538 70.5272 65.3628C68.9698 65.2212 67.3336 65.3649 67.5073 67.4089C67.6524 69.1459 69.7922 71.0566 71.2332 71.8548C73.4915 73.1002 75.985 73.0078 77.5258 75.3246C80.6057 79.9585 74.7744 85.8185 69.8563 82.0378C65.8652 78.9685 70.3477 72.8969 67.3986 69.2865C65.069 66.4365 60.9008 64.7718 59.5977 61.0683C58.3603 57.5458 60.9688 53.8472 65.1803 54.2602C68.3591 54.5719 98.5266 58.851 98.5266 58.851C101.319 59.2858 103.008 61.7623 102.595 64.5002C102.158 67.3965 99.817 69.2143 96.9715 68.8618Z" fill="#1F1F1F"/>
</g>
<defs>
<clipPath id="clip0_40002135_3173">
<rect width="102.656" height="102.656" fill="white"/>
</clipPath>
</defs>
</svg>
