<svg xmlns="http://www.w3.org/2000/svg" width="464" height="72" fill="none" viewBox="0 0 464 72"><path stroke="#002c4e" stroke-linecap="round" stroke-linejoin="round" d="M8.39 1.724c-.25-.25-.589-.39-.942-.39H2.666a1.333 1.333 0 0 0-1.333 1.333v4.781c0 .354.14.693.39.943l5.803 5.802a1.617 1.617 0 0 0 2.28 0l4.387-4.386a1.617 1.617 0 0 0 0-2.28z"/><path fill="#002c4e" stroke="#002c4e" stroke-linecap="round" stroke-linejoin="round" d="M5 5.333a.333.333 0 1 0 0-.666.333.333 0 0 0 0 .666"/><path stroke="#002c4e" stroke-linecap="round" stroke-linejoin="round" d="M46.534 6.667a6.668 6.668 0 1 1-3.2-4.444"/><path stroke="#002c4e" stroke-linecap="round" stroke-linejoin="round" d="m38 7.333 2 2 6.667-6.666M69.334 14.667a.667.667 0 1 0 0-1.334.667.667 0 0 0 0 1.334M76.667 14.667a.667.667 0 1 0 0-1.334.667.667 0 0 0 0 1.334M65.366 1.367H66.7l1.773 8.28a1.33 1.33 0 0 0 1.333 1.053h6.52a1.33 1.33 0 0 0 1.3-1.047l1.1-4.953H67.413M99.333 8h9.333M104 3.333v9.334M131.333 8h9.333M166 12l4-4-4-4M195.333 8h9.333M200 3.333 204.667 8 200 12.667M238 14l-2.894-2.893M231.333 12.667a5.334 5.334 0 1 0 0-10.667 5.334 5.334 0 0 0 0 10.667M258 7.333l12.667-6-6 12.667-1.334-5.333zM300 13.333a3.997 3.997 0 0 0-4-4 4 4 0 0 0-4 4"/><path stroke="#002c4e" stroke-linecap="round" stroke-linejoin="round" d="M296 9.333A2.667 2.667 0 1 0 295.999 4 2.667 2.667 0 0 0 296 9.333"/><path stroke="#002c4e" stroke-linecap="round" stroke-linejoin="round" d="M296 14.667A6.666 6.666 0 0 0 302.666 8a6.666 6.666 0 1 0-13.333 0A6.667 6.667 0 0 0 296 14.667M322.567 5.747a2.66 2.66 0 0 1 .719-2.466 2.67 2.67 0 0 1 2.467-.714 2.668 2.668 0 0 1 4.494 0 2.665 2.665 0 0 1 3.186 3.186A2.66 2.66 0 0 1 334.664 8a2.67 2.67 0 0 1-1.231 2.247 2.66 2.66 0 0 1-.714 2.467 2.66 2.66 0 0 1-2.466.72 2.66 2.66 0 0 1-2.25 1.235 2.67 2.67 0 0 1-2.25-1.236 2.665 2.665 0 0 1-3.186-3.18 2.668 2.668 0 0 1 0-4.506"/><path stroke="#002c4e" stroke-linecap="round" stroke-linejoin="round" d="m326 8 1.333 1.333L330 6.667M363.333 9.333v-8M358 12.08l.666-2.747h-3.886a1.336 1.336 0 0 1-1.312-1.094 1.3 1.3 0 0 1 .032-.612l1.553-5.334a1.33 1.33 0 0 1 1.28-.96h9a1.333 1.333 0 0 1 1.333 1.334V8a1.333 1.333 0 0 1-1.333 1.333h-1.84a1.33 1.33 0 0 0-1.193.74l-2.3 4.594a2.09 2.09 0 0 1-2.016-1.656 2.1 2.1 0 0 1 .016-.931M388.667 6.667v8M394 3.92l-.667 2.747h3.887a1.332 1.332 0 0 1 1.28 1.706l-1.554 5.334a1.33 1.33 0 0 1-1.28.96h-9a1.333 1.333 0 0 1-1.333-1.334V8a1.332 1.332 0 0 1 1.333-1.333h1.84a1.33 1.33 0 0 0 1.194-.74l2.3-4.594a2.086 2.086 0 0 1 2 2.587M417.995 10.895c.098.247.12.518.063.778l-.71 2.193a.667.667 0 0 0 .824.779l2.275-.666c.245-.048.499-.027.733.062a6.665 6.665 0 1 0-3.185-3.146M456 3.333v9.334M460.666 8 456 12.667 451.333 8M8.667 70H14M10 59.333 12.667 62M14.116 60.541a1.879 1.879 0 1 0-2.658-2.658l-8.897 8.9c-.155.154-.27.344-.333.553l-.881 2.901a.334.334 0 0 0 .415.415l2.902-.88c.21-.064.4-.177.554-.331zM40 70.667a6.667 6.667 0 1 0 0-13.334 6.667 6.667 0 0 0 0 13.334M40 66.667V64M40 61.333h.007M71.333 69.333a4.667 4.667 0 0 1-.8-9.266c3.8-.734 4.8-1.08 6.133-2.734C77.334 58.667 78 60.12 78 62.667c0 3.666-3.187 6.666-6.667 6.666"/><path stroke="#002c4e" stroke-linecap="round" stroke-linejoin="round" d="M65.333 70c0-2 1.233-3.573 3.387-4 1.613-.32 3.28-1.333 3.946-2M98.667 65.333a.666.666 0 0 1-.52-1.086l6.6-6.8a.33.33 0 0 1 .409-.076.33.33 0 0 1 .164.382l-1.28 4.014c-.037.1-.05.21-.037.316a.67.67 0 0 0 .664.584h4.667a.664.664 0 0 1 .664.745.67.67 0 0 1-.144.341l-6.6 6.8a.335.335 0 0 1-.559-.086.34.34 0 0 1-.015-.22l1.28-4.014a.66.66 0 0 0-.077-.614.67.67 0 0 0-.549-.286zM138.667 59.333H130M138.667 64H130M135.333 68.667H130M138 68l1.333 1.333L142 66.667M167.345 57.876a.669.669 0 0 1 1.311 0l.7 3.705a1.33 1.33 0 0 0 1.063 1.063l3.705.7a.67.67 0 0 1 .545.656.67.67 0 0 1-.545.655l-3.705.701a1.33 1.33 0 0 0-1.063 1.063l-.7 3.705a.668.668 0 0 1-1.311 0l-.701-3.705a1.336 1.336 0 0 0-1.062-1.063l-3.706-.7a.664.664 0 0 1-.544-.656.66.66 0 0 1 .544-.655l3.706-.701a1.34 1.34 0 0 0 1.062-1.063zM173.333 57.333V60M174.667 58.667H172M162.666 70.667a1.334 1.334 0 1 0 0-2.667 1.334 1.334 0 0 0 0 2.667M202 57.333h-4a.666.666 0 0 0-.667.667v1.333c0 .369.298.667.667.667h4a.666.666 0 0 0 .666-.667V58a.666.666 0 0 0-.666-.667"/><path stroke="#002c4e" stroke-linecap="round" stroke-linejoin="round" d="M202.667 58.667H204A1.333 1.333 0 0 1 205.334 60v9.333A1.334 1.334 0 0 1 204 70.667h-8a1.33 1.33 0 0 1-1.333-1.334V60A1.332 1.332 0 0 1 196 58.667h1.334"/><path stroke="#002c4e" stroke-linecap="round" stroke-linejoin="round" d="m198 65.333 1.333 1.334L202 64M228 70.667a1.333 1.333 0 0 1-1.333-1.334V58.667A1.332 1.332 0 0 1 228 57.334h5.334a1.6 1.6 0 0 1 1.136.47l2.392 2.392a1.6 1.6 0 0 1 .472 1.137v8A1.334 1.334 0 0 1 236 70.667z"/><path stroke="#002c4e" stroke-linecap="round" stroke-linejoin="round" d="M233.333 57.333v3.334a.666.666 0 0 0 .667.666h3.333M258 59.333h.007M258 64h.007M258 68.667h.007M261.333 59.333H270M261.333 64H270M261.333 68.667H270M301.334 60 294 67.333 290.667 64M332.667 58h-9.334c-.736 0-1.333.597-1.333 1.333v9.334c0 .736.597 1.333 1.333 1.333h9.334c.736 0 1.333-.597 1.333-1.333v-9.334c0-.736-.597-1.333-1.333-1.333M361.333 67.333h-6M364.667 60.667h-6M363.333 69.333a2 2 0 1 0 0-4 2 2 0 0 0 0 4M356.667 62.667a2 2 0 1 0 0-4 2 2 0 0 0 0 4M390.667 69.333a.664.664 0 0 0 .369.597l1.333.667a.67.67 0 0 0 .965-.597v-4.667c0-.33.123-.649.344-.894l4.816-5.326A.666.666 0 0 0 398 58h-12a.665.665 0 0 0-.494 1.113l4.816 5.326c.222.245.345.564.345.894zM424 70.667A6.666 6.666 0 0 0 430.666 64a6.666 6.666 0 1 0-13.333 0A6.667 6.667 0 0 0 424 70.667"/><path stroke="#002c4e" stroke-linecap="round" stroke-linejoin="round" d="m422 64 1.333 1.333L426 62.667M454.667 59.333H450M456 68.667h-6M457.333 58v2.667M458.667 67.333V70M462 64h-6M462 68.667h-3.333M462 59.333h-4.667M453.333 62.667v2.666M453.333 64H450"/></svg>