<svg xmlns="http://www.w3.org/2000/svg" width="584" height="88" fill="none" viewBox="0 0 584 88"><path stroke="#002c4e" stroke-linecap="round" stroke-linejoin="round" stroke-width="2" d="M8 22a1 1 0 1 0 0-2 1 1 0 0 0 0 2M19 22a1 1 0 1 0 0-2 1 1 0 0 0 0 2M2.05 2.05h2l2.66 12.42a2 2 0 0 0 2 1.58h9.78a2 2 0 0 0 1.95-1.57l1.65-7.43H5.12M54 18V6a2 2 0 0 0-2-2h-8a2 2 0 0 0-2 2v11a1 1 0 0 0 1 1h2M55 18h-6M59 18h2a1 1 0 0 0 1-1v-3.65a1 1 0 0 0-.22-.624l-3.48-4.35A1 1 0 0 0 57.52 8H54"/><path stroke="#002c4e" stroke-linecap="round" stroke-linejoin="round" stroke-width="2" d="M57 20a2 2 0 1 0 0-4 2 2 0 0 0 0 4M47 20a2 2 0 1 0 0-4 2 2 0 0 0 0 4M83.85 8.62a4 4 0 0 1 4.78-4.77 4 4 0 0 1 6.74 0 4 4 0 0 1 4.78 4.78 4.003 4.003 0 0 1 1.354 5.291 4 4 0 0 1-1.354 1.449 3.998 3.998 0 0 1-4.77 4.78 4 4 0 0 1-6.75 0 4 4 0 0 1-4.78-4.77 4 4 0 0 1 0-6.76"/><path stroke="#002c4e" stroke-linecap="round" stroke-linejoin="round" stroke-width="2" d="m89 12 2 2 4-4M140 8h-16a1 1 0 0 0-1 1v2a1 1 0 0 0 1 1h16a1 1 0 0 0 1-1V9a1 1 0 0 0-1-1M132 8v13"/><path stroke="#002c4e" stroke-linecap="round" stroke-linejoin="round" stroke-width="2" d="M139 12v7a2 2 0 0 1-2 2h-10a2 2 0 0 1-2-2v-7M127.5 8a2.5 2.5 0 0 1 0-5c.965-.017 1.91.451 2.713 1.343.802.892 1.425 2.166 1.787 3.657.362-1.49.985-2.765 1.787-3.657.803-.892 1.748-1.36 2.713-1.343a2.5 2.5 0 0 1 0 5M181 21l-4.34-4.34M171 19a8 8 0 1 0 0-16 8 8 0 0 0 0 16M219 21v-2a3.997 3.997 0 0 0-4-4h-6a4 4 0 0 0-4 4v2M212 11a4 4 0 1 0 0-8 4 4 0 0 0 0 8M256 21v-2a3.997 3.997 0 0 0-4-4h-6a4 4 0 0 0-4 4v2M256 3.128A4 4 0 0 1 258.996 7 4 4 0 0 1 256 10.872M262 21v-2a4 4 0 0 0-3-3.87M249 11a4 4 0 1 0 0-8 4 4 0 0 0 0 8M284 5h16M284 12h16M284 19h16M323 16l4 4 4-4M327 20V4M331 4h4M331 8h7M331 12h10M373.832 16.568a1 1 0 0 0 1.213-.303l.355-.465a2 2 0 0 1 1.6-.8h3a2 2 0 0 1 2 2v3a2 2 0 0 1-2 2 18 18 0 0 1-18-18 2 2 0 0 1 2-2h3a2 2 0 0 1 2 2v3a2 2 0 0 1-.8 1.6l-.468.351a.996.996 0 0 0-.292 1.233 14 14 0 0 0 6.392 6.384M412 6v6l4 2m6-2c0 5.523-4.477 10-10 10s-10-4.477-10-10 4.477-10 10-10 10 4.477 10 10M462 7l-8.991 5.727a2 2 0 0 1-2.009 0L442 7m2-3h16a2 2 0 0 1 2 2v12a2 2 0 0 1-2 2h-16a2 2 0 0 1-2-2V6a2 2 0 0 1 2-2M492 10h.01m-.01 4h.01M492 6h.01m3.99 4h.01m-.01 4h.01M496 6h.01M488 10h.01m-.01 4h.01M488 6h.01m.99 16v-3a1 1 0 0 1 1-1h4a1 1 0 0 1 1 1v3m-9-20h12a2 2 0 0 1 2 2v16a2 2 0 0 1-2 2h-12a2 2 0 0 1-2-2V4a2 2 0 0 1 2-2M522.992 16.342c.147.37.179.777.094 1.167l-1.065 3.29a.994.994 0 0 0 .733 1.17 1 1 0 0 0 .503-.002l3.413-.998a2 2 0 0 1 1.099.092 10 10 0 1 0-4.777-4.72M568 2v4M576 2v4M579 4h-14a2 2 0 0 0-2 2v14a2 2 0 0 0 2 2h14a2 2 0 0 0 2-2V6a2 2 0 0 0-2-2M563 10h18M5 76h14M12 69v14M45 76h14M98 70 86 82M86 70l12 12M139 67h-14a2 2 0 0 0-2 2v14a2 2 0 0 0 2 2h14a2 2 0 0 0 2-2V69a2 2 0 0 0-2-2M170 69h-7M172 83h-9M174 67v4M176 81v4M181 76h-9M181 83h-5M181 69h-7M168 74v4M168 76h-5M210 84a1 1 0 0 0 .553.895l2 1a1 1 0 0 0 1.32-.408c.083-.149.127-.316.127-.487v-7c0-.496.184-.974.517-1.341l7.223-7.989a1.01 1.01 0 0 0 .172-1.075A1.001 1.001 0 0 0 221 67h-18a1 1 0 0 0-.742 1.67l7.225 7.989c.332.367.516.845.517 1.341zM254 81h-9M259 71h-9M257 84a3 3 0 1 0 0-6 3 3 0 0 0 0 6M247 74a3 3 0 1 0 0-6 3 3 0 0 0 0 6M301.174 70.812A2.817 2.817 0 0 0 299.181 66a2.82 2.82 0 0 0-1.993.825l-13.346 13.349a2 2 0 0 0-.5.83l-1.321 4.352a.5.5 0 0 0 .623.622l4.353-1.32c.313-.095.598-.266.83-.497zM295 69l4 4M330 75v6M334 75v6M339 70v14a2 2 0 0 1-2 2h-10a2 2 0 0 1-2-2V70M323 70h18M328 70v-2a2 2 0 0 1 2-2h4a2 2 0 0 1 2 2v2M372 86c5.523 0 10-4.477 10-10s-4.477-10-10-10-10 4.477-10 10 4.477 10 10 10M372 80v-4M372 72h.01M412 86c5.523 0 10-4.477 10-10s-4.477-10-10-10-10 4.477-10 10 4.477 10 10 10"/><path stroke="#002c4e" stroke-linecap="round" stroke-linejoin="round" stroke-width="2" d="m409 76 2 2 4-4M452 86c5.523 0 10-4.477 10-10s-4.477-10-10-10-10 4.477-10 10 4.477 10 10 10M489 82l6-6-6-6M535 66h-6a1 1 0 0 0-1 1v2a1 1 0 0 0 1 1h6a1 1 0 0 0 1-1v-2a1 1 0 0 0-1-1"/><path stroke="#002c4e" stroke-linecap="round" stroke-linejoin="round" stroke-width="2" d="M536 68h2a2 2 0 0 1 2 2v14a2 2 0 0 1-2 2h-12a2 2 0 0 1-2-2V70a2 2 0 0 1 2-2h2"/><path stroke="#002c4e" stroke-linecap="round" stroke-linejoin="round" stroke-width="2" d="m529 78 2 2 4-4M571.017 66.814a1 1 0 0 1 1.966 0l1.051 5.558a2.005 2.005 0 0 0 1.594 1.594l5.558 1.051a1 1 0 0 1 0 1.966l-5.558 1.051a2 2 0 0 0-1.594 1.594l-1.051 5.558a.998.998 0 0 1-1.621.586 1 1 0 0 1-.345-.586l-1.051-5.558a1.996 1.996 0 0 0-1.594-1.594l-5.558-1.051a1 1 0 0 1 0-1.966l5.558-1.051a2 2 0 0 0 1.594-1.594zM580 66v4M582 68h-4M564 86a2 2 0 1 0 0-4 2 2 0 0 0 0 4"/></svg>