<svg xmlns="http://www.w3.org/2000/svg" width="272" height="32" fill="none" viewBox="0 0 272 32"><path stroke="#002c4e" stroke-linecap="round" stroke-linejoin="round" stroke-width="2" d="M18.667 24V8A2.667 2.667 0 0 0 16 5.333H5.334A2.667 2.667 0 0 0 2.667 8v14.667A1.333 1.333 0 0 0 4 24h2.667M20 24h-8"/><path stroke="#002c4e" stroke-linecap="round" stroke-linejoin="round" stroke-width="2" d="M25.334 24H28a1.333 1.333 0 0 0 1.334-1.333V17.8c0-.303-.104-.596-.294-.832l-4.64-5.8a1.33 1.33 0 0 0-1.04-.501h-4.693"/><path stroke="#002c4e" stroke-linecap="round" stroke-linejoin="round" stroke-width="2" d="M22.667 26.667a2.667 2.667 0 1 0 0-5.334 2.667 2.667 0 0 0 0 5.334M9.334 26.667a2.667 2.667 0 1 0 0-5.334 2.667 2.667 0 0 0 0 5.334M53.134 11.493a5.333 5.333 0 0 1 6.373-6.36 5.333 5.333 0 0 1 8.987 0 5.334 5.334 0 0 1 6.373 6.374 5.332 5.332 0 0 1 0 8.986 5.333 5.333 0 0 1-6.36 6.374 5.333 5.333 0 0 1-9 0 5.334 5.334 0 0 1-6.373-6.36 5.334 5.334 0 0 1 0-9.014"/><path stroke="#002c4e" stroke-linecap="round" stroke-linejoin="round" stroke-width="2" d="m60 16 2.667 2.667L68 13.333M106.667 2.667V8M117.333 2.667V8M121.333 5.333h-18.666A2.667 2.667 0 0 0 100 8v18.667a2.667 2.667 0 0 0 2.667 2.666h18.666A2.667 2.667 0 0 0 124 26.667V8a2.667 2.667 0 0 0-2.667-2.667M100 13.333h24"/><path stroke="#002c4e" stroke-linecap="round" stroke-linejoin="round" stroke-width="2" d="M108 21.333 110.667 24 116 18.667M158.667 13.333v5.334H164"/><path stroke="#002c4e" stroke-linecap="round" stroke-linejoin="round" stroke-width="2" d="m158.667 18.667 2.047-2.14a6.664 6.664 0 0 1 10.666 2M165.333 2.667V8M172 24l-2.046 2.14a6.67 6.67 0 0 1-5.848 1.746 6.66 6.66 0 0 1-4.819-3.746"/><path stroke="#002c4e" stroke-linecap="round" stroke-linejoin="round" stroke-width="2" d="M172 29.333V24h-5.333M172 11.333V8a2.667 2.667 0 0 0-2.667-2.667h-18.666A2.666 2.666 0 0 0 148 8v18.667a2.667 2.667 0 0 0 2.667 2.666h5.733M148 13.333h5.333M154.667 2.667V8M220 10.667l-3.014-3.014A13 13 0 0 0 208 4c-1.334 0-2.627.213-3.827.627M202.667 21.333H196V28M196 16c0-3.32 1.333-6.32 3.52-8.48"/><path stroke="#002c4e" stroke-linecap="round" stroke-linejoin="round" stroke-width="2" d="m196 21.333 3.013 3.014A13 13 0 0 0 208 28c3.32 0 6.32-1.333 8.48-3.52M220 16c0 1.333-.214 2.627-.627 3.827M220 4v6.667h-6.667M221.334 29.333 194.667 2.667M266.667 10.667h-13.333a2.667 2.667 0 0 0-2.667 2.666v13.334a2.667 2.667 0 0 0 2.667 2.666h13.333a2.667 2.667 0 0 0 2.667-2.666V13.333a2.667 2.667 0 0 0-2.667-2.666"/><path stroke="#002c4e" stroke-linecap="round" stroke-linejoin="round" stroke-width="2" d="M245.334 21.333a2.675 2.675 0 0 1-2.667-2.666V5.333c0-1.466 1.2-2.666 2.667-2.666h13.333c1.467 0 2.667 1.2 2.667 2.666"/></svg>