<svg xmlns="http://www.w3.org/2000/svg" width="200" height="20" fill="none" viewBox="0 0 200 20"><g clip-path="url(#a)"><path fill="#002c4e" d="M20 10c0-5.523-4.477-10-10-10S0 4.477 0 10c0 4.991 3.657 9.128 8.438 9.878v-6.987h-2.54V10h2.54V7.797c0-2.506 1.492-3.89 3.777-3.89 1.093 0 2.238.195 2.238.195v2.46h-1.26c-1.243 0-1.63.771-1.63 1.563V10h2.773l-.443 2.89h-2.33v6.988C16.343 19.129 20 14.991 20 10"/></g><g clip-path="url(#b)"><path fill="#002c4e" d="M46 0c2.715 0 3.055.012 4.125.063 1.063.046 1.79.218 2.426.464a4.9 4.9 0 0 1 1.77 1.153 4.7 4.7 0 0 1 1.144 1.777c.246.633.418 1.363.465 2.426.047 1.066.058 1.406.058 4.12 0 2.716-.011 3.056-.058 4.122-.047 1.063-.22 1.79-.465 2.426a4.9 4.9 0 0 1-1.153 1.77 4.9 4.9 0 0 1-1.769 1.152c-.633.246-1.363.418-2.426.465-1.066.046-1.406.058-4.12.058-2.716 0-3.056-.012-4.122-.058-1.062-.047-1.79-.22-2.426-.465a4.9 4.9 0 0 1-1.77-1.153 4.9 4.9 0 0 1-1.156-1.773c-.246-.633-.418-1.363-.464-2.426C36.012 13.055 36 12.715 36 10s.012-3.055.059-4.125c.047-1.062.218-1.79.464-2.426a4.9 4.9 0 0 1 1.157-1.77A4.9 4.9 0 0 1 39.453.524C40.086.277 40.816.105 41.88.06 42.945.012 43.285 0 46 0m0 1.8c-2.672 0-2.988.012-4.04.06-.972.042-1.503.206-1.855.343-.464.18-.796.395-1.148.746a3.1 3.1 0 0 0-.746 1.149c-.137.351-.3.879-.344 1.855-.047 1.05-.058 1.367-.058 4.04 0 2.667.011 2.984.058 4.038.043.973.207 1.504.344 1.856.18.465.395.797.746 1.148.348.348.684.567 1.148.746.352.137.88.301 1.856.344 1.05.047 1.367.059 4.039.059 2.668 0 2.984-.012 4.04-.059.972-.043 1.503-.207 1.855-.344.464-.18.796-.394 1.148-.746.348-.348.566-.683.746-1.148.137-.352.3-.88.344-1.856.047-1.05.058-1.367.058-4.039 0-2.668-.011-2.984-.058-4.039-.043-.973-.207-1.504-.344-1.855a3.1 3.1 0 0 0-.746-1.149 3.1 3.1 0 0 0-1.148-.746c-.352-.137-.88-.3-1.856-.344-1.05-.046-1.367-.058-4.039-.058m-.004 3.063a5.138 5.138 0 0 1 0 10.273A5.14 5.14 0 0 1 40.86 10c0-2.836 2.301-5.137 5.137-5.137m0 1.805a3.332 3.332 0 1 0 .001 6.665 3.332 3.332 0 0 0 0-6.665m5.344-3.207a1.2 1.2 0 1 1 0 2.398 1.2 1.2 0 0 1 0-2.398"/></g><g clip-path="url(#c)"><path fill="#002c4e" d="M82 0c5.523 0 10 4.477 10 10s-4.477 10-10 10c-1.031 0-2.023-.156-2.96-.445.405-.664 1.015-1.754 1.241-2.621.121-.47.621-2.38.621-2.38.329.622 1.282 1.15 2.293 1.15 3.016 0 5.188-2.774 5.188-6.22 0-3.304-2.695-5.777-6.164-5.777-4.313 0-6.606 2.895-6.606 6.05 0 1.47.781 3.294 2.031 3.876.192.09.293.05.337-.133.03-.137.203-.816.277-1.133a.3.3 0 0 0-.07-.285c-.415-.5-.747-1.422-.747-2.281 0-2.207 1.672-4.34 4.516-4.34 2.457 0 4.176 1.676 4.176 4.07 0 2.703-1.367 4.578-3.145 4.578-.98 0-1.715-.812-1.48-1.808.281-1.188.828-2.469.828-3.328 0-.77-.414-1.41-1.266-1.41-1.004 0-1.808 1.039-1.808 2.43 0 .886.3 1.484.3 1.484 0 .002-.988 4.187-1.171 4.968-.204.864-.122 2.075-.035 2.867C74.636 17.856 72 14.239 72 10c0-5.523 4.477-10 10-10"/></g><g clip-path="url(#d)"><path fill="#002c4e" d="M118.004 2.965s4.199 0 6.996.203c.391.047 1.242.05 2.004.848.601.605.797 1.984.797 1.984S128 7.621 128 9.238v1.516c0 1.62-.199 3.237-.199 3.238s-.196 1.38-.797 1.985c-.762.796-1.613.8-2.004.847-2.796.2-6.999.207-7 .207 0 0-5.199-.047-6.801-.199-.445-.086-1.445-.059-2.207-.855-.597-.606-.793-1.985-.793-1.985 0-.001-.199-1.622-.199-3.238V9.238c0-1.617.203-3.238.203-3.238s.192-1.38.793-1.984c.762-.797 1.613-.801 2.004-.848 2.797-.203 6.996-.203 6.996-.203zm-2.07 9.629 5.402-2.801-5.402-2.82z"/></g><path fill="#002c4e" d="M158.227 0h-3.37v13.623c0 1.623-1.297 2.957-2.91 2.957s-2.909-1.334-2.909-2.957c0-1.594 1.267-2.898 2.823-2.956v-3.42c-3.428.057-6.194 2.869-6.194 6.376 0 3.536 2.823 6.377 6.309 6.377s6.309-2.87 6.309-6.377V6.638a7.8 7.8 0 0 0 4.465 1.507v-3.42c-2.535-.087-4.523-2.174-4.523-4.725"/><g clip-path="url(#e)"><path fill="#002c4e" d="M192.308 8.469 199.38 0h-1.676l-6.142 7.353L186.658 0H181l7.418 11.12L181 20h1.676l6.486-7.765 5.18 7.765H200zm-2.296 2.748-.752-1.107-5.98-8.81h2.575l4.826 7.11.751 1.107 6.273 9.242h-2.574z"/></g><defs><clipPath id="a"><path fill="#fff" d="M0 0h20v20H0z"/></clipPath><clipPath id="b"><path fill="#fff" d="M36 0h20v20H36z"/></clipPath><clipPath id="c"><path fill="#fff" d="M72 0h20v20H72z"/></clipPath><clipPath id="d"><path fill="#fff" d="M108 0h20v20h-20z"/></clipPath><clipPath id="e"><path fill="#fff" d="M180 0h20v20h-20z"/></clipPath></defs></svg>