<svg xmlns="http://www.w3.org/2000/svg" width="894" height="133" fill="none" viewBox="0 0 894 133"><g clip-path="url(#a)"><rect width="232" height="133" fill="#f8f8f7" rx="8"/><rect width="47" height="47" x="24.5" y="24.5" fill="#84c12f" rx="23.5"/><rect width="47" height="47" x="24.5" y="24.5" stroke="#84c12f" rx="23.5"/><path fill="#fff" d="M37.566 62.998a1.9 1.9 0 0 1-1.622-.905 1.9 1.9 0 0 1-.083-1.855l7.403-14.808a5.6 5.6 0 0 0 .586-2.484v-3.479a.535.535 0 1 1 1.072 0v3.48a6.7 6.7 0 0 1-.7 2.963L36.82 60.718a.82.82 0 0 0 .036.813.82.82 0 0 0 .711.396h12.244a.535.535 0 1 1 0 1.071z"/><path fill="#fff" d="M58.437 62.998H46.194a.535.535 0 1 1 0-1.071h12.243a.82.82 0 0 0 .711-.396.82.82 0 0 0 .037-.813L51.78 45.91a6.65 6.65 0 0 1-.7-2.964v-3.479a.535.535 0 1 1 1.072 0v3.48c0 .858.202 1.716.586 2.483l7.403 14.808a1.9 1.9 0 0 1-.083 1.855c-.35.566-.956.905-1.622.905M51.917 37.689h-7.834a2.044 2.044 0 0 1-2.042-2.042v-.603c0-1.126.916-2.042 2.042-2.042h7.834c1.126 0 2.042.916 2.042 2.042v.603a2.044 2.044 0 0 1-2.042 2.042m-7.834-3.616a.97.97 0 0 0-.97.97v.604c0 .535.435.97.97.97h7.834c.536 0 .971-.435.971-.97v-.603a.97.97 0 0 0-.97-.971z"/><path fill="#fff" d="M40.773 58.66a.537.537 0 0 1-.298-.982l2.17-1.447a4.435 4.435 0 0 1 4.933 0 3.37 3.37 0 0 0 3.744 0l2.17-1.446a.535.535 0 1 1 .594.892l-2.17 1.446a4.435 4.435 0 0 1-4.933 0 3.37 3.37 0 0 0-3.744 0l-2.17 1.446a.54.54 0 0 1-.295.09zM49.445 54.32a1.984 1.984 0 0 1-1.982-1.981c0-1.093.89-1.982 1.982-1.982s1.982.889 1.982 1.982-.89 1.982-1.982 1.982m0-2.892a.912.912 0 0 0 0 1.821.912.912 0 0 0 0-1.82"/><path fill="#000" d="M31.637 90.7h-1.461a1.8 1.8 0 0 0-.23-.638 1.7 1.7 0 0 0-.989-.769 2.2 2.2 0 0 0-.684-.102q-.652 0-1.156.328-.504.325-.789.954-.285.624-.285 1.527 0 .918.285 1.547.29.625.79.945.503.317 1.152.317.36 0 .671-.094.316-.097.567-.285.254-.188.426-.461a1.7 1.7 0 0 0 .242-.625l1.46.008q-.08.57-.355 1.07-.27.5-.707.883a3.3 3.3 0 0 1-1.023.593q-.585.211-1.301.211-1.054 0-1.883-.488-.828-.488-1.305-1.41-.476-.922-.476-2.211 0-1.293.48-2.21.48-.924 1.309-1.411.828-.488 1.875-.488.668 0 1.242.187.574.188 1.024.55.45.36.738.884.293.52.383 1.187m3.882 5.417q-.879 0-1.524-.386a2.63 2.63 0 0 1-1-1.083q-.351-.695-.351-1.625t.351-1.629a2.6 2.6 0 0 1 1-1.085q.645-.387 1.524-.387.878 0 1.523.387.645.386.996 1.085.356.7.356 1.63t-.356 1.624a2.6 2.6 0 0 1-.996 1.083q-.644.386-1.523.386m.007-1.133q.477 0 .797-.261.321-.266.477-.711.16-.445.16-.993 0-.55-.16-.996a1.6 1.6 0 0 0-.477-.714q-.32-.266-.797-.266-.488 0-.812.266a1.6 1.6 0 0 0-.48.714 3 3 0 0 0-.157.996q0 .547.156.993.16.446.48.71.325.262.813.262M39.594 96v-6h1.351v1.02h.07q.189-.516.622-.805.434-.293 1.035-.293.61 0 1.027.297.423.293.594.8h.063a1.64 1.64 0 0 1 .671-.796q.477-.3 1.13-.301.827 0 1.35.523.525.524.524 1.528V96h-1.418v-3.809q0-.558-.297-.816a1.06 1.06 0 0 0-.726-.262q-.512 0-.8.32-.286.317-.286.825V96h-1.387v-3.867q0-.465-.281-.742-.277-.278-.727-.278-.305 0-.554.156a1.1 1.1 0 0 0-.399.434 1.35 1.35 0 0 0-.148.649V96zm9.872 2.25V90h1.39v.992h.082q.11-.218.31-.465.198-.25.538-.425.34-.18.867-.18.696 0 1.254.355.563.352.89 1.043.333.688.333 1.688 0 .988-.324 1.68-.324.69-.883 1.054a2.27 2.27 0 0 1-1.266.364q-.515 0-.855-.172a1.7 1.7 0 0 1-.547-.415 2.7 2.7 0 0 1-.317-.464h-.058v3.195zM50.852 93q0 .582.165 1.02.168.438.48.683.316.243.766.242.468 0 .785-.25.316-.254.476-.691.165-.441.164-1.004 0-.558-.16-.992a1.5 1.5 0 0 0-.476-.68q-.316-.246-.79-.246-.452 0-.769.238a1.47 1.47 0 0 0-.48.668q-.16.43-.16 1.012m5.489 3v-6h1.37v1h.063q.165-.52.563-.8.402-.286.918-.286.117 0 .262.012.148.008.246.027v1.3q-.09-.03-.285-.054a3 3 0 0 0-.372-.027q-.387 0-.695.168a1.23 1.23 0 0 0-.48.457q-.176.292-.176.676V96zm6.77.117q-.901 0-1.558-.375a2.54 2.54 0 0 1-1.004-1.07q-.351-.696-.352-1.637 0-.926.352-1.625.356-.703.992-1.094.637-.394 1.496-.394.555 0 1.047.18.495.175.875.546.383.372.602.946.218.57.218 1.36v.433h-4.918v-.953h3.563a1.5 1.5 0 0 0-.176-.723 1.3 1.3 0 0 0-.48-.504 1.35 1.35 0 0 0-.711-.184q-.434 0-.762.211-.329.207-.512.547-.18.336-.183.738v.833q0 .523.191.898.192.371.535.57.345.196.805.196.309 0 .559-.086.249-.09.433-.262a1.1 1.1 0 0 0 .277-.426l1.32.149a2.06 2.06 0 0 1-.476.914 2.3 2.3 0 0 1-.89.601 3.4 3.4 0 0 1-1.243.211m5.279-3.633V96h-1.414v-8h1.382v3.02h.07q.212-.508.653-.801.445-.297 1.133-.297.624 0 1.09.262t.718.765q.258.504.258 1.23V96h-1.414v-3.602q0-.605-.312-.941-.309-.34-.868-.34-.374 0-.671.164a1.15 1.15 0 0 0-.461.465q-.165.305-.164.738m7.988 3.633q-.903 0-1.559-.375a2.54 2.54 0 0 1-1.004-1.07q-.351-.696-.351-1.637 0-.926.351-1.625.355-.703.993-1.094.636-.394 1.496-.394.554 0 1.047.18.495.175.875.546.382.372.601.946.219.57.219 1.36v.433h-4.918v-.953h3.562a1.5 1.5 0 0 0-.175-.723 1.3 1.3 0 0 0-.48-.504 1.35 1.35 0 0 0-.712-.184q-.434 0-.761.211-.33.207-.512.547-.18.336-.184.738v.833q0 .523.192.898.191.371.535.57.343.196.804.196.309 0 .56-.086.249-.09.433-.262a1.1 1.1 0 0 0 .277-.426l1.32.149a2.06 2.06 0 0 1-.476.914 2.3 2.3 0 0 1-.89.601 3.4 3.4 0 0 1-1.243.211m5.278-3.633V96h-1.414v-6h1.352v1.02h.07q.207-.504.66-.801.457-.297 1.13-.297.62 0 1.081.266.465.265.719.769.257.504.254 1.223V96h-1.414v-3.602q0-.6-.313-.941-.308-.34-.855-.34-.372 0-.66.164-.285.16-.45.465a1.6 1.6 0 0 0-.16.738m10.031-.898-1.289.14q-.054-.195-.191-.367a.95.95 0 0 0-.36-.277 1.3 1.3 0 0 0-.554-.105q-.441 0-.742.191-.297.192-.293.496a.52.52 0 0 0 .191.426q.2.165.657.27l1.023.218q.852.184 1.265.582.42.399.422 1.043a1.63 1.63 0 0 1-.332 1q-.324.43-.902.672a3.4 3.4 0 0 1-1.328.242q-1.103 0-1.773-.46a1.85 1.85 0 0 1-.801-1.294l1.379-.132q.093.405.398.613t.793.207q.504 0 .809-.207.308-.207.308-.512a.53.53 0 0 0-.199-.426q-.195-.168-.61-.258l-1.023-.214q-.863-.18-1.277-.606-.414-.429-.41-1.086-.005-.555.3-.96.309-.41.856-.634.55-.225 1.27-.226 1.054 0 1.66.45.609.449.754 1.214M92.983 96v-6h1.415v6zm.711-6.852a.83.83 0 0 1-.578-.222.72.72 0 0 1-.242-.543.71.71 0 0 1 .242-.543.82.82 0 0 1 .578-.227q.34 0 .579.227a.71.71 0 0 1 .242.543q0 .316-.242.543a.82.82 0 0 1-.579.222m7.517.852-2.137 6h-1.562l-2.137-6h1.508l1.379 4.457h.062L99.706 90zm3.431 6.117q-.902 0-1.559-.375a2.54 2.54 0 0 1-1.004-1.07q-.351-.696-.351-1.637 0-.926.351-1.625.356-.703.992-1.094.637-.394 1.496-.394.555 0 1.047.18.497.175.875.546.383.372.602.946.219.57.219 1.36v.433h-4.918v-.953h3.562a1.5 1.5 0 0 0-.176-.723 1.27 1.27 0 0 0-.48-.504 1.35 1.35 0 0 0-.711-.184q-.434 0-.762.211-.328.207-.511.547-.18.336-.184.738v.833q0 .523.191.898.192.371.535.57.345.196.805.196.309 0 .559-.086a1.2 1.2 0 0 0 .433-.262 1.1 1.1 0 0 0 .278-.426l1.32.149a2.05 2.05 0 0 1-.477.914 2.3 2.3 0 0 1-.89.601 3.4 3.4 0 0 1-1.242.211m8.983 0q-.82 0-1.41-.297a2.24 2.24 0 0 1-.91-.8 2.1 2.1 0 0 1-.317-1.145q0-.48.196-.852.199-.37.546-.687.353-.316.813-.629l1.418-.965q.312-.203.473-.43a.9.9 0 0 0 .164-.53q0-.259-.219-.489-.215-.23-.594-.23a.852.852 0 0 0-.75.43.83.83 0 0 0-.105.405q0 .262.144.532.149.27.383.558l.508.614L117.718 96h-1.531l-3.118-3.57q-.347-.406-.672-.801a4.3 4.3 0 0 1-.527-.82 2.15 2.15 0 0 1-.203-.93q0-.567.262-1.012.262-.45.73-.707.473-.258 1.106-.258t1.086.25.699.664.246.903q0 .566-.281 1.015a3 3 0 0 1-.782.809l-1.617 1.184q-.398.289-.57.585-.172.293-.172.5 0 .317.16.575t.449.414q.294.152.684.152.43 0 .848-.191.417-.195.761-.555t.547-.86q.203-.503.203-1.116h1.215q0 .757-.168 1.32a3.4 3.4 0 0 1-.433.945q-.266.383-.563.613l-.18.133a6 6 0 0 1-.179.133 2.6 2.6 0 0 1-.989.563q-.562.18-1.105.18m7.694-.117v-8h3q.923 0 1.547.344.63.343.949.945.325.598.325 1.36 0 .769-.325 1.367a2.3 2.3 0 0 1-.957.941q-.632.34-1.558.34h-1.988v-1.191h1.793q.539 0 .882-.188.344-.187.508-.516.168-.328.168-.754 0-.425-.168-.75a1.14 1.14 0 0 0-.512-.504q-.343-.183-.886-.183h-1.328V96zm9.548.117q-.88 0-1.523-.386a2.62 2.62 0 0 1-1-1.083q-.352-.695-.352-1.625t.352-1.629q.355-.7 1-1.085.644-.387 1.523-.387t1.524.387.996 1.085q.355.7.355 1.63t-.355 1.624a2.6 2.6 0 0 1-.996 1.083q-.645.386-1.524.386m.008-1.133q.477 0 .797-.261a1.6 1.6 0 0 0 .476-.711 2.9 2.9 0 0 0 .161-.993q0-.55-.161-.996a1.6 1.6 0 0 0-.476-.714q-.32-.266-.797-.266-.488 0-.812.266a1.6 1.6 0 0 0-.481.714 3 3 0 0 0-.156.996q0 .547.156.993.16.446.481.71.324.262.812.262M137.938 90v1.094h-3.45V90zm-2.598-1.437h1.414v5.632q0 .285.086.438.09.148.234.203a.9.9 0 0 0 .321.055q.132 0 .242-.02.113-.02.172-.035l.238 1.105a3 3 0 0 1-.324.086q-.207.048-.508.055a2.3 2.3 0 0 1-.957-.16 1.5 1.5 0 0 1-.676-.555q-.246-.375-.242-.937zm6.372 7.554q-.903 0-1.559-.375a2.54 2.54 0 0 1-1.004-1.07q-.351-.696-.351-1.637 0-.926.351-1.625.356-.703.993-1.094.636-.394 1.496-.394.554 0 1.047.18.495.175.875.546.382.372.601.946.219.57.219 1.36v.433h-4.918v-.953h3.562a1.5 1.5 0 0 0-.175-.723 1.3 1.3 0 0 0-.481-.504 1.35 1.35 0 0 0-.711-.184q-.434 0-.761.211a1.45 1.45 0 0 0-.512.547q-.18.336-.184.738v.833q0 .523.192.898.191.371.535.57a1.6 1.6 0 0 0 .804.196q.309 0 .559-.086.25-.09.434-.262a1.1 1.1 0 0 0 .277-.426l1.32.149a2.06 2.06 0 0 1-.476.914 2.3 2.3 0 0 1-.891.601 3.4 3.4 0 0 1-1.242.211m5.278-3.633V96h-1.414v-6h1.352v1.02h.07q.207-.504.66-.801.457-.297 1.129-.297.621 0 1.082.266.465.265.719.769.258.504.254 1.223V96h-1.414v-3.602q0-.6-.313-.941-.308-.34-.855-.34a1.3 1.3 0 0 0-.66.164q-.285.16-.45.465-.16.305-.16.738M155.275 90v1.094h-3.449V90zm-2.597-1.437h1.414v5.632q0 .285.086.438.09.148.234.203a.9.9 0 0 0 .32.055q.133 0 .243-.02.113-.02.171-.035l.239 1.105a3 3 0 0 1-.324.086q-.208.048-.508.055a2.3 2.3 0 0 1-.957-.16 1.5 1.5 0 0 1-.676-.555q-.246-.375-.242-.937zM159.249 96v-8h5.125v1.215h-3.676v2.172h3.324v1.215h-3.324V96zm8.56.117q-.879 0-1.524-.386a2.62 2.62 0 0 1-1-1.083q-.351-.695-.351-1.625t.351-1.629q.355-.7 1-1.085.645-.387 1.524-.387t1.523.387q.645.386.996 1.085.356.7.356 1.63t-.356 1.624a2.6 2.6 0 0 1-.996 1.083q-.644.386-1.523.386m.007-1.133q.477 0 .797-.261.321-.266.477-.711a2.9 2.9 0 0 0 .16-.993q0-.55-.16-.996a1.57 1.57 0 0 0-.477-.714q-.32-.266-.797-.266-.488 0-.812.266a1.6 1.6 0 0 0-.481.714 3 3 0 0 0-.156.996q0 .547.156.993.16.446.481.71.324.262.812.262M171.884 96v-6h1.371v1h.062a1.5 1.5 0 0 1 1.481-1.086q.117 0 .262.012.149.008.246.027v1.3a1.5 1.5 0 0 0-.285-.054 3 3 0 0 0-.372-.027q-.386 0-.695.168-.305.165-.48.457a1.3 1.3 0 0 0-.176.676V96zm4.361 0v-6h1.352v1.02h.07q.187-.516.621-.805.433-.293 1.035-.293.61 0 1.028.297.422.293.593.8h.063q.2-.5.672-.796.476-.3 1.129-.301.828 0 1.351.523.524.524.524 1.528V96h-1.418v-3.809q0-.558-.297-.816a1.06 1.06 0 0 0-.727-.262q-.512 0-.801.32-.285.317-.285.825V96h-1.386v-3.867q0-.465-.282-.742-.277-.278-.726-.278-.305 0-.555.156a1.1 1.1 0 0 0-.398.434 1.35 1.35 0 0 0-.149.649V96zm13.696-2.523V90h1.414v6h-1.371v-1.066h-.062q-.204.503-.668.824-.46.32-1.137.32-.59 0-1.043-.262a1.8 1.8 0 0 1-.703-.77q-.254-.507-.254-1.226V90h1.414v3.602q0 .57.313.906t.82.336q.312 0 .606-.153.292-.151.48-.453.191-.305.191-.761M194.224 88v8h-1.414v-8zm3.18 8.121q-.57 0-1.027-.203a1.7 1.7 0 0 1-.719-.61q-.261-.401-.262-.992 0-.507.188-.84.188-.331.512-.53.324-.2.73-.302.41-.105.848-.152.527-.054.855-.098.328-.046.477-.14.152-.098.152-.3v-.024q0-.442-.262-.684-.261-.242-.753-.242-.52 0-.825.227-.3.226-.406.535l-1.32-.188q.156-.548.515-.914.36-.37.879-.555a3.4 3.4 0 0 1 1.149-.187q.434 0 .863.101.43.102.785.336.355.231.571.63.218.398.218.995V96h-1.359v-.824h-.047a1.7 1.7 0 0 1-.363.468q-.231.216-.582.348a2.4 2.4 0 0 1-.817.13m.367-1.039q.426 0 .739-.168.312-.172.48-.453a1.15 1.15 0 0 0 .172-.613v-.707a.7.7 0 0 1-.226.101 3 3 0 0 1-.352.082q-.195.035-.387.063l-.332.047q-.317.042-.566.14a.94.94 0 0 0-.395.274.67.67 0 0 0-.144.445q0 .39.285.59t.726.199m8.965-3.496-1.289.14a1 1 0 0 0-.191-.367.95.95 0 0 0-.36-.277 1.3 1.3 0 0 0-.554-.105q-.441 0-.742.191-.297.192-.293.496a.52.52 0 0 0 .191.426q.2.165.656.27l1.024.218q.85.184 1.265.582.419.399.422 1.043a1.63 1.63 0 0 1-.332 1q-.324.43-.902.672a3.4 3.4 0 0 1-1.328.242q-1.102 0-1.774-.46a1.85 1.85 0 0 1-.8-1.294l1.378-.132q.095.405.399.613t.793.207q.504 0 .808-.207.309-.207.309-.512a.53.53 0 0 0-.199-.426q-.195-.168-.61-.258l-1.023-.214q-.863-.18-1.277-.606-.414-.429-.411-1.086-.003-.555.301-.96.309-.41.856-.634.55-.225 1.269-.226 1.055 0 1.66.45.61.449.754 1.214"/><path fill="#000" fill-opacity=".7" d="M32.42 108.636q0 1.381-.498 2.387-.498 1.005-1.368 1.551-.87.545-1.986.545t-1.986-.545q-.87-.546-1.367-1.551-.5-1.006-.5-2.387 0-1.38.5-2.386.498-1.006 1.367-1.551.87-.546 1.986-.546t1.986.546 1.368 1.551.498 2.386m-1.022 0q0-1.133-.38-1.913-.375-.78-1.018-1.18a2.64 2.64 0 0 0-1.432-.401q-.792 0-1.436.401-.64.4-1.018 1.18-.375.78-.375 1.913t.375 1.914q.378.78 1.018 1.18.645.4 1.436.401.793 0 1.432-.401.643-.4 1.018-1.18.38-.78.38-1.914m6.788 1.688v-3.869h1.006V113h-1.006v-1.108h-.068a2.15 2.15 0 0 1-.716.848q-.486.345-1.227.345-.614 0-1.091-.268a1.9 1.9 0 0 1-.75-.818q-.273-.55-.273-1.385v-4.159h1.006v4.09q0 .716.4 1.143.405.426 1.032.426.375 0 .762-.192.392-.192.657-.588.268-.396.268-1.01M41.034 113v-6.545h.971v.988h.069q.179-.485.647-.788a1.9 1.9 0 0 1 1.057-.303 11 11 0 0 1 .529.017v1.023a3 3 0 0 0-.235-.038q-.18-.03-.38-.03-.476 0-.851.2a1.467 1.467 0 0 0-.801 1.334V113zm12.749-6.545a1.34 1.34 0 0 0-.623-1.006q-.545-.358-1.338-.358-.579 0-1.014.187a1.6 1.6 0 0 0-.673.516 1.24 1.24 0 0 0-.239.746q0 .35.166.601.171.246.435.413.264.162.554.268.289.103.533.167l.886.238q.34.09.759.247.421.158.805.431.388.269.64.69.25.422.25 1.036 0 .707-.37 1.278-.366.571-1.074.908-.703.336-1.709.336-.937 0-1.623-.302a2.6 2.6 0 0 1-1.074-.844 2.4 2.4 0 0 1-.44-1.257h1.092q.043.495.332.818a1.8 1.8 0 0 0 .742.477q.451.154.971.154.606 0 1.087-.196.481-.2.763-.554.28-.358.281-.835 0-.435-.243-.708a1.8 1.8 0 0 0-.64-.443 7 7 0 0 0-.856-.298l-1.073-.307q-1.023-.294-1.62-.84-.597-.545-.596-1.427 0-.733.396-1.279.4-.549 1.074-.852a3.6 3.6 0 0 1 1.512-.307q.845 0 1.5.303a2.6 2.6 0 0 1 1.04.818q.388.52.41 1.181zm5.59 0v.852H55.98v-.852zm-2.404-1.569h1.006v6.239q0 .426.123.639a.64.64 0 0 0 .324.281q.2.069.422.069.166 0 .273-.017l.17-.035.205.904a2.2 2.2 0 0 1-.75.119q-.427 0-.835-.183a1.66 1.66 0 0 1-.674-.558q-.264-.376-.264-.946zm5.842 8.267q-.62 0-1.129-.234a1.94 1.94 0 0 1-.805-.686q-.3-.452-.299-1.091 0-.562.222-.912.222-.354.592-.554a3.1 3.1 0 0 1 .819-.298 10 10 0 0 1 .907-.162q.596-.077.968-.115.374-.043.545-.141.175-.098.175-.341v-.034q0-.63-.345-.98-.342-.35-1.036-.349-.72 0-1.13.315-.408.316-.575.673l-.954-.341q.256-.596.682-.929.431-.336.937-.468a4 4 0 0 1 1.006-.137 4 4 0 0 1 .724.077q.414.072.797.303.388.23.644.694.255.465.255 1.245V113h-1.005v-.886h-.051a1.8 1.8 0 0 1-.341.456q-.24.243-.635.413-.396.17-.968.17m.154-.903q.597 0 1.005-.234a1.6 1.6 0 0 0 .836-1.385v-.921q-.065.077-.281.141a5 5 0 0 1-.495.106 21 21 0 0 1-.963.128q-.392.052-.733.166a1.26 1.26 0 0 0-.545.337q-.205.221-.205.605 0 .525.388.793.392.264.993.264m5.688-3.188V113h-1.006v-6.545h.972v1.022h.085q.23-.498.699-.801.468-.306 1.21-.307.664 0 1.163.273.499.269.776.818.276.546.277 1.381V113h-1.006v-4.091q0-.771-.4-1.202-.4-.434-1.1-.434-.481 0-.86.209-.375.208-.593.609-.217.4-.217.971m8.485 4.074q-.818 0-1.445-.413-.626-.417-.98-1.176-.353-.763-.353-1.803 0-1.031.353-1.789.354-.76.985-1.172.63-.414 1.457-.414.64 0 1.01.213.375.21.571.478.2.264.311.434h.085v-3.221h1.006V113h-.972v-1.006h-.119q-.111.18-.315.452-.204.269-.584.482-.38.208-1.01.208m.136-.903q.606 0 1.023-.315.418-.32.635-.882.218-.567.218-1.309 0-.733-.214-1.282a1.86 1.86 0 0 0-.63-.861q-.418-.311-1.031-.311-.64 0-1.066.328-.422.324-.635.882-.209.554-.209 1.244 0 .699.214 1.27.216.567.639.904.426.332 1.056.332m6.772.92q-.622 0-1.13-.234a1.94 1.94 0 0 1-.805-.686q-.298-.452-.298-1.091 0-.562.221-.912.222-.354.593-.554.37-.2.818-.298.452-.102.908-.162.596-.077.967-.115.375-.043.545-.141.175-.098.175-.341v-.034q0-.63-.345-.98-.34-.35-1.036-.349-.72 0-1.129.315-.409.316-.575.673l-.955-.341q.255-.596.682-.929.43-.336.938-.468a4 4 0 0 1 1.005-.137 4 4 0 0 1 .725.077q.413.072.797.303.388.23.643.694.255.465.256 1.245V113H86.04v-.886h-.051a1.8 1.8 0 0 1-.34.456q-.24.243-.636.413-.397.17-.967.17m.153-.903q.597 0 1.006-.234.414-.235.622-.605.213-.372.213-.78v-.921q-.064.077-.281.141-.213.06-.494.106a21 21 0 0 1-.963.128 4 4 0 0 0-.734.166 1.26 1.26 0 0 0-.545.337q-.204.221-.204.605 0 .525.387.793.393.264.993.264m4.682.75v-6.545h.972v.988h.068q.18-.485.648-.788a1.9 1.9 0 0 1 1.057-.303 11 11 0 0 1 .528.017v1.023a3 3 0 0 0-.234-.038q-.18-.03-.38-.03-.477 0-.852.2a1.468 1.468 0 0 0-.801 1.334V113zm6.738.136q-.819 0-1.445-.413-.626-.417-.98-1.176-.354-.763-.354-1.803 0-1.031.354-1.789.354-.76.984-1.172.63-.414 1.458-.414.639 0 1.01.213.375.21.57.478.201.264.312.434h.085v-3.221h1.006V113h-.972v-1.006h-.12a6 6 0 0 1-.315.452q-.204.269-.583.482-.38.208-1.01.208m.136-.903q.605 0 1.023-.315.417-.32.635-.882.217-.567.217-1.309 0-.733-.213-1.282a1.86 1.86 0 0 0-.63-.861q-.42-.311-1.032-.311-.639 0-1.065.328-.422.324-.635.882-.21.554-.21 1.244 0 .699.214 1.27.217.567.64.904.425.332 1.056.332m9.482-4.313-.904.256a1.7 1.7 0 0 0-.251-.439 1.2 1.2 0 0 0-.444-.358q-.28-.14-.72-.14-.6 0-1.001.277-.396.272-.396.694 0 .375.272.593.273.216.853.362l.971.238q.877.213 1.308.652.43.435.431 1.121 0 .562-.324 1.006a2.15 2.15 0 0 1-.895.699q-.575.255-1.338.255-1.001 0-1.658-.434-.656-.435-.831-1.27l.955-.239q.136.529.516.793.383.264 1.001.264.704 0 1.116-.298.418-.303.418-.725a.76.76 0 0 0-.239-.571q-.238-.234-.733-.349l-1.09-.256q-.9-.213-1.321-.66-.418-.453-.418-1.13 0-.554.311-.98.315-.426.857-.669a3 3 0 0 1 1.235-.243q.972 0 1.526.426.558.427.793 1.125m9.917-1.465a1.34 1.34 0 0 0-.622-1.006q-.546-.358-1.338-.358-.58 0-1.015.187a1.6 1.6 0 0 0-.673.516 1.24 1.24 0 0 0-.239.746q0 .35.167.601.17.246.434.413.264.162.554.268.29.103.533.167l.886.238q.341.09.759.247.422.158.805.431.388.269.639.69.252.422.252 1.036a2.3 2.3 0 0 1-.371 1.278q-.366.571-1.074.908-.703.336-1.709.336-.937 0-1.623-.302a2.6 2.6 0 0 1-1.074-.844 2.4 2.4 0 0 1-.439-1.257h1.091q.042.495.332.818.294.32.742.477.452.154.971.154.606 0 1.087-.196.481-.2.763-.554.28-.358.281-.835 0-.435-.243-.708a1.8 1.8 0 0 0-.639-.443 7 7 0 0 0-.857-.298l-1.073-.307q-1.023-.294-1.62-.84-.596-.545-.596-1.427 0-.733.396-1.279.4-.549 1.074-.852a3.6 3.6 0 0 1 1.513-.307q.843 0 1.5.303.656.299 1.039.818.388.52.409 1.181zm5.487 6.681q-.945 0-1.632-.417a2.8 2.8 0 0 1-1.052-1.176q-.367-.759-.367-1.765t.367-1.772a2.9 2.9 0 0 1 1.031-1.202q.665-.435 1.551-.435.512 0 1.01.171.498.17.908.554.409.38.652 1.005.243.627.243 1.543v.426h-5.046v-.869h4.023q0-.554-.222-.989a1.67 1.67 0 0 0-.622-.686 1.75 1.75 0 0 0-.946-.251q-.601 0-1.04.298a2 2 0 0 0-.669.767 2.25 2.25 0 0 0-.234 1.014v.58q0 .741.256 1.257.26.512.72.78a2.1 2.1 0 0 0 1.069.264q.397 0 .716-.111.324-.115.558-.341a1.55 1.55 0 0 0 .363-.571l.971.273a2.16 2.16 0 0 1-.515.869 2.5 2.5 0 0 1-.895.58 3.3 3.3 0 0 1-1.198.204m6.899 0q-.92 0-1.585-.434a2.83 2.83 0 0 1-1.022-1.198q-.358-.762-.358-1.743 0-.996.366-1.76.37-.766 1.031-1.197.665-.435 1.551-.435.69 0 1.245.256.554.255.907.716.355.46.439 1.074h-1.005a1.56 1.56 0 0 0-.512-.793q-.391-.35-1.057-.349-.588 0-1.031.307a2 2 0 0 0-.686.856q-.243.55-.243 1.291 0 .759.239 1.321.243.562.682.874.443.31 1.039.311.393 0 .712-.136a1.47 1.47 0 0 0 .857-1.006h1.005a2.32 2.32 0 0 1-1.304 1.777q-.545.268-1.27.268m6.891-6.681v.852h-3.392v-.852zm-2.403-1.569h1.005v6.239q0 .426.124.639a.64.64 0 0 0 .324.281q.2.069.422.069.165 0 .272-.017l.171-.035.204.904a2.2 2.2 0 0 1-.75.119q-.426 0-.835-.183a1.66 1.66 0 0 1-.673-.558q-.264-.376-.264-.946zm3.916 8.114v-6.545h1.006V113zm.511-7.636a.71.71 0 0 1-.507-.201.64.64 0 0 1-.209-.481q0-.282.209-.482a.72.72 0 0 1 .507-.2q.294 0 .503.2a.64.64 0 0 1 .213.482.64.64 0 0 1-.213.481.7.7 0 0 1-.503.201m4.996 7.772q-.887 0-1.556-.422a2.86 2.86 0 0 1-1.04-1.18q-.37-.759-.37-1.773 0-1.022.37-1.785.375-.763 1.04-1.185.67-.422 1.556-.422.887 0 1.551.422.668.422 1.04 1.185.375.763.375 1.785 0 1.014-.375 1.773a2.83 2.83 0 0 1-1.04 1.18q-.665.423-1.551.422m0-.903q.673 0 1.108-.345.434-.345.643-.908a3.5 3.5 0 0 0 .209-1.219q0-.656-.209-1.223a2.07 2.07 0 0 0-.643-.916q-.435-.35-1.108-.349-.674 0-1.108.349-.435.35-.644.916a3.5 3.5 0 0 0-.209 1.223q0 .657.209 1.219t.644.908 1.108.345m5.506-3.171V113h-1.005v-6.545h.971v1.022h.086q.23-.498.698-.801.469-.306 1.211-.307.665 0 1.163.273.498.269.776.818.276.546.277 1.381V113h-1.006v-4.091q0-.771-.401-1.202-.4-.434-1.099-.434-.482 0-.861.209-.375.208-.592.609-.218.4-.218.971"/><rect width="177" height="133" x="248" fill="#f8f8f7" rx="8"/><rect width="48" height="48" x="272" y="24" fill="#84c12f" rx="24"/><path fill="#fff" d="M283.371 51.208a.537.537 0 0 1 .667.36 12.44 12.44 0 0 0 10.099 8.772 1.98 1.98 0 0 1 1.86-1.306c1.093 0 1.982.89 1.982 1.982a1.985 1.985 0 0 1-1.982 1.982 1.985 1.985 0 0 1-1.942-1.588 13.504 13.504 0 0 1-11.044-9.535.537.537 0 0 1 .36-.667m12.626 8.898a.911.911 0 1 0 .002 1.822.911.911 0 0 0-.002-1.822m13.02-14.087c1.092 0 1.982.888 1.982 1.981 0 .957-.683 1.758-1.587 1.941a13.508 13.508 0 0 1-9.537 11.048.536.536 0 0 1-.305-1.027 12.44 12.44 0 0 0 8.773-10.1A1.98 1.98 0 0 1 307.035 48c0-1.093.889-1.981 1.982-1.981m-11.677-7.233c.513 0 .931.418.931.93v1.157c.397.127.787.29 1.161.483l.819-.82a.93.93 0 0 1 .658-.272c.248 0 .482.097.657.272l1.897 1.896a.93.93 0 0 1 0 1.315l-.82.82c.194.373.356.763.482 1.16h1.157c.513 0 .931.418.931.931v2.683c0 .512-.418.93-.931.93h-1.157q-.192.599-.482 1.162l.82.819a.93.93 0 0 1 0 1.314l-1.897 1.897a.92.92 0 0 1-.657.271.92.92 0 0 1-.658-.272l-.819-.82a7.5 7.5 0 0 1-1.161.482v1.157a.933.933 0 0 1-.931.93v.002h-2.682a.93.93 0 0 1-.93-.93v-1.157a7.6 7.6 0 0 1-1.162-.482l-.819.819a.93.93 0 0 1-1.315 0l-1.897-1.897a.927.927 0 0 1 0-1.314l.819-.82a7.4 7.4 0 0 1-.481-1.16h-1.157a.93.93 0 0 1-.931-.931v-2.683c0-.513.418-.93.931-.93h1.157q.192-.599.481-1.162l-.819-.819a.927.927 0 0 1 0-1.315l1.897-1.896a.93.93 0 0 1 1.315 0l.819.82a7.4 7.4 0 0 1 1.162-.483v-1.156c0-.513.417-.93.93-.93zm-2.541 2.191c0 .413-.266.77-.659.89-.399.12-.791.284-1.161.484a.925.925 0 0 1-1.096-.163l-.794-.794-1.696 1.697.793.794a.925.925 0 0 1 .162 1.096c-.2.37-.362.761-.483 1.16a.92.92 0 0 1-.889.659h-1.121v2.4h1.121c.412 0 .77.265.889.658q.183.602.483 1.162a.925.925 0 0 1-.162 1.095l-.793.793 1.696 1.697.794-.794a.92.92 0 0 1 1.096-.163c.37.2.762.362 1.161.483.393.12.659.476.659.889v1.12l.001.002h2.399v-1.12c0-.413.266-.771.659-.89.399-.12.791-.284 1.162-.483a.92.92 0 0 1 1.094.163l.795.794 1.696-1.697-.793-.794a.92.92 0 0 1-.163-1.096c.2-.372.362-.762.483-1.16a.92.92 0 0 1 .889-.659h1.121v-2.4h-1.121a.92.92 0 0 1-.889-.658 6.3 6.3 0 0 0-.484-1.162.92.92 0 0 1 .162-1.095l.794-.794-1.697-1.697-.794.794a.92.92 0 0 1-1.095.163 6.4 6.4 0 0 0-1.161-.484.925.925 0 0 1-.659-.89v-1.12h-2.399zm1.2 2.149A4.88 4.88 0 0 1 300.874 48a4.88 4.88 0 0 1-4.875 4.874A4.88 4.88 0 0 1 291.125 48a4.88 4.88 0 0 1 4.874-4.874m0 1.071A3.807 3.807 0 0 0 292.196 48a3.807 3.807 0 0 0 3.803 3.803A3.81 3.81 0 0 0 299.803 48a3.81 3.81 0 0 0-3.804-3.803m-3.875-9.186a.537.537 0 0 1 .307 1.027 12.44 12.44 0 0 0-8.772 10.102 1.98 1.98 0 0 1 1.305 1.86c0 1.093-.89 1.981-1.983 1.981A1.984 1.984 0 0 1 281 48c0-.958.683-1.76 1.588-1.942a13.507 13.507 0 0 1 9.536-11.047m-9.143 12.079a.911.911 0 1 0 .002 1.822.911.911 0 0 0-.002-1.822m26.036 0a.91.91 0 0 0-.911.91.912.912 0 0 0 1.822 0 .91.91 0 0 0-.911-.91m-13.02-14.088c.958 0 1.759.683 1.942 1.588a13.506 13.506 0 0 1 11.052 9.536.537.537 0 0 1-.513.69l-.001-.002a.54.54 0 0 1-.513-.382 12.44 12.44 0 0 0-10.107-8.773 1.98 1.98 0 0 1-1.86 1.307 1.985 1.985 0 0 1-1.981-1.983c0-1.092.889-1.98 1.981-1.981m0 1.071a.911.911 0 1 0 .002 1.823.911.911 0 0 0-.002-1.823"/><path fill="#000" d="M275.5 96h-2.711v-8h2.766q1.19 0 2.047.48a3.2 3.2 0 0 1 1.32 1.372q.46.894.461 2.14 0 1.25-.465 2.149a3.2 3.2 0 0 1-1.332 1.378q-.867.48-2.086.481m-1.262-1.254h1.192q.836 0 1.394-.305.56-.307.84-.918.282-.613.281-1.53 0-.919-.281-1.524a1.9 1.9 0 0 0-.832-.91q-.548-.305-1.359-.305h-1.235zm7.338 3.504a2.9 2.9 0 0 1-.922-.148l.328-1.102q.31.09.551.086a.67.67 0 0 0 .426-.152q.187-.145.316-.485l.121-.324L280.221 90h1.5l1.383 4.531h.062L284.553 90h1.504l-2.403 6.727q-.168.476-.445.816-.277.345-.68.523-.398.184-.953.184m6.873-5.766V96h-1.414v-6h1.352v1.02h.07q.207-.504.66-.801.457-.297 1.129-.297.621 0 1.082.266.465.265.719.769.257.504.254 1.223V96h-1.414v-3.602q0-.6-.313-.941-.309-.34-.855-.34a1.3 1.3 0 0 0-.66.164q-.286.16-.45.465-.16.305-.16.738m7.016 3.637a2.5 2.5 0 0 1-1.027-.203 1.67 1.67 0 0 1-.719-.61q-.262-.401-.262-.992 0-.507.188-.84a1.45 1.45 0 0 1 .511-.53 2.6 2.6 0 0 1 .731-.302q.41-.105.847-.152.528-.054.856-.098.328-.046.476-.14.153-.098.153-.3v-.024q0-.442-.262-.684-.261-.242-.754-.242-.52 0-.824.227-.301.226-.406.535l-1.321-.188q.157-.548.516-.914.36-.37.879-.555a3.4 3.4 0 0 1 1.148-.187q.434 0 .864.101t.785.336q.356.231.57.63.219.398.219.995V96h-1.36v-.824h-.046a1.72 1.72 0 0 1-.946.816 2.4 2.4 0 0 1-.816.13m.367-1.039q.426 0 .738-.168a1.24 1.24 0 0 0 .481-.453 1.16 1.16 0 0 0 .172-.613v-.707a.7.7 0 0 1-.227.101 3 3 0 0 1-.351.082q-.197.035-.387.063l-.332.047q-.316.042-.567.14a.94.94 0 0 0-.394.274.67.67 0 0 0-.145.445q0 .39.285.59.286.2.727.199m4.223.918v-6h1.351v1.02h.071q.188-.516.621-.805.434-.293 1.035-.293.61 0 1.027.297.421.293.594.8h.062q.2-.5.672-.796.477-.3 1.129-.301.828 0 1.352.523.523.524.523 1.528V96h-1.418v-3.809q0-.558-.297-.816a1.06 1.06 0 0 0-.726-.262q-.512 0-.801.32-.285.317-.285.825V96h-1.387v-3.867q0-.465-.281-.742-.277-.278-.727-.278-.305 0-.554.156a1.1 1.1 0 0 0-.399.434 1.35 1.35 0 0 0-.148.649V96zm9.872 0v-6h1.414v6zm.711-6.852a.82.82 0 0 1-.578-.222.72.72 0 0 1-.243-.543q0-.321.243-.543a.82.82 0 0 1 .578-.227.8.8 0 0 1 .578.227q.242.223.242.543a.72.72 0 0 1-.242.543.82.82 0 0 1-.578.222m4.774 6.97q-.898 0-1.543-.395a2.64 2.64 0 0 1-.988-1.09q-.344-.7-.344-1.61 0-.914.352-1.613.351-.703.992-1.094.644-.394 1.523-.394.73 0 1.293.27.567.266.903.753.336.484.382 1.133h-1.351a1.3 1.3 0 0 0-.391-.722q-.305-.293-.816-.293-.433 0-.762.234a1.5 1.5 0 0 0-.512.664q-.179.433-.179 1.039 0 .613.179 1.055.18.437.504.675.329.235.77.235.312 0 .558-.117.25-.122.418-.348a1.34 1.34 0 0 0 .231-.55h1.351q-.05.636-.375 1.128a2.2 2.2 0 0 1-.882.766q-.559.273-1.313.273m6.523-.118v-8h1.414v2.992h.058q.11-.218.309-.465.199-.25.539-.425.34-.18.867-.18.696 0 1.254.355.563.352.891 1.043.332.688.332 1.688 0 .988-.325 1.68-.324.69-.882 1.054a2.27 2.27 0 0 1-1.266.364q-.516 0-.855-.172a1.7 1.7 0 0 1-.547-.415 2.7 2.7 0 0 1-.317-.464h-.082V96zm1.386-3q0 .582.164 1.02.168.438.481.683.317.243.765.242.47 0 .786-.25.316-.254.476-.691.165-.441.164-1.004 0-.558-.16-.992a1.5 1.5 0 0 0-.476-.68q-.316-.246-.79-.246-.453 0-.769.238a1.47 1.47 0 0 0-.481.668q-.16.43-.16 1.012m6.155 5.25a2.9 2.9 0 0 1-.922-.148l.328-1.102q.309.09.551.086a.67.67 0 0 0 .425-.152q.188-.145.317-.485l.121-.324L328.12 90h1.5l1.383 4.531h.062L332.452 90h1.504l-2.402 6.727q-.168.476-.446.816-.276.345-.679.523-.4.184-.953.184M340.437 96h-2.711v-8h2.765q1.192 0 2.047.48a3.2 3.2 0 0 1 1.32 1.372q.462.894.461 2.14 0 1.25-.465 2.149a3.2 3.2 0 0 1-1.332 1.378q-.867.48-2.085.481m-1.262-1.254h1.191q.836 0 1.395-.305.558-.307.84-.918.28-.613.281-1.53 0-.919-.281-1.524a1.92 1.92 0 0 0-.832-.91q-.547-.305-1.36-.305h-1.234zm9.115 1.371q-.902 0-1.559-.375a2.54 2.54 0 0 1-1.003-1.07q-.352-.696-.352-1.637 0-.926.352-1.625.355-.703.992-1.094.636-.394 1.496-.394.555 0 1.047.18.495.175.875.546.382.372.601.946.219.57.219 1.36v.433h-4.918v-.953h3.563a1.53 1.53 0 0 0-.176-.723 1.3 1.3 0 0 0-.481-.504 1.35 1.35 0 0 0-.711-.184q-.434 0-.761.211a1.45 1.45 0 0 0-.512.547q-.18.336-.184.738v.833q0 .523.192.898.191.371.535.57a1.6 1.6 0 0 0 .805.196q.308 0 .558-.086.25-.09.434-.262.183-.172.277-.426l1.32.149a2.06 2.06 0 0 1-.476.914 2.3 2.3 0 0 1-.891.601 3.4 3.4 0 0 1-1.242.211m8.606-4.531-1.289.14a1 1 0 0 0-.191-.367.95.95 0 0 0-.359-.277 1.3 1.3 0 0 0-.555-.105q-.441 0-.742.191-.297.192-.293.496a.52.52 0 0 0 .191.426q.2.165.656.27l1.024.218q.851.184 1.266.582.417.399.421 1.043a1.63 1.63 0 0 1-.332 1q-.324.43-.902.672t-1.328.242q-1.101 0-1.774-.46a1.86 1.86 0 0 1-.8-1.294l1.379-.132a.97.97 0 0 0 .398.613q.304.207.793.207.503 0 .809-.207.308-.207.308-.512a.53.53 0 0 0-.199-.426q-.195-.168-.609-.258l-1.024-.214q-.863-.18-1.277-.606-.414-.429-.41-1.086-.005-.555.3-.96.309-.41.856-.634.55-.225 1.269-.226 1.055 0 1.661.45.609.449.753 1.214M358.191 96v-6h1.414v6zm.711-6.852a.83.83 0 0 1-.578-.222.72.72 0 0 1-.242-.543q0-.321.242-.543a.82.82 0 0 1 .578-.227q.34 0 .578.227.243.223.243.543 0 .316-.243.543a.81.81 0 0 1-.578.222m4.767 9.227q-.762 0-1.309-.207a2.3 2.3 0 0 1-.879-.547 1.9 1.9 0 0 1-.46-.762l1.273-.308a1.4 1.4 0 0 0 .25.347q.163.177.441.29.282.117.707.117.601 0 .996-.293.395-.289.395-.953v-1.137h-.07q-.11.218-.321.45a1.6 1.6 0 0 1-.55.386q-.34.156-.856.156-.692 0-1.254-.324-.558-.328-.89-.977-.329-.652-.329-1.632 0-.99.329-1.668.331-.684.894-1.036a2.3 2.3 0 0 1 1.254-.355q.528 0 .867.18.344.176.547.425.203.247.309.465h.078V90h1.394v6.098q0 .77-.367 1.273a2.2 2.2 0 0 1-1.004.754q-.636.25-1.445.25m.012-3.57q.448 0 .765-.22.316-.217.481-.628.164-.41.164-.984a2.8 2.8 0 0 0-.164-.992 1.4 1.4 0 0 0-.477-.66 1.23 1.23 0 0 0-.769-.239q-.473 0-.789.246-.317.247-.477.676-.16.426-.16.969 0 .55.16.965.164.41.481.64.32.227.785.227m5.668-2.32V96h-1.414v-6h1.351v1.02h.07q.207-.504.661-.801.457-.297 1.129-.297.62 0 1.082.266.464.265.718.769.258.504.254 1.223V96h-1.414v-3.602q0-.6-.312-.941-.309-.34-.856-.34-.37 0-.66.164-.285.16-.449.465-.16.305-.16.738"/><path fill="#000" fill-opacity=".7" d="M280.42 108.636q0 1.381-.498 2.387-.499 1.005-1.368 1.551-.87.545-1.986.545t-1.986-.545q-.869-.546-1.368-1.551-.498-1.006-.498-2.387 0-1.38.498-2.386.5-1.006 1.368-1.551.87-.546 1.986-.546t1.986.546 1.368 1.551.498 2.386m-1.022 0q0-1.133-.38-1.913-.375-.78-1.018-1.18a2.64 2.64 0 0 0-1.432-.401q-.792 0-1.436.401-.64.4-1.018 1.18-.375.78-.375 1.913t.375 1.914q.378.78 1.018 1.18.644.4 1.436.401a2.64 2.64 0 0 0 1.432-.401q.643-.4 1.018-1.18.38-.78.38-1.914m6.788 1.688v-3.869h1.006V113h-1.006v-1.108h-.068a2.15 2.15 0 0 1-.716.848q-.486.345-1.227.345-.614 0-1.091-.268a1.9 1.9 0 0 1-.75-.818q-.273-.55-.273-1.385v-4.159h1.006v4.09q0 .716.4 1.143.405.426 1.032.426.375 0 .762-.192.392-.192.657-.588.268-.396.268-1.01m2.848 2.676v-6.545h.971v.988h.069q.179-.485.647-.788a1.9 1.9 0 0 1 1.057-.303 11 11 0 0 1 .528.017v1.023a3 3 0 0 0-.234-.038 2.3 2.3 0 0 0-.379-.03q-.477 0-.852.2a1.468 1.468 0 0 0-.802 1.334V113zm12.749-6.545a1.34 1.34 0 0 0-.622-1.006q-.546-.358-1.339-.358-.579 0-1.014.187a1.6 1.6 0 0 0-.673.516 1.24 1.24 0 0 0-.239.746q0 .35.166.601.171.246.435.413.264.162.554.268.29.103.533.167l.886.238q.34.09.759.247.421.158.805.431.389.269.639.69.252.422.252 1.036a2.3 2.3 0 0 1-.371 1.278q-.366.571-1.074.908-.703.336-1.709.336-.937 0-1.623-.302a2.6 2.6 0 0 1-1.074-.844 2.4 2.4 0 0 1-.439-1.257h1.091q.042.495.332.818.294.32.742.477.452.154.971.154.606 0 1.087-.196.481-.2.763-.554.28-.358.281-.835 0-.435-.243-.708a1.8 1.8 0 0 0-.639-.443 7 7 0 0 0-.857-.298l-1.074-.307q-1.022-.294-1.619-.84-.596-.545-.596-1.427 0-.733.396-1.279.4-.549 1.074-.852a3.6 3.6 0 0 1 1.513-.307q.843 0 1.5.303.656.299 1.039.818.388.52.409 1.181zm5.59 0v.852h-3.393v-.852zm-2.404-1.569h1.006v6.239q0 .426.123.639a.65.65 0 0 0 .324.281q.2.069.422.069.166 0 .273-.017l.17-.035.205.904a2.2 2.2 0 0 1-.75.119q-.426 0-.835-.183a1.66 1.66 0 0 1-.674-.558q-.264-.376-.264-.946zm5.842 8.267q-.621 0-1.129-.234a1.94 1.94 0 0 1-.805-.686q-.299-.452-.299-1.091 0-.562.222-.912.222-.354.592-.554.371-.2.819-.298.451-.102.907-.162.597-.077.968-.115.374-.043.545-.141.175-.098.175-.341v-.034q0-.63-.345-.98-.342-.35-1.036-.349-.72 0-1.129.315-.41.316-.575.673l-.955-.341q.256-.596.682-.929.43-.336.937-.468a4 4 0 0 1 1.006-.137q.315 0 .724.077.414.072.797.303.388.23.644.694.255.465.255 1.245V113h-1.005v-.886h-.051a1.8 1.8 0 0 1-.341.456 2 2 0 0 1-.635.413q-.396.17-.968.17m.154-.903q.597 0 1.006-.234a1.6 1.6 0 0 0 .622-.605q.213-.372.213-.78v-.921q-.065.077-.281.141-.214.06-.495.106a21 21 0 0 1-.963.128q-.392.052-.733.166a1.26 1.26 0 0 0-.545.337q-.205.221-.205.605 0 .525.388.793.392.264.993.264m5.688-3.188V113h-1.006v-6.545h.972v1.022h.085q.23-.498.699-.801.469-.306 1.21-.307.665 0 1.163.273.499.269.776.818.277.546.277 1.381V113h-1.006v-4.091q0-.771-.4-1.202-.4-.434-1.1-.434-.481 0-.861.209-.375.208-.592.609-.217.4-.217.971m8.485 4.074q-.818 0-1.444-.413-.627-.417-.981-1.176-.353-.763-.353-1.803 0-1.031.353-1.789.354-.76.985-1.172.63-.414 1.457-.414.64 0 1.01.213.375.21.571.478.2.264.311.434h.085v-3.221h1.006V113h-.971v-1.006h-.12q-.111.18-.315.452-.204.269-.584.482-.379.208-1.01.208m.137-.903q.605 0 1.022-.315.418-.32.635-.882.218-.567.218-1.309 0-.733-.214-1.282a1.86 1.86 0 0 0-.63-.861q-.418-.311-1.031-.311-.64 0-1.066.328-.422.324-.635.882a3.5 3.5 0 0 0-.209 1.244q0 .699.213 1.27.217.567.64.904.426.332 1.057.332m6.771.92q-.622 0-1.129-.234a1.94 1.94 0 0 1-.806-.686q-.298-.452-.298-1.091 0-.562.221-.912.222-.354.593-.554a3.1 3.1 0 0 1 .818-.298 10 10 0 0 1 .908-.162q.596-.077.967-.115.375-.043.545-.141.175-.098.175-.341v-.034q0-.63-.345-.98-.34-.35-1.036-.349-.72 0-1.129.315-.409.316-.575.673l-.955-.341q.256-.596.682-.929.43-.336.938-.468a4 4 0 0 1 1.005-.137q.316 0 .725.077.413.072.797.303.387.23.643.694.256.465.256 1.245V113h-1.006v-.886h-.051a1.8 1.8 0 0 1-.341.456 2 2 0 0 1-.635.413q-.397.17-.967.17m.153-.903q.597 0 1.006-.234.413-.235.622-.605.213-.372.213-.78v-.921q-.063.077-.281.141a5 5 0 0 1-.494.106 21 21 0 0 1-.964.128 4 4 0 0 0-.732.166 1.26 1.26 0 0 0-.546.337q-.204.221-.204.605 0 .525.387.793.393.264.993.264m4.682.75v-6.545h.972v.988h.068q.178-.485.648-.788a1.9 1.9 0 0 1 1.057-.303 11 11 0 0 1 .528.017v1.023a3 3 0 0 0-.234-.038q-.18-.03-.38-.03-.477 0-.852.2a1.468 1.468 0 0 0-.801 1.334V113zm6.738.136q-.818 0-1.445-.413-.626-.417-.98-1.176-.354-.763-.354-1.803 0-1.031.354-1.789.354-.76.984-1.172.631-.414 1.458-.414.639 0 1.01.213.375.21.571.478.2.264.311.434h.085v-3.221h1.006V113h-.972v-1.006h-.119a6 6 0 0 1-.316.452q-.204.269-.583.482-.38.208-1.01.208m.136-.903q.605 0 1.023-.315.417-.32.635-.882.217-.567.217-1.309 0-.733-.213-1.282-.213-.555-.631-.861-.417-.311-1.031-.311-.639 0-1.065.328a1.96 1.96 0 0 0-.635.882q-.21.554-.209 1.244 0 .699.213 1.27.218.567.639.904.426.332 1.057.332m9.482-4.313-.904.256a1.7 1.7 0 0 0-.251-.439 1.2 1.2 0 0 0-.444-.358q-.28-.14-.72-.14-.6 0-1.001.277-.396.272-.396.694 0 .375.272.593.273.216.853.362l.971.238q.878.213 1.308.652.43.435.431 1.121 0 .562-.324 1.006a2.15 2.15 0 0 1-.895.699q-.574.255-1.338.255-1.001 0-1.658-.434-.656-.435-.831-1.27l.955-.239q.136.529.516.793.383.264 1.001.264.704 0 1.116-.298.418-.303.418-.725a.76.76 0 0 0-.239-.571q-.238-.234-.733-.349l-1.09-.256q-.9-.213-1.321-.66-.418-.453-.418-1.13 0-.554.311-.98.315-.426.857-.669a3 3 0 0 1 1.235-.243q.972 0 1.526.426.558.427.793 1.125m9.917-1.465a1.34 1.34 0 0 0-.622-1.006q-.546-.358-1.338-.358-.58 0-1.015.187a1.6 1.6 0 0 0-.673.516 1.24 1.24 0 0 0-.239.746q0 .35.167.601.17.246.434.413.264.162.554.268.29.103.533.167l.886.238q.341.09.759.247.422.158.805.431.389.269.639.69.252.422.252 1.036a2.3 2.3 0 0 1-.371 1.278q-.366.571-1.074.908-.703.336-1.709.336-.938 0-1.623-.302a2.6 2.6 0 0 1-1.074-.844 2.4 2.4 0 0 1-.439-1.257h1.091q.042.495.332.818.294.32.742.477.452.154.971.154.606 0 1.087-.196.481-.2.763-.554.28-.358.281-.835 0-.435-.243-.708a1.8 1.8 0 0 0-.639-.443 7 7 0 0 0-.857-.298l-1.073-.307q-1.023-.294-1.62-.84-.596-.545-.596-1.427 0-.733.396-1.279.4-.549 1.074-.852a3.6 3.6 0 0 1 1.513-.307q.843 0 1.5.303.656.299 1.039.818.388.52.409 1.181zm5.487 6.681q-.945 0-1.632-.417a2.8 2.8 0 0 1-1.052-1.176q-.367-.759-.367-1.765t.367-1.772a2.9 2.9 0 0 1 1.031-1.202q.664-.435 1.551-.435.512 0 1.01.171.498.17.908.554.409.38.652 1.005.243.627.243 1.543v.426h-5.046v-.869h4.023q0-.554-.222-.989a1.67 1.67 0 0 0-.622-.686 1.75 1.75 0 0 0-.946-.251q-.601 0-1.04.298a2 2 0 0 0-.669.767 2.25 2.25 0 0 0-.234 1.014v.58q0 .741.256 1.257.26.512.72.78a2.1 2.1 0 0 0 1.069.264q.397 0 .716-.111.324-.115.558-.341a1.55 1.55 0 0 0 .363-.571l.971.273a2.16 2.16 0 0 1-.515.869 2.5 2.5 0 0 1-.895.58 3.3 3.3 0 0 1-1.198.204m6.899 0q-.92 0-1.585-.434a2.83 2.83 0 0 1-1.022-1.198q-.358-.762-.358-1.743 0-.996.366-1.76.37-.766 1.031-1.197.665-.435 1.551-.435.69 0 1.245.256.554.255.907.716.354.46.439 1.074h-1.005a1.56 1.56 0 0 0-.512-.793q-.391-.35-1.057-.349-.588 0-1.031.307a2 2 0 0 0-.686.856q-.243.55-.243 1.291 0 .759.239 1.321.243.562.682.874.443.31 1.039.311.393 0 .712-.136a1.47 1.47 0 0 0 .857-1.006h1.005a2.32 2.32 0 0 1-1.304 1.777q-.545.268-1.27.268m6.891-6.681v.852h-3.392v-.852zm-2.403-1.569h1.005v6.239q0 .426.124.639a.64.64 0 0 0 .324.281q.2.069.422.069.165 0 .272-.017l.171-.035.204.904a2.2 2.2 0 0 1-.75.119q-.426 0-.835-.183a1.66 1.66 0 0 1-.673-.558q-.264-.376-.264-.946zm3.916 8.114v-6.545h1.006V113zm.511-7.636a.71.71 0 0 1-.507-.201.64.64 0 0 1-.209-.481q0-.282.209-.482a.72.72 0 0 1 .507-.2q.294 0 .503.2a.64.64 0 0 1 .213.482.64.64 0 0 1-.213.481.7.7 0 0 1-.503.201m4.996 7.772q-.887 0-1.556-.422a2.86 2.86 0 0 1-1.04-1.18q-.37-.759-.37-1.773 0-1.022.37-1.785.375-.763 1.04-1.185.67-.422 1.556-.422.887 0 1.551.422.669.422 1.04 1.185.375.763.375 1.785 0 1.014-.375 1.773a2.83 2.83 0 0 1-1.04 1.18q-.664.423-1.551.422m0-.903q.673 0 1.108-.345.434-.345.643-.908a3.5 3.5 0 0 0 .209-1.219q0-.656-.209-1.223a2.07 2.07 0 0 0-.643-.916q-.435-.35-1.108-.349-.674 0-1.108.349-.435.35-.644.916a3.5 3.5 0 0 0-.209 1.223q0 .657.209 1.219t.644.908 1.108.345m5.506-3.171V113h-1.005v-6.545h.971v1.022h.086q.23-.498.698-.801.469-.306 1.211-.307.665 0 1.163.273.498.269.776.818.276.546.277 1.381V113h-1.006v-4.091q0-.771-.401-1.202-.4-.434-1.099-.434-.482 0-.861.209-.375.208-.592.609-.218.4-.218.971"/><rect width="177" height="133" x="441" fill="#f8f8f7" rx="8"/><rect width="48" height="48" x="465" y="24" fill="#84c12f" rx="24"/><path fill="#fff" d="M499.522 33.002a1.96 1.96 0 0 1 1.958 1.958v26.08a1.96 1.96 0 0 1-1.958 1.958h-21.048a1.96 1.96 0 0 1-1.958-1.958V38.568q.001-.129.059-.242a.5.5 0 0 1 .097-.136l5.03-5.032.002-.002a.54.54 0 0 1 .377-.154zm-16.906 4.773c0 .733-.596 1.328-1.327 1.328v.002h-3.702V61.04c0 .489.398.887.887.887h21.05a.887.887 0 0 0 .886-.887V34.96a.887.887 0 0 0-.886-.887h-16.908zm9.994 5.351a.535.535 0 1 1 0 1.071h-.576v1.872c0 .568.134 1.137.389 1.645l5.122 10.244a1.48 1.48 0 0 1-.065 1.443c-.271.44-.744.704-1.262.704h-14.44c-.518 0-.991-.263-1.262-.704a1.48 1.48 0 0 1-.065-1.443l5.122-10.244a3.7 3.7 0 0 0 .389-1.645v-1.872h-.582a.536.536 0 0 1 0-1.071zm-5.577 2.943a4.8 4.8 0 0 1-.501 2.123l-5.122 10.246a.41.41 0 0 0 .018.4.4.4 0 0 0 .35.196h14.439a.4.4 0 0 0 .35-.195.41.41 0 0 0 .019-.401l-5.122-10.246a4.8 4.8 0 0 1-.501-2.123v-1.872h-3.93zm-1.031 10.314a.535.535 0 1 1-.001 0zm3.977 0a.536.536 0 1 1-.001 0zm-1.325-3.978a.535.535 0 1 1-.001 0zm8.643-13.618a.535.535 0 1 1 0 1.071h-5.784a.536.536 0 0 1 0-1.07zm-18.954-.754h2.946a.257.257 0 0 0 .256-.256v-2.946zm18.954-2.139a.536.536 0 0 1 0 1.072h-5.784a.535.535 0 1 1 0-1.072z"/><path fill="#000" d="M465.437 89.215V88h6.383v1.215h-2.472V96h-1.438v-6.785zM472.365 96v-6h1.371v1h.063a1.5 1.5 0 0 1 1.48-1.086q.118 0 .262.012.149.008.246.027v1.3a1.5 1.5 0 0 0-.285-.054 3 3 0 0 0-.371-.027q-.387 0-.695.168-.306.165-.481.457a1.3 1.3 0 0 0-.176.676V96zm8.186-2.523V90h1.414v6h-1.371v-1.066h-.063q-.203.503-.668.824-.46.32-1.136.32-.59 0-1.043-.262a1.8 1.8 0 0 1-.704-.77q-.253-.507-.253-1.226V90h1.414v3.602q0 .57.312.906.313.336.82.336.314 0 .606-.153.293-.151.48-.453.192-.305.192-.761M486.415 90v1.094h-3.449V90zm-2.598-1.437h1.414v5.632q0 .285.086.438.09.148.235.203a.9.9 0 0 0 .32.055q.133 0 .242-.02.114-.02.172-.035l.238 1.105a3 3 0 0 1-.324.086q-.207.048-.508.055a2.3 2.3 0 0 1-.957-.16 1.5 1.5 0 0 1-.675-.555q-.246-.375-.243-.937zm5.324 3.921V96h-1.414v-8h1.382v3.02h.071q.21-.508.652-.801.446-.297 1.133-.297.625 0 1.09.262t.718.765q.258.504.258 1.23V96h-1.414v-3.602q0-.605-.312-.941-.309-.34-.867-.34-.375 0-.672.164a1.15 1.15 0 0 0-.461.465q-.165.305-.164.738m8.06 3.516v-6h1.414v6zm.711-6.852a.82.82 0 0 1-.578-.222.72.72 0 0 1-.242-.543q0-.321.242-.543a.82.82 0 0 1 .578-.227q.34 0 .578.227.243.223.242.543 0 .316-.242.543a.82.82 0 0 1-.578.222m3.571 3.336V96h-1.414v-6h1.352v1.02h.07q.207-.504.66-.801.457-.297 1.129-.297.621 0 1.082.266.465.265.719.769.258.504.254 1.223V96h-1.414v-3.602q0-.6-.313-.941-.307-.34-.855-.34-.371 0-.66.164-.285.16-.449.465-.16.305-.161.738m8.08 3.516v-8h1.45v6.785h3.523V96zm7.895.121a2.5 2.5 0 0 1-1.027-.203 1.7 1.7 0 0 1-.719-.61q-.262-.401-.262-.992 0-.507.188-.84a1.45 1.45 0 0 1 .511-.53q.325-.2.731-.302a6 6 0 0 1 .848-.152q.526-.054.855-.098.328-.046.477-.14.152-.098.152-.3v-.024q0-.442-.262-.684-.261-.242-.754-.242-.52 0-.824.227-.3.226-.406.535l-1.32-.188q.156-.548.515-.914.36-.37.879-.555a3.4 3.4 0 0 1 1.148-.187q.434 0 .864.101t.785.336q.355.231.57.63.219.398.219.995V96h-1.359v-.824h-.047a1.72 1.72 0 0 1-.946.816 2.3 2.3 0 0 1-.816.13m.367-1.039q.426 0 .738-.168a1.24 1.24 0 0 0 .481-.453 1.15 1.15 0 0 0 .172-.613v-.707a.7.7 0 0 1-.227.101 3 3 0 0 1-.351.082q-.196.035-.387.063l-.332.047q-.317.042-.566.14a.94.94 0 0 0-.395.274.67.67 0 0 0-.145.445q0 .39.286.59.285.2.726.199m4.285.918v-8h1.414v2.992h.059q.11-.218.309-.465.198-.25.539-.425.339-.18.867-.18.694 0 1.254.355.563.352.89 1.043.332.688.332 1.688 0 .988-.324 1.68-.324.69-.883 1.054a2.27 2.27 0 0 1-1.265.364q-.516 0-.856-.172a1.75 1.75 0 0 1-.547-.415 2.7 2.7 0 0 1-.316-.464h-.082V96zm1.387-3q0 .582.164 1.02.168.438.481.683.316.243.765.242.469 0 .785-.25.317-.254.477-.691.164-.441.164-1.004 0-.558-.16-.992a1.5 1.5 0 0 0-.477-.68q-.317-.246-.789-.246-.453 0-.769.238a1.47 1.47 0 0 0-.481.668 2.9 2.9 0 0 0-.16 1.012m8.136 3.117q-.902 0-1.559-.375a2.54 2.54 0 0 1-1.004-1.07q-.351-.696-.351-1.637 0-.926.351-1.625.356-.703.993-1.094.636-.394 1.496-.394.554 0 1.046.18.497.175.875.546.384.372.602.946.219.57.219 1.36v.433h-4.918v-.953h3.562a1.5 1.5 0 0 0-.175-.723 1.3 1.3 0 0 0-.481-.504 1.35 1.35 0 0 0-.711-.184q-.433 0-.762.211-.327.207-.511.547-.18.336-.184.738v.833q0 .523.191.898.192.371.536.57a1.6 1.6 0 0 0 .804.196q.309 0 .559-.086.25-.09.434-.262a1.1 1.1 0 0 0 .277-.426l1.32.149a2.06 2.06 0 0 1-.476.914 2.3 2.3 0 0 1-.891.601 3.4 3.4 0 0 1-1.242.211M536.911 88v8h-1.414v-8zm1.454 8v-6h1.414v6zm.711-6.852a.83.83 0 0 1-.578-.222.72.72 0 0 1-.242-.543q0-.321.242-.543a.82.82 0 0 1 .578-.227q.34 0 .578.227.243.223.242.543 0 .316-.242.543a.82.82 0 0 1-.578.222m3.571 3.336V96h-1.414v-6h1.352v1.02h.07q.207-.504.66-.801.457-.297 1.129-.297.621 0 1.082.266.465.265.719.769.258.504.254 1.223V96h-1.414v-3.602q0-.6-.313-.941-.308-.34-.855-.34-.37 0-.66.164-.285.16-.449.465-.16.305-.161.738m7.899 5.891q-.762 0-1.309-.207a2.3 2.3 0 0 1-.879-.547 1.9 1.9 0 0 1-.461-.762l1.274-.308a1.4 1.4 0 0 0 .25.347q.163.177.441.29.282.117.707.117.601 0 .996-.293.395-.289.395-.953v-1.137h-.07q-.11.218-.321.45a1.6 1.6 0 0 1-.55.386q-.34.156-.856.156-.692 0-1.254-.324-.558-.328-.89-.977-.329-.652-.329-1.632 0-.99.329-1.668.332-.684.894-1.036a2.3 2.3 0 0 1 1.254-.355q.528 0 .867.18.344.176.547.425.203.247.309.465h.078V90h1.394v6.098q0 .77-.367 1.273a2.2 2.2 0 0 1-1.004.754q-.636.25-1.445.25m.012-3.57q.448 0 .765-.22.316-.217.481-.628.164-.41.164-.984a2.8 2.8 0 0 0-.164-.992 1.4 1.4 0 0 0-.477-.66 1.23 1.23 0 0 0-.769-.239q-.473 0-.789.246-.316.247-.477.676-.16.426-.16.969 0 .55.16.965.164.41.48.64.321.227.786.227"/><path fill="#000" fill-opacity=".7" d="M473.42 108.636q0 1.381-.498 2.387-.499 1.005-1.368 1.551-.87.545-1.986.545t-1.986-.545q-.869-.546-1.368-1.551-.498-1.006-.498-2.387 0-1.38.498-2.386.5-1.006 1.368-1.551.87-.546 1.986-.546t1.986.546 1.368 1.551.498 2.386m-1.022 0q0-1.133-.38-1.913-.375-.78-1.018-1.18a2.64 2.64 0 0 0-1.432-.401q-.792 0-1.436.401-.64.4-1.018 1.18-.375.78-.375 1.913t.375 1.914q.378.78 1.018 1.18.644.4 1.436.401a2.64 2.64 0 0 0 1.432-.401q.643-.4 1.018-1.18.38-.78.38-1.914m6.788 1.688v-3.869h1.006V113h-1.006v-1.108h-.068a2.15 2.15 0 0 1-.716.848q-.486.345-1.227.345-.614 0-1.091-.268a1.9 1.9 0 0 1-.75-.818q-.273-.55-.273-1.385v-4.159h1.006v4.09q0 .716.4 1.143.405.426 1.032.426.375 0 .762-.192.392-.192.657-.588.268-.396.268-1.01m2.848 2.676v-6.545h.971v.988h.069q.179-.485.647-.788a1.9 1.9 0 0 1 1.057-.303 11 11 0 0 1 .528.017v1.023a3 3 0 0 0-.234-.038 2.3 2.3 0 0 0-.379-.03q-.477 0-.852.2a1.468 1.468 0 0 0-.802 1.334V113zm12.749-6.545a1.34 1.34 0 0 0-.622-1.006q-.546-.358-1.339-.358-.579 0-1.014.187a1.6 1.6 0 0 0-.673.516 1.24 1.24 0 0 0-.239.746q0 .35.166.601.171.246.435.413.264.162.554.268.29.103.533.167l.886.238q.34.09.759.247.421.158.805.431.389.269.639.69.252.422.252 1.036a2.3 2.3 0 0 1-.371 1.278q-.366.571-1.074.908-.703.336-1.709.336-.937 0-1.623-.302a2.6 2.6 0 0 1-1.074-.844 2.4 2.4 0 0 1-.439-1.257h1.091q.042.495.332.818.294.32.742.477.452.154.971.154.606 0 1.087-.196.481-.2.763-.554.28-.358.281-.835 0-.435-.243-.708a1.8 1.8 0 0 0-.639-.443 7 7 0 0 0-.857-.298l-1.074-.307q-1.022-.294-1.619-.84-.597-.545-.596-1.427 0-.733.396-1.279.4-.549 1.074-.852a3.6 3.6 0 0 1 1.513-.307q.843 0 1.5.303.656.299 1.039.818.388.52.409 1.181zm5.59 0v.852h-3.393v-.852zm-2.404-1.569h1.006v6.239q0 .426.123.639a.65.65 0 0 0 .324.281q.2.069.422.069.166 0 .273-.017l.17-.035.205.904a2.2 2.2 0 0 1-.75.119q-.426 0-.835-.183a1.66 1.66 0 0 1-.674-.558q-.264-.376-.264-.946zm5.842 8.267q-.621 0-1.129-.234a1.94 1.94 0 0 1-.805-.686q-.299-.452-.299-1.091 0-.562.222-.912.222-.354.592-.554.371-.2.819-.298.451-.102.907-.162.597-.077.968-.115.374-.043.545-.141.175-.098.175-.341v-.034q0-.63-.345-.98-.342-.35-1.036-.349-.72 0-1.129.315-.41.316-.575.673l-.955-.341q.255-.596.682-.929.43-.336.937-.468a4 4 0 0 1 1.006-.137q.315 0 .724.077.414.072.797.303.388.23.644.694.255.465.255 1.245V113h-1.005v-.886h-.051a1.8 1.8 0 0 1-.341.456 2 2 0 0 1-.635.413q-.396.17-.968.17m.154-.903q.597 0 1.006-.234a1.6 1.6 0 0 0 .622-.605q.213-.372.213-.78v-.921q-.065.077-.281.141-.214.06-.495.106a21 21 0 0 1-.963.128q-.392.052-.733.166a1.26 1.26 0 0 0-.545.337q-.205.221-.205.605 0 .525.388.793.392.264.993.264m5.688-3.188V113h-1.006v-6.545h.972v1.022h.085q.23-.498.699-.801.468-.306 1.21-.307.665 0 1.163.273.499.269.776.818.277.546.277 1.381V113h-1.006v-4.091q0-.771-.4-1.202-.4-.434-1.1-.434-.481 0-.861.209-.375.208-.592.609-.217.4-.217.971m8.485 4.074q-.818 0-1.444-.413-.627-.417-.981-1.176-.353-.763-.353-1.803 0-1.031.353-1.789.354-.76.985-1.172.63-.414 1.457-.414.64 0 1.01.213.375.21.571.478.2.264.311.434h.085v-3.221h1.006V113h-.971v-1.006h-.12q-.111.18-.315.452-.204.269-.584.482-.379.208-1.01.208m.137-.903q.605 0 1.022-.315.418-.32.635-.882.218-.567.218-1.309 0-.733-.214-1.282a1.86 1.86 0 0 0-.63-.861q-.418-.311-1.031-.311-.64 0-1.066.328-.422.324-.635.882a3.5 3.5 0 0 0-.209 1.244q0 .699.213 1.27.217.567.64.904.426.332 1.057.332m6.771.92q-.622 0-1.129-.234a1.94 1.94 0 0 1-.806-.686q-.298-.452-.298-1.091 0-.562.221-.912.222-.354.593-.554a3.1 3.1 0 0 1 .818-.298 10 10 0 0 1 .908-.162q.596-.077.967-.115.375-.043.545-.141.175-.098.175-.341v-.034q0-.63-.345-.98-.34-.35-1.036-.349-.72 0-1.129.315-.409.316-.575.673l-.955-.341q.256-.596.682-.929.43-.336.938-.468a4 4 0 0 1 1.005-.137q.316 0 .725.077.413.072.797.303.388.23.643.694.256.465.256 1.245V113h-1.006v-.886h-.051a1.8 1.8 0 0 1-.341.456 2 2 0 0 1-.635.413q-.396.17-.967.17m.153-.903q.597 0 1.006-.234.413-.235.622-.605.213-.372.213-.78v-.921q-.063.077-.281.141a5 5 0 0 1-.494.106 21 21 0 0 1-.964.128 4 4 0 0 0-.732.166 1.26 1.26 0 0 0-.546.337q-.204.221-.204.605 0 .525.387.793.393.264.993.264m4.682.75v-6.545h.972v.988h.068q.178-.485.648-.788a1.9 1.9 0 0 1 1.057-.303 11 11 0 0 1 .528.017v1.023a3 3 0 0 0-.234-.038q-.18-.03-.38-.03-.477 0-.852.2a1.468 1.468 0 0 0-.801 1.334V113zm6.738.136q-.819 0-1.445-.413-.626-.417-.98-1.176-.354-.763-.354-1.803 0-1.031.354-1.789.354-.76.984-1.172.632-.414 1.458-.414.639 0 1.01.213.375.21.571.478.2.264.311.434h.085v-3.221h1.006V113h-.972v-1.006h-.119a6 6 0 0 1-.316.452q-.204.269-.583.482-.38.208-1.01.208m.136-.903q.605 0 1.023-.315.417-.32.635-.882.217-.567.217-1.309 0-.733-.213-1.282-.213-.555-.631-.861-.417-.311-1.031-.311-.639 0-1.065.328a1.96 1.96 0 0 0-.635.882q-.21.554-.209 1.244 0 .699.213 1.27.217.567.639.904.426.332 1.057.332m9.482-4.313-.904.256a1.7 1.7 0 0 0-.251-.439 1.2 1.2 0 0 0-.444-.358q-.28-.14-.72-.14-.6 0-1.001.277-.396.272-.396.694 0 .375.272.593.273.216.853.362l.971.238q.878.213 1.308.652.43.435.431 1.121 0 .562-.324 1.006a2.15 2.15 0 0 1-.895.699q-.574.255-1.338.255-1.001 0-1.658-.434-.655-.435-.831-1.27l.955-.239q.136.529.516.793.383.264 1.001.264.703 0 1.116-.298.418-.303.418-.725a.76.76 0 0 0-.239-.571q-.238-.234-.733-.349l-1.09-.256q-.9-.213-1.321-.66-.418-.453-.418-1.13 0-.554.311-.98.315-.426.857-.669a3 3 0 0 1 1.235-.243q.972 0 1.526.426.558.427.793 1.125m9.917-1.465a1.34 1.34 0 0 0-.622-1.006q-.546-.358-1.338-.358-.58 0-1.015.187a1.6 1.6 0 0 0-.673.516 1.24 1.24 0 0 0-.239.746q0 .35.167.601.17.246.434.413.264.162.554.268.29.103.533.167l.886.238q.341.09.759.247.422.158.805.431.389.269.639.69.252.422.252 1.036a2.3 2.3 0 0 1-.371 1.278q-.366.571-1.074.908-.703.336-1.709.336-.937 0-1.623-.302a2.6 2.6 0 0 1-1.074-.844 2.4 2.4 0 0 1-.439-1.257h1.091q.042.495.332.818.294.32.742.477.452.154.971.154.606 0 1.087-.196.481-.2.763-.554.28-.358.281-.835 0-.435-.243-.708a1.8 1.8 0 0 0-.639-.443 7 7 0 0 0-.857-.298l-1.073-.307q-1.023-.294-1.62-.84-.596-.545-.596-1.427 0-.733.396-1.279.4-.549 1.074-.852a3.6 3.6 0 0 1 1.513-.307q.843 0 1.5.303.656.299 1.039.818.388.52.409 1.181zm5.487 6.681q-.945 0-1.632-.417a2.8 2.8 0 0 1-1.052-1.176q-.367-.759-.367-1.765t.367-1.772a2.9 2.9 0 0 1 1.031-1.202q.665-.435 1.551-.435.512 0 1.01.171.498.17.908.554.409.38.652 1.005.243.627.243 1.543v.426h-5.046v-.869h4.023q0-.554-.222-.989a1.67 1.67 0 0 0-.622-.686 1.75 1.75 0 0 0-.946-.251q-.601 0-1.04.298a2 2 0 0 0-.669.767 2.25 2.25 0 0 0-.234 1.014v.58q0 .741.256 1.257.26.512.72.78a2.1 2.1 0 0 0 1.069.264q.397 0 .716-.111.324-.115.558-.341a1.55 1.55 0 0 0 .363-.571l.971.273a2.16 2.16 0 0 1-.515.869 2.5 2.5 0 0 1-.895.58 3.3 3.3 0 0 1-1.198.204m6.899 0q-.92 0-1.585-.434a2.83 2.83 0 0 1-1.022-1.198q-.358-.762-.358-1.743 0-.996.366-1.76.37-.766 1.031-1.197.665-.435 1.551-.435.69 0 1.245.256.554.255.907.716.354.46.439 1.074h-1.005a1.56 1.56 0 0 0-.512-.793q-.391-.35-1.057-.349-.588 0-1.031.307a2 2 0 0 0-.686.856q-.243.55-.243 1.291 0 .759.239 1.321.243.562.682.874.443.31 1.039.311.393 0 .712-.136a1.47 1.47 0 0 0 .857-1.006h1.005a2.32 2.32 0 0 1-1.304 1.777q-.545.268-1.27.268m6.891-6.681v.852h-3.392v-.852zm-2.403-1.569h1.005v6.239q0 .426.124.639a.64.64 0 0 0 .324.281q.2.069.422.069.165 0 .272-.017l.171-.035.204.904a2.2 2.2 0 0 1-.75.119q-.426 0-.835-.183a1.66 1.66 0 0 1-.673-.558q-.264-.376-.264-.946zm3.916 8.114v-6.545h1.006V113zm.511-7.636a.71.71 0 0 1-.507-.201.64.64 0 0 1-.209-.481q0-.282.209-.482a.72.72 0 0 1 .507-.2q.294 0 .503.2a.64.64 0 0 1 .213.482.64.64 0 0 1-.213.481.7.7 0 0 1-.503.201m4.996 7.772q-.887 0-1.556-.422a2.86 2.86 0 0 1-1.04-1.18q-.37-.759-.37-1.773 0-1.022.37-1.785.375-.763 1.04-1.185.67-.422 1.556-.422t1.551.422q.669.422 1.04 1.185.375.763.375 1.785 0 1.014-.375 1.773a2.83 2.83 0 0 1-1.04 1.18q-.665.423-1.551.422m0-.903q.673 0 1.108-.345.434-.345.643-.908a3.5 3.5 0 0 0 .209-1.219q0-.656-.209-1.223a2.07 2.07 0 0 0-.643-.916q-.435-.35-1.108-.349-.674 0-1.108.349-.435.35-.644.916a3.5 3.5 0 0 0-.209 1.223q0 .657.209 1.219t.644.908q.434.345 1.108.345m5.506-3.171V113h-1.005v-6.545h.971v1.022h.086q.23-.498.698-.801.469-.306 1.211-.307.665 0 1.163.273.498.269.776.818.276.546.277 1.381V113h-1.006v-4.091q0-.771-.401-1.202-.4-.434-1.099-.434-.481 0-.861.209-.375.208-.592.609-.218.4-.218.971"/><rect width="260" height="133" x="634" fill="#f8f8f7" rx="8"/><rect width="48" height="48" x="658" y="24" fill="#84c12f" rx="24"/><path fill="#fff" fill-rule="evenodd" d="M677.678 51.772c.96 0 1.741.78 1.741 1.74v.492c0 .194-.034.38-.093.556.784.51 1.719.806 2.787.878v-.23c0-1.29 1.05-2.34 2.341-2.34h1.567c1.29 0 2.34 1.05 2.34 2.34v4.13h.239c.948 0 1.72.771 1.72 1.72v1.05a.89.89 0 0 1-.888.89h-8.355a.89.89 0 0 1-.889-.89v-1.05c0-.947.771-1.72 1.72-1.72h.205V56.51c-1.308-.077-2.458-.442-3.427-1.09a1.73 1.73 0 0 1-1.008.325h-4.844c-.96 0-1.74-.781-1.74-1.741v-.491c0-.96.78-1.741 1.74-1.741zm4.229 8.635a.65.65 0 0 0-.649.65v.869h7.99v-.87a.65.65 0 0 0-.649-.649zm2.547-6.468c-.7 0-1.269.569-1.269 1.269v4.13h4.105v-4.13c0-.7-.569-1.27-1.269-1.27zm.782 2.185a.535.535 0 1 1 0 1.071.535.535 0 1 1-.001-1.071zm-12.402-3.281a.67.67 0 0 0-.669.67v.49c0 .37.3.67.669.67h4.844c.369 0 .67-.3.67-.67v-.49a.67.67 0 0 0-.67-.67zm18.016-11.536a.536.536 0 0 1 .701.283c1.023 2.416 2.951 8.492-1.22 12.734a.53.53 0 0 1-.382.16.538.538 0 0 1-.382-.912c3.586-3.645 2.165-8.81.998-11.564a.536.536 0 0 1 .285-.701m-2.586 2.597a.537.537 0 0 1 .688.318c.667 1.806 1.331 5.17-1.705 7.393a.54.54 0 0 1-.316.103v.002a.535.535 0 0 1-.318-.969c2.345-1.718 2.02-4.297 1.333-6.158a.54.54 0 0 1 .318-.689m-11.52 1.698a.537.537 0 0 1 .758.758l-.624.624a.838.838 0 0 0 1.183 1.187l.625-.626a.536.536 0 0 1 .757.759l-.624.624c-.359.36-.838.56-1.348.56l-.001-.003c-.512 0-.991-.199-1.35-.56a1.91 1.91 0 0 1 0-2.698zm9.426-12.174a1.454 1.454 0 0 1 2.052 0l3.882 3.883a1.452 1.452 0 0 1-1.025 2.476q-.234 0-.459-.076l-7.69 7.692a1.3 1.3 0 0 1-.931.386c-.351 0-.682-.137-.931-.386l-2.78-2.78a1.3 1.3 0 0 1-.386-.93c0-.353.137-.682.386-.931l7.628-7.628a1.45 1.45 0 0 1 .254-1.706m-7.124 10.092a.245.245 0 0 0 0 .345l2.78 2.78a.246.246 0 0 0 .346 0l7.482-7.483-3.125-3.125zm8.149-9.446a.379.379 0 0 0-.267.649l3.884 3.883a.38.38 0 1 0 .537-.538l-3.884-3.883a.38.38 0 0 0-.268-.11z" clip-rule="evenodd"/><path fill="#000" d="M663.137 90.2a1.07 1.07 0 0 0-.461-.798q-.402-.285-1.047-.285-.453 0-.777.137a1.15 1.15 0 0 0-.497.371.9.9 0 0 0-.175.535q0 .25.113.434.117.183.316.312.2.126.442.211.242.086.488.145l.75.187q.454.106.871.285.422.18.754.454.336.273.531.66.196.387.196.906 0 .703-.36 1.238-.359.532-1.039.832-.675.297-1.637.297-.933 0-1.621-.289a2.4 2.4 0 0 1-1.07-.844q-.383-.555-.414-1.351h1.426q.031.417.258.695.226.278.589.414.368.137.821.137.473 0 .828-.14.359-.145.562-.4a.96.96 0 0 0 .207-.6.76.76 0 0 0-.183-.516 1.35 1.35 0 0 0-.504-.344 5 5 0 0 0-.75-.25l-.91-.235q-.988-.253-1.563-.77-.57-.518-.57-1.378 0-.707.383-1.238a2.53 2.53 0 0 1 1.051-.825 3.64 3.64 0 0 1 1.503-.296q.852 0 1.493.296a2.43 2.43 0 0 1 1.011.817q.367.52.379 1.195zm5.35 5.917q-.898 0-1.543-.394a2.64 2.64 0 0 1-.988-1.09q-.344-.7-.344-1.61 0-.914.352-1.613.351-.703.992-1.094.645-.394 1.523-.394.73 0 1.293.27.567.266.903.753.336.484.383 1.133h-1.352a1.3 1.3 0 0 0-.391-.722q-.304-.293-.816-.293-.434 0-.762.234a1.5 1.5 0 0 0-.511.664q-.18.433-.18 1.039 0 .613.18 1.055.179.437.503.675.329.235.77.235.313 0 .559-.117a1.1 1.1 0 0 0 .418-.348q.168-.227.23-.55h1.352a2.36 2.36 0 0 1-.375 1.128q-.325.488-.883.766-.559.273-1.313.273m3.732-.117v-6h1.414v6zm.711-6.852a.82.82 0 0 1-.578-.222.72.72 0 0 1-.243-.543q0-.321.243-.543a.82.82 0 0 1 .578-.227.8.8 0 0 1 .578.227q.242.223.242.543a.72.72 0 0 1-.242.543.82.82 0 0 1-.578.222m4.813 6.97q-.902 0-1.558-.376a2.54 2.54 0 0 1-1.004-1.07q-.352-.696-.352-1.637 0-.926.352-1.625.355-.703.992-1.094.636-.394 1.496-.394.555 0 1.047.18.496.175.875.546.383.372.601.946.219.57.219 1.36v.433h-4.918v-.953h3.563a1.53 1.53 0 0 0-.176-.723 1.3 1.3 0 0 0-.481-.504 1.35 1.35 0 0 0-.711-.184q-.433 0-.761.211a1.45 1.45 0 0 0-.512.547q-.18.336-.184.738v.833q0 .523.192.898.191.371.535.57a1.6 1.6 0 0 0 .805.196q.308 0 .558-.086.25-.09.434-.262.183-.172.277-.426l1.321.149a2.1 2.1 0 0 1-.477.914 2.3 2.3 0 0 1-.891.601 3.4 3.4 0 0 1-1.242.211m5.278-3.634V96h-1.414v-6h1.352v1.02h.07q.207-.504.66-.801.457-.297 1.129-.297.621 0 1.082.266.465.265.719.769.258.504.254 1.223V96h-1.414v-3.602q0-.6-.313-.941-.308-.34-.855-.34-.37 0-.66.164-.285.16-.449.465-.16.305-.161.738m7.907 3.633q-.899 0-1.543-.394a2.64 2.64 0 0 1-.989-1.09q-.343-.7-.343-1.61 0-.914.351-1.613.352-.703.992-1.094.645-.394 1.524-.394.73 0 1.293.27.566.266.902.753.336.484.383 1.133h-1.352a1.3 1.3 0 0 0-.39-.722q-.304-.293-.817-.293-.434 0-.761.234-.329.23-.512.664-.18.433-.18 1.039 0 .613.18 1.055.18.437.504.675.328.235.769.235.313 0 .559-.117.25-.122.418-.348.168-.227.23-.55h1.352a2.36 2.36 0 0 1-.375 1.128q-.324.488-.883.766-.558.273-1.312.273m6.387 0q-.902 0-1.558-.375a2.54 2.54 0 0 1-1.004-1.07q-.352-.696-.352-1.637 0-.926.352-1.625.356-.703.992-1.094.637-.394 1.496-.394.555 0 1.047.18.496.175.875.546.383.372.602.946.218.57.218 1.36v.433h-4.918v-.953h3.563a1.5 1.5 0 0 0-.176-.723 1.3 1.3 0 0 0-.48-.504 1.35 1.35 0 0 0-.711-.184q-.433 0-.762.211-.328.207-.512.547-.18.336-.183.738v.833q0 .523.191.898.192.371.535.57.344.196.805.196.309 0 .559-.086a1.2 1.2 0 0 0 .433-.262q.184-.172.277-.426l1.321.149a2.06 2.06 0 0 1-.477.914 2.3 2.3 0 0 1-.89.601q-.543.21-1.243.211m7.501-4.031v1.164h-3.601v-1.164zm1.55 3.914v-8h3.063q.867 0 1.441.273.578.27.863.739.29.468.289 1.062 0 .489-.187.836-.187.345-.504.559a2.1 2.1 0 0 1-.707.308v.079q.426.023.816.261.394.234.645.664.25.43.25 1.04 0 .62-.301 1.117-.3.492-.906.777t-1.524.285zm1.449-1.21h1.559q.789 0 1.137-.302a.99.99 0 0 0 .351-.781 1.2 1.2 0 0 0-.675-1.094 1.67 1.67 0 0 0-.774-.168h-1.598zm0-3.388h1.434q.375 0 .676-.136.3-.141.472-.395a1.05 1.05 0 0 0 .176-.61 1 1 0 0 0-.328-.765q-.324-.3-.965-.3h-1.465zm7.445 4.72q-.57 0-1.028-.204a1.68 1.68 0 0 1-.718-.61q-.262-.401-.262-.992 0-.507.187-.84.188-.331.512-.53a2.6 2.6 0 0 1 .731-.302q.41-.105.847-.152.528-.054.856-.098.328-.046.476-.14.153-.098.153-.3v-.024q0-.442-.262-.684t-.754-.242q-.52 0-.824.227-.301.226-.406.535l-1.321-.188q.156-.548.516-.914.359-.37.879-.555a3.4 3.4 0 0 1 1.148-.187q.433 0 .864.101.43.102.785.336.356.231.57.63.219.398.219.995V96h-1.36v-.824h-.047a1.7 1.7 0 0 1-.945.816 2.4 2.4 0 0 1-.816.13m.367-1.04q.426 0 .738-.168a1.24 1.24 0 0 0 .481-.453 1.16 1.16 0 0 0 .172-.613v-.707a.7.7 0 0 1-.227.101 3 3 0 0 1-.352.082q-.195.035-.386.063l-.332.047q-.317.042-.567.14a.94.94 0 0 0-.394.274.67.67 0 0 0-.145.445q0 .39.285.59t.727.199m6.84 1.035q-.898 0-1.543-.394a2.63 2.63 0 0 1-.988-1.09q-.345-.7-.344-1.61 0-.914.351-1.613.352-.703.993-1.094.644-.394 1.523-.394.73 0 1.293.27.567.266.902.753.336.484.383 1.133h-1.351a1.3 1.3 0 0 0-.391-.722q-.304-.293-.816-.293-.434 0-.762.234-.329.23-.512.664-.18.433-.18 1.039 0 .613.18 1.055.18.437.504.675.328.235.77.235.312 0 .558-.117.25-.122.418-.348a1.34 1.34 0 0 0 .231-.55h1.351a2.36 2.36 0 0 1-.375 1.128q-.324.488-.883.766-.558.273-1.312.273m5.02-2-.004-1.707h.227l2.156-2.41h1.653l-2.653 2.953h-.293zM726.198 96v-8h1.414v8zm3.766 0-1.953-2.73.953-.997L731.655 96zm4.906.117q-.902 0-1.558-.375a2.54 2.54 0 0 1-1.004-1.07q-.352-.696-.352-1.637 0-.926.352-1.625.355-.703.992-1.094.636-.394 1.496-.394.555 0 1.047.18.496.175.875.546.383.372.601.946.219.57.219 1.36v.433h-4.918v-.953h3.563a1.53 1.53 0 0 0-.176-.723 1.3 1.3 0 0 0-.481-.504 1.35 1.35 0 0 0-.711-.184q-.434 0-.761.211a1.45 1.45 0 0 0-.512.547q-.18.336-.184.738v.833q0 .523.192.898.191.371.535.57a1.6 1.6 0 0 0 .805.196q.308 0 .558-.086.25-.09.434-.262.183-.172.277-.426l1.32.149a2.06 2.06 0 0 1-.476.914 2.3 2.3 0 0 1-.891.601 3.4 3.4 0 0 1-1.242.211m6.091-.011q-.707 0-1.266-.364-.558-.363-.882-1.055-.325-.69-.325-1.68 0-.999.328-1.687.333-.69.895-1.043a2.3 2.3 0 0 1 1.254-.355q.527 0 .867.18.34.176.539.425.2.247.309.465h.058V88h1.418v8h-1.39v-.945h-.086q-.11.218-.317.464-.207.243-.547.415-.339.172-.855.172m.394-1.16q.45 0 .766-.243.316-.246.481-.684.164-.437.164-1.019a2.8 2.8 0 0 0-.164-1.012 1.44 1.44 0 0 0-.477-.668 1.23 1.23 0 0 0-.77-.238q-.473 0-.789.246a1.5 1.5 0 0 0-.476.68q-.16.434-.16.992 0 .563.16 1.004.163.438.48.691.321.25.785.25m9.427 1.171q-.82 0-1.41-.297a2.24 2.24 0 0 1-.91-.8 2.1 2.1 0 0 1-.316-1.145q0-.48.195-.852.2-.37.547-.687.351-.316.812-.629l1.418-.965q.312-.203.473-.43a.9.9 0 0 0 .164-.53q0-.259-.219-.489-.215-.23-.594-.23a.83.83 0 0 0-.449.12.832.832 0 0 0-.406.715q0 .262.144.532.149.27.383.558l.508.614L754.876 96h-1.531l-3.117-3.57q-.348-.406-.672-.801a4.2 4.2 0 0 1-.528-.82 2.15 2.15 0 0 1-.203-.93q0-.567.262-1.012.261-.45.73-.707.473-.258 1.106-.258t1.086.25.699.664.246.903q0 .566-.281 1.015a3 3 0 0 1-.781.809l-1.618 1.184q-.397.289-.57.585-.172.293-.172.5 0 .317.16.575t.45.414q.293.152.683.152.43 0 .848-.191.417-.195.762-.555a2.7 2.7 0 0 0 .546-.86q.204-.503.204-1.116h1.214q0 .757-.168 1.32a3.4 3.4 0 0 1-.433.945q-.266.383-.563.613a5 5 0 0 0-.179.133l-.18.133a2.6 2.6 0 0 1-.988.563q-.563.18-1.106.18m14.542-5.418h-1.461a1.8 1.8 0 0 0-.23-.636 1.7 1.7 0 0 0-.988-.77 2.2 2.2 0 0 0-.684-.102q-.652 0-1.156.328-.504.325-.789.954-.286.624-.286 1.527 0 .918.286 1.547.288.625.789.945.504.317 1.152.317.36 0 .672-.094.317-.097.566-.285.255-.188.426-.461.176-.273.242-.625l1.461.008q-.082.57-.355 1.07-.27.5-.707.883-.438.378-1.024.593-.585.211-1.3.211-1.055 0-1.883-.488t-1.305-1.41-.477-2.211q0-1.293.481-2.21.48-.924 1.309-1.411.828-.488 1.875-.488.668 0 1.242.187.575.188 1.023.55.45.36.738.884.293.52.383 1.187M768.003 88v8h-1.414v-8zm1.454 8v-6h1.414v6zm.711-6.852a.82.82 0 0 1-.578-.222.72.72 0 0 1-.242-.543q0-.321.242-.543a.82.82 0 0 1 .578-.227q.34 0 .578.227.243.223.242.543 0 .316-.242.543a.82.82 0 0 1-.578.222m3.571 3.336V96h-1.414v-6h1.352v1.02h.07q.207-.504.66-.801.457-.297 1.129-.297.621 0 1.082.266.465.265.719.769.258.504.254 1.223V96h-1.414v-3.602q0-.6-.313-.941-.308-.34-.855-.34a1.3 1.3 0 0 0-.66.164q-.285.16-.45.465-.16.305-.16.738M779.028 96v-6h1.414v6zm.711-6.852a.83.83 0 0 1-.578-.222.72.72 0 0 1-.242-.543q0-.321.242-.543a.82.82 0 0 1 .578-.227q.34 0 .578.227.243.223.243.543 0 .316-.243.543a.81.81 0 0 1-.578.222m4.775 6.97q-.899 0-1.543-.395a2.64 2.64 0 0 1-.989-1.09q-.343-.7-.343-1.61 0-.914.351-1.613.352-.703.992-1.094.645-.394 1.524-.394.73 0 1.293.27.566.266.902.753.336.484.383 1.133h-1.352a1.3 1.3 0 0 0-.39-.722q-.304-.293-.817-.293-.434 0-.761.234-.329.23-.512.664-.18.433-.18 1.039 0 .613.18 1.055.18.437.504.675.328.235.769.235.313 0 .559-.117.25-.122.418-.348.168-.227.23-.55h1.352a2.36 2.36 0 0 1-.375 1.128q-.324.488-.883.766-.558.273-1.312.273m5.458.003q-.571 0-1.028-.203a1.68 1.68 0 0 1-.718-.61q-.262-.401-.262-.992 0-.507.187-.84.188-.331.512-.53a2.6 2.6 0 0 1 .731-.302q.41-.105.847-.152.528-.054.856-.098.327-.046.476-.14.153-.098.153-.3v-.024q0-.442-.262-.684t-.754-.242q-.52 0-.824.227-.301.226-.407.535l-1.32-.188q.156-.548.516-.914.359-.37.879-.555a3.4 3.4 0 0 1 1.148-.187q.434 0 .863.101.43.102.786.336.356.231.57.63.219.398.219.995V96h-1.36v-.824h-.047a1.7 1.7 0 0 1-.363.468q-.231.216-.582.348a2.4 2.4 0 0 1-.816.13m.367-1.039q.426 0 .738-.168.313-.172.481-.453.171-.282.171-.613v-.707a.7.7 0 0 1-.226.101 3 3 0 0 1-.352.082q-.195.035-.386.063l-.332.047q-.316.042-.567.14a.94.94 0 0 0-.394.274.67.67 0 0 0-.145.445q0 .39.285.59t.727.199M795.976 88v8h-1.414v-8zm2.868 0v8h-1.414v-8zm2.333 10.25a2.9 2.9 0 0 1-.922-.148l.328-1.102q.309.09.551.086a.68.68 0 0 0 .426-.152q.187-.145.316-.485l.121-.324L799.821 90h1.5l1.383 4.531h.063L804.153 90h1.504l-2.402 6.727q-.168.476-.445.816-.278.345-.68.523-.399.184-.953.184m8.25-2.25v-8h5.125v1.215h-3.676v2.172h3.324v1.215h-3.324V96zm8.559.117q-.878 0-1.523-.386a2.62 2.62 0 0 1-1-1.083q-.351-.695-.352-1.625 0-.93.352-1.629.355-.7 1-1.085.644-.387 1.523-.387t1.524.387.996 1.085q.355.7.355 1.63t-.355 1.624a2.6 2.6 0 0 1-.996 1.083q-.645.386-1.524.386m.008-1.133q.476 0 .797-.261.32-.266.477-.711.16-.445.16-.993 0-.55-.16-.996a1.6 1.6 0 0 0-.477-.714q-.32-.266-.797-.266-.488 0-.812.266a1.6 1.6 0 0 0-.481.714 3 3 0 0 0-.156.996q0 .547.156.993.16.446.481.71.324.262.812.262M822.062 96v-6h1.371v1h.062q.164-.52.563-.8.402-.286.918-.286.117 0 .261.012.148.008.246.027v1.3a1.5 1.5 0 0 0-.285-.054 3 3 0 0 0-.371-.027 1.43 1.43 0 0 0-.695.168q-.304.165-.481.457-.175.292-.175.676V96zm4.361 0v-6h1.351v1.02h.071q.188-.516.621-.805.433-.293 1.035-.293.61 0 1.027.297.422.293.594.8h.063q.198-.5.671-.796.477-.3 1.129-.301.828 0 1.352.523.523.524.523 1.528V96h-1.418v-3.809q0-.558-.296-.816a1.06 1.06 0 0 0-.727-.262q-.511 0-.801.32-.285.317-.285.825V96h-1.387v-3.867q0-.465-.281-.742-.277-.278-.727-.278-.305 0-.554.156a1.1 1.1 0 0 0-.399.434 1.35 1.35 0 0 0-.148.649V96zm13.696-2.523V90h1.414v6h-1.371v-1.066h-.062q-.203.503-.668.824-.462.32-1.137.32-.59 0-1.043-.262a1.8 1.8 0 0 1-.703-.77q-.254-.507-.254-1.226V90h1.414v3.602q0 .57.312.906.313.336.821.336.312 0 .605-.153.294-.151.481-.453.19-.305.191-.761M844.401 88v8h-1.414v-8zm3.181 8.121a2.5 2.5 0 0 1-1.027-.203 1.7 1.7 0 0 1-.719-.61q-.262-.401-.262-.992 0-.507.188-.84a1.45 1.45 0 0 1 .511-.53q.325-.2.731-.302a6 6 0 0 1 .848-.152q.527-.054.855-.098.329-.046.477-.14.152-.098.152-.3v-.024q0-.442-.262-.684t-.754-.242q-.52 0-.824.227-.3.226-.406.535l-1.32-.188q.156-.548.515-.914.36-.37.879-.555a3.4 3.4 0 0 1 1.149-.187q.433 0 .863.101t.785.336q.356.231.57.63.219.398.219.995V96h-1.359v-.824h-.047a1.72 1.72 0 0 1-.946.816 2.3 2.3 0 0 1-.816.13m.367-1.039q.426 0 .739-.168.312-.172.48-.453a1.15 1.15 0 0 0 .172-.613v-.707a.7.7 0 0 1-.227.101 3 3 0 0 1-.351.082q-.195.035-.387.063l-.332.047q-.317.042-.566.14a.94.94 0 0 0-.395.274.67.67 0 0 0-.144.445q0 .39.285.59t.726.199M855.168 90v1.094h-3.449V90zm-2.598-1.437h1.414v5.632q0 .285.086.438.09.148.235.203a.9.9 0 0 0 .32.055q.133 0 .242-.02.114-.02.172-.035l.238 1.105a3 3 0 0 1-.324.086q-.207.048-.508.055a2.3 2.3 0 0 1-.957-.16 1.5 1.5 0 0 1-.675-.555q-.247-.375-.243-.937zm6.372 7.554q-.902 0-1.558-.375a2.54 2.54 0 0 1-1.004-1.07q-.352-.696-.352-1.637 0-.926.352-1.625.356-.703.992-1.094.637-.394 1.496-.394.555 0 1.047.18.496.175.875.546.383.372.602.946.218.57.218 1.36v.433h-4.918v-.953h3.563a1.5 1.5 0 0 0-.176-.723 1.3 1.3 0 0 0-.48-.504 1.35 1.35 0 0 0-.711-.184q-.434 0-.762.211-.328.207-.512.547-.18.336-.183.738v.833q0 .523.191.898.192.371.535.57.344.196.805.196.309 0 .559-.086a1.2 1.2 0 0 0 .433-.262q.183-.172.277-.426l1.321.149a2.06 2.06 0 0 1-.477.914 2.3 2.3 0 0 1-.89.601q-.543.21-1.243.211m6.091-.011q-.707 0-1.265-.364-.56-.363-.883-1.055-.324-.69-.324-1.68 0-.999.328-1.687.332-.69.894-1.043a2.3 2.3 0 0 1 1.254-.355q.528 0 .867.18.34.176.539.425.2.247.309.465h.059V88h1.418v8h-1.391v-.945h-.086q-.11.218-.316.464-.207.243-.547.415t-.856.172m.395-1.16q.449 0 .765-.243.316-.246.481-.684.164-.437.164-1.019a2.8 2.8 0 0 0-.164-1.012 1.44 1.44 0 0 0-.477-.668 1.23 1.23 0 0 0-.769-.238q-.472 0-.789.246t-.477.68-.16.992q0 .563.16 1.004.164.438.481.691.32.25.785.25"/><path fill="#000" fill-opacity=".7" d="M666.42 108.636q0 1.381-.498 2.387-.499 1.005-1.368 1.551-.87.545-1.986.545t-1.986-.545q-.868-.546-1.368-1.551-.498-1.006-.498-2.387 0-1.38.498-2.386.5-1.006 1.368-1.551.87-.546 1.986-.546t1.986.546 1.368 1.551.498 2.386m-1.022 0q0-1.133-.38-1.913-.375-.78-1.018-1.18a2.64 2.64 0 0 0-1.432-.401q-.792 0-1.436.401-.64.4-1.018 1.18-.375.78-.375 1.913t.375 1.914q.378.78 1.018 1.18.644.4 1.436.401a2.64 2.64 0 0 0 1.432-.401q.643-.4 1.018-1.18.38-.78.38-1.914m6.788 1.688v-3.869h1.006V113h-1.006v-1.108h-.068a2.15 2.15 0 0 1-.716.848q-.486.345-1.227.345-.614 0-1.091-.268a1.9 1.9 0 0 1-.75-.818q-.273-.55-.273-1.385v-4.159h1.006v4.09q0 .716.4 1.143.405.426 1.032.426.375 0 .762-.192.392-.192.657-.588.268-.396.268-1.01m2.848 2.676v-6.545h.971v.988h.069q.179-.485.647-.788a1.9 1.9 0 0 1 1.057-.303 11 11 0 0 1 .528.017v1.023a3 3 0 0 0-.234-.038 2.3 2.3 0 0 0-.379-.03q-.477 0-.852.2a1.468 1.468 0 0 0-.802 1.334V113zm12.749-6.545a1.34 1.34 0 0 0-.622-1.006q-.546-.358-1.339-.358-.579 0-1.014.187a1.6 1.6 0 0 0-.673.516 1.24 1.24 0 0 0-.239.746q0 .35.166.601.171.246.435.413.264.162.554.268.29.103.533.167l.886.238q.34.09.759.247.421.158.805.431.388.269.639.69.252.422.252 1.036a2.3 2.3 0 0 1-.371 1.278q-.366.571-1.074.908-.703.336-1.709.336-.937 0-1.623-.302a2.6 2.6 0 0 1-1.074-.844 2.4 2.4 0 0 1-.439-1.257h1.091q.042.495.332.818.294.32.742.477.452.154.971.154.606 0 1.087-.196.481-.2.763-.554.28-.358.281-.835 0-.435-.243-.708a1.8 1.8 0 0 0-.639-.443 7 7 0 0 0-.857-.298l-1.074-.307q-1.022-.294-1.619-.84-.596-.545-.596-1.427 0-.733.396-1.279.4-.549 1.074-.852a3.6 3.6 0 0 1 1.513-.307q.843 0 1.5.303.656.299 1.039.818.388.52.409 1.181zm5.59 0v.852h-3.393v-.852zm-2.404-1.569h1.006v6.239q0 .426.123.639a.65.65 0 0 0 .324.281q.2.069.422.069.166 0 .273-.017l.17-.035.205.904a2.2 2.2 0 0 1-.75.119q-.427 0-.835-.183a1.66 1.66 0 0 1-.674-.558q-.264-.376-.264-.946zm5.842 8.267q-.622 0-1.129-.234a1.94 1.94 0 0 1-.805-.686q-.299-.452-.299-1.091 0-.562.222-.912.222-.354.592-.554.371-.2.819-.298.451-.102.907-.162.596-.077.968-.115.375-.043.545-.141.175-.098.175-.341v-.034q0-.63-.345-.98-.342-.35-1.036-.349-.72 0-1.129.315-.41.316-.575.673l-.955-.341q.256-.596.682-.929.43-.336.937-.468a4 4 0 0 1 1.006-.137q.316 0 .724.077.414.072.797.303.388.23.644.694.255.465.255 1.245V113h-1.005v-.886h-.051a1.8 1.8 0 0 1-.341.456 2 2 0 0 1-.635.413q-.396.17-.968.17m.154-.903q.597 0 1.006-.234a1.6 1.6 0 0 0 .622-.605q.213-.372.213-.78v-.921q-.065.077-.281.141-.214.06-.495.106a21 21 0 0 1-.963.128q-.392.052-.733.166a1.26 1.26 0 0 0-.545.337q-.205.221-.205.605 0 .525.388.793.391.264.993.264m5.688-3.188V113h-1.006v-6.545h.972v1.022h.085q.23-.498.699-.801.468-.306 1.21-.307.665 0 1.163.273.499.269.776.818.277.546.277 1.381V113h-1.006v-4.091q0-.771-.4-1.202-.4-.434-1.1-.434-.481 0-.861.209-.375.208-.592.609-.217.4-.217.971m8.485 4.074q-.818 0-1.444-.413-.627-.417-.981-1.176-.353-.763-.353-1.803 0-1.031.353-1.789.354-.76.985-1.172.63-.414 1.457-.414.64 0 1.01.213.375.21.571.478.2.264.311.434h.085v-3.221h1.006V113h-.971v-1.006h-.12q-.111.18-.315.452-.204.269-.584.482-.379.208-1.01.208m.137-.903q.605 0 1.022-.315.418-.32.635-.882.218-.567.218-1.309 0-.733-.214-1.282a1.86 1.86 0 0 0-.63-.861q-.418-.311-1.031-.311-.64 0-1.066.328-.422.324-.635.882a3.5 3.5 0 0 0-.209 1.244q0 .699.213 1.27.217.567.64.904.426.332 1.057.332m6.771.92q-.622 0-1.129-.234a1.94 1.94 0 0 1-.806-.686q-.298-.452-.298-1.091 0-.562.221-.912.222-.354.593-.554a3.1 3.1 0 0 1 .818-.298 10 10 0 0 1 .908-.162q.596-.077.967-.115.375-.043.545-.141.175-.098.175-.341v-.034q0-.63-.345-.98-.34-.35-1.036-.349-.72 0-1.129.315-.409.316-.575.673l-.955-.341q.256-.596.682-.929.43-.336.938-.468a4 4 0 0 1 1.005-.137q.316 0 .725.077.413.072.797.303.388.23.643.694.256.465.256 1.245V113h-1.006v-.886h-.051a1.8 1.8 0 0 1-.341.456 2 2 0 0 1-.635.413q-.396.17-.967.17m.153-.903q.597 0 1.006-.234.413-.235.622-.605.213-.372.213-.78v-.921q-.063.077-.281.141a5 5 0 0 1-.494.106 21 21 0 0 1-.964.128 4 4 0 0 0-.732.166 1.26 1.26 0 0 0-.546.337q-.204.221-.204.605 0 .525.387.793.393.264.993.264m4.682.75v-6.545h.972v.988h.068q.178-.485.648-.788a1.9 1.9 0 0 1 1.057-.303 11 11 0 0 1 .528.017v1.023a3 3 0 0 0-.234-.038q-.18-.03-.38-.03-.477 0-.852.2a1.468 1.468 0 0 0-.801 1.334V113zm6.738.136q-.819 0-1.445-.413-.626-.417-.98-1.176-.354-.763-.354-1.803 0-1.031.354-1.789.354-.76.984-1.172.632-.414 1.458-.414.639 0 1.01.213.375.21.571.478.2.264.311.434h.085v-3.221h1.006V113h-.972v-1.006h-.119a6 6 0 0 1-.316.452q-.204.269-.583.482-.38.208-1.01.208m.136-.903q.605 0 1.023-.315.417-.32.635-.882.217-.567.217-1.309 0-.733-.213-1.282-.213-.555-.631-.861-.417-.311-1.031-.311-.639 0-1.065.328a1.96 1.96 0 0 0-.635.882q-.21.554-.209 1.244 0 .699.213 1.27.217.567.639.904.426.332 1.057.332m9.482-4.313-.904.256a1.7 1.7 0 0 0-.251-.439 1.2 1.2 0 0 0-.444-.358q-.28-.14-.72-.14-.6 0-1.001.277-.396.272-.396.694 0 .375.272.593.273.216.853.362l.971.238q.877.213 1.308.652.43.435.431 1.121 0 .562-.324 1.006a2.15 2.15 0 0 1-.895.699q-.574.255-1.338.255-1.001 0-1.658-.434-.655-.435-.831-1.27l.955-.239q.137.529.516.793.383.264 1.001.264.703 0 1.116-.298.418-.303.418-.725a.76.76 0 0 0-.239-.571q-.238-.234-.733-.349l-1.09-.256q-.9-.213-1.321-.66-.418-.453-.418-1.13 0-.554.311-.98.315-.426.857-.669a3 3 0 0 1 1.235-.243q.972 0 1.526.426.558.427.793 1.125m9.917-1.465a1.34 1.34 0 0 0-.622-1.006q-.546-.358-1.338-.358-.58 0-1.015.187a1.6 1.6 0 0 0-.673.516 1.24 1.24 0 0 0-.239.746q0 .35.167.601.17.246.434.413.264.162.554.268.29.103.533.167l.886.238q.341.09.759.247.422.158.805.431.389.269.639.69.252.422.252 1.036a2.3 2.3 0 0 1-.371 1.278q-.366.571-1.074.908-.703.336-1.709.336-.937 0-1.623-.302a2.6 2.6 0 0 1-1.074-.844 2.4 2.4 0 0 1-.439-1.257h1.091q.042.495.332.818.294.32.742.477.452.154.971.154.606 0 1.087-.196.481-.2.763-.554.28-.358.281-.835 0-.435-.243-.708a1.8 1.8 0 0 0-.639-.443 7 7 0 0 0-.857-.298l-1.073-.307q-1.023-.294-1.62-.84-.596-.545-.596-1.427 0-.733.396-1.279.4-.549 1.074-.852a3.6 3.6 0 0 1 1.513-.307q.843 0 1.5.303.656.299 1.039.818.388.52.409 1.181zm5.487 6.681q-.945 0-1.632-.417a2.8 2.8 0 0 1-1.052-1.176q-.367-.759-.367-1.765t.367-1.772a2.9 2.9 0 0 1 1.031-1.202q.664-.435 1.551-.435.512 0 1.01.171.498.17.908.554.409.38.652 1.005.243.627.243 1.543v.426h-5.046v-.869h4.023q0-.554-.222-.989a1.67 1.67 0 0 0-.622-.686 1.75 1.75 0 0 0-.946-.251q-.601 0-1.04.298a2 2 0 0 0-.669.767 2.25 2.25 0 0 0-.234 1.014v.58q0 .741.256 1.257.26.512.72.78a2.1 2.1 0 0 0 1.069.264q.397 0 .716-.111.324-.115.558-.341a1.55 1.55 0 0 0 .363-.571l.971.273a2.16 2.16 0 0 1-.515.869 2.5 2.5 0 0 1-.895.58 3.3 3.3 0 0 1-1.198.204m6.899 0q-.92 0-1.585-.434a2.83 2.83 0 0 1-1.022-1.198q-.358-.762-.358-1.743 0-.996.366-1.76.37-.766 1.031-1.197.665-.435 1.551-.435.69 0 1.245.256.554.255.907.716.354.46.439 1.074h-1.005a1.56 1.56 0 0 0-.512-.793q-.391-.35-1.057-.349-.588 0-1.031.307a2 2 0 0 0-.686.856q-.243.55-.243 1.291 0 .759.239 1.321.243.562.682.874.443.31 1.039.311.393 0 .712-.136a1.47 1.47 0 0 0 .857-1.006h1.005a2.32 2.32 0 0 1-1.304 1.777q-.545.268-1.27.268m6.891-6.681v.852h-3.392v-.852zm-2.403-1.569h1.005v6.239q0 .426.124.639a.64.64 0 0 0 .324.281q.2.069.422.069.165 0 .272-.017l.171-.035.204.904a2.2 2.2 0 0 1-.75.119q-.426 0-.835-.183a1.66 1.66 0 0 1-.673-.558q-.264-.376-.264-.946zm3.916 8.114v-6.545h1.006V113zm.511-7.636a.71.71 0 0 1-.507-.201.64.64 0 0 1-.209-.481q0-.282.209-.482a.72.72 0 0 1 .507-.2q.294 0 .503.2a.64.64 0 0 1 .213.482.64.64 0 0 1-.213.481.7.7 0 0 1-.503.201m4.996 7.772q-.887 0-1.556-.422a2.86 2.86 0 0 1-1.04-1.18q-.37-.759-.37-1.773 0-1.022.37-1.785.375-.763 1.04-1.185.67-.422 1.556-.422t1.551.422q.669.422 1.04 1.185.375.763.375 1.785 0 1.014-.375 1.773a2.83 2.83 0 0 1-1.04 1.18q-.665.423-1.551.422m0-.903q.673 0 1.108-.345.434-.345.643-.908a3.5 3.5 0 0 0 .209-1.219q0-.656-.209-1.223a2.07 2.07 0 0 0-.643-.916q-.435-.35-1.108-.349-.674 0-1.108.349-.435.35-.644.916a3.5 3.5 0 0 0-.209 1.223q0 .657.209 1.219t.644.908q.434.345 1.108.345m5.506-3.171V113h-1.005v-6.545h.971v1.022h.086q.23-.498.698-.801.469-.306 1.211-.307.665 0 1.163.273.498.269.776.818.276.546.277 1.381V113h-1.006v-4.091q0-.771-.401-1.202-.4-.434-1.099-.434-.481 0-.861.209-.375.208-.592.609-.218.4-.218.971"/></g><defs><clipPath id="a"><path fill="#fff" d="M0 0h894v133H0z"/></clipPath></defs></svg>