<svg xmlns="http://www.w3.org/2000/svg" width="660" height="119" fill="none" viewBox="0 0 660 119"><g clip-path="url(#a)"><rect width="100" height="119" fill="#fff" rx="10"/><rect width="47" height="47" x="26.5" y="20.5" stroke="#84c12f" rx="23.5"/><path fill="#84c12f" d="M39.566 58.998a1.9 1.9 0 0 1-1.622-.905 1.9 1.9 0 0 1-.083-1.855l7.403-14.808a5.6 5.6 0 0 0 .586-2.484v-3.479a.535.535 0 1 1 1.072 0v3.48a6.7 6.7 0 0 1-.7 2.963L38.82 56.718a.82.82 0 0 0 .036.813.82.82 0 0 0 .711.396h12.244a.535.535 0 1 1 0 1.071z"/><path fill="#84c12f" d="M60.437 58.998H48.194a.535.535 0 1 1 0-1.071h12.243a.82.82 0 0 0 .711-.396.82.82 0 0 0 .037-.813L53.78 41.91a6.65 6.65 0 0 1-.7-2.964v-3.479a.535.535 0 1 1 1.072 0v3.48c0 .858.202 1.716.586 2.483l7.403 14.808a1.9 1.9 0 0 1-.083 1.855c-.35.566-.956.905-1.622.905M53.917 33.689h-7.834a2.044 2.044 0 0 1-2.042-2.043v-.602c0-1.126.916-2.042 2.042-2.042h7.834c1.126 0 2.042.916 2.042 2.042v.602a2.044 2.044 0 0 1-2.042 2.043m-7.834-3.616a.97.97 0 0 0-.97.97v.604c0 .535.435.97.97.97h7.834c.536 0 .971-.435.971-.97v-.603a.97.97 0 0 0-.97-.971z"/><path fill="#84c12f" d="M42.773 54.66a.537.537 0 0 1-.298-.982l2.17-1.447a4.435 4.435 0 0 1 4.933 0 3.37 3.37 0 0 0 3.744 0l2.17-1.446a.535.535 0 1 1 .594.892l-2.17 1.446a4.435 4.435 0 0 1-4.933 0 3.37 3.37 0 0 0-3.744 0l-2.17 1.446a.54.54 0 0 1-.295.09zM51.445 50.32a1.984 1.984 0 0 1-1.982-1.981c0-1.093.89-1.982 1.982-1.982s1.982.889 1.982 1.982-.89 1.982-1.982 1.982m0-2.892a.912.912 0 0 0 0 1.821.912.912 0 0 0 0-1.82"/><path fill="#025f1d" d="M4.935 88.168q-1.274 0-2.198-.56-.924-.575-1.414-1.68-.49-1.106-.49-2.758 0-1.638.49-2.772.49-1.148 1.414-1.736.925-.602 2.198-.602 1.26 0 2.114.56.869.56 1.372 1.652L7.091 81q-.252-.7-.784-1.106-.517-.42-1.372-.42-1.133 0-1.778.784-.644.784-.644 2.142v1.498q0 1.344.644 2.1.645.756 1.778.756.87 0 1.428-.448.562-.462.826-1.176l1.274.77a4.06 4.06 0 0 1-1.386 1.666q-.882.602-2.142.602m7.936 0q-1.022 0-1.779-.462a3.24 3.24 0 0 1-1.161-1.33q-.406-.854-.406-2.016 0-1.163.406-2.016.42-.855 1.162-1.316.756-.476 1.777-.476 1.01 0 1.75.476.757.462 1.163 1.316.42.854.42 2.016 0 1.163-.42 2.016a3.1 3.1 0 0 1-1.162 1.33q-.742.462-1.75.462m0-1.274q.784 0 1.245-.476.476-.49.476-1.442v-1.232q0-.952-.476-1.428-.461-.49-1.245-.49-.771 0-1.26.49-.477.476-.477 1.428v1.232q.001.952.476 1.442.49.476 1.26.476M19.416 88H17.89v-7.28h1.526v1.204h.07a2.44 2.44 0 0 1 .672-.966q.462-.405 1.288-.406.728 0 1.302.364.574.35.84 1.12h.042q.196-.602.756-1.036.56-.448 1.456-.448 1.092 0 1.68.742.602.742.602 2.086V88h-1.526v-4.438q0-.855-.322-1.274-.322-.434-1.008-.434-.378 0-.728.14-.35.126-.56.406t-.21.7V88h-1.526v-4.438q0-.855-.322-1.274-.322-.434-.994-.434-.378 0-.728.14a1.27 1.27 0 0 0-.574.406q-.21.28-.21.7zm10.82 2.8V80.72h1.526v1.204h.07a1.87 1.87 0 0 1 .77-1.008q.545-.364 1.274-.364.923 0 1.568.462.644.449.98 1.302.35.84.35 2.044 0 1.19-.35 2.044-.336.855-.98 1.316-.644.448-1.568.448-.729 0-1.26-.364a2.12 2.12 0 0 1-.784-1.008h-.07V90.8zm3.178-3.92q.797 0 1.274-.518.476-.532.476-1.372v-1.26q-.001-.84-.476-1.358-.477-.518-1.274-.518-.462 0-.84.154a1.5 1.5 0 0 0-.588.434q-.224.28-.224.658v2.464q0 .42.224.714.223.28.588.448.378.154.84.154M40.047 88H38.52v-7.28h1.526v1.442h.07q.111-.364.35-.686.252-.336.658-.546t.994-.21h.406v1.47h-.602q-.602 0-1.022.14t-.644.392a.95.95 0 0 0-.21.63zm6.635.168q-1.035 0-1.792-.462a3.2 3.2 0 0 1-1.176-1.33q-.406-.854-.406-2.016t.406-2.002a3.14 3.14 0 0 1 1.148-1.33q.741-.476 1.778-.476 1.077 0 1.792.49.728.476 1.092 1.302t.364 1.834v.574h-4.984v.238q0 .84.49 1.386.504.532 1.428.532.672 0 1.134-.294t.77-.798l.91.882q-.42.658-1.19 1.064-.756.406-1.764.406m-.014-6.426q-.533 0-.938.252a1.65 1.65 0 0 0-.616.672q-.21.42-.21.98v.098h3.388v-.14q0-.56-.196-.98a1.46 1.46 0 0 0-.56-.644 1.55 1.55 0 0 0-.868-.238M51.578 88V77.64h1.525v4.284h.07q.238-.588.714-.98.49-.392 1.33-.392 1.12 0 1.736.742.63.742.63 2.086V88h-1.526v-4.438q0-.855-.336-1.274-.322-.434-1.036-.434-.405 0-.77.14-.35.126-.588.406-.224.28-.224.7V88zm10.99.168q-1.035 0-1.792-.462a3.2 3.2 0 0 1-1.176-1.33q-.406-.854-.406-2.016t.406-2.002a3.14 3.14 0 0 1 1.148-1.33q.743-.476 1.778-.476 1.079 0 1.792.49.729.476 1.092 1.302t.364 1.834v.574H60.79v.238q0 .84.49 1.386.504.532 1.428.532.672 0 1.134-.294t.77-.798l.91.882q-.42.658-1.19 1.064-.756.406-1.764.406m-.014-6.426q-.531 0-.938.252a1.65 1.65 0 0 0-.616.672q-.21.42-.21.98v.098h3.388v-.14q0-.56-.196-.98a1.46 1.46 0 0 0-.56-.644 1.55 1.55 0 0 0-.868-.238M68.99 88h-1.526v-7.28h1.526v1.204h.07q.239-.588.714-.98.49-.392 1.33-.392 1.12 0 1.736.742.63.742.63 2.086V88h-1.526v-4.438q0-.855-.336-1.274-.322-.434-1.036-.434-.405 0-.77.14-.35.126-.588.406-.225.28-.224.7zm8.905.168q-1.022 0-1.736-.364a3.8 3.8 0 0 1-1.218-1.008l.98-.896q.406.476.896.756.505.28 1.162.28.672 0 .994-.252.336-.266.336-.728a.8.8 0 0 0-.238-.588q-.224-.238-.798-.322l-.672-.084a4.8 4.8 0 0 1-1.274-.364 2 2 0 0 1-.84-.686q-.28-.448-.28-1.12 0-1.064.742-1.652.756-.588 1.96-.588.659 0 1.148.14.49.14.868.406.379.252.7.616l-.938.896a2.35 2.35 0 0 0-.742-.574 2.1 2.1 0 0 0-1.036-.252q-.616 0-.924.252a.79.79 0 0 0-.308.658q0 .42.266.63.28.21.854.308l.672.084q1.204.182 1.75.714.56.518.56 1.4 0 .7-.364 1.232-.35.518-.994.812-.645.294-1.526.294m5.378-8.75q-.475 0-.7-.224a.8.8 0 0 1-.21-.574v-.238q0-.35.21-.574.225-.225.7-.224.477 0 .686.224t.21.574v.238q0 .35-.21.574-.21.225-.686.224M82.503 88v-7.28h1.526V88zm7.093 0H87.79l-2.478-7.28h1.512l1.12 3.318.742 2.548h.084l.742-2.548 1.12-3.318h1.442zm6.537.168q-1.035 0-1.792-.462a3.2 3.2 0 0 1-1.176-1.33q-.405-.854-.406-2.016 0-1.162.406-2.002a3.14 3.14 0 0 1 1.148-1.33q.742-.476 1.778-.476 1.078 0 1.792.49.728.476 1.092 1.302t.364 1.834v.574h-4.984v.238q0 .84.49 1.386.504.532 1.428.532.672 0 1.134-.294t.77-.798l.91.882q-.42.658-1.19 1.064-.756.406-1.764.406m-.014-6.426q-.532 0-.938.252a1.65 1.65 0 0 0-.616.672q-.21.42-.21.98v.098h3.388v-.14q0-.56-.196-.98a1.46 1.46 0 0 0-.56-.644 1.55 1.55 0 0 0-.868-.238M22.85 103H21.27v-9.772h6.104v1.4h-4.522v2.73h4.018v1.4h-4.018zm8.736.168q-1.022 0-1.778-.462a3.24 3.24 0 0 1-1.162-1.33q-.405-.853-.406-2.016 0-1.163.406-2.016.42-.855 1.162-1.316.756-.476 1.778-.476 1.008 0 1.75.476.757.462 1.162 1.316.42.854.42 2.016 0 1.163-.42 2.016a3.1 3.1 0 0 1-1.162 1.33q-.742.462-1.75.462m0-1.274q.784 0 1.246-.476.476-.49.476-1.442v-1.232q0-.952-.476-1.428-.462-.49-1.246-.49-.77 0-1.26.49-.476.475-.476 1.428v1.232q0 .952.476 1.442.49.476 1.26.476M38.133 103h-1.526v-7.28h1.526v1.442h.07q.111-.364.35-.686.252-.336.658-.546.405-.21.994-.21h.406v1.47h-.602q-.603 0-1.022.14t-.644.392a.95.95 0 0 0-.21.63zm5.359 0h-1.526v-7.28h1.526v1.204h.07q.224-.575.672-.966.462-.406 1.288-.406.728 0 1.302.364.575.35.84 1.12h.042q.196-.602.756-1.036.56-.448 1.456-.448 1.092 0 1.68.742.602.742.602 2.086V103h-1.526v-4.438q0-.855-.322-1.274-.322-.434-1.008-.434-.378 0-.728.14-.35.127-.56.406-.21.28-.21.7v4.9H46.32v-4.438q0-.855-.322-1.274-.322-.434-.994-.434-.378 0-.728.14a1.27 1.27 0 0 0-.574.406q-.21.28-.21.7zm15.23 0v-1.204h-.07a2.33 2.33 0 0 1-.672.966q-.462.406-1.372.406-1.106 0-1.736-.728-.63-.742-.63-2.086V95.72h1.526v4.438q0 .84.336 1.288.35.434 1.05.434.405 0 .756-.14.363-.14.588-.42t.224-.7v-4.9h1.526V103zm6.245 0H64q-.785 0-1.176-.406-.393-.42-.392-1.12V92.64h1.526v9.114h1.008zm7.646 0h-.854q-.42 0-.728-.182a1.24 1.24 0 0 1-.448-.546 2 2 0 0 1-.154-.826v-.126l.434.462h-.49q-.21.672-.77 1.036-.56.35-1.358.35-1.12 0-1.736-.588t-.616-1.582q0-.728.35-1.204.364-.49 1.05-.728.686-.252 1.708-.252h1.316v-.616q0-.659-.364-1.022-.364-.378-1.134-.378-.63 0-1.05.294-.406.28-.686.7l-.91-.826a2.86 2.86 0 0 1 1.022-1.008q.672-.406 1.722-.406 1.4 0 2.156.672.77.658.77 1.876v3.654h.77zm-2.296-3.206h-1.288q-.798 0-1.19.252a.81.81 0 0 0-.392.728v.252q0 .476.336.728t.896.252q.475 0 .84-.14a1.3 1.3 0 0 0 .574-.406.93.93 0 0 0 .224-.616zm6.102 3.374q-1.023 0-1.736-.364a3.8 3.8 0 0 1-1.218-1.008l.98-.896q.405.476.896.756.504.28 1.162.28.672 0 .994-.252.336-.266.336-.728a.8.8 0 0 0-.238-.588q-.225-.238-.798-.322l-.672-.084a4.8 4.8 0 0 1-1.274-.364 2 2 0 0 1-.84-.686q-.28-.448-.28-1.12 0-1.064.742-1.652.756-.588 1.96-.588.656 0 1.148.14.49.14.868.406.378.252.7.616l-.938.896a2.35 2.35 0 0 0-.742-.574 2.1 2.1 0 0 0-1.036-.252q-.617 0-.924.252a.79.79 0 0 0-.308.658q0 .42.266.63.279.21.854.308l.672.084q1.204.182 1.75.714.56.518.56 1.4 0 .7-.364 1.232-.35.518-.994.812-.645.294-1.526.294"/><rect width="100" height="119" x="112" fill="#fff" rx="10"/><rect width="47" height="47" x="138.5" y="20.5" stroke="#84c12f" rx="23.5"/><path fill="#84c12f" d="M162.602 48.755A4.76 4.76 0 0 1 157.848 44a4.76 4.76 0 0 1 4.754-4.754A4.76 4.76 0 0 1 167.357 44a4.76 4.76 0 0 1-4.755 4.755m0-8.438A3.69 3.69 0 0 0 158.919 44a3.69 3.69 0 0 0 3.683 3.683A3.69 3.69 0 0 0 166.285 44a3.69 3.69 0 0 0-3.683-3.683M171.041 38.509a3.554 3.554 0 0 1-3.549-3.55 3.554 3.554 0 0 1 3.549-3.548 3.553 3.553 0 0 1 3.549 3.549 3.553 3.553 0 0 1-3.549 3.549m0-6.027a2.48 2.48 0 0 0-2.477 2.478 2.48 2.48 0 0 0 2.477 2.477 2.48 2.48 0 0 0 2.478-2.477 2.48 2.48 0 0 0-2.478-2.478M173.451 55.384a3.554 3.554 0 0 1-3.549-3.55 3.554 3.554 0 0 1 3.549-3.548 3.554 3.554 0 0 1 3.55 3.549 3.554 3.554 0 0 1-3.55 3.549m0-6.027a2.48 2.48 0 0 0-2.477 2.478 2.48 2.48 0 0 0 2.477 2.477 2.48 2.48 0 0 0 2.478-2.477 2.48 2.48 0 0 0-2.478-2.478M154.166 59a3.554 3.554 0 0 1-3.549-3.549 3.554 3.554 0 0 1 3.549-3.55 3.553 3.553 0 0 1 3.549 3.55 3.553 3.553 0 0 1-3.549 3.55m0-6.027a2.48 2.48 0 0 0-2.477 2.478 2.48 2.48 0 0 0 2.477 2.478 2.48 2.48 0 0 0 2.478-2.478 2.48 2.48 0 0 0-2.478-2.478M150.549 36.098A3.553 3.553 0 0 1 147 32.55 3.553 3.553 0 0 1 150.549 29a3.553 3.553 0 0 1 3.549 3.55 3.553 3.553 0 0 1-3.549 3.548m0-6.027a2.48 2.48 0 0 0-2.478 2.478 2.48 2.48 0 0 0 2.478 2.478 2.48 2.48 0 0 0 2.478-2.478 2.48 2.48 0 0 0-2.478-2.478"/><path fill="#84c12f" d="M159.334 41.87a.53.53 0 0 1-.379-.157l-6.654-6.654a.537.537 0 0 1 .758-.758l6.654 6.654a.537.537 0 0 1-.379.914M165.614 40.92a.534.534 0 0 1-.379-.915l3.293-3.293a.537.537 0 0 1 .758.758l-3.293 3.293a.53.53 0 0 1-.379.157M170.438 50.563a.53.53 0 0 1-.321-.108l-4.535-3.4a.535.535 0 1 1 .643-.857l4.535 3.4a.535.535 0 0 1-.322.965M156.214 53.777a.537.537 0 0 1-.458-.812l3.375-5.625a.537.537 0 0 1 .919.552l-3.375 5.625a.54.54 0 0 1-.459.26z"/><path fill="#025f1d" d="M141.305 88h-6.258v-9.772h6.258v1.4h-4.676v2.73h4.242v1.4h-4.242V86.6h4.676zm2.307 0v-6.034h-1.106V80.72h1.106v-1.204q0-.882.462-1.372.476-.504 1.386-.504h1.204v1.246h-1.526v1.834h1.526v1.246h-1.526V88zm4.785 0v-6.034h-1.106V80.72h1.106v-1.204q0-.882.462-1.372.475-.504 1.386-.504h1.204v1.246h-1.526v1.834h1.526v1.246h-1.526V88zm7.195.168q-1.036 0-1.792-.462a3.2 3.2 0 0 1-1.176-1.33q-.406-.854-.406-2.016t.406-2.002a3.14 3.14 0 0 1 1.148-1.33q.742-.476 1.778-.476 1.078 0 1.792.49.727.476 1.092 1.302.364.826.364 1.834v.574h-4.984v.238q0 .84.49 1.386.504.532 1.428.532.672 0 1.134-.294t.77-.798l.91.882q-.42.658-1.19 1.064-.756.406-1.764.406m-.014-6.426q-.532 0-.938.252a1.65 1.65 0 0 0-.616.672q-.21.42-.21.98v.098h3.388v-.14q0-.56-.196-.98a1.46 1.46 0 0 0-.56-.644 1.55 1.55 0 0 0-.868-.238m7.724 6.426q-1.583 0-2.45-1.022-.868-1.036-.868-2.786t.868-2.772q.867-1.035 2.45-1.036 1.092 0 1.792.49.699.49 1.008 1.302l-1.26.588a1.53 1.53 0 0 0-.546-.798q-.393-.308-.994-.308-.84 0-1.274.532-.434.518-.434 1.358v1.288q0 .84.434 1.372t1.274.532q.657 0 1.064-.322.405-.336.644-.882l1.148.616q-.35.896-1.078 1.372t-1.778.476m7.655-.168h-1.33q-.784 0-1.204-.42-.406-.434-.406-1.176v-4.438h-1.134V80.72h.616q.378 0 .518-.168.154-.168.154-.546v-1.274h1.372v1.988h1.526v1.246h-1.526v4.788h1.414zm2.537-8.582q-.476 0-.7-.224a.8.8 0 0 1-.21-.574v-.238q0-.35.21-.574.224-.225.7-.224.476 0 .686.224t.21.574v.238q0 .35-.21.574-.21.225-.686.224m-.77 8.582v-7.28h1.526V88zm7.093 0h-1.806l-2.478-7.28h1.512l1.12 3.318.742 2.548h.084l.742-2.548 1.12-3.318h1.442zm6.537.168q-1.036 0-1.792-.462a3.2 3.2 0 0 1-1.176-1.33q-.406-.854-.406-2.016t.406-2.002q.405-.855 1.148-1.33.741-.476 1.778-.476 1.077 0 1.792.49.727.476 1.092 1.302a4.5 4.5 0 0 1 .364 1.834v.574h-4.984v.238q0 .84.49 1.386.504.532 1.428.532.672 0 1.134-.294t.77-.798l.91.882q-.42.658-1.19 1.064-.756.406-1.764.406m-.014-6.426a1.74 1.74 0 0 0-.938.252 1.65 1.65 0 0 0-.616.672q-.21.42-.21.98v.098h3.388v-.14q0-.56-.196-.98a1.46 1.46 0 0 0-.56-.644 1.55 1.55 0 0 0-.868-.238M133.395 103h-1.582v-9.772h4.2q.897 0 1.526.364.644.364.98 1.022t.336 1.554q0 .882-.336 1.54t-.98 1.036q-.63.364-1.526.364h-2.618zm0-8.386v3.108h2.52q.393 0 .672-.14a1 1 0 0 0 .448-.406q.154-.28.154-.672v-.672q0-.406-.154-.672a1 1 0 0 0-.448-.406 1.5 1.5 0 0 0-.672-.14zm9.652 8.554q-1.022 0-1.778-.462a3.24 3.24 0 0 1-1.162-1.33q-.406-.853-.406-2.016t.406-2.016q.42-.855 1.162-1.316.756-.476 1.778-.476 1.008 0 1.75.476.756.462 1.162 1.316.42.854.42 2.016 0 1.163-.42 2.016a3.1 3.1 0 0 1-1.162 1.33q-.742.462-1.75.462m0-1.274q.784 0 1.246-.476.477-.49.476-1.442v-1.232q0-.952-.476-1.428-.462-.49-1.246-.49-.77 0-1.26.49-.476.475-.476 1.428v1.232q0 .952.476 1.442.49.476 1.26.476m8.325 1.106h-1.33q-.784 0-1.204-.42-.406-.433-.406-1.176v-4.438h-1.134V95.72h.616q.377 0 .518-.168.153-.168.154-.546v-1.274h1.372v1.988h1.526v1.246h-1.526v4.788h1.414zm4.582.168q-1.036 0-1.792-.462a3.2 3.2 0 0 1-1.176-1.33q-.406-.853-.406-2.016 0-1.162.406-2.002a3.15 3.15 0 0 1 1.148-1.33q.743-.476 1.778-.476 1.078 0 1.792.49.729.476 1.092 1.302t.364 1.834v.574h-4.984v.238q0 .84.49 1.386.504.532 1.428.532.672 0 1.134-.294t.77-.798l.91.882q-.42.658-1.19 1.064-.756.406-1.764.406m-.014-6.426q-.531 0-.938.252a1.66 1.66 0 0 0-.616.672q-.21.42-.21.98v.098h3.388v-.14q0-.56-.196-.98a1.45 1.45 0 0 0-.56-.644 1.55 1.55 0 0 0-.868-.238m6.436 6.258h-1.526v-7.28h1.526v1.204h.07q.237-.588.714-.98.49-.392 1.33-.392 1.12 0 1.736.742.63.742.63 2.086V103h-1.526v-4.438q0-.855-.336-1.274-.322-.434-1.036-.434-.407 0-.77.14-.351.127-.588.406-.224.28-.224.7zm9.409.168q-1.582 0-2.45-1.022-.868-1.036-.868-2.786t.868-2.772q.868-1.036 2.45-1.036 1.092 0 1.792.49t1.008 1.302l-1.26.588a1.53 1.53 0 0 0-.546-.798q-.392-.308-.994-.308-.84 0-1.274.532-.434.518-.434 1.358v1.288q0 .84.434 1.372t1.274.532q.658 0 1.064-.322.406-.336.644-.882l1.148.616q-.35.896-1.078 1.372t-1.778.476m5.079-8.75q-.476 0-.7-.224a.8.8 0 0 1-.21-.574v-.238q0-.35.21-.574.224-.225.7-.224.476 0 .686.224t.21.574v.238q0 .35-.21.574-.21.225-.686.224m-.77 8.582v-7.28h1.526V103zm6.575.168q-1.036 0-1.792-.462a3.2 3.2 0 0 1-1.176-1.33q-.406-.853-.406-2.016 0-1.162.406-2.002a3.14 3.14 0 0 1 1.148-1.33q.742-.476 1.778-.476 1.078 0 1.792.49.727.476 1.092 1.302.364.826.364 1.834v.574h-4.984v.238q0 .84.49 1.386.504.532 1.428.532.672 0 1.134-.294t.77-.798l.91.882q-.42.658-1.19 1.064-.756.406-1.764.406m-.014-6.426q-.532 0-.938.252a1.65 1.65 0 0 0-.616.672q-.21.42-.21.98v.098h3.388v-.14q0-.56-.196-.98a1.46 1.46 0 0 0-.56-.644 1.55 1.55 0 0 0-.868-.238m7.22 6.426q-1.022 0-1.736-.364a3.8 3.8 0 0 1-1.218-1.008l.98-.896q.405.476.896.756.504.28 1.162.28.672 0 .994-.252.336-.266.336-.728a.8.8 0 0 0-.238-.588q-.225-.238-.798-.322l-.672-.084a4.8 4.8 0 0 1-1.274-.364 2 2 0 0 1-.84-.686q-.28-.448-.28-1.12 0-1.064.742-1.652.756-.588 1.96-.588.657 0 1.148.14t.868.406q.378.252.7.616l-.938.896a2.4 2.4 0 0 0-.742-.574 2.1 2.1 0 0 0-1.036-.252q-.617 0-.924.252-.309.238-.308.658 0 .42.266.63.28.21.854.308l.672.084q1.203.182 1.75.714.56.518.56 1.4 0 .7-.364 1.232a2.34 2.34 0 0 1-.994.812q-.644.294-1.526.294"/><rect width="100" height="119" x="224" fill="#fff" rx="10"/><rect width="47" height="47" x="250.5" y="20.5" stroke="#84c12f" rx="23.5"/><path fill="#84c12f" d="M261.371 47.208a.537.537 0 0 1 .667.36 12.44 12.44 0 0 0 10.099 8.772 1.98 1.98 0 0 1 1.86-1.306c1.093 0 1.982.89 1.982 1.982a1.985 1.985 0 0 1-1.982 1.982 1.985 1.985 0 0 1-1.942-1.588 13.504 13.504 0 0 1-11.044-9.535.537.537 0 0 1 .36-.667m12.626 8.898a.911.911 0 1 0 .002 1.822.911.911 0 0 0-.002-1.822m13.02-14.087c1.092 0 1.982.888 1.982 1.981 0 .957-.683 1.758-1.587 1.941a13.508 13.508 0 0 1-9.537 11.048.536.536 0 0 1-.305-1.027 12.44 12.44 0 0 0 8.773-10.1A1.98 1.98 0 0 1 285.035 44c0-1.093.889-1.981 1.982-1.981m-11.677-7.233c.513 0 .931.418.931.93v1.157c.397.127.787.29 1.161.483l.819-.82a.93.93 0 0 1 .658-.272c.248 0 .482.097.657.272l1.897 1.896a.93.93 0 0 1 0 1.315l-.82.82c.194.373.356.763.482 1.16h1.157c.513 0 .931.418.931.931v2.683c0 .512-.418.93-.931.93h-1.157q-.192.599-.482 1.162l.82.819a.93.93 0 0 1 0 1.314l-1.897 1.897a.92.92 0 0 1-.657.271.92.92 0 0 1-.658-.272l-.819-.82a7.5 7.5 0 0 1-1.161.482v1.157a.933.933 0 0 1-.931.93v.002h-2.682a.93.93 0 0 1-.93-.93v-1.157a7.6 7.6 0 0 1-1.162-.482l-.819.819a.93.93 0 0 1-1.315 0l-1.897-1.897a.927.927 0 0 1 0-1.314l.819-.82a7.4 7.4 0 0 1-.481-1.16h-1.157a.93.93 0 0 1-.931-.931v-2.683c0-.513.418-.93.931-.93h1.157q.192-.599.481-1.162l-.819-.819a.927.927 0 0 1 0-1.315l1.897-1.896a.93.93 0 0 1 1.315 0l.819.82a7.4 7.4 0 0 1 1.162-.483v-1.156c0-.513.417-.93.93-.93zm-2.541 2.191c0 .413-.266.77-.659.89-.399.12-.791.284-1.161.484a.925.925 0 0 1-1.096-.163l-.794-.794-1.696 1.697.793.794a.925.925 0 0 1 .162 1.096c-.2.37-.362.761-.483 1.16a.92.92 0 0 1-.889.659h-1.121v2.4h1.121c.412 0 .77.265.889.658q.183.602.483 1.162a.925.925 0 0 1-.162 1.095l-.793.793 1.696 1.697.794-.794a.92.92 0 0 1 1.096-.163c.37.2.762.362 1.161.483.393.12.659.476.659.889v1.12l.001.002h2.399v-1.12c0-.413.266-.771.659-.89.399-.12.791-.284 1.162-.483a.92.92 0 0 1 1.094.163l.795.794 1.696-1.697-.793-.794a.92.92 0 0 1-.163-1.096c.2-.372.362-.762.483-1.16a.92.92 0 0 1 .889-.659h1.121v-2.4h-1.121a.92.92 0 0 1-.889-.658 6.3 6.3 0 0 0-.484-1.162.92.92 0 0 1 .162-1.095l.794-.794-1.697-1.697-.794.794a.92.92 0 0 1-1.095.163 6.4 6.4 0 0 0-1.161-.484.925.925 0 0 1-.659-.89v-1.12h-2.399zm1.2 2.149A4.88 4.88 0 0 1 278.874 44a4.88 4.88 0 0 1-4.875 4.874A4.88 4.88 0 0 1 269.125 44a4.88 4.88 0 0 1 4.874-4.874m0 1.071A3.807 3.807 0 0 0 270.196 44a3.807 3.807 0 0 0 3.803 3.803A3.81 3.81 0 0 0 277.803 44a3.81 3.81 0 0 0-3.804-3.803m-3.875-9.186a.537.537 0 0 1 .307 1.027 12.44 12.44 0 0 0-8.772 10.102 1.98 1.98 0 0 1 1.305 1.86c0 1.093-.89 1.981-1.983 1.981A1.984 1.984 0 0 1 259 44c0-.958.683-1.76 1.588-1.942a13.507 13.507 0 0 1 9.536-11.047m-9.143 12.079a.911.911 0 1 0 .002 1.822.911.911 0 0 0-.002-1.822m26.036 0a.91.91 0 0 0-.911.91.912.912 0 0 0 1.822 0 .91.91 0 0 0-.911-.91m-13.02-14.088c.958 0 1.759.683 1.942 1.588a13.506 13.506 0 0 1 11.052 9.536.537.537 0 0 1-.513.69l-.001-.002a.54.54 0 0 1-.513-.382 12.44 12.44 0 0 0-10.107-8.773 1.98 1.98 0 0 1-1.86 1.307 1.985 1.985 0 0 1-1.981-1.983c0-1.092.889-1.98 1.981-1.981m0 1.071a.911.911 0 1 0 .002 1.823.911.911 0 0 0-.002-1.823"/><path fill="#025f1d" d="M245.693 88v-9.772h3.458q1.246 0 2.17.546.938.532 1.442 1.624.518 1.078.518 2.716t-.518 2.73q-.504 1.078-1.442 1.624-.924.532-2.17.532zm1.582-1.4h1.876q.728 0 1.274-.308.56-.308.854-.91.308-.602.308-1.484V82.33q0-.882-.308-1.484a2 2 0 0 0-.854-.91q-.546-.308-1.274-.308h-1.876zm10.859-1.596 1.456-4.284h1.47l-3.066 8.722a2.6 2.6 0 0 1-.406.784 1.2 1.2 0 0 1-.588.434q-.35.14-.924.14h-.882v-1.246h1.232l.42-1.232-2.646-7.602h1.526l1.456 4.284.42 1.582h.07zM263.842 88h-1.526v-7.28h1.526v1.204h.07q.237-.588.714-.98.49-.392 1.33-.392 1.12 0 1.736.742.63.742.63 2.086V88h-1.526v-4.438q0-.855-.336-1.274-.322-.434-1.036-.434-.407 0-.77.14-.351.126-.588.406-.224.28-.224.7zm12.783 0h-.854q-.42 0-.728-.182a1.23 1.23 0 0 1-.448-.546 2 2 0 0 1-.154-.826v-.126l.434.462h-.49q-.21.672-.77 1.036-.56.35-1.358.35-1.12 0-1.736-.588t-.616-1.582q0-.728.35-1.204.363-.49 1.05-.728.685-.252 1.708-.252h1.316v-.616q0-.659-.364-1.022-.364-.378-1.134-.378-.63 0-1.05.294-.407.28-.686.7l-.91-.826q.363-.616 1.022-1.008.672-.405 1.722-.406 1.4 0 2.156.672.77.658.77 1.876v3.654h.77zm-2.296-3.206h-1.288q-.798 0-1.19.252a.81.81 0 0 0-.392.728v.252q0 .476.336.728.335.252.896.252.475 0 .84-.14.363-.14.574-.406a.93.93 0 0 0 .224-.616zM279.646 88h-1.526v-7.28h1.526v1.204h.07q.225-.575.672-.966.463-.405 1.288-.406.729 0 1.302.364.575.35.84 1.12h.042q.197-.602.756-1.036.56-.448 1.456-.448 1.092 0 1.68.742.602.742.602 2.086V88h-1.526v-4.438q0-.855-.322-1.274-.321-.434-1.008-.434-.377 0-.728.14-.35.126-.56.406t-.21.7V88h-1.526v-4.438q0-.855-.322-1.274-.321-.434-.994-.434-.378 0-.728.14-.35.126-.574.406-.21.28-.21.7zm11.59-8.582q-.476 0-.7-.224a.8.8 0 0 1-.21-.574v-.238q0-.35.21-.574.224-.225.7-.224.476 0 .686.224t.21.574v.238q0 .35-.21.574-.21.225-.686.224m-.77 8.582v-7.28h1.526V88zm6.519.168q-1.582 0-2.45-1.022-.868-1.036-.868-2.786t.868-2.772q.868-1.035 2.45-1.036 1.092 0 1.792.49t1.008 1.302l-1.26.588a1.53 1.53 0 0 0-.546-.798q-.392-.308-.994-.308-.84 0-1.274.532-.434.518-.434 1.358v1.288q0 .84.434 1.372t1.274.532q.658 0 1.064-.322.406-.336.644-.882l1.148.616q-.35.896-1.078 1.372t-1.778.476M243.954 103V92.64h1.526v4.284h.07q.224-.659.77-1.008.546-.364 1.274-.364.924 0 1.568.462.645.449.98 1.302.35.84.35 2.044 0 1.19-.35 2.044-.336.854-.98 1.316-.644.448-1.568.448-.727 0-1.26-.364a2.13 2.13 0 0 1-.784-1.008h-.07V103zm3.178-1.12q.798 0 1.274-.518.476-.532.476-1.372v-1.26q0-.84-.476-1.358t-1.274-.518q-.462 0-.84.154a1.5 1.5 0 0 0-.588.434 1.02 1.02 0 0 0-.224.658v2.464q0 .42.224.714.225.28.588.448a2.2 2.2 0 0 0 .84.154m8.022-1.876 1.456-4.284h1.47l-3.066 8.722a2.6 2.6 0 0 1-.406.784 1.2 1.2 0 0 1-.588.434q-.351.14-.924.14h-.882v-1.246h1.232l.42-1.232-2.646-7.602h1.526l1.456 4.284.42 1.582h.07zm7.602 2.996v-9.772h3.458q1.245 0 2.17.546.938.532 1.442 1.624.518 1.078.518 2.716t-.518 2.73q-.504 1.078-1.442 1.624-.924.532-2.17.532zm1.582-1.4h1.876q.728 0 1.274-.308.56-.308.854-.91.308-.602.308-1.484V97.33q0-.882-.308-1.484a2.02 2.02 0 0 0-.854-.91q-.546-.308-1.274-.308h-1.876zm10.719 1.568q-1.036 0-1.792-.462a3.2 3.2 0 0 1-1.176-1.33q-.406-.853-.406-2.016 0-1.162.406-2.002.405-.855 1.148-1.33.741-.476 1.778-.476 1.077 0 1.792.49.728.476 1.092 1.302a4.5 4.5 0 0 1 .364 1.834v.574h-4.984v.238q0 .84.49 1.386.504.532 1.428.532.672 0 1.134-.294t.77-.798l.91.882q-.42.658-1.19 1.064-.756.406-1.764.406m-.014-6.426a1.74 1.74 0 0 0-.938.252 1.65 1.65 0 0 0-.616.672q-.21.42-.21.98v.098h3.388v-.14q0-.56-.196-.98a1.46 1.46 0 0 0-.56-.644 1.55 1.55 0 0 0-.868-.238m7.219 6.426q-1.022 0-1.736-.364a3.8 3.8 0 0 1-1.218-1.008l.98-.896q.407.476.896.756.505.28 1.162.28.672 0 .994-.252.336-.266.336-.728a.8.8 0 0 0-.238-.588q-.224-.238-.798-.322l-.672-.084a4.8 4.8 0 0 1-1.274-.364 2 2 0 0 1-.84-.686q-.28-.448-.28-1.12 0-1.064.742-1.652.757-.588 1.96-.588.659 0 1.148.14.49.14.868.406.378.252.7.616l-.938.896a2.3 2.3 0 0 0-.742-.574 2.1 2.1 0 0 0-1.036-.252q-.615 0-.924.252a.79.79 0 0 0-.308.658q0 .42.266.63.28.21.854.308l.672.084q1.204.182 1.75.714.56.518.56 1.4 0 .7-.364 1.232-.35.518-.994.812t-1.526.294m5.378-8.75q-.475 0-.7-.224a.8.8 0 0 1-.21-.574v-.238q0-.35.21-.574.225-.225.7-.224.476 0 .686.224t.21.574v.238q0 .35-.21.574-.21.225-.686.224m-.77 8.582v-7.28h1.526V103zm10.103.686q0 .756-.392 1.26-.378.518-1.19.77t-2.128.252q-1.176 0-1.918-.21-.728-.21-1.064-.602a1.43 1.43 0 0 1-.322-.938q0-.602.322-.952.336-.336.924-.448v-.154a1.15 1.15 0 0 1-.616-.42 1.17 1.17 0 0 1-.21-.7q0-.56.378-.854.393-.308.924-.434v-.056a2.3 2.3 0 0 1-1.008-.868 2.45 2.45 0 0 1-.336-1.288q0-.742.336-1.302.35-.56.994-.868.659-.322 1.568-.322.379 0 .7.056.336.056.63.168v-.196q0-.49.238-.756t.714-.266h1.106v1.218h-1.47v.294q.49.336.742.84.266.504.266 1.134 0 .728-.35 1.288-.336.56-.994.868-.644.308-1.568.308-.266 0-.518-.028a3 3 0 0 1-.434-.084 1.5 1.5 0 0 0-.476.28.54.54 0 0 0-.21.448q0 .294.252.42.267.126.756.126h1.792q1.344 0 1.946.532.616.532.616 1.484m-1.428.168a.72.72 0 0 0-.308-.616q-.294-.21-1.036-.21h-2.464a1 1 0 0 0-.378.35 1.1 1.1 0 0 0-.112.49q0 .434.35.714t1.204.28h.952q.897 0 1.344-.252a.82.82 0 0 0 .448-.756m-2.296-4.438q.673 0 1.036-.308.378-.308.378-.924v-.294q0-.616-.378-.924-.363-.308-1.036-.308-.672 0-1.05.308-.363.308-.364.924v.294q0 .616.364.924.378.308 1.05.308m6.386 3.584h-1.526v-7.28h1.526v1.204h.07q.237-.588.714-.98.49-.392 1.33-.392 1.12 0 1.736.742.63.742.63 2.086V103h-1.526v-4.438q0-.855-.336-1.274-.322-.434-1.036-.434-.407 0-.77.14-.351.127-.588.406-.224.28-.224.7z"/><rect width="100" height="119" x="336" fill="#fff" rx="10"/><rect width="47" height="47" x="362.5" y="20.5" stroke="#84c12f" rx="23.5"/><path fill="#84c12f" d="M396.522 29.002a1.96 1.96 0 0 1 1.958 1.958v26.08a1.96 1.96 0 0 1-1.958 1.958h-21.048a1.96 1.96 0 0 1-1.958-1.958V34.568q.001-.129.059-.242a.5.5 0 0 1 .097-.136l5.03-5.032.002-.002a.54.54 0 0 1 .377-.154zm-16.906 4.773c0 .733-.596 1.328-1.327 1.328v.002h-3.702V57.04c0 .489.398.887.887.887h21.05a.887.887 0 0 0 .886-.887V30.96a.887.887 0 0 0-.886-.887h-16.908zm9.994 5.351a.535.535 0 1 1 0 1.071h-.576v1.872c0 .568.134 1.137.389 1.645l5.122 10.244a1.48 1.48 0 0 1-.065 1.443c-.271.44-.744.704-1.262.704h-14.44c-.518 0-.991-.263-1.262-.704a1.48 1.48 0 0 1-.065-1.443l5.122-10.244a3.7 3.7 0 0 0 .389-1.645v-1.872h-.582a.536.536 0 0 1 0-1.071zm-5.577 2.943a4.8 4.8 0 0 1-.501 2.123l-5.122 10.246a.41.41 0 0 0 .018.4.4.4 0 0 0 .35.196h14.439a.4.4 0 0 0 .35-.195.41.41 0 0 0 .019-.401l-5.122-10.246a4.8 4.8 0 0 1-.501-2.123v-1.872h-3.93zm-1.031 10.314a.535.535 0 1 1-.001 0zm3.977 0a.536.536 0 1 1-.001 0zm-1.325-3.978a.535.535 0 1 1-.001 0zm8.643-13.618a.535.535 0 1 1 0 1.071h-5.784a.536.536 0 0 1 0-1.07zm-18.954-.754h2.946a.257.257 0 0 0 .256-.256v-2.946zm18.954-2.139a.536.536 0 0 1 0 1.072h-5.784a.535.535 0 1 1 0-1.072z"/><path fill="#025f1d" d="M369.092 79.628h-2.912V88h-1.582v-8.372h-2.912v-1.4h7.406zM371.419 88h-1.526v-7.28h1.526v1.442h.07q.111-.364.35-.686.252-.336.658-.546.405-.21.994-.21h.406v1.47h-.602q-.603 0-1.022.14t-.644.392a.95.95 0 0 0-.21.63zm8.243 0v-1.204h-.07a2.34 2.34 0 0 1-.672.966q-.462.406-1.372.406-1.106 0-1.736-.728-.63-.742-.63-2.086V80.72h1.526v4.438q0 .84.336 1.288.35.435 1.05.434.407 0 .756-.14.365-.14.588-.42.224-.28.224-.7v-4.9h1.526V88zm7.057 0h-1.33q-.784 0-1.204-.42-.405-.434-.406-1.176v-4.438h-1.134V80.72h.616q.378 0 .518-.168.154-.168.154-.546v-1.274h1.372v1.988h1.526v1.246h-1.526v4.788h1.414zm1.768 0V77.64h1.526v4.284h.07q.237-.588.714-.98.49-.392 1.33-.392 1.12 0 1.736.742.63.742.63 2.086V88h-1.526v-4.438q0-.855-.336-1.274-.322-.434-1.036-.434-.407 0-.77.14-.351.126-.588.406-.224.28-.224.7V88zm12.199-8.582q-.475 0-.7-.224a.8.8 0 0 1-.21-.574v-.238q0-.35.21-.574.225-.225.7-.224.477 0 .686.224t.21.574v.238q0 .35-.21.574-.21.225-.686.224m-.77 8.582v-7.28h1.526V88zm5.231 0h-1.526v-7.28h1.526v1.204h.07q.238-.588.714-.98.49-.392 1.33-.392 1.12 0 1.736.742.63.742.63 2.086V88h-1.526v-4.438q0-.855-.336-1.274-.322-.434-1.036-.434-.405 0-.77.14-.35.126-.588.406-.224.28-.224.7zm-39.524 15h-5.558v-9.772h1.582v8.372h3.976zm7.71 0h-.854q-.42 0-.728-.182a1.24 1.24 0 0 1-.448-.546 2 2 0 0 1-.154-.826v-.126l.434.462h-.49q-.21.672-.77 1.036-.56.35-1.358.35-1.12 0-1.736-.588t-.616-1.582q0-.728.35-1.204.363-.49 1.05-.728.685-.252 1.708-.252h1.316v-.616q0-.659-.364-1.022-.365-.378-1.134-.378-.63 0-1.05.294-.407.28-.686.7l-.91-.826q.363-.616 1.022-1.008.672-.406 1.722-.406 1.4 0 2.156.672.77.658.77 1.876v3.654h.77zm-2.296-3.206h-1.288q-.798 0-1.19.252a.81.81 0 0 0-.392.728v.252q0 .476.336.728.335.252.896.252.476 0 .84-.14.363-.14.574-.406a.93.93 0 0 0 .224-.616zm3.791 3.206V92.64h1.526v4.284h.07q.224-.659.77-1.008.546-.364 1.274-.364.924 0 1.568.462.644.449.98 1.302.35.84.35 2.044 0 1.19-.35 2.044-.335.854-.98 1.316-.644.448-1.568.448-.728 0-1.26-.364a2.13 2.13 0 0 1-.784-1.008h-.07V103zm3.178-1.12q.798 0 1.274-.518.476-.532.476-1.372v-1.26q0-.84-.476-1.358t-1.274-.518q-.462 0-.84.154a1.5 1.5 0 0 0-.588.434 1.02 1.02 0 0 0-.224.658v2.464q0 .42.224.714.225.28.588.448a2.2 2.2 0 0 0 .84.154m7.977 1.288q-1.036 0-1.792-.462a3.2 3.2 0 0 1-1.176-1.33q-.405-.853-.406-2.016 0-1.162.406-2.002a3.15 3.15 0 0 1 1.148-1.33q.743-.476 1.778-.476 1.078 0 1.792.49.729.476 1.092 1.302t.364 1.834v.574h-4.984v.238q0 .84.49 1.386.504.532 1.428.532.672 0 1.134-.294t.77-.798l.91.882q-.42.658-1.19 1.064-.756.406-1.764.406m-.014-6.426q-.531 0-.938.252a1.66 1.66 0 0 0-.616.672q-.21.42-.21.98v.098h3.388v-.14q0-.56-.196-.98a1.45 1.45 0 0 0-.56-.644 1.55 1.55 0 0 0-.868-.238m7.444 6.258h-.966q-.784 0-1.176-.406-.392-.42-.392-1.12V92.64h1.526v9.114h1.008zm2.228-8.582q-.475 0-.7-.224a.8.8 0 0 1-.21-.574v-.238q0-.35.21-.574.225-.225.7-.224.476 0 .686.224t.21.574v.238q0 .35-.21.574-.21.225-.686.224m-.77 8.582v-7.28h1.526V103zm5.231 0h-1.526v-7.28h1.526v1.204h.07q.238-.588.714-.98.49-.392 1.33-.392 1.12 0 1.736.742.63.742.63 2.086V103h-1.526v-4.438q0-.855-.336-1.274-.322-.434-1.036-.434-.405 0-.77.14-.35.127-.588.406-.224.28-.224.7zm12.993.686q0 .756-.392 1.26-.377.518-1.19.77-.811.252-2.128.252-1.176 0-1.918-.21-.728-.21-1.064-.602a1.43 1.43 0 0 1-.322-.938q0-.602.322-.952.336-.336.924-.448v-.154a1.15 1.15 0 0 1-.616-.42 1.17 1.17 0 0 1-.21-.7q0-.56.378-.854.393-.308.924-.434v-.056a2.3 2.3 0 0 1-1.008-.868 2.45 2.45 0 0 1-.336-1.288q0-.742.336-1.302.35-.56.994-.868.659-.322 1.568-.322.379 0 .7.056.336.056.63.168v-.196q0-.49.238-.756t.714-.266h1.106v1.218h-1.47v.294q.49.336.742.84.267.504.266 1.134 0 .728-.35 1.288-.336.56-.994.868-.644.308-1.568.308-.266 0-.518-.028a3 3 0 0 1-.434-.084 1.5 1.5 0 0 0-.476.28.54.54 0 0 0-.21.448q0 .294.252.42.267.126.756.126h1.792q1.344 0 1.946.532.616.532.616 1.484m-1.428.168a.72.72 0 0 0-.308-.616q-.294-.21-1.036-.21h-2.464a1 1 0 0 0-.378.35 1.1 1.1 0 0 0-.112.49q0 .434.35.714t1.204.28h.952q.897 0 1.344-.252a.82.82 0 0 0 .448-.756m-2.296-4.438q.673 0 1.036-.308.378-.308.378-.924v-.294q0-.616-.378-.924-.363-.308-1.036-.308-.672 0-1.05.308-.364.308-.364.924v.294q0 .616.364.924.378.308 1.05.308"/><rect width="100" height="119" x="448" fill="#fff" rx="10"/><rect width="47" height="47" x="474.5" y="20.5" stroke="#84c12f" rx="23.5"/><path fill="#84c12f" fill-rule="evenodd" d="M493.678 47.772c.96 0 1.741.78 1.741 1.74v.492c0 .194-.034.38-.093.556.784.51 1.719.806 2.787.878v-.23c0-1.29 1.05-2.34 2.341-2.34h1.567c1.29 0 2.34 1.05 2.34 2.34v4.13h.239c.948 0 1.72.771 1.72 1.72v1.05a.89.89 0 0 1-.888.89h-8.355a.89.89 0 0 1-.889-.89v-1.05c0-.947.771-1.72 1.72-1.72h.205V52.51c-1.308-.077-2.458-.442-3.427-1.09a1.73 1.73 0 0 1-1.008.325h-4.844c-.96 0-1.74-.781-1.74-1.741v-.491c0-.96.78-1.741 1.74-1.741zm4.229 8.635a.65.65 0 0 0-.649.65v.869h7.99v-.87a.65.65 0 0 0-.649-.649zm2.547-6.468c-.7 0-1.269.569-1.269 1.269v4.13h4.105v-4.13c0-.7-.569-1.27-1.269-1.27zm.782 2.185a.535.535 0 1 1 0 1.071.535.535 0 1 1-.001-1.071zm-12.402-3.281a.67.67 0 0 0-.669.67v.49c0 .37.3.67.669.67h4.844c.369 0 .67-.3.67-.67v-.49a.67.67 0 0 0-.67-.67zm18.016-11.536a.536.536 0 0 1 .701.283c1.023 2.416 2.951 8.492-1.22 12.734a.53.53 0 0 1-.382.16.538.538 0 0 1-.382-.912c3.586-3.645 2.165-8.81.998-11.564a.536.536 0 0 1 .285-.701m-2.586 2.597a.537.537 0 0 1 .688.318c.667 1.806 1.331 5.17-1.705 7.393a.54.54 0 0 1-.316.103v.002a.535.535 0 0 1-.318-.969c2.345-1.718 2.02-4.297 1.333-6.158a.54.54 0 0 1 .318-.689m-11.52 1.698a.537.537 0 0 1 .758.758l-.624.624a.838.838 0 0 0 1.183 1.187l.625-.626a.536.536 0 0 1 .757.759l-.624.624c-.359.36-.838.56-1.348.56l-.001-.003c-.512 0-.991-.199-1.35-.56a1.91 1.91 0 0 1 0-2.698zm9.426-12.174a1.454 1.454 0 0 1 2.052 0l3.882 3.882a1.452 1.452 0 0 1-1.025 2.477q-.234 0-.459-.076l-7.69 7.692a1.3 1.3 0 0 1-.931.386c-.351 0-.682-.137-.931-.386l-2.78-2.78a1.3 1.3 0 0 1-.386-.93c0-.353.137-.682.386-.931l7.628-7.628a1.45 1.45 0 0 1 .254-1.706m-7.124 10.092a.245.245 0 0 0 0 .345l2.78 2.78a.246.246 0 0 0 .346 0l7.482-7.483-3.125-3.125zm8.149-9.446a.379.379 0 0 0-.267.648l3.884 3.884a.38.38 0 1 0 .537-.538l-3.884-3.882a.38.38 0 0 0-.268-.112z" clip-rule="evenodd"/><path fill="#025f1d" d="M474.301 88.168q-1.218 0-2.086-.448a4.9 4.9 0 0 1-1.484-1.204l1.106-1.022q.504.63 1.12.952.63.322 1.428.322.938 0 1.414-.42.476-.434.476-1.134 0-.378-.14-.658a1.1 1.1 0 0 0-.476-.462q-.336-.182-.896-.294l-.868-.154q-.952-.182-1.596-.532a2.4 2.4 0 0 1-.952-.91q-.322-.574-.322-1.344 0-.868.42-1.498t1.19-.966q.784-.336 1.82-.336 1.106 0 1.918.392.812.377 1.372 1.106l-1.106.98a2.9 2.9 0 0 0-.924-.784q-.546-.294-1.358-.294-.84 0-1.302.336-.448.335-.448.98 0 .406.168.672t.504.434q.35.167.868.266l.868.182q.98.181 1.61.546.63.364.924.924.308.546.308 1.33 0 .91-.42 1.596-.42.672-1.218 1.064-.798.378-1.918.378m8.157 0q-1.583 0-2.45-1.022-.868-1.036-.868-2.786t.868-2.772q.867-1.035 2.45-1.036 1.092 0 1.792.49.699.49 1.008 1.302l-1.26.588a1.53 1.53 0 0 0-.546-.798q-.393-.308-.994-.308-.84 0-1.274.532-.435.518-.434 1.358v1.288q0 .84.434 1.372t1.274.532q.657 0 1.064-.322.405-.336.644-.882l1.148.616q-.35.896-1.078 1.372t-1.778.476m5.079-8.75q-.477 0-.7-.224a.8.8 0 0 1-.21-.574v-.238q0-.35.21-.574.223-.225.7-.224.476 0 .686.224t.21.574v.238q0 .35-.21.574-.21.225-.686.224m-.77 8.582v-7.28h1.526V88zm6.575.168q-1.036 0-1.792-.462a3.2 3.2 0 0 1-1.176-1.33q-.406-.854-.406-2.016t.406-2.002a3.14 3.14 0 0 1 1.148-1.33q.742-.476 1.778-.476 1.078 0 1.792.49.727.476 1.092 1.302.364.826.364 1.834v.574h-4.984v.238q0 .84.49 1.386.504.532 1.428.532.672 0 1.134-.294t.77-.798l.91.882q-.42.658-1.19 1.064-.756.406-1.764.406m-.014-6.426q-.532 0-.938.252a1.65 1.65 0 0 0-.616.672q-.21.42-.21.98v.098h3.388v-.14q0-.56-.196-.98a1.46 1.46 0 0 0-.56-.644 1.55 1.55 0 0 0-.868-.238M499.764 88h-1.526v-7.28h1.526v1.204h.07q.237-.588.714-.98.49-.392 1.33-.392 1.12 0 1.736.742.63.742.63 2.086V88h-1.526v-4.438q0-.855-.336-1.274-.322-.434-1.036-.434-.407 0-.77.14-.351.126-.588.406-.224.28-.224.7zm9.409.168q-1.583 0-2.45-1.022-.868-1.036-.868-2.786t.868-2.772q.867-1.035 2.45-1.036 1.092 0 1.792.49.699.49 1.008 1.302l-1.26.588a1.53 1.53 0 0 0-.546-.798q-.393-.308-.994-.308-.84 0-1.274.532-.434.518-.434 1.358v1.288q0 .84.434 1.372t1.274.532q.657 0 1.064-.322.405-.336.644-.882l1.148.616q-.35.896-1.078 1.372t-1.778.476m7.097 0q-1.036 0-1.792-.462a3.2 3.2 0 0 1-1.176-1.33q-.406-.854-.406-2.016t.406-2.002q.405-.855 1.148-1.33.741-.476 1.778-.476 1.077 0 1.792.49.727.476 1.092 1.302a4.5 4.5 0 0 1 .364 1.834v.574h-4.984v.238q0 .84.49 1.386.504.532 1.428.532.672 0 1.134-.294t.77-.798l.91.882q-.42.658-1.19 1.064-.756.406-1.764.406m-.014-6.426a1.74 1.74 0 0 0-.938.252 1.65 1.65 0 0 0-.616.672q-.21.42-.21.98v.098h3.388v-.14q0-.56-.196-.98a1.46 1.46 0 0 0-.56-.644 1.55 1.55 0 0 0-.868-.238m8.7 2.772h-3.878V82.96h3.878zM475.47 103v-9.772h4.326q1.203 0 1.904.686t.7 1.834q0 .728-.266 1.176-.252.435-.644.644-.379.21-.784.252v.084q.307.014.658.154.35.126.658.392.321.265.518.7.21.42.21 1.036 0 .784-.336 1.428-.323.644-.896 1.022a2.3 2.3 0 0 1-1.288.364zm1.582-4.326v2.968h2.716q.406 0 .7-.14a1.1 1.1 0 0 0 .448-.42q.168-.28.168-.686v-.476q0-.391-.168-.672a.98.98 0 0 0-.448-.42 1.5 1.5 0 0 0-.7-.154zm0-4.088v2.772h2.45q.391 0 .658-.126a.96.96 0 0 0 .42-.392q.154-.266.154-.644v-.448q0-.364-.154-.616a.94.94 0 0 0-.42-.406 1.4 1.4 0 0 0-.658-.14zM490.774 103h-.854q-.42 0-.728-.182a1.24 1.24 0 0 1-.448-.546 2 2 0 0 1-.154-.826v-.126l.434.462h-.49q-.21.672-.77 1.036-.56.35-1.358.35-1.12 0-1.736-.588t-.616-1.582q0-.728.35-1.204.365-.49 1.05-.728.686-.252 1.708-.252h1.316v-.616q0-.659-.364-1.022-.365-.378-1.134-.378-.63 0-1.05.294-.406.28-.686.7l-.91-.826a2.86 2.86 0 0 1 1.022-1.008q.672-.406 1.722-.406 1.4 0 2.156.672.77.658.77 1.876v3.654h.77zm-2.296-3.206h-1.288q-.798 0-1.19.252a.82.82 0 0 0-.392.728v.252q0 .476.336.728t.896.252q.476 0 .84-.14t.574-.406a.93.93 0 0 0 .224-.616zm6.606 3.374q-1.583 0-2.45-1.022-.868-1.036-.868-2.786t.868-2.772q.867-1.036 2.45-1.036 1.092 0 1.792.49.699.49 1.008 1.302l-1.26.588a1.53 1.53 0 0 0-.546-.798q-.393-.308-.994-.308-.84 0-1.274.532-.435.518-.434 1.358v1.288q0 .84.434 1.372t1.274.532q.657 0 1.064-.322.405-.336.644-.882l1.148.616q-.35.896-1.078 1.372t-1.778.476m4.309-.168V92.64h1.526v6.37h.07l1.022-1.288 1.806-2.002h1.75l-2.576 2.842 2.856 4.438h-1.834l-2.072-3.43-1.022 1.064V103zm10.253.168q-1.036 0-1.792-.462a3.2 3.2 0 0 1-1.176-1.33q-.406-.853-.406-2.016 0-1.162.406-2.002.405-.855 1.148-1.33.741-.476 1.778-.476 1.077 0 1.792.49.728.476 1.092 1.302a4.5 4.5 0 0 1 .364 1.834v.574h-4.984v.238q0 .84.49 1.386.504.532 1.428.532.672 0 1.134-.294t.77-.798l.91.882q-.42.658-1.19 1.064-.756.406-1.764.406m-.014-6.426a1.74 1.74 0 0 0-.938.252 1.65 1.65 0 0 0-.616.672q-.21.42-.21.98v.098h3.388v-.14q0-.56-.196-.98a1.46 1.46 0 0 0-.56-.644 1.55 1.55 0 0 0-.868-.238m9.487 6.258v-1.204h-.07a2.13 2.13 0 0 1-.784 1.008q-.531.364-1.26.364-.91 0-1.568-.448-.643-.462-.994-1.316-.336-.854-.336-2.044 0-1.204.336-2.044.35-.854.994-1.302.659-.462 1.568-.462.728 0 1.274.364.546.35.77 1.008h.07V92.64h1.526V103zm-1.652-1.12q.462 0 .826-.154.378-.168.602-.448a1.14 1.14 0 0 0 .224-.714V98.1q0-.378-.224-.658a1.45 1.45 0 0 0-.602-.434 2.1 2.1 0 0 0-.826-.154q-.783 0-1.274.518-.476.518-.476 1.358v1.26q0 .84.476 1.372.49.518 1.274.518"/><rect width="100" height="119" x="560" fill="#fff" rx="10"/><rect width="47" height="47" x="586.5" y="20.5" stroke="#84c12f" rx="23.5"/><path fill="#84c12f" fill-rule="evenodd" d="M604.101 40.586c.295 0 .535.24.535.535v4.006c0 .063.035.12.088.14a7.115 7.115 0 0 1 4.442 6.812c-.121 3.664-3.083 6.67-6.744 6.84a7 7 0 0 1-.339.008l-.001.002a7.03 7.03 0 0 1-4.89-1.961A7.02 7.02 0 0 1 595 51.844a7.05 7.05 0 0 1 4.438-6.572c.058-.023.095-.086.095-.154v-3.997a.535.535 0 0 1 1.071 0v3.997c0 .509-.301.96-.765 1.148a5.99 5.99 0 0 0-3.768 5.578 5.96 5.96 0 0 0 1.862 4.348 5.98 5.98 0 0 0 4.44 1.659c3.107-.145 5.621-2.695 5.723-5.805a6.04 6.04 0 0 0-3.772-5.783c-.46-.186-.76-.631-.76-1.136v-4.006a.537.537 0 0 1 .537-.535m15.371-.002c.296 0 .536.24.536.536v4.998c0 .49.116.982.335 1.42l4.511 9.024a1.36 1.36 0 0 1-.06 1.334 1.37 1.37 0 0 1-1.166.65l.002.002h-12.719c-.479 0-.915-.243-1.167-.65a1.36 1.36 0 0 1-.058-1.335l4.51-9.024c.22-.438.335-.93.335-1.42V41.12a.536.536 0 0 1 1.072 0v4.998a4.26 4.26 0 0 1-.449 1.9l-4.512 9.023a.3.3 0 0 0 .013.292.3.3 0 0 0 .255.143h12.719c.151 0 .229-.1.255-.143a.3.3 0 0 0 .012-.292l-4.511-9.023a4.26 4.26 0 0 1-.448-1.9V41.12c0-.296.239-.536.535-.536m-4.502 11.435a3.11 3.11 0 0 1 3.917-.388l.839.559a.537.537 0 0 1-.298.98h-.001a.54.54 0 0 1-.296-.089l-.839-.559a2.04 2.04 0 0 0-2.564.255l-.239.239a.537.537 0 0 1-.758-.758zm-16.394-.16a4.83 4.83 0 0 1 6.078-.602l1.397.933a.536.536 0 0 1-.593.891l-1.397-.933a3.76 3.76 0 0 0-4.726.468l-.397.397a.537.537 0 0 1-.758-.758zm11.497-18.47a5.58 5.58 0 0 1 5.573 5.573.536.536 0 0 1-1.072 0c0-2.482-2.019-4.5-4.501-4.501a4.51 4.51 0 0 0-4.502 4.5.535.535 0 1 1-1.071 0 5.58 5.58 0 0 1 5.573-5.571m.949-4.317c.632 0 1.147.514 1.147 1.146v1.434c0 .032.021.061.055.07a7.6 7.6 0 0 1 1.449.6.075.075 0 0 0 .089-.01l1.014-1.016a1.147 1.147 0 0 1 1.621 0l1.342 1.343a1.146 1.146 0 0 1 0 1.62l-1.015 1.015a.074.074 0 0 0-.011.088c.25.46.452.949.6 1.45.01.032.038.054.07.054h1.434c.632 0 1.147.515 1.147 1.147a.536.536 0 0 1-1.072 0 .075.075 0 0 0-.075-.075h-1.434c-.51 0-.952-.33-1.097-.82-.127-.43-.3-.849-.515-1.244a1.14 1.14 0 0 1 .196-1.358l1.015-1.015a.074.074 0 0 0 0-.106l-1.341-1.342a.076.076 0 0 0-.107 0l-1.014 1.015a1.14 1.14 0 0 1-1.359.196 6.5 6.5 0 0 0-1.243-.515 1.14 1.14 0 0 1-.82-1.097v-1.434a.076.076 0 0 0-.076-.074h-1.897a.075.075 0 0 0-.075.074v1.434c0 .51-.33.952-.821 1.097-.43.127-.849.3-1.244.515a1.14 1.14 0 0 1-1.357-.196l-1.016-1.015a.074.074 0 0 0-.105 0l-1.342 1.342a.076.076 0 0 0 0 .106l1.015 1.015c.361.361.44.907.196 1.358a6.5 6.5 0 0 0-.515 1.243c-.146.492-.586.82-1.096.82h-1.435a.075.075 0 0 0-.075.076v.23a.535.535 0 0 1-1.071 0v-.23c0-.632.514-1.147 1.146-1.147h1.435c.032 0 .06-.021.069-.054.149-.501.351-.989.6-1.45.016-.03.012-.065-.011-.088l-1.015-1.015a1.146 1.146 0 0 1 0-1.62l1.342-1.343a1.147 1.147 0 0 1 1.621 0l1.015 1.016a.075.075 0 0 0 .089.01c.46-.25.947-.45 1.448-.6a.08.08 0 0 0 .056-.07v-1.434c0-.632.514-1.146 1.146-1.146z" clip-rule="evenodd"/><path fill="#025f1d" d="M585.778 88.168q-1.274 0-2.198-.56-.924-.575-1.414-1.68-.49-1.106-.49-2.758 0-1.638.49-2.772.49-1.148 1.414-1.736.924-.602 2.198-.602 1.26 0 2.114.56.868.56 1.372 1.652l-1.33.728q-.252-.7-.784-1.106-.517-.42-1.372-.42-1.133 0-1.778.784-.644.784-.644 2.142v1.498q0 1.344.644 2.1.645.756 1.778.756.868 0 1.428-.448.56-.462.826-1.176l1.274.77a4.05 4.05 0 0 1-1.386 1.666q-.882.602-2.142.602m7.627-.168h-.966q-.783 0-1.176-.406-.392-.42-.392-1.12V77.64h1.526v9.114h1.008zm2.228-8.582q-.475 0-.7-.224a.8.8 0 0 1-.21-.574v-.238q0-.35.21-.574.225-.225.7-.224.476 0 .686.224t.21.574v.238q0 .35-.21.574-.21.225-.686.224m-.77 8.582v-7.28h1.526V88zm5.232 0h-1.526v-7.28h1.526v1.204h.07q.237-.588.714-.98.49-.392 1.33-.392 1.12 0 1.736.742.63.742.63 2.086V88h-1.526v-4.438q0-.855-.336-1.274-.322-.434-1.036-.434-.407 0-.77.14-.351.126-.588.406-.224.28-.224.7zm7.365-8.582q-.477 0-.7-.224a.8.8 0 0 1-.21-.574v-.238q0-.35.21-.574.223-.225.7-.224.476 0 .686.224t.21.574v.238q0 .35-.21.574-.21.225-.686.224M606.69 88v-7.28h1.526V88zm6.519.168q-1.583 0-2.45-1.022-.868-1.036-.868-2.786t.868-2.772q.867-1.035 2.45-1.036 1.092 0 1.792.49.699.49 1.008 1.302l-1.26.588a1.53 1.53 0 0 0-.546-.798q-.393-.308-.994-.308-.84 0-1.274.532-.434.518-.434 1.358v1.288q0 .84.434 1.372t1.274.532q.657 0 1.064-.322.405-.336.644-.882l1.148.616q-.35.896-1.078 1.372t-1.778.476M623.706 88h-.854q-.42 0-.728-.182a1.23 1.23 0 0 1-.448-.546 2 2 0 0 1-.154-.826v-.126l.434.462h-.49q-.21.672-.77 1.036-.56.35-1.358.35-1.12 0-1.736-.588t-.616-1.582q0-.728.35-1.204.363-.49 1.05-.728.685-.252 1.708-.252h1.316v-.616q0-.659-.364-1.022-.365-.378-1.134-.378-.63 0-1.05.294-.407.28-.686.7l-.91-.826q.363-.616 1.022-1.008.672-.405 1.722-.406 1.4 0 2.156.672.77.658.77 1.876v3.654h.77zm-2.296-3.206h-1.288q-.798 0-1.19.252a.81.81 0 0 0-.392.728v.252q0 .476.336.728t.896.252q.476 0 .84-.14t.574-.406a.93.93 0 0 0 .224-.616zM627.735 88h-.966q-.783 0-1.176-.406-.392-.42-.392-1.12V77.64h1.526v9.114h1.008zm3.911 0h-.966q-.784 0-1.176-.406-.393-.42-.392-1.12V77.64h1.526v9.114h1.008zm4.358-2.996 1.456-4.284h1.47l-3.066 8.722a2.6 2.6 0 0 1-.406.784 1.2 1.2 0 0 1-.588.434q-.35.14-.924.14h-.882v-1.246h1.232l.42-1.232-2.646-7.602h1.526l1.456 4.284.42 1.582h.07zM575.776 103h-1.582v-9.772h6.104v1.4h-4.522v2.73h4.018v1.4h-4.018zm8.736.168q-1.022 0-1.778-.462a3.23 3.23 0 0 1-1.162-1.33q-.406-.853-.406-2.016t.406-2.016q.42-.855 1.162-1.316.756-.476 1.778-.476 1.008 0 1.75.476a3 3 0 0 1 1.162 1.316q.42.854.42 2.016 0 1.163-.42 2.016a3.1 3.1 0 0 1-1.162 1.33q-.742.462-1.75.462m0-1.274q.784 0 1.246-.476.476-.49.476-1.442v-1.232q0-.952-.476-1.428-.462-.49-1.246-.49-.77 0-1.26.49-.476.475-.476 1.428v1.232q0 .952.476 1.442.49.476 1.26.476m6.545 1.106h-1.526v-7.28h1.526v1.442h.07q.113-.364.35-.686.253-.336.658-.546.406-.21.994-.21h.406v1.47h-.602a3.3 3.3 0 0 0-1.022.14q-.42.14-.644.392a.95.95 0 0 0-.21.63zm5.36 0h-1.526v-7.28h1.526v1.204h.07q.223-.575.672-.966.462-.406 1.288-.406.728 0 1.302.364.573.35.84 1.12h.042q.195-.602.756-1.036.56-.448 1.456-.448 1.092 0 1.68.742.602.742.602 2.086V103h-1.526v-4.438q0-.855-.322-1.274-.322-.434-1.008-.434-.378 0-.728.14-.35.127-.56.406-.21.28-.21.7v4.9h-1.526v-4.438q0-.855-.322-1.274-.322-.434-.994-.434-.378 0-.728.14-.35.127-.574.406-.21.28-.21.7zm15.23 0v-1.204h-.07a2.34 2.34 0 0 1-.672.966q-.462.406-1.372.406-1.107 0-1.736-.728-.63-.742-.63-2.086V95.72h1.526v4.438q0 .84.336 1.288.35.434 1.05.434.405 0 .756-.14.363-.14.588-.42t.224-.7v-4.9h1.526V103zm6.245 0h-.966q-.784 0-1.176-.406-.392-.42-.392-1.12V92.64h1.526v9.114h1.008zm7.646 0h-.854q-.42 0-.728-.182a1.24 1.24 0 0 1-.448-.546 2 2 0 0 1-.154-.826v-.126l.434.462h-.49q-.21.672-.77 1.036-.56.35-1.358.35-1.12 0-1.736-.588t-.616-1.582q0-.728.35-1.204.363-.49 1.05-.728.685-.252 1.708-.252h1.316v-.616q0-.659-.364-1.022-.365-.378-1.134-.378-.63 0-1.05.294-.407.28-.686.7l-.91-.826q.363-.616 1.022-1.008.672-.406 1.722-.406 1.4 0 2.156.672.77.658.77 1.876v3.654h.77zm-2.296-3.206h-1.288q-.798 0-1.19.252a.81.81 0 0 0-.392.728v.252q0 .476.336.728t.896.252q.476 0 .84-.14.363-.14.574-.406a.93.93 0 0 0 .224-.616zm7.096 3.206h-1.33q-.784 0-1.204-.42-.406-.433-.406-1.176v-4.438h-1.134V95.72h.616q.378 0 .518-.168.154-.168.154-.546v-1.274h1.372v1.988h1.526v1.246h-1.526v4.788h1.414zm4.583.168q-1.036 0-1.792-.462a3.2 3.2 0 0 1-1.176-1.33q-.406-.853-.406-2.016 0-1.162.406-2.002a3.14 3.14 0 0 1 1.148-1.33q.742-.476 1.778-.476 1.078 0 1.792.49.728.476 1.092 1.302t.364 1.834v.574h-4.984v.238q0 .84.49 1.386.504.532 1.428.532.672 0 1.134-.294t.77-.798l.91.882q-.42.658-1.19 1.064-.756.406-1.764.406m-.014-6.426q-.532 0-.938.252a1.65 1.65 0 0 0-.616.672q-.21.42-.21.98v.098h3.388v-.14q0-.56-.196-.98a1.46 1.46 0 0 0-.56-.644 1.55 1.55 0 0 0-.868-.238m9.488 6.258v-1.204h-.07a2.13 2.13 0 0 1-.784 1.008q-.533.364-1.26.364-.91 0-1.568-.448-.645-.462-.994-1.316-.336-.854-.336-2.044 0-1.204.336-2.044.35-.854.994-1.302.657-.462 1.568-.462.728 0 1.274.364.546.35.77 1.008h.07V92.64h1.526V103zm-1.652-1.12q.462 0 .826-.154.377-.168.602-.448.224-.294.224-.714V98.1q0-.378-.224-.658a1.46 1.46 0 0 0-.602-.434 2.1 2.1 0 0 0-.826-.154q-.785 0-1.274.518-.476.518-.476 1.358v1.26q0 .84.476 1.372.49.518 1.274.518"/></g><defs><clipPath id="a"><path fill="#fff" d="M0 0h660v119H0z"/></clipPath></defs></svg>