<svg xmlns="http://www.w3.org/2000/svg" width="464" height="133" fill="none" viewBox="0 0 464 133"><g clip-path="url(#a)"><rect width="221" height="133" fill="#f8f8f7" rx="8"/><rect width="47" height="47" x="24.5" y="24.5" stroke="#84c12f" rx="23.5"/><g fill="#84c12f" clip-path="url(#b)"><path d="M53.916 61.214H41.378a.536.536 0 1 1 0-1.072h12.538c.462 0 .908-.135 1.292-.391l5.996-3.996c.53-.353.794-.94.71-1.57a1.59 1.59 0 0 0-1.098-1.327 1.62 1.62 0 0 0-1.417.19l-4.318 2.878a.535.535 0 1 1-.595-.892l4.318-2.878a2.68 2.68 0 0 1 2.35-.315 2.68 2.68 0 0 1 1.822 2.202 2.68 2.68 0 0 1-1.177 2.604l-5.996 3.996a3.4 3.4 0 0 1-1.887.572z"/><path d="M53.05 57.747h-5.197a.536.536 0 1 1 0-1.071h5.198a1.2 1.2 0 0 0 1.198-1.199c0-.318-.124-.618-.35-.845a1.2 1.2 0 0 0-.848-.35h-2.493a4.3 4.3 0 0 1-1.952-.48c-1.245-.644-4.395-1.943-6.79-.129-.352.265-.652.472-.942.651a.536.536 0 0 1-.56-.913c.263-.16.534-.348.857-.592 2.88-2.183 6.502-.706 7.926.03.458.236.964.36 1.461.36h2.493a2.25 2.25 0 0 1 1.604.665c.429.429.664.998.664 1.603 0 1.251-1.017 2.27-2.27 2.27z"/><path d="M53.916 61.214H41.378a.536.536 0 1 1 0-1.072h12.538c.462 0 .908-.135 1.292-.391l5.996-3.996c.53-.353.794-.94.71-1.57a1.59 1.59 0 0 0-1.098-1.327 1.62 1.62 0 0 0-1.417.19l-4.318 2.878a.535.535 0 1 1-.595-.892l4.318-2.878a2.68 2.68 0 0 1 2.35-.315 2.68 2.68 0 0 1 1.822 2.202 2.68 2.68 0 0 1-1.177 2.604l-5.996 3.996a3.4 3.4 0 0 1-1.887.572z"/><path d="M53.05 57.747h-5.197a.536.536 0 1 1 0-1.071h5.198a1.2 1.2 0 0 0 1.198-1.199c0-.318-.124-.618-.35-.845a1.2 1.2 0 0 0-.848-.35h-2.493a4.3 4.3 0 0 1-1.952-.48c-1.245-.644-4.395-1.943-6.79-.129-.352.265-.652.472-.942.651a.536.536 0 0 1-.56-.913c.263-.16.534-.348.857-.592 2.88-2.183 6.502-.706 7.926.03.458.236.964.36 1.461.36h2.493a2.25 2.25 0 0 1 1.604.665c.429.429.664.998.664 1.603 0 1.251-1.017 2.27-2.27 2.27zM37.21 63.178h-3.43a.78.78 0 0 1-.78-.78v-9.311c0-.431.35-.781.78-.781h3.43c.432 0 .782.35.782.78v9.311c0 .432-.351.781-.781.781m-3.139-1.071h2.85v-8.731h-2.85zM44.022 50.489a.536.536 0 0 1-.536-.536v-3.631c0-.74.436-1.416 1.11-1.721 1.49-.676 2.555-.959 3.185-1.077a.23.23 0 0 0 .19-.222v-.525a.536.536 0 1 1 1.07 0v.525c0 .624-.447 1.161-1.063 1.276-.573.107-1.548.367-2.94 1a.82.82 0 0 0-.48.745v3.631c0 .296-.24.536-.536.536zM57.478 50.489a.536.536 0 0 1-.536-.536v-3.63a.82.82 0 0 0-.48-.747c-1.392-.632-2.367-.892-2.94-.999a1.3 1.3 0 0 1-1.064-1.276v-.525a.536.536 0 1 1 1.071 0v.525c0 .108.08.202.19.222.63.118 1.695.4 3.185 1.077a1.89 1.89 0 0 1 1.11 1.72v3.632c0 .296-.24.535-.536.535zM50.75 41.967c-2.224 0-3.9-3.182-3.9-5.245 0-2.062 1.75-3.9 3.9-3.9s3.9 1.75 3.9 3.9-1.673 5.245-3.9 5.245m0-8.073a2.83 2.83 0 0 0-2.828 2.828c0 1.745 1.425 4.173 2.829 4.173 1.403 0 2.828-2.428 2.828-4.173a2.83 2.83 0 0 0-2.828-2.828"/></g><path fill="#000" d="M24.79 96v-8h3.062q.867 0 1.441.273.578.27.863.739.29.468.29 1.062 0 .489-.188.836-.187.345-.504.559a2.1 2.1 0 0 1-.707.308v.079q.426.023.816.261.395.234.645.664t.25 1.04q0 .62-.301 1.117-.3.492-.906.777T28.027 96zm1.448-1.21h1.559q.789 0 1.137-.302a.99.99 0 0 0 .351-.781 1.2 1.2 0 0 0-.676-1.094 1.66 1.66 0 0 0-.773-.168h-1.598zm0-3.388h1.434q.375 0 .676-.136.3-.141.472-.395.176-.258.176-.61 0-.464-.328-.765-.324-.3-.965-.3h-1.465zm8.374 4.715q-.901 0-1.558-.375a2.54 2.54 0 0 1-1.004-1.07q-.352-.696-.352-1.637 0-.926.352-1.625.356-.703.992-1.094.637-.394 1.496-.394.555 0 1.047.18.495.175.875.546.383.372.602.946.218.57.218 1.36v.433h-4.918v-.953h3.563a1.5 1.5 0 0 0-.176-.723 1.3 1.3 0 0 0-.48-.504 1.35 1.35 0 0 0-.711-.184q-.434 0-.762.211-.329.207-.512.547-.18.336-.183.738v.833q0 .523.191.898.192.371.535.57.345.196.805.196.309 0 .558-.086a1.2 1.2 0 0 0 .434-.262 1.1 1.1 0 0 0 .277-.426l1.32.149a2.06 2.06 0 0 1-.476.914 2.3 2.3 0 0 1-.89.601 3.4 3.4 0 0 1-1.243.211M41.472 90v1.094h-3.449V90zm-2.597-1.437h1.414v5.632q0 .285.086.438.09.148.234.203a.9.9 0 0 0 .32.055q.134 0 .243-.02.113-.02.172-.035l.238 1.105a3 3 0 0 1-.324.086 2.7 2.7 0 0 1-.508.055 2.3 2.3 0 0 1-.957-.16 1.5 1.5 0 0 1-.676-.555q-.246-.375-.242-.937zM45.651 90v1.094h-3.449V90zm-2.597-1.437h1.414v5.632q0 .285.086.438.09.148.234.203a.9.9 0 0 0 .32.055q.133 0 .243-.02.112-.02.172-.035l.238 1.105a3 3 0 0 1-.325.086 2.7 2.7 0 0 1-.507.055 2.3 2.3 0 0 1-.957-.16 1.5 1.5 0 0 1-.676-.555q-.246-.375-.242-.937zm6.372 7.554q-.903 0-1.559-.375a2.54 2.54 0 0 1-1.004-1.07q-.351-.696-.351-1.637 0-.926.351-1.625.356-.703.992-1.094.638-.394 1.497-.394.554 0 1.046.18.497.175.875.546.384.372.602.946.219.57.219 1.36v.433h-4.918v-.953h3.562a1.5 1.5 0 0 0-.175-.723 1.3 1.3 0 0 0-.481-.504 1.35 1.35 0 0 0-.71-.184q-.435 0-.763.211-.328.207-.511.547-.18.336-.184.738v.833q0 .523.191.898.191.371.536.57.343.196.804.196.309 0 .559-.086a1.2 1.2 0 0 0 .434-.262 1.1 1.1 0 0 0 .277-.426l1.32.149a2.06 2.06 0 0 1-.476.914 2.3 2.3 0 0 1-.891.601q-.543.21-1.242.211M53.29 96v-6h1.371v1h.063q.164-.52.562-.8.402-.286.918-.286.117 0 .262.012.148.008.246.027v1.3q-.09-.03-.285-.054a3 3 0 0 0-.371-.027q-.387 0-.696.168a1.23 1.23 0 0 0-.48.457q-.176.292-.176.676V96zm8.602-8v8h-1.45v-8zm2.92 4.484V96h-1.414v-6h1.352v1.02h.07q.207-.504.66-.801.457-.297 1.13-.297.62 0 1.081.266.465.265.72.769.257.504.253 1.223V96H67.25v-3.602q0-.6-.312-.941-.309-.34-.856-.34-.37 0-.66.164-.285.16-.45.465a1.6 1.6 0 0 0-.16.738m7.899 5.891q-.762 0-1.309-.207a2.3 2.3 0 0 1-.879-.547 1.9 1.9 0 0 1-.46-.762l1.273-.308a1.4 1.4 0 0 0 .25.347q.164.177.441.29.282.117.707.117.601 0 .997-.293.394-.289.394-.953v-1.137h-.07a2 2 0 0 1-.32.45 1.6 1.6 0 0 1-.551.386q-.34.156-.856.156-.69 0-1.254-.324-.559-.328-.89-.977-.329-.652-.328-1.632 0-.99.328-1.668.331-.684.894-1.036a2.3 2.3 0 0 1 1.254-.355q.527 0 .867.18.345.176.547.425.203.247.309.465h.078V90h1.394v6.098q0 .77-.367 1.273-.368.504-1.004.754a3.9 3.9 0 0 1-1.445.25m.012-3.57q.45 0 .765-.22.317-.217.48-.628a2.7 2.7 0 0 0 .165-.984q0-.567-.164-.992a1.4 1.4 0 0 0-.477-.66 1.23 1.23 0 0 0-.77-.239q-.472 0-.788.246-.317.247-.477.676a2.7 2.7 0 0 0-.16.969q0 .55.16.965.165.41.48.64.321.227.786.227M76.977 96v-6h1.37v1h.063q.165-.52.563-.8.402-.286.918-.286.117 0 .261.012.15.008.246.027v1.3q-.09-.03-.285-.054a3 3 0 0 0-.37-.027q-.388 0-.696.168a1.23 1.23 0 0 0-.48.457q-.176.292-.176.676V96zm6.77.117q-.903 0-1.558-.375a2.54 2.54 0 0 1-1.004-1.07q-.352-.696-.352-1.637 0-.926.352-1.625.354-.703.992-1.094.636-.394 1.496-.394.555 0 1.047.18.495.175.875.546.383.372.601.946.219.57.219 1.36v.433h-4.918v-.953h3.563a1.5 1.5 0 0 0-.176-.723 1.3 1.3 0 0 0-.48-.504 1.35 1.35 0 0 0-.712-.184q-.434 0-.761.211-.33.207-.512.547-.18.336-.184.738v.833q0 .523.192.898.191.371.535.57.344.196.805.196.308 0 .558-.086a1.2 1.2 0 0 0 .434-.262 1.1 1.1 0 0 0 .277-.426l1.32.149a2.06 2.06 0 0 1-.476.914 2.3 2.3 0 0 1-.89.601q-.544.21-1.243.211m6.09-.011a2.27 2.27 0 0 1-1.265-.364q-.558-.363-.883-1.055-.324-.69-.324-1.68 0-.999.328-1.687.333-.69.895-1.043a2.3 2.3 0 0 1 1.254-.355q.526 0 .867.18.34.176.539.425a2.6 2.6 0 0 1 .309.465h.058V88h1.418v8h-1.39v-.945h-.086a2.4 2.4 0 0 1-.317.464q-.207.243-.547.415-.339.172-.855.172m.395-1.16q.45 0 .766-.243.316-.246.48-.684.165-.437.165-1.019t-.165-1.012a1.44 1.44 0 0 0-.476-.668 1.23 1.23 0 0 0-.77-.238q-.472 0-.789.246a1.5 1.5 0 0 0-.476.68q-.16.434-.16.992 0 .563.16 1.004.165.438.48.691.32.25.785.25M94.54 96v-6h1.414v6zm.711-6.852a.83.83 0 0 1-.578-.222.72.72 0 0 1-.242-.543.71.71 0 0 1 .242-.543.82.82 0 0 1 .578-.227q.34 0 .578.227a.71.71 0 0 1 .242.543q0 .316-.242.543a.82.82 0 0 1-.578.222m4.813 6.97q-.901 0-1.558-.376a2.54 2.54 0 0 1-1.004-1.07q-.352-.696-.352-1.637 0-.926.352-1.625.356-.703.992-1.094.637-.394 1.496-.394.555 0 1.047.18.497.175.875.546.383.372.602.946.219.57.218 1.36v.433h-4.918v-.953h3.563a1.5 1.5 0 0 0-.176-.723 1.3 1.3 0 0 0-.48-.504 1.35 1.35 0 0 0-.711-.184q-.434 0-.762.211-.329.207-.512.547-.18.336-.183.738v.833q0 .523.191.898.192.371.535.57.345.196.805.196.309 0 .559-.086a1.2 1.2 0 0 0 .433-.262 1.1 1.1 0 0 0 .278-.426l1.32.149a2.06 2.06 0 0 1-.477.914 2.3 2.3 0 0 1-.89.601q-.543.21-1.243.211m5.279-3.634V96h-1.414v-6h1.351v1.02h.071q.207-.504.66-.801.457-.297 1.129-.297.62 0 1.082.266.465.265.718.769.258.504.254 1.223V96h-1.414v-3.602q0-.6-.312-.941-.309-.34-.856-.34-.37 0-.66.164-.285.16-.449.465-.16.305-.16.738M113.628 90v1.094h-3.449V90zm-2.598-1.437h1.414v5.632q0 .285.086.438.09.148.235.203a.9.9 0 0 0 .32.055q.133 0 .242-.02.114-.02.172-.035l.238 1.105a3 3 0 0 1-.324.086q-.207.048-.508.055a2.3 2.3 0 0 1-.957-.16 1.5 1.5 0 0 1-.676-.555q-.246-.375-.242-.937zm8.437 3.023-1.289.14a1.1 1.1 0 0 0-.192-.367.95.95 0 0 0-.359-.277 1.3 1.3 0 0 0-.555-.105q-.44 0-.742.191-.296.192-.293.496a.52.52 0 0 0 .192.426q.198.165.656.27l1.023.218q.852.184 1.266.582.417.399.422 1.043a1.64 1.64 0 0 1-.332 1q-.324.43-.903.672-.578.242-1.328.242-1.101 0-1.773-.46a1.85 1.85 0 0 1-.801-1.294l1.379-.132a.97.97 0 0 0 .398.613q.305.207.793.207.504 0 .809-.207.309-.207.308-.512a.53.53 0 0 0-.199-.426q-.195-.168-.609-.258l-1.024-.214q-.863-.18-1.277-.606-.414-.429-.41-1.086-.004-.555.301-.96.308-.41.855-.634a3.3 3.3 0 0 1 1.27-.226q1.054 0 1.66.45.609.449.754 1.214m2.955 3.32-.051.43a6.3 6.3 0 0 1-.195 1q-.137.512-.289.941-.153.43-.246.676h-.953l.148-.648q.098-.41.187-.922.09-.512.122-1.04l.027-.437zM126.55 96v-8h3.062q.867 0 1.442.273.578.27.863.739.29.468.289 1.062 0 .489-.187.836-.187.345-.504.559a2.1 2.1 0 0 1-.707.308v.079q.425.023.816.261.395.234.645.664t.25 1.04q0 .62-.301 1.117-.302.492-.906.777-.606.285-1.524.285zm1.449-1.21h1.559q.79 0 1.136-.302a.99.99 0 0 0 .352-.781 1.2 1.2 0 0 0-.676-1.094 1.66 1.66 0 0 0-.773-.168h-1.598zm0-3.388h1.434q.375 0 .675-.136.301-.141.473-.395.176-.258.176-.61 0-.464-.328-.765-.324-.3-.965-.3h-1.465zm8.374 4.715q-.902 0-1.559-.375a2.54 2.54 0 0 1-1.003-1.07q-.352-.696-.352-1.637 0-.926.352-1.625.355-.703.992-1.094.636-.394 1.496-.394.555 0 1.047.18.495.175.875.546.382.372.601.946.219.57.219 1.36v.433h-4.918v-.953h3.563a1.53 1.53 0 0 0-.176-.723 1.3 1.3 0 0 0-.481-.504 1.35 1.35 0 0 0-.711-.184q-.434 0-.761.211a1.45 1.45 0 0 0-.512.547q-.18.336-.184.738v.833q0 .523.192.898.191.371.535.57a1.6 1.6 0 0 0 .805.196q.308 0 .558-.086.25-.09.434-.262t.277-.426l1.32.149a2.06 2.06 0 0 1-.476.914 2.3 2.3 0 0 1-.891.601 3.4 3.4 0 0 1-1.242.211m6.86-6.117v1.094h-3.449V90zm-2.597-1.437h1.414v5.632q0 .285.086.438.09.148.234.203a.9.9 0 0 0 .32.055q.133 0 .243-.02.113-.02.171-.035l.239 1.105a3 3 0 0 1-.324.086q-.207.048-.508.055a2.3 2.3 0 0 1-.957-.16 1.5 1.5 0 0 1-.676-.555q-.246-.375-.242-.937zM147.412 90v1.094h-3.449V90zm-2.598-1.437h1.415v5.632q0 .285.085.438.09.148.235.203a.9.9 0 0 0 .32.055q.133 0 .242-.02.114-.02.172-.035l.238 1.105a3 3 0 0 1-.324.086q-.207.048-.508.055a2.3 2.3 0 0 1-.957-.16 1.5 1.5 0 0 1-.675-.555q-.246-.375-.243-.937zm6.373 7.554q-.903 0-1.559-.375a2.54 2.54 0 0 1-1.004-1.07q-.352-.696-.352-1.637 0-.926.352-1.625.356-.703.992-1.094.637-.394 1.496-.394.555 0 1.047.18.497.175.875.546.383.372.602.946.218.57.218 1.36v.433h-4.917v-.953h3.562a1.5 1.5 0 0 0-.176-.723 1.27 1.27 0 0 0-.48-.504 1.35 1.35 0 0 0-.711-.184q-.433 0-.762.211-.328.207-.512.547-.18.336-.183.738v.833q0 .523.191.898.192.371.535.57.345.196.805.196.309 0 .559-.086a1.2 1.2 0 0 0 .433-.262 1.1 1.1 0 0 0 .278-.426l1.32.149a2.05 2.05 0 0 1-.477.914 2.3 2.3 0 0 1-.89.601 3.4 3.4 0 0 1-1.242.211m3.864-.117v-6h1.371v1h.062a1.5 1.5 0 0 1 1.481-1.086q.117 0 .262.012.148.008.246.027v1.3a1.5 1.5 0 0 0-.285-.054 3 3 0 0 0-.372-.027q-.386 0-.695.168-.304.165-.48.457a1.3 1.3 0 0 0-.176.676V96zm7.152 0v-8h1.449v3.387h3.707V88h1.454v8h-1.454v-3.398h-3.707V96zm10.779.117q-.902 0-1.558-.375a2.54 2.54 0 0 1-1.004-1.07q-.352-.696-.352-1.637 0-.926.352-1.625.356-.703.992-1.094.637-.394 1.496-.394.555 0 1.047.18.496.175.875.546.383.372.602.946.218.57.218 1.36v.433h-4.918v-.953h3.563a1.5 1.5 0 0 0-.176-.723 1.3 1.3 0 0 0-.48-.504 1.35 1.35 0 0 0-.711-.184q-.433 0-.762.211-.328.207-.512.547-.18.336-.183.738v.833q0 .523.191.898.192.371.535.57.344.196.805.196.309 0 .559-.086a1.2 1.2 0 0 0 .433-.262q.184-.172.277-.426l1.321.149a2.06 2.06 0 0 1-.477.914 2.3 2.3 0 0 1-.89.601q-.543.21-1.243.211m5.591.004q-.57 0-1.027-.203a1.7 1.7 0 0 1-.719-.61q-.262-.401-.262-.992 0-.507.188-.84.188-.331.512-.53.324-.2.73-.302.41-.105.848-.152.526-.054.855-.098.328-.046.477-.14.152-.098.152-.3v-.024q0-.442-.262-.684-.261-.242-.753-.242-.52 0-.825.227-.3.226-.406.535l-1.32-.188q.156-.548.515-.914.36-.37.879-.555a3.4 3.4 0 0 1 1.149-.187q.434 0 .863.101.43.102.785.336.356.231.57.63.219.398.219.995V96h-1.359v-.824h-.047a1.7 1.7 0 0 1-.363.468q-.231.216-.582.348a2.4 2.4 0 0 1-.817.13m.367-1.039q.426 0 .739-.168.312-.172.48-.453a1.15 1.15 0 0 0 .172-.613v-.707a.7.7 0 0 1-.227.101 3 3 0 0 1-.351.082q-.195.035-.387.063l-.332.047q-.317.042-.566.14a.94.94 0 0 0-.395.274.67.67 0 0 0-.144.445q0 .39.285.59t.726.199M184.577 88v8h-1.414v-8zm4.45 2v1.094h-3.449V90zm-2.597-1.437h1.414v5.632q0 .285.086.438.09.148.234.203a.9.9 0 0 0 .32.055q.133 0 .243-.02.112-.02.171-.035l.239 1.105a2.666 2.666 0 0 1-.832.14 2.3 2.3 0 0 1-.957-.16 1.5 1.5 0 0 1-.676-.554q-.246-.375-.242-.937zm5.323 3.921V96h-1.414v-8h1.383v3.02h.07a1.74 1.74 0 0 1 .652-.801q.446-.297 1.133-.297.625 0 1.09.262t.719.765q.258.504.258 1.23V96h-1.415v-3.602q0-.605-.312-.941-.309-.34-.867-.34-.375 0-.672.164a1.15 1.15 0 0 0-.461.465q-.164.305-.164.738"/><path fill="#000" fill-opacity=".7" d="M28.227 110.273h1.16l.971 1.278.256.341 1.448 1.926h-1.159l-.954-1.278-.239-.324zm4.193-1.637q0 1.381-.498 2.387-.498 1.005-1.368 1.551-.87.545-1.986.545t-1.986-.545q-.87-.546-1.367-1.551-.5-1.006-.5-2.387 0-1.38.5-2.386.498-1.006 1.367-1.551.87-.546 1.986-.546t1.986.546 1.368 1.551.498 2.386m-1.022 0q0-1.133-.38-1.913-.375-.78-1.018-1.18a2.64 2.64 0 0 0-1.432-.401q-.792 0-1.436.401-.64.4-1.018 1.18-.375.78-.375 1.913t.375 1.914q.378.78 1.018 1.18.645.4 1.436.401.793 0 1.432-.401.643-.4 1.018-1.18.38-.78.38-1.914m6.788 1.688v-3.869h1.006V113h-1.006v-1.108h-.068a2.15 2.15 0 0 1-.716.848q-.486.345-1.227.345-.614 0-1.091-.268a1.9 1.9 0 0 1-.75-.818q-.273-.55-.273-1.385v-4.159h1.006v4.09q0 .716.4 1.143.405.426 1.032.426.375 0 .762-.192.392-.192.657-.588.268-.396.268-1.01m4.774 2.829q-.622 0-1.13-.234a1.94 1.94 0 0 1-.805-.686q-.298-.452-.298-1.091 0-.562.222-.912.221-.354.592-.554a3.1 3.1 0 0 1 .818-.298q.452-.102.908-.162.596-.077.967-.115.375-.043.545-.141.175-.098.175-.341v-.034q0-.63-.345-.98-.34-.35-1.035-.349-.72 0-1.13.315-.409.316-.575.673l-.955-.341q.256-.596.682-.929.43-.336.938-.468a4 4 0 0 1 1.005-.137 4 4 0 0 1 .725.077q.413.072.797.303.387.23.643.694.256.465.256 1.245V113h-1.006v-.886h-.05a1.8 1.8 0 0 1-.342.456 2 2 0 0 1-.635.413q-.396.17-.967.17m.153-.903q.597 0 1.006-.234a1.6 1.6 0 0 0 .835-1.385v-.921q-.063.077-.281.141a5 5 0 0 1-.494.106 21 21 0 0 1-.963.128 4 4 0 0 0-.733.166 1.26 1.26 0 0 0-.546.337q-.204.221-.204.605 0 .525.387.793.393.264.993.264m5.688-7.977V113h-1.006v-8.727zM50.643 113v-6.545h1.006V113zm.511-7.636a.71.71 0 0 1-.507-.201.64.64 0 0 1-.208-.481q0-.282.208-.482a.72.72 0 0 1 .508-.2q.293 0 .502.2a.64.64 0 0 1 .213.482.64.64 0 0 1-.213.481.7.7 0 0 1-.502.201m5.183 1.091v.852h-3.392v-.852zm-2.403-1.569h1.006v6.239q0 .426.123.639a.64.64 0 0 0 .324.281q.2.069.422.069.166 0 .273-.017l.17-.035.205.904a2.2 2.2 0 0 1-.75.119q-.426 0-.836-.183a1.66 1.66 0 0 1-.673-.558q-.264-.376-.264-.946zm4.564 10.569a2.2 2.2 0 0 1-.456-.043 1.2 1.2 0 0 1-.277-.077l.256-.886q.366.093.647.068a.78.78 0 0 0 .499-.251q.222-.222.405-.721l.187-.511-2.42-6.579h1.09l1.807 5.215h.069l1.806-5.215h1.091l-2.778 7.5q-.188.507-.465.839-.276.337-.643.499a2 2 0 0 1-.818.162m8.793-11.182h1.21l2.42 4.074h.103l2.42-4.074h1.21l-3.153 5.13V113h-1.056v-3.597zm10.328 8.863q-.887 0-1.556-.422a2.86 2.86 0 0 1-1.04-1.18q-.37-.759-.37-1.773 0-1.022.37-1.785.375-.763 1.04-1.185.67-.422 1.556-.422t1.55.422q.67.422 1.04 1.185.376.763.376 1.785 0 1.014-.375 1.773a2.8 2.8 0 0 1-1.04 1.18q-.664.423-1.551.422m0-.903q.672 0 1.108-.345.435-.345.643-.908.21-.562.209-1.219 0-.656-.209-1.223a2.07 2.07 0 0 0-.643-.916q-.436-.35-1.108-.349-.675 0-1.108.349-.435.35-.644.916t-.209 1.223.21 1.219q.208.563.643.908t1.108.345m8.626-1.909v-3.869h1.005V113h-1.005v-1.108h-.069a2.15 2.15 0 0 1-.715.848q-.486.345-1.228.345-.613 0-1.09-.268a1.9 1.9 0 0 1-.75-.818q-.273-.55-.273-1.385v-4.159h1.005v4.09q0 .716.4 1.143.406.426 1.032.426.375 0 .763-.192.392-.192.656-.588.27-.396.269-1.01M99.626 107H98.57a2.2 2.2 0 0 0-.891-1.381 2.4 2.4 0 0 0-.729-.358 3 3 0 0 0-.835-.119q-.792 0-1.436.401-.64.4-1.019 1.18-.374.78-.374 1.913t.374 1.914q.38.78 1.019 1.18.644.4 1.436.401.435 0 .835-.12.4-.119.729-.353a2.25 2.25 0 0 0 .89-1.385h1.057q-.12.669-.434 1.197a3.28 3.28 0 0 1-1.837 1.458q-.58.19-1.24.191-1.116 0-1.986-.545-.87-.546-1.368-1.551-.498-1.006-.498-2.387 0-1.38.498-2.386.5-1.006 1.368-1.551.87-.546 1.986-.546.66 0 1.24.192.584.192 1.053.563.468.366.784.895.315.524.434 1.197m3.498 6.153q-.622 0-1.129-.234a1.94 1.94 0 0 1-.806-.686q-.298-.452-.298-1.091 0-.562.222-.912.221-.354.592-.554a3.1 3.1 0 0 1 .818-.298 10 10 0 0 1 .908-.162q.596-.077.967-.115.375-.043.546-.141.174-.098.174-.341v-.034q0-.63-.345-.98-.34-.35-1.035-.349-.721 0-1.13.315-.408.316-.575.673l-.955-.341q.256-.596.682-.929.43-.336.938-.468a4 4 0 0 1 1.005-.137q.316 0 .725.077.413.072.797.303.387.23.643.694.256.465.256 1.245V113h-1.006v-.886h-.051a1.8 1.8 0 0 1-.341.456 2 2 0 0 1-.635.413q-.396.17-.967.17m.153-.903q.597 0 1.006-.234a1.6 1.6 0 0 0 .835-1.385v-.921q-.063.077-.281.141a5 5 0 0 1-.494.106 21 21 0 0 1-.963.128q-.393.052-.733.166a1.26 1.26 0 0 0-.546.337q-.204.221-.204.605 0 .525.387.793.393.264.993.264m5.688-3.188V113h-1.005v-6.545h.971v1.022h.085a1.9 1.9 0 0 1 .699-.801q.47-.306 1.21-.307.665 0 1.164.273.498.269.775.818.277.546.277 1.381V113h-1.005v-4.091q0-.771-.401-1.202-.4-.434-1.099-.434-.482 0-.861.209-.375.208-.592.609-.218.4-.218.971M118.49 113v-8.727h5.233v.937h-4.176v2.949h3.784v.938h-3.784V113zm9.171.136q-.946 0-1.632-.417a2.8 2.8 0 0 1-1.053-1.176q-.366-.759-.366-1.765t.366-1.772a2.9 2.9 0 0 1 1.031-1.202q.666-.435 1.552-.435.511 0 1.01.171.498.17.907.554.41.38.652 1.005.243.627.243 1.543v.426h-5.045v-.869h4.022q0-.554-.221-.989a1.67 1.67 0 0 0-.622-.686 1.75 1.75 0 0 0-.946-.251q-.602 0-1.04.298a1.96 1.96 0 0 0-.669.767 2.26 2.26 0 0 0-.235 1.014v.58q0 .741.256 1.257.26.512.72.78.46.264 1.07.264.396 0 .716-.111.324-.115.558-.341.234-.23.362-.571l.972.273a2.15 2.15 0 0 1-.516.869q-.362.371-.895.58a3.3 3.3 0 0 1-1.197.204m6.984 0q-.945 0-1.632-.417a2.8 2.8 0 0 1-1.052-1.176q-.367-.759-.367-1.765t.367-1.772q.37-.772 1.031-1.202.665-.435 1.551-.435.512 0 1.01.171.498.17.908.554.409.38.652 1.005.243.627.242 1.543v.426h-5.045v-.869h4.023q0-.554-.222-.989a1.67 1.67 0 0 0-.622-.686 1.75 1.75 0 0 0-.946-.251q-.601 0-1.04.298a1.96 1.96 0 0 0-.669.767 2.25 2.25 0 0 0-.234 1.014v.58q0 .741.255 1.257.26.512.721.78.46.264 1.069.264.396 0 .716-.111.324-.115.558-.341a1.55 1.55 0 0 0 .363-.571l.971.273a2.16 2.16 0 0 1-.515.869 2.5 2.5 0 0 1-.895.58 3.3 3.3 0 0 1-1.198.204m5.246-8.863V113h-1.006v-8.727zm10.126 2.182a1.34 1.34 0 0 0-.622-1.006q-.546-.358-1.338-.358-.58 0-1.014.187a1.6 1.6 0 0 0-.674.516 1.24 1.24 0 0 0-.238.746q0 .35.166.601.17.246.435.413.263.162.554.268.29.103.532.167l.887.238q.34.09.758.247.422.158.805.431.388.269.64.69.25.422.251 1.036 0 .707-.371 1.278-.366.571-1.074.908-.702.336-1.708.336-.938 0-1.624-.302a2.6 2.6 0 0 1-1.074-.844 2.4 2.4 0 0 1-.439-1.257h1.091q.043.495.333.818a1.8 1.8 0 0 0 .741.477q.452.154.972.154.605 0 1.086-.196.482-.2.763-.554a1.3 1.3 0 0 0 .281-.835q0-.435-.243-.708a1.8 1.8 0 0 0-.639-.443 7 7 0 0 0-.856-.298l-1.074-.307q-1.023-.294-1.619-.84-.597-.545-.597-1.427 0-.733.396-1.279.4-.549 1.074-.852a3.6 3.6 0 0 1 1.513-.307q.843 0 1.5.303.656.299 1.04.818.388.52.409 1.181zm5.488 6.681q-.947 0-1.632-.417a2.8 2.8 0 0 1-1.053-1.176q-.366-.759-.367-1.765 0-1.005.367-1.772a2.9 2.9 0 0 1 1.031-1.202q.665-.435 1.551-.435.512 0 1.01.171.499.17.908.554.41.38.652 1.005.243.627.243 1.543v.426h-5.046v-.869h4.023q0-.554-.221-.989a1.67 1.67 0 0 0-.623-.686 1.75 1.75 0 0 0-.946-.251q-.6 0-1.039.298a1.96 1.96 0 0 0-.669.767 2.24 2.24 0 0 0-.235 1.014v.58q0 .741.256 1.257.26.512.72.78.46.264 1.07.264.396 0 .716-.111.323-.115.558-.341.234-.23.362-.571l.972.273a2.2 2.2 0 0 1-.516.869 2.5 2.5 0 0 1-.895.58 3.3 3.3 0 0 1-1.197.204m6.899 0q-.92 0-1.585-.434a2.8 2.8 0 0 1-1.023-1.198q-.358-.762-.358-1.743 0-.996.366-1.76.37-.766 1.032-1.197.665-.435 1.551-.435.69 0 1.244.256.554.255.908.716t.439 1.074h-1.006a1.56 1.56 0 0 0-.511-.793q-.393-.35-1.057-.349-.588 0-1.031.307a2 2 0 0 0-.687.856q-.242.55-.242 1.291 0 .759.238 1.321.243.562.682.874.443.31 1.04.311.392 0 .711-.136a1.5 1.5 0 0 0 .542-.392 1.5 1.5 0 0 0 .315-.614h1.006a2.34 2.34 0 0 1-.422 1.044 2.36 2.36 0 0 1-.882.733q-.546.268-1.27.268m6.89-6.681v.852h-3.392v-.852zm-2.403-1.569h1.006v6.239q0 .426.123.639a.64.64 0 0 0 .324.281q.2.069.422.069.167 0 .273-.017l.17-.035.205.904a2.2 2.2 0 0 1-.75.119q-.426 0-.836-.183a1.66 1.66 0 0 1-.673-.558q-.264-.376-.264-.946zm3.916 8.114v-6.545h1.006V113zm.512-7.636a.72.72 0 0 1-.508-.201.64.64 0 0 1-.208-.481q0-.282.208-.482a.72.72 0 0 1 .508-.2.7.7 0 0 1 .502.2.64.64 0 0 1 .213.482.64.64 0 0 1-.213.481.7.7 0 0 1-.502.201m4.995 7.772q-.886 0-1.555-.422a2.86 2.86 0 0 1-1.04-1.18q-.37-.759-.371-1.773 0-1.022.371-1.785.374-.763 1.04-1.185.669-.422 1.555-.422.887 0 1.551.422.67.422 1.04 1.185.375.763.375 1.785 0 1.014-.375 1.773a2.8 2.8 0 0 1-1.04 1.18q-.665.423-1.551.422m0-.903q.673 0 1.108-.345t.643-.908q.21-.562.209-1.219 0-.656-.209-1.223a2.06 2.06 0 0 0-.643-.916q-.435-.35-1.108-.349-.673 0-1.108.349-.434.35-.644.916a3.5 3.5 0 0 0-.208 1.223q0 .657.208 1.219.21.563.644.908t1.108.345m5.507-3.171V113h-1.006v-6.545h.972v1.022h.085q.23-.498.699-.801.468-.306 1.21-.307.665 0 1.163.273.499.269.776.818.276.546.277 1.381V113h-1.006v-4.091q0-.771-.4-1.202-.4-.434-1.1-.434-.482 0-.861.209-.375.208-.592.609-.217.4-.217.971"/><rect width="227" height="133" x="237" fill="#f8f8f7" rx="8"/><rect width="47" height="47" x="261.5" y="24.5" stroke="#84c12f" rx="23.5"/><g clip-path="url(#c)"><path fill="#84c12f" fill-rule="evenodd" d="M278.256 44.134a.54.54 0 0 1 .73-.19.515.515 0 0 1 .196.714l-1.46 2.465-.042.073-6.547 11.077a.4.4 0 0 0 0 .424c.037.064.148.21.375.21h26.281a.43.43 0 0 0 .375-.21.41.41 0 0 0 0-.424.516.516 0 0 1 .195-.714.544.544 0 0 1 .732.192c.271.46.273 1.009 0 1.47-.272.46-.76.733-1.304.733h-26.28a1.5 1.5 0 0 1-1.303-.733 1.43 1.43 0 0 1 0-1.47l6.554-11.086.009-.016q.009-.019.019-.034zm16.818 2.735a.53.53 0 0 1 .536.523v1.71c.532-.18 1.195-.28 1.899-.087 1.19.328 2.113 1.373 2.405 2.728.213.986.033 2.049-.503 2.993-.508.894-1.244 1.57-2.132 1.956a4.6 4.6 0 0 1-1.829.372l-.002-.002q-.233 0-.429-.018a4.66 4.66 0 0 1-2.258-.353c-.888-.386-1.625-1.062-2.132-1.956-.536-.944-.716-2.006-.503-2.992.293-1.354 1.215-2.4 2.405-2.728.752-.206 1.458-.08 2.008.124v-1.747a.53.53 0 0 1 .535-.523m2.141 3.153c-.735-.203-1.443.103-1.839.334l-.014.009-.057.033a.55.55 0 0 1-.571 0c-.379-.233-1.133-.59-1.912-.376-.794.218-1.441.98-1.648 1.937-.16.738-.021 1.545.39 2.268.399.704.949 1.211 1.63 1.508.68.294 1.338.306 1.771.263l.053-.002h.001q.028-.001.054.002a3.6 3.6 0 0 0 1.77-.263c.682-.297 1.23-.803 1.629-1.506.412-.724.55-1.53.391-2.27-.206-.958-.854-1.717-1.648-1.937m-9.602 2.145c.296 0 .535.233.535.522a.53.53 0 0 1-.535.523h-9.633a.53.53 0 0 1-.535-.523.53.53 0 0 1 .535-.523zm-.963-14.4a.544.544 0 0 1 .733.19l5.126 8.656c.148.25.059.57-.197.715a.547.547 0 0 1-.732-.19l-5.125-8.657a.516.516 0 0 1 .195-.715m.961 5.718a.53.53 0 0 1 .536.522.53.53 0 0 1-.536.524h-5.928a.53.53 0 0 1-.535-.524c0-.288.24-.522.535-.522zm-9.688-10.57c1.887-.898 4.256-1.206 6.67-.871a.53.53 0 0 1 .455.444c.343 2.356.026 4.67-.891 6.513-.876 1.76-2.243 2.969-3.751 3.317a4.3 4.3 0 0 1-.97.108h-.002c-1.215 0-2.354-.487-3.228-1.011l-2.12 2.07a.54.54 0 0 1-.758 0 .515.515 0 0 1 0-.74l2.121-2.072c-.678-1.077-1.293-2.564-.924-4.095.356-1.473 1.594-2.808 3.398-3.663m6.114.115c-4.56-.492-7.927 1.542-8.47 3.787-.265 1.1.154 2.22.664 3.093l3.57-3.485a.546.546 0 0 1 .758 0 .515.515 0 0 1 0 .74l-3.57 3.485c.895.5 2.042.91 3.169.65 2.301-.53 4.382-3.82 3.879-8.27" clip-rule="evenodd"/></g><path fill="#000" d="M266.137 90.2a1.07 1.07 0 0 0-.461-.798q-.402-.285-1.047-.285-.453 0-.777.137a1.15 1.15 0 0 0-.497.371.9.9 0 0 0-.175.535q0 .25.113.434.118.183.316.312.2.126.442.211.242.086.488.145l.75.187q.454.106.871.285.422.18.754.454.336.273.531.66.196.387.196.906 0 .703-.36 1.238-.359.532-1.039.832-.675.297-1.637.297-.933 0-1.621-.289a2.4 2.4 0 0 1-1.07-.844q-.382-.555-.414-1.351h1.426q.031.417.258.695.226.278.589.414.368.137.821.137.473 0 .828-.14.359-.145.562-.4a.96.96 0 0 0 .207-.6.76.76 0 0 0-.183-.516 1.35 1.35 0 0 0-.504-.344 5 5 0 0 0-.75-.25l-.91-.235q-.988-.253-1.563-.77-.57-.518-.57-1.378 0-.707.383-1.238a2.53 2.53 0 0 1 1.051-.825 3.64 3.64 0 0 1 1.503-.296q.852 0 1.493.296a2.43 2.43 0 0 1 1.011.817q.367.52.379 1.195zm5.35 5.917q-.879 0-1.523-.386a2.62 2.62 0 0 1-1-1.083q-.352-.695-.352-1.625t.352-1.629q.355-.7 1-1.085.644-.387 1.523-.387t1.524.387.996 1.085q.355.7.355 1.63t-.355 1.624a2.6 2.6 0 0 1-.996 1.083q-.645.386-1.524.386m.008-1.133q.476 0 .797-.261.32-.266.477-.711.16-.445.16-.993 0-.55-.16-.996a1.6 1.6 0 0 0-.477-.714q-.32-.266-.797-.266-.488 0-.812.266a1.6 1.6 0 0 0-.481.714 3 3 0 0 0-.156.996q0 .547.156.993.16.446.481.71.324.262.812.262m7.892-1.507V90h1.414v6h-1.371v-1.066h-.063q-.203.503-.668.824-.46.32-1.136.32-.59 0-1.043-.262a1.8 1.8 0 0 1-.704-.77q-.253-.507-.253-1.226V90h1.414v3.602q0 .57.312.906.313.336.82.336.314 0 .606-.153.293-.151.48-.453.192-.305.192-.761M282.255 96v-6h1.371v1h.062a1.5 1.5 0 0 1 1.481-1.086q.117 0 .262.012.148.008.246.027v1.3a1.5 1.5 0 0 0-.285-.054 3 3 0 0 0-.371-.027q-.387 0-.696.168-.305.165-.48.457a1.3 1.3 0 0 0-.176.676V96zm6.731.117q-.898 0-1.543-.394a2.64 2.64 0 0 1-.988-1.09q-.344-.7-.344-1.61 0-.914.352-1.613.351-.703.992-1.094.645-.394 1.524-.394.73 0 1.292.27.567.266.903.753.336.484.383 1.133h-1.352a1.3 1.3 0 0 0-.391-.722q-.305-.293-.816-.293-.434 0-.762.234a1.5 1.5 0 0 0-.511.664q-.18.433-.18 1.039 0 .613.18 1.055.178.437.504.675.328.235.769.235.313 0 .559-.117a1.1 1.1 0 0 0 .418-.348q.168-.227.23-.55h1.352a2.36 2.36 0 0 1-.375 1.128q-.325.488-.883.766-.559.273-1.313.273m6.388 0q-.902 0-1.559-.375a2.54 2.54 0 0 1-1.003-1.07q-.352-.696-.352-1.637 0-.926.352-1.625.355-.703.992-1.094.636-.394 1.496-.394.555 0 1.047.18.495.175.875.546.382.372.601.946.219.57.219 1.36v.433h-4.918v-.953h3.563a1.53 1.53 0 0 0-.176-.723 1.3 1.3 0 0 0-.481-.504 1.35 1.35 0 0 0-.711-.184q-.434 0-.761.211a1.45 1.45 0 0 0-.512.547q-.18.336-.184.738v.833q0 .523.192.898.191.371.535.57a1.6 1.6 0 0 0 .805.196q.308 0 .558-.086.25-.09.434-.262t.277-.426l1.32.149a2.06 2.06 0 0 1-.476.914 2.3 2.3 0 0 1-.891.601 3.4 3.4 0 0 1-1.242.211m6.091-.011q-.707 0-1.266-.364-.558-.363-.883-1.055-.324-.69-.324-1.68 0-.999.328-1.687.333-.69.895-1.043a2.3 2.3 0 0 1 1.254-.355q.526 0 .867.18.34.176.539.425.2.247.309.465h.058V88h1.418v8h-1.39v-.945h-.086q-.11.218-.317.464-.207.243-.547.415-.339.172-.855.172m.394-1.16q.45 0 .766-.243a1.5 1.5 0 0 0 .48-.684q.165-.437.165-1.019t-.165-1.012a1.43 1.43 0 0 0-.476-.668 1.23 1.23 0 0 0-.77-.238q-.472 0-.789.246a1.5 1.5 0 0 0-.476.68q-.16.434-.16.992 0 .563.16 1.004.163.438.48.691.32.25.785.25M310.134 96l-1.696-6h1.442l1.055 4.219h.054L312.067 90h1.426l1.078 4.195h.059L315.669 90h1.445l-1.699 6h-1.473l-1.125-4.055h-.082L311.61 96zm7.968 0v-6h1.414v6zm.711-6.852a.83.83 0 0 1-.579-.222.72.72 0 0 1-.242-.543q0-.321.242-.543a.82.82 0 0 1 .579-.227.8.8 0 0 1 .578.227q.242.223.242.543a.72.72 0 0 1-.242.543.82.82 0 0 1-.578.222m5.153.852v1.094h-3.449V90zm-2.598-1.437h1.414v5.632q0 .285.086.438.09.148.235.203a.9.9 0 0 0 .32.055q.132 0 .242-.02.114-.02.172-.035l.238 1.105a3 3 0 0 1-.324.086q-.207.048-.508.055a2.3 2.3 0 0 1-.957-.16 1.5 1.5 0 0 1-.676-.555q-.245-.375-.242-.937zm5.323 3.921V96h-1.414v-8h1.383v3.02h.07q.212-.508.653-.801.445-.297 1.133-.297.625 0 1.089.262.465.262.719.765.258.504.258 1.23V96h-1.414v-3.602q0-.605-.313-.941-.308-.34-.867-.34-.375 0-.672.164a1.15 1.15 0 0 0-.461.465q-.164.305-.164.738m14.971-1.785h-1.461a1.8 1.8 0 0 0-.23-.636 1.7 1.7 0 0 0-.418-.477 1.7 1.7 0 0 0-.571-.293 2.2 2.2 0 0 0-.683-.102q-.652 0-1.156.328-.504.325-.789.954-.286.624-.286 1.527 0 .918.286 1.547.288.625.789.945.504.317 1.152.317.36 0 .672-.094.317-.097.566-.285.253-.188.426-.461.176-.273.242-.625l1.461.008q-.082.57-.355 1.07-.27.5-.707.883-.438.378-1.024.593-.585.211-1.301.211-1.054 0-1.882-.488-.829-.488-1.305-1.41-.477-.922-.477-2.211 0-1.293.481-2.21.48-.924 1.308-1.411.828-.488 1.875-.488.669 0 1.243.187.574.188 1.023.55.45.36.738.884.294.52.383 1.187m2.991 5.422q-.57 0-1.027-.203a1.7 1.7 0 0 1-.719-.61q-.261-.401-.261-.992 0-.507.187-.84.188-.331.512-.53.324-.2.73-.302.41-.105.848-.152.527-.054.855-.098.328-.046.477-.14.152-.098.152-.3v-.024q0-.442-.261-.684-.262-.242-.754-.242-.52 0-.825.227-.3.226-.406.535l-1.32-.188q.156-.548.515-.914.36-.37.879-.555a3.4 3.4 0 0 1 1.149-.187q.434 0 .863.101.43.102.785.336.355.231.571.63.218.398.218.995V96h-1.359v-.824h-.047a1.7 1.7 0 0 1-.363.468q-.231.216-.582.348a2.4 2.4 0 0 1-.817.13m.368-1.039q.425 0 .738-.168.312-.172.48-.453a1.15 1.15 0 0 0 .172-.613v-.707a.7.7 0 0 1-.226.101 3 3 0 0 1-.352.082q-.195.035-.387.063l-.332.047a2.5 2.5 0 0 0-.566.14.94.94 0 0 0-.395.274.67.67 0 0 0-.144.445q0 .39.285.59t.727.199m4.222.918v-6h1.371v1h.063a1.5 1.5 0 0 1 1.48-1.086q.118 0 .262.012.149.008.246.027v1.3a1.5 1.5 0 0 0-.285-.054 3 3 0 0 0-.371-.027q-.387 0-.696.168-.305.165-.48.457a1.3 1.3 0 0 0-.176.676V96zm6.771.117q-.902 0-1.559-.375a2.54 2.54 0 0 1-1.004-1.07q-.351-.696-.351-1.637 0-.926.351-1.625.356-.703.992-1.094.638-.394 1.496-.394.555 0 1.047.18.497.175.875.546.384.372.602.946.219.57.219 1.36v.433h-4.918v-.953h3.562a1.5 1.5 0 0 0-.176-.723 1.27 1.27 0 0 0-.48-.504 1.35 1.35 0 0 0-.711-.184q-.434 0-.762.211-.327.207-.511.547-.18.336-.184.738v.833q0 .523.191.898.191.371.536.57a1.6 1.6 0 0 0 .804.196q.309 0 .559-.086a1.2 1.2 0 0 0 .433-.262 1.1 1.1 0 0 0 .278-.426l1.32.149a2.05 2.05 0 0 1-.477.914 2.3 2.3 0 0 1-.89.601 3.4 3.4 0 0 1-1.242.211m8.319.004a2.5 2.5 0 0 1-1.027-.203 1.7 1.7 0 0 1-.719-.61q-.262-.401-.262-.992 0-.507.188-.84a1.45 1.45 0 0 1 .511-.53q.325-.2.731-.302a6 6 0 0 1 .848-.152q.526-.054.855-.098.328-.046.477-.14.152-.098.152-.3v-.024q0-.442-.262-.684-.261-.242-.754-.242-.52 0-.824.227-.3.226-.406.535l-1.32-.188q.156-.548.515-.914.36-.37.879-.555a3.4 3.4 0 0 1 1.148-.187q.434 0 .864.101t.785.336q.356.231.57.63.219.398.219.995V96h-1.359v-.824h-.047a1.72 1.72 0 0 1-.946.816 2.3 2.3 0 0 1-.816.13m.367-1.039q.426 0 .738-.168a1.24 1.24 0 0 0 .481-.453 1.15 1.15 0 0 0 .172-.613v-.707a.7.7 0 0 1-.227.101 3 3 0 0 1-.351.082q-.196.035-.387.063l-.332.047q-.317.042-.566.14a.94.94 0 0 0-.395.274.67.67 0 0 0-.145.445q0 .39.286.59.285.2.726.199m5.637-2.598V96h-1.414v-6h1.351v1.02h.071q.207-.504.66-.801.457-.297 1.129-.297.621 0 1.082.266.465.265.719.769.257.504.253 1.223V96h-1.414v-3.602q0-.6-.312-.941-.309-.34-.856-.34-.37 0-.66.164-.285.16-.449.465-.16.305-.16.738m7.516 3.622q-.708 0-1.266-.364-.558-.363-.883-1.055-.324-.69-.324-1.68 0-.999.328-1.687.332-.69.895-1.043a2.3 2.3 0 0 1 1.253-.355q.528 0 .868.18.34.176.539.425.199.247.308.465h.059V88h1.418v8h-1.391v-.945h-.086q-.11.218-.316.464-.207.243-.547.415t-.855.172m.394-1.16q.45 0 .766-.243a1.5 1.5 0 0 0 .48-.684q.165-.437.164-1.019 0-.582-.164-1.012a1.44 1.44 0 0 0-.476-.668 1.23 1.23 0 0 0-.77-.238q-.473 0-.789.246t-.477.68q-.16.434-.16.992 0 .563.16 1.004.165.438.481.691.32.25.785.25m11.446-4.747a1.07 1.07 0 0 0-.461-.797q-.402-.285-1.046-.285-.454 0-.778.137a1.15 1.15 0 0 0-.496.371.9.9 0 0 0-.176.535q0 .25.114.434.117.183.316.312.2.126.441.211.243.086.489.145l.75.187q.453.106.871.285.421.18.754.454.336.273.531.66t.195.906q0 .703-.359 1.238-.36.532-1.039.832-.676.297-1.637.297-.934 0-1.621-.289a2.4 2.4 0 0 1-1.07-.844q-.384-.555-.414-1.351h1.425q.032.417.258.695.227.278.59.414.367.137.82.137.473 0 .829-.14.359-.145.562-.4a.97.97 0 0 0 .207-.6.77.77 0 0 0-.184-.516 1.34 1.34 0 0 0-.503-.344 5 5 0 0 0-.75-.25l-.911-.235q-.987-.253-1.562-.77-.57-.518-.57-1.378 0-.707.382-1.238a2.53 2.53 0 0 1 1.051-.825 3.65 3.65 0 0 1 1.504-.296q.852 0 1.492.296.645.294 1.012.817.367.52.379 1.195zm5.73-.199v1.094h-3.449V90zm-2.598-1.437h1.414v5.632q0 .285.086.438.09.148.235.203a.9.9 0 0 0 .32.055q.132 0 .242-.02.114-.02.172-.035l.238 1.105a3 3 0 0 1-.324.086q-.207.048-.508.055a2.3 2.3 0 0 1-.957-.16 1.5 1.5 0 0 1-.676-.555q-.245-.375-.242-.937zm5.507 7.558a2.5 2.5 0 0 1-1.027-.203 1.7 1.7 0 0 1-.719-.61q-.262-.401-.262-.992 0-.507.188-.84a1.45 1.45 0 0 1 .511-.53q.325-.2.731-.302a6 6 0 0 1 .848-.152q.526-.054.855-.098.328-.046.477-.14.152-.098.152-.3v-.024q0-.442-.262-.684t-.754-.242q-.52 0-.824.227-.3.226-.406.535l-1.32-.188q.156-.548.515-.914.36-.37.879-.555a3.4 3.4 0 0 1 1.149-.187q.433 0 .863.101t.785.336q.356.231.57.63.219.398.219.995V96h-1.359v-.824h-.047a1.72 1.72 0 0 1-.946.816 2.3 2.3 0 0 1-.816.13m.367-1.039q.426 0 .739-.168.312-.172.48-.453a1.15 1.15 0 0 0 .172-.613v-.707a.7.7 0 0 1-.227.101 3 3 0 0 1-.351.082q-.195.035-.387.063l-.332.047q-.317.042-.566.14a.94.94 0 0 0-.395.274.67.67 0 0 0-.144.445q0 .39.285.59t.726.199m5.637-2.598V96h-1.414v-6h1.351v1.02h.071q.207-.504.66-.801.457-.297 1.129-.297.621 0 1.082.266.464.265.719.769.257.504.253 1.223V96h-1.414v-3.602q0-.6-.312-.941-.309-.34-.856-.34-.37 0-.66.164-.285.16-.449.465-.16.305-.16.738m7.516 3.622q-.708 0-1.266-.364-.558-.363-.883-1.055-.324-.69-.324-1.68 0-.999.328-1.687.332-.69.895-1.043a2.3 2.3 0 0 1 1.253-.355q.528 0 .868.18.34.176.539.425.199.247.308.465h.059V88h1.418v8h-1.391v-.945h-.086q-.11.218-.316.464-.207.243-.547.415t-.855.172m.394-1.16q.45 0 .766-.243a1.5 1.5 0 0 0 .48-.684q.165-.437.164-1.019 0-.582-.164-1.012a1.44 1.44 0 0 0-.476-.668 1.23 1.23 0 0 0-.77-.238q-.473 0-.789.246t-.477.68-.16.992q0 .563.16 1.004.165.438.481.691.32.25.785.25m6.034 1.175q-.57 0-1.027-.203a1.7 1.7 0 0 1-.719-.61q-.261-.401-.262-.992 0-.507.188-.84.188-.331.512-.53.324-.2.73-.302.41-.105.848-.152.527-.054.855-.098.328-.046.477-.14.152-.098.152-.3v-.024q0-.442-.262-.684-.261-.242-.753-.242-.52 0-.825.227-.3.226-.406.535l-1.32-.188q.156-.548.515-.914.36-.37.879-.555a3.4 3.4 0 0 1 1.149-.187q.434 0 .863.101.43.102.785.336.356.231.57.63.219.398.219.995V96h-1.359v-.824h-.047a1.7 1.7 0 0 1-.363.468q-.231.216-.582.348a2.4 2.4 0 0 1-.817.13m.367-1.039q.426 0 .739-.168.312-.172.48-.453a1.15 1.15 0 0 0 .172-.613v-.707a.7.7 0 0 1-.226.101 3 3 0 0 1-.352.082q-.195.035-.387.063l-.332.047q-.317.042-.566.14a.94.94 0 0 0-.395.274.67.67 0 0 0-.144.445q0 .39.285.59t.726.199m4.223.918v-6h1.371v1h.063a1.5 1.5 0 0 1 1.48-1.086q.117 0 .262.012.149.008.246.027v1.3a1.5 1.5 0 0 0-.285-.054 3 3 0 0 0-.371-.027q-.387 0-.696.168-.305.165-.48.457a1.3 1.3 0 0 0-.176.676V96zm6.341.106q-.706 0-1.266-.364-.558-.363-.882-1.055-.325-.69-.325-1.68 0-.999.328-1.687.333-.69.895-1.043a2.3 2.3 0 0 1 1.254-.355q.526 0 .867.18.34.176.539.425.2.247.309.465h.058V88h1.418v8h-1.39v-.945h-.086q-.11.218-.317.464-.207.243-.547.415-.339.172-.855.172m.394-1.16q.45 0 .766-.243.316-.246.481-.684.164-.437.164-1.019a2.8 2.8 0 0 0-.164-1.012 1.44 1.44 0 0 0-.477-.668 1.23 1.23 0 0 0-.77-.238q-.472 0-.789.246a1.5 1.5 0 0 0-.476.68q-.16.434-.16.992 0 .563.16 1.004.163.438.48.691.321.25.785.25m9.05-3.36-1.289.14a1 1 0 0 0-.191-.367.96.96 0 0 0-.36-.277 1.3 1.3 0 0 0-.554-.105q-.442 0-.742.191-.297.192-.293.496a.52.52 0 0 0 .191.426q.2.165.656.27l1.024.218q.85.184 1.265.582.419.399.422 1.043a1.63 1.63 0 0 1-.332 1q-.324.43-.902.672a3.4 3.4 0 0 1-1.328.242q-1.102 0-1.774-.46a1.85 1.85 0 0 1-.801-1.294l1.379-.132q.095.405.399.613t.793.207q.504 0 .808-.207.309-.207.309-.512a.53.53 0 0 0-.199-.426q-.196-.168-.61-.258l-1.023-.214q-.863-.18-1.277-.606-.414-.429-.411-1.086-.003-.555.301-.96.309-.41.856-.634.55-.225 1.269-.226 1.055 0 1.66.45.61.449.754 1.214"/><path fill="#000" fill-opacity=".7" d="M265.227 110.273h1.159l.972 1.278.256.341 1.448 1.926h-1.159l-.954-1.278-.239-.324zm4.193-1.637q0 1.381-.498 2.387-.499 1.005-1.368 1.551-.87.545-1.986.545t-1.986-.545q-.869-.546-1.368-1.551-.498-1.006-.498-2.387 0-1.38.498-2.386.5-1.006 1.368-1.551.87-.546 1.986-.546t1.986.546 1.368 1.551.498 2.386m-1.022 0q0-1.133-.38-1.913-.375-.78-1.018-1.18a2.64 2.64 0 0 0-1.432-.401q-.792 0-1.436.401-.64.4-1.018 1.18-.375.78-.375 1.913t.375 1.914q.378.78 1.018 1.18.644.4 1.436.401a2.64 2.64 0 0 0 1.432-.401q.643-.4 1.018-1.18.38-.78.38-1.914m6.788 1.688v-3.869h1.006V113h-1.006v-1.108h-.068a2.15 2.15 0 0 1-.716.848q-.486.345-1.227.345-.614 0-1.091-.268a1.9 1.9 0 0 1-.75-.818q-.273-.55-.273-1.385v-4.159h1.006v4.09q0 .716.4 1.143.405.426 1.032.426.375 0 .762-.192.392-.192.657-.588.268-.396.268-1.01m4.774 2.829q-.622 0-1.129-.234a1.94 1.94 0 0 1-.806-.686q-.298-.452-.298-1.091 0-.562.222-.912.221-.354.592-.554a3.1 3.1 0 0 1 .818-.298 10 10 0 0 1 .908-.162q.596-.077.967-.115.375-.043.545-.141.175-.098.175-.341v-.034q0-.63-.345-.98-.34-.35-1.035-.349-.721 0-1.13.315-.408.316-.575.673l-.955-.341q.256-.596.682-.929.43-.336.938-.468a4 4 0 0 1 1.005-.137q.316 0 .725.077.413.072.797.303.387.23.643.694.256.465.256 1.245V113h-1.006v-.886h-.051a1.8 1.8 0 0 1-.341.456 2 2 0 0 1-.635.413q-.396.17-.967.17m.153-.903q.597 0 1.006-.234a1.6 1.6 0 0 0 .835-1.385v-.921q-.063.077-.281.141a5 5 0 0 1-.494.106 21 21 0 0 1-.963.128q-.393.052-.733.166a1.26 1.26 0 0 0-.546.337q-.204.221-.204.605 0 .525.387.793.393.264.993.264m5.688-7.977V113h-1.006v-8.727zm1.842 8.727v-6.545h1.006V113zm.511-7.636a.71.71 0 0 1-.507-.201.64.64 0 0 1-.208-.481q0-.282.208-.482a.72.72 0 0 1 .507-.2q.294 0 .503.2a.64.64 0 0 1 .213.482.64.64 0 0 1-.213.481.7.7 0 0 1-.503.201m5.183 1.091v.852h-3.392v-.852zm-2.403-1.569h1.006v6.239q0 .426.123.639a.64.64 0 0 0 .324.281q.2.069.422.069.166 0 .273-.017l.17-.035.205.904a2.3 2.3 0 0 1-.75.119q-.426 0-.836-.183a1.66 1.66 0 0 1-.673-.558q-.264-.376-.264-.946zm4.564 10.569q-.256 0-.456-.043a1.2 1.2 0 0 1-.277-.077l.256-.886q.366.093.647.068a.78.78 0 0 0 .499-.251q.222-.222.405-.721l.187-.511-2.42-6.579h1.091l1.807 5.215h.068l1.807-5.215h1.09l-2.778 7.5q-.188.507-.464.839-.278.337-.644.499a2 2 0 0 1-.818.162m8.793-11.182h1.21l2.421 4.074h.102l2.421-4.074h1.21l-3.154 5.13V113h-1.056v-3.597zm10.328 8.863q-.887 0-1.556-.422a2.86 2.86 0 0 1-1.04-1.18q-.37-.759-.37-1.773 0-1.022.37-1.785.375-.763 1.04-1.185.67-.422 1.556-.422t1.551.422q.668.422 1.04 1.185.375.763.375 1.785 0 1.014-.375 1.773a2.83 2.83 0 0 1-1.04 1.18q-.665.423-1.551.422m0-.903q.673 0 1.108-.345.434-.345.643-.908a3.5 3.5 0 0 0 .209-1.219q0-.656-.209-1.223a2.07 2.07 0 0 0-.643-.916q-.436-.35-1.108-.349-.674 0-1.108.349-.435.35-.644.916a3.5 3.5 0 0 0-.209 1.223q0 .657.209 1.219t.644.908 1.108.345m8.626-1.909v-3.869h1.005V113h-1.005v-1.108h-.069a2.15 2.15 0 0 1-.715.848q-.486.345-1.228.345-.613 0-1.091-.268a1.9 1.9 0 0 1-.75-.818q-.272-.55-.272-1.385v-4.159h1.005v4.09q0 .716.401 1.143.405.426 1.031.426.375 0 .763-.192.392-.192.656-.588.269-.396.269-1.01M336.626 107h-1.056a2.2 2.2 0 0 0-.329-.801 2.2 2.2 0 0 0-.562-.58 2.4 2.4 0 0 0-.729-.358 3 3 0 0 0-.835-.119q-.792 0-1.436.401-.64.4-1.018 1.18-.375.78-.375 1.913t.375 1.914q.378.78 1.018 1.18.644.4 1.436.401.435 0 .835-.12a2.4 2.4 0 0 0 .729-.353 2.23 2.23 0 0 0 .891-1.385h1.056a3.5 3.5 0 0 1-.434 1.197 3.28 3.28 0 0 1-1.837 1.458q-.58.19-1.24.191-1.116 0-1.986-.545-.869-.546-1.368-1.551-.498-1.006-.498-2.387 0-1.38.498-2.386.5-1.006 1.368-1.551.87-.546 1.986-.546.66 0 1.24.192.584.192 1.053.563.469.366.784.895.315.524.434 1.197m3.498 6.153q-.622 0-1.129-.234a1.94 1.94 0 0 1-.806-.686q-.298-.452-.298-1.091 0-.562.222-.912.221-.354.592-.554a3.1 3.1 0 0 1 .818-.298 10 10 0 0 1 .908-.162q.596-.077.967-.115.375-.043.546-.141.174-.098.174-.341v-.034q0-.63-.345-.98-.34-.35-1.035-.349-.721 0-1.13.315-.408.316-.575.673l-.955-.341q.256-.596.682-.929.43-.336.938-.468a4 4 0 0 1 1.005-.137q.316 0 .725.077.413.072.797.303.388.23.643.694.256.465.256 1.245V113h-1.006v-.886h-.051a1.8 1.8 0 0 1-.341.456 2 2 0 0 1-.635.413q-.396.17-.967.17m.153-.903q.597 0 1.006-.234a1.6 1.6 0 0 0 .835-1.385v-.921q-.063.077-.281.141a5 5 0 0 1-.494.106 21 21 0 0 1-.963.128q-.393.052-.733.166a1.26 1.26 0 0 0-.546.337q-.204.221-.204.605 0 .525.387.793.393.264.993.264m5.688-3.188V113h-1.005v-6.545h.971v1.022h.085a1.9 1.9 0 0 1 .699-.801q.47-.306 1.21-.307.665 0 1.164.273.498.269.775.818.277.546.277 1.381V113h-1.005v-4.091q0-.771-.401-1.202-.4-.434-1.099-.434-.482 0-.861.209-.375.208-.592.609-.218.4-.218.971M355.49 113v-8.727h5.233v.937h-4.176v2.949h3.784v.938h-3.784V113zm9.171.136q-.946 0-1.632-.417a2.8 2.8 0 0 1-1.053-1.176q-.366-.759-.366-1.765t.366-1.772a2.9 2.9 0 0 1 1.031-1.202q.666-.435 1.552-.435.511 0 1.01.171.498.17.907.554.41.38.652 1.005.243.627.243 1.543v.426h-5.045v-.869h4.022q0-.554-.221-.989a1.67 1.67 0 0 0-.622-.686 1.75 1.75 0 0 0-.946-.251q-.602 0-1.04.298a1.96 1.96 0 0 0-.669.767 2.26 2.26 0 0 0-.235 1.014v.58q0 .741.256 1.257.26.512.72.78.46.264 1.07.264.396 0 .716-.111.324-.115.558-.341.234-.23.362-.571l.972.273a2.15 2.15 0 0 1-.516.869q-.362.371-.895.58a3.3 3.3 0 0 1-1.197.204m6.984 0q-.945 0-1.632-.417a2.8 2.8 0 0 1-1.052-1.176q-.367-.759-.367-1.765t.367-1.772q.37-.772 1.031-1.202.665-.435 1.551-.435.512 0 1.01.171.498.17.908.554.409.38.652 1.005.242.627.242 1.543v.426h-5.045v-.869h4.023q0-.554-.222-.989a1.67 1.67 0 0 0-.622-.686 1.75 1.75 0 0 0-.946-.251q-.601 0-1.04.298a1.96 1.96 0 0 0-.669.767 2.25 2.25 0 0 0-.234 1.014v.58q0 .741.255 1.257.26.512.721.78.46.264 1.069.264.396 0 .716-.111.324-.115.558-.341a1.55 1.55 0 0 0 .363-.571l.971.273a2.16 2.16 0 0 1-.515.869 2.5 2.5 0 0 1-.895.58 3.3 3.3 0 0 1-1.198.204m5.246-8.863V113h-1.006v-8.727zm10.126 2.182a1.34 1.34 0 0 0-.622-1.006q-.546-.358-1.338-.358-.58 0-1.014.187a1.6 1.6 0 0 0-.674.516 1.24 1.24 0 0 0-.238.746q0 .35.166.601.17.246.435.413.264.162.554.268.29.103.532.167l.887.238q.34.09.758.247.422.158.805.431.388.269.64.69.25.422.251 1.036 0 .707-.371 1.278-.366.571-1.074.908-.703.336-1.708.336-.938 0-1.624-.302a2.6 2.6 0 0 1-1.074-.844 2.4 2.4 0 0 1-.439-1.257h1.091q.043.495.333.818a1.8 1.8 0 0 0 .741.477q.451.154.972.154.604 0 1.086-.196.482-.2.763-.554a1.3 1.3 0 0 0 .281-.835q0-.435-.243-.708a1.8 1.8 0 0 0-.639-.443 7 7 0 0 0-.856-.298l-1.074-.307q-1.023-.294-1.619-.84-.597-.545-.597-1.427 0-.733.396-1.279.4-.549 1.074-.852a3.6 3.6 0 0 1 1.513-.307q.843 0 1.5.303.656.299 1.04.818.388.52.409 1.181zm5.488 6.681q-.947 0-1.632-.417a2.8 2.8 0 0 1-1.053-1.176q-.367-.759-.367-1.765t.367-1.772a2.9 2.9 0 0 1 1.031-1.202q.664-.435 1.551-.435.512 0 1.01.171.499.17.908.554.41.38.652 1.005.243.627.243 1.543v.426h-5.046v-.869h4.023q0-.554-.221-.989a1.67 1.67 0 0 0-.623-.686 1.75 1.75 0 0 0-.946-.251q-.6 0-1.039.298a1.96 1.96 0 0 0-.669.767 2.24 2.24 0 0 0-.235 1.014v.58q0 .741.256 1.257.26.512.72.78.46.264 1.07.264.395 0 .716-.111.323-.115.558-.341.234-.23.362-.571l.972.273a2.2 2.2 0 0 1-.516.869 2.5 2.5 0 0 1-.895.58 3.3 3.3 0 0 1-1.197.204m6.899 0q-.92 0-1.585-.434a2.8 2.8 0 0 1-1.023-1.198q-.358-.762-.358-1.743 0-.996.366-1.76.37-.766 1.032-1.197.664-.435 1.551-.435.69 0 1.244.256.554.255.908.716t.439 1.074h-1.006a1.56 1.56 0 0 0-.511-.793q-.393-.35-1.057-.349-.588 0-1.031.307a2 2 0 0 0-.687.856q-.242.55-.242 1.291 0 .759.238 1.321.243.562.682.874.443.31 1.04.311.392 0 .711-.136a1.5 1.5 0 0 0 .542-.392 1.5 1.5 0 0 0 .315-.614h1.006a2.34 2.34 0 0 1-.422 1.044 2.36 2.36 0 0 1-.882.733q-.546.268-1.27.268m6.89-6.681v.852h-3.392v-.852zm-2.403-1.569h1.006v6.239q0 .426.123.639a.64.64 0 0 0 .324.281q.2.069.422.069.166 0 .273-.017l.17-.035.205.904a2.2 2.2 0 0 1-.75.119q-.426 0-.836-.183a1.66 1.66 0 0 1-.673-.558q-.264-.376-.264-.946zm3.916 8.114v-6.545h1.006V113zm.512-7.636a.72.72 0 0 1-.508-.201.64.64 0 0 1-.208-.481q0-.282.208-.482a.72.72 0 0 1 .508-.2.7.7 0 0 1 .502.2.64.64 0 0 1 .213.482.64.64 0 0 1-.213.481.7.7 0 0 1-.502.201m4.995 7.772q-.886 0-1.555-.422a2.86 2.86 0 0 1-1.04-1.18q-.37-.759-.371-1.773 0-1.022.371-1.785.374-.763 1.04-1.185.669-.422 1.555-.422.887 0 1.551.422.67.422 1.04 1.185.375.763.375 1.785 0 1.014-.375 1.773a2.8 2.8 0 0 1-1.04 1.18q-.664.423-1.551.422m0-.903q.673 0 1.108-.345t.643-.908q.21-.562.209-1.219 0-.656-.209-1.223a2.06 2.06 0 0 0-.643-.916q-.435-.35-1.108-.349-.673 0-1.108.349-.435.35-.644.916a3.5 3.5 0 0 0-.208 1.223q0 .657.208 1.219.21.563.644.908t1.108.345m5.507-3.171V113h-1.006v-6.545h.972v1.022h.085q.23-.498.699-.801.469-.306 1.21-.307.665 0 1.163.273.499.269.776.818.276.546.277 1.381V113h-1.006v-4.091q0-.771-.4-1.202-.4-.434-1.1-.434-.482 0-.861.209-.375.208-.592.609-.217.4-.217.971"/></g><defs><clipPath id="a"><path fill="#fff" d="M0 0h464v133H0z"/></clipPath><clipPath id="b"><path fill="#fff" d="M33 32.822h30v30.356H33z"/></clipPath><clipPath id="c"><path fill="#fff" d="M270 31.912h30v28.044h-30z"/></clipPath></defs></svg>