<svg xmlns="http://www.w3.org/2000/svg" width="828" height="133" fill="none" viewBox="0 0 828 133"><g clip-path="url(#a)"><rect width="124" height="133" fill="#f8f8f7" rx="8"/><path fill="#002c4e" d="M24 24h48v48H24z"/><g fill="#fff" clip-path="url(#b)"><path d="M32.568 60.02a.57.57 0 0 1-.286-1.065l30.857-17.816a.57.57 0 1 1 .571.99L32.853 59.944a.56.56 0 0 1-.285.077M47.998 48.327a.57.57 0 0 1-.571-.572v-4c0-.27.189-.503.453-.56l9.011-1.907a.57.57 0 1 1 .237 1.117l-8.557 1.812v3.537a.57.57 0 0 1-.572.572M47.998 63.443a.573.573 0 0 1-.571-.571v-9.547a.572.572 0 0 1 1.143 0v8.842l7.868-1.666V48.122a.572.572 0 0 1 1.143 0v12.842c0 .27-.19.503-.454.559l-9.01 1.908a.5.5 0 0 1-.119.012M43.492 38.103a.57.57 0 0 1-.571-.571v-1.099c0-1.246.885-2.338 2.104-2.595l5.87-1.244a1.8 1.8 0 0 1 1.51.364 1.8 1.8 0 0 1 .67 1.402v1.264c0 .27-.19.503-.454.559L43.61 38.09a.5.5 0 0 1-.118.012m7.778-4.405a.7.7 0 0 0-.139.014l-5.87 1.244a1.52 1.52 0 0 0-1.197 1.478v.393l7.868-1.665v-.8a.66.66 0 0 0-.66-.663z"/><path d="M48 63.446a.6.6 0 0 1-.12-.013l-9.01-1.908a.57.57 0 0 1-.454-.559V58.53a.572.572 0 0 1 1.143 0v1.974l8.558 1.812a.57.57 0 0 1-.118 1.13M38.988 53.53a.57.57 0 0 1-.572-.572V41.847c0-.173.078-.335.211-.445a.56.56 0 0 1 .479-.114l9.01 1.908a.57.57 0 1 1-.236 1.117l-8.322-1.762v10.406a.57.57 0 0 1-.571.572"/><path d="M47.998 44.332a.5.5 0 0 1-.118-.013l-9.01-1.908a.572.572 0 0 1-.278-.97l4.506-4.323a.571.571 0 0 1 .859.077l4.505 6.23a.573.573 0 0 1-.463.907m-7.835-2.815 6.505 1.377-3.253-4.498z"/><path d="M48.118 44.332a.57.57 0 0 1-.459-.23l-4.626-6.23a.573.573 0 0 1 .34-.9l9.012-1.909c.22-.049.45.04.58.224l4.506 6.23a.573.573 0 0 1-.342.894l-8.89 1.908a.6.6 0 0 1-.12.012m-3.636-6.428 3.876 5.22 7.674-1.647-3.774-5.22z"/></g><path fill="#000" d="M27.5 96h-2.71v-8h2.765q1.19 0 2.047.48a3.2 3.2 0 0 1 1.32 1.372q.46.894.46 2.14 0 1.25-.464 2.149a3.2 3.2 0 0 1-1.332 1.378Q28.719 96 27.5 96m-1.262-1.254h1.192q.836 0 1.394-.305a1.95 1.95 0 0 0 .84-.918q.281-.613.281-1.53 0-.919-.28-1.524a1.92 1.92 0 0 0-.833-.91q-.547-.305-1.36-.305h-1.234zm8.186 1.375q-.57 0-1.027-.203a1.7 1.7 0 0 1-.72-.61q-.261-.401-.261-.992 0-.507.188-.84.187-.331.511-.53.325-.2.73-.302.411-.105.848-.152.528-.054.856-.098.328-.046.476-.14.153-.098.153-.3v-.024q0-.442-.262-.684-.261-.242-.754-.242-.52 0-.824.227-.3.226-.406.535l-1.32-.188q.155-.548.515-.914.36-.37.879-.555.52-.187 1.148-.187.434 0 .864.101t.785.336q.355.231.57.63.219.398.219.995V96h-1.36v-.824h-.047a1.7 1.7 0 0 1-.363.468q-.23.216-.582.348a2.4 2.4 0 0 1-.816.13m.367-1.039q.426 0 .738-.168.313-.172.48-.453.173-.282.173-.613v-.707a.7.7 0 0 1-.227.101 3 3 0 0 1-.352.082q-.195.035-.386.063l-.332.047q-.317.042-.567.14a.94.94 0 0 0-.394.274.67.67 0 0 0-.145.445q0 .39.285.59t.727.199m4.223.918v-6h1.414v6zm.71-6.852a.83.83 0 0 1-.577-.222.72.72 0 0 1-.243-.543.71.71 0 0 1 .242-.543.82.82 0 0 1 .579-.227q.34 0 .578.227a.71.71 0 0 1 .242.543q0 .316-.242.543a.82.82 0 0 1-.578.222M41.883 96v-6h1.37v1h.063q.165-.52.563-.8.402-.286.918-.286.117 0 .262.012.148.008.246.027v1.3q-.09-.03-.285-.054a3 3 0 0 0-.371-.027q-.387 0-.696.168a1.23 1.23 0 0 0-.48.457q-.176.292-.176.676V96zm5.423 2.25a2.9 2.9 0 0 1-.922-.148L46.71 97q.31.09.55.086a.68.68 0 0 0 .426-.152q.188-.145.317-.485l.121-.324L45.949 90h1.5l1.383 4.531h.063L50.28 90h1.504l-2.402 6.727q-.168.476-.446.816a1.8 1.8 0 0 1-.68.523q-.397.184-.952.184m8.25-2.25v-8h5.125v1.215h-3.676v2.172h3.324v1.215h-3.324V96zm6.297 0v-6h1.37v1h.063q.165-.52.563-.8.402-.286.918-.286.117 0 .261.012.15.008.246.027v1.3q-.09-.03-.285-.054a3 3 0 0 0-.37-.027q-.388 0-.696.168a1.23 1.23 0 0 0-.48.457q-.177.292-.176.676V96zm6.77.117q-.903 0-1.558-.375a2.54 2.54 0 0 1-1.004-1.07q-.352-.696-.352-1.637 0-.926.352-1.625.354-.703.992-1.094.636-.394 1.496-.394.555 0 1.047.18.495.175.875.546.383.372.601.946.219.57.219 1.36v.433h-4.918v-.953h3.563a1.5 1.5 0 0 0-.176-.723 1.3 1.3 0 0 0-.48-.504 1.35 1.35 0 0 0-.712-.184q-.434 0-.761.211-.33.207-.512.547-.18.336-.184.738v.833q0 .523.192.898.191.371.535.57.344.196.805.196.308 0 .558-.086a1.2 1.2 0 0 0 .434-.262 1.1 1.1 0 0 0 .277-.426l1.32.149a2.06 2.06 0 0 1-.476.914 2.3 2.3 0 0 1-.89.601q-.544.21-1.243.211m6.52 0q-.901 0-1.558-.375a2.54 2.54 0 0 1-1.004-1.07q-.351-.696-.352-1.637 0-.926.352-1.625.356-.703.992-1.094.637-.394 1.496-.394.556 0 1.047.18.497.175.875.546.383.372.602.946.219.57.219 1.36v.433h-4.918v-.953h3.562a1.5 1.5 0 0 0-.176-.723 1.3 1.3 0 0 0-.48-.504 1.35 1.35 0 0 0-.711-.184q-.434 0-.762.211-.329.207-.511.547-.18.336-.184.738v.833q0 .523.191.898.192.371.535.57.345.196.805.196.309 0 .559-.086a1.2 1.2 0 0 0 .433-.262 1.1 1.1 0 0 0 .278-.426l1.32.149a2.06 2.06 0 0 1-.477.914 2.3 2.3 0 0 1-.89.601q-.543.21-1.242.211"/><path fill="#000" fill-opacity=".7" d="M27.75 113h-2.693v-8.727h2.812q1.27 0 2.174.524a3.43 3.43 0 0 1 1.385 1.496q.48.971.481 2.326 0 1.364-.486 2.348a3.46 3.46 0 0 1-1.414 1.509q-.93.524-2.259.524m-1.636-.938h1.568q1.082 0 1.794-.417a2.58 2.58 0 0 0 1.06-1.189q.35-.77.35-1.837 0-1.056-.345-1.819a2.54 2.54 0 0 0-1.031-1.176q-.686-.414-1.709-.414h-1.687zm7.431.938v-6.545h1.006V113zm.512-7.636a.71.71 0 0 1-.507-.201.64.64 0 0 1-.21-.481q0-.282.21-.482a.72.72 0 0 1 .507-.2q.293 0 .503.2a.64.64 0 0 1 .213.482.64.64 0 0 1-.213.481.7.7 0 0 1-.503.201m5.08 7.772q-.945 0-1.632-.417a2.8 2.8 0 0 1-1.052-1.176q-.367-.759-.367-1.765t.367-1.772q.37-.772 1.031-1.202.664-.435 1.551-.435.512 0 1.01.171.498.17.908.554.408.38.652 1.005.243.627.243 1.543v.426h-5.046v-.869h4.023q0-.554-.222-.989a1.67 1.67 0 0 0-.622-.686 1.75 1.75 0 0 0-.946-.251q-.6 0-1.04.298-.434.294-.669.767a2.25 2.25 0 0 0-.234 1.014v.58q0 .741.256 1.257.26.512.72.78.46.264 1.07.264.396 0 .715-.111.324-.115.559-.341.234-.23.362-.571l.971.273a2.16 2.16 0 0 1-.515.869q-.363.371-.895.58a3.3 3.3 0 0 1-1.198.204m7.087-6.681v.852h-3.392v-.852zm-2.403-1.569h1.005v6.239q0 .426.124.639a.64.64 0 0 0 .324.281q.2.069.422.069.165 0 .272-.017l.17-.035.205.904a2.2 2.2 0 0 1-.75.119q-.426 0-.835-.183a1.66 1.66 0 0 1-.673-.558q-.264-.376-.264-.946zm5.842 8.267q-.622 0-1.13-.234a1.94 1.94 0 0 1-.805-.686q-.298-.452-.298-1.091 0-.562.222-.912.221-.354.592-.554.37-.2.818-.298.452-.102.908-.162.597-.077.967-.115.375-.043.546-.141.174-.098.174-.341v-.034q0-.63-.345-.98-.34-.35-1.035-.349-.72 0-1.13.315-.408.316-.575.673l-.955-.341q.256-.596.682-.929.43-.336.938-.468a4 4 0 0 1 1.005-.137 4 4 0 0 1 .725.077q.414.072.797.303.387.23.643.694.256.465.256 1.245V113h-1.006v-.886h-.05a1.8 1.8 0 0 1-.342.456q-.238.243-.635.413-.396.17-.967.17m.153-.903q.597 0 1.006-.234a1.6 1.6 0 0 0 .835-1.385v-.921q-.063.077-.28.141-.215.06-.495.106a21 21 0 0 1-.963.128 4 4 0 0 0-.733.166 1.26 1.26 0 0 0-.546.337q-.204.221-.204.605 0 .525.388.793.391.264.992.264m4.683.75v-6.545h.971v.988h.068q.18-.485.648-.788a1.9 1.9 0 0 1 1.057-.303 11 11 0 0 1 .528.017v1.023a3 3 0 0 0-.234-.038q-.18-.03-.38-.03-.476 0-.852.2a1.468 1.468 0 0 0-.801 1.334V113zm5.311 2.455a2.2 2.2 0 0 1-.456-.043 1.2 1.2 0 0 1-.277-.077l.256-.886q.366.093.648.068a.78.78 0 0 0 .498-.251q.222-.222.405-.721l.188-.511-2.42-6.579h1.09l1.807 5.215h.068l1.807-5.215h1.09l-2.777 7.5q-.188.507-.465.839-.278.337-.643.499a2 2 0 0 1-.819.162M76.376 107H75.32a2.2 2.2 0 0 0-.891-1.381 2.4 2.4 0 0 0-.729-.358 3 3 0 0 0-.835-.119q-.792 0-1.436.401-.64.4-1.019 1.18-.374.78-.374 1.913t.374 1.914q.38.78 1.019 1.18.644.4 1.436.401.435 0 .835-.12.4-.119.729-.353a2.25 2.25 0 0 0 .89-1.385h1.057q-.12.669-.434 1.197a3.28 3.28 0 0 1-1.837 1.458q-.58.19-1.24.191-1.116 0-1.986-.545-.87-.546-1.368-1.551-.498-1.006-.498-2.387 0-1.38.498-2.386.5-1.006 1.368-1.551.87-.546 1.986-.546.66 0 1.24.192.584.192 1.053.563.468.366.784.895.315.524.434 1.197m2.578-2.727V113h-1.006v-8.727zm3.768 8.88q-.623 0-1.13-.234a1.94 1.94 0 0 1-.805-.686q-.298-.452-.298-1.091 0-.562.221-.912.221-.354.593-.554.37-.2.818-.298.45-.102.907-.162.596-.077.968-.115.375-.043.545-.141.175-.098.175-.341v-.034q0-.63-.345-.98-.341-.35-1.036-.349-.72 0-1.129.315-.41.316-.575.673l-.955-.341q.255-.596.682-.929.43-.336.938-.468a4 4 0 0 1 1.005-.137 4 4 0 0 1 .725.077q.412.072.796.303.389.23.644.694.256.465.256 1.245V113h-1.006v-.886h-.051a1.8 1.8 0 0 1-.341.456q-.239.243-.635.413-.397.17-.967.17m.153-.903q.597 0 1.006-.234a1.6 1.6 0 0 0 .835-1.385v-.921q-.064.077-.281.141-.213.06-.495.106a21 21 0 0 1-.963.128 4 4 0 0 0-.733.166 1.26 1.26 0 0 0-.545.337q-.204.221-.205.605 0 .525.388.793.391.264.993.264m4.682.75v-6.545h1.006V113zm.511-7.636a.71.71 0 0 1-.507-.201.64.64 0 0 1-.208-.481q0-.282.208-.482a.72.72 0 0 1 .507-.2q.295 0 .503.2a.64.64 0 0 1 .213.482.64.64 0 0 1-.213.481.7.7 0 0 1-.502.201M90.406 113v-6.545h.971v1.022h.086a1.65 1.65 0 0 1 .66-.814q.457-.294 1.095-.294.648 0 1.079.294.434.29.677.814h.068q.252-.507.755-.805.503-.303 1.205-.303.879 0 1.436.55.56.546.559 1.7V113H97.99v-4.381q0-.725-.396-1.035a1.46 1.46 0 0 0-.933-.311q-.69 0-1.07.417-.38.413-.38 1.049V113H94.19v-4.483q0-.558-.362-.899-.363-.345-.933-.345-.392 0-.734.209a1.6 1.6 0 0 0-.545.579 1.7 1.7 0 0 0-.204.848V113z"/><rect width="124" height="133" x="140" fill="#f8f8f7" rx="8"/><path fill="#002c4e" d="M164 24h48v48h-48z"/><path fill="#fff" d="M188.003 53.516c-1.223 0-2.447-.373-3.377-1.12a2 2 0 0 0-.208-.14.445.445 0 1 1 .444-.773q.169.097.321.22c1.528 1.223 4.111 1.223 5.64-.001 1.004-.804 2.636-.804 3.64 0 1.529 1.224 4.112 1.224 5.641 0l1.857-1.488c.743-.596 1.153-1.382 1.153-2.215s-.41-1.619-1.153-2.214l-1.857-1.489a4 4 0 0 0-.892-.534.444.444 0 1 1 .357-.816c.399.174.766.394 1.091.655l1.858 1.49c.958.767 1.486 1.8 1.486 2.908s-.528 2.142-1.486 2.91l-1.858 1.488c-1.861 1.491-4.893 1.491-6.754 0-.685-.548-1.841-.548-2.526 0-.931.746-2.154 1.119-3.377 1.119M176.617 53.09a.4.4 0 0 1-.178-.037 4.8 4.8 0 0 1-1.091-.656l-1.858-1.488c-.959-.768-1.486-1.801-1.486-2.91 0-1.108.528-2.141 1.486-2.908l1.858-1.489c1.862-1.491 4.893-1.491 6.754 0 .684.547 1.841.549 2.526 0 1.862-1.491 4.893-1.491 6.754 0q.1.08.209.142a.446.446 0 0 1-.447.77 2.5 2.5 0 0 1-.319-.218c-1.528-1.224-4.111-1.223-5.64 0-1.004.804-2.636.806-3.639 0-1.529-1.223-4.112-1.223-5.641 0l-1.858 1.49c-.743.594-1.153 1.38-1.153 2.213s.41 1.62 1.153 2.215l1.858 1.488q.398.319.891.535a.444.444 0 0 1-.178.853z"/><path fill="#fff" d="M178.725 51.326a3.3 3.3 0 0 1-2.353-.975 3.3 3.3 0 0 1-.976-2.354c0-.89.347-1.725.976-2.354a3.3 3.3 0 0 1 2.353-.975c.89 0 1.725.347 2.354.975.629.629.975 1.465.975 2.354 0 .89-.346 1.725-.975 2.354a3.3 3.3 0 0 1-2.354.975m0-5.767a2.42 2.42 0 0 0-1.723.714c-.95.95-.95 2.497 0 3.447s2.498.95 3.447 0c.461-.46.714-1.072.714-1.723a2.42 2.42 0 0 0-.714-1.723 2.42 2.42 0 0 0-1.723-.714zM197.285 51.326a3.3 3.3 0 0 1-2.354-.975 3.3 3.3 0 0 1-.975-2.354c0-.89.347-1.725.975-2.354a3.3 3.3 0 0 1 2.354-.975 3.3 3.3 0 0 1 2.354.975 3.3 3.3 0 0 1 .975 2.354 3.3 3.3 0 0 1-.975 2.354 3.3 3.3 0 0 1-2.354.975m0-5.767c-.652 0-1.263.254-1.724.714-.95.95-.95 2.497 0 3.447s2.498.95 3.448 0c.46-.46.714-1.072.714-1.723s-.254-1.263-.714-1.723a2.42 2.42 0 0 0-1.724-.714M185.151 48.16q-.021 0-.044-.002a.445.445 0 0 1-.4-.486 3.28 3.28 0 0 1 .946-2.029 3.335 3.335 0 0 1 3.727-.669.445.445 0 1 1-.369.811 2.45 2.45 0 0 0-2.729.488 2.4 2.4 0 0 0-.689 1.486.445.445 0 0 1-.442.401M188.009 51.315c-.466 0-.936-.097-1.377-.298a.445.445 0 1 1 .369-.81 2.445 2.445 0 0 0 2.729-.488c.395-.395.633-.91.69-1.487a.44.44 0 0 1 .486-.4.444.444 0 0 1 .4.487 3.3 3.3 0 0 1-.946 2.03 3.33 3.33 0 0 1-2.351.966M174.458 56.266a.445.445 0 0 1-.224-.83l27.092-15.642a.445.445 0 1 1 .445.771L174.68 56.207a.44.44 0 0 1-.222.06"/><path fill="#000" d="M169.137 90.2a1.07 1.07 0 0 0-.461-.798q-.402-.285-1.047-.285-.453 0-.777.137a1.15 1.15 0 0 0-.497.371.9.9 0 0 0-.175.535q0 .25.113.434.118.183.316.312.2.126.442.211.242.086.488.145l.75.187q.453.106.871.285.422.18.754.454.336.273.531.66.196.387.196.906 0 .703-.36 1.238-.359.532-1.039.832-.675.297-1.637.297-.933 0-1.621-.289a2.4 2.4 0 0 1-1.07-.844q-.382-.555-.414-1.351h1.426q.031.417.258.695.226.278.589.414.368.137.821.137.473 0 .828-.14.359-.145.562-.4a.96.96 0 0 0 .207-.6.76.76 0 0 0-.183-.516 1.35 1.35 0 0 0-.504-.344 5 5 0 0 0-.75-.25l-.91-.235q-.988-.253-1.563-.77-.57-.518-.57-1.378 0-.707.383-1.238a2.53 2.53 0 0 1 1.051-.825 3.64 3.64 0 0 1 1.503-.296q.852 0 1.493.296a2.43 2.43 0 0 1 1.011.817q.367.52.379 1.195zm5.35 5.917q-.879 0-1.523-.386a2.62 2.62 0 0 1-1-1.083q-.352-.695-.352-1.625t.352-1.629q.355-.7 1-1.085.644-.387 1.523-.387t1.524.387q.643.386.996 1.085.355.7.355 1.63t-.355 1.624a2.6 2.6 0 0 1-.996 1.083q-.645.386-1.524.386m.008-1.133q.477 0 .797-.261.32-.266.477-.711.16-.445.16-.993 0-.55-.16-.996a1.6 1.6 0 0 0-.477-.714q-.32-.266-.797-.266-.488 0-.812.266a1.6 1.6 0 0 0-.481.714 3 3 0 0 0-.156.996q0 .547.156.993.16.446.481.71.324.262.812.262m4.742 3.266a2.9 2.9 0 0 1-.922-.148l.329-1.102q.308.09.55.086a.67.67 0 0 0 .426-.152q.188-.145.317-.485l.121-.324L177.882 90h1.5l1.383 4.531h.062L182.214 90h1.504l-2.403 6.727q-.168.476-.445.816-.277.345-.68.523-.398.184-.953.184m8.25-2.25v-8h5.125v1.215h-3.675v2.172h3.324v1.215h-3.324V96zm6.297 0v-6h1.371v1h.063a1.5 1.5 0 0 1 1.48-1.086q.117 0 .262.012.148.008.246.027v1.3a1.5 1.5 0 0 0-.285-.054 3 3 0 0 0-.371-.027q-.387 0-.696.168-.305.165-.48.457a1.3 1.3 0 0 0-.176.676V96zm6.771.117q-.902 0-1.559-.375a2.54 2.54 0 0 1-1.004-1.07q-.351-.696-.351-1.637 0-.926.351-1.625.356-.703.992-1.094.638-.394 1.496-.394.555 0 1.047.18.497.175.875.546.383.372.602.946.219.57.219 1.36v.433h-4.918v-.953h3.562a1.5 1.5 0 0 0-.176-.723 1.27 1.27 0 0 0-.48-.504 1.35 1.35 0 0 0-.711-.184q-.433 0-.762.211-.327.207-.511.547-.18.336-.184.738v.833q0 .523.191.898.192.371.536.57a1.6 1.6 0 0 0 .804.196q.309 0 .559-.086a1.2 1.2 0 0 0 .433-.262 1.1 1.1 0 0 0 .278-.426l1.32.149a2.06 2.06 0 0 1-.476.914 2.3 2.3 0 0 1-.891.601 3.4 3.4 0 0 1-1.242.211m6.52 0q-.902 0-1.558-.375a2.54 2.54 0 0 1-1.004-1.07q-.352-.696-.352-1.637 0-.926.352-1.625.355-.703.992-1.094.636-.394 1.496-.394.555 0 1.047.18.496.175.875.546.383.372.601.946.219.57.219 1.36v.433h-4.918v-.953h3.563a1.53 1.53 0 0 0-.176-.723 1.3 1.3 0 0 0-.481-.504 1.35 1.35 0 0 0-.71-.184q-.434 0-.762.211a1.45 1.45 0 0 0-.512.547q-.18.336-.184.738v.833q0 .523.192.898.191.371.535.57a1.6 1.6 0 0 0 .805.196q.308 0 .558-.086.25-.09.434-.262.183-.172.277-.426l1.321.149a2.1 2.1 0 0 1-.477.914 2.3 2.3 0 0 1-.891.601 3.4 3.4 0 0 1-1.242.211"/><path fill="#000" fill-opacity=".7" d="M167.75 113h-2.693v-8.727h2.812q1.27 0 2.174.524a3.43 3.43 0 0 1 1.385 1.496q.481.971.481 2.326 0 1.364-.486 2.348a3.46 3.46 0 0 1-1.414 1.509q-.93.524-2.259.524m-1.636-.938h1.568q1.081 0 1.794-.417a2.58 2.58 0 0 0 1.061-1.189q.35-.77.349-1.837 0-1.056-.345-1.819a2.54 2.54 0 0 0-1.031-1.176q-.686-.414-1.709-.414h-1.687zm7.431.938v-6.545h1.006V113zm.512-7.636a.71.71 0 0 1-.507-.201.64.64 0 0 1-.209-.481q0-.282.209-.482a.72.72 0 0 1 .507-.2q.294 0 .503.2a.64.64 0 0 1 .213.482.64.64 0 0 1-.213.481.7.7 0 0 1-.503.201m5.08 7.772q-.945 0-1.632-.417a2.8 2.8 0 0 1-1.052-1.176q-.367-.759-.367-1.765t.367-1.772a2.9 2.9 0 0 1 1.031-1.202q.665-.435 1.551-.435.512 0 1.01.171.498.17.908.554.409.38.652 1.005.243.627.243 1.543v.426h-5.046v-.869h4.023q0-.554-.222-.989a1.67 1.67 0 0 0-.622-.686 1.75 1.75 0 0 0-.946-.251q-.6 0-1.04.298a2 2 0 0 0-.669.767 2.25 2.25 0 0 0-.234 1.014v.58q0 .741.256 1.257.26.512.72.78a2.1 2.1 0 0 0 1.069.264q.397 0 .716-.111a1.5 1.5 0 0 0 .559-.341q.234-.23.362-.571l.971.273a2.16 2.16 0 0 1-.515.869 2.5 2.5 0 0 1-.895.58 3.3 3.3 0 0 1-1.198.204m7.087-6.681v.852h-3.392v-.852zm-2.403-1.569h1.005v6.239q0 .426.124.639a.64.64 0 0 0 .324.281q.2.069.422.069.165 0 .272-.017l.171-.035.204.904a2.2 2.2 0 0 1-.75.119q-.426 0-.835-.183a1.66 1.66 0 0 1-.673-.558q-.264-.376-.264-.946zm5.842 8.267q-.622 0-1.129-.234a1.94 1.94 0 0 1-.806-.686q-.298-.452-.298-1.091 0-.562.222-.912.221-.354.592-.554a3.1 3.1 0 0 1 .818-.298 10 10 0 0 1 .908-.162q.597-.077.967-.115.375-.043.546-.141.174-.098.174-.341v-.034q0-.63-.345-.98-.34-.35-1.035-.349-.72 0-1.13.315-.408.316-.575.673l-.954-.341q.255-.596.681-.929.43-.336.938-.468a4 4 0 0 1 1.006-.137 4 4 0 0 1 .724.077q.413.072.797.303.387.23.643.694.256.465.256 1.245V113h-1.006v-.886h-.051a1.8 1.8 0 0 1-.341.456q-.238.243-.635.413-.396.17-.967.17m.153-.903q.597 0 1.006-.234a1.6 1.6 0 0 0 .835-1.385v-.921q-.063.077-.281.141a5 5 0 0 1-.494.106 21 21 0 0 1-.963.128q-.393.052-.733.166a1.26 1.26 0 0 0-.546.337q-.204.221-.204.605 0 .525.388.793.392.264.992.264m4.683.75v-6.545h.971v.988h.068q.18-.485.648-.788a1.9 1.9 0 0 1 1.057-.303 11 11 0 0 1 .528.017v1.023a3 3 0 0 0-.234-.038 2.3 2.3 0 0 0-.379-.03q-.478 0-.853.2a1.468 1.468 0 0 0-.801 1.334V113zm5.311 2.455q-.255 0-.456-.043a1.2 1.2 0 0 1-.277-.077l.256-.886q.366.093.648.068a.78.78 0 0 0 .498-.251q.222-.222.405-.721l.188-.511-2.421-6.579h1.091l1.807 5.215h.068l1.807-5.215h1.091l-2.778 7.5q-.187.507-.465.839a1.75 1.75 0 0 1-.643.499 2 2 0 0 1-.819.162M216.376 107h-1.056a2.2 2.2 0 0 0-.329-.801 2.2 2.2 0 0 0-.562-.58 2.4 2.4 0 0 0-.729-.358 3 3 0 0 0-.835-.119q-.792 0-1.436.401-.64.4-1.018 1.18-.375.78-.375 1.913t.375 1.914q.379.78 1.018 1.18.644.4 1.436.401.435 0 .835-.12a2.4 2.4 0 0 0 .729-.353 2.23 2.23 0 0 0 .891-1.385h1.056a3.5 3.5 0 0 1-.434 1.197 3.28 3.28 0 0 1-1.837 1.458q-.58.19-1.24.191-1.116 0-1.986-.545-.869-.546-1.368-1.551-.498-1.006-.498-2.387 0-1.38.498-2.386.5-1.006 1.368-1.551.87-.546 1.986-.546.66 0 1.24.192.583.192 1.053.563.469.366.784.895.315.524.434 1.197m2.577-2.727V113h-1.005v-8.727zm3.769 8.88q-.623 0-1.13-.234a1.94 1.94 0 0 1-.805-.686q-.298-.452-.298-1.091 0-.562.221-.912.221-.354.593-.554.37-.2.818-.298.451-.102.907-.162.597-.077.968-.115.375-.043.545-.141.175-.098.175-.341v-.034q0-.63-.345-.98-.342-.35-1.036-.349-.72 0-1.129.315-.41.316-.575.673l-.955-.341q.256-.596.682-.929.43-.336.937-.468a4 4 0 0 1 1.006-.137q.315 0 .725.077.413.072.796.303.388.23.644.694.256.465.256 1.245V113h-1.006v-.886h-.051a1.8 1.8 0 0 1-.341.456 2 2 0 0 1-.635.413q-.396.17-.967.17m.153-.903q.597 0 1.006-.234.413-.235.622-.605.213-.372.213-.78v-.921q-.064.077-.281.141-.213.06-.495.106a21 21 0 0 1-.963.128 4 4 0 0 0-.733.166 1.26 1.26 0 0 0-.545.337q-.204.221-.205.605 0 .525.388.793.392.264.993.264m4.682.75v-6.545h1.006V113zm.512-7.636a.72.72 0 0 1-.508-.201.64.64 0 0 1-.208-.481q0-.282.208-.482a.72.72 0 0 1 .508-.2.7.7 0 0 1 .502.2.64.64 0 0 1 .213.482.64.64 0 0 1-.213.481.7.7 0 0 1-.502.201m2.336 7.636v-6.545h.971v1.022h.086q.204-.523.66-.814.456-.294 1.095-.294.648 0 1.078.294.435.29.678.814h.068a1.9 1.9 0 0 1 .754-.805q.504-.303 1.206-.303.878 0 1.437.55.558.546.558 1.7V113h-1.006v-4.381q0-.725-.396-1.035a1.46 1.46 0 0 0-.933-.311q-.691 0-1.07.417-.38.413-.379 1.049V113h-1.023v-4.483q0-.558-.362-.899-.363-.345-.934-.345-.392 0-.732.209a1.6 1.6 0 0 0-.546.579 1.7 1.7 0 0 0-.204.848V113z"/><rect width="124" height="133" x="280" fill="#f8f8f7" rx="8"/><path fill="#002c4e" d="M304 24h48v48h-48z"/><path fill="#fff" d="M322.682 46.98a.55.55 0 0 1-.316-.098c-1.228-.853-1.962-2.235-1.962-3.698v-3.888a.556.556 0 0 1 .829-.483l5.311 3.019c1.271.878 2.005 2.26 2.005 3.724a.555.555 0 1 1-1.11 0c0-1.1-.555-2.14-1.485-2.785l-4.44-2.522v2.936c0 1.099.555 2.14 1.485 2.785a.554.554 0 0 1-.317 1.01"/><path fill="#fff" d="M321.354 51.586a.56.56 0 0 1-.5-.312 4.45 4.45 0 0 1-.45-1.933v-3.889a.555.555 0 0 1 .829-.482l5.058 2.874a.555.555 0 1 1-.548.965l-4.229-2.403v2.935c0 .492.117.992.339 1.447a.557.557 0 0 1-.499.798M327.995 56.157a.55.55 0 0 1-.274-.073l-3.395-1.928a.555.555 0 1 1 .548-.966l2.566 1.458v-2.935a.555.555 0 1 1 1.11 0v3.889a.554.554 0 0 1-.555.555"/><path fill="#fff" d="M327.994 62.3a.55.55 0 0 1-.274-.072l-5.312-3.019c-1.167-.807-1.896-2.073-1.992-3.411a.553.553 0 0 1 .513-.593.56.56 0 0 1 .593.513c.072 1.008.625 1.962 1.476 2.553l4.44 2.52v-2.935c0-1.1-.555-2.14-1.486-2.785a.554.554 0 1 1 .633-.912c1.229.853 1.963 2.235 1.963 3.698v3.888a.556.556 0 0 1-.555.555zM320.959 41.09a.556.556 0 0 1-.555-.555v-4.269a.556.556 0 0 1 1.11 0v4.27a.556.556 0 0 1-.555.554M327.994 47.736a.556.556 0 0 1-.555-.555v-1.625c0-1.463.734-2.846 1.962-3.697l5.354-3.046a.556.556 0 0 1 .829.483v3.822a.556.556 0 0 1-1.11 0V40.25l-4.483 2.548a3.39 3.39 0 0 0-1.442 2.759v1.625a.555.555 0 0 1-.555.555"/><path fill="#fff" d="M327.994 56.156a.554.554 0 0 1-.555-.555v-3.888a.556.556 0 0 1 1.11 0v2.935l4.483-2.548a3.39 3.39 0 0 0 1.442-2.758v-1.69a.556.556 0 0 1 1.11 0v1.69c0 1.463-.734 2.845-1.962 3.696l-5.354 3.046a.55.55 0 0 1-.274.072"/><path fill="#fff" d="M327.994 62.302a.554.554 0 0 1-.555-.555v-3.888c0-1.463.734-2.845 1.962-3.698l5.354-3.044a.557.557 0 0 1 .829.483v3.888c0 1.462-.734 2.844-1.962 3.697l-5.354 3.044a.55.55 0 0 1-.274.073m6.479-9.748-4.482 2.546a3.39 3.39 0 0 0-1.442 2.76v2.934l4.482-2.547a3.39 3.39 0 0 0 1.442-2.759zM335.03 41.09a.555.555 0 0 1-.555-.555v-4.269a.555.555 0 1 1 1.11 0v4.27a.556.556 0 0 1-.555.554M327.994 44.603a.556.556 0 0 1-.555-.555v-9.795a.556.556 0 0 1 1.11 0v9.796a.555.555 0 0 1-.555.555zM312.553 58.919a.554.554 0 0 1-.278-1.036l30.89-17.835a.554.554 0 1 1 .555.961l-30.89 17.835a.55.55 0 0 1-.277.075"/><path fill="#000" d="M310.148 90.555a2 2 0 0 0-.269-.567 1.7 1.7 0 0 0-.406-.433 1.7 1.7 0 0 0-.539-.27 2.3 2.3 0 0 0-.664-.094q-.645 0-1.149.325-.504.323-.793.953-.285.624-.285 1.523 0 .906.285 1.535.285.63.793.957.508.325 1.18.325.61 0 1.054-.235.45-.234.692-.664.242-.433.242-1.016l.328.051h-2.172v-1.132h3.246v.96q0 1.028-.437 1.778-.438.75-1.203 1.156-.767.402-1.758.402-1.106 0-1.941-.496a3.43 3.43 0 0 1-1.301-1.418q-.465-.921-.465-2.187 0-.97.273-1.73.277-.763.774-1.294a3.3 3.3 0 0 1 1.164-.812q.668-.282 1.453-.281.664 0 1.238.195.575.191 1.02.547.448.355.738.844.29.487.379 1.078zM314.444 88v8h-1.414v-8zm5.279 5.477V90h1.414v6h-1.371v-1.066h-.063q-.203.503-.668.824-.46.32-1.137.32a2.05 2.05 0 0 1-1.043-.262 1.83 1.83 0 0 1-.703-.77q-.254-.507-.254-1.226V90h1.415v3.602q0 .57.312.906.313.336.82.336.313 0 .606-.153.293-.151.48-.453.192-.305.192-.761M325.587 90v1.094h-3.449V90zm-2.598-1.437h1.414v5.632q0 .285.086.438.09.148.235.203a.9.9 0 0 0 .32.055q.132 0 .242-.02.114-.02.172-.035l.238 1.105a3 3 0 0 1-.324.086q-.207.048-.508.055a2.3 2.3 0 0 1-.957-.16 1.5 1.5 0 0 1-.676-.555q-.245-.375-.242-.937zm6.372 7.554q-.902 0-1.558-.375a2.54 2.54 0 0 1-1.004-1.07q-.352-.696-.352-1.637 0-.926.352-1.625.356-.703.992-1.094.636-.394 1.496-.394.555 0 1.047.18.496.175.875.546.383.372.602.946.218.57.218 1.36v.433h-4.918v-.953h3.563a1.5 1.5 0 0 0-.176-.723 1.3 1.3 0 0 0-.48-.504 1.36 1.36 0 0 0-.711-.184q-.433 0-.762.211-.328.207-.512.547-.18.336-.183.738v.833q0 .523.191.898.192.371.535.57.344.196.805.196.309 0 .558-.086.25-.09.434-.262t.277-.426l1.321.149a2.06 2.06 0 0 1-.477.914 2.3 2.3 0 0 1-.89.601q-.544.21-1.243.211m5.279-3.633V96h-1.414v-6h1.351v1.02h.07q.207-.504.661-.801.456-.297 1.129-.297.62 0 1.082.266.464.265.718.769.258.504.254 1.223V96h-1.414v-3.602q0-.6-.312-.941-.309-.34-.856-.34-.37 0-.66.164-.285.16-.449.465-.16.305-.16.738M342.72 96v-8h5.125v1.215h-3.676v2.172h3.324v1.215h-3.324V96zm6.297 0v-6h1.371v1h.062a1.5 1.5 0 0 1 1.481-1.086q.117 0 .261.012.149.008.246.027v1.3a1.5 1.5 0 0 0-.285-.054 3 3 0 0 0-.371-.027 1.43 1.43 0 0 0-.695.168q-.304.165-.481.457-.175.292-.175.676V96zm6.77.117q-.902 0-1.558-.375a2.54 2.54 0 0 1-1.004-1.07q-.352-.696-.352-1.637 0-.926.352-1.625.355-.703.992-1.094.636-.394 1.496-.394.555 0 1.047.18.495.175.875.546.382.372.601.946.219.57.219 1.36v.433h-4.918v-.953h3.563a1.53 1.53 0 0 0-.176-.723 1.3 1.3 0 0 0-.481-.504 1.35 1.35 0 0 0-.711-.184q-.434 0-.761.211a1.45 1.45 0 0 0-.512.547q-.18.336-.184.738v.833q0 .523.192.898.191.371.535.57a1.6 1.6 0 0 0 .805.196q.308 0 .558-.086.25-.09.434-.262.183-.172.277-.426l1.32.149a2.06 2.06 0 0 1-.476.914 2.3 2.3 0 0 1-.891.601 3.4 3.4 0 0 1-1.242.211m6.521 0q-.902 0-1.559-.375a2.54 2.54 0 0 1-1.004-1.07q-.351-.696-.351-1.637 0-.926.351-1.625.356-.703.992-1.094.637-.394 1.496-.394.555 0 1.047.18.497.175.875.546.383.372.602.946.219.57.219 1.36v.433h-4.918v-.953h3.562a1.5 1.5 0 0 0-.176-.723 1.27 1.27 0 0 0-.48-.504 1.35 1.35 0 0 0-.711-.184q-.433 0-.762.211-.328.207-.512.547-.179.336-.183.738v.833q0 .523.191.898.192.371.535.57.345.196.805.196.309 0 .559-.086a1.2 1.2 0 0 0 .433-.262 1.1 1.1 0 0 0 .278-.426l1.32.149a2.05 2.05 0 0 1-.477.914 2.3 2.3 0 0 1-.89.601 3.4 3.4 0 0 1-1.242.211"/><path fill="#000" fill-opacity=".7" d="M307.75 113h-2.693v-8.727h2.812q1.27 0 2.174.524a3.43 3.43 0 0 1 1.385 1.496q.481.971.481 2.326 0 1.364-.486 2.348a3.46 3.46 0 0 1-1.414 1.509q-.93.524-2.259.524m-1.636-.938h1.568q1.082 0 1.794-.417a2.58 2.58 0 0 0 1.061-1.189q.35-.77.349-1.837 0-1.056-.345-1.819a2.54 2.54 0 0 0-1.031-1.176q-.686-.414-1.709-.414h-1.687zm7.431.938v-6.545h1.006V113zm.512-7.636a.71.71 0 0 1-.507-.201.64.64 0 0 1-.209-.481q0-.282.209-.482a.72.72 0 0 1 .507-.2q.293 0 .503.2a.64.64 0 0 1 .213.482.64.64 0 0 1-.213.481.7.7 0 0 1-.503.201m5.08 7.772q-.945 0-1.632-.417a2.8 2.8 0 0 1-1.052-1.176q-.367-.759-.367-1.765t.367-1.772a2.9 2.9 0 0 1 1.031-1.202q.665-.435 1.551-.435.512 0 1.01.171.498.17.908.554.409.38.652 1.005.243.627.243 1.543v.426h-5.046v-.869h4.023q0-.554-.222-.989a1.67 1.67 0 0 0-.622-.686 1.75 1.75 0 0 0-.946-.251q-.6 0-1.04.298a2 2 0 0 0-.669.767 2.25 2.25 0 0 0-.234 1.014v.58q0 .741.256 1.257.26.512.72.78a2.1 2.1 0 0 0 1.069.264q.397 0 .716-.111a1.5 1.5 0 0 0 .559-.341q.234-.23.362-.571l.971.273a2.16 2.16 0 0 1-.515.869 2.5 2.5 0 0 1-.895.58 3.3 3.3 0 0 1-1.198.204m7.087-6.681v.852h-3.392v-.852zm-2.403-1.569h1.005v6.239q0 .426.124.639a.64.64 0 0 0 .324.281q.2.069.422.069.165 0 .272-.017l.171-.035.204.904a2.2 2.2 0 0 1-.75.119q-.426 0-.835-.183a1.66 1.66 0 0 1-.673-.558q-.264-.376-.264-.946zm5.842 8.267q-.622 0-1.129-.234a1.94 1.94 0 0 1-.806-.686q-.298-.452-.298-1.091 0-.562.222-.912.221-.354.592-.554a3.1 3.1 0 0 1 .818-.298 10 10 0 0 1 .908-.162q.597-.077.967-.115.375-.043.546-.141.174-.098.174-.341v-.034q0-.63-.345-.98-.34-.35-1.035-.349-.72 0-1.13.315-.408.316-.575.673l-.954-.341q.255-.596.681-.929.43-.336.938-.468a4 4 0 0 1 1.006-.137 4 4 0 0 1 .724.077q.413.072.797.303.388.23.643.694.256.465.256 1.245V113h-1.006v-.886h-.051a1.8 1.8 0 0 1-.341.456q-.238.243-.635.413-.396.17-.967.17m.153-.903q.597 0 1.006-.234a1.6 1.6 0 0 0 .835-1.385v-.921q-.063.077-.281.141a5 5 0 0 1-.494.106 21 21 0 0 1-.963.128q-.393.052-.733.166a1.26 1.26 0 0 0-.546.337q-.204.221-.204.605 0 .525.388.793.392.264.992.264m4.683.75v-6.545h.971v.988h.068q.18-.485.648-.788a1.9 1.9 0 0 1 1.057-.303 11 11 0 0 1 .528.017v1.023a3 3 0 0 0-.234-.038 2.3 2.3 0 0 0-.379-.03q-.478 0-.853.2a1.468 1.468 0 0 0-.801 1.334V113zm5.311 2.455q-.255 0-.456-.043a1.2 1.2 0 0 1-.277-.077l.256-.886q.366.093.648.068a.78.78 0 0 0 .498-.251q.222-.222.405-.721l.188-.511-2.421-6.579h1.091l1.807 5.215h.068l1.807-5.215h1.091l-2.778 7.5q-.188.507-.465.839a1.75 1.75 0 0 1-.643.499 2 2 0 0 1-.819.162M356.376 107h-1.056a2.2 2.2 0 0 0-.329-.801 2.2 2.2 0 0 0-.562-.58 2.4 2.4 0 0 0-.729-.358 3 3 0 0 0-.835-.119q-.792 0-1.436.401-.64.4-1.018 1.18-.375.78-.375 1.913t.375 1.914q.378.78 1.018 1.18.644.4 1.436.401.435 0 .835-.12a2.4 2.4 0 0 0 .729-.353 2.23 2.23 0 0 0 .891-1.385h1.056a3.5 3.5 0 0 1-.434 1.197 3.28 3.28 0 0 1-1.837 1.458q-.58.19-1.24.191-1.116 0-1.986-.545-.869-.546-1.368-1.551-.498-1.006-.498-2.387 0-1.38.498-2.386.5-1.006 1.368-1.551.87-.546 1.986-.546.66 0 1.24.192.583.192 1.053.563.469.366.784.895.315.524.434 1.197m2.577-2.727V113h-1.005v-8.727zm3.769 8.88q-.623 0-1.13-.234a1.94 1.94 0 0 1-.805-.686q-.298-.452-.298-1.091 0-.562.221-.912.222-.354.593-.554.37-.2.818-.298.451-.102.907-.162.597-.077.968-.115.375-.043.545-.141.175-.098.175-.341v-.034q0-.63-.345-.98-.342-.35-1.036-.349-.72 0-1.129.315-.41.316-.575.673l-.955-.341q.256-.596.682-.929.43-.336.937-.468a4 4 0 0 1 1.006-.137q.315 0 .725.077.413.072.796.303.388.23.644.694.255.465.256 1.245V113h-1.006v-.886h-.051a1.8 1.8 0 0 1-.341.456 2 2 0 0 1-.635.413q-.397.17-.967.17m.153-.903q.597 0 1.006-.234.413-.235.622-.605.213-.372.213-.78v-.921q-.064.077-.281.141-.213.06-.495.106a21 21 0 0 1-.963.128 4 4 0 0 0-.733.166 1.26 1.26 0 0 0-.545.337q-.205.221-.205.605 0 .525.388.793.392.264.993.264m4.682.75v-6.545h1.006V113zm.512-7.636a.72.72 0 0 1-.508-.201.64.64 0 0 1-.208-.481q0-.282.208-.482a.72.72 0 0 1 .508-.2.7.7 0 0 1 .502.2.64.64 0 0 1 .213.482.64.64 0 0 1-.213.481.7.7 0 0 1-.502.201m2.336 7.636v-6.545h.971v1.022h.086q.204-.523.66-.814.456-.294 1.095-.294.649 0 1.078.294.435.29.678.814h.068a1.9 1.9 0 0 1 .754-.805q.504-.303 1.206-.303.878 0 1.437.55.558.546.558 1.7V113h-1.006v-4.381q0-.725-.396-1.035a1.46 1.46 0 0 0-.933-.311q-.691 0-1.07.417-.38.413-.379 1.049V113h-1.023v-4.483q0-.558-.362-.899-.363-.345-.934-.345-.392 0-.732.209a1.6 1.6 0 0 0-.546.579 1.7 1.7 0 0 0-.204.848V113z"/><rect width="128" height="133" x="420" fill="#f8f8f7" rx="8"/><path fill="#002c4e" d="M444 24h48v48h-48z"/><path fill="#fff" stroke="#fff" stroke-width=".206" d="M469.973 59.472c-.212 0-.345-.005-.383-.008a.49.49 0 0 1-.401-.242c-2.326-4.018-2.959-7.855-1.882-11.407 1.198-3.946 4.343-6.683 6.674-7.83 2.918-1.434 4.518-3.14 5.345-4.316.896-1.272 1.108-2.221 1.111-2.231a.488.488 0 0 1 .945-.034c2.966 10.299 3.944 15.729.104 21.013-3.441 4.739-9.867 5.053-11.516 5.053zm10.867-24.41c-.766 1.493-2.525 3.88-6.43 5.802-2.155 1.06-5.065 3.592-6.171 7.237-.975 3.212-.416 6.707 1.657 10.396 1.358 0 7.613-.258 10.801-4.649 3.416-4.705 2.704-9.688.141-18.787z"/><path fill="#fff" stroke="#fff" stroke-width=".206" d="M464.585 62.948a.49.49 0 0 1-.186-.94c.018-.007 1.47-.625 3.298-2.021 2.145-1.64 5.034-4.537 6.635-9.025a.489.489 0 0 1 .919.327c-1.682 4.713-4.715 7.753-6.962 9.471-1.94 1.483-3.454 2.122-3.518 2.147a.5.5 0 0 1-.186.039zM462.782 56.58c-1.264 0-6.199-.242-8.846-3.887-2.946-4.057-2.201-8.203.061-16.063a.487.487 0 0 1 .947.035c0 .005.161.713.833 1.662.622.881 1.822 2.155 4.008 3.23 1.792.88 4.209 2.984 5.128 6.02.828 2.729.342 5.675-1.439 8.756a.5.5 0 0 1-.401.243c-.028 0-.13.005-.294.005zm-8.226-18.352c-1.871 6.696-2.364 10.405.169 13.89 2.341 3.222 6.9 3.472 8.041 3.482 1.532-2.75 1.941-5.353 1.216-7.743-.83-2.734-3.01-4.633-4.626-5.427-2.778-1.366-4.144-3.046-4.797-4.202z"/><path fill="#fff" stroke="#fff" stroke-width=".206" d="M464.816 58.026a.47.47 0 0 1-.279-.09 16.5 16.5 0 0 1-1.965-1.618 15.6 15.6 0 0 1-3.914-6.032.488.488 0 1 1 .919-.327 14.6 14.6 0 0 0 3.671 5.657 15.5 15.5 0 0 0 1.848 1.522c.22.155.274.46.12.679a.48.48 0 0 1-.4.206z"/><path fill="#000" d="m445.859 88 2.082 6.297h.082L450.102 88h1.593l-2.82 8h-1.789l-2.816-8zm8.839 8.117q-.902 0-1.558-.375a2.54 2.54 0 0 1-1.004-1.07q-.352-.696-.352-1.637 0-.926.352-1.625.355-.703.992-1.094.636-.394 1.496-.394.555 0 1.047.18.496.175.875.546.383.372.601.946.219.57.219 1.36v.433h-4.918v-.953h3.563a1.5 1.5 0 0 0-.176-.723 1.3 1.3 0 0 0-.481-.504 1.35 1.35 0 0 0-.71-.184q-.434 0-.762.211-.328.207-.512.547-.18.336-.183.738v.833q0 .523.191.898.192.371.535.57a1.6 1.6 0 0 0 .805.196q.309 0 .558-.086.25-.09.434-.262t.277-.426l1.321.149a2.1 2.1 0 0 1-.477.914 2.3 2.3 0 0 1-.891.601 3.4 3.4 0 0 1-1.242.211m6.474 2.258q-.762 0-1.309-.207a2.3 2.3 0 0 1-.879-.547 1.9 1.9 0 0 1-.461-.762l1.274-.308a1.4 1.4 0 0 0 .25.347q.163.177.441.29.281.117.707.117.602 0 .996-.293.395-.289.395-.953v-1.137h-.07q-.11.218-.321.45a1.6 1.6 0 0 1-.55.386q-.34.156-.856.156-.692 0-1.254-.324-.558-.328-.89-.977-.329-.652-.329-1.632 0-.99.329-1.668.332-.684.894-1.036a2.3 2.3 0 0 1 1.254-.355q.528 0 .867.18.344.176.547.425.202.247.309.465h.078V90h1.394v6.098q0 .77-.367 1.273a2.2 2.2 0 0 1-1.004.754q-.636.25-1.445.25m.012-3.57q.448 0 .765-.22.316-.217.481-.628.164-.41.164-.984a2.8 2.8 0 0 0-.164-.992 1.4 1.4 0 0 0-.477-.66 1.23 1.23 0 0 0-.769-.239q-.474 0-.789.246-.317.247-.477.676-.16.426-.16.969 0 .55.16.965.164.41.48.64.321.227.786.227m5.98 1.316a2.5 2.5 0 0 1-1.027-.203 1.7 1.7 0 0 1-.719-.61q-.262-.401-.262-.992 0-.507.188-.84a1.45 1.45 0 0 1 .511-.53q.325-.2.731-.302a6 6 0 0 1 .848-.152q.526-.054.855-.098.328-.046.477-.14.152-.098.152-.3v-.024q0-.442-.262-.684-.261-.242-.754-.242-.52 0-.824.227-.3.226-.406.535l-1.32-.188q.156-.548.515-.914.36-.37.879-.555a3.4 3.4 0 0 1 1.149-.187q.433 0 .863.101t.785.336q.356.231.57.63.219.398.219.995V96h-1.359v-.824h-.047a1.7 1.7 0 0 1-.363.468 1.8 1.8 0 0 1-.583.348 2.3 2.3 0 0 1-.816.13m.367-1.039q.426 0 .739-.168.312-.172.48-.453a1.15 1.15 0 0 0 .172-.613v-.707a.7.7 0 0 1-.227.101 3 3 0 0 1-.351.082q-.195.035-.387.063l-.332.047q-.317.042-.566.14a.94.94 0 0 0-.395.274.67.67 0 0 0-.144.445q0 .39.285.59t.726.199m5.637-2.598V96h-1.414v-6h1.351v1.02h.071q.207-.504.66-.801.457-.297 1.129-.297.621 0 1.082.266.464.265.719.769.257.504.254 1.223V96h-1.415v-3.602q0-.6-.312-.941-.309-.34-.855-.34-.372 0-.661.164-.285.16-.449.465-.16.305-.16.738m8.08 3.516v-8h5.125v1.215h-3.676v2.172h3.324v1.215h-3.324V96zm6.297 0v-6h1.371v1h.063q.163-.52.562-.8.402-.286.918-.286.117 0 .262.012.149.008.246.027v1.3a1.5 1.5 0 0 0-.285-.054 3 3 0 0 0-.371-.027q-.387 0-.696.168-.304.165-.48.457a1.3 1.3 0 0 0-.176.676V96zm4.361 0v-6h1.414v6zm.711-6.852a.83.83 0 0 1-.578-.222.72.72 0 0 1-.242-.543q0-.321.242-.543a.82.82 0 0 1 .578-.227q.34 0 .578.227.243.223.243.543 0 .316-.243.543a.82.82 0 0 1-.578.222m4.814 6.97q-.902 0-1.559-.376a2.54 2.54 0 0 1-1.004-1.07q-.351-.696-.351-1.637 0-.926.351-1.625.356-.703.992-1.094.638-.394 1.496-.394.555 0 1.047.18.497.175.875.546.384.372.602.946.219.57.219 1.36v.433h-4.918v-.953h3.562a1.5 1.5 0 0 0-.176-.723 1.27 1.27 0 0 0-.48-.504 1.35 1.35 0 0 0-.711-.184q-.434 0-.762.211-.328.207-.511.547-.18.336-.184.738v.833q0 .523.191.898.192.371.536.57a1.6 1.6 0 0 0 .804.196q.309 0 .559-.086a1.2 1.2 0 0 0 .433-.262 1.1 1.1 0 0 0 .278-.426l1.32.149a2.05 2.05 0 0 1-.477.914 2.3 2.3 0 0 1-.89.601 3.4 3.4 0 0 1-1.242.211m5.278-3.634V96h-1.414v-6h1.351v1.02h.071q.207-.504.66-.801.457-.297 1.129-.297.621 0 1.082.266.464.265.719.769.257.504.254 1.223V96h-1.415v-3.602q0-.6-.312-.941-.309-.34-.855-.34-.372 0-.661.164-.284.16-.449.465-.16.305-.16.738m7.516 3.622q-.708 0-1.266-.364-.558-.363-.883-1.055-.324-.69-.324-1.68 0-.999.328-1.687.332-.69.895-1.043a2.3 2.3 0 0 1 1.254-.355q.526 0 .867.18.34.176.539.425.199.247.308.465h.059V88h1.418v8h-1.391v-.945h-.086q-.11.218-.316.464-.207.243-.547.415t-.855.172m.394-1.16q.45 0 .766-.243a1.5 1.5 0 0 0 .48-.684q.165-.437.164-1.019 0-.582-.164-1.012a1.44 1.44 0 0 0-.476-.668 1.23 1.23 0 0 0-.77-.238q-.473 0-.789.246t-.476.68-.161.992q0 .563.161 1.004.163.438.48.691.32.25.785.25M516.341 88v8h-1.414v-8zm2.333 10.25a2.9 2.9 0 0 1-.922-.148L518.08 97q.308.09.551.086a.68.68 0 0 0 .426-.152q.187-.145.316-.485l.121-.324L517.318 90h1.5l1.383 4.531h.063L521.65 90h1.504l-2.402 6.727q-.168.476-.445.816-.278.345-.68.523-.398.184-.953.184"/><path fill="#000" fill-opacity=".7" d="M447.75 113h-2.693v-8.727h2.812q1.27 0 2.174.524a3.43 3.43 0 0 1 1.385 1.496q.481.971.481 2.326 0 1.364-.486 2.348a3.46 3.46 0 0 1-1.414 1.509q-.93.524-2.259.524m-1.636-.938h1.568q1.082 0 1.794-.417a2.58 2.58 0 0 0 1.061-1.189q.35-.77.349-1.837 0-1.056-.345-1.819a2.54 2.54 0 0 0-1.031-1.176q-.686-.414-1.709-.414h-1.687zm7.431.938v-6.545h1.006V113zm.512-7.636a.71.71 0 0 1-.507-.201.64.64 0 0 1-.209-.481q0-.282.209-.482a.72.72 0 0 1 .507-.2q.293 0 .503.2a.64.64 0 0 1 .213.482.64.64 0 0 1-.213.481.7.7 0 0 1-.503.201m5.08 7.772q-.945 0-1.632-.417a2.8 2.8 0 0 1-1.052-1.176q-.367-.759-.367-1.765t.367-1.772a2.9 2.9 0 0 1 1.031-1.202q.665-.435 1.551-.435.512 0 1.01.171.498.17.908.554.409.38.652 1.005.243.627.243 1.543v.426h-5.046v-.869h4.023q0-.554-.222-.989a1.67 1.67 0 0 0-.622-.686 1.75 1.75 0 0 0-.946-.251q-.6 0-1.04.298a2 2 0 0 0-.669.767 2.25 2.25 0 0 0-.234 1.014v.58q0 .741.256 1.257.26.512.72.78a2.1 2.1 0 0 0 1.069.264q.397 0 .716-.111a1.5 1.5 0 0 0 .559-.341q.234-.23.362-.571l.971.273a2.16 2.16 0 0 1-.515.869 2.5 2.5 0 0 1-.895.58 3.3 3.3 0 0 1-1.198.204m7.087-6.681v.852h-3.392v-.852zm-2.403-1.569h1.005v6.239q0 .426.124.639a.64.64 0 0 0 .324.281q.2.069.422.069.165 0 .272-.017l.171-.035.204.904a2.2 2.2 0 0 1-.75.119q-.426 0-.835-.183a1.66 1.66 0 0 1-.673-.558q-.264-.376-.264-.946zm5.842 8.267q-.622 0-1.129-.234a1.94 1.94 0 0 1-.806-.686q-.298-.452-.298-1.091 0-.562.222-.912.221-.354.592-.554a3.1 3.1 0 0 1 .818-.298 10 10 0 0 1 .908-.162q.597-.077.967-.115.375-.043.546-.141.174-.098.174-.341v-.034q0-.63-.345-.98-.34-.35-1.035-.349-.72 0-1.13.315-.408.316-.575.673l-.954-.341q.255-.596.681-.929.43-.336.938-.468a4 4 0 0 1 1.006-.137 4 4 0 0 1 .724.077q.413.072.797.303.388.23.643.694.256.465.256 1.245V113h-1.006v-.886h-.051a1.8 1.8 0 0 1-.341.456q-.238.243-.635.413-.396.17-.967.17m.153-.903q.597 0 1.006-.234a1.6 1.6 0 0 0 .835-1.385v-.921q-.063.077-.281.141a5 5 0 0 1-.494.106 21 21 0 0 1-.963.128q-.393.052-.733.166a1.26 1.26 0 0 0-.546.337q-.204.221-.204.605 0 .525.388.793.392.264.992.264m4.683.75v-6.545h.971v.988h.068q.18-.485.648-.788a1.9 1.9 0 0 1 1.057-.303 11 11 0 0 1 .528.017v1.023a3 3 0 0 0-.234-.038 2.3 2.3 0 0 0-.379-.03q-.478 0-.853.2a1.468 1.468 0 0 0-.801 1.334V113zm5.311 2.455q-.255 0-.456-.043a1.2 1.2 0 0 1-.277-.077l.256-.886q.366.093.648.068a.78.78 0 0 0 .498-.251q.222-.222.405-.721l.188-.511-2.421-6.579h1.091l1.807 5.215h.068l1.807-5.215h1.091l-2.778 7.5q-.188.507-.465.839a1.75 1.75 0 0 1-.643.499 2 2 0 0 1-.819.162M496.376 107h-1.056a2.2 2.2 0 0 0-.329-.801 2.2 2.2 0 0 0-.562-.58 2.4 2.4 0 0 0-.729-.358 3 3 0 0 0-.835-.119q-.792 0-1.436.401-.64.4-1.018 1.18-.375.78-.375 1.913t.375 1.914q.378.78 1.018 1.18.644.4 1.436.401.435 0 .835-.12a2.4 2.4 0 0 0 .729-.353 2.23 2.23 0 0 0 .891-1.385h1.056a3.5 3.5 0 0 1-.434 1.197 3.28 3.28 0 0 1-1.837 1.458q-.58.19-1.24.191-1.116 0-1.986-.545-.869-.546-1.368-1.551-.498-1.006-.498-2.387 0-1.38.498-2.386.5-1.006 1.368-1.551.87-.546 1.986-.546.66 0 1.24.192.583.192 1.053.563.469.366.784.895.315.524.434 1.197m2.577-2.727V113h-1.005v-8.727zm3.769 8.88q-.623 0-1.13-.234a1.94 1.94 0 0 1-.805-.686q-.298-.452-.298-1.091 0-.562.221-.912.222-.354.593-.554.37-.2.818-.298.451-.102.907-.162.597-.077.968-.115.375-.043.545-.141.175-.098.175-.341v-.034q0-.63-.345-.98-.342-.35-1.036-.349-.72 0-1.129.315-.41.316-.575.673l-.955-.341q.256-.596.682-.929.43-.336.937-.468a4 4 0 0 1 1.006-.137q.315 0 .725.077.413.072.796.303.388.23.644.694.255.465.256 1.245V113h-1.006v-.886h-.051a1.8 1.8 0 0 1-.341.456 2 2 0 0 1-.635.413q-.397.17-.967.17m.153-.903q.597 0 1.006-.234.413-.235.622-.605.213-.372.213-.78v-.921q-.064.077-.281.141-.213.06-.495.106a21 21 0 0 1-.963.128 4 4 0 0 0-.733.166 1.26 1.26 0 0 0-.545.337q-.205.221-.205.605 0 .525.388.793.392.264.993.264m4.682.75v-6.545h1.006V113zm.512-7.636a.72.72 0 0 1-.508-.201.64.64 0 0 1-.208-.481q0-.282.208-.482a.72.72 0 0 1 .508-.2.7.7 0 0 1 .502.2.64.64 0 0 1 .213.482.64.64 0 0 1-.213.481.7.7 0 0 1-.502.201m2.336 7.636v-6.545h.971v1.022h.086q.204-.523.66-.814.456-.294 1.095-.294.649 0 1.078.294.435.29.678.814h.068a1.9 1.9 0 0 1 .754-.805q.504-.303 1.206-.303.878 0 1.437.55.558.546.558 1.7V113h-1.006v-4.381q0-.725-.396-1.035a1.46 1.46 0 0 0-.933-.311q-.691 0-1.07.417-.38.413-.379 1.049V113h-1.023v-4.483q0-.558-.362-.899-.363-.345-.934-.345-.391 0-.732.209a1.6 1.6 0 0 0-.546.579 1.7 1.7 0 0 0-.204.848V113z"/><rect width="124" height="133" x="564" fill="#f8f8f7" rx="8"/><path fill="#002c4e" d="M588 24h48v48h-48z"/><path fill="#fff" stroke="#fff" stroke-width=".117" d="M612.711 55.39a.45.45 0 0 1-.317.132c-2.872 0-5.21-3.372-5.21-7.52 0-1.978.522-3.843 1.471-5.25.985-1.464 2.313-2.27 3.739-2.27.249 0 .449.2.449.449s-.2.448-.449.448c-1.117 0-2.18.665-2.993 1.873-.849 1.261-1.318 2.95-1.318 4.748 0 3.65 1.935 6.621 4.313 6.623.249 0 .448.2.448.448a.45.45 0 0 1-.131.318z"/><path fill="#fff" stroke="#fff" stroke-width=".117" d="M615.35 40.042c-.841.841-1.863 1.335-2.96 1.335a.446.446 0 0 1-.448-.449c0-.25.201-.45.448-.448 2.377 0 4.313-2.97 4.313-6.623a.449.449 0 1 1 .897 0c0 2.56-.891 4.826-2.25 6.185ZM617.467 62.46a.447.447 0 0 1-.766-.317c0-1.803-.468-3.488-1.318-4.75-.812-1.207-1.876-1.872-2.993-1.872a.446.446 0 0 1-.448-.449c0-.249.199-.448.448-.448 1.426 0 2.754.806 3.74 2.27.948 1.407 1.47 3.272 1.47 5.25a.45.45 0 0 1-.131.317z"/><path fill="#fff" stroke="#fff" stroke-width=".117" d="M615.351 54.186c-.841.841-1.863 1.334-2.96 1.334a.447.447 0 0 1-.449-.448c0-.25.201-.45.449-.449 2.376 0 4.312-2.97 4.312-6.622 0-1.802-.468-3.487-1.317-4.748-.813-1.209-1.877-1.873-2.993-1.873-.25 0-.449-.2-.449-.45 0-.248.201-.45.449-.448 1.425 0 2.753.806 3.739 2.27.949 1.408 1.471 3.273 1.471 5.25 0 2.56-.891 4.826-2.251 6.186z"/><path fill="#fff" stroke="#fff" stroke-width=".117" d="M612.704 41.25a.45.45 0 0 1-.318.132c-2.871 0-5.21-3.372-5.21-7.52a.449.449 0 0 1 .898 0c0 3.65 1.934 6.62 4.312 6.622a.45.45 0 0 1 .318.766ZM607.943 62.46a.447.447 0 0 1-.766-.317c0-1.979.522-3.843 1.471-5.25.985-1.465 2.313-2.27 3.739-2.27a.447.447 0 1 1 0 .897c-1.117 0-2.18.664-2.993 1.873-.849 1.26-1.318 2.95-1.318 4.748a.45.45 0 0 1-.131.317zM617.466 48.32a.45.45 0 0 1-.318.13h-9.522a.447.447 0 0 1-.449-.448c0-.25.2-.449.449-.449h9.522a.45.45 0 0 1 .318.766ZM616.495 44.187a.45.45 0 0 1-.318.131h-7.575a.446.446 0 0 1-.448-.449c0-.249.201-.45.448-.448h7.575a.45.45 0 0 1 .318.766Z"/><path fill="#fff" stroke="#fff" stroke-width=".117" d="M616.69 37.335a.45.45 0 0 1-.317.132h-7.974a.446.446 0 0 1-.448-.45c0-.248.199-.448.448-.448h7.974a.447.447 0 0 1 .317.766ZM616.69 59.3a.45.45 0 0 1-.317.131h-7.974a.446.446 0 0 1-.448-.448c0-.25.199-.449.448-.449h7.974a.447.447 0 0 1 .317.766ZM616.495 52.448a.45.45 0 0 1-.318.131h-7.575a.446.446 0 0 1-.448-.448c0-.25.201-.45.448-.45h7.575a.45.45 0 0 1 .318.766Z"/><path fill="#fff" stroke="#002c4e" stroke-width="1.168" d="M625.181 40.748a1.075 1.075 0 0 1 1.47.394h.001a1.077 1.077 0 0 1-.393 1.471h-.001l-27.439 15.84.001.002a1.074 1.074 0 0 1-1.471-.393h-.001a1.076 1.076 0 0 1 .393-1.47l27.44-15.843z"/><path fill="#000" d="M595.363 88v8h-1.289l-3.769-5.45h-.067V96h-1.449v-8h1.297l3.766 5.453h.07V88zm4.134 8.117q-.88 0-1.523-.386a2.62 2.62 0 0 1-1-1.083q-.352-.695-.352-1.625t.352-1.629q.355-.7 1-1.085.644-.387 1.523-.387t1.524.387q.643.386.996 1.085.355.7.355 1.63t-.355 1.624a2.6 2.6 0 0 1-.996 1.083q-.645.386-1.524.386m.008-1.133q.476 0 .797-.261a1.6 1.6 0 0 0 .476-.711 2.9 2.9 0 0 0 .16-.993q0-.55-.16-.996a1.6 1.6 0 0 0-.476-.714q-.32-.266-.797-.266-.488 0-.813.266a1.6 1.6 0 0 0-.48.714 3 3 0 0 0-.156.996q0 .547.156.993.16.446.48.71.325.262.813.262m5.481-2.5V96h-1.414v-6h1.352v1.02h.07q.207-.504.66-.801.457-.297 1.129-.297.621 0 1.082.266.465.265.719.769.258.504.254 1.223V96h-1.414v-3.602q0-.6-.313-.941-.308-.34-.855-.34a1.3 1.3 0 0 0-.66.164q-.285.16-.45.465-.16.305-.16.738m8.926-.398v1.164h-3.601v-1.164zm6.909-1.531a2 2 0 0 0-.269-.567 1.8 1.8 0 0 0-.406-.433 1.6 1.6 0 0 0-.54-.27 2.3 2.3 0 0 0-.664-.094q-.644 0-1.148.325-.504.323-.793.953-.285.624-.285 1.523 0 .906.285 1.535.285.63.793.957.508.325 1.18.325.609 0 1.054-.235.45-.234.692-.664.242-.433.242-1.016l.328.051h-2.172v-1.132h3.246v.96q0 1.028-.437 1.778-.438.75-1.203 1.156-.766.402-1.758.402-1.105 0-1.942-.496a3.43 3.43 0 0 1-1.3-1.418q-.465-.921-.465-2.187 0-.97.273-1.73.277-.763.774-1.294.495-.534 1.164-.812a3.7 3.7 0 0 1 1.453-.281q.664 0 1.238.195.574.191 1.02.547.448.355.738.844.29.487.379 1.078zM623.766 88h1.773l2.375 5.797h.094L630.383 88h1.773v8h-1.39v-5.496h-.075l-2.211 5.473h-1.039l-2.211-5.485h-.074V96h-1.39zm17.117 4q0 1.293-.485 2.215-.48.917-1.312 1.406-.828.488-1.879.488-1.05 0-1.883-.488-.828-.492-1.312-1.41-.481-.922-.481-2.211 0-1.293.481-2.21.484-.924 1.312-1.411.833-.488 1.883-.488t1.879.488q.832.488 1.312 1.41.485.918.485 2.211m-1.457 0q0-.91-.285-1.535-.281-.63-.782-.95a2.07 2.07 0 0 0-1.152-.324q-.652 0-1.152.325-.5.32-.785.949-.282.624-.282 1.535t.282 1.54q.285.624.785.948.5.32 1.152.32.653 0 1.152-.32.5-.324.782-.949.285-.63.285-1.539"/><path fill="#000" fill-opacity=".7" d="M591.75 113h-2.693v-8.727h2.812q1.27 0 2.174.524a3.43 3.43 0 0 1 1.385 1.496q.481.971.481 2.326 0 1.364-.486 2.348a3.46 3.46 0 0 1-1.414 1.509q-.93.524-2.259.524m-1.636-.938h1.568q1.082 0 1.794-.417a2.58 2.58 0 0 0 1.061-1.189q.35-.77.349-1.837 0-1.056-.345-1.819a2.54 2.54 0 0 0-1.031-1.176q-.686-.414-1.709-.414h-1.687zm7.431.938v-6.545h1.006V113zm.512-7.636a.71.71 0 0 1-.507-.201.64.64 0 0 1-.209-.481q0-.282.209-.482a.72.72 0 0 1 .507-.2q.293 0 .503.2a.64.64 0 0 1 .213.482.64.64 0 0 1-.213.481.7.7 0 0 1-.503.201m5.08 7.772q-.945 0-1.632-.417a2.8 2.8 0 0 1-1.052-1.176q-.367-.759-.367-1.765t.367-1.772a2.9 2.9 0 0 1 1.031-1.202q.664-.435 1.551-.435.512 0 1.01.171.498.17.908.554.409.38.652 1.005.243.627.243 1.543v.426h-5.046v-.869h4.023q0-.554-.222-.989a1.67 1.67 0 0 0-.622-.686 1.75 1.75 0 0 0-.946-.251q-.6 0-1.04.298a2 2 0 0 0-.669.767 2.25 2.25 0 0 0-.234 1.014v.58q0 .741.256 1.257.26.512.72.78a2.1 2.1 0 0 0 1.069.264q.397 0 .716-.111a1.5 1.5 0 0 0 .559-.341q.234-.23.362-.571l.971.273a2.16 2.16 0 0 1-.515.869 2.5 2.5 0 0 1-.895.58 3.3 3.3 0 0 1-1.198.204m7.087-6.681v.852h-3.392v-.852zm-2.403-1.569h1.005v6.239q0 .426.124.639a.64.64 0 0 0 .324.281q.2.069.422.069.165 0 .272-.017l.171-.035.204.904a2.2 2.2 0 0 1-.75.119q-.426 0-.835-.183a1.66 1.66 0 0 1-.673-.558q-.264-.376-.264-.946zm5.842 8.267q-.622 0-1.129-.234a1.94 1.94 0 0 1-.806-.686q-.298-.452-.298-1.091 0-.562.222-.912.221-.354.592-.554a3.1 3.1 0 0 1 .818-.298 10 10 0 0 1 .908-.162q.597-.077.967-.115.375-.043.546-.141.174-.098.174-.341v-.034q0-.63-.345-.98-.34-.35-1.035-.349-.72 0-1.13.315-.408.316-.575.673l-.954-.341q.255-.596.681-.929.43-.336.938-.468a4 4 0 0 1 1.006-.137 4 4 0 0 1 .724.077q.413.072.797.303.387.23.643.694.256.465.256 1.245V113h-1.006v-.886h-.051a1.8 1.8 0 0 1-.341.456q-.238.243-.635.413-.396.17-.967.17m.153-.903q.597 0 1.006-.234a1.6 1.6 0 0 0 .835-1.385v-.921q-.063.077-.281.141a5 5 0 0 1-.494.106 21 21 0 0 1-.963.128q-.393.052-.733.166a1.26 1.26 0 0 0-.546.337q-.204.221-.204.605 0 .525.388.793.392.264.992.264m4.683.75v-6.545h.971v.988h.068q.18-.485.648-.788a1.9 1.9 0 0 1 1.057-.303 11 11 0 0 1 .528.017v1.023a3 3 0 0 0-.234-.038 2.3 2.3 0 0 0-.379-.03q-.478 0-.853.2a1.468 1.468 0 0 0-.801 1.334V113zm5.311 2.455q-.255 0-.456-.043a1.2 1.2 0 0 1-.277-.077l.256-.886q.366.093.648.068a.78.78 0 0 0 .498-.251q.222-.222.405-.721l.188-.511-2.421-6.579h1.091l1.807 5.215h.068l1.807-5.215h1.091l-2.778 7.5q-.187.507-.465.839a1.75 1.75 0 0 1-.643.499 2 2 0 0 1-.819.162M640.376 107h-1.056a2.2 2.2 0 0 0-.329-.801 2.2 2.2 0 0 0-.562-.58 2.4 2.4 0 0 0-.729-.358 3 3 0 0 0-.835-.119q-.792 0-1.436.401-.64.4-1.018 1.18-.375.78-.375 1.913t.375 1.914q.378.78 1.018 1.18.644.4 1.436.401.435 0 .835-.12a2.4 2.4 0 0 0 .729-.353 2.23 2.23 0 0 0 .891-1.385h1.056a3.5 3.5 0 0 1-.434 1.197 3.28 3.28 0 0 1-1.837 1.458q-.58.19-1.24.191-1.116 0-1.986-.545-.868-.546-1.368-1.551-.498-1.006-.498-2.387 0-1.38.498-2.386.5-1.006 1.368-1.551.87-.546 1.986-.546.66 0 1.24.192.583.192 1.053.563.468.366.784.895.315.524.434 1.197m2.577-2.727V113h-1.005v-8.727zm3.769 8.88q-.623 0-1.13-.234a1.94 1.94 0 0 1-.805-.686q-.298-.452-.298-1.091 0-.562.221-.912.221-.354.593-.554.37-.2.818-.298.451-.102.907-.162.597-.077.968-.115.375-.043.545-.141.175-.098.175-.341v-.034q0-.63-.345-.98-.342-.35-1.036-.349-.72 0-1.129.315-.41.316-.575.673l-.955-.341q.256-.596.682-.929.43-.336.937-.468a4 4 0 0 1 1.006-.137q.315 0 .725.077.413.072.796.303.388.23.644.694.255.465.256 1.245V113h-1.006v-.886h-.051a1.8 1.8 0 0 1-.341.456 2 2 0 0 1-.635.413q-.396.17-.967.17m.153-.903q.597 0 1.006-.234.413-.235.622-.605.213-.372.213-.78v-.921q-.064.077-.281.141-.213.06-.495.106a21 21 0 0 1-.963.128 4 4 0 0 0-.733.166 1.26 1.26 0 0 0-.545.337q-.205.221-.205.605 0 .525.388.793.391.264.993.264m4.682.75v-6.545h1.006V113zm.512-7.636a.72.72 0 0 1-.508-.201.64.64 0 0 1-.208-.481q0-.282.208-.482a.72.72 0 0 1 .508-.2.7.7 0 0 1 .502.2.64.64 0 0 1 .213.482.64.64 0 0 1-.213.481.7.7 0 0 1-.502.201m2.336 7.636v-6.545h.971v1.022h.086q.204-.523.66-.814.456-.294 1.095-.294.649 0 1.078.294.435.29.678.814h.068a1.9 1.9 0 0 1 .754-.805q.504-.303 1.206-.303.878 0 1.437.55.558.546.558 1.7V113h-1.006v-4.381q0-.725-.396-1.035a1.46 1.46 0 0 0-.933-.311q-.691 0-1.07.417-.38.413-.379 1.049V113h-1.023v-4.483q0-.558-.362-.899-.363-.345-.934-.345-.391 0-.732.209a1.6 1.6 0 0 0-.546.579 1.7 1.7 0 0 0-.204.848V113z"/><rect width="124" height="133" x="704" fill="#f8f8f7" rx="8"/><path fill="#002c4e" d="M728 24h48v48h-48z"/><path fill="#fff" d="M746.526 62.996a4.84 4.84 0 0 1-3.436-1.42c-1.765-1.765-2.953-8.617-3.084-9.394a.49.49 0 0 1 .563-.562c.776.13 7.625 1.319 9.393 3.084a4.86 4.86 0 0 1 0 6.87 4.84 4.84 0 0 1-3.436 1.42zm-5.436-10.29c.444 2.376 1.507 7 2.69 8.18a3.886 3.886 0 0 0 5.49 0 3.884 3.884 0 0 0 0-5.49c-1.183-1.18-5.804-2.245-8.18-2.69M757.365 62.999a4.83 4.83 0 0 1-3.436-1.423 4.83 4.83 0 0 1-1.423-3.436 4.83 4.83 0 0 1 1.423-3.436c1.765-1.766 8.617-2.953 9.393-3.084a.5.5 0 0 1 .427.136c.112.112.163.27.135.426-.13.777-1.318 7.626-3.083 9.394a4.83 4.83 0 0 1-3.436 1.423m5.434-10.293c-2.376.444-7 1.507-8.18 2.69a3.86 3.86 0 0 0-1.137 2.746c0 1.037.403 2.013 1.137 2.747a3.86 3.86 0 0 0 2.746 1.136 3.86 3.86 0 0 0 2.746-1.136c1.18-1.18 2.246-5.805 2.69-8.18zM747.53 51.674a4.06 4.06 0 0 1-2.892-1.198c-.657-.657-1.267-2.13-1.87-4.514a44 44 0 0 1-.695-3.273.5.5 0 0 1 .135-.426.48.48 0 0 1 .427-.136c.641.107 6.31 1.091 7.787 2.565a4.07 4.07 0 0 1 1.198 2.892 4.06 4.06 0 0 1-1.198 2.892 4.07 4.07 0 0 1-2.892 1.198m-4.371-8.458c.378 1.98 1.231 5.633 2.169 6.57a3.1 3.1 0 0 0 2.202.912c.832 0 1.614-.324 2.202-.912.587-.587.912-1.37.912-2.202 0-.833-.325-1.615-.912-2.202-.94-.94-4.591-1.791-6.571-2.17zM756.359 51.671a4.08 4.08 0 0 1-2.892-1.195 4.09 4.09 0 0 1 0-5.782c.657-.656 2.131-1.267 4.514-1.87a45 45 0 0 1 3.273-.694.5.5 0 0 1 .426.135c.113.11.164.27.136.426-.108.642-1.091 6.31-2.565 7.787a4.08 4.08 0 0 1-2.892 1.196zm-2.2-6.287a3.117 3.117 0 0 0 0 4.402 3.117 3.117 0 0 0 4.402 0c.938-.938 1.791-4.59 2.169-6.57-1.98.377-5.633 1.23-6.571 2.168M751.944 42.613a4.094 4.094 0 0 1-4.088-4.09c0-2.085 3.314-6.79 3.692-7.32a.487.487 0 0 1 .792 0c.378.53 3.691 5.235 3.691 7.32a4.093 4.093 0 0 1-4.087 4.09m0-10.27c-1.134 1.668-3.114 4.854-3.114 6.18a3.12 3.12 0 0 0 3.114 3.114 3.12 3.12 0 0 0 3.114-3.114c0-1.328-1.98-4.514-3.114-6.18"/><path fill="#000" d="M728.789 96v-8h3q.922 0 1.547.344.629.343.949.945.324.598.324 1.36 0 .769-.324 1.367a2.3 2.3 0 0 1-.957.941q-.633.34-1.558.34h-1.989v-1.191h1.793q.54 0 .883-.188.343-.187.508-.516.168-.328.168-.754 0-.425-.168-.75a1.14 1.14 0 0 0-.512-.504q-.344-.183-.887-.183h-1.328V96zm8.431-8v8h-1.414v-8zm3.18 8.121q-.57 0-1.027-.203a1.7 1.7 0 0 1-.719-.61q-.261-.401-.261-.992 0-.507.187-.84.188-.331.512-.53.324-.2.73-.302.41-.105.848-.152.527-.054.855-.098.328-.046.477-.14.153-.098.152-.3v-.024q0-.442-.261-.684-.262-.242-.754-.242-.52 0-.825.227-.3.226-.406.535l-1.32-.188q.156-.548.516-.914.359-.37.878-.555a3.4 3.4 0 0 1 1.149-.187q.434 0 .863.101.43.102.785.336.355.231.571.63.218.398.218.995V96h-1.359v-.824h-.047a1.7 1.7 0 0 1-.363.468q-.231.216-.582.348a2.4 2.4 0 0 1-.817.13m.368-1.039q.425 0 .738-.168.312-.172.48-.453a1.15 1.15 0 0 0 .172-.613v-.707a.7.7 0 0 1-.226.101 3 3 0 0 1-.352.082q-.195.035-.387.063l-.332.047a2.5 2.5 0 0 0-.566.14.94.94 0 0 0-.395.274.67.67 0 0 0-.144.445q0 .39.285.59t.727.199m5.636-2.598V96h-1.414v-6h1.352v1.02h.07q.207-.504.66-.801.457-.297 1.129-.297.621 0 1.082.266.465.265.719.769.258.504.254 1.223V96h-1.414v-3.602q0-.6-.313-.941-.308-.34-.855-.34a1.3 1.3 0 0 0-.66.164q-.285.16-.45.465-.16.305-.16.738M754.689 90v1.094h-3.449V90zm-2.597-1.437h1.414v5.632q0 .285.086.438.09.148.234.203a.9.9 0 0 0 .32.055q.133 0 .243-.02a2 2 0 0 0 .172-.035l.238 1.105a3 3 0 0 1-.324.086q-.207.048-.508.055a2.3 2.3 0 0 1-.957-.16 1.5 1.5 0 0 1-.676-.555q-.246-.375-.242-.937zM758.663 96v-8h3.063q.867 0 1.441.273.578.27.863.739.29.468.289 1.062 0 .489-.187.836-.188.345-.504.559a2.1 2.1 0 0 1-.707.308v.079q.426.023.816.261.394.234.645.664.25.43.25 1.04 0 .62-.301 1.117-.3.492-.906.777t-1.524.285zm1.449-1.21h1.559q.789 0 1.137-.302a.99.99 0 0 0 .351-.781q0-.355-.176-.64a1.2 1.2 0 0 0-.5-.454 1.66 1.66 0 0 0-.773-.168h-1.598zm0-3.388h1.434q.375 0 .676-.136.3-.141.472-.395a1.05 1.05 0 0 0 .176-.61 1 1 0 0 0-.328-.765q-.324-.3-.965-.3h-1.465zm7.445 4.72q-.571 0-1.028-.204a1.68 1.68 0 0 1-.718-.61q-.262-.401-.262-.992 0-.507.187-.84.188-.331.512-.53a2.6 2.6 0 0 1 .731-.302q.41-.105.847-.152.528-.054.856-.098.327-.046.476-.14.153-.098.153-.3v-.024q0-.442-.262-.684t-.754-.242q-.52 0-.824.227-.301.226-.407.535l-1.32-.188q.156-.548.516-.914.359-.37.879-.555a3.4 3.4 0 0 1 1.148-.187q.434 0 .863.101.43.102.786.336.356.231.57.63.219.398.219.995V96h-1.36v-.824h-.047a1.7 1.7 0 0 1-.363.468q-.231.216-.582.348a2.4 2.4 0 0 1-.816.13m.367-1.04q.426 0 .738-.168.313-.172.481-.453.171-.282.171-.613v-.707a.7.7 0 0 1-.226.101 3 3 0 0 1-.352.082q-.195.035-.386.063l-.332.047q-.316.042-.567.14a.94.94 0 0 0-.394.274.67.67 0 0 0-.145.445q0 .39.285.59t.727.199m8.965-3.496-1.289.14a1.1 1.1 0 0 0-.192-.367.95.95 0 0 0-.359-.277 1.3 1.3 0 0 0-.555-.105q-.442 0-.742.191-.297.192-.293.496a.52.52 0 0 0 .191.426q.2.165.657.27l1.023.218q.852.184 1.266.582.417.399.422 1.043a1.64 1.64 0 0 1-.332 1q-.325.43-.903.672t-1.328.242q-1.101 0-1.773-.46a1.85 1.85 0 0 1-.801-1.294l1.379-.132a.97.97 0 0 0 .398.613q.305.207.793.207.504 0 .809-.207.308-.207.308-.512a.53.53 0 0 0-.199-.426q-.195-.168-.609-.258l-1.024-.214q-.863-.18-1.277-.606-.414-.429-.41-1.086a1.53 1.53 0 0 1 .301-.96q.308-.41.855-.634.55-.225 1.27-.226 1.054 0 1.66.45.609.449.754 1.214m3.951 4.531q-.903 0-1.559-.375a2.54 2.54 0 0 1-1.004-1.07q-.351-.696-.351-1.637 0-.926.351-1.625.355-.703.993-1.094.636-.394 1.496-.394.553 0 1.047.18.495.175.875.546.382.372.601.946.219.57.219 1.36v.433h-4.918v-.953h3.562a1.5 1.5 0 0 0-.175-.723 1.3 1.3 0 0 0-.481-.504 1.35 1.35 0 0 0-.711-.184q-.434 0-.762.211-.328.207-.511.547-.18.336-.184.738v.833q0 .523.192.898.191.371.535.57a1.6 1.6 0 0 0 .804.196q.309 0 .559-.086.25-.09.434-.262a1.1 1.1 0 0 0 .277-.426l1.32.149a2.06 2.06 0 0 1-.476.914 2.3 2.3 0 0 1-.891.601 3.4 3.4 0 0 1-1.242.211m6.091-.011q-.708 0-1.266-.364-.559-.363-.883-1.055-.324-.69-.324-1.68 0-.999.328-1.687.332-.69.895-1.043a2.3 2.3 0 0 1 1.254-.355q.526 0 .867.18.34.176.539.425.199.247.308.465h.059V88h1.418v8h-1.391v-.945h-.086q-.11.218-.316.464-.207.243-.547.415t-.855.172m.394-1.16q.45 0 .766-.243a1.5 1.5 0 0 0 .48-.684q.164-.437.164-1.019t-.164-1.012a1.43 1.43 0 0 0-.476-.668 1.23 1.23 0 0 0-.77-.238q-.473 0-.789.246t-.476.68-.161.992q0 .563.161 1.004.164.438.48.691.32.25.785.25"/><path fill="#000" fill-opacity=".7" d="M731.75 113h-2.693v-8.727h2.812q1.27 0 2.174.524a3.43 3.43 0 0 1 1.385 1.496q.481.971.481 2.326 0 1.364-.486 2.348a3.46 3.46 0 0 1-1.414 1.509q-.93.524-2.259.524m-1.636-.938h1.568q1.081 0 1.794-.417a2.58 2.58 0 0 0 1.061-1.189q.35-.77.349-1.837 0-1.056-.345-1.819a2.54 2.54 0 0 0-1.031-1.176q-.686-.414-1.709-.414h-1.687zm7.431.938v-6.545h1.006V113zm.512-7.636a.71.71 0 0 1-.507-.201.64.64 0 0 1-.209-.481q0-.282.209-.482a.72.72 0 0 1 .507-.2q.293 0 .503.2a.64.64 0 0 1 .213.482.64.64 0 0 1-.213.481.7.7 0 0 1-.503.201m5.08 7.772q-.945 0-1.632-.417a2.8 2.8 0 0 1-1.052-1.176q-.367-.759-.367-1.765t.367-1.772a2.9 2.9 0 0 1 1.031-1.202q.664-.435 1.551-.435.512 0 1.01.171.498.17.908.554.409.38.652 1.005.243.627.243 1.543v.426h-5.046v-.869h4.023q0-.554-.222-.989a1.67 1.67 0 0 0-.622-.686 1.75 1.75 0 0 0-.946-.251q-.6 0-1.04.298a2 2 0 0 0-.669.767 2.25 2.25 0 0 0-.234 1.014v.58q0 .741.256 1.257.26.512.72.78a2.1 2.1 0 0 0 1.069.264q.397 0 .716-.111a1.5 1.5 0 0 0 .559-.341q.234-.23.362-.571l.971.273a2.16 2.16 0 0 1-.515.869 2.5 2.5 0 0 1-.895.58 3.3 3.3 0 0 1-1.198.204m7.087-6.681v.852h-3.392v-.852zm-2.403-1.569h1.005v6.239q0 .426.124.639a.64.64 0 0 0 .324.281q.2.069.422.069.165 0 .272-.017l.171-.035.204.904a2.2 2.2 0 0 1-.75.119q-.426 0-.835-.183a1.66 1.66 0 0 1-.673-.558q-.264-.376-.264-.946zm5.842 8.267q-.622 0-1.129-.234a1.94 1.94 0 0 1-.806-.686q-.298-.452-.298-1.091 0-.562.222-.912.221-.354.592-.554a3.1 3.1 0 0 1 .818-.298 10 10 0 0 1 .908-.162q.597-.077.967-.115.375-.043.546-.141.174-.098.174-.341v-.034q0-.63-.345-.98-.34-.35-1.035-.349-.72 0-1.13.315-.408.316-.575.673l-.954-.341q.255-.596.681-.929.43-.336.938-.468a4 4 0 0 1 1.006-.137 4 4 0 0 1 .724.077q.413.072.797.303.387.23.643.694.256.465.256 1.245V113h-1.006v-.886h-.051a1.8 1.8 0 0 1-.341.456q-.238.243-.635.413-.396.17-.967.17m.153-.903q.597 0 1.006-.234a1.6 1.6 0 0 0 .835-1.385v-.921q-.063.077-.281.141a5 5 0 0 1-.494.106 21 21 0 0 1-.963.128q-.393.052-.733.166a1.26 1.26 0 0 0-.546.337q-.204.221-.204.605 0 .525.388.793.392.264.992.264m4.683.75v-6.545h.971v.988h.068q.18-.485.648-.788a1.9 1.9 0 0 1 1.057-.303 11 11 0 0 1 .528.017v1.023a3 3 0 0 0-.234-.038 2.3 2.3 0 0 0-.379-.03q-.478 0-.853.2a1.468 1.468 0 0 0-.801 1.334V113zm5.311 2.455q-.255 0-.456-.043a1.2 1.2 0 0 1-.277-.077l.256-.886q.366.093.648.068a.78.78 0 0 0 .498-.251q.222-.222.405-.721l.188-.511-2.421-6.579h1.091l1.807 5.215h.068l1.807-5.215h1.091l-2.778 7.5q-.187.507-.465.839a1.75 1.75 0 0 1-.643.499 2 2 0 0 1-.819.162M780.376 107h-1.056a2.2 2.2 0 0 0-.329-.801 2.2 2.2 0 0 0-.562-.58 2.4 2.4 0 0 0-.729-.358 3 3 0 0 0-.835-.119q-.792 0-1.436.401-.64.4-1.018 1.18-.375.78-.375 1.913t.375 1.914q.378.78 1.018 1.18.644.4 1.436.401.435 0 .835-.12a2.4 2.4 0 0 0 .729-.353 2.23 2.23 0 0 0 .891-1.385h1.056a3.5 3.5 0 0 1-.434 1.197 3.28 3.28 0 0 1-1.837 1.458q-.58.19-1.24.191-1.116 0-1.986-.545-.868-.546-1.368-1.551-.498-1.006-.498-2.387 0-1.38.498-2.386.5-1.006 1.368-1.551.87-.546 1.986-.546.66 0 1.24.192.583.192 1.053.563.468.366.784.895.315.524.434 1.197m2.577-2.727V113h-1.005v-8.727zm3.769 8.88q-.623 0-1.13-.234a1.94 1.94 0 0 1-.805-.686q-.298-.452-.298-1.091 0-.562.221-.912.221-.354.593-.554.37-.2.818-.298.451-.102.907-.162.597-.077.968-.115.375-.043.545-.141.175-.098.175-.341v-.034q0-.63-.345-.98-.342-.35-1.036-.349-.72 0-1.129.315-.41.316-.575.673l-.955-.341q.256-.596.682-.929.43-.336.937-.468a4 4 0 0 1 1.006-.137q.315 0 .725.077.413.072.796.303.388.23.644.694.256.465.256 1.245V113h-1.006v-.886h-.051a1.8 1.8 0 0 1-.341.456 2 2 0 0 1-.635.413q-.396.17-.967.17m.153-.903q.597 0 1.006-.234.413-.235.622-.605.213-.372.213-.78v-.921q-.064.077-.281.141-.213.06-.495.106a21 21 0 0 1-.963.128 4 4 0 0 0-.733.166 1.26 1.26 0 0 0-.545.337q-.204.221-.205.605 0 .525.388.793.391.264.993.264m4.682.75v-6.545h1.006V113zm.512-7.636a.72.72 0 0 1-.508-.201.64.64 0 0 1-.208-.481q0-.282.208-.482a.72.72 0 0 1 .508-.2.7.7 0 0 1 .502.2.64.64 0 0 1 .213.482.64.64 0 0 1-.213.481.7.7 0 0 1-.502.201m2.336 7.636v-6.545h.971v1.022h.086q.204-.523.66-.814.456-.294 1.095-.294.649 0 1.078.294.435.29.678.814h.068a1.9 1.9 0 0 1 .754-.805q.504-.303 1.206-.303.878 0 1.437.55.558.546.558 1.7V113h-1.006v-4.381q0-.725-.396-1.035a1.46 1.46 0 0 0-.933-.311q-.691 0-1.07.417-.38.413-.379 1.049V113h-1.023v-4.483q0-.558-.362-.899-.363-.345-.934-.345-.391 0-.732.209a1.6 1.6 0 0 0-.546.579 1.7 1.7 0 0 0-.204.848V113z"/></g><defs><clipPath id="a"><path fill="#fff" d="M0 0h828v133H0z"/></clipPath><clipPath id="b"><path fill="#fff" d="M31.998 32.554h32v30.892h-32z"/></clipPath></defs></svg>