<svg xmlns="http://www.w3.org/2000/svg" width="904" height="205" fill="none" viewBox="0 0 904 205"><g clip-path="url(#a)"><rect width="168" height="205" fill="#f8f8f7" rx="8"/><g clip-path="url(#b)"><path fill="#84c12f" fill-rule="evenodd" d="M59.341 77.265a1.956 1.956 0 1 1 3.389 1.959l-5.337 9.23a5 5 0 0 1-.152.273l-23.938 41.476a1.54 1.54 0 0 0 0 1.586c.137.24.544.789 1.371.789h96.079c.828 0 1.234-.554 1.371-.789.138-.24.411-.871 0-1.586a1.96 1.96 0 0 1 .715-2.673 1.96 1.96 0 0 1 2.673.714 5.44 5.44 0 0 1 0 5.504 5.44 5.44 0 0 1-4.764 2.747v.005H34.669a5.45 5.45 0 0 1-4.763-2.747 5.45 5.45 0 0 1 0-5.504l23.962-41.51s.024-.038.034-.058q.031-.068.068-.128zm61.481 10.238c1.082 0 1.958.877 1.958 1.96v6.4c1.948-.678 4.374-1.053 6.953-.326 4.352 1.23 7.726 5.142 8.794 10.214.778 3.692.122 7.673-1.836 11.208-1.856 3.349-4.549 5.88-7.795 7.324-2.438 1.083-4.799 1.391-6.689 1.391l-.005-.005a19 19 0 0 1-1.566-.068c-2.051.186-5.088.088-8.261-1.322-3.246-1.445-5.938-3.976-7.794-7.325-1.958-3.535-2.615-7.511-1.837-11.203 1.073-5.067 4.442-8.985 8.794-10.214 2.743-.771 5.316-.298 7.325.461v-6.536c0-1.082.877-1.959 1.959-1.959m7.838 11.805c-2.854-.808-5.6.538-6.981 1.41a1.96 1.96 0 0 1-2.086 0c-1.386-.871-4.142-2.213-6.992-1.41-2.903.818-5.268 3.667-6.027 7.251-.583 2.766-.074 5.787 1.429 8.495 1.459 2.634 3.467 4.534 5.959 5.645 2.487 1.102 4.891 1.146 6.473.985.064-.005.133-.01.196-.01h.005c.064 0 .132 0 .195.01 1.582.161 3.986.122 6.468-.985 2.497-1.111 4.5-3.006 5.959-5.64 1.503-2.713 2.012-5.729 1.43-8.5-.754-3.584-3.124-6.429-6.028-7.251m-35.124 8.03a1.957 1.957 0 1 1 0 3.917H58.322a1.959 1.959 0 1 1 0-3.917zM90.022 53.42a1.96 1.96 0 0 1 2.678.715l18.738 32.408a1.962 1.962 0 0 1-1.695 2.943 1.97 1.97 0 0 1-1.699-.979L89.307 56.1a1.96 1.96 0 0 1 .715-2.679m3.517 21.412a1.958 1.958 0 1 1 0 3.917H71.87a1.959 1.959 0 1 1 0-3.917zM58.121 35.256c6.898-3.359 15.56-4.515 24.383-3.262a1.964 1.964 0 0 1 1.665 1.665c1.254 8.824.097 17.485-3.257 24.384-3.202 6.595-8.2 11.119-13.713 12.421-1.195.284-2.38.407-3.545.407h-.005c-4.444 0-8.609-1.825-11.806-3.789l-7.753 7.755a1.95 1.95 0 0 1-1.386.572 1.958 1.958 0 0 1-1.385-3.343l7.756-7.758c-2.477-4.034-4.727-9.603-3.375-15.338 1.302-5.513 5.825-10.512 12.42-13.714m22.351.43c-16.672-1.84-28.98 5.774-30.964 14.18-.97 4.119.557 8.315 2.424 11.585l13.05-13.05a1.963 1.963 0 0 1 2.771 0 1.963 1.963 0 0 1 0 2.772l-13.05 13.05c3.27 1.87 7.47 3.403 11.59 2.428 8.411-1.983 16.02-14.297 14.179-30.964" clip-rule="evenodd"/></g><path fill="#000" d="M31.363 160v8h-1.289l-3.77-5.449h-.066V168H24.79v-8h1.297l3.766 5.453h.07V160zm5.341 5.477V162h1.414v6h-1.37v-1.066h-.063q-.204.504-.668.824-.462.32-1.137.32-.59 0-1.043-.262a1.8 1.8 0 0 1-.703-.769q-.255-.508-.254-1.227V162h1.414v3.602q0 .57.312.906.313.336.82.336.314 0 .606-.153.294-.152.48-.453.192-.305.192-.761M42.568 162v1.094H39.12V162zm-2.597-1.438h1.414v5.633q0 .285.086.438.09.148.234.203a.9.9 0 0 0 .32.055q.134 0 .243-.02.112-.02.172-.035l.238 1.105a3 3 0 0 1-.325.086q-.207.048-.507.055a2.3 2.3 0 0 1-.957-.16 1.5 1.5 0 0 1-.676-.555q-.246-.375-.242-.937zM43.75 168v-6h1.371v1h.063a1.5 1.5 0 0 1 1.48-1.086q.117 0 .262.012.148.007.246.027v1.301a1.5 1.5 0 0 0-.285-.055 3 3 0 0 0-.371-.027q-.387 0-.696.168a1.23 1.23 0 0 0-.48.457q-.176.292-.176.676V168zm4.361 0v-6h1.414v6zm.711-6.852a.83.83 0 0 1-.578-.222.72.72 0 0 1-.242-.543q0-.321.242-.543a.82.82 0 0 1 .578-.227q.34 0 .578.227a.7.7 0 0 1 .243.543q0 .316-.243.543a.82.82 0 0 1-.578.222m5.154.852v1.094h-3.45V162zm-2.598-1.438h1.414v5.633q0 .285.086.438.09.148.234.203a.9.9 0 0 0 .32.055q.134 0 .243-.02.113-.02.172-.035l.238 1.105a3 3 0 0 1-.324.086q-.207.048-.508.055a2.3 2.3 0 0 1-.957-.16 1.5 1.5 0 0 1-.676-.555q-.246-.375-.242-.937zm3.78 7.438v-6h1.414v6zm.711-6.852a.83.83 0 0 1-.578-.222.72.72 0 0 1-.242-.543q0-.321.242-.543a.82.82 0 0 1 .578-.227q.34 0 .578.227a.7.7 0 0 1 .242.543q0 .316-.242.543a.82.82 0 0 1-.578.222m4.775 6.969q-.879 0-1.524-.387a2.6 2.6 0 0 1-1-1.082q-.352-.695-.352-1.625 0-.929.352-1.628a2.6 2.6 0 0 1 1-1.086q.645-.387 1.523-.387.88 0 1.524.387.645.386.996 1.086.355.7.355 1.628 0 .93-.355 1.625a2.6 2.6 0 0 1-.996 1.082q-.645.387-1.523.387m.007-1.133q.477 0 .797-.261.321-.265.477-.711.16-.446.16-.992 0-.552-.16-.997a1.6 1.6 0 0 0-.477-.714q-.32-.266-.797-.266-.488 0-.812.266a1.6 1.6 0 0 0-.48.714 3 3 0 0 0-.157.997q0 .546.156.992.16.445.48.711.325.261.813.261m5.482-2.5V168H64.72v-6h1.351v1.02h.07q.209-.504.66-.801.458-.297 1.13-.297.62 0 1.082.265.465.267.718.77.258.504.254 1.223V168h-1.414v-3.602q0-.601-.312-.941-.309-.34-.856-.34-.37 0-.66.164a1.14 1.14 0 0 0-.45.465q-.16.304-.16.738"/><path fill="#000" fill-opacity=".7" d="M25.057 185v-8.727h1.057v7.789h4.057V185zm8.54.153q-.623 0-1.13-.234a1.94 1.94 0 0 1-.805-.686q-.298-.452-.298-1.091 0-.562.221-.912.221-.353.593-.554.37-.2.818-.298.45-.102.907-.162.596-.077.968-.115.375-.043.545-.141.175-.098.175-.341v-.034q0-.63-.345-.98-.341-.35-1.036-.349-.72 0-1.129.315-.41.316-.575.673l-.955-.341q.256-.596.682-.929.43-.336.938-.468a4 4 0 0 1 1.005-.137 4 4 0 0 1 .725.077q.412.072.796.303.388.23.644.694.255.465.256 1.245V185H35.59v-.886h-.051a1.8 1.8 0 0 1-.341.456q-.239.243-.635.413-.397.17-.967.17m.153-.903q.597 0 1.006-.234a1.6 1.6 0 0 0 .835-1.385v-.921q-.064.077-.281.141-.213.06-.495.106a21 21 0 0 1-.963.128 4 4 0 0 0-.733.166 1.26 1.26 0 0 0-.545.337q-.204.221-.205.605 0 .525.388.793.392.264.993.264m4.682.75v-6.545h.972v.988h.068q.18-.486.648-.788a1.9 1.9 0 0 1 1.056-.303 11 11 0 0 1 .529.017v1.023a3 3 0 0 0-.234-.038q-.18-.03-.38-.03-.477 0-.852.2a1.468 1.468 0 0 0-.801 1.334V185zm6.908 2.591q-.73 0-1.253-.188a2.7 2.7 0 0 1-.874-.485 2.7 2.7 0 0 1-.55-.64l.802-.562q.136.179.345.409.21.234.571.405.366.175.959.175.792 0 1.308-.384t.516-1.202v-1.329h-.086a6 6 0 0 1-.315.443 1.8 1.8 0 0 1-.58.464q-.374.201-1.014.201a2.73 2.73 0 0 1-1.423-.375 2.63 2.63 0 0 1-.993-1.091q-.362-.716-.362-1.739 0-1.005.354-1.751.354-.75.984-1.159.63-.414 1.457-.414.64 0 1.015.213.378.21.58.478.203.264.315.434h.102v-1.039h.971v6.733q0 .843-.383 1.372a2.18 2.18 0 0 1-1.023.779 3.9 3.9 0 0 1-1.423.252m-.034-3.597q.604 0 1.023-.277.418-.276.634-.797.218-.52.218-1.244 0-.707-.213-1.248a1.87 1.87 0 0 0-.631-.848q-.417-.307-1.031-.307-.639 0-1.066.324a1.96 1.96 0 0 0-.635.869q-.208.546-.208 1.21 0 .683.213 1.206.217.52.639.818.426.294 1.057.294m7.449 1.142q-.946 0-1.633-.417a2.8 2.8 0 0 1-1.052-1.176q-.366-.759-.367-1.765 0-1.005.367-1.772.37-.772 1.031-1.202.665-.435 1.551-.435.512 0 1.01.171.499.17.908.554.41.38.652 1.005.243.627.243 1.543v.426h-5.046v-.869h4.023q0-.554-.221-.989a1.67 1.67 0 0 0-.623-.686 1.75 1.75 0 0 0-.946-.251q-.6 0-1.04.298-.434.294-.669.767a2.25 2.25 0 0 0-.234 1.014v.58q0 .741.256 1.257.26.512.72.78.46.264 1.07.264.396 0 .715-.111.325-.115.559-.341.234-.23.362-.571l.972.273a2.16 2.16 0 0 1-.516.869q-.363.371-.895.58a3.3 3.3 0 0 1-1.197.204"/><rect width="168" height="205" x="184" fill="#f8f8f7" rx="8"/><g fill="#84c12f" clip-path="url(#c)"><path d="M265.969 136.75a1.874 1.874 0 0 1-1.875-1.875v-3.103a3.464 3.464 0 0 0-3.46-3.46h-13.65c-11.503 0-20.859-9.356-20.859-20.859s9.356-20.86 20.859-20.86h8.438a.23.23 0 0 0 .234-.234.23.23 0 0 0-.234-.234h-10.547c-10.341 0-18.75-8.41-18.75-18.75s8.409-18.75 18.75-18.75h18.839c.211 0 .38-.173.38-.38v-14.62a1.874 1.874 0 1 1 3.75 0v14.62a4.133 4.133 0 0 1-4.13 4.13h-18.839c-8.269 0-15 6.731-15 15s6.731 15 15 15h10.547a3.987 3.987 0 0 1 3.984 3.984 3.987 3.987 0 0 1-3.984 3.985h-8.438c-9.436 0-17.109 7.673-17.109 17.109s7.673 17.109 17.109 17.109h13.65c3.975 0 7.21 3.235 7.21 7.21v3.103a1.874 1.874 0 0 1-1.875 1.875"/><path d="M282.844 136.75a1.874 1.874 0 0 1-1.875-1.875v-9.094c0-5.583-4.542-10.125-10.125-10.125h-25.969a6.1 6.1 0 0 1-6.094-6.094 6.1 6.1 0 0 1 6.094-6.093h43.467c9.891 0 17.939-8.049 17.939-17.94V71.595a1.874 1.874 0 1 1 3.75 0V85.53c0 11.962-9.731 21.689-21.689 21.689h-43.467a2.344 2.344 0 0 0 0 4.687h25.969c7.65 0 13.875 6.225 13.875 13.875v9.094a1.874 1.874 0 0 1-1.875 1.875M282.844 50.688a1.874 1.874 0 0 1-1.875-1.876V33.626a1.874 1.874 0 1 1 3.75 0v15.188a1.874 1.874 0 0 1-1.875 1.874"/><path d="M280.734 91.188c-9.407 0-17.062-7.655-17.062-17.063s7.655-17.062 17.062-17.062 17.063 7.654 17.063 17.062-7.655 17.063-17.063 17.063m0-30.376c-7.34 0-13.312 5.972-13.312 13.313 0 7.34 5.972 13.313 13.312 13.313 7.341 0 13.313-5.972 13.313-13.313 0-7.34-5.972-13.312-13.313-13.312"/><path d="M278.203 81.063c-.478 0-.961-.183-1.326-.549l-5.063-5.062a1.88 1.88 0 0 1 0-2.654 1.88 1.88 0 0 1 2.653 0l3.736 3.736 8.799-8.798a1.88 1.88 0 0 1 2.653 0 1.88 1.88 0 0 1 0 2.653L279.53 80.514a1.87 1.87 0 0 1-1.327.549"/></g><path fill="#000" d="M211.5 168h-2.711v-8h2.766q1.19 0 2.047.48a3.2 3.2 0 0 1 1.32 1.372q.46.894.461 2.14 0 1.25-.465 2.149a3.2 3.2 0 0 1-1.332 1.379q-.867.48-2.086.48m-1.262-1.254h1.192q.836 0 1.394-.305.56-.308.84-.918.281-.613.281-1.531t-.281-1.523a1.9 1.9 0 0 0-.832-.91q-.548-.306-1.359-.305h-1.235zm6.459 1.254v-6h1.414v6zm.711-6.852a.83.83 0 0 1-.578-.222.72.72 0 0 1-.242-.543.71.71 0 0 1 .242-.543.82.82 0 0 1 .578-.227q.34 0 .578.227a.7.7 0 0 1 .243.543.72.72 0 0 1-.243.543.82.82 0 0 1-.578.222m4.767 9.227q-.762 0-1.309-.207a2.3 2.3 0 0 1-.879-.547 1.9 1.9 0 0 1-.461-.762l1.274-.308q.085.176.25.347.163.177.441.29.282.117.707.117.602 0 .996-.293.395-.29.395-.953v-1.137h-.07q-.11.218-.321.449a1.6 1.6 0 0 1-.551.387q-.339.156-.855.156-.692 0-1.254-.324-.558-.328-.891-.977-.327-.652-.328-1.633 0-.987.328-1.668.333-.683.895-1.035a2.3 2.3 0 0 1 1.254-.355q.527 0 .867.18.344.176.547.425.202.246.309.465h.078V162h1.394v6.098q0 .77-.367 1.273a2.2 2.2 0 0 1-1.004.754 3.9 3.9 0 0 1-1.445.25m.012-3.57q.449 0 .765-.219.316-.22.481-.629t.164-.984q0-.567-.164-.993a1.43 1.43 0 0 0-.477-.66 1.23 1.23 0 0 0-.769-.238q-.474 0-.79.246-.315.246-.476.676-.16.426-.16.969 0 .55.16.965.163.41.48.64.321.227.786.227m6.91 1.312q-.903 0-1.559-.375a2.54 2.54 0 0 1-1.004-1.07q-.351-.695-.351-1.637 0-.926.351-1.625.356-.703.992-1.094.638-.394 1.496-.394.555 0 1.047.18.497.175.875.546.383.372.602.946.219.57.219 1.359v.434h-4.918v-.953h3.562a1.5 1.5 0 0 0-.176-.723 1.27 1.27 0 0 0-.48-.504 1.35 1.35 0 0 0-.711-.184q-.434 0-.762.211a1.46 1.46 0 0 0-.511.547q-.18.336-.184.739v.832q0 .523.191.898.192.37.536.57.344.196.804.196.309 0 .559-.086.25-.09.433-.262.184-.173.278-.426l1.32.149a2.05 2.05 0 0 1-.477.914 2.3 2.3 0 0 1-.89.601 3.4 3.4 0 0 1-1.242.211m8.606-4.531-1.289.141a1 1 0 0 0-.191-.368.96.96 0 0 0-.36-.277 1.3 1.3 0 0 0-.554-.105q-.442 0-.743.191-.296.192-.293.496a.52.52 0 0 0 .192.426q.199.164.656.269l1.024.219q.85.185 1.265.582.418.398.422 1.043a1.63 1.63 0 0 1-.332 1q-.324.43-.902.672a3.4 3.4 0 0 1-1.328.242q-1.102 0-1.774-.461a1.85 1.85 0 0 1-.801-1.293l1.379-.133a.98.98 0 0 0 .399.614q.304.207.793.207.504 0 .808-.207.309-.207.309-.512a.54.54 0 0 0-.199-.426q-.196-.168-.61-.258l-1.023-.214q-.864-.18-1.278-.606-.414-.429-.41-1.086-.003-.555.301-.961.309-.41.856-.633.55-.226 1.269-.226 1.055 0 1.66.449.61.45.754 1.215m4.291-1.586v1.094h-3.449V162zm-2.598-1.438h1.415v5.633q0 .285.085.438.09.148.235.203a.9.9 0 0 0 .32.055q.133 0 .242-.02.114-.02.172-.035l.239 1.105a3 3 0 0 1-.325.086q-.207.048-.508.055a2.3 2.3 0 0 1-.957-.16 1.5 1.5 0 0 1-.675-.555q-.246-.375-.243-.937zm3.781 7.438v-6h1.414v6zm.711-6.852a.83.83 0 0 1-.578-.222.72.72 0 0 1-.243-.543q0-.321.243-.543a.82.82 0 0 1 .578-.227.8.8 0 0 1 .578.227.71.71 0 0 1 .242.543.72.72 0 0 1-.242.543.82.82 0 0 1-.578.222m4.774 6.969q-.88 0-1.523-.387a2.6 2.6 0 0 1-1-1.082q-.352-.695-.352-1.625 0-.929.352-1.628.355-.7 1-1.086.644-.387 1.523-.387t1.524.387q.643.386.996 1.086.355.7.355 1.628 0 .93-.355 1.625a2.6 2.6 0 0 1-.996 1.082q-.645.387-1.524.387m.008-1.133q.477 0 .797-.261.32-.265.476-.711.16-.446.161-.992 0-.552-.161-.997a1.6 1.6 0 0 0-.476-.714 1.2 1.2 0 0 0-.797-.266q-.488 0-.813.266a1.6 1.6 0 0 0-.48.714 3 3 0 0 0-.156.997q0 .546.156.992.16.445.48.711.325.261.813.261m5.481-2.5V168h-1.414v-6h1.352v1.02h.07q.207-.504.66-.801.457-.297 1.129-.297.621 0 1.082.265.465.267.719.77.258.504.254 1.223V168h-1.414v-3.602q0-.601-.313-.941-.308-.34-.855-.34-.371 0-.66.164-.285.16-.449.465a1.57 1.57 0 0 0-.161.738"/><path fill="#000" fill-opacity=".7" d="M209.057 185v-8.727h1.057v7.789h4.056V185zm8.54.153q-.623 0-1.13-.234a1.94 1.94 0 0 1-.805-.686q-.298-.452-.298-1.091 0-.562.221-.912.221-.353.593-.554.37-.2.818-.298.451-.102.907-.162.597-.077.968-.115.375-.043.545-.141.175-.098.175-.341v-.034q0-.63-.345-.98-.342-.35-1.036-.349-.72 0-1.129.315-.41.316-.575.673l-.955-.341q.256-.596.682-.929.43-.336.937-.468a4 4 0 0 1 1.006-.137q.315 0 .725.077.413.072.796.303.388.23.644.694.256.465.256 1.245V185h-1.006v-.886h-.051a1.8 1.8 0 0 1-.341.456 2 2 0 0 1-.635.413q-.396.17-.967.17m.153-.903q.597 0 1.006-.234.413-.235.622-.605.213-.372.213-.78v-.921q-.064.077-.281.141-.213.06-.495.106a21 21 0 0 1-.963.128 4 4 0 0 0-.733.166 1.26 1.26 0 0 0-.545.337q-.204.221-.205.605 0 .525.388.793.392.264.993.264m4.682.75v-6.545h.972v.988h.068q.179-.486.648-.788a1.9 1.9 0 0 1 1.056-.303 11 11 0 0 1 .529.017v1.023a3 3 0 0 0-.234-.038q-.18-.03-.38-.03-.477 0-.852.2a1.468 1.468 0 0 0-.801 1.334V185zm6.908 2.591q-.73 0-1.253-.188a2.7 2.7 0 0 1-.874-.485 2.6 2.6 0 0 1-.549-.64l.801-.562q.136.179.345.409.209.234.571.405.366.175.959.175.792 0 1.308-.384t.516-1.202v-1.329h-.086a5 5 0 0 1-.315.443 1.8 1.8 0 0 1-.579.464q-.375.201-1.015.201a2.73 2.73 0 0 1-1.423-.375q-.626-.375-.993-1.091-.362-.716-.362-1.739 0-1.005.354-1.751.353-.75.984-1.159a2.6 2.6 0 0 1 1.457-.414q.64 0 1.015.213.379.21.579.478.205.264.316.434h.102v-1.039h.971v6.733q0 .843-.383 1.372a2.2 2.2 0 0 1-1.023.779q-.639.252-1.423.252m-.034-3.597q.605 0 1.022-.277.419-.276.635-.797.218-.52.218-1.244 0-.707-.213-1.248a1.87 1.87 0 0 0-.631-.848q-.417-.307-1.031-.307-.639 0-1.066.324a1.97 1.97 0 0 0-.635.869 3.4 3.4 0 0 0-.208 1.21q0 .683.213 1.206.218.52.639.818.426.294 1.057.294m7.449 1.142q-.947 0-1.632-.417a2.8 2.8 0 0 1-1.053-1.176q-.366-.759-.367-1.765 0-1.005.367-1.772a2.9 2.9 0 0 1 1.031-1.202q.665-.435 1.551-.435.512 0 1.01.171.499.17.908.554.41.38.652 1.005.243.627.243 1.543v.426h-5.046v-.869h4.023q0-.554-.221-.989a1.67 1.67 0 0 0-.623-.686 1.75 1.75 0 0 0-.946-.251q-.6 0-1.039.298a1.96 1.96 0 0 0-.669.767 2.24 2.24 0 0 0-.235 1.014v.58q0 .741.256 1.257.26.512.72.78.46.264 1.07.264.395 0 .716-.111.323-.115.558-.341.234-.23.362-.571l.972.273a2.2 2.2 0 0 1-.516.869 2.5 2.5 0 0 1-.895.58 3.3 3.3 0 0 1-1.197.204"/><rect width="168" height="205" x="368" fill="#f8f8f7" rx="8"/><g fill="#84c12f" clip-path="url(#d)"><path d="M451.625 110.186c-9.192 0-18.783-6.253-19.327-18.202-.023-.482-.032-.989-.032-1.495 0-11.358 12.145-27.239 14.578-30.305l3.314-4.171c.356-.45.895-.708 1.467-.708a1.88 1.88 0 0 1 1.467.708l3.314 4.171c2.433 3.07 14.578 18.947 14.578 30.305 0 .506-.009 1.013-.032 1.5-.54 11.948-10.13 18.197-19.327 18.197m0-49.992-1.842 2.325c-5.114 6.445-13.767 19.584-13.767 27.975 0 .45.009.895.028 1.322.436 9.604 8.165 14.625 15.581 14.625s15.145-5.021 15.581-14.62c.019-.437.028-.882.028-1.327 0-8.386-8.653-21.53-13.767-27.975z"/><path d="M451.425 101.566q-.12 0-.239-.014c-7.529-.966-12.619-6.474-12.961-14.03a1.875 1.875 0 0 1 3.745-.174c.309 6.849 5.208 9.905 9.689 10.482a1.88 1.88 0 0 1 1.622 2.1 1.874 1.874 0 0 1-1.856 1.636"/><path d="M451.625 31.75c12.383 0 24.146 4.281 33.563 12.132v-5.194a1.874 1.874 0 1 1 3.75 0v10.124c0 1.036-.84 1.876-1.876 1.876h-10.124a1.875 1.875 0 1 1 0-3.75h6.051c-8.779-7.399-19.779-11.433-31.364-11.433-26.883-.005-48.75 21.862-48.75 48.745S424.742 133 451.625 133s48.75-21.867 48.75-48.75c0-.356-.005-.717-.01-1.073a1.876 1.876 0 0 1 1.848-1.904h.027c1.022 0 1.856.82 1.875 1.847.005.375.01.755.01 1.13 0 28.95-23.55 52.5-52.5 52.5s-52.5-23.55-52.5-52.5 23.55-52.5 52.5-52.5"/></g><path fill="#000" d="M399.637 162.699h-1.461a1.8 1.8 0 0 0-.231-.637 1.7 1.7 0 0 0-.988-.769 2.2 2.2 0 0 0-.684-.102q-.651 0-1.156.329-.504.323-.789.953-.285.624-.285 1.527 0 .918.285 1.547.29.626.789.945.504.317 1.153.317.359 0 .671-.094.316-.097.567-.285.253-.188.426-.461.176-.274.242-.625l1.461.008q-.082.57-.356 1.07a3.2 3.2 0 0 1-.707.883q-.437.378-1.023.593a3.8 3.8 0 0 1-1.301.211q-1.055 0-1.883-.488-.828-.487-1.304-1.41t-.477-2.211q0-1.293.48-2.211.481-.923 1.309-1.41.828-.488 1.875-.488.668 0 1.242.187.574.188 1.024.551.448.359.738.883.293.52.383 1.187m1.264 5.301v-6h1.414v6zm.711-6.852a.83.83 0 0 1-.578-.222.72.72 0 0 1-.242-.543.71.71 0 0 1 .242-.543.82.82 0 0 1 .578-.227q.34 0 .578.227a.7.7 0 0 1 .243.543.72.72 0 0 1-.243.543.82.82 0 0 1-.578.222M403.77 168v-6h1.371v1h.062q.164-.519.563-.801.402-.285.918-.285.117 0 .261.012.149.007.246.027v1.301a1.5 1.5 0 0 0-.285-.055 3 3 0 0 0-.371-.027 1.43 1.43 0 0 0-.695.168 1.24 1.24 0 0 0-.481.457q-.175.292-.175.676V168zm6.731.117q-.898 0-1.543-.394a2.63 2.63 0 0 1-.988-1.09q-.344-.7-.344-1.61 0-.914.352-1.613.351-.703.992-1.094.644-.394 1.523-.394.73 0 1.293.269.567.266.902.754.336.485.383 1.133h-1.351a1.3 1.3 0 0 0-.391-.723q-.305-.293-.816-.293a1.28 1.28 0 0 0-.762.235 1.5 1.5 0 0 0-.512.664q-.18.433-.179 1.039 0 .613.179 1.055.18.437.504.675.328.235.77.235.312 0 .558-.117.25-.121.418-.348t.231-.551h1.351a2.36 2.36 0 0 1-.375 1.129q-.324.489-.883.766-.558.273-1.312.273m7.556-2.64V162h1.414v6H418.1v-1.066h-.063q-.203.504-.668.824-.46.32-1.137.32-.589 0-1.043-.262a1.82 1.82 0 0 1-.703-.769q-.254-.508-.254-1.227V162h1.414v3.602q0 .57.313.906t.82.336q.313 0 .606-.153.293-.152.48-.453.192-.305.192-.761m4.282-5.477v8h-1.414v-8zm3.181 8.121q-.571 0-1.028-.203a1.7 1.7 0 0 1-.719-.609q-.261-.403-.261-.993 0-.507.187-.839.188-.333.512-.532a2.6 2.6 0 0 1 .73-.3q.41-.107.848-.153.528-.054.856-.097.327-.048.476-.141.153-.097.152-.301v-.023q0-.442-.261-.684-.262-.242-.754-.242-.52 0-.824.226-.301.227-.407.536l-1.32-.188q.156-.546.516-.914.358-.37.879-.555a3.4 3.4 0 0 1 1.148-.187q.434 0 .863.101.43.102.785.336.356.231.571.629.219.399.219.996V168h-1.36v-.824h-.047a1.8 1.8 0 0 1-.363.469 1.8 1.8 0 0 1-.582.347 2.4 2.4 0 0 1-.816.129m.367-1.039q.426 0 .738-.168a1.25 1.25 0 0 0 .48-.453q.172-.282.172-.613v-.707a.7.7 0 0 1-.226.101 3 3 0 0 1-.352.082q-.195.035-.386.063l-.333.047q-.315.042-.566.14a.9.9 0 0 0-.394.274.66.66 0 0 0-.145.445q0 .39.285.59t.727.199m7.218-5.082v1.094h-3.449V162zm-2.597-1.438h1.414v5.633q0 .285.086.438.09.148.234.203a.9.9 0 0 0 .32.055q.134 0 .243-.02.113-.02.172-.035l.238 1.105a3 3 0 0 1-.324.086q-.208.048-.508.055a2.3 2.3 0 0 1-.957-.16 1.5 1.5 0 0 1-.676-.555q-.246-.375-.242-.937zm3.78 7.438v-6h1.414v6zm.711-6.852a.83.83 0 0 1-.578-.222.72.72 0 0 1-.242-.543q0-.321.242-.543a.82.82 0 0 1 .578-.227q.34 0 .578.227a.7.7 0 0 1 .242.543q0 .316-.242.543a.82.82 0 0 1-.578.222m4.774 6.969q-.878 0-1.523-.387a2.6 2.6 0 0 1-1-1.082q-.351-.695-.352-1.625 0-.929.352-1.628.355-.7 1-1.086t1.523-.387 1.524.387q.645.386.996 1.086.355.7.355 1.628 0 .93-.355 1.625a2.6 2.6 0 0 1-.996 1.082q-.645.387-1.524.387m.008-1.133q.477 0 .797-.261.321-.265.477-.711.16-.446.16-.992 0-.552-.16-.997a1.57 1.57 0 0 0-.477-.714q-.32-.266-.797-.266-.488 0-.812.266a1.6 1.6 0 0 0-.481.714 3 3 0 0 0-.156.997q0 .546.156.992.16.445.481.711.324.261.812.261m5.482-2.5V168h-1.414v-6h1.351v1.02h.071q.207-.504.66-.801.456-.297 1.129-.297.62 0 1.082.265.464.267.718.77.258.504.254 1.223V168H447.7v-3.602q0-.601-.312-.941-.309-.34-.856-.34-.37 0-.66.164-.285.16-.449.465-.16.304-.16.738"/><path fill="#000" fill-opacity=".7" d="M393.057 185v-8.727h1.057v7.789h4.056V185zm8.54.153q-.623 0-1.13-.234a1.94 1.94 0 0 1-.805-.686q-.298-.452-.298-1.091 0-.562.221-.912.222-.353.593-.554.37-.2.818-.298.451-.102.907-.162.597-.077.968-.115.375-.043.545-.141.175-.098.175-.341v-.034q0-.63-.345-.98-.342-.35-1.036-.349-.72 0-1.129.315-.41.316-.575.673l-.955-.341q.256-.596.682-.929.43-.336.937-.468a4 4 0 0 1 1.006-.137q.315 0 .725.077.413.072.796.303.388.23.644.694.255.465.256 1.245V185h-1.006v-.886h-.051a1.8 1.8 0 0 1-.341.456 2 2 0 0 1-.635.413q-.397.17-.967.17m.153-.903q.597 0 1.006-.234.413-.235.622-.605.213-.372.213-.78v-.921q-.064.077-.281.141-.213.06-.495.106a21 21 0 0 1-.963.128 4 4 0 0 0-.733.166 1.26 1.26 0 0 0-.545.337q-.205.221-.205.605 0 .525.388.793.392.264.993.264m4.682.75v-6.545h.972v.988h.068q.178-.486.648-.788a1.9 1.9 0 0 1 1.056-.303 11 11 0 0 1 .529.017v1.023a3 3 0 0 0-.234-.038q-.18-.03-.38-.03-.477 0-.852.2a1.468 1.468 0 0 0-.801 1.334V185zm6.908 2.591q-.73 0-1.253-.188a2.7 2.7 0 0 1-.874-.485 2.6 2.6 0 0 1-.549-.64l.801-.562q.137.179.345.409.209.234.571.405.366.175.959.175.792 0 1.308-.384t.516-1.202v-1.329h-.086a5 5 0 0 1-.315.443 1.8 1.8 0 0 1-.579.464q-.375.201-1.015.201a2.73 2.73 0 0 1-1.423-.375q-.626-.375-.993-1.091-.362-.716-.362-1.739 0-1.005.354-1.751.353-.75.984-1.159a2.6 2.6 0 0 1 1.457-.414q.64 0 1.015.213.379.21.579.478.205.264.316.434h.102v-1.039h.971v6.733q0 .843-.383 1.372a2.2 2.2 0 0 1-1.023.779q-.639.252-1.423.252m-.034-3.597q.605 0 1.022-.277.419-.276.635-.797.218-.52.218-1.244 0-.707-.213-1.248a1.87 1.87 0 0 0-.631-.848q-.417-.307-1.031-.307-.639 0-1.066.324a1.97 1.97 0 0 0-.635.869 3.4 3.4 0 0 0-.208 1.21q0 .683.213 1.206.217.52.639.818.426.294 1.057.294m7.449 1.142q-.947 0-1.632-.417a2.8 2.8 0 0 1-1.053-1.176q-.367-.759-.367-1.765t.367-1.772a2.9 2.9 0 0 1 1.031-1.202q.664-.435 1.551-.435.512 0 1.01.171.499.17.908.554.41.38.652 1.005.243.627.243 1.543v.426h-5.046v-.869h4.023q0-.554-.221-.989a1.67 1.67 0 0 0-.623-.686 1.75 1.75 0 0 0-.946-.251q-.6 0-1.039.298a1.96 1.96 0 0 0-.669.767 2.24 2.24 0 0 0-.235 1.014v.58q0 .741.256 1.257.26.512.72.78.46.264 1.07.264.395 0 .716-.111.323-.115.558-.341.234-.23.362-.571l.972.273a2.2 2.2 0 0 1-.516.869 2.5 2.5 0 0 1-.895.58 3.3 3.3 0 0 1-1.197.204"/><rect width="168" height="205" x="552" fill="#f8f8f7" rx="8"/><g fill="#84c12f" clip-path="url(#e)"><path d="M635.656 136.75c-28.95 0-52.5-23.55-52.5-52.5 0-11.475 3.633-22.369 10.5-31.51.624-.83 1.8-.993 2.625-.37.83.624.994 1.8.371 2.625-6.38 8.485-9.75 18.6-9.75 29.255 0 26.883 21.867 48.75 48.75 48.75a48.7 48.7 0 0 0 15.014-2.353 1.875 1.875 0 0 1 2.362 1.209 1.875 1.875 0 0 1-1.209 2.363 52.5 52.5 0 0 1-16.167 2.536zM678.448 113.186a1.874 1.874 0 0 1-1.584-2.878c4.931-7.777 7.537-16.79 7.537-26.058 0-26.883-21.867-48.75-48.75-48.75a49 49 0 0 0-11.348 1.327 1.874 1.874 0 0 1-2.259-1.388 1.873 1.873 0 0 1 1.387-2.26 52.9 52.9 0 0 1 12.216-1.429c28.95 0 52.5 23.55 52.5 52.5 0 9.984-2.808 19.688-8.124 28.069a1.88 1.88 0 0 1-1.584.872z"/><path d="M635.656 86.125c-8.789 0-15.937-7.148-15.937-15.937V56.125a1.874 1.874 0 1 1 3.75 0v14.063c0 6.721 5.465 12.187 12.187 12.187s12.188-5.466 12.188-12.187V56.125a1.874 1.874 0 1 1 3.75 0v14.063c0 8.789-7.149 15.937-15.938 15.937"/><path d="M654.406 58h-37.5a1.874 1.874 0 1 1 0-3.75h37.5a1.874 1.874 0 1 1 0 3.75M649.719 114.25a1.874 1.874 0 0 1-1.875-1.875V98.313c0-6.722-5.466-12.188-12.188-12.188s-12.187 5.466-12.187 12.188v14.062a1.874 1.874 0 1 1-3.75 0V98.313c0-8.79 7.148-15.938 15.937-15.938s15.938 7.148 15.938 15.938v14.062a1.874 1.874 0 0 1-1.875 1.875"/><path d="M654.406 114.25h-37.5a1.874 1.874 0 1 1 0-3.75h37.5a1.874 1.874 0 1 1 0 3.75M601.906 58c-7.237 0-13.125-5.888-13.125-13.125s5.888-13.125 13.125-13.125c7.238 0 13.125 5.888 13.125 13.125S609.144 58 601.906 58m0-22.5c-5.17 0-9.375 4.205-9.375 9.375s4.205 9.375 9.375 9.375c5.171 0 9.375-4.205 9.375-9.375s-4.204-9.375-9.375-9.375M669.406 131.125c-7.237 0-13.125-5.888-13.125-13.125s5.888-13.125 13.125-13.125c7.238 0 13.125 5.888 13.125 13.125s-5.887 13.125-13.125 13.125m0-22.5c-5.17 0-9.375 4.205-9.375 9.375s4.205 9.375 9.375 9.375c5.171 0 9.375-4.205 9.375-9.375s-4.204-9.375-9.375-9.375"/></g><path fill="#000" d="M576.437 161.215V160h6.383v1.215h-2.472V168h-1.438v-6.785zm7.551 6.785v-6h1.414v6zm.711-6.852a.83.83 0 0 1-.578-.222.72.72 0 0 1-.242-.543.71.71 0 0 1 .242-.543.82.82 0 0 1 .578-.227q.34 0 .578.227a.7.7 0 0 1 .243.543.72.72 0 0 1-.243.543.82.82 0 0 1-.578.222m2.157 6.852v-6h1.352v1.02h.07q.188-.516.621-.805.434-.293 1.036-.293.609 0 1.027.297.421.292.594.801h.062a1.64 1.64 0 0 1 .672-.797q.477-.301 1.129-.301.828 0 1.352.523.523.523.523 1.528V168h-1.418v-3.809q0-.558-.297-.816a1.06 1.06 0 0 0-.726-.262q-.513 0-.801.321-.285.316-.285.824V168h-1.387v-3.867q0-.465-.281-.742-.277-.278-.727-.278-.304 0-.555.157a1.1 1.1 0 0 0-.398.433 1.35 1.35 0 0 0-.148.649V168zm12.529.117q-.902 0-1.559-.375a2.54 2.54 0 0 1-1.004-1.07q-.351-.695-.351-1.637 0-.926.351-1.625.356-.703.992-1.094.637-.394 1.497-.394.554 0 1.046.18.497.175.875.546.384.372.602.946.219.57.219 1.359v.434h-4.918v-.953h3.562a1.5 1.5 0 0 0-.176-.723 1.27 1.27 0 0 0-.48-.504 1.35 1.35 0 0 0-.711-.184q-.433 0-.762.211a1.46 1.46 0 0 0-.511.547q-.18.336-.184.739v.832q0 .523.191.898.192.37.536.57.344.196.804.196.309 0 .559-.086.25-.09.433-.262.184-.173.278-.426l1.32.149a2.06 2.06 0 0 1-.476.914 2.3 2.3 0 0 1-.891.601 3.4 3.4 0 0 1-1.242.211m5.278-8.117v8h-1.414v-8zm1.454 8v-6h1.414v6zm.711-6.852a.83.83 0 0 1-.578-.222.72.72 0 0 1-.242-.543.71.71 0 0 1 .242-.543.82.82 0 0 1 .578-.227q.34 0 .578.227a.7.7 0 0 1 .242.543q0 .316-.242.543a.82.82 0 0 1-.578.222m3.571 3.336V168h-1.414v-6h1.352v1.02h.07q.207-.504.66-.801.457-.297 1.129-.297.621 0 1.082.265.465.267.719.77.258.504.254 1.223V168h-1.414v-3.602q0-.601-.313-.941-.308-.34-.855-.34-.371 0-.66.164-.285.16-.449.465a1.57 1.57 0 0 0-.161.738m7.946 3.633q-.902 0-1.559-.375a2.54 2.54 0 0 1-1.004-1.07q-.351-.695-.351-1.637 0-.926.351-1.625.356-.703.992-1.094.637-.394 1.497-.394.554 0 1.046.18.497.175.875.546.384.372.602.946.219.57.219 1.359v.434h-4.918v-.953h3.562a1.5 1.5 0 0 0-.176-.723 1.27 1.27 0 0 0-.48-.504 1.35 1.35 0 0 0-.711-.184q-.433 0-.762.211a1.46 1.46 0 0 0-.511.547q-.18.336-.184.739v.832q0 .523.191.898.192.37.536.57.343.196.804.196.309 0 .559-.086.25-.09.433-.262.184-.173.278-.426l1.32.149a2.06 2.06 0 0 1-.476.914 2.3 2.3 0 0 1-.891.601 3.4 3.4 0 0 1-1.242.211"/><path fill="#000" fill-opacity=".7" d="M577.057 185v-8.727h1.057v7.789h4.056V185zm8.54.153q-.623 0-1.13-.234a1.94 1.94 0 0 1-.805-.686q-.298-.452-.298-1.091 0-.562.221-.912.221-.353.593-.554.37-.2.818-.298.451-.102.907-.162.597-.077.968-.115.375-.043.545-.141.175-.098.175-.341v-.034q0-.63-.345-.98-.342-.35-1.036-.349-.72 0-1.129.315-.41.316-.575.673l-.955-.341q.256-.596.682-.929.43-.336.937-.468a4 4 0 0 1 1.006-.137q.315 0 .725.077.413.072.796.303.388.23.644.694.255.465.256 1.245V185h-1.006v-.886h-.051a1.8 1.8 0 0 1-.341.456 2 2 0 0 1-.635.413q-.396.17-.967.17m.153-.903q.597 0 1.006-.234.413-.235.622-.605.213-.372.213-.78v-.921q-.064.077-.281.141-.213.06-.495.106a21 21 0 0 1-.963.128 4 4 0 0 0-.733.166 1.26 1.26 0 0 0-.545.337q-.205.221-.205.605 0 .525.388.793.391.264.993.264m4.682.75v-6.545h.972v.988h.068q.178-.486.648-.788a1.9 1.9 0 0 1 1.056-.303 11 11 0 0 1 .529.017v1.023a3 3 0 0 0-.234-.038q-.18-.03-.38-.03-.477 0-.852.2a1.468 1.468 0 0 0-.801 1.334V185zm6.908 2.591q-.73 0-1.253-.188a2.7 2.7 0 0 1-.874-.485 2.6 2.6 0 0 1-.549-.64l.801-.562q.136.179.345.409.209.234.571.405.366.175.959.175.792 0 1.308-.384t.516-1.202v-1.329h-.086a5 5 0 0 1-.315.443 1.8 1.8 0 0 1-.579.464q-.375.201-1.015.201a2.73 2.73 0 0 1-1.423-.375q-.626-.375-.993-1.091-.362-.716-.362-1.739 0-1.005.354-1.751.353-.75.984-1.159a2.6 2.6 0 0 1 1.457-.414q.64 0 1.015.213.379.21.579.478.205.264.316.434h.102v-1.039h.971v6.733q0 .843-.383 1.372a2.2 2.2 0 0 1-1.023.779q-.639.252-1.423.252m-.034-3.597q.605 0 1.022-.277.419-.276.635-.797.218-.52.218-1.244 0-.707-.213-1.248a1.87 1.87 0 0 0-.631-.848q-.417-.307-1.031-.307-.639 0-1.066.324a1.97 1.97 0 0 0-.635.869 3.4 3.4 0 0 0-.208 1.21q0 .683.213 1.206.217.52.639.818.426.294 1.057.294m7.449 1.142q-.946 0-1.632-.417a2.8 2.8 0 0 1-1.053-1.176q-.366-.759-.367-1.765 0-1.005.367-1.772a2.9 2.9 0 0 1 1.031-1.202q.664-.435 1.551-.435.512 0 1.01.171.499.17.908.554.41.38.652 1.005.243.627.243 1.543v.426h-5.046v-.869h4.023q0-.554-.221-.989a1.67 1.67 0 0 0-.623-.686 1.75 1.75 0 0 0-.946-.251q-.6 0-1.039.298a1.96 1.96 0 0 0-.669.767 2.24 2.24 0 0 0-.235 1.014v.58q0 .741.256 1.257.26.512.72.78.46.264 1.07.264.395 0 .716-.111.323-.115.558-.341.234-.23.362-.571l.972.273a2.2 2.2 0 0 1-.516.869 2.5 2.5 0 0 1-.895.58 3.3 3.3 0 0 1-1.197.204"/><rect width="168" height="205" x="736" fill="#f8f8f7" rx="8"/><g fill="#84c12f" clip-path="url(#f)"><path d="M820.191 136.75c-9.182 0-30.391-19.226-42.216-30.686a9.43 9.43 0 0 1-2.85-6.73V52.438c0-1.472.628-2.878 1.725-3.853a5.22 5.22 0 0 1 4.059-1.284c15.191 1.743 29.936-9.327 35.575-14.17a5.66 5.66 0 0 1 7.41 0c5.634 4.843 20.384 15.913 35.575 14.17a5.22 5.22 0 0 1 4.059 1.284 5.17 5.17 0 0 1 1.725 3.853v9.829a1.874 1.874 0 1 1-3.75 0v-9.83c0-.552-.295-.9-.473-1.054a1.44 1.44 0 0 0-1.139-.356c-16.658 1.912-32.435-9.885-38.444-15.05a1.92 1.92 0 0 0-2.521 0c-5.564 4.78-19.513 15.256-34.774 15.256-1.218 0-2.442-.065-3.67-.206a1.46 1.46 0 0 0-1.139.356c-.178.16-.473.506-.473 1.055v46.89c0 1.513.623 2.985 1.706 4.04C799.151 121.367 814.698 133 820.182 133s21.036-11.628 39.606-29.631a5.65 5.65 0 0 0 1.706-4.04V75.54a1.874 1.874 0 1 1 3.75 0v23.787a9.4 9.4 0 0 1-2.85 6.731c-11.826 11.46-33.035 30.686-42.217 30.686z"/><path d="M842.291 89.645h-17.445a1.874 1.874 0 1 1 0-3.75h15.57v-3.28h-15.702a1.874 1.874 0 0 1-1.875-1.875V65.038h-3.281V80.74a1.874 1.874 0 1 1-3.749 0V63.163c0-1.036.839-1.875 1.874-1.875h7.031c1.036 0 1.875.84 1.875 1.875v15.702h15.702c1.035 0 1.874.839 1.874 1.875v7.03a1.874 1.874 0 0 1-1.874 1.875"/><path d="M824.712 107.221h-7.03a1.874 1.874 0 0 1-1.875-1.874V89.645h-15.702a1.874 1.874 0 0 1-1.875-1.875v-7.03c0-1.036.839-1.875 1.875-1.875h16.648a1.874 1.874 0 1 1 0 3.75H801.98v3.28h15.702c1.036 0 1.875.84 1.875 1.875v15.702h3.281V87.77a1.874 1.874 0 1 1 3.749 0v17.577a1.874 1.874 0 0 1-1.875 1.874"/></g><path fill="#000" d="M762.238 160v8h-1.449v-8zm1.507 8v-6h1.352v1.02h.07q.188-.516.621-.805.433-.293 1.035-.293.61 0 1.028.297.422.292.593.801h.063a1.64 1.64 0 0 1 .672-.797q.476-.301 1.129-.301.828 0 1.351.523.524.523.524 1.528V168h-1.418v-3.809q0-.558-.297-.816a1.06 1.06 0 0 0-.727-.262q-.511 0-.801.321-.285.316-.285.824V168h-1.386v-3.867q0-.465-.282-.742-.278-.278-.726-.278-.305 0-.555.157a1.1 1.1 0 0 0-.398.433 1.36 1.36 0 0 0-.149.649V168zm9.872 0v-6h1.352v1.02h.07q.188-.516.621-.805.433-.293 1.035-.293.61 0 1.028.297.422.292.593.801h.063a1.64 1.64 0 0 1 .672-.797q.476-.301 1.129-.301.828 0 1.351.523.524.523.524 1.528V168h-1.418v-3.809q0-.558-.297-.816a1.06 1.06 0 0 0-.727-.262q-.512 0-.8.321-.286.316-.286.824V168h-1.386v-3.867q0-.465-.282-.742-.277-.278-.726-.278-.304 0-.555.157a1.1 1.1 0 0 0-.398.433 1.36 1.36 0 0 0-.149.649V168zm13.696-2.523V162h1.415v6h-1.372v-1.066h-.062q-.203.504-.668.824-.46.32-1.137.32-.59 0-1.043-.262a1.8 1.8 0 0 1-.703-.769q-.254-.508-.254-1.227V162h1.414v3.602q0 .57.313.906t.82.336q.312 0 .606-.153.293-.152.48-.453.192-.305.191-.761m4.283-.993V168h-1.414v-6h1.351v1.02h.071q.207-.504.66-.801.456-.297 1.129-.297.62 0 1.082.265.465.267.718.77.258.504.254 1.223V168h-1.414v-3.602q0-.601-.312-.941-.309-.34-.856-.34-.37 0-.66.164-.285.16-.449.465-.16.304-.16.738m5.289 3.516v-6h1.414v6zm.711-6.852a.83.83 0 0 1-.578-.222.72.72 0 0 1-.243-.543q0-.321.243-.543a.82.82 0 0 1 .578-.227.8.8 0 0 1 .578.227.71.71 0 0 1 .242.543.72.72 0 0 1-.242.543.82.82 0 0 1-.578.222m5.153.852v1.094H799.3V162zm-2.598-1.438h1.414v5.633q0 .285.086.438.09.148.235.203a.9.9 0 0 0 .32.055q.133 0 .242-.02.114-.02.172-.035l.238 1.105a3 3 0 0 1-.324.086q-.207.048-.508.055a2.3 2.3 0 0 1-.957-.16 1.5 1.5 0 0 1-.675-.555q-.247-.375-.243-.937zm4.66 9.688a2.9 2.9 0 0 1-.922-.148l.328-1.102q.309.09.551.086a.68.68 0 0 0 .425-.152q.188-.145.317-.485l.121-.324-2.176-6.125h1.5l1.383 4.531h.062l1.387-4.531h1.504l-2.402 6.727a2.7 2.7 0 0 1-.446.816 1.8 1.8 0 0 1-.679.523q-.4.184-.953.184"/><path fill="#000" fill-opacity=".7" d="M761.057 185v-8.727h1.057v7.789h4.056V185zm8.54.153q-.623 0-1.13-.234a1.94 1.94 0 0 1-.805-.686q-.298-.452-.298-1.091 0-.562.221-.912.221-.353.593-.554.37-.2.818-.298.451-.102.907-.162.597-.077.968-.115.375-.043.545-.141.175-.098.175-.341v-.034q0-.63-.345-.98-.342-.35-1.036-.349-.72 0-1.129.315-.41.316-.575.673l-.955-.341q.256-.596.682-.929.43-.336.937-.468a4 4 0 0 1 1.006-.137q.315 0 .725.077.413.072.796.303.388.23.644.694.256.465.256 1.245V185h-1.006v-.886h-.051a1.8 1.8 0 0 1-.341.456 2 2 0 0 1-.635.413q-.396.17-.967.17m.153-.903q.597 0 1.006-.234.413-.235.622-.605.213-.372.213-.78v-.921q-.064.077-.281.141-.213.06-.495.106a21 21 0 0 1-.963.128 4 4 0 0 0-.733.166 1.26 1.26 0 0 0-.545.337q-.204.221-.205.605 0 .525.388.793.391.264.993.264m4.682.75v-6.545h.972v.988h.068q.179-.486.648-.788a1.9 1.9 0 0 1 1.056-.303 11 11 0 0 1 .529.017v1.023a3 3 0 0 0-.234-.038q-.18-.03-.38-.03-.477 0-.852.2a1.468 1.468 0 0 0-.801 1.334V185zm6.908 2.591q-.73 0-1.253-.188a2.7 2.7 0 0 1-.874-.485 2.6 2.6 0 0 1-.549-.64l.801-.562q.136.179.345.409.209.234.571.405.366.175.959.175.792 0 1.308-.384t.516-1.202v-1.329h-.086a5 5 0 0 1-.315.443 1.8 1.8 0 0 1-.579.464q-.375.201-1.015.201a2.73 2.73 0 0 1-1.423-.375q-.626-.375-.993-1.091-.362-.716-.362-1.739 0-1.005.354-1.751.353-.75.984-1.159a2.6 2.6 0 0 1 1.457-.414q.64 0 1.015.213.379.21.579.478.205.264.316.434h.102v-1.039h.971v6.733q0 .843-.383 1.372a2.2 2.2 0 0 1-1.023.779q-.639.252-1.423.252m-.034-3.597q.605 0 1.022-.277.419-.276.635-.797.218-.52.218-1.244 0-.707-.213-1.248a1.87 1.87 0 0 0-.631-.848q-.417-.307-1.031-.307-.639 0-1.066.324a1.97 1.97 0 0 0-.635.869 3.4 3.4 0 0 0-.208 1.21q0 .683.213 1.206.217.52.639.818.426.294 1.057.294m7.449 1.142q-.946 0-1.632-.417a2.8 2.8 0 0 1-1.053-1.176q-.366-.759-.367-1.765 0-1.005.367-1.772a2.9 2.9 0 0 1 1.031-1.202q.664-.435 1.551-.435.512 0 1.01.171.499.17.908.554.41.38.652 1.005.243.627.243 1.543v.426h-5.046v-.869h4.023q0-.554-.221-.989a1.67 1.67 0 0 0-.623-.686 1.75 1.75 0 0 0-.946-.251q-.6 0-1.039.298a1.96 1.96 0 0 0-.669.767 2.24 2.24 0 0 0-.235 1.014v.58q0 .741.256 1.257.26.512.72.78.46.264 1.07.264.395 0 .716-.111.323-.115.558-.341.234-.23.362-.571l.972.273a2.2 2.2 0 0 1-.516.869 2.5 2.5 0 0 1-.895.58 3.3 3.3 0 0 1-1.197.204"/></g><defs><clipPath id="a"><path fill="#fff" d="M0 0h904v205H0z"/></clipPath><clipPath id="b"><path fill="#fff" d="M29.16 31.5h109.676v105H29.16z"/></clipPath><clipPath id="c"><path fill="#fff" d="M226.125 31.75h83.906v105h-83.906z"/></clipPath><clipPath id="d"><path fill="#fff" d="M399.125 31.75h105v105h-105z"/></clipPath><clipPath id="e"><path fill="#fff" d="M583.156 31.75h105v105h-105z"/></clipPath><clipPath id="f"><path fill="#fff" d="M775.125 31.75h90.133v105h-90.133z"/></clipPath></defs></svg>