<svg xmlns="http://www.w3.org/2000/svg" fill="none" viewBox="0 0 410 50"><rect width="184" height="49" x=".5" y=".5" fill="#002c4e" rx="24.5"/><rect width="184" height="49" x=".5" y=".5" stroke="#002c4e" rx="24.5"/><path stroke="#fff" stroke-linecap="round" stroke-linejoin="round" d="M41.995 27.895c.098.247.12.518.062.778l-.71 2.193a.666.666 0 0 0 .824.779l2.276-.666c.245-.048.499-.027.732.062a6.667 6.667 0 1 0-3.184-3.146"/><path fill="#fff" d="M76.34 30.098q-1.022 0-1.848-.35a3.03 3.03 0 0 1-1.288-1.008q-.475-.659-.49-1.554h2.1q.042.602.42.952.392.35 1.064.35.686 0 1.078-.322a1.09 1.09 0 0 0 .392-.868 1 1 0 0 0-.266-.714 1.8 1.8 0 0 0-.672-.434 9 9 0 0 0-1.092-.364 13 13 0 0 1-1.554-.546 2.9 2.9 0 0 1-1.022-.826q-.42-.56-.42-1.484 0-.869.434-1.512.434-.645 1.218-.98.784-.35 1.792-.35 1.512 0 2.45.742.953.728 1.05 2.044H77.53a1.09 1.09 0 0 0-.434-.826q-.392-.336-1.05-.336-.574 0-.924.294-.336.294-.336.854 0 .391.252.658.266.252.644.42.391.154 1.092.364.953.28 1.554.56t1.036.84.434 1.47q0 .784-.406 1.456-.405.672-1.19 1.078-.784.392-1.862.392m7.44-6.244v3.752q0 .392.181.574.196.168.644.168h.91V30h-1.232q-2.478 0-2.478-2.408v-3.738h-.924v-1.61h.924v-1.918h1.974v1.918h1.736v1.61zm2.641 2.24q0-1.177.462-2.086.476-.91 1.274-1.4a3.43 3.43 0 0 1 1.806-.49q.868 0 1.512.35.659.35 1.05.882v-1.106h1.974V30h-1.974v-1.134q-.378.546-1.05.91-.658.35-1.526.35-.98 0-1.792-.504-.798-.504-1.274-1.414-.462-.924-.462-2.114m6.104.028q0-.714-.28-1.218a1.9 1.9 0 0 0-.756-.784 2 2 0 0 0-1.022-.28q-.546 0-1.008.266a2.04 2.04 0 0 0-.756.784q-.28.504-.28 1.204t.28 1.232q.294.518.756.798.475.28 1.008.28.546 0 1.022-.266.476-.28.756-.784.28-.518.28-1.232m5.848-2.674q.378-.616.98-.966.616-.35 1.4-.35v2.058h-.518q-.924 0-1.4.434-.462.434-.462 1.512V30h-1.96v-7.756h1.96zm5.982.406v3.752q0 .392.182.574.197.168.644.168h.91V30h-1.232q-2.478 0-2.478-2.408v-3.738h-.924v-1.61h.924v-1.918h1.974v1.918h1.736v1.61zm6.006 1.246q0-1.442.644-2.576a4.65 4.65 0 0 1 1.778-1.778q1.134-.645 2.534-.644 1.638 0 2.87.84 1.231.84 1.722 2.324h-2.254q-.336-.7-.952-1.05-.602-.35-1.4-.35-.854 0-1.526.406a2.74 2.74 0 0 0-1.036 1.12q-.364.728-.364 1.708 0 .966.364 1.708.378.727 1.036 1.134.672.392 1.526.392.798 0 1.4-.35.616-.364.952-1.064h2.254q-.49 1.498-1.722 2.338-1.218.826-2.87.826-1.4 0-2.534-.63a4.8 4.8 0 0 1-1.778-1.778q-.644-1.134-.644-2.576m15.59-2.968q.882 0 1.568.392.687.378 1.064 1.134.392.742.392 1.792V30h-1.96v-4.284q0-.924-.462-1.414-.462-.504-1.26-.504-.811 0-1.288.504-.462.49-.462 1.414V30h-1.96V19.64h1.96v3.57a2.5 2.5 0 0 1 1.008-.784q.63-.294 1.4-.294m4.384 3.962q0-1.177.462-2.086.476-.91 1.274-1.4a3.43 3.43 0 0 1 1.806-.49q.868 0 1.512.35.659.35 1.05.882v-1.106h1.974V30h-1.974v-1.134q-.378.546-1.05.91-.658.35-1.526.35a3.33 3.33 0 0 1-1.792-.504q-.798-.504-1.274-1.414-.462-.924-.462-2.114m6.104.028q0-.714-.28-1.218a1.9 1.9 0 0 0-.756-.784 2 2 0 0 0-1.022-.28q-.546 0-1.008.266a2.04 2.04 0 0 0-.756.784q-.28.504-.28 1.204t.28 1.232q.294.518.756.798.476.28 1.008.28.546 0 1.022-.266.475-.28.756-.784.28-.518.28-1.232m6.17-2.268v3.752q0 .392.182.574.197.168.644.168h.91V30h-1.232q-2.478 0-2.478-2.408v-3.738h-.924v-1.61h.924v-1.918h1.974v1.918h1.736v1.61z"/><rect width="184" height="49" x="225.5" y=".5" fill="#002c4e" rx="24.5"/><rect width="184" height="49" x="225.5" y=".5" stroke="#002c4e" rx="24.5"/><path fill="#fff" d="M269.34 30.098q-1.022 0-1.848-.35a3.03 3.03 0 0 1-1.288-1.008q-.476-.659-.49-1.554h2.1q.042.602.42.952.392.35 1.064.35.686 0 1.078-.322.392-.336.392-.868a1 1 0 0 0-.266-.714 1.8 1.8 0 0 0-.672-.434 9 9 0 0 0-1.092-.364 13 13 0 0 1-1.554-.546 2.9 2.9 0 0 1-1.022-.826q-.42-.56-.42-1.484 0-.869.434-1.512.434-.645 1.218-.98.784-.35 1.792-.35 1.512 0 2.45.742.953.728 1.05 2.044h-2.156a1.09 1.09 0 0 0-.434-.826q-.392-.336-1.05-.336-.575 0-.924.294-.336.294-.336.854 0 .391.252.658.266.252.644.42.392.154 1.092.364.952.28 1.554.56t1.036.84.434 1.47q0 .784-.406 1.456t-1.19 1.078q-.784.392-1.862.392m7.439-6.244v3.752q0 .392.182.574.197.168.644.168h.91V30h-1.232q-2.478 0-2.478-2.408v-3.738h-.924v-1.61h.924v-1.918h1.974v1.918h1.736v1.61zm2.642 2.24q0-1.177.462-2.086.476-.91 1.274-1.4a3.43 3.43 0 0 1 1.806-.49q.868 0 1.512.35.659.35 1.05.882v-1.106h1.974V30h-1.974v-1.134q-.378.546-1.05.91-.658.35-1.526.35a3.33 3.33 0 0 1-1.792-.504q-.798-.504-1.274-1.414-.462-.924-.462-2.114m6.104.028q0-.714-.28-1.218a1.9 1.9 0 0 0-.756-.784 2 2 0 0 0-1.022-.28q-.546 0-1.008.266a2.04 2.04 0 0 0-.756.784q-.28.504-.28 1.204t.28 1.232q.294.518.756.798.475.28 1.008.28.546 0 1.022-.266.476-.28.756-.784.28-.518.28-1.232m5.848-2.674q.378-.616.98-.966.617-.35 1.4-.35v2.058h-.518q-.923 0-1.4.434-.462.434-.462 1.512V30h-1.96v-7.756h1.96zm5.982.406v3.752q0 .392.182.574.197.168.644.168h.91V30h-1.232q-2.478 0-2.478-2.408v-3.738h-.924v-1.61h.924v-1.918h1.974v1.918h1.736v1.61zm6.006 1.246q0-1.442.644-2.576a4.65 4.65 0 0 1 1.778-1.778q1.134-.645 2.534-.644 1.638 0 2.87.84 1.231.84 1.722 2.324h-2.254q-.336-.7-.952-1.05-.602-.35-1.4-.35-.854 0-1.526.406a2.74 2.74 0 0 0-1.036 1.12q-.364.728-.364 1.708 0 .966.364 1.708.378.727 1.036 1.134.672.392 1.526.392.798 0 1.4-.35.616-.364.952-1.064h2.254q-.49 1.498-1.722 2.338-1.218.826-2.87.826-1.4 0-2.534-.63a4.8 4.8 0 0 1-1.778-1.778q-.644-1.134-.644-2.576m15.59-2.968q.882 0 1.568.392.687.378 1.064 1.134.392.742.392 1.792V30h-1.96v-4.284q0-.924-.462-1.414-.462-.504-1.26-.504-.811 0-1.288.504-.462.49-.462 1.414V30h-1.96V19.64h1.96v3.57a2.5 2.5 0 0 1 1.008-.784q.63-.294 1.4-.294m4.384 3.962q0-1.177.462-2.086.476-.91 1.274-1.4a3.43 3.43 0 0 1 1.806-.49q.868 0 1.512.35.659.35 1.05.882v-1.106h1.974V30h-1.974v-1.134q-.378.546-1.05.91-.658.35-1.526.35a3.33 3.33 0 0 1-1.792-.504q-.798-.504-1.274-1.414-.462-.924-.462-2.114m6.104.028q0-.714-.28-1.218a1.9 1.9 0 0 0-.756-.784 2 2 0 0 0-1.022-.28q-.546 0-1.008.266a2.04 2.04 0 0 0-.756.784q-.28.504-.28 1.204t.28 1.232q.294.518.756.798.475.28 1.008.28.546 0 1.022-.266.476-.28.756-.784.28-.518.28-1.232m6.17-2.268v3.752q0 .392.182.574.197.168.644.168h.91V30h-1.232q-2.478 0-2.478-2.408v-3.738h-.924v-1.61h.924v-1.918h1.974v1.918h1.736v1.61z"/><path stroke="#fff" stroke-linecap="round" stroke-linejoin="round" d="M355.995 27.895c.098.247.119.518.062.778l-.71 2.193a.667.667 0 0 0 .824.779l2.276-.666a1.33 1.33 0 0 1 .732.062 6.669 6.669 0 0 0 9.46-6.651 6.666 6.666 0 1 0-12.644 3.505"/></svg>