<svg xmlns="http://www.w3.org/2000/svg" fill="none" viewBox="0 0 209 72"><rect width="209" height="72" fill="#002c4e" rx="36"/><path fill="#fff" d="M39.356 44.168q-1.656 0-2.928-.576-1.248-.576-1.968-1.608a4.22 4.22 0 0 1-.768-2.304h1.776q.12 1.224 1.08 2.16.96.912 2.808.912 1.704 0 2.688-.864 1.008-.888 1.008-2.232 0-1.08-.552-1.728a3.24 3.24 0 0 0-1.368-.984q-.816-.336-2.256-.72-1.68-.456-2.664-.888a4.24 4.24 0 0 1-1.68-1.344q-.696-.912-.696-2.472 0-1.296.672-2.304.672-1.032 1.896-1.608t2.808-.576q2.328 0 3.744 1.152 1.44 1.128 1.656 2.928h-1.824q-.168-1.032-1.128-1.824-.96-.816-2.592-.816-1.512 0-2.52.816-1.008.792-1.008 2.184 0 1.056.552 1.704t1.368.984q.84.336 2.256.72 1.632.456 2.64.912 1.008.432 1.704 1.344t.696 2.448a4.3 4.3 0 0 1-.624 2.232q-.624 1.056-1.848 1.704t-2.928.648m14.886-13.512q1.488 0 2.664.624 1.2.624 1.872 1.92.696 1.272.696 3.12V44h-1.656v-7.488q0-2.136-1.08-3.264-1.056-1.128-2.904-1.128-1.896 0-3.024 1.2t-1.128 3.528V44h-1.68V26.24h1.68v6.888a4.36 4.36 0 0 1 1.824-1.824q1.224-.648 2.736-.648m14.684 13.536q-1.849 0-3.337-.816a6.2 6.2 0 0 1-2.328-2.352q-.84-1.536-.84-3.576t.864-3.552q.864-1.536 2.353-2.352 1.487-.84 3.335-.84 1.849 0 3.337.84a5.74 5.74 0 0 1 2.352 2.352q.863 1.512.863 3.552 0 2.016-.864 3.552a6.06 6.06 0 0 1-2.376 2.376q-1.51.816-3.36.816m0-1.464a5.1 5.1 0 0 0 2.4-.576q1.104-.6 1.776-1.776.695-1.2.695-2.928t-.671-2.904q-.673-1.2-1.776-1.776-1.104-.6-2.4-.6-1.297 0-2.4.6-1.104.576-1.776 1.776-.649 1.176-.648 2.904 0 1.728.647 2.928.673 1.176 1.752 1.776a5.1 5.1 0 0 0 2.4.576m11.318-8.952q.624-1.32 1.968-2.184 1.368-.888 3.24-.888 1.776 0 3.192.84 1.44.816 2.232 2.352.816 1.512.816 3.528t-.816 3.552q-.792 1.536-2.232 2.376-1.416.84-3.192.84-1.848 0-3.216-.864-1.368-.888-1.992-2.208v9.072h-1.656V30.896h1.656zm9.744 3.648q0-1.632-.648-2.808-.624-1.2-1.728-1.824t-2.496-.624q-1.344 0-2.472.648-1.104.648-1.752 1.848t-.648 2.784.648 2.784 1.752 1.848a4.9 4.9 0 0 0 2.472.648q1.392 0 2.496-.624 1.104-.648 1.728-1.848.648-1.224.648-2.832M115.433 44h-3.36l-7.608-11.496V44h-3.36V27.224h3.36l7.608 11.52v-11.52h3.36zm9.225.216q-1.92 0-3.456-.84a6.3 6.3 0 0 1-2.424-2.424q-.864-1.56-.864-3.6t.888-3.6a6.25 6.25 0 0 1 2.472-2.4q1.56-.864 3.48-.864t3.48.864a6.1 6.1 0 0 1 2.448 2.4q.912 1.56.912 3.6t-.936 3.6a6.4 6.4 0 0 1-2.496 2.424q-1.56.84-3.504.84m0-2.928q.912 0 1.704-.432.816-.456 1.296-1.344t.48-2.16q0-1.896-1.008-2.904-.984-1.032-2.424-1.032t-2.424 1.032q-.96 1.008-.96 2.904t.936 2.928q.96 1.008 2.4 1.008m27.832-10.584L148.602 44h-3.624l-2.424-9.288L140.13 44h-3.648l-3.912-13.296h3.408l2.352 10.128 2.544-10.128h3.552l2.496 10.104 2.352-10.104z"/><path stroke="#fff" stroke-linecap="round" stroke-linejoin="round" d="M164.333 36h9.334M169 31.333 173.667 36 169 40.667"/></svg>