<svg xmlns="http://www.w3.org/2000/svg" fill="none" viewBox="0 0 892 90"><rect width="890.578" height="89" x=".5" y=".5" stroke="#9747ff" stroke-dasharray="10 5" rx="4.5"/><rect width="398" height="49" x="20.5" y="20.5" fill="#002c4e" rx="24.5"/><rect width="398" height="49" x="20.5" y="20.5" stroke="#002c4e" rx="24.5"/><path stroke="#fff" stroke-linecap="round" stroke-linejoin="round" d="M135.333 51.667a.667.667 0 1 0 0-1.334.667.667 0 0 0 0 1.334M142.667 51.667a.666.666 0 1 0 0-1.333.666.666 0 0 0 0 1.333M131.367 38.367h1.333l1.773 8.28a1.33 1.33 0 0 0 1.334 1.053h6.52a1.336 1.336 0 0 0 1.3-1.047l1.1-4.953h-11.314"/><path fill="#fff" d="M168.958 48.138h-3.892L164.422 50h-2.058l3.514-9.786h2.282L171.674 50h-2.072zm-.532-1.568-1.414-4.088-1.414 4.088zm4.057-.476q0-1.176.462-2.086.477-.91 1.288-1.4a3.43 3.43 0 0 1 1.806-.49q.756 0 1.442.336.687.322 1.092.868V39.64h1.988V50h-1.988v-1.148q-.363.574-1.022.924-.657.35-1.526.35-.98 0-1.792-.504a3.6 3.6 0 0 1-1.288-1.414q-.462-.923-.462-2.114m6.104.028q0-.714-.28-1.218a1.9 1.9 0 0 0-.756-.784 2 2 0 0 0-1.022-.28q-.546 0-1.008.266a2.04 2.04 0 0 0-.756.784q-.28.504-.28 1.204t.28 1.232q.294.517.756.798.477.28 1.008.28.546 0 1.022-.266.477-.28.756-.784.28-.518.28-1.232m3.385-.028q0-1.176.462-2.086.475-.91 1.288-1.4a3.43 3.43 0 0 1 1.806-.49q.756 0 1.442.336a2.8 2.8 0 0 1 1.092.868V39.64h1.988V50h-1.988v-1.148q-.365.574-1.022.924-.659.35-1.526.35a3.33 3.33 0 0 1-1.792-.504 3.56 3.56 0 0 1-1.288-1.414q-.462-.923-.462-2.114m6.104.028q0-.714-.28-1.218a1.9 1.9 0 0 0-.756-.784 2 2 0 0 0-1.022-.28q-.546 0-1.008.266a2.04 2.04 0 0 0-.756.784q-.28.504-.28 1.204t.28 1.232q.294.517.756.798.475.28 1.008.28.546 0 1.022-.266.476-.28.756-.784.28-.518.28-1.232m9.506-2.268v3.752q0 .392.182.574.196.168.644.168h.91V50h-1.232q-2.478 0-2.478-2.408v-3.738h-.924v-1.61h.924v-1.918h1.974v1.918h1.736v1.61zm6.59 6.272q-1.12 0-2.016-.49a3.67 3.67 0 0 1-1.414-1.414q-.504-.91-.504-2.1t.518-2.1a3.64 3.64 0 0 1 1.442-1.4 4.1 4.1 0 0 1 2.03-.504q1.12 0 2.03.504a3.56 3.56 0 0 1 1.428 1.4q.532.91.532 2.1t-.546 2.1a3.7 3.7 0 0 1-1.456 1.414q-.91.49-2.044.49m0-1.708q.532 0 .994-.252a1.9 1.9 0 0 0 .756-.784q.28-.518.28-1.26 0-1.106-.588-1.694a1.88 1.88 0 0 0-1.414-.602q-.84 0-1.414.602-.56.588-.56 1.694t.546 1.708q.56.588 1.4.588m8.343-3.318q0-1.442.644-2.576a4.66 4.66 0 0 1 1.778-1.778q1.134-.645 2.534-.644 1.638 0 2.87.84t1.722 2.324h-2.254q-.336-.7-.952-1.05-.602-.35-1.4-.35-.854 0-1.526.406a2.74 2.74 0 0 0-1.036 1.12q-.363.728-.364 1.708 0 .966.364 1.708a2.84 2.84 0 0 0 1.036 1.134q.672.392 1.526.392.798 0 1.4-.35.616-.364.952-1.064h2.254q-.489 1.498-1.722 2.338-1.218.825-2.87.826-1.4 0-2.534-.63a4.8 4.8 0 0 1-1.778-1.778q-.644-1.134-.644-2.576m10.718.994q0-1.176.462-2.086.476-.91 1.274-1.4a3.43 3.43 0 0 1 1.806-.49q.869 0 1.512.35.658.35 1.05.882v-1.106h1.974V50h-1.974v-1.134q-.378.546-1.05.91-.657.35-1.526.35-.98 0-1.792-.504-.798-.504-1.274-1.414-.462-.923-.462-2.114m6.104.028q0-.714-.28-1.218a1.9 1.9 0 0 0-.756-.784 2 2 0 0 0-1.022-.28q-.546 0-1.008.266a2.04 2.04 0 0 0-.756.784q-.28.504-.28 1.204t.28 1.232q.294.517.756.798.477.28 1.008.28.546 0 1.022-.266.477-.28.756-.784.28-.518.28-1.232m5.849-2.674q.378-.616.98-.966.615-.35 1.4-.35v2.058h-.518q-.924 0-1.4.434-.462.434-.462 1.512V50h-1.96v-7.756h1.96zm5.982.406v3.752q0 .392.182.574.196.168.644.168h.91V50h-1.232q-2.478 0-2.478-2.408v-3.738h-.924v-1.61h.924v-1.918h1.974v1.918h1.736v1.61zM267.938 47.186q0 .728-.378 1.372-.365.63-1.092 1.05-.714.406-1.694.476v1.134h-.896V50.07q-1.4-.126-2.254-.84-.853-.728-.882-1.96h2.1q.084 1.008 1.036 1.218v-2.674a12 12 0 0 1-1.624-.504 2.6 2.6 0 0 1-1.064-.812q-.448-.56-.448-1.526 0-1.218.868-1.988.882-.77 2.268-.882v-1.134h.896v1.134q1.344.112 2.142.812.812.7.91 1.932h-2.114a1.25 1.25 0 0 0-.294-.7 1.26 1.26 0 0 0-.644-.434v2.646q1.05.266 1.652.518.616.238 1.064.798.448.546.448 1.512m-5.152-4.312q0 .462.28.756.28.28.812.462V41.67q-.504.07-.798.378-.294.307-.294.826m1.988 5.642q.532-.098.826-.434a1.16 1.16 0 0 0 .308-.812q0-.462-.294-.742t-.84-.462zm11.988-7.028h-4.536v2.394q.294-.364.84-.588a2.9 2.9 0 0 1 1.162-.238q1.12 0 1.834.49a2.83 2.83 0 0 1 1.036 1.26q.322.756.322 1.624 0 1.61-.924 2.59-.91.98-2.604.98-1.596 0-2.548-.798t-1.078-2.086h1.904q.126.56.56.896.448.336 1.134.336.826 0 1.246-.518t.42-1.372q0-.868-.434-1.316-.42-.462-1.246-.462-.588 0-.98.294a1.6 1.6 0 0 0-.56.784h-1.876v-5.992h6.328zm7.442.854q-.14-.588-.49-.882-.336-.294-.98-.294-.966 0-1.428.784-.449.77-.462 2.52a2.23 2.23 0 0 1 .98-.868 3.1 3.1 0 0 1 1.4-.322q.91 0 1.61.392t1.092 1.148q.392.742.392 1.792 0 .994-.406 1.778a2.83 2.83 0 0 1-1.162 1.204q-.77.434-1.834.434-1.456 0-2.296-.644-.826-.645-1.162-1.792-.322-1.162-.322-2.856 0-2.562.882-3.864.882-1.316 2.786-1.316 1.47 0 2.282.798t.938 1.988zm-1.428 2.548q-.742 0-1.246.434-.504.435-.504 1.26 0 .826.462 1.302.476.476 1.33.476.756 0 1.19-.462.448-.462.448-1.246 0-.811-.434-1.288-.42-.476-1.246-.476m6.183 5.208q-.533 0-.882-.322a1.12 1.12 0 0 1-.336-.826q0-.49.336-.812.35-.336.882-.336.518 0 .854.336.336.322.336.812t-.336.826q-.336.322-.854.322m2.545-5.334q0-2.423.868-3.794.882-1.372 2.912-1.372t2.898 1.372q.882 1.373.882 3.794 0 2.436-.882 3.822-.869 1.386-2.898 1.386t-2.912-1.386q-.868-1.386-.868-3.822m5.628 0q0-1.036-.14-1.736-.127-.714-.532-1.162-.393-.448-1.176-.448-.785 0-1.19.448-.393.448-.532 1.162-.126.7-.126 1.736 0 1.065.126 1.792.126.714.532 1.162.405.434 1.19.434.783 0 1.19-.434.406-.448.532-1.162.126-.728.126-1.792m3.423 0q0-2.423.868-3.794.882-1.372 2.912-1.372t2.898 1.372q.882 1.373.882 3.794 0 2.436-.882 3.822-.868 1.386-2.898 1.386t-2.912-1.386q-.868-1.386-.868-3.822m5.628 0q0-1.036-.14-1.736-.126-.714-.532-1.162-.393-.448-1.176-.448-.785 0-1.19.448-.393.448-.532 1.162-.126.7-.126 1.736 0 1.065.126 1.792.126.714.532 1.162.405.434 1.19.434.783 0 1.19-.434.405-.448.532-1.162.126-.728.126-1.792"/><rect width="398" height="49" x="473.078" y="20.5" fill="#e4e4e4" rx="24.5"/><rect width="398" height="49" x="473.078" y="20.5" stroke="#e4e4e4" rx="24.5"/><g stroke="#002c4e" stroke-linecap="round" stroke-linejoin="round" clip-path="url(#a)"><path d="M587.911 51.667a.667.667 0 1 0 0-1.334.667.667 0 0 0 0 1.334M595.245 51.667a.666.666 0 1 0 0-1.333.666.666 0 0 0 0 1.333M583.945 38.367h1.333l1.773 8.28a1.336 1.336 0 0 0 1.334 1.053h6.52a1.336 1.336 0 0 0 1.3-1.047l1.1-4.953h-11.314"/></g><path fill="#002c4e" d="M621.536 48.138h-3.892L617 50h-2.058l3.514-9.786h2.282L624.252 50h-2.072zm-.532-1.568-1.414-4.088-1.414 4.088zm4.058-.476q0-1.176.462-2.086.475-.91 1.288-1.4a3.43 3.43 0 0 1 1.806-.49q.755 0 1.442.336a2.8 2.8 0 0 1 1.092.868V39.64h1.988V50h-1.988v-1.148q-.365.574-1.022.924-.659.35-1.526.35a3.33 3.33 0 0 1-1.792-.504 3.56 3.56 0 0 1-1.288-1.414q-.462-.923-.462-2.114m6.104.028q0-.714-.28-1.218a1.9 1.9 0 0 0-.756-.784 2 2 0 0 0-1.022-.28q-.546 0-1.008.266a2.04 2.04 0 0 0-.756.784q-.28.504-.28 1.204t.28 1.232q.294.517.756.798.476.28 1.008.28.545 0 1.022-.266.475-.28.756-.784.28-.518.28-1.232m3.384-.028q0-1.176.462-2.086.476-.91 1.288-1.4a3.43 3.43 0 0 1 1.806-.49q.756 0 1.442.336a2.8 2.8 0 0 1 1.092.868V39.64h1.988V50h-1.988v-1.148q-.364.574-1.022.924t-1.526.35a3.33 3.33 0 0 1-1.792-.504 3.57 3.57 0 0 1-1.288-1.414q-.462-.923-.462-2.114m6.104.028q0-.714-.28-1.218a1.9 1.9 0 0 0-.756-.784 2 2 0 0 0-1.022-.28q-.546 0-1.008.266a2.04 2.04 0 0 0-.756.784q-.28.504-.28 1.204t.28 1.232q.294.517.756.798.476.28 1.008.28.546 0 1.022-.266.476-.28.756-.784.28-.518.28-1.232m9.506-2.268v3.752q0 .392.182.574.196.168.644.168h.91V50h-1.232q-2.478 0-2.478-2.408v-3.738h-.924v-1.61h.924v-1.918h1.974v1.918h1.736v1.61zm6.59 6.272q-1.12 0-2.016-.49a3.7 3.7 0 0 1-1.414-1.414q-.504-.91-.504-2.1t.518-2.1a3.65 3.65 0 0 1 1.442-1.4 4.1 4.1 0 0 1 2.03-.504q1.12 0 2.03.504a3.55 3.55 0 0 1 1.428 1.4q.532.91.532 2.1t-.546 2.1a3.7 3.7 0 0 1-1.456 1.414q-.91.49-2.044.49m0-1.708q.532 0 .994-.252a1.9 1.9 0 0 0 .756-.784q.28-.518.28-1.26 0-1.106-.588-1.694a1.88 1.88 0 0 0-1.414-.602q-.84 0-1.414.602-.56.588-.56 1.694t.546 1.708q.56.588 1.4.588m8.344-3.318q0-1.442.644-2.576a4.64 4.64 0 0 1 1.778-1.778q1.134-.645 2.534-.644 1.638 0 2.87.84 1.231.84 1.722 2.324h-2.254a2.33 2.33 0 0 0-.952-1.05q-.603-.35-1.4-.35a2.9 2.9 0 0 0-1.526.406 2.74 2.74 0 0 0-1.036 1.12q-.364.728-.364 1.708 0 .966.364 1.708.378.727 1.036 1.134a2.97 2.97 0 0 0 1.526.392q.798 0 1.4-.35.615-.364.952-1.064h2.254q-.49 1.498-1.722 2.338-1.218.825-2.87.826-1.4 0-2.534-.63a4.8 4.8 0 0 1-1.778-1.778q-.644-1.134-.644-2.576m10.718.994q0-1.176.462-2.086.476-.91 1.274-1.4a3.43 3.43 0 0 1 1.806-.49q.867 0 1.512.35.657.35 1.05.882v-1.106h1.974V50h-1.974v-1.134q-.378.546-1.05.91-.659.35-1.526.35a3.33 3.33 0 0 1-1.792-.504q-.798-.504-1.274-1.414-.462-.923-.462-2.114m6.104.028q0-.714-.28-1.218a1.9 1.9 0 0 0-.756-.784 2 2 0 0 0-1.022-.28q-.546 0-1.008.266a2.04 2.04 0 0 0-.756.784q-.28.504-.28 1.204t.28 1.232q.294.517.756.798.476.28 1.008.28.545 0 1.022-.266.475-.28.756-.784.28-.518.28-1.232m5.848-2.674q.378-.616.98-.966.616-.35 1.4-.35v2.058h-.518q-.924 0-1.4.434-.462.434-.462 1.512V50h-1.96v-7.756h1.96zm5.982.406v3.752q0 .392.182.574.196.168.644.168h.91V50h-1.232q-2.478 0-2.478-2.408v-3.738h-.924v-1.61h.924v-1.918h1.974v1.918h1.736v1.61zM720.516 47.186q0 .728-.378 1.372-.365.63-1.092 1.05-.714.406-1.694.476v1.134h-.896V50.07q-1.4-.126-2.254-.84-.853-.728-.882-1.96h2.1q.084 1.008 1.036 1.218v-2.674a12 12 0 0 1-1.624-.504 2.6 2.6 0 0 1-1.064-.812q-.448-.56-.448-1.526 0-1.218.868-1.988.882-.77 2.268-.882v-1.134h.896v1.134q1.344.112 2.142.812.812.7.91 1.932h-2.114a1.25 1.25 0 0 0-.294-.7 1.26 1.26 0 0 0-.644-.434v2.646q1.05.266 1.652.518.616.238 1.064.798.448.546.448 1.512m-5.152-4.312q0 .462.28.756.28.28.812.462V41.67q-.504.07-.798.378-.294.307-.294.826m1.988 5.642q.532-.098.826-.434a1.16 1.16 0 0 0 .308-.812q0-.462-.294-.742t-.84-.462zm11.988-7.028h-4.536v2.394q.294-.364.84-.588a2.9 2.9 0 0 1 1.162-.238q1.12 0 1.834.49.715.49 1.036 1.26.322.756.322 1.624 0 1.61-.924 2.59-.909.98-2.604.98-1.596 0-2.548-.798t-1.078-2.086h1.904q.126.56.56.896.448.336 1.134.336.826 0 1.246-.518t.42-1.372q0-.868-.434-1.316-.42-.462-1.246-.462-.587 0-.98.294a1.6 1.6 0 0 0-.56.784h-1.876v-5.992h6.328zm7.442.854q-.14-.588-.49-.882-.336-.294-.98-.294-.966 0-1.428.784-.448.77-.462 2.52a2.23 2.23 0 0 1 .98-.868 3.1 3.1 0 0 1 1.4-.322q.91 0 1.61.392t1.092 1.148q.392.742.392 1.792 0 .994-.406 1.778a2.83 2.83 0 0 1-1.162 1.204q-.77.434-1.834.434-1.456 0-2.296-.644-.826-.645-1.162-1.792-.322-1.162-.322-2.856 0-2.562.882-3.864.882-1.316 2.786-1.316 1.47 0 2.282.798t.938 1.988zm-1.428 2.548q-.742 0-1.246.434-.504.435-.504 1.26 0 .826.462 1.302.476.476 1.33.476.756 0 1.19-.462.448-.462.448-1.246 0-.811-.434-1.288-.42-.476-1.246-.476m6.183 5.208q-.533 0-.882-.322a1.12 1.12 0 0 1-.336-.826q0-.49.336-.812.35-.336.882-.336.518 0 .854.336.336.322.336.812t-.336.826q-.336.322-.854.322m2.545-5.334q0-2.423.868-3.794.882-1.372 2.912-1.372t2.898 1.372q.882 1.373.882 3.794 0 2.436-.882 3.822-.869 1.386-2.898 1.386t-2.912-1.386q-.868-1.386-.868-3.822m5.628 0q0-1.036-.14-1.736-.126-.714-.532-1.162-.392-.448-1.176-.448t-1.19.448q-.392.448-.532 1.162-.126.7-.126 1.736 0 1.065.126 1.792.126.714.532 1.162.406.434 1.19.434t1.19-.434q.406-.448.532-1.162.126-.728.126-1.792m3.423 0q0-2.423.868-3.794.881-1.372 2.912-1.372t2.898 1.372q.882 1.373.882 3.794 0 2.436-.882 3.822-.868 1.386-2.898 1.386t-2.912-1.386q-.868-1.386-.868-3.822m5.628 0q0-1.036-.14-1.736-.126-.714-.532-1.162-.393-.448-1.176-.448-.785 0-1.19.448-.393.448-.532 1.162-.126.7-.126 1.736 0 1.065.126 1.792.126.714.532 1.162.405.434 1.19.434.783 0 1.19-.434.405-.448.532-1.162.126-.728.126-1.792"/><defs><clipPath id="a"><path fill="#fff" d="M582.578 37h16v16h-16z"/></clipPath></defs></svg>