<svg xmlns="http://www.w3.org/2000/svg" fill="none" viewBox="0 0 357 50"><rect width="172" height="49" x=".5" y=".5" stroke="#002c4e" rx="24.5"/><path stroke="#002c4e" stroke-linecap="round" stroke-linejoin="round" d="M52.667 25h-9.334M48 20.333 43.333 25 48 29.667"/><path fill="#002c4e" d="M80.092 23.252q0 .785-.378 1.47-.364.686-1.162 1.106-.784.42-1.988.42h-1.638V30h-1.96v-9.772h3.598q1.134 0 1.932.392.798.391 1.19 1.078.405.686.406 1.554m-3.612 1.414q.812 0 1.204-.364.392-.378.392-1.05 0-1.428-1.596-1.428h-1.554v2.842zm6.964-1.218q.377-.616.98-.966.615-.35 1.4-.35v2.058h-.518q-.924 0-1.4.434-.462.434-.462 1.512V30h-1.96v-7.756h1.96zm10.91 2.506q0 .42-.056.756h-5.67q.069.84.588 1.316t1.274.476q1.092 0 1.554-.938h2.114a3.57 3.57 0 0 1-1.288 1.848q-.952.714-2.338.714-1.12 0-2.016-.49a3.6 3.6 0 0 1-1.386-1.414q-.49-.91-.49-2.1 0-1.204.49-2.114a3.4 3.4 0 0 1 1.372-1.4q.881-.49 2.03-.49 1.106 0 1.974.476.882.476 1.358 1.358.49.868.49 2.002m-2.03-.56q-.015-.756-.546-1.204-.532-.462-1.302-.462-.728 0-1.232.448-.49.434-.602 1.218zm6.694 2.8 1.96-5.95h2.086L100.194 30h-2.38l-2.856-7.756h2.1zm6.141-6.874q-.517 0-.868-.322a1.12 1.12 0 0 1-.336-.826q0-.49.336-.812.35-.336.868-.336.519 0 .854.336.35.322.35.812t-.35.826q-.335.322-.854.322m.966.924V30h-1.96v-7.756zm5.381 7.882q-1.12 0-2.016-.49a3.67 3.67 0 0 1-1.414-1.414q-.504-.91-.504-2.1t.518-2.1a3.64 3.64 0 0 1 1.442-1.4 4.1 4.1 0 0 1 2.03-.504q1.12 0 2.03.504a3.56 3.56 0 0 1 1.428 1.4q.531.91.532 2.1 0 1.19-.546 2.1a3.7 3.7 0 0 1-1.456 1.414q-.91.49-2.044.49m0-1.708q.531 0 .994-.252a1.9 1.9 0 0 0 .756-.784q.28-.518.28-1.26 0-1.106-.588-1.694a1.88 1.88 0 0 0-1.414-.602q-.84 0-1.414.602-.56.588-.56 1.694t.546 1.708q.56.588 1.4.588m12.805-6.174V30h-1.974v-.98a2.63 2.63 0 0 1-.994.798 3.1 3.1 0 0 1-1.316.28q-.91 0-1.61-.378a2.8 2.8 0 0 1-1.106-1.134q-.392-.756-.392-1.792v-4.55h1.96v4.27q0 .924.462 1.428.462.49 1.26.49.812 0 1.274-.49.462-.504.462-1.428v-4.27zm4.902 7.882q-.952 0-1.708-.336a3.14 3.14 0 0 1-1.204-.938 2.4 2.4 0 0 1-.476-1.302h1.974q.056.448.434.742.393.294.966.294.56 0 .868-.224.322-.224.322-.574 0-.378-.392-.56-.378-.195-1.218-.42a11 11 0 0 1-1.428-.434 2.54 2.54 0 0 1-.952-.686q-.392-.462-.392-1.246 0-.644.364-1.176.378-.533 1.064-.84.7-.308 1.638-.308 1.387 0 2.212.7.826.686.91 1.862h-1.876a.98.98 0 0 0-.392-.728q-.336-.28-.91-.28-.531 0-.826.196a.63.63 0 0 0-.28.546q0 .392.392.602.393.195 1.218.406.84.21 1.386.434.546.225.938.7.406.462.42 1.232 0 .672-.378 1.204-.363.532-1.064.84-.686.294-1.61.294"/><rect width="143" height="49" x="213.5" y=".5" stroke="#002c4e" rx="24.5"/><path fill="#002c4e" d="M262.324 30h-1.96l-4.438-6.706V30h-1.96v-9.786h1.96l4.438 6.72v-6.72h1.96zm9.147-4.046q0 .42-.056.756h-5.67q.07.84.588 1.316t1.274.476q1.092 0 1.554-.938h2.114a3.57 3.57 0 0 1-1.288 1.848q-.952.714-2.338.714-1.12 0-2.016-.49a3.6 3.6 0 0 1-1.386-1.414q-.49-.91-.49-2.1 0-1.204.49-2.114a3.4 3.4 0 0 1 1.372-1.4q.882-.49 2.03-.49 1.106 0 1.974.476.882.476 1.358 1.358.49.868.49 2.002m-2.03-.56q-.014-.756-.546-1.204-.533-.462-1.302-.462-.728 0-1.232.448-.49.434-.602 1.218zM277.186 30l-1.596-2.408L274.176 30h-2.1l2.534-3.892-2.562-3.864h2.212l1.582 2.394 1.428-2.394h2.1l-2.548 3.864L279.398 30zm5.558-6.146v3.752q0 .392.182.574.196.168.644.168h.91V30h-1.232q-2.478 0-2.478-2.408v-3.738h-.924v-1.61h.924v-1.918h1.974v1.918h1.736v1.61z"/><path stroke="#002c4e" stroke-linecap="round" stroke-linejoin="round" d="M304.333 25h9.334M309 20.333 313.667 25 309 29.667"/></svg>