<svg xmlns="http://www.w3.org/2000/svg" fill="none" viewBox="0 0 133 50"><rect width="132" height="49" x=".5" y=".5" fill="#002c4e" rx="24.5"/><rect width="132" height="49" x=".5" y=".5" stroke="#002c4e" rx="24.5"/><path fill="#fff" d="M40.504 21.6v-1.806h3.374V30h-2.016v-8.4zm12.17-.112h-4.536v2.394q.294-.364.84-.588a2.9 2.9 0 0 1 1.162-.238q1.12 0 1.834.49.715.49 1.036 1.26.322.756.322 1.624 0 1.61-.924 2.59-.909.98-2.604.98-1.596 0-2.548-.798t-1.078-2.086h1.904q.125.56.56.896.448.336 1.134.336.825 0 1.246-.518.42-.518.42-1.372 0-.868-.434-1.316-.42-.462-1.246-.462-.587 0-.98.294a1.6 1.6 0 0 0-.56.784h-1.876v-5.992h6.328zm5.206 4.606q0-1.177.462-2.086.476-.91 1.288-1.4a3.43 3.43 0 0 1 1.806-.49q.756 0 1.442.336.685.322 1.092.868V19.64h1.988V30H63.97v-1.148q-.364.574-1.022.924t-1.526.35q-.98 0-1.792-.504a3.57 3.57 0 0 1-1.288-1.414q-.462-.924-.462-2.114m6.104.028q0-.714-.28-1.218a1.9 1.9 0 0 0-.756-.784 2 2 0 0 0-1.022-.28q-.546 0-1.008.266a2.04 2.04 0 0 0-.756.784q-.28.504-.28 1.204t.28 1.232q.294.518.756.798.475.28 1.008.28.546 0 1.022-.266.476-.28.756-.784.28-.518.28-1.232m3.384-.028q0-1.177.462-2.086.477-.91 1.274-1.4a3.43 3.43 0 0 1 1.806-.49q.868 0 1.512.35.659.35 1.05.882v-1.106h1.974V30h-1.974v-1.134q-.378.546-1.05.91-.657.35-1.526.35-.98 0-1.792-.504-.797-.504-1.274-1.414-.462-.924-.462-2.114m6.104.028q0-.714-.28-1.218a1.9 1.9 0 0 0-.756-.784 2 2 0 0 0-1.022-.28q-.546 0-1.008.266a2.04 2.04 0 0 0-.756.784q-.28.504-.28 1.204t.28 1.232q.294.518.756.798.477.28 1.008.28.546 0 1.022-.266.477-.28.756-.784.28-.518.28-1.232m11.309-3.878-4.803 11.424h-2.085l1.68-3.864-3.108-7.56h2.197l2.002 5.418 2.03-5.418zm4.024 7.882q-.952 0-1.708-.336a3.13 3.13 0 0 1-1.204-.938 2.4 2.4 0 0 1-.476-1.302h1.974q.056.448.434.742.391.294.966.294.56 0 .868-.224.322-.224.322-.574 0-.378-.392-.56-.378-.195-1.218-.42a11 11 0 0 1-1.428-.434 2.54 2.54 0 0 1-.952-.686q-.392-.462-.392-1.246 0-.644.364-1.176.378-.533 1.064-.84.7-.308 1.638-.308 1.386 0 2.212.7.826.686.91 1.862h-1.876a.98.98 0 0 0-.392-.728q-.336-.28-.91-.28-.532 0-.826.196a.63.63 0 0 0-.28.546q0 .392.392.602.391.195 1.218.406.84.21 1.386.434.546.225.938.7.405.462.42 1.232 0 .672-.378 1.204-.364.532-1.064.84-.686.294-1.61.294"/></svg>