<svg xmlns="http://www.w3.org/2000/svg" fill="none" viewBox="0 0 135 32"><rect width="134" height="31" x=".5" y=".5" stroke="#002c4e" rx="15.5"/><path fill="#002c4e" d="M23.378 14.028q0 1.26-.826 2.03t-2.478.77H18.1V21h-.98v-9.786h2.954q1.638 0 2.464.77.84.77.84 2.044m-3.304 1.96q2.296 0 2.296-1.96 0-.98-.546-1.484t-1.75-.504H18.1v3.948zm4.5 1.176q0-1.176.462-2.058a3.36 3.36 0 0 1 1.302-1.372 3.7 3.7 0 0 1 1.89-.49q1.092 0 1.876.504.798.504 1.148 1.288v-1.68h.98V21h-.98v-1.694q-.363.784-1.162 1.302-.783.504-1.876.504-1.035 0-1.876-.49a3.46 3.46 0 0 1-1.302-1.386q-.462-.896-.462-2.072m6.678.014q0-.924-.378-1.624a2.7 2.7 0 0 0-1.036-1.078 2.77 2.77 0 0 0-1.428-.378q-.811 0-1.456.364t-1.022 1.064q-.363.686-.364 1.638 0 .938.364 1.652.378.7 1.022 1.078.645.364 1.456.364.784 0 1.428-.378a2.7 2.7 0 0 0 1.036-1.078q.378-.7.378-1.624m3.708-5.264a.69.69 0 0 1-.504-.21.7.7 0 0 1-.21-.518q0-.308.21-.504.21-.21.504-.21t.504.21q.21.196.21.504t-.21.518a.69.69 0 0 1-.504.21m.49 1.442V21h-.98v-7.644zm3.199 1.358q.322-.714.98-1.106.672-.392 1.638-.392v1.022H41q-1.065 0-1.708.574-.644.574-.644 1.918V21h-.98v-7.644h.98zm11.008 2.072q0 .504-.028.77h-6.342q.042.868.42 1.484.378.615.994.938.616.308 1.344.308.953 0 1.596-.462.658-.462.868-1.246h1.036a3.26 3.26 0 0 1-1.204 1.834q-.91.7-2.296.7-1.078 0-1.932-.476a3.5 3.5 0 0 1-1.344-1.372q-.476-.896-.476-2.086t.476-2.086a3.3 3.3 0 0 1 1.33-1.372q.855-.476 1.946-.476 1.092 0 1.904.476.825.476 1.26 1.288.448.798.448 1.778m-.994-.028q.015-.855-.35-1.456a2.27 2.27 0 0 0-.966-.91 2.96 2.96 0 0 0-1.344-.308q-1.092 0-1.862.7t-.854 1.974zm2.34.406q0-1.176.475-2.058a3.36 3.36 0 0 1 1.302-1.372 3.7 3.7 0 0 1 1.89-.49q1.008 0 1.82.49t1.19 1.274V10.64h.98V21h-.98v-1.708q-.35.797-1.148 1.316-.798.504-1.876.504-1.05 0-1.89-.49a3.46 3.46 0 0 1-1.302-1.386q-.462-.896-.462-2.072m6.677.014q0-.924-.378-1.624a2.7 2.7 0 0 0-1.036-1.078 2.77 2.77 0 0 0-1.428-.378q-.812 0-1.456.364-.645.364-1.022 1.064-.364.686-.364 1.638 0 .938.364 1.652.378.7 1.022 1.078.645.364 1.456.364a2.77 2.77 0 0 0 1.428-.378 2.7 2.7 0 0 0 1.036-1.078q.378-.7.378-1.624m18.931-5.964L73.84 21h-1.092l-2.464-8.344L67.763 21l-1.064.014-2.716-9.8h1.05l2.24 8.582 2.506-8.582h1.092l2.436 8.582 2.254-8.582zm1.99.7a.69.69 0 0 1-.505-.21.7.7 0 0 1-.21-.518q0-.308.21-.504.21-.21.504-.21t.504.21q.21.196.21.504t-.21.518a.69.69 0 0 1-.504.21m.49 1.442V21h-.98v-7.644zm3.493.826v4.746q0 .7.266.966t.938.266h.895V21h-1.05q-1.035 0-1.54-.476-.504-.49-.504-1.596v-4.746h-1.064v-.826h1.064v-1.918h.995v1.918h2.1v.826zm7.356-.966q.867 0 1.554.364.699.364 1.092 1.12.405.742.406 1.82V21h-.966v-4.368q0-1.245-.63-1.904-.617-.658-1.694-.658-1.107 0-1.764.7-.658.7-.658 2.058V21h-.98V10.64h.98v4.018a2.54 2.54 0 0 1 1.064-1.064 3.36 3.36 0 0 1 1.596-.378"/><path stroke="#002c4e" stroke-linecap="round" stroke-linejoin="round" d="M106.333 16h9.334M111 11.333v9.334"/></svg>