<svg xmlns="http://www.w3.org/2000/svg" fill="none" viewBox="0 0 382 90"><rect width="381" height="89" x=".5" y=".5" stroke="#9747ff" stroke-dasharray="10 5" rx="4.5"/><rect width="136" height="49" x="20.5" y="20.5" stroke="#002c4e" rx="24.5"/><path fill="#002c4e" d="M65.502 50.098a5.06 5.06 0 0 1-2.52-.644 4.8 4.8 0 0 1-1.82-1.778q-.672-1.148-.672-2.59 0-1.428.672-2.562a4.8 4.8 0 0 1 1.82-1.792 5.06 5.06 0 0 1 2.52-.644q1.386 0 2.52.644a4.7 4.7 0 0 1 1.806 1.792q.672 1.134.672 2.562 0 1.442-.672 2.59a4.7 4.7 0 0 1-1.806 1.778 5.06 5.06 0 0 1-2.52.644m0-1.75q.882 0 1.554-.392.672-.405 1.05-1.148t.378-1.722-.378-1.708a2.7 2.7 0 0 0-1.05-1.134q-.672-.392-1.554-.392t-1.568.392q-.672.392-1.05 1.134-.378.728-.378 1.708t.378 1.722 1.05 1.148q.686.392 1.568.392m8.416-4.9q.378-.616.98-.966.615-.35 1.4-.35v2.058h-.518q-.923 0-1.4.434-.462.434-.462 1.512V50h-1.96v-7.756h1.96zm4.694-2.128q-.517 0-.868-.322a1.12 1.12 0 0 1-.336-.826q0-.49.336-.812.35-.336.868-.336.519 0 .854.336.35.322.35.812a1.1 1.1 0 0 1-.35.826q-.335.322-.854.322m.966.924V50h-1.96v-7.756zm4.975-.126q.868 0 1.526.35.658.336 1.036.882v-1.106h1.974v7.812q0 1.078-.434 1.918a3.17 3.17 0 0 1-1.302 1.344q-.868.504-2.1.504-1.653 0-2.716-.77-1.05-.77-1.19-2.1h1.946q.154.532.658.84.517.322 1.246.322.854 0 1.386-.518.532-.505.532-1.54v-1.204q-.378.546-1.05.91-.658.364-1.512.364-.98 0-1.792-.504a3.57 3.57 0 0 1-1.288-1.414q-.462-.923-.462-2.114 0-1.176.462-2.086.476-.91 1.274-1.4a3.43 3.43 0 0 1 1.806-.49m2.562 4.004q0-.714-.28-1.218a1.9 1.9 0 0 0-.756-.784 2 2 0 0 0-1.022-.28q-.546 0-1.008.266a2.04 2.04 0 0 0-.756.784q-.28.504-.28 1.204t.28 1.232q.294.517.756.798.476.28 1.008.28.545 0 1.022-.266.476-.28.756-.784.28-.518.28-1.232m4.882-4.802q-.518 0-.868-.322a1.12 1.12 0 0 1-.336-.826q0-.49.336-.812.35-.336.868-.336t.854.336q.35.322.35.812a1.1 1.1 0 0 1-.35.826q-.336.322-.854.322m.966.924V50h-1.96v-7.756zm6.235-.112q1.386 0 2.24.882.854.868.854 2.436V50h-1.96v-4.284q0-.924-.462-1.414-.462-.504-1.26-.504-.813 0-1.288.504-.462.49-.462 1.414V50H94.9v-7.756h1.96v.966q.39-.504.994-.784a3.1 3.1 0 0 1 1.344-.294m4.453 3.962q0-1.176.462-2.086.477-.91 1.274-1.4a3.43 3.43 0 0 1 1.806-.49q.868 0 1.512.35.658.35 1.05.882v-1.106h1.974V50h-1.974v-1.134q-.378.546-1.05.91-.657.35-1.526.35-.98 0-1.792-.504-.797-.504-1.274-1.414-.462-.923-.462-2.114m6.104.028q0-.714-.28-1.218a1.9 1.9 0 0 0-.756-.784 2 2 0 0 0-1.022-.28q-.546 0-1.008.266a2.04 2.04 0 0 0-.756.784q-.28.504-.28 1.204t.28 1.232q.294.517.756.798.477.28 1.008.28.546 0 1.022-.266.477-.28.756-.784.28-.518.28-1.232m5.849-6.482V50h-1.96V39.64z"/><rect width="173" height="50" x="169.078" y="20" fill="#025f1d" rx="25"/><path fill="#fff" d="M216.757 34.8c1.946 4.725 3.689 9.722 5.778 14.36.372.828.907 1.611 1.863.927.813-.58 1.216-2.297 1.109-3.551-.114-1.323-.759-2.358-.057-3.811 1.406-2.905 5.942-1.672 5.477 1.911-.249 1.916-1.925 2.381-3.268 2.77-.789.229-1.806.85-2.307 2.189-.748 2.003-.378 4.594-1.83 6.332-1.381 1.651-3.94 1.414-4.931-.831-.748-1.694-7.199-18.16-7.199-18.16-.578-1.536.161-3.11 1.625-3.7 1.548-.625 3.106.026 3.74 1.564"/><path fill="#f7f8fa" d="M250.58 50.098a5.06 5.06 0 0 1-2.52-.644 4.8 4.8 0 0 1-1.82-1.778q-.672-1.148-.672-2.59 0-1.428.672-2.562a4.8 4.8 0 0 1 1.82-1.792 5.06 5.06 0 0 1 2.52-.644q1.386 0 2.52.644a4.7 4.7 0 0 1 1.806 1.792q.672 1.134.672 2.562 0 1.442-.672 2.59a4.7 4.7 0 0 1-1.806 1.778 5.06 5.06 0 0 1-2.52.644m0-1.75q.882 0 1.554-.392.672-.405 1.05-1.148t.378-1.722-.378-1.708a2.7 2.7 0 0 0-1.05-1.134q-.672-.392-1.554-.392t-1.568.392q-.672.392-1.05 1.134-.378.728-.378 1.708t.378 1.722 1.05 1.148q.686.392 1.568.392m8.416-4.9q.378-.616.98-.966.617-.35 1.4-.35v2.058h-.518q-.923 0-1.4.434-.462.434-.462 1.512V50h-1.96v-7.756h1.96zm4.694-2.128q-.517 0-.868-.322a1.12 1.12 0 0 1-.336-.826q0-.49.336-.812.35-.336.868-.336t.854.336q.35.322.35.812t-.35.826q-.336.322-.854.322m.966.924V50h-1.96v-7.756zm4.975-.126q.868 0 1.526.35a2.75 2.75 0 0 1 1.036.882v-1.106h1.974v7.812q0 1.078-.434 1.918a3.17 3.17 0 0 1-1.302 1.344q-.868.504-2.1.504-1.652 0-2.716-.77-1.05-.77-1.19-2.1h1.946q.154.532.658.84.518.322 1.246.322.853 0 1.386-.518.532-.505.532-1.54v-1.204q-.378.546-1.05.91-.659.364-1.512.364a3.33 3.33 0 0 1-1.792-.504 3.57 3.57 0 0 1-1.288-1.414q-.462-.923-.462-2.114 0-1.176.462-2.086.476-.91 1.274-1.4a3.43 3.43 0 0 1 1.806-.49m2.562 4.004q0-.714-.28-1.218a1.9 1.9 0 0 0-.756-.784 2 2 0 0 0-1.022-.28q-.546 0-1.008.266a2.04 2.04 0 0 0-.756.784q-.28.504-.28 1.204t.28 1.232q.294.517.756.798.476.28 1.008.28.546 0 1.022-.266.476-.28.756-.784.28-.518.28-1.232m4.882-4.802q-.517 0-.868-.322a1.12 1.12 0 0 1-.336-.826q0-.49.336-.812.35-.336.868-.336t.854.336q.35.322.35.812t-.35.826q-.336.322-.854.322m.966.924V50h-1.96v-7.756zm6.235-.112q1.385 0 2.24.882.854.868.854 2.436V50h-1.96v-4.284q0-.924-.462-1.414-.462-.504-1.26-.504-.813 0-1.288.504-.462.49-.462 1.414V50h-1.96v-7.756h1.96v.966a2.65 2.65 0 0 1 .994-.784q.615-.294 1.344-.294m4.454 3.962q0-1.176.462-2.086.476-.91 1.274-1.4a3.43 3.43 0 0 1 1.806-.49q.867 0 1.512.35.657.35 1.05.882v-1.106h1.974V50h-1.974v-1.134q-.378.546-1.05.91-.659.35-1.526.35a3.33 3.33 0 0 1-1.792-.504q-.798-.504-1.274-1.414-.462-.923-.462-2.114m6.104.028q0-.714-.28-1.218a1.9 1.9 0 0 0-.756-.784 2 2 0 0 0-1.022-.28q-.546 0-1.008.266a2.04 2.04 0 0 0-.756.784q-.28.504-.28 1.204t.28 1.232q.294.517.756.798.475.28 1.008.28.546 0 1.022-.266.476-.28.756-.784.28-.518.28-1.232m5.848-6.482V50h-1.96V39.64z"/></svg>