<svg xmlns="http://www.w3.org/2000/svg" fill="none" viewBox="0 0 519 90"><rect width="518" height="89" x=".5" y=".5" stroke="#9747ff" stroke-dasharray="10 5" rx="4.5"/><rect width="132" height="49" x="20.5" y="20.5" fill="#002c4e" rx="24.5"/><rect width="132" height="49" x="20.5" y="20.5" stroke="#002c4e" rx="24.5"/><path fill="#fff" d="M60.504 41.6v-1.806h3.374V50h-2.016v-8.4zm12.17-.112h-4.536v2.394q.294-.364.84-.588a2.9 2.9 0 0 1 1.162-.238q1.12 0 1.834.49.715.49 1.036 1.26.322.756.322 1.624 0 1.61-.924 2.59-.909.98-2.604.98-1.596 0-2.548-.798-.951-.798-1.078-2.086h1.904q.125.56.56.896.449.336 1.134.336.825 0 1.246-.518.42-.518.42-1.372 0-.868-.434-1.316-.42-.462-1.246-.462-.587 0-.98.294a1.6 1.6 0 0 0-.56.784h-1.876v-5.992h6.328zm5.206 4.606q0-1.176.462-2.086.476-.91 1.288-1.4a3.43 3.43 0 0 1 1.806-.49q.756 0 1.442.336.686.322 1.092.868V39.64h1.988V50H83.97v-1.148q-.364.574-1.022.924t-1.526.35q-.98 0-1.792-.504a3.57 3.57 0 0 1-1.288-1.414q-.462-.923-.462-2.114m6.104.028q0-.714-.28-1.218a1.9 1.9 0 0 0-.756-.784 2 2 0 0 0-1.022-.28q-.546 0-1.008.266a2.04 2.04 0 0 0-.756.784q-.28.504-.28 1.204t.28 1.232q.294.517.756.798.475.28 1.008.28.546 0 1.022-.266.476-.28.756-.784.28-.518.28-1.232m3.384-.028q0-1.176.462-2.086.477-.91 1.274-1.4a3.43 3.43 0 0 1 1.806-.49q.868 0 1.512.35.658.35 1.05.882v-1.106h1.974V50h-1.974v-1.134q-.378.546-1.05.91-.657.35-1.526.35-.98 0-1.792-.504-.797-.504-1.274-1.414-.462-.923-.462-2.114m6.104.028q0-.714-.28-1.218a1.9 1.9 0 0 0-.756-.784 2 2 0 0 0-1.022-.28q-.546 0-1.008.266a2.04 2.04 0 0 0-.756.784q-.28.504-.28 1.204t.28 1.232q.294.517.756.798.477.28 1.008.28.546 0 1.022-.266.477-.28.756-.784.28-.518.28-1.232m11.309-3.878-4.803 11.424h-2.085l1.68-3.864-3.108-7.56h2.197l2.003 5.418 2.03-5.418zm4.024 7.882q-.952 0-1.708-.336a3.14 3.14 0 0 1-1.204-.938 2.4 2.4 0 0 1-.476-1.302h1.974q.056.448.434.742.391.294.966.294.56 0 .868-.224.322-.224.322-.574 0-.378-.392-.56-.378-.195-1.218-.42a11 11 0 0 1-1.428-.434 2.54 2.54 0 0 1-.952-.686q-.392-.462-.392-1.246 0-.644.364-1.176.378-.532 1.064-.84.7-.308 1.638-.308 1.386 0 2.212.7.826.686.91 1.862h-1.876a.99.99 0 0 0-.392-.728q-.336-.28-.91-.28-.532 0-.826.196a.63.63 0 0 0-.28.546q0 .392.392.602.391.196 1.218.406.84.21 1.386.434.546.225.938.7.407.462.42 1.232 0 .672-.378 1.204-.364.532-1.064.84-.686.294-1.61.294"/><rect width="161" height="49" x="185.5" y="20.5" stroke="#002c4e" rx="24.5"/><mask id="a" fill="#fff"><path d="M225 20h82v11a8 8 0 0 1-8 8h-66a8 8 0 0 1-8-8z"/></mask><path fill="#84c12f" d="M225 20h82v11a8 8 0 0 1-8 8h-66a8 8 0 0 1-8-8z"/><path fill="#002c4e" d="M225 19h82v2h-82zm82 20h-82zm-82 0V20zm82-19v19z" mask="url(#a)"/><path fill="#fff" d="M237.893 26.02h3.39q.87 0 1.35.49.49.49.49 1.3 0 .4-.11.68-.1.28-.28.46-.17.18-.41.27-.23.08-.5.09v.06q.25 0 .52.09.28.09.51.29.23.19.38.5.16.31.16.76 0 .41-.14.78-.13.36-.37.63t-.57.43q-.33.15-.72.15h-3.7zm1.52 5.7h1.75q.3 0 .47-.16.18-.17.18-.47v-.34q0-.3-.18-.46-.17-.17-.47-.17h-1.75zm0-2.84h1.51q.3 0 .47-.17t.17-.47v-.3q0-.3-.17-.47t-.47-.17h-1.51zm5.15 4.12v-6.98h4.75v1.35h-3.23v1.43h2.77v1.34h-2.77v1.51h3.23V33zm8.334.12q-.92 0-1.56-.31a3.6 3.6 0 0 1-1.09-.82l1-1.01q.71.8 1.75.8.56 0 .83-.23a.76.76 0 0 0 .27-.61.72.72 0 0 0-.16-.48q-.16-.2-.65-.27l-.69-.09q-1.11-.14-1.63-.67-.51-.53-.51-1.41 0-.47.18-.86t.51-.67q.34-.28.82-.43a3.6 3.6 0 0 1 1.11-.16q.79 0 1.39.25t1.03.73l-1.01 1.02a1.9 1.9 0 0 0-.61-.47q-.35-.19-.89-.19-.51 0-.76.18a.58.58 0 0 0-.25.5q0 .36.19.52.2.16.64.23l.69.11q1.08.17 1.6.67.52.49.52 1.4 0 .5-.18.92t-.53.72q-.34.3-.85.47-.51.16-1.16.16m6.656-5.75V33h-1.52v-5.63h-1.89v-1.35h5.3v1.35zm6.913 5.63-2.25-6.98h1.54l1.04 3.35.55 2.19h.03l.53-2.19 1.04-3.35h1.49l-2.27 6.98zm8.647 0-.5-1.66h-2.33l-.5 1.66h-1.54l2.3-6.98h1.88l2.27 6.98zm-1.65-5.6h-.05l-.77 2.65h1.6zm4.196 5.6v-6.98h1.52v5.63h2.66V33zm6.41-6.98v4.28q0 .74.29 1.11.29.36.97.36t.97-.36q.29-.37.29-1.11v-4.28h1.48v4.12q0 .77-.15 1.34-.14.56-.47.93-.33.36-.85.54-.52.17-1.27.17t-1.27-.17q-.52-.18-.85-.54a2.24 2.24 0 0 1-.48-.93 5.7 5.7 0 0 1-.14-1.34v-4.12zm5.504 6.98v-6.98h4.75v1.35h-3.23v1.43h2.77v1.34h-2.77v1.51h3.23V33z"/><path fill="#002c4e" d="M240.004 46.6v-1.806h3.374V55h-2.016v-8.4zm12.17-.112h-4.536v2.394q.294-.364.84-.588a2.9 2.9 0 0 1 1.162-.238q1.12 0 1.834.49t1.036 1.26q.322.756.322 1.624 0 1.61-.924 2.59-.909.98-2.604.98-1.596 0-2.548-.798-.951-.798-1.078-2.086h1.904q.126.56.56.896.449.336 1.134.336.826 0 1.246-.518t.42-1.372q0-.868-.434-1.316-.42-.462-1.246-.462-.587 0-.98.294a1.6 1.6 0 0 0-.56.784h-1.876v-5.992h6.328zm5.206 4.606q0-1.176.462-2.086.476-.91 1.288-1.4a3.43 3.43 0 0 1 1.806-.49q.756 0 1.442.336a2.8 2.8 0 0 1 1.092.868V44.64h1.988V55h-1.988v-1.148q-.364.574-1.022.924t-1.526.35a3.33 3.33 0 0 1-1.792-.504 3.57 3.57 0 0 1-1.288-1.414q-.462-.923-.462-2.114m6.104.028q0-.714-.28-1.218a1.9 1.9 0 0 0-.756-.784 2 2 0 0 0-1.022-.28q-.546 0-1.008.266a2.04 2.04 0 0 0-.756.784q-.28.504-.28 1.204t.28 1.232q.294.517.756.798.476.28 1.008.28.546 0 1.022-.266.476-.28.756-.784.28-.518.28-1.232m3.384-.028q0-1.176.462-2.086.477-.91 1.274-1.4a3.43 3.43 0 0 1 1.806-.49q.868 0 1.512.35.659.35 1.05.882v-1.106h1.974V55h-1.974v-1.134q-.378.546-1.05.91-.657.35-1.526.35-.98 0-1.792-.504-.797-.504-1.274-1.414-.462-.923-.462-2.114m6.104.028q0-.714-.28-1.218a1.9 1.9 0 0 0-.756-.784 2 2 0 0 0-1.022-.28q-.546 0-1.008.266a2.04 2.04 0 0 0-.756.784q-.28.504-.28 1.204t.28 1.232q.294.517.756.798.477.28 1.008.28.546 0 1.022-.266.477-.28.756-.784.28-.518.28-1.232m11.309-3.878-4.802 11.424h-2.086l1.68-3.864-3.108-7.56h2.198l2.002 5.418 2.03-5.418zm4.024 7.882q-.952 0-1.708-.336a3.14 3.14 0 0 1-1.204-.938 2.4 2.4 0 0 1-.476-1.302h1.974q.056.448.434.742.392.294.966.294.56 0 .868-.224.322-.224.322-.574 0-.378-.392-.56-.378-.195-1.218-.42a11 11 0 0 1-1.428-.434 2.54 2.54 0 0 1-.952-.686q-.392-.462-.392-1.246 0-.644.364-1.176.378-.532 1.064-.84.7-.308 1.638-.308 1.386 0 2.212.7.826.686.91 1.862h-1.876a.99.99 0 0 0-.392-.728q-.336-.28-.91-.28-.532 0-.826.196a.63.63 0 0 0-.28.546q0 .392.392.602.392.196 1.218.406.84.21 1.386.434.546.225.938.7.407.462.42 1.232 0 .672-.378 1.204-.364.532-1.064.84-.686.294-1.61.294"/><rect width="132" height="49" x="363.5" y="20.5" stroke="#002c4e" rx="24.5"/><path fill="#002c4e" d="M403.504 41.6v-1.806h3.374V50h-2.016v-8.4zm12.17-.112h-4.536v2.394q.294-.364.84-.588a2.9 2.9 0 0 1 1.162-.238q1.12 0 1.834.49t1.036 1.26q.322.756.322 1.624 0 1.61-.924 2.59-.909.98-2.604.98-1.596 0-2.548-.798t-1.078-2.086h1.904q.126.56.56.896.448.336 1.134.336.826 0 1.246-.518t.42-1.372q0-.868-.434-1.316-.42-.462-1.246-.462-.587 0-.98.294a1.6 1.6 0 0 0-.56.784h-1.876v-5.992h6.328zm5.206 4.606q0-1.176.462-2.086.476-.91 1.288-1.4a3.43 3.43 0 0 1 1.806-.49q.756 0 1.442.336a2.8 2.8 0 0 1 1.092.868V39.64h1.988V50h-1.988v-1.148q-.364.574-1.022.924t-1.526.35a3.33 3.33 0 0 1-1.792-.504 3.57 3.57 0 0 1-1.288-1.414q-.462-.923-.462-2.114m6.104.028q0-.714-.28-1.218a1.9 1.9 0 0 0-.756-.784 2 2 0 0 0-1.022-.28q-.546 0-1.008.266a2.04 2.04 0 0 0-.756.784q-.28.504-.28 1.204t.28 1.232q.294.517.756.798.476.28 1.008.28.546 0 1.022-.266.476-.28.756-.784.28-.518.28-1.232m3.384-.028q0-1.176.462-2.086.476-.91 1.274-1.4a3.43 3.43 0 0 1 1.806-.49q.869 0 1.512.35.659.35 1.05.882v-1.106h1.974V50h-1.974v-1.134q-.378.546-1.05.91-.657.35-1.526.35-.98 0-1.792-.504-.798-.504-1.274-1.414-.462-.923-.462-2.114m6.104.028q0-.714-.28-1.218a1.9 1.9 0 0 0-.756-.784 2 2 0 0 0-1.022-.28q-.546 0-1.008.266a2.04 2.04 0 0 0-.756.784q-.28.504-.28 1.204t.28 1.232q.294.517.756.798.477.28 1.008.28.546 0 1.022-.266.477-.28.756-.784.28-.518.28-1.232m11.309-3.878-4.802 11.424h-2.086l1.68-3.864-3.108-7.56h2.198l2.002 5.418 2.03-5.418zm4.024 7.882q-.952 0-1.708-.336a3.14 3.14 0 0 1-1.204-.938 2.4 2.4 0 0 1-.476-1.302h1.974q.056.448.434.742.392.294.966.294.56 0 .868-.224.322-.224.322-.574 0-.378-.392-.56-.378-.195-1.218-.42a11 11 0 0 1-1.428-.434 2.54 2.54 0 0 1-.952-.686q-.392-.462-.392-1.246 0-.644.364-1.176.378-.532 1.064-.84.7-.308 1.638-.308 1.386 0 2.212.7.826.686.91 1.862h-1.876a.99.99 0 0 0-.392-.728q-.336-.28-.91-.28-.532 0-.826.196a.63.63 0 0 0-.28.546q0 .392.392.602.392.196 1.218.406.84.21 1.386.434.546.225.938.7.407.462.42 1.232 0 .672-.378 1.204-.364.532-1.064.84-.686.294-1.61.294"/></svg>